# Created by Kenney (www.kenney.nl)

mtllib base.mtl

g mergedBlocks

v 5.05 -0.2 0
v 4.8775 -0.2 -1.268213
v 4.8775 -0.2 1.268213
v 4.371754 -0.2 -2.45
v 4.371754 -0.2 2.45
v 3.567228 -0.2 -3.464823
v 3.567228 -0.2 3.464823
v 2.51875 -0.2 -4.243525
v 2.51875 -0.2 4.243525
v 1.297771 -0.2 -4.733037
v 1.297771 -0.2 4.733037
v -0.0125 -0.2 4.9
v -0.0125 -0.2 -4.9
v -1.322771 -0.2 4.733037
v -1.322771 -0.2 -4.733037
v -2.54375 -0.2 -4.243525
v -2.54375 -0.2 4.243525
v -3.592228 -0.2 -3.464823
v -3.592228 -0.2 3.464823
v -4.396754 -0.2 -2.45
v -4.396754 -0.2 2.45
v -4.902499 -0.2 -1.268213
v -4.902499 -0.2 1.268213
v -5.075 -0.2 0
v 5.05 -0.09999999 0
v 4.8775 -0.09999999 1.268213
v 4.8775 -0.09999999 -1.268213
v 4.371754 -0.09999999 -2.45
v 4.371754 -0.09999999 2.45
v 3.567228 -0.09999999 -3.464823
v 3.567228 -0.09999999 3.464823
v 2.51875 -0.09999999 -4.243525
v 2.51875 -0.09999999 4.243525
v 1.297771 -0.09999999 -4.733037
v 1.297771 -0.09999999 4.733037
v -0.0125 -0.09999999 -4.9
v -0.0125 -0.09999999 4.9
v -1.322771 -0.09999999 -4.733037
v -1.322771 -0.09999999 4.733037
v -2.54375 -0.09999999 -4.243525
v -2.54375 -0.09999999 4.243525
v -3.592228 -0.09999999 -3.464823
v -3.592228 -0.09999999 3.464823
v -4.396754 -0.09999999 -2.45
v -4.396754 -0.09999999 2.45
v -4.902499 -0.09999999 -1.268213
v -4.902499 -0.09999999 1.268213
v -5.075 -0.09999999 0
v -1.8224 -0.2 4.5
v 0.007119963 -0.2 5.652
v 1.83664 -0.2 4.5
v 0.007119963 -0.1 5.652
v -1.8224 -0.1 4.5
v 1.83664 -0.1 4.5

vn 0 -1 0
vn 0 1 0
vn -0.6954805 0 -0.7185449
vn -0.8588173 0 -0.512282
vn -0.4878177 0 -0.8729455
vn -0.9637518 0 -0.2668005
vn -0.251043 0 -0.9679759
vn -1 0 0
vn 0 0 -1
vn -0.9637518 0 0.2668005
vn 0.251043 0 -0.9679759
vn -0.8588173 0 0.512282
vn 0.4878177 0 -0.8729455
vn -0.6954805 0 0.7185449
vn -0.4878177 0 0.8729455
vn -0.251043 0 0.9679759
vn 0 0 1
vn 0.251043 0 0.9679759
vn 0.4878177 0 0.8729455
vn 0.6954805 0 0.7185449
vn 0.8588173 0 0.512282
vn 0.9637518 0 0.2668005
vn 1 0 0
vn 0.9637518 0 -0.2668005
vn 0.8588173 0 -0.512282
vn 0.6954805 0 -0.7185449
vn 8.742278E-08 0 -1
vn -0.5328399 0 0.846216
vn 0.5328398 0 0.8462161

vt -5.05 0
vt -4.8775 1.268213
vt -4.8775 -1.268213
vt -4.371754 2.45
vt -4.371754 -2.45
vt -3.567228 3.464823
vt -3.567228 -3.464823
vt -2.51875 4.243525
vt -2.51875 -4.243525
vt -1.297771 4.733037
vt -1.297771 -4.733037
vt 0.0125 -4.9
vt 0.0125 4.9
vt 1.322771 -4.733037
vt 1.322771 4.733037
vt 2.54375 4.243525
vt 2.54375 -4.243525
vt 3.592228 3.464823
vt 3.592228 -3.464823
vt 4.396754 2.45
vt 4.396754 -2.45
vt 4.902499 1.268213
vt 4.902499 -1.268213
vt 5.075 0
vt -3.464823 -0.2
vt -3.464823 -0.09999999
vt -2.45 -0.2
vt 3.592228 -0.2
vt 2.54375 -0.2
vt 3.592228 -0.09999999
vt -2.45 -0.09999999
vt 2.54375 -0.09999999
vt -1.268213 -0.2
vt 1.322771 -0.2
vt -1.268213 -0.09999999
vt 1.322771 -0.09999999
vt 0 -0.2
vt 0.0125 -0.2
vt 0 -0.09999999
vt 0.0125 -0.09999999
vt 1.268213 -0.2
vt -1.297771 -0.2
vt 1.268213 -0.09999999
vt -1.297771 -0.09999999
vt 2.45 -0.2
vt -2.51875 -0.2
vt 2.45 -0.09999999
vt -2.51875 -0.09999999
vt 3.464823 -0.2
vt 3.464823 -0.09999999
vt -3.592228 -0.09999999
vt -2.54375 -0.09999999
vt -3.592228 -0.2
vt -2.54375 -0.2
vt -1.322771 -0.09999999
vt -1.322771 -0.2
vt -0.0125 -0.09999999
vt -0.0125 -0.2
vt 1.297771 -0.09999999
vt 1.297771 -0.2
vt 2.51875 -0.09999999
vt 2.51875 -0.2
vt 3.567228 -0.09999999
vt 3.567228 -0.2
vt -3.567228 -0.09999999
vt -3.567228 -0.2
vt 1.8224 -4.5
vt -0.007119963 -5.652
vt -1.83664 -4.5
vt -0.007119963 5.652
vt 1.8224 4.5
vt -1.83664 4.5
vt 1.8224 -0.2
vt -1.83664 -0.2
vt 1.8224 -0.1
vt -1.83664 -0.1
vt 0.007119963 -0.1
vt 0.007119963 -0.2
vt -1.8224 -0.1
vt -1.8224 -0.2
vt 1.83664 -0.2
vt 1.83664 -0.1

usemtl _defaultMat(Clone)

f 3/3/1 2/2/1 1/1/1
f 2/2/1 3/3/1 4/4/1
f 4/4/1 3/3/1 5/5/1
f 4/4/1 5/5/1 6/6/1
f 6/6/1 5/5/1 7/7/1
f 6/6/1 7/7/1 8/8/1
f 8/8/1 7/7/1 9/9/1
f 8/8/1 9/9/1 10/10/1
f 10/10/1 9/9/1 11/11/1
f 10/10/1 11/11/1 12/12/1
f 10/10/1 12/12/1 13/13/1
f 13/13/1 12/12/1 14/14/1
f 13/13/1 14/14/1 15/15/1
f 15/15/1 14/14/1 16/16/1
f 16/16/1 14/14/1 17/17/1
f 16/16/1 17/17/1 18/18/1
f 18/18/1 17/17/1 19/19/1
f 18/18/1 19/19/1 20/20/1
f 20/20/1 19/19/1 21/21/1
f 20/20/1 21/21/1 22/22/1
f 22/22/1 21/21/1 23/23/1
f 22/22/1 23/23/1 24/24/1
f 27/3/2 26/2/2 25/1/2
f 26/2/2 27/3/2 28/5/2
f 26/2/2 28/5/2 29/4/2
f 29/4/2 28/5/2 30/7/2
f 29/4/2 30/7/2 31/6/2
f 31/6/2 30/7/2 32/9/2
f 31/6/2 32/9/2 33/8/2
f 33/8/2 32/9/2 34/11/2
f 33/8/2 34/11/2 35/10/2
f 35/10/2 34/11/2 36/12/2
f 35/10/2 36/12/2 37/13/2
f 37/13/2 36/12/2 38/14/2
f 37/13/2 38/14/2 39/15/2
f 39/15/2 38/14/2 40/17/2
f 39/15/2 40/17/2 41/16/2
f 41/16/2 40/17/2 42/19/2
f 41/16/2 42/19/2 43/18/2
f 43/18/2 42/19/2 44/21/2
f 43/18/2 44/21/2 45/20/2
f 45/20/2 44/21/2 46/23/2
f 45/20/2 46/23/2 47/22/2
f 47/22/2 46/23/2 48/24/2
f 20/27/4 42/26/3 18/25/3
f 42/30/3 16/29/5 18/28/3
f 42/26/3 20/27/4 44/31/4
f 16/29/5 42/30/3 40/32/5
f 22/33/6 44/31/4 20/27/4
f 40/32/5 15/34/7 16/29/5
f 44/31/4 22/33/6 46/35/6
f 15/34/7 40/32/5 38/36/7
f 24/37/8 46/35/6 22/33/6
f 38/36/7 13/38/9 15/34/7
f 46/35/6 24/37/8 48/39/8
f 13/38/9 38/36/7 36/40/9
f 23/41/10 48/39/8 24/37/8
f 36/40/9 10/42/11 13/38/9
f 48/39/8 23/41/10 47/43/10
f 10/42/11 36/40/9 34/44/11
f 21/45/12 47/43/10 23/41/10
f 34/44/11 8/46/13 10/42/11
f 47/43/10 21/45/12 45/47/12
f 8/46/13 34/44/11 32/48/13
f 19/49/14 45/47/12 21/45/12
f 45/47/12 19/49/14 43/50/14
f 19/53/14 41/52/15 43/51/14
f 41/52/15 19/53/14 17/54/15
f 17/54/15 39/55/16 41/52/15
f 39/55/16 17/54/15 14/56/16
f 14/56/16 37/57/17 39/55/16
f 37/57/17 14/56/16 12/58/17
f 12/58/17 35/59/18 37/57/17
f 35/59/18 12/58/17 11/60/18
f 11/60/18 33/61/19 35/59/18
f 33/61/19 11/60/18 9/62/19
f 9/62/19 31/63/20 33/61/19
f 31/63/20 9/62/19 7/64/20
f 5/27/21 31/26/20 7/25/20
f 31/26/20 5/27/21 29/31/21
f 3/33/22 29/31/21 5/27/21
f 29/31/21 3/33/22 26/35/22
f 1/37/23 26/35/22 3/33/22
f 26/35/22 1/37/23 25/39/23
f 2/41/24 25/39/23 1/37/23
f 25/39/23 2/41/24 27/43/24
f 4/45/25 27/43/24 2/41/24
f 27/43/24 4/45/25 28/47/25
f 6/49/26 28/47/25 4/45/25
f 28/47/25 6/49/26 30/50/26
f 6/66/26 32/48/13 30/65/26
f 32/48/13 6/66/26 8/46/13
f 51/69/1 50/68/1 49/67/1
f 54/72/2 53/71/2 52/70/2
f 53/75/27 51/74/27 49/73/27
f 51/74/27 53/75/27 54/76/27
f 53/79/28 50/78/28 52/77/28
f 50/78/28 53/79/28 49/80/28
f 51/81/29 52/77/29 50/78/29
f 52/77/29 51/81/29 54/82/29

