<?xml version="1.0" encoding="UTF-8" standalone="no"?>
<svg
   width="128"
   height="100"
   version="1.1"
   viewBox="0 0 96 75"
   id="svg1"
   sodipodi:docname="aerials.svg"
   inkscape:version="1.4.2 (ebf0e940d0, 2025-05-08)"
   xmlns:inkscape="http://www.inkscape.org/namespaces/inkscape"
   xmlns:sodipodi="http://sodipodi.sourceforge.net/DTD/sodipodi-0.dtd"
   xmlns="http://www.w3.org/2000/svg"
   xmlns:svg="http://www.w3.org/2000/svg">
  <defs
     id="defs1" />
  <sodipodi:namedview
     id="namedview1"
     pagecolor="#ffffff"
     bordercolor="#000000"
     borderopacity="0.25"
     inkscape:showpageshadow="2"
     inkscape:pageopacity="0.0"
     inkscape:pagecheckerboard="0"
     inkscape:deskcolor="#d1d1d1"
     inkscape:document-units="pt"
     inkscape:zoom="2.9521708"
     inkscape:cx="172.4155"
     inkscape:cy="63.173852"
     inkscape:window-width="1862"
     inkscape:window-height="1011"
     inkscape:window-x="0"
     inkscape:window-y="0"
     inkscape:window-maximized="1"
     inkscape:current-layer="svg1" />
  <path
     d="m 39.020077,21.221419 4.58116,2.255737 c 2.805956,-3.181902 5.425157,-6.523043 7.845607,-10.006319 2.121301,-3.137073 3.281493,-5.2210374 2.965297,-5.5000501 -0.286319,-0.2589348 -2.103829,0.9660541 -4.830165,3.1769091 -3.737111,3.122149 -7.265059,6.485863 -10.561367,10.07112 z m -0.963561,8.318327 -2.676511,-4.292323 v -0.0025 c -3.102232,3.483171 -5.975431,7.167859 -8.599306,11.027189 -1.81754,2.768615 -2.800963,4.583658 -2.547018,4.852525 l 0.02738,0.01992 c 0.361018,0.224081 2.308003,-1.122903 5.183698,-3.493156 v -0.0025 c 3.017561,-2.544523 5.893098,-5.250887 8.61205,-8.11171 z M 30.52004,17.093858 c -0.52783,0.545278 -0.804211,1.284744 -0.764377,2.041631 0.05976,1.309602 1.030752,2.397661 2.327923,2.604278 1.294674,0.204163 2.557003,-0.530321 3.017566,-1.757785 0.463097,-1.229929 -0.005,-2.611767 -1.115413,-3.311396 -1.110435,-0.69963 -2.559505,-0.520362 -3.465752,0.428238 z m 4.484069,4.105624 -0.04732,0.0498 4.349635,6.973457 3.094791,-3.378587 z m 12.640289,25.12442 -3.19688,11.84622 H 59.206555 L 55.407197,41.314633 c -2.240812,2.156148 -4.874939,3.856619 -7.763277,5.009375 z M 61.076629,23.278931 C 60.937203,18.147552 59.032553,13.223215 55.683873,9.33361 54.125267,13.922261 46.884855,22.544352 42.450819,27.411803 38.019019,32.276811 30.148876,40.2688 25.716965,42.263265 v -0.0024 c 4.568735,3.18939 10.158762,4.568735 15.685365,3.871602 5.52714,-0.694637 10.599087,-3.418423 14.233741,-7.641114 3.635072,-4.22014 5.572283,-9.643014 5.440027,-15.212113 z m 4.668323,36.643983 -27.880021,0.0024 v 2.193484 h 27.877896 z m 2.16114,3.951271 -32.204637,0.0024 c -1.27476,0.0024 -2.308003,1.033244 -2.315493,2.308003 v 2.30301 h 36.833604 v -2.305507 c -0.005,-1.274754 -1.040738,-2.305506 -2.315493,-2.308003 z M 57.292671,32.483269 c -0.201672,0.440689 -0.722046,0.632386 -1.162742,0.43073 -0.443178,-0.201672 -0.634878,-0.722045 -0.433216,-1.165235 1.406696,-3.044973 1.966899,-6.413096 1.625796,-9.749775 -0.04481,-0.483016 0.30873,-0.908743 0.789236,-0.956068 0.480501,-0.04732 0.908741,0.303753 0.958561,0.784295 0.373463,3.647507 -0.241506,7.327203 -1.777698,10.656446 z"
     fill="#4c4c4c"
     id="path1"
     style="stroke-width:0.0531147" />
</svg>
