<?xml version="1.0" encoding="UTF-8" standalone="no"?>
<svg
   width="128pt"
   height="100pt"
   version="1.1"
   viewBox="0 0 128 100"
   id="svg1"
   sodipodi:docname="aquatic.svg"
   inkscape:version="1.4.2 (ebf0e940d0, 2025-05-08)"
   xmlns:inkscape="http://www.inkscape.org/namespaces/inkscape"
   xmlns:sodipodi="http://sodipodi.sourceforge.net/DTD/sodipodi-0.dtd"
   xmlns="http://www.w3.org/2000/svg"
   xmlns:svg="http://www.w3.org/2000/svg">
  <defs
     id="defs1" />
  <sodipodi:namedview
     id="namedview1"
     pagecolor="#ffffff"
     bordercolor="#000000"
     borderopacity="0.25"
     inkscape:showpageshadow="2"
     inkscape:pageopacity="0.0"
     inkscape:pagecheckerboard="0"
     inkscape:deskcolor="#d1d1d1"
     inkscape:document-units="pt"
     inkscape:zoom="4.015"
     inkscape:cx="115.56663"
     inkscape:cy="65.877958"
     inkscape:window-width="1920"
     inkscape:window-height="1043"
     inkscape:window-x="0"
     inkscape:window-y="0"
     inkscape:window-maximized="1"
     inkscape:current-layer="svg1" />
  <path
     d="m 45.450406,8.0669245 c -3.111915,0.04144 -1.719629,1.9433635 -1.425436,2.6768125 0.314921,0.783161 1.955828,3.754224 1.955828,3.754224 0,0 -1.955828,0.54697 -4.926834,2.030438 -2.971005,1.48758 -5.631287,4.852314 -5.631287,4.852314 0,0 -1.56219,-2.266644 -2.892331,-3.754224 -1.330141,-1.487579 -5.710052,-4.379906 -8.138199,-5.08436 -2.424079,-0.704436 -2.734888,1.093939 -2.345316,1.71963 0.389576,0.625685 1.172701,2.738956 2.270797,4.930985 1.093939,2.192034 0.994492,6.634089 0,9.385332 -1.048324,2.908862 -3.663082,5.7432 -2.034595,7.040196 1.334299,1.060788 5.16304,-1.251376 7.276307,-2.502759 2.11327,-1.251377 5.788726,-6.261131 5.788726,-6.261131 0,0 3.439258,3.285973 6.414417,5.005602 2.971006,1.719628 9.311076,2.896483 9.311076,2.896483 -0.812169,1.114626 -2.051126,1.918528 -3.741756,3.053922 -1.458586,1.023485 0.377072,1.873004 0.377072,1.873004 0,0 3.443411,0.936499 7.276306,-0.783167 3.8329,-1.719662 5.399242,-4.616108 5.395086,-4.616108 0,0 5.946252,-1.955832 9.2324,-3.911663 2.45723,-1.462739 4.388221,-4.147862 5.208653,-5.411705 0.244475,-0.372935 0.302495,-1.031795 0.09945,-1.429588 -0.49724,-0.990334 -1.678164,-2.904706 -4.214156,-5.283259 -3.754224,-3.518022 -11.105581,-5.084364 -11.105581,-5.084364 0,0 -1.251377,-1.251378 -2.738956,-2.034591 -1.48758,-0.783219 -6.725227,-2.8135675 -10.715741,-3.0497695 -0.248622,-0.01655 -0.476524,-0.02071 -0.683715,-0.01655 z m 50.81357,5.5276825 h -0.004 c -2.929637,0 -5.30395,2.374314 -5.30395,5.303949 0,1.404746 0.559399,2.755576 1.55388,3.750066 0.994483,0.994487 2.345314,1.553876 3.75007,1.553876 1.4089,0 2.75557,-0.559399 3.750074,-1.553876 0.99449,-0.994482 1.55387,-2.34532 1.55387,-3.750066 0,-1.408905 -0.55939,-2.755577 -1.55387,-3.750067 -0.994504,-0.994492 -2.341184,-1.553882 -3.750084,-1.553882 z m -31.823681,5.303949 h -0.0042 c 0.704431,0 1.379817,0.277624 1.877063,0.77487 0.497246,0.497246 0.774871,1.172702 0.774871,1.877064 0,0.704367 -0.277625,1.37567 -0.774871,1.873003 -0.497246,0.497333 -1.172701,0.779015 -1.877063,0.779015 -1.462743,0 -2.651976,-1.189234 -2.651976,-2.651972 0,-1.466896 1.189233,-2.651971 2.651976,-2.651971 z m 23.13758,9.198806 c -0.915729,0.04144 -2.631287,1.015179 -6.489023,4.04426 -5.142353,4.035947 -5.254267,13.272241 -4.035947,16.367976 1.218314,3.095739 1.827385,5.034595 1.65748,9.460469 -0.165748,4.425435 -2.602293,7.632732 -2.602293,7.632732 0,0 -0.389503,-6.414412 -3.484868,-9.845889 -3.095382,-3.430944 -5.64375,-7.632731 -6.19483,-9.6797 -0.551116,-2.04697 -0.443378,-3.484872 -1.60365,-3.54286 -1.16024,-0.05388 -1.715472,2.320475 -1.715472,2.320475 0,0 -0.99449,5.751424 -0.774871,9.679702 0.21962,3.928278 5.254266,9.621357 6.306744,11.89233 1.052482,2.26664 0.277624,6.750066 -0.223755,8.022216 -0.294202,0.750016 -1.205852,3.571857 -2.009665,6.095383 -0.720999,-0.107739 -1.433745,-0.178173 -2.129891,-0.18647 -0.787295,-0.0125 -1.533192,0.03732 -2.237553,0.124307 -0.269344,-1.060788 -0.56769,-2.171257 -0.808022,-2.991779 -0.497246,-1.715472 -1.715473,-5.751418 -1.106404,-8.237734 0.609122,-2.490379 1.052482,-4.205852 0.551117,-4.591271 -0.497246,-0.385369 -0.994492,0.111884 -1.988983,0.940656 -0.994486,0.828775 -2.432389,2.929634 -2.933786,4.864689 -0.497246,1.935143 1.16024,5.419927 1.16024,5.419927 0,0 -0.994492,-1.437903 -2.154731,-3.04146 -1.160235,-1.603558 -1.603647,-3.874356 -1.491733,-4.649265 0.11187,-0.774871 0.882609,-3.484865 0.828739,-8.403393 -0.05388,-4.92277 -4.259775,-7.964225 -5.419922,-8.68521 -1.160151,-0.720982 -5.196191,-3.372958 -6.024929,-2.270797 -0.828742,1.106405 1.603646,3.045618 2.855024,4.533197 1.251376,1.487578 2.345314,5.32056 1.95583,8.685209 -0.389488,3.364648 -0.314923,7.661725 0.54697,10.479714 0.861888,2.817984 3.832895,4.93099 5.710051,6.882664 1.114623,1.160235 1.748623,2.320475 2.113269,3.116067 -0.406088,0.24034 -0.625699,0.401941 -0.625699,0.401941 0,0 -0.861888,-0.54697 -4.301148,-0.704436 -3.44341,-0.157452 -6.725225,1.408909 -8.838491,2.817725 -2.11327,1.408817 -5.320566,4.537345 -5.320566,6.335737 0,1.798388 1.172701,1.7694 1.172701,1.7694 0,0 48.808678,-0.0456 50.296433,-0.0456 1.487227,0 2.502754,-2.892331 -1.172701,-6.335742 -3.675457,-3.443412 -10.479714,-2.734893 -10.479714,-2.734893 0,0 -1.251378,-0.646416 -3.070454,-1.39644 0.513818,-0.948874 1.164392,-2.05528 2.013818,-3.323276 2.598137,-3.870199 4.537349,-4.976603 8.407553,-8.237734 3.870197,-3.261132 5.693431,-7.379911 6.468334,-12.282167 0.721004,-4.533197 -0.223753,-7.301235 -2.212718,-12.220296 -1.988977,-4.922768 -2.763884,-10.011193 -1.491731,-12.778971 1.272148,-2.763886 2.32463,-4.86469 1.603645,-5.473848 -0.178177,-0.153315 -0.397792,-0.240332 -0.704436,-0.227897 z m 12.664065,6.712851 h -0.004 c -2.196194,0 -3.977964,1.781774 -3.977964,3.97796 0,2.196187 1.78177,3.97796 3.977964,3.97796 1.05663,0 2.06774,-0.418514 2.81355,-1.164393 0.74582,-0.745877 1.16439,-1.761089 1.16439,-2.813567 0,-1.056635 -0.41851,-2.067741 -1.16439,-2.813567 -0.74585,-0.745822 -1.7569,-1.164393 -2.81354,-1.164393 z m -18.098841,9.994403 c 0,0 2.403396,7.065033 2.535995,9.220028 0.116029,1.959982 0.493096,7.972533 -4.968294,14.618556 0,0 3.393729,-6.890974 3.708606,-11.833988 0.207191,-3.256979 -0.327353,-6.08292 -0.774871,-7.686566 -0.559399,-1.993135 -0.497246,-4.313608 -0.497246,-4.313608 z m 16.772847,8.569231 h -0.004 c -1.46273,0 -2.65197,1.185077 -2.65197,2.651972 0,0.704435 0.28177,1.375665 0.77902,1.872999 0.49724,0.497333 1.16854,0.779019 1.87299,0.779019 0.70446,0 1.379834,-0.281774 1.877074,-0.779019 0.49725,-0.497245 0.77487,-1.168545 0.77487,-1.872999 0,-0.704454 -0.27762,-1.379823 -0.77487,-1.877069 -0.49724,-0.49724 -1.172704,-0.77487 -1.877074,-0.77487 z"
     fill="#4c4c4c"
     id="path1"
     style="stroke-width:0.0883996" />
</svg>
