<?xml version="1.0" encoding="UTF-8" standalone="no"?>
<svg
   width="128"
   height="100"
   version="1.1"
   viewBox="0 0 96 75"
   id="svg1"
   sodipodi:docname="axe.svg"
   inkscape:version="1.4.3 (0d15f75042, 2025-12-25)"
   xml:space="preserve"
   xmlns:inkscape="http://www.inkscape.org/namespaces/inkscape"
   xmlns:sodipodi="http://sodipodi.sourceforge.net/DTD/sodipodi-0.dtd"
   xmlns="http://www.w3.org/2000/svg"
   xmlns:svg="http://www.w3.org/2000/svg"><defs
     id="defs1" /><sodipodi:namedview
     id="namedview1"
     pagecolor="#ffffff"
     bordercolor="#000000"
     borderopacity="0.25"
     inkscape:showpageshadow="2"
     inkscape:pageopacity="0.0"
     inkscape:pagecheckerboard="0"
     inkscape:deskcolor="#d1d1d1"
     inkscape:document-units="pt"
     inkscape:zoom="1.4760854"
     inkscape:cx="222.20937"
     inkscape:cy="47.42273"
     inkscape:window-width="1848"
     inkscape:window-height="1011"
     inkscape:window-x="0"
     inkscape:window-y="0"
     inkscape:window-maximized="1"
     inkscape:current-layer="svg1" /><path
     d="m 58.495511,19.242202 1.921925,1.921921 c 0.523573,0.523578 0.625391,1.313151 0.303354,1.940628 -1.535488,-1.240413 -2.99199,-2.632555 -4.398626,-4.020485 0.65243,-0.486211 1.583274,-0.432174 2.173338,0.157913 z m 13.667426,9.827919 c -2.129724,7.126709 -7.112079,12.109377 -14.239229,14.239233 -0.247254,0.0748 -0.494498,0.02493 -0.696048,-0.137135 -0.20155,-0.162071 -0.301277,-0.392704 -0.28258,-0.650349 0.04987,-0.675261 0.04779,-1.329777 0,-1.969752 6.364303,-1.788949 10.673216,-6.09613 12.462651,-12.462652 0.637895,0.04779 1.292364,0.04986 1.967671,0 0.257641,-0.0187 0.488292,0.08103 0.650349,0.282576 0.162052,0.201546 0.209856,0.448799 0.137135,0.696048 z M 56.837725,39.587754 c 5.909078,-1.707918 9.896184,-5.694983 11.606274,-11.606275 -5.059347,-0.770868 -9.088124,-4.519016 -13.834089,-9.248141 -0.594235,-0.59215 -1.562485,-0.59215 -2.154635,0.0023 l -4.862102,4.862097 c -0.594231,0.594236 -0.594231,1.560406 -0.0023,2.154636 4.726905,4.745525 8.477759,8.774297 9.246367,13.834093 z m -4.810237,-7.637783 c -0.791619,0.831112 -1.487667,1.604065 -2.160888,2.431005 -1.196794,1.469006 -3.694291,5.645341 -5.778315,7.529631 l -10.436514,9.42899 c -0.403091,0.363612 -0.735546,0.858105 -0.608771,1.38589 0.301278,1.254952 0.230629,2.158802 -0.08103,2.773825 -0.446714,0.878891 -1.38589,1.161467 -2.435172,1.02849 -1.597813,-0.203622 -3.447041,-1.377557 -4.192955,-2.89851 -0.398933,-0.812401 -0.226481,-1.730791 0.398928,-2.387346 4.774782,-5.023888 9.058871,-8.117833 13.834093,-13.139948 1.805569,-1.901179 3.598725,-5.813778 5.163072,-8.080154 0.721007,-1.043031 1.304864,-1.710004 2.173342,-2.58681 1.425342,1.441962 2.852765,2.935876 4.120217,4.515028 z"
     fill="#4c4c4c"
     fill-rule="evenodd"
     id="path1"
     style="stroke-width:0.0443258" /></svg>
