<?xml version="1.0" encoding="UTF-8" standalone="no"?>
<svg
   width="128"
   height="100"
   version="1.1"
   viewBox="0 0 96 75"
   id="svg8"
   sodipodi:docname="benches.svg"
   inkscape:version="1.4.2 (ebf0e940d0, 2025-05-08)"
   xmlns:inkscape="http://www.inkscape.org/namespaces/inkscape"
   xmlns:sodipodi="http://sodipodi.sourceforge.net/DTD/sodipodi-0.dtd"
   xmlns="http://www.w3.org/2000/svg"
   xmlns:svg="http://www.w3.org/2000/svg">
  <defs
     id="defs8" />
  <sodipodi:namedview
     id="namedview8"
     pagecolor="#ffffff"
     bordercolor="#000000"
     borderopacity="0.25"
     inkscape:showpageshadow="2"
     inkscape:pageopacity="0.0"
     inkscape:pagecheckerboard="0"
     inkscape:deskcolor="#d1d1d1"
     inkscape:document-units="pt"
     inkscape:zoom="2.8390337"
     inkscape:cx="116.23673"
     inkscape:cy="-8.6296967"
     inkscape:window-width="1862"
     inkscape:window-height="1011"
     inkscape:window-x="0"
     inkscape:window-y="0"
     inkscape:window-maximized="1"
     inkscape:current-layer="svg8" />
  <path
     d="m 17.17932,26.288531 h 61.043675 c 1.757642,0 3.18243,1.757643 3.18243,3.182424 v 3.171347 c 0,1.757649 -1.424788,3.18243 -3.18243,3.18243 H 17.17932 c -1.757643,0 -3.182427,-1.757642 -3.182427,-3.18243 v -3.171347 c 0,-1.757642 1.424784,-3.182424 3.182427,-3.182424 z"
     fill="#4c4c4c"
     id="path1"
     style="stroke-width:0.0589339" />
  <path
     d="m 61.225,16.354052 v 8.828881 H 34.174367 v -8.828881 c 0.0034,-1.893957 0.758302,-3.709355 2.098575,-5.047566 1.340274,-1.3382114 3.15685,-2.0900884 5.050807,-2.0907964 h 12.752105 c 1.893959,6.93e-4 3.710533,0.752585 5.050808,2.0907964 1.34027,1.338211 2.095159,3.153668 2.098575,5.047566 z"
     fill="#4c4c4c"
     id="path2"
     style="stroke-width:0.0589339" />
  <path
     d="M 34.174367,36.929621 H 61.225 V 39.67005 H 34.174367 Z"
     fill="#4c4c4c"
     id="path3"
     style="stroke-width:0.0589339" />
  <path
     d="m 65.00384,44.565093 c 5.77e-4,1.006469 -0.398265,1.971983 -1.108662,2.684728 -0.710686,0.712515 -1.675023,1.114207 -2.681491,1.116503 h -27.02824 c -1.356186,0 -2.609178,-0.723528 -3.287153,-1.897843 -0.677975,-1.174316 -0.677975,-2.621377 0,-3.795693 0.677975,-1.174321 1.931026,-1.897848 3.287153,-1.897848 h 27.02824 c 1.004645,0.0017 1.96762,0.401714 2.678012,1.112141 0.710444,0.710443 1.110313,1.673425 1.112141,2.678012 z"
     fill="#4c4c4c"
     id="path4"
     style="stroke-width:0.0589339" />
  <path
     d="m 41.622426,49.471335 -2.066338,19.86778 c -0.02302,0.281547 -0.258755,0.498171 -0.541455,0.497256 h -3.49183 c -0.30503,0 -0.552505,-0.247478 -0.552505,-0.552506 V 49.47089 Z"
     fill="#4c4c4c"
     id="path5"
     style="stroke-width:0.0589339" />
  <path
     d="M 60.429392,49.471335 V 69.28431 c 0,0.146642 -0.05824,0.287068 -0.161834,0.390665 -0.103597,0.103589 -0.244023,0.161834 -0.390668,0.161834 H 56.385057 C 56.102359,69.837591 55.866621,69.6211 55.843602,69.339561 L 53.777266,49.471779 Z"
     fill="#4c4c4c"
     id="path6"
     style="stroke-width:0.0589339" />
  <path
     d="M 76.353323,36.929621 V 69.28431 c 0,0.146642 -0.05825,0.287068 -0.161841,0.390665 -0.103597,0.103589 -0.244023,0.161834 -0.390668,0.161834 h -3.094023 c -0.28477,7.82e-4 -0.523958,-0.213863 -0.552509,-0.497248 L 69.203936,36.929477 Z"
     fill="#4c4c4c"
     id="path7"
     style="stroke-width:0.0589339" />
  <path
     d="m 26.195904,36.929621 -2.950346,32.410081 c -0.02855,0.283392 -0.267737,0.49864 -0.552505,0.497256 h -3.094027 c -0.30503,0 -0.552505,-0.247479 -0.552505,-0.552507 v -32.35468 z"
     fill="#4c4c4c"
     id="path8"
     style="stroke-width:0.0589339" />
</svg>
