<?xml version="1.0" encoding="UTF-8" standalone="no"?>
<svg
   width="128"
   height="100"
   version="1.1"
   viewBox="0 0 96 75"
   id="svg1"
   sodipodi:docname="bomb.svg"
   inkscape:version="1.4.3 (0d15f75042, 2025-12-25)"
   xml:space="preserve"
   xmlns:inkscape="http://www.inkscape.org/namespaces/inkscape"
   xmlns:sodipodi="http://sodipodi.sourceforge.net/DTD/sodipodi-0.dtd"
   xmlns="http://www.w3.org/2000/svg"
   xmlns:svg="http://www.w3.org/2000/svg"><defs
     id="defs1" /><sodipodi:namedview
     id="namedview1"
     pagecolor="#ffffff"
     bordercolor="#000000"
     borderopacity="0.25"
     inkscape:showpageshadow="2"
     inkscape:pageopacity="0.0"
     inkscape:pagecheckerboard="0"
     inkscape:deskcolor="#d1d1d1"
     inkscape:document-units="pt"
     inkscape:zoom="2.0875"
     inkscape:cx="163.35329"
     inkscape:cy="-30.658683"
     inkscape:window-width="1848"
     inkscape:window-height="1011"
     inkscape:window-x="0"
     inkscape:window-y="0"
     inkscape:window-maximized="1"
     inkscape:current-layer="svg1" /><path
     d="m 55.028363,11.650971 c 1.199349,0 2.32643,0.466802 3.174458,1.31431 1.412462,1.413065 3.29116,2.191764 5.290258,2.191764 h 1.496255 v -2.99251 h -1.496255 c -1.19935,0 -2.326428,-0.466802 -3.174455,-1.314859 -1.412465,-1.413064 -3.291764,-2.191215 -5.290261,-2.191215 -4.125424,0 -7.481275,3.35585 -7.481275,7.481274 v 1.496255 h -4.488765 v 3.865128 C 34.191014,24.126796 28.09577,32.218295 28.09577,41.575877 c 0,11.55059 9.396982,20.947572 20.947573,20.947572 11.550595,0 20.947572,-9.396982 20.947572,-20.947572 0,-9.357582 -6.095244,-17.449327 -14.962552,-20.074759 V 17.63599 h -4.488765 v -1.496255 c 0,-2.475453 2.013312,-4.488764 4.488765,-4.488764 z m -14.449338,38.388921 -2.115804,2.115805 c -5.833397,-5.833398 -5.833397,-15.32614 0,-21.159542 l 2.115804,2.115804 c -4.66607,4.666822 -4.66607,12.260814 0,16.927637 z"
     fill="#4c4c4c"
     id="path1"
     style="stroke-width:0.0498751" /></svg>
