<?xml version="1.0" encoding="UTF-8" standalone="no"?>
<svg
   width="128"
   height="100"
   version="1.1"
   viewBox="0 0 96 75"
   id="svg1"
   sodipodi:docname="engines.svg"
   inkscape:version="1.4.2 (ebf0e940d0, 2025-05-08)"
   xmlns:inkscape="http://www.inkscape.org/namespaces/inkscape"
   xmlns:sodipodi="http://sodipodi.sourceforge.net/DTD/sodipodi-0.dtd"
   xmlns="http://www.w3.org/2000/svg"
   xmlns:svg="http://www.w3.org/2000/svg">
  <defs
     id="defs1" />
  <sodipodi:namedview
     id="namedview1"
     pagecolor="#ffffff"
     bordercolor="#000000"
     borderopacity="0.25"
     inkscape:showpageshadow="2"
     inkscape:pageopacity="0.0"
     inkscape:pagecheckerboard="0"
     inkscape:deskcolor="#d1d1d1"
     inkscape:document-units="pt"
     inkscape:zoom="1.4760854"
     inkscape:cx="309.60268"
     inkscape:cy="179.86764"
     inkscape:window-width="1920"
     inkscape:window-height="1043"
     inkscape:window-x="0"
     inkscape:window-y="0"
     inkscape:window-maximized="1"
     inkscape:current-layer="svg1" />
  <path
     d="m 30.100459,51.38742 -0.13732,0.46792 h -1.81066 c -0.35857,0 -0.65102,-0.29245 -0.65102,-0.65102 0,-0.35857 0.29245,-0.65102 0.65102,-0.65102 h 2.25314 c -0.10427,0.25939 -0.21362,0.54167 -0.30517,0.83412 z m 36.22828,0.46792 h 1.81066 c 0.35857,0 0.65102,-0.29245 0.65102,-0.65102 0,-0.35857 -0.29245,-0.65102 -0.65102,-0.65102 h -2.24044 c 0.0966,0.28737 0.2009,0.57984 0.29245,0.86467 z m 0.94349,4.70722 h 2.29128 c 0.36111,0 0.65102,-0.29245 0.65102,-0.65102 0,-0.35858 -0.28991,-0.65103 -0.65102,-0.65103 h -2.46678 c 0.0382,0.24668 0.0839,0.50099 0.11698,0.7553 0.0331,0.2543 0.0407,0.35857 0.0585,0.54675 z m -38.08477,-1.30205 h -2.45913 c -0.36111,0 -0.65102,0.29245 -0.65102,0.65103 0,0.35857 0.28991,0.65102 0.65102,0.65102 h 2.28623 c 0,-0.18819 0.0331,-0.384 0.0585,-0.5722 0.0229,-0.19072 0.0763,-0.50861 0.11444,-0.77563 z m 41.80265,4.70722 h -3.52214 v 1.30204 h 3.52214 c 0.35857,0 0.65102,-0.29245 0.65102,-0.65102 0,-0.36111 -0.29245,-0.65102 -0.65102,-0.65102 z m -43.50128,0 h -2.187 c -0.35857,0 -0.65102,0.28991 -0.65102,0.65102 0,0.35857 0.29245,0.65102 0.65102,0.65102 h 3.52214 v -1.30204 z m 25.15603,-17.12242 h 3.69759 v -5.20817 h -3.69759 z m -4.1986,-22.97402 c 0.003,-1.16728 0.94853,-2.11327 2.11582,-2.11582 h 1.49024 v -2.44133 h -8.54737 v 5.09631 h 4.94114 z m -5.97096,-5.85919 h 10.61925 c 0.46283,0 0.9104,-0.18819 1.23591,-0.51879 0.32551,-0.33314 0.50352,-0.78074 0.4959,-1.24611 -0.0127,-0.95364 -0.78074,-1.724175 -1.73183,-1.73942 h -10.61925 c -0.9155,0.05849 -1.63011,0.81633 -1.63011,1.73693 0,0.91805 0.71461,1.67844 1.63011,1.73437 z m 1.02742,12.21968 h 4.94115 l 0.003,-4.47833 h -4.94114 z m 17.8776,4.89535 h -8.73562 v 5.20818 h 8.73562 z M 49.781829,19.87151 v 9.15282 c -0.003,0.20854 0.0788,0.40689 0.22633,0.5544 0.1475,0.14751 0.34586,0.22888 0.5544,0.22634 h 12.90325 c 0.20599,0.003 0.40435,-0.0788 0.55185,-0.22634 0.14496,-0.1475 0.22634,-0.34585 0.22125,-0.5544 v -9.15282 c 0.003,-0.20599 -0.0788,-0.40689 -0.22379,-0.55185 -0.14496,-0.1475 -0.34331,-0.22888 -0.5493,-0.22888 h -12.90326 c -0.20853,0 -0.40688,0.0814 -0.55184,0.22888 -0.1475,0.14495 -0.22888,0.34331 -0.22888,0.55185 z M 28.824889,62.5308 c 0,1.23087 0.99433,2.23024 2.22519,2.23534 h 34.19384 c 1.23087,-0.005 2.22519,-1.00453 2.22519,-2.23534 v -1.25625 h -38.64411 z m 38.64412,-2.87871 v 0.003 c -0.003,-1.03502 -0.0687,-2.06748 -0.19582,-3.09235 h -38.26056 c -0.11952,1.02742 -0.1831,2.05988 -0.18818,3.09235 v 0.28737 h 38.64411 z M 35.243419,30.3203 h 2.2201 c 0.0992,-0.9155 0.1475,-1.8361 0.15004,-2.75415 v -4.86487 h -2.37016 c -0.20599,0.003 -0.4018,0.0865 -0.54675,0.23142 -0.14241,0.1475 -0.22379,0.34586 -0.22124,0.55185 v 6.05993 c 0,0.42469 0.34331,0.77054 0.76799,0.77564 z m 31.0863,21.53472 h -11.29632 c -0.35857,0 -0.65102,-0.29245 -0.65102,-0.65102 0,-0.35858 0.29245,-0.65102 0.65102,-0.65102 h 10.8661 c 0,-0.0788 -0.0585,-0.16276 -0.0839,-0.24159 -0.60269,-1.54363 -1.01467,-3.15339 -1.22322,-4.79619 v -0.0788 c -0.15258,-0.71716 -0.79343,-1.22322 -1.52328,-1.20542 h -2.46933 c -0.35857,0 -0.65102,-0.28992 -0.65102,-0.65103 0,-0.35857 0.29245,-0.65102 0.65102,-0.65102 h 0.78074 v -5.2921 h -3.7027 V 42.845 h 0.23396 c 0.35857,0 0.65102,0.29245 0.65102,0.65103 0,0.35857 -0.29245,0.65102 -0.65102,0.65102 h -9.28466 c -3.56538,-0.003 -6.45434,-2.89401 -6.45705,-6.45922 v -1.50294 c 0,-0.35857 0.29245,-0.65102 0.65102,-0.65102 0.35857,0 0.65102,0.29245 0.65102,0.65102 v 1.55637 c 0.008,1.36053 0.5544,2.66257 1.52073,3.61876 0.96634,0.95874 2.27348,1.4928 3.63401,1.48515 h 2.68291 v -11.7184 h -0.74764 c -1.16728,0 -2.11327,-0.94349 -2.11582,-2.10817 v -1.48514 h -4.94115 v 5.98886 c 0,0.35857 -0.29245,0.65102 -0.65102,0.65102 -0.36111,0 -0.65102,-0.29245 -0.65102,-0.65102 V 19.09025 h -1.02992 c -1.22832,0 -2.22519,0.99687 -2.22519,2.22519 v 6.22268 c -0.0636,5.95089 -1.93017,11.74118 -5.35314,16.60866 -1.33253,1.97596 -2.40574,4.11722 -3.18897,6.36808 h 21.96439 c 0.36111,0 0.65102,0.28991 0.65102,0.65102 0,0.35857 -0.28991,0.65102 -0.65102,0.65102 h -22.40709 c -0.33314,1.11384 -0.59254,2.24809 -0.77564,3.39752 h 37.90901 c -0.18565,-1.13419 -0.44249,-2.25568 -0.76799,-3.35938 z"
     fill="#4c4c4c"
     id="path1"
     style="stroke-width:0.0542518" />
</svg>
