<?xml version="1.0" encoding="UTF-8" standalone="no"?>
<svg
   version="1.1"
   viewBox="-5 -10 128 128"
   id="svg662"
   sodipodi:docname="buttons.svg"
   xml:space="preserve"
   width="128"
   height="128"
   inkscape:version="1.2.2 (b0a8486541, 2022-12-01)"
   xmlns:inkscape="http://www.inkscape.org/namespaces/inkscape"
   xmlns:sodipodi="http://sodipodi.sourceforge.net/DTD/sodipodi-0.dtd"
   xmlns="http://www.w3.org/2000/svg"
   xmlns:svg="http://www.w3.org/2000/svg"><defs
     id="defs666" /><sodipodi:namedview
     id="namedview664"
     pagecolor="#000000"
     bordercolor="#000000"
     borderopacity="0.25"
     inkscape:showpageshadow="2"
     inkscape:pageopacity="0"
     inkscape:pagecheckerboard="0"
     inkscape:deskcolor="#d1d1d1"
     showgrid="false"
     inkscape:zoom="4.111695"
     inkscape:cx="26.509748"
     inkscape:cy="72.11138"
     inkscape:window-width="1862"
     inkscape:window-height="1011"
     inkscape:window-x="0"
     inkscape:window-y="0"
     inkscape:window-maximized="1"
     inkscape:current-layer="svg662" /><g
     id="g656"
     transform="matrix(1.0726412,0,0,1.0726412,5.9129564,9.3842827)"
     style="fill:#ffffff"><path
       d="M 66.004,43.703 H 48.883 v -5.5742 c -0.0039,-4.1992 -3.4102,-7.6016 -7.6094,-7.6055 h -12.953 c -2.8008,-0.0039 -5.0742,-2.2773 -5.0781,-5.082 v -5.3555 0.0039 c 0,-0.33594 -0.13281,-0.66016 -0.37109,-0.89844 -0.23438,-0.23828 -0.55859,-0.37109 -0.89453,-0.37109 -0.33594,0 -0.65625,0.13281 -0.89453,0.37109 -0.23828,0.23828 -0.37109,0.5625 -0.36719,0.89844 v 5.3555 -0.0039 c 0.0039,4.1992 3.4062,7.6055 7.6055,7.6094 h 12.953 c 2.8047,0.0039 5.0742,2.2773 5.0781,5.0781 v 5.5703 l -40.309,0.0039 c -2.9688,0.0039 -5.375,2.4062 -5.375,5.375 v 26.77 c 0.003906,2.9688 2.4062,5.3711 5.375,5.375 h 59.961 c 2.9688,-0.0039 5.3711,-2.4062 5.375,-5.375 v -26.77 c -0.0039,-2.9688 -2.4062,-5.3711 -5.375,-5.375 z m -28.055,7.2969 c 0,-0.21094 0.08203,-0.41016 0.23047,-0.55859 0.14844,-0.14844 0.35156,-0.23438 0.5625,-0.23438 h 2.293 c 0.4375,0 0.78906,0.35547 0.78906,0.79297 v 2.293 c 0,0.43359 -0.35156,0.78906 -0.78906,0.78906 h -2.293 c -0.21094,0 -0.41406,-0.08203 -0.5625,-0.23047 C 38.03103,53.70305 37.949,53.49993 37.949,53.2929 Z m 0,6.8789 c 0,-0.21094 0.08203,-0.41406 0.23047,-0.5625 0.14844,-0.14844 0.35156,-0.23047 0.5625,-0.23047 h 2.293 c 0.4375,0 0.78906,0.35547 0.78906,0.79297 v 2.293 -0.0039 c 0,0.4375 -0.35156,0.79297 -0.78906,0.79297 h -2.293 c -0.21094,0 -0.41406,-0.08203 -0.5625,-0.23047 C 38.03103,60.58196 37.949,60.37884 37.949,60.1679 Z m 0,6.8789 v -0.0039 c 0,-0.4375 0.35547,-0.78906 0.79297,-0.79297 h 2.293 c 0.20703,0 0.41016,0.08594 0.55859,0.23437 0.14844,0.14844 0.23047,0.34766 0.23047,0.55859 v 2.293 c 0,0.21094 -0.08203,0.41016 -0.23047,0.55859 -0.14844,0.14844 -0.35156,0.23438 -0.55859,0.23438 h -2.293 C 38.30447,67.83586 37.949,67.48429 37.949,67.04679 Z m -7.7305,-13.758 c 0,-0.21094 0.08594,-0.41016 0.23438,-0.55859 0.14844,-0.14844 0.34766,-0.23438 0.55859,-0.23438 h 2.293 c 0.21094,0 0.41016,0.08594 0.55859,0.23438 0.14844,0.14844 0.23438,0.34766 0.23438,0.55859 v 2.293 c 0,0.20703 -0.08594,0.41016 -0.23438,0.55859 -0.14844,0.14844 -0.34766,0.23047 -0.55859,0.23047 h -2.293 c -0.21094,0 -0.41016,-0.08203 -0.55859,-0.23047 C 30.30444,53.70285 30.2185,53.49973 30.2185,53.2927 Z m 0,6.8789 c 0,-0.21094 0.08594,-0.41406 0.23438,-0.5625 0.14844,-0.14844 0.34766,-0.23047 0.55859,-0.23047 h 2.293 c 0.21094,0 0.41016,0.08203 0.55859,0.23047 0.14844,0.14844 0.23438,0.35156 0.23438,0.5625 v 2.293 -0.0039 c 0,0.21094 -0.08594,0.41406 -0.23438,0.5625 -0.14844,0.14844 -0.34766,0.23047 -0.55859,0.23047 h -2.293 c -0.21094,0 -0.41016,-0.08203 -0.55859,-0.23047 -0.14844,-0.14844 -0.23438,-0.35156 -0.23438,-0.5625 z m 0,6.8789 v -0.0039 c 0,-0.21094 0.08594,-0.41016 0.23438,-0.55859 0.14844,-0.14844 0.34766,-0.23437 0.55859,-0.23437 h 2.293 c 0.21094,0 0.41016,0.08594 0.55859,0.23437 0.14844,0.14844 0.23438,0.34766 0.23438,0.55859 v 2.293 c 0,0.21094 -0.08594,0.41016 -0.23438,0.55859 -0.14844,0.14844 -0.34766,0.23438 -0.55859,0.23438 h -2.293 c -0.21094,0 -0.41016,-0.08594 -0.55859,-0.23438 C 30.30444,67.45675 30.2185,67.25753 30.2185,67.0466 Z m -7.7266,-13.758 c 0,-0.21094 0.08203,-0.41016 0.23047,-0.55859 0.14844,-0.14844 0.35156,-0.23438 0.55859,-0.23438 h 2.293 c 0.21094,0 0.41016,0.08594 0.55859,0.23438 0.15234,0.14844 0.23438,0.34766 0.23438,0.55859 v 2.293 c 0,0.20703 -0.08203,0.41016 -0.23438,0.55859 -0.14844,0.14844 -0.34766,0.23047 -0.55859,0.23047 h -2.293 c -0.20703,0 -0.41016,-0.08203 -0.55859,-0.23047 C 22.57393,53.70265 22.4919,53.49953 22.4919,53.2925 Z m 0,6.8789 c 0,-0.21094 0.08203,-0.41406 0.23047,-0.5625 0.14844,-0.14844 0.35156,-0.23047 0.55859,-0.23047 h 2.293 c 0.21094,0 0.41016,0.08203 0.55859,0.23047 0.15234,0.14844 0.23438,0.35156 0.23438,0.5625 v 2.293 -0.0039 c 0,0.21094 -0.08203,0.41406 -0.23438,0.5625 -0.14844,0.14844 -0.34766,0.23047 -0.55859,0.23047 h -2.293 c -0.20703,0 -0.41016,-0.08203 -0.55859,-0.23047 -0.14844,-0.14844 -0.23047,-0.35156 -0.23047,-0.5625 z m 0,6.8789 v -0.0039 c 0,-0.21094 0.08203,-0.41016 0.23047,-0.55859 0.14844,-0.14844 0.35156,-0.23437 0.55859,-0.23437 h 2.293 c 0.21094,0 0.41016,0.08594 0.55859,0.23437 0.15234,0.14844 0.23438,0.34766 0.23438,0.55859 v 2.293 c 0,0.21094 -0.08203,0.41016 -0.23438,0.55859 -0.14844,0.14844 -0.34766,0.23438 -0.55859,0.23438 h -2.293 c -0.20703,0 -0.41016,-0.08594 -0.55859,-0.23438 C 22.57393,67.45655 22.4919,67.25733 22.4919,67.0464 Z m -11.586,9.168 c 0,0.4375 -0.35547,0.78906 -0.78906,0.78906 h -2.293 c -0.4375,0 -0.79297,-0.35156 -0.79297,-0.78906 v -2.293 c 0,-0.4375 0.35547,-0.79297 0.79297,-0.79297 h 2.293 c 0.43359,0 0.78906,0.35547 0.78906,0.79297 z m 0,-6.8789 c 0,0.4375 -0.35156,0.78906 -0.78906,0.79297 h -2.293 C 7.38634,67.835464 7.03087,67.4839 7.03087,67.0464 v -2.293 c 0,-0.4375 0.35547,-0.78906 0.79297,-0.79297 h 2.293 c 0.4375,0.0039 0.78906,0.35547 0.78906,0.79297 z m 0,-6.8789 c 0,0.4375 -0.35156,0.79297 -0.78906,0.79297 h -2.293 c -0.4375,0 -0.79297,-0.35547 -0.79297,-0.79297 v -2.2891 c 0,-0.4375 0.35547,-0.79297 0.79297,-0.79297 h 2.293 c 0.4375,0 0.78906,0.35547 0.78906,0.79297 z m 0,-6.8789 v 0.0039 c 0,0.43359 -0.35156,0.78906 -0.78906,0.78906 h -2.293 c -0.4375,0 -0.79297,-0.35547 -0.79297,-0.78906 v -2.293 c 0,-0.4375 0.35547,-0.79297 0.79297,-0.79297 h 2.293 c 0.4375,0 0.78906,0.35547 0.78906,0.79297 z m 7.7305,20.633 v 0.0039 c 0,0.4375 -0.35547,0.78906 -0.79297,0.78906 h -2.293 c -0.43359,0 -0.78906,-0.35156 -0.78906,-0.78906 v -2.293 c 0,-0.4375 0.35156,-0.79297 0.78906,-0.79297 h 2.293 c 0.4375,0 0.79297,0.35547 0.79297,0.79297 z m 0,-6.8789 v 0.0039 c 0,0.4375 -0.35547,0.78906 -0.79297,0.79297 h -2.293 c -0.4375,-0.0039 -0.78906,-0.35547 -0.78906,-0.79297 v -2.293 c 0,-0.4375 0.35156,-0.78906 0.78906,-0.79297 h 2.293 c 0.4375,0.0039 0.79297,0.35547 0.79297,0.79297 z m 0,-6.8789 v 0.0039 c 0,0.4375 -0.35547,0.79297 -0.79297,0.79297 h -2.293 c -0.4375,0 -0.78906,-0.35547 -0.78906,-0.79297 v -2.2891 c 0,-0.4375 0.35156,-0.79297 0.78906,-0.79297 h 2.293 c 0.4375,0 0.79297,0.35547 0.79297,0.79297 z m 0,-6.8789 v 0.0078 c 0,0.4375 -0.35547,0.78906 -0.79297,0.78906 h -2.293 c -0.4375,0 -0.78906,-0.35547 -0.78906,-0.78906 v -2.293 c 0,-0.4375 0.35156,-0.79297 0.78906,-0.79297 h 2.293 c 0.4375,0 0.79297,0.35547 0.79297,0.79297 z m 30.918,20.633 v 0.0078 c 0,0.4375 -0.35547,0.78906 -0.78906,0.78906 h -25.484 c -0.43359,0 -0.78906,-0.35156 -0.78906,-0.78906 v -2.293 c 0,-0.4375 0.35547,-0.79297 0.78906,-0.79297 h 25.484 c 0.43359,0 0.78906,0.35547 0.78906,0.79297 z m 0,-6.8789 v 0.0078 c 0,0.4375 -0.35156,0.78906 -0.78906,0.79297 h -2.293 c -0.4375,-0.0039 -0.79297,-0.35547 -0.79297,-0.79297 v -2.293 c 0,-0.4375 0.35547,-0.78906 0.79297,-0.79297 h 2.293 c 0.4375,0.0039 0.78906,0.35547 0.78906,0.79297 z m 0,-6.8789 v 0.0078 c 0,0.4375 -0.35156,0.79297 -0.78906,0.79297 h -2.293 c -0.4375,0 -0.79297,-0.35547 -0.79297,-0.79297 v -2.2891 c 0,-0.4375 0.35547,-0.79297 0.79297,-0.79297 h 2.293 c 0.4375,0 0.78906,0.35547 0.78906,0.79297 z m 0,-6.8789 v 0.01172 c 0,0.43359 -0.35156,0.78906 -0.78906,0.78906 h -2.293 c -0.4375,0 -0.79297,-0.35547 -0.79297,-0.78906 v -2.293 c 0,-0.4375 0.35547,-0.79297 0.79297,-0.79297 h 2.293 c 0.4375,0 0.78906,0.35547 0.78906,0.79297 z m 7.7305,20.633 v 0.01172 c 0,0.4375 -0.35547,0.78906 -0.79297,0.78906 h -2.2891 c -0.4375,0 -0.79297,-0.35156 -0.79297,-0.78906 v -2.293 c 0,-0.4375 0.35547,-0.79297 0.79297,-0.79297 h 2.293 -0.0039 c 0.4375,0 0.79297,0.35547 0.79297,0.79297 z m 0,-6.8789 v 0.01172 c 0,0.21094 -0.08203,0.41016 -0.23047,0.55859 -0.14844,0.14844 -0.35156,0.23438 -0.5625,0.23047 h -2.2891 c -0.21094,0.0039 -0.41406,-0.08203 -0.5625,-0.23047 -0.14844,-0.14844 -0.23047,-0.34766 -0.23047,-0.55859 v -2.293 c 0,-0.21094 0.08203,-0.41016 0.23047,-0.55859 0.14844,-0.14844 0.35156,-0.23437 0.5625,-0.23437 h 2.293 -0.0039 c 0.21094,0 0.41406,0.08594 0.5625,0.23437 0.14844,0.14844 0.23047,0.34766 0.23047,0.55859 z m 0,-6.8789 v 0.01172 c 0,0.21094 -0.08203,0.41406 -0.23047,0.5625 -0.14844,0.14844 -0.35156,0.23047 -0.5625,0.23047 h -2.293 c -0.20703,0 -0.41016,-0.08594 -0.55859,-0.23438 -0.14844,-0.14844 -0.23047,-0.34766 -0.23047,-0.55859 v -2.2891 c 0,-0.4375 0.35156,-0.79297 0.78906,-0.79297 h 2.293 c 0.21094,0 0.41406,0.08203 0.5625,0.23047 0.14844,0.14844 0.23047,0.35156 0.23047,0.5625 z m 0,-6.8789 v 0.01563 c 0,0.20703 -0.08203,0.41016 -0.23047,0.55859 -0.14844,0.14844 -0.35156,0.23047 -0.5625,0.23047 h -2.293 c -0.4375,0 -0.78906,-0.35547 -0.78906,-0.78906 v -2.293 c 0,-0.4375 0.35156,-0.79297 0.78906,-0.79297 h 2.293 c 0.21094,0 0.41406,0.08594 0.5625,0.23438 0.14844,0.14844 0.23047,0.34766 0.23047,0.55859 z m 7.7305,20.633 v 0.01563 c 0,0.4375 -0.35547,0.78906 -0.79297,0.78906 h -2.293 c -0.43359,0 -0.78906,-0.35156 -0.78906,-0.78906 v -2.293 c 0,-0.4375 0.35547,-0.79297 0.78906,-0.79297 h 2.293 c 0.4375,0 0.79297,0.35547 0.79297,0.79297 z m 0,-6.8789 v 0.01563 c 0,0.21094 -0.08203,0.41016 -0.23047,0.55859 -0.14844,0.14844 -0.35156,0.23438 -0.5625,0.23047 h -2.293 c -0.20703,0.0039 -0.41016,-0.08203 -0.55859,-0.23047 -0.14844,-0.14844 -0.23047,-0.34766 -0.23047,-0.55859 v -2.293 c 0,-0.21094 0.08203,-0.41016 0.23047,-0.55859 0.14844,-0.14844 0.35156,-0.23437 0.55859,-0.23437 h 2.293 c 0.21094,0 0.41406,0.08594 0.5625,0.23437 0.14844,0.14844 0.23047,0.34766 0.23047,0.55859 z m 0,-6.8789 v 0.01563 c 0,0.21094 -0.08203,0.41406 -0.23047,0.5625 -0.14844,0.14844 -0.35156,0.23047 -0.5625,0.23047 h -2.293 c -0.20703,0 -0.41016,-0.08203 -0.55859,-0.23047 -0.14844,-0.14844 -0.23047,-0.35156 -0.23047,-0.5625 v -2.2891 c 0,-0.21094 0.08203,-0.41406 0.23047,-0.5625 0.14844,-0.14844 0.35156,-0.23047 0.55859,-0.23047 h 2.293 c 0.21094,0 0.41406,0.08203 0.5625,0.23047 0.14844,0.14844 0.23047,0.35156 0.23047,0.5625 z m 0,-6.8789 v 0.01953 c 0,0.20703 -0.08203,0.41016 -0.23047,0.55859 -0.14844,0.14844 -0.35156,0.23047 -0.5625,0.23047 h -2.293 c -0.20703,0 -0.41016,-0.08203 -0.55859,-0.23047 -0.14844,-0.14844 -0.23047,-0.35156 -0.23047,-0.55859 v -2.293 c 0,-0.21094 0.08203,-0.41016 0.23047,-0.55859 0.14844,-0.14844 0.35156,-0.23438 0.55859,-0.23438 h 2.293 c 0.21094,0 0.41406,0.08594 0.5625,0.23438 0.14844,0.14844 0.23047,0.34766 0.23047,0.55859 z"
       id="path652"
       style="fill:#ffffff" /><path
       d="M 98.98,51.867 C 97.6089,47.4412 93.7339,44.2576 89.1284,43.7732 V 37.9529 C 89.1245,33.7537 85.7222,30.3474 81.519,30.3435 H 70.16 c -2.8047,-0.0039 -5.0742,-2.2773 -5.0781,-5.082 V 20.0427 C 65.078,19.34348 64.51549,18.781 63.8163,18.781 c -0.69531,0 -1.2617,0.5625 -1.2656,1.2617 v 5.2227 -0.0039 c 0.0039,4.2031 3.4102,7.6055 7.6094,7.6094 h 11.359 c 2.8047,0.0039 5.0781,2.2773 5.082,5.082 v 5.8203 c -4.6055,0.48828 -8.4805,3.668 -9.8516,8.0938 -0.23438,0.74609 -0.35156,1.5273 -0.35156,2.3086 v 16.504 c 0,0.78125 0.11719,1.5625 0.35156,2.3086 1.5234,4.8594 6.0234,8.1641 11.113,8.1641 5.0938,0 9.5938,-3.3047 11.117,-8.1641 0.23438,-0.74609 0.35156,-1.5273 0.35156,-2.3086 v -16.504 c 0,-0.78125 -0.11719,-1.5625 -0.35156,-2.3086 z m -9.8516,3.543 c 0,0.33594 -0.13281,0.65625 -0.36719,0.89453 -0.23828,0.23828 -0.5625,0.37109 -0.89844,0.37109 -0.33594,0 -0.65625,-0.13281 -0.89453,-0.37109 C 86.72996,56.06625 86.59715,55.74594 86.60105,55.41 v -4.8828 c -0.0039,-0.33594 0.12891,-0.66016 0.36719,-0.89453 0.23828,-0.23828 0.55859,-0.375 0.89453,-0.375 0.33594,0 0.66016,0.13672 0.89844,0.375 0.23438,0.23438 0.36719,0.55859 0.36719,0.89453 z"
       id="path654"
       style="fill:#ffffff" /></g><g
     id="g695"
     transform="matrix(0.72906936,0,0,0.72906936,18.510657,-7.6165085)"
     style="fill:#ffffff"><path
       d="m 43.965,52.25 c -1.0469,-1.0469 -2.625,-1.3633 -3.9922,-0.79297 -1.3711,0.56641 -2.2656,1.9023 -2.2656,3.3867 0,1.4805 0.89453,2.8164 2.2656,3.3828 1.3672,0.57031 2.9453,0.25391 3.9922,-0.79297 1.4297,-1.4336 1.4297,-3.75 0,-5.1836 z m -2.5898,-3.4219 c 2.4336,0 4.625,1.4609 5.5547,3.707 0.93359,2.2461 0.42187,4.8359 -1.2969,6.5547 -1.71877,1.7188 -4.3047,2.2344 -6.5547,1.3047 -2.2461,-0.92969 -3.7109,-3.1211 -3.7109,-5.5508 0,-3.3203 2.6875,-6.0117 6.0078,-6.0156 z m 19.848,3.4219 c -1.0508,-1.0508 -2.6289,-1.3633 -4,-0.79688 -1.3711,0.56642 -2.2617,1.9062 -2.2617,3.3906 0,1.4805 0.89062,2.8203 2.2617,3.3867 1.3711,0.56641 2.9492,0.25391 4,-0.79688 1.4258,-1.4336 1.4258,-3.75 0,-5.1836 z m -2.6016,-3.4219 c 2.4297,0 4.625,1.4609 5.5547,3.707 0.93359,2.2461 0.41797,4.8359 -1.3008,6.5547 -1.71877,1.7188 -4.3008,2.2344 -6.5508,1.3047 -2.2461,-0.92969 -3.7109,-3.1211 -3.7109,-5.5508 0,-3.3203 2.6875,-6.0117 6.0078,-6.0156 z m -40.301,-5.8164 c -0.64453,0 -1.1719,-0.52344 -1.1719,-1.168 0,-0.64844 0.52734,-1.1719 1.1719,-1.1719 h 4.6133 c 0.09375,0 0.18359,-0.03906 0.25,-0.10547 0.06641,-0.06641 0.10156,-0.15625 0.10156,-0.25 v -4.6172 c 0,-0.64844 0.52344,-1.1719 1.1719,-1.1719 0.64844,0 1.1719,0.52344 1.1719,1.1719 v 4.6133 c 0.0039,0.19531 0.16016,0.35547 0.35547,0.35547 h 4.6172 c 0.64453,0 1.168,0.52344 1.168,1.1719 0,0.64453 -0.52344,1.168 -1.168,1.168 h -4.6133 c -0.19531,0.0039 -0.35156,0.16016 -0.35547,0.35547 v 4.6133 c 0,0.64844 -0.52344,1.1719 -1.1719,1.1719 -0.64844,0 -1.1719,-0.52344 -1.1719,-1.1719 v -4.6094 c 0,-0.19531 -0.15625,-0.35156 -0.35156,-0.35547 z m 51.879,5.1172 v 0.0039 c 0,-1.1875 0.71484,-2.2539 1.8086,-2.707 1.09376,-0.4531 2.3555,-0.20312 3.1914,0.63281 0.83984,0.83984 1.0898,2.0977 0.63672,3.1914 -0.45313,1.0977 -1.5195,1.8086 -2.7031,1.8086 -1.6172,0 -2.9297,-1.3125 -2.9336,-2.9258 z m 0,-12.578 v 0.0039 c 0.0039,-1.1836 0.71484,-2.2539 1.8086,-2.707 1.0977,-0.45312 2.3555,-0.20312 3.1914,0.63672 0.83984,0.83594 1.0898,2.0977 0.63672,3.1914 -0.45313,1.0938 -1.5195,1.8086 -2.7031,1.8086 -1.6211,-0.0039 -2.9297,-1.3125 -2.9336,-2.9297 z m -3.3594,3.3594 0.0039,0.0039 c 1.1836,0 2.25,0.71484 2.7031,1.8125 0.45312,1.0938 0.19922,2.3555 -0.64062,3.1914 -0.83594,0.83594 -2.0977,1.0859 -3.1914,0.63281 -1.0938,-0.45703 -1.8086,-1.5234 -1.8086,-2.707 0.0039,-1.6211 1.3203,-2.9297 2.9375,-2.9297 z m 12.574,0 0.0039,0.0039 c 1.1875,0 2.2539,0.71484 2.707,1.8086 0.4531,1.09376 0.20312,2.3555 -0.63281,3.1914 -0.83984,0.83984 -2.1016,1.0898 -3.1953,0.63672 -1.0937,-0.45308 -1.8086,-1.5234 -1.8086,-2.707 0.0039,-1.6172 1.3164,-2.9258 2.9297,-2.9297 z m -45.414,-13.375 7.1328,8.6797 c 0.06641,0.08203 0.16406,0.12891 0.27344,0.12891 h 17.195 c 0.10547,0 0.20703,-0.04687 0.27344,-0.12891 l 7.125,-8.6797 c 0.08594,-0.10547 0.10547,-0.25 0.04687,-0.375 -0.0586,-0.125 -0.17969,-0.20312 -0.31641,-0.20312 h -31.457 c -0.13672,0 -0.26172,0.07813 -0.32031,0.20312 -0.05859,0.12109 -0.03906,0.26953 0.04687,0.375 z m 35.395,-0.44922 -9.1797,11.172 c -0.22266,0.26563 -0.55078,0.42188 -0.89844,0.42578 h -18.625 c -0.39062,0.0039 -0.75781,-0.19141 -0.97656,-0.51562 l -9.1016,-11.082 h 0.0039 c -0.06641,-0.08203 -0.16797,-0.13281 -0.27344,-0.12891 h -8.3125 c -7.8789,1.4492 -13,14.199 -15.426,21.258 v -0.0039 c -2.0586,5.6992 -2.1328,11.93 -0.21094,17.676 1.8164,5.082 5.3477,9.0547 10.168,10.715 3.1172,1.0703 6.0234,0.11328 8.7734,-1.8594 2.9258,-2.1016 5.707,-5.3672 8.3594,-8.6406 0.98828,-1.2266 2.6914,-1.6055 4.1055,-0.91797 3.2891,1.5859 7.2188,0.95703 9.8477,-1.5742 1.3086,-1.2695 3.3906,-1.2695 4.6992,0 2.6328,2.5312 6.5625,3.1602 9.8516,1.5742 1.4141,-0.6875 3.1172,-0.30859 4.1055,0.91797 2.6562,3.2734 5.4336,6.5391 8.3555,8.6406 2.7344,1.9648 5.6328,2.9219 8.7305,1.875 4.832,-1.6367 8.3984,-5.6406 10.215,-10.723 v -0.0039 c 1.9258,-5.7461 1.8516,-11.973 -0.20703,-17.672 -2.4258,-7.0508 -7.543,-19.805 -15.426,-21.258 h -8.3125 c -0.10156,-0.0039 -0.20312,0.04687 -0.26562,0.12891 z m -16.266,20.32 c -0.63281,-0.01953 -1.1406,-0.53906 -1.1406,-1.1758 0,-0.63281 0.50781,-1.1523 1.1406,-1.1719 h 1.2773 c 0.31641,-0.01172 0.625,0.10938 0.85156,0.33203 0.22656,0.21875 0.35547,0.52344 0.35547,0.83984 0,0.31641 -0.12891,0.62109 -0.35547,0.84375 -0.22656,0.21875 -0.53516,0.33984 -0.85156,0.33203 z m -7.5352,0 c -0.63281,-0.01953 -1.1367,-0.53906 -1.1367,-1.1758 0,-0.63281 0.50391,-1.1523 1.1367,-1.1719 h 2.9023 c 0.63281,0.01953 1.1367,0.53906 1.1367,1.1719 0,0.63672 -0.50391,1.1562 -1.1367,1.1758 z m 25.781,2.7266 c 0,-0.71094 0.42969,-1.3516 1.0859,-1.625 0.65625,-0.26953 1.4141,-0.12109 1.9141,0.38281 0.50391,0.50391 0.65234,1.2578 0.38281,1.9141 -0.27344,0.65625 -0.91406,1.0859 -1.6211,1.0859 -0.46875,0 -0.91406,-0.1875 -1.2461,-0.51562 -0.32812,-0.32812 -0.51562,-0.77734 -0.51562,-1.2422 z m 0,-12.578 c 0,-0.71094 0.42969,-1.3516 1.0859,-1.625 0.65625,-0.26953 1.4141,-0.12109 1.918,0.38281 0.5,0.50391 0.65234,1.2578 0.37891,1.9141 -0.26953,0.65625 -0.91016,1.0859 -1.6211,1.0859 -0.46875,0 -0.91406,-0.18359 -1.2461,-0.51562 -0.32812,-0.32812 -0.51562,-0.77734 -0.51562,-1.2422 z m -4.5273,4.5312 c 0.71094,0 1.3516,0.42578 1.6211,1.082 0.26953,0.66016 0.12109,1.4141 -0.38281,1.9141 -0.5,0.50391 -1.2578,0.65234 -1.9141,0.38281 -0.65625,-0.27344 -1.082,-0.91406 -1.082,-1.6211 0,-0.46875 0.18359,-0.91406 0.51172,-1.2461 0.33203,-0.32812 0.77734,-0.51562 1.2461,-0.51172 z m 12.574,0 c 0.71094,0 1.3516,0.42578 1.6211,1.082 0.27344,0.66016 0.12109,1.4141 -0.37891,1.9141 -0.50391,0.50391 -1.2578,0.65234 -1.9141,0.38281 -0.65625,-0.27344 -1.0859,-0.91406 -1.0859,-1.6211 0,-0.46875 0.18359,-0.91406 0.51563,-1.2461 0.32812,-0.32812 0.77734,-0.51562 1.2422,-0.51172 z"
       id="path680"
       style="fill:#ffffff" /></g></svg>
