<?xml version="1.0" encoding="UTF-8" standalone="no"?>
<svg
   width="128"
   height="100"
   version="1.1"
   viewBox="0 0 96 75"
   id="svg20"
   sodipodi:docname="cannons.svg"
   inkscape:version="1.4.2 (ebf0e940d0, 2025-05-08)"
   xmlns:inkscape="http://www.inkscape.org/namespaces/inkscape"
   xmlns:sodipodi="http://sodipodi.sourceforge.net/DTD/sodipodi-0.dtd"
   xmlns="http://www.w3.org/2000/svg"
   xmlns:svg="http://www.w3.org/2000/svg">
  <defs
     id="defs20" />
  <sodipodi:namedview
     id="namedview20"
     pagecolor="#ffffff"
     bordercolor="#000000"
     borderopacity="0.25"
     inkscape:showpageshadow="2"
     inkscape:pageopacity="0.0"
     inkscape:pagecheckerboard="0"
     inkscape:deskcolor="#d1d1d1"
     inkscape:document-units="pt"
     inkscape:zoom="1.04375"
     inkscape:cx="-20.11976"
     inkscape:cy="-54.131737"
     inkscape:window-width="1862"
     inkscape:window-height="1011"
     inkscape:window-x="0"
     inkscape:window-y="0"
     inkscape:window-maximized="1"
     inkscape:current-layer="svg20" />
  <path
     d="m 49.445956,58.682187 c 1.750144,1.563903 3.978963,2.488239 6.322141,2.621971 v -7.777351 c -0.291606,-0.06761 -0.569647,-0.184013 -0.822783,-0.343901 z"
     fill="#4c4c4c"
     id="path1"
     style="stroke-width:0.0643553" />
  <path
     d="m 55.768869,48.280433 v -7.776701 c -2.343435,0.132985 -4.572255,1.057358 -6.322398,2.621447 l 5.498843,5.499362 c 0.2534,-0.159888 0.531685,-0.276278 0.823555,-0.343901 z"
     fill="#4c4c4c"
     id="path2"
     style="stroke-width:0.0643553" />
  <path
     d="m 53.748111,51.506565 h -7.776702 c 0.133487,2.343181 1.057616,4.571746 2.621452,6.321628 l 5.499358,-5.499355 c -0.159633,-0.2529 -0.276025,-0.530936 -0.343901,-0.822273 z"
     fill="#4c4c4c"
     id="path3"
     style="stroke-width:0.0643553" />
  <path
     d="m 57.861706,50.903557 c 0,-0.39518 -0.156866,-0.77426 -0.436406,-1.053819 -0.279541,-0.279559 -0.658356,-0.43641 -1.053819,-0.43641 -0.395182,0 -0.77426,0.156866 -1.053562,0.43641 -0.279547,0.279544 -0.436664,0.658609 -0.436664,1.053819 0,0.39521 0.157117,0.77426 0.436664,1.053819 0.279289,0.279293 0.658356,0.43641 1.053562,0.43641 0.39518,-5.17e-4 0.774001,-0.15762 1.053304,-0.437171 0.27929,-0.279285 0.436407,-0.658159 0.436914,-1.053043 z"
     fill="#4c4c4c"
     id="path4"
     style="stroke-width:0.0643553" />
  <path
     d="M 63.300378,43.124928 C 61.550491,41.560765 59.321929,40.636429 56.97875,40.502956 v 7.777351 c 0.291357,0.06761 0.569147,0.183762 0.822269,0.343391 z"
     fill="#4c4c4c"
     id="path5"
     style="stroke-width:0.0643553" />
  <path
     d="m 56.974889,53.526682 v 7.777343 c 2.344466,-0.133236 4.574251,-1.057617 6.325424,-2.621964 L 57.79793,53.182699 c -0.253148,0.159888 -0.531434,0.276026 -0.823041,0.343908 z"
     fill="#4c4c4c"
     id="path6"
     style="stroke-width:0.0643553" />
  <path
     d="m 54.092413,49.476798 -5.499358,-5.499354 c -1.563901,1.750141 -2.488237,3.978956 -2.621452,6.322396 h 7.776702 c 0.06813,-0.29161 0.184519,-0.569647 0.343902,-0.823042 z"
     fill="#4c4c4c"
     id="path7"
     style="stroke-width:0.0643553" />
  <path
     d="m 56.37381,34.509676 c -3.24293,-5.17e-4 -6.413398,0.960564 -9.110145,2.761999 -2.696618,1.801175 -4.798464,4.361811 -6.039879,7.35775 -1.241351,2.996063 -1.566409,6.29273 -0.933668,9.473753 0.632492,3.180571 2.194132,6.102428 4.487049,8.395801 2.293175,2.292915 5.215037,3.854565 8.395801,4.487047 3.180828,0.63274 6.477366,0.307695 9.473752,-0.933668 2.996065,-1.241349 5.556699,-3.343194 7.357749,-6.039882 1.801437,-2.696614 2.762518,-5.867145 2.762,-9.110138 -0.0044,-4.345986 -1.733344,-8.51293 -4.80657,-11.585898 -3.073226,-3.072967 -7.239978,-4.801747 -11.585896,-4.806573 z m 0,28.031257 c -2.301733,5.17e-4 -4.552112,-0.681522 -6.466426,-1.960067 -1.914057,-1.278293 -3.406072,-3.095814 -4.287419,-5.222308 -0.881089,-2.126495 -1.111867,-4.466395 -0.663182,-6.72385 0.448731,-2.257455 1.557078,-4.331437 3.184303,-5.95918 1.627483,-1.627996 3.701206,-2.736581 5.958664,-3.185848 2.257714,-0.44923 4.597611,-0.218704 6.724491,0.661897 2.126751,0.880897 3.944276,2.372331 5.223081,4.286195 1.279063,1.914056 1.961551,4.163989 1.961551,6.465785 -0.0035,3.085262 -1.230539,6.043096 -3.412314,8.224616 -2.181518,2.181778 -5.139355,3.409095 -8.224615,3.412568 z"
     fill="#4c4c4c"
     id="path8"
     style="stroke-width:0.0643553" />
  <path
     d="m 58.651347,52.330315 5.499358,5.498136 c 1.5639,-1.74989 2.487979,-3.978447 2.621452,-6.321628 h -7.776702 c -0.06762,0.291869 -0.184018,0.57015 -0.343902,0.823559 z"
     fill="#4c4c4c"
     id="path9"
     style="stroke-width:0.0643553" />
  <path
     d="m 58.651347,49.476798 c 0.159884,0.253403 0.276277,0.531683 0.343901,0.823559 h 7.776702 c -0.133486,-2.343181 -1.057616,-4.572255 -2.621451,-6.322145 z"
     fill="#4c4c4c"
     id="path10"
     style="stroke-width:0.0643553" />
  <path
     d="m 41.001245,42.341076 c 0.286582,-0.520621 0.60283,-1.024152 0.947247,-1.508361 l -9.514296,2.847724 c -1.11869,0.348424 -2.050041,1.132784 -2.583546,2.175986 -0.533699,1.04326 -0.624447,2.257455 -0.252145,3.368619 0.279039,0.928902 0.849942,1.743129 1.627997,2.322323 0.778057,0.5792 1.722022,0.892415 2.691857,0.89345 0.428362,0 4.856834,-1.254931 4.856834,-1.254931 -0.006,-0.09654 -0.006,-0.187035 -0.006,-0.283562 -0.0051,-2.998319 0.763704,-5.947079 2.232358,-8.561195 z"
     fill="#4c4c4c"
     id="path11"
     style="stroke-width:0.0643553" />
  <path
     d="m 33.918294,53.647025 c -1.423605,-0.0044 -2.793924,-0.540233 -3.843238,-1.502311 l -2.407276,8.784509 c -0.06512,0.23932 -0.282809,0.404986 -0.530931,0.404225 h -9.448012 v -2.021144 h 1.221723 c 0.33309,0 0.603332,-0.270241 0.603332,-0.603333 0,-0.333084 -0.270242,-0.603325 -0.603332,-0.603325 h -3.650173 c -0.333089,0 -0.603331,0.270241 -0.603331,0.603325 0,0.333092 0.270242,0.603333 0.603331,0.603333 h 1.221723 v 2.021144 h -2.184092 c -1.065853,0 -2.050813,0.568642 -2.583739,1.491758 -0.532927,0.923125 -0.532939,2.060401 0,2.983452 0.53294,0.923049 1.517886,1.491758 2.583739,1.491758 h 16.350124 c 0.613132,-0.0022 1.208657,-0.20513 1.695634,-0.577944 0.48719,-0.372564 0.838615,-0.89422 1.001305,-1.485449 l 3.270024,-12.145149 -1.067912,0.319769 c -0.528923,0.156113 -1.077438,0.2353 -1.628963,0.2353 z"
     fill="#4c4c4c"
     id="path12"
     style="stroke-width:0.0643553" />
  <path
     d="m 43.251752,39.179295 c 1.637523,-1.829365 3.639103,-3.296733 5.876417,-4.307815 l -2.43746,-9.707367 -17.375947,3.475189 3.432973,13.683244 z"
     fill="#4c4c4c"
     id="path13"
     style="stroke-width:0.0643553" />
  <path
     d="m 52.760256,33.676917 -2.322842,-9.261381 -2.564174,0.512834 2.377158,9.472468 c 0.817248,-0.303935 1.656121,-0.546018 2.509858,-0.724002 z"
     fill="#4c4c4c"
     id="path14"
     style="stroke-width:0.0643553" />
  <path
     d="m 56.37381,33.30301 c 2.798686,-0.003 5.557215,0.667431 8.042489,1.954791 l 7.650568,-2.316787 -3.064926,-12.235243 -17.381739,3.47519 2.328892,9.291624 c 0.803412,-0.114128 1.613904,-0.170691 2.425424,-0.168932 z"
     fill="#4c4c4c"
     id="path15"
     style="stroke-width:0.0643553" />
  <path
     d="m 70.183827,20.468618 3.038797,12.12262 2.502071,-0.757657 -2.977466,-11.87742 z"
     fill="#4c4c4c"
     id="path16"
     style="stroke-width:0.0643553" />
  <path
     d="m 31.589273,42.696963 -3.46309,-13.822243 -2.558125,0.512833 3.764789,15.034702 c 0.583471,-0.767507 1.362789,-1.363561 2.256426,-1.725499 z"
     fill="#4c4c4c"
     id="path17"
     style="stroke-width:0.0643553" />
  <path
     d="M 73.93124,19.722096 76.881545,31.481108 80.049053,30.52183 77.183248,19.070432 Z"
     fill="#4c4c4c"
     id="path18"
     style="stroke-width:0.0643553" />
  <path
     d="M 85.963117,29.652771 82.80166,17.049422 C 82.72172,16.73996 82.52287,16.474491 82.24835,16.310813 81.973838,16.146905 81.645771,16.097887 81.335534,16.174561 l -2.250443,0.567128 c -0.310208,0.07642 -0.577184,0.273766 -0.741565,0.547775 -0.164158,0.274262 -0.212172,0.602579 -0.133237,0.9123 l 3.155414,12.603357 c 0.07893,0.311463 0.278531,0.578446 0.55506,0.742081 0.277284,0.153852 0.601324,0.20111 0.911015,0.132734 l 2.250442,-0.561105 c 0.310216,-0.07944 0.576431,-0.277779 0.741373,-0.552298 0.164913,-0.274261 0.215194,-0.602579 0.139524,-0.913778 z"
     fill="#4c4c4c"
     id="path19"
     style="stroke-width:0.0643553" />
  <path
     d="m 28.518237,46.123888 c -0.967326,0.272 -1.960072,0.443695 -2.962342,0.512834 -1.470134,-0.0014 -2.914848,-0.383617 -4.193138,-1.11013 -1.854721,-1.043526 -3.245184,-2.750937 -3.891504,-4.778391 l -1.405779,0.355967 c 0,0.652883 -0.25943,1.279062 -0.720973,1.740617 -0.461544,0.461555 -1.087735,0.720972 -1.74062,0.720972 -0.652885,0 -1.279063,-0.259425 -1.740619,-0.720972 -0.461557,-0.46154 -0.720974,-1.087734 -0.720974,-1.740617 0,-0.652889 0.25943,-1.279062 0.720974,-1.740624 0.461543,-0.461554 1.087734,-0.720971 1.740619,-0.720971 0.443446,-0.0014 0.878837,0.117897 1.259434,0.345408 0.380605,0.227511 0.69182,0.554567 0.90046,0.945705 l 1.411829,-0.355967 c -0.374819,-2.091035 0.04927,-4.246421 1.188579,-6.039365 1.232534,-1.995267 3.246664,-3.381166 5.55065,-3.819098 l 0.464568,-0.0905 z"
     fill="#4c4c4c"
     id="path20"
     style="stroke-width:0.0643553" />
</svg>
