<?xml version="1.0" encoding="UTF-8" standalone="no"?>
<svg
   width="128"
   height="100"
   version="1.1"
   viewBox="0 0 96 75"
   id="svg3"
   sodipodi:docname="canyons.svg"
   inkscape:version="1.4.3 (0d15f75042, 2025-12-25)"
   xml:space="preserve"
   xmlns:inkscape="http://www.inkscape.org/namespaces/inkscape"
   xmlns:sodipodi="http://sodipodi.sourceforge.net/DTD/sodipodi-0.dtd"
   xmlns="http://www.w3.org/2000/svg"
   xmlns:svg="http://www.w3.org/2000/svg"><defs
     id="defs3" /><sodipodi:namedview
     id="namedview3"
     pagecolor="#ffffff"
     bordercolor="#000000"
     borderopacity="0.25"
     inkscape:showpageshadow="2"
     inkscape:pageopacity="0.0"
     inkscape:pagecheckerboard="0"
     inkscape:deskcolor="#d1d1d1"
     inkscape:document-units="pt"
     inkscape:zoom="2.0075"
     inkscape:cx="33.872977"
     inkscape:cy="50.809465"
     inkscape:window-width="1848"
     inkscape:window-height="1011"
     inkscape:window-x="0"
     inkscape:window-y="0"
     inkscape:window-maximized="1"
     inkscape:current-layer="svg3" /><path
     d="m 21.57991,67.008025 c 5.565958,1.754045 10.750855,2.287143 15.706335,-2.668337 l 8.005012,-8.005012 c 0.762381,-0.762381 0.762381,-1.983399 0,-2.668337 l -3.126975,-3.126975 -6.328338,6.25395 c -1.754053,1.754045 -4.574294,1.754045 -6.328347,0 -1.828505,-1.828513 -1.983399,-4.574294 -0.151879,-6.48025 l 6.328346,-6.328338 -3.126975,-3.126975 c -0.762381,-0.762381 -1.983399,-0.762381 -2.668337,0 l -8.005012,8.008184 c -4.95548,4.955488 -4.422382,10.140315 -2.668337,15.706344 0.381195,1.369867 0.991672,1.980408 2.364594,2.436063 z m 6.480242,-3.353275 c 2.364594,0 4.27055,-0.914292 5.947152,-2.590894 0.458622,-0.458622 1.143575,-0.458622 1.602213,0 0.45863,0.458622 0.458622,1.143576 0,1.602213 -2.135247,2.13524 -4.574293,3.278807 -7.546311,3.278807 -0.610501,0 -1.143575,-0.533066 -1.143575,-1.143567 -0.0032,-0.613477 0.530099,-1.146559 1.140584,-1.146559 z m -5.869764,-0.07747 c 0.151879,-0.610501 0.839824,-0.914284 1.447318,-0.762381 0.610502,0.15188 1.221019,0.381195 1.828505,0.458622 0.610502,0.15188 0.991673,0.762381 0.839833,1.372859 -0.15184,0.610477 -0.762381,0.991672 -1.372859,0.839832 -0.684938,-0.15188 -1.372859,-0.303759 -1.9834,-0.533074 -0.607526,-0.07747 -0.914292,-0.765364 -0.759397,-1.375842 z m 8.538038,-11.816916 8.538046,-8.538046 3.660001,3.660009 -8.538038,8.538038 c -0.991672,0.991672 -2.516434,0.991672 -3.508169,0 -1.143568,-1.143567 -1.143568,-2.668337 -0.15188,-3.660001 z m 16.924244,-9.60474 -3.660009,-3.660009 17.993486,-17.993479 3.660009,3.660002 z m -3.278815,3.278815 -3.660001,-3.66001 1.905948,-1.905956 3.66001,3.660009 z M 66.941627,15.546525 c -0.07739,-0.07739 -0.07739,-0.30376 0,-0.381187 l 1.372859,-1.372858 4.041187,4.041196 -1.37285,1.372858 c -0.0775,0.07739 -0.30376,0.07739 -0.38119,0 z m 0.15188,7.168297 c 2.057856,2.05786 5.414116,2.05786 7.394466,0 l 4.0412,-4.041196 c 0.45862,-0.458622 0.45862,-1.295478 0,-1.754045 l -9.30042,-9.3004271 c -0.45863,-0.458622 -1.295478,-0.458622 -1.754052,0 L 63.433505,11.66035 c -2.057859,2.057859 -2.057859,5.414118 0,7.394471 z m -1.524762,-8.996739 2.135239,-2.13524 c 0.15188,-0.151879 0.458622,-0.303759 0.684938,-0.303759 0.229311,0 0.533071,0.07739 0.684941,0.303759 l 5.48857,5.488578 c 0.38119,0.381187 0.38119,0.991664 0,1.372859 l -2.13524,2.135239 c -0.45862,0.458622 -0.99167,0.684938 -1.60221,0.684938 -0.61054,0 -1.14357,-0.229315 -1.6022,-0.684938 L 65.56277,16.91951 c -0.458621,-0.458622 -0.684937,-0.991664 -0.684937,-1.602205 0.0063,-0.607526 0.23229,-1.140585 0.690912,-1.599222 z"
     fill="#4c4c4c"
     fill-rule="evenodd"
     id="path1"
     style="stroke-width:0.0635318" /></svg>
