<?xml version="1.0" encoding="UTF-8" standalone="no"?>
<svg
   width="128"
   height="100"
   version="1.1"
   viewBox="0 0 96 75"
   id="svg7"
   sodipodi:docname="carpets.svg"
   inkscape:version="1.4.2 (ebf0e940d0, 2025-05-08)"
   xmlns:inkscape="http://www.inkscape.org/namespaces/inkscape"
   xmlns:sodipodi="http://sodipodi.sourceforge.net/DTD/sodipodi-0.dtd"
   xmlns="http://www.w3.org/2000/svg"
   xmlns:svg="http://www.w3.org/2000/svg">
  <defs
     id="defs7" />
  <sodipodi:namedview
     id="namedview7"
     pagecolor="#ffffff"
     bordercolor="#000000"
     borderopacity="0.25"
     inkscape:showpageshadow="2"
     inkscape:pageopacity="0.0"
     inkscape:pagecheckerboard="0"
     inkscape:deskcolor="#d1d1d1"
     inkscape:document-units="pt"
     inkscape:zoom="2.0075"
     inkscape:cx="95.143213"
     inkscape:cy="147.69614"
     inkscape:window-width="1862"
     inkscape:window-height="1011"
     inkscape:window-x="0"
     inkscape:window-y="0"
     inkscape:window-maximized="1"
     inkscape:current-layer="svg7" />
  <path
     d="m 27.516724,53.951531 c 0.56135,0.323514 1.071397,0.387133 1.437216,0.176634 0.361503,-0.208074 0.56135,-0.673584 0.563026,-1.310906 0.0024,-0.530832 -0.145197,-1.142524 -0.419319,-1.75173 l -2.872756,1.669249 c 0.387135,0.52916 0.837881,0.955047 1.291838,1.216774 z"
     fill="#4c4c4c"
     id="path1"
     style="stroke-width:0.0479008" />
  <path
     d="m 35.591845,56.592303 7.016514,4.044985 c 2.540038,1.465287 5.698283,1.457812 8.241817,-0.01571 l 10.675179,-6.213214 c 1.192111,-0.692504 1.902763,-1.927431 1.901088,-3.305345 -0.0016,-1.378634 -0.71497,-2.613567 -1.908558,-3.302715 L 56.10557,44.67142 50.415428,47.977152 c 0.182809,0.09019 0.366178,0.186549 0.551818,0.292833 1.556966,0.900583 2.447634,2.117362 2.446677,3.339982 -5.2e-4,1.028572 -0.629082,1.957177 -1.768976,2.614329 -1.109384,0.641441 -2.595459,0.955956 -4.153146,0.955956 -1.893759,0 -3.893044,-0.464786 -5.450635,-1.370394 -0.285159,-0.167094 -0.536634,-0.342413 -0.767707,-0.520733 z"
     fill="#4c4c4c"
     id="path2"
     style="stroke-width:0.0479008" />
  <path
     d="m 25.094857,43.46748 c 0.196097,0.01758 0.395743,0.04978 0.598952,0.09505 0.594258,0.13154 1.216442,0.380771 1.850362,0.746005 1.13295,0.654519 2.189595,1.630883 3.095974,2.779542 1.423565,1.800594 2.468186,4.030758 2.817335,6.157173 0.08626,0.521112 0.132848,1.035852 0.131728,1.535793 -0.0013,0.387138 -0.03667,0.749027 -0.09075,1.095351 -0.01272,0.08121 -0.02021,0.166345 -0.03555,0.245117 -0.01534,0.07728 -0.03836,0.147629 -0.05613,0.222473 -0.0305,0.1278 -0.05894,0.257654 -0.09749,0.378529 -0.01852,0.058 -0.04341,0.109838 -0.06362,0.166158 -0.04416,0.122931 -0.08626,0.247739 -0.138649,0.362435 l 15.312938,-8.899491 7.509413,-4.366064 c 0.0021,-10e-4 0.0042,-5.2e-4 0.0062,-0.0016 l 5.224065,-3.036098 c 0.998061,-0.583623 1.547768,-1.821911 1.547768,-3.487756 v -0.0016 c 0.01649,-3.623077 -2.544153,-8.054528 -5.70738,-9.877152 -1.467732,-0.852684 -2.837169,-1.000506 -3.85583,-0.414453 z"
     fill="#4c4c4c"
     id="path3"
     style="stroke-width:0.0479008" />
  <path
     d="m 51.306671,53.63778 c 0.922855,-0.531604 1.430656,-1.252366 1.431421,-2.029031 5.2e-4,-0.974111 -0.767707,-1.977009 -2.107445,-2.752238 -0.31285,-0.179625 -0.618783,-0.332685 -0.928271,-0.465348 l -6.0858,3.535659 -1.710395,0.994516 c 0.147817,0.103096 0.307054,0.204699 0.476388,0.304616 2.650449,1.539585 6.653426,1.726873 8.924404,0.411837 z"
     fill="#4c4c4c"
     id="path4"
     style="stroke-width:0.0479008" />
  <path
     d="m 24.706382,44.132819 c -0.227903,0.0021 -0.446637,0.02939 -0.656194,0.07896 -0.03143,0.0075 -0.06156,0.01685 -0.09243,0.02544 -0.209752,0.05782 -0.411836,0.134161 -0.598952,0.241938 -1.001222,0.576102 -1.55601,1.817792 -1.560129,3.494321 -0.01085,3.623597 2.549953,8.054999 5.707384,9.877623 0.143702,0.08308 0.285532,0.153809 0.426805,0.223415 0.101977,0.04978 0.202645,0.09524 0.302935,0.138089 0.06605,0.02825 0.131728,0.05595 0.197218,0.08121 0.114325,0.04416 0.227902,0.08364 0.340172,0.118446 0.04827,0.01498 0.0958,0.02918 0.143142,0.0425 0.123867,0.03423 0.246052,0.06362 0.366551,0.08645 0.03462,0.0067 0.06942,0.01233 0.103663,0.01795 0.127611,0.02075 0.253351,0.0361 0.376471,0.04395 0.02732,0.0016 0.05407,0.0021 0.08083,0.0031 0.125927,0.0052 0.249233,0.0042 0.369737,-0.0047 0.02526,-0.0021 0.04959,-0.0054 0.07466,-0.0079 0.118444,-0.0116 0.234824,-0.02882 0.347467,-0.05408 0.02807,-0.0063 0.05482,-0.01535 0.08289,-0.02247 0.106469,-0.02767 0.211813,-0.05932 0.31285,-0.09954 0.03256,-0.01311 0.06362,-0.03012 0.0958,-0.04453 0.09374,-0.04208 0.186924,-0.08644 0.275243,-0.139962 0.08083,-0.04921 0.158111,-0.104224 0.233143,-0.162225 0.02357,-0.01852 0.05033,-0.03256 0.07354,-0.05181 0.05688,-0.04734 0.106469,-0.104406 0.159231,-0.156794 0.05127,-0.05072 0.105718,-0.09674 0.153058,-0.152123 0.03181,-0.03704 0.05819,-0.08102 0.08869,-0.120127 0.061,-0.07933 0.123867,-0.156987 0.178321,-0.24456 0.01852,-0.02976 0.03256,-0.06456 0.05033,-0.09543 0.05988,-0.103662 0.119378,-0.208069 0.170086,-0.322021 0.01235,-0.02809 0.02096,-0.06006 0.03293,-0.08869 0.05071,-0.122748 0.100295,-0.247177 0.140709,-0.380776 7.28e-4,-0.0026 0.0013,-0.0056 0.0021,-0.0082 0.147817,-0.490603 0.224535,-1.052145 0.224535,-1.673559 0.0024,-0.476205 -0.04247,-0.966642 -0.124619,-1.46304 -0.302934,-1.812945 -1.13707,-3.70503 -2.285396,-5.305492 -0.931624,-1.296289 -2.067401,-2.401986 -3.297494,-3.11111 -0.111518,-0.06455 -0.220421,-0.116943 -0.330626,-0.173456 -0.08139,-0.04151 -0.163538,-0.08794 -0.243997,-0.12499 -0.09487,-0.04396 -0.187302,-0.0784 -0.281044,-0.116387 -0.108337,-0.04338 -0.216861,-0.08701 -0.323704,-0.122368 -0.07971,-0.02658 -0.158485,-0.04848 -0.237258,-0.07036 -0.120873,-0.0335 -0.240998,-0.06249 -0.358696,-0.08476 -0.06474,-0.01254 -0.129667,-0.0245 -0.193662,-0.03366 -0.137903,-0.01945 -0.273184,-0.02996 -0.406224,-0.03366 -0.04004,-0.0016 -0.08046,-0.0053 -0.120126,-0.0047 z m 0.714584,3.89903 c 0.582858,-0.336051 1.333177,-0.271501 2.112523,0.176635 0.781741,0.452437 1.495799,1.242454 2.0092,2.224753 0.428488,0.819731 0.653751,1.644341 0.651356,2.385702 -0.0024,0.888988 -0.323518,1.561808 -0.903027,1.895242 -0.246799,0.14277 -0.524083,0.212933 -0.820493,0.212933 -0.403603,0 -0.842767,-0.130416 -1.291837,-0.389567 -0.634878,-0.36655 -1.230812,-0.964962 -1.722754,-1.730223 -0.598569,-0.932005 -0.941012,-1.98041 -0.938569,-2.876878 0.0028,-0.890663 0.323144,-1.564247 0.903554,-1.898644 z"
     fill="#4c4c4c"
     id="path5"
     style="stroke-width:0.0479008" />
  <path
     d="M 50.072746,67.410707 74.087348,53.4548 c 0.733119,-0.427557 1.136685,-0.974112 1.135967,-1.539583 -0.0016,-0.567861 -0.410338,-1.116133 -1.152447,-1.5437 l -13.93052,-8.043027 -3.360913,1.952727 5.077492,2.934309 c 1.405023,0.812255 2.244583,2.265947 2.246117,3.888013 0.0016,1.621346 -0.834529,3.07576 -2.237113,3.890648 l -10.676138,6.213215 c -1.381843,0.800665 -2.930573,1.201068 -4.478345,1.201068 -1.536179,0 -3.07164,-0.394623 -4.441125,-1.183678 l -7.35613,-4.240325 -3.209548,1.864587 c -7.28e-4,3.85e-4 -0.0013,5.2e-4 -0.0017,10e-4 v 5.2e-4 h -7.28e-4 l -3.83e-4,1.93e-4 c -0.0013,0.001 -0.0021,0.0021 -0.0037,0.0026 -0.01029,0.0056 -0.02096,0.0097 -0.03181,0.01441 -0.493953,0.278794 -1.048405,0.419691 -1.64434,0.425679 l 14.049314,8.116316 c 1.657464,0.957445 4.350353,0.956534 6.001495,5.2e-4 z"
     fill="#4c4c4c"
     id="path6"
     style="stroke-width:0.0479008" />
  <path
     d="m 27.321288,51.315068 1.463945,-0.850619 c -0.433354,-0.730488 -1.002181,-1.329826 -1.590642,-1.66997 -0.343353,-0.19815 -0.667068,-0.298816 -0.950927,-0.298816 -0.180003,0 -0.344288,0.04042 -0.48629,0.122181 -0.361503,0.208819 -0.562069,0.675306 -0.563793,1.314303 -0.0024,0.685034 0.236884,1.484159 0.663666,2.233763 z"
     fill="#4c4c4c"
     id="path7"
     style="stroke-width:0.0479008" />
</svg>
