<?xml version="1.0" encoding="UTF-8" standalone="no"?>
<svg
   width="128"
   height="100"
   version="1.1"
   viewBox="0 0 96 75.000002"
   id="svg7"
   sodipodi:docname="chassis.svg"
   inkscape:version="1.4.2 (ebf0e940d0, 2025-05-08)"
   xmlns:inkscape="http://www.inkscape.org/namespaces/inkscape"
   xmlns:sodipodi="http://sodipodi.sourceforge.net/DTD/sodipodi-0.dtd"
   xmlns="http://www.w3.org/2000/svg"
   xmlns:svg="http://www.w3.org/2000/svg">
  <defs
     id="defs7" />
  <sodipodi:namedview
     id="namedview7"
     pagecolor="#ffffff"
     bordercolor="#000000"
     borderopacity="0.25"
     inkscape:showpageshadow="2"
     inkscape:pageopacity="0.0"
     inkscape:pagecheckerboard="0"
     inkscape:deskcolor="#d1d1d1"
     inkscape:document-units="pt"
     inkscape:zoom="2.0875"
     inkscape:cx="64.670659"
     inkscape:cy="108.02395"
     inkscape:window-width="1920"
     inkscape:window-height="1043"
     inkscape:window-x="0"
     inkscape:window-y="0"
     inkscape:window-maximized="1"
     inkscape:current-layer="svg7" />
  <path
     d="m 31.371627,11.856287 h 1.024461 c 1.555963,0 2.817201,1.555966 2.817201,2.817201 v 6.146414 c 0,1.555967 -1.261238,2.817201 -2.817201,2.817201 h -1.024461 c -1.55597,0 -2.817202,-1.555967 -2.817202,-2.817201 v -6.146414 c 0,-1.555967 1.261232,-2.817201 2.817202,-2.817201 z"
     fill="#4c4c4c"
     id="path1"
     style="stroke-width:0.0437094" />
  <path
     d="m 62.10457,11.856287 h 1.024461 c 1.55597,0 2.817202,1.555966 2.817202,2.817201 v 6.146414 c 0,1.555967 -1.261232,2.817201 -2.817202,2.817201 H 62.10457 c -1.555963,0 -2.817202,-1.555967 -2.817202,-2.817201 v -6.146414 c 0,-1.555967 1.261239,-2.817201 2.817202,-2.817201 z"
     fill="#4c4c4c"
     id="path2"
     style="stroke-width:0.0437094" />
  <path
     d="m 31.371627,52.526559 h 1.024461 c 1.555963,0 2.817201,1.555967 2.817201,2.817201 v 6.146412 c 0,1.55597 -1.261238,2.817202 -2.817201,2.817202 h -1.024461 c -1.55597,0 -2.817202,-1.555963 -2.817202,-2.817202 V 55.34376 c 0,-1.555966 1.261232,-2.817201 2.817202,-2.817201 z"
     fill="#4c4c4c"
     id="path3"
     style="stroke-width:0.0437094" />
  <path
     d="m 62.10457,52.526559 h 1.024461 c 1.55597,0 2.817202,1.555967 2.817202,2.817201 v 6.146412 c 0,1.55597 -1.261232,2.817202 -2.817202,2.817202 H 62.10457 c -1.555963,0 -2.817202,-1.555963 -2.817202,-2.817202 V 55.34376 c 0,-1.555966 1.261239,-2.817201 2.817202,-2.817201 z"
     fill="#4c4c4c"
     id="path4"
     style="stroke-width:0.0437094" />
  <path
     d="m 51.091988,16.722453 c -7.3e-4,-0.746819 -0.298279,-1.462735 -0.826365,-1.990831 -0.528093,-0.528097 -1.244011,-0.825365 -1.990837,-0.82637 h -2.048878 c -0.746811,10e-4 -1.462729,0.298282 -1.990829,0.82637 -0.528101,0.528088 -0.825365,1.244012 -0.826365,1.990831 v 0.256111 h -6.658689 v 1.536647 h 6.658689 v 0.256111 c 7.3e-4,0.746818 0.298279,1.462734 0.826365,1.990831 0.528093,0.528097 1.244018,0.825365 1.990829,0.82637 h 0.256115 v 8.041653 h 1.536641 v -8.041653 h 0.256115 c 0.746818,-10e-4 1.462736,-0.298282 1.990829,-0.82637 0.528101,-0.528088 0.825365,-1.244013 0.826373,-1.990831 v -0.256111 h 6.658689 v -1.536647 h -6.658689 z"
     fill="#4c4c4c"
     id="path5"
     style="stroke-width:0.0437094" />
  <path
     d="m 51.091988,57.392723 c -7.3e-4,-0.746819 -0.298279,-1.462732 -0.826365,-1.990829 -0.528093,-0.528097 -1.244011,-0.825364 -1.990837,-0.826369 h -0.256108 v -8.041653 h -1.536647 v 8.041653 h -0.256108 c -0.746819,10e-4 -1.462737,0.298281 -1.990837,0.826369 -0.528093,0.528088 -0.825365,1.24401 -0.826372,1.990829 v 0.256115 h -6.658682 v 1.536648 h 6.658682 v 0.256108 c 7.3e-4,0.746818 0.298286,1.462729 0.826372,1.990836 0.528093,0.528093 1.244018,0.825365 1.990837,0.826365 h 2.04887 c 0.746826,-7.3e-4 1.462737,-0.298279 1.990837,-0.826365 0.528093,-0.528093 0.825365,-1.244018 0.826373,-1.990836 v -0.256108 h 6.658689 v -1.536648 h -6.658689 z"
     fill="#4c4c4c"
     id="path6"
     style="stroke-width:0.0437094" />
  <path
     d="m 46.225828,31.167094 h 2.048871 c 1.55597,0 2.817201,1.555967 2.817201,2.817201 v 8.19551 c 0,1.555967 -1.261231,2.817201 -2.817201,2.817201 h -2.048871 c -1.55597,0 -2.817209,-1.555967 -2.817209,-2.817201 v -8.19551 c 0,-1.555967 1.261239,-2.817201 2.817209,-2.817201 z"
     fill="#4c4c4c"
     id="path7"
     style="stroke-width:0.0437094" />
</svg>
