<?xml version="1.0" encoding="UTF-8" standalone="no"?>
<!-- Created with Inkscape (http://www.inkscape.org/) -->

<svg
   width="128"
   height="100"
   viewBox="0 0 33.866667 26.458333"
   version="1.1"
   id="svg5"
   xml:space="preserve"
   inkscape:version="1.2.2 (b0a8486541, 2022-12-01)"
   sodipodi:docname="citizen.svg"
   xmlns:inkscape="http://www.inkscape.org/namespaces/inkscape"
   xmlns:sodipodi="http://sodipodi.sourceforge.net/DTD/sodipodi-0.dtd"
   xmlns="http://www.w3.org/2000/svg"
   xmlns:svg="http://www.w3.org/2000/svg"><sodipodi:namedview
     id="namedview7"
     pagecolor="#ffffff"
     bordercolor="#666666"
     borderopacity="1.0"
     inkscape:showpageshadow="2"
     inkscape:pageopacity="0.0"
     inkscape:pagecheckerboard="0"
     inkscape:deskcolor="#d1d1d1"
     inkscape:document-units="mm"
     showgrid="false"
     showguides="false"
     inkscape:zoom="3.659624"
     inkscape:cx="9.427198"
     inkscape:cy="74.871079"
     inkscape:window-width="1920"
     inkscape:window-height="1011"
     inkscape:window-x="0"
     inkscape:window-y="0"
     inkscape:window-maximized="1"
     inkscape:current-layer="layer1" /><defs
     id="defs2" /><g
     inkscape:label="Layer 1"
     inkscape:groupmode="layer"
     id="layer1"
     transform="translate(-33.044247,-131.48302)"><g
       id="g66931"
       transform="matrix(0.24267168,0,0,0.24267168,37.870653,132.70702)"
       style="fill:#4d4d4d;fill-opacity:1"><g
         id="g66905"
         style="fill:#4d4d4d;fill-opacity:1"><path
           d="m 47.322,29.758 c 0,-2.75 -2.229,-4.749 -4.98,-4.749 H 26.79 c -2.75,0 -4.978,1.999 -4.978,4.749 l -2.819,19.161 c 0,2.747 2.228,5.081 4.978,5.081 h 1.552 l 3.83,38.156 c 0,1.672 1.36,2.829 3.035,2.829 h 4.359 c 1.675,0 3.034,-1.157 3.034,-2.829 L 43.612,54 h 1.552 c 2.751,0 4.979,-2.334 4.979,-5.081 z"
           id="path66901"
           style="fill:#4d4d4d;fill-opacity:1" /><circle
           cx="34.568001"
           cy="13.33"
           r="8.3450003"
           id="circle66903"
           style="fill:#4d4d4d;fill-opacity:1" /></g><g
         id="g66911"
         style="fill:#4d4d4d;fill-opacity:1"><path
           d="m 79.588,33.382 c 0,-2.597 -2.105,-4.486 -4.703,-4.486 h -14.69 c -2.596,0 -4.701,1.889 -4.701,4.486 l -2.661,29.425 c 0,2.595 2.104,4.799 4.701,4.799 H 59 l 3.616,24.707 c 0,1.579 1.285,2.672 2.867,2.672 H 69.6 c 1.582,0 2.866,-1.093 2.866,-2.672 l 3.617,-24.707 h 1.466 c 2.599,0 4.702,-2.204 4.702,-4.799 z"
           id="path66907"
           style="fill:#4d4d4d;fill-opacity:1" /><circle
           cx="67.542"
           cy="17.865999"
           r="7.882"
           id="circle66909"
           style="fill:#4d4d4d;fill-opacity:1" /></g></g></g></svg>
