<?xml version="1.0" encoding="UTF-8" standalone="no"?>
<svg
   width="128"
   height="100"
   viewBox="0 0 96 75"
   version="1.1"
   id="svg6"
   sodipodi:docname="coaster.svg"
   xml:space="preserve"
   inkscape:version="1.4.3 (0d15f75042, 2025-12-25)"
   xmlns:inkscape="http://www.inkscape.org/namespaces/inkscape"
   xmlns:sodipodi="http://sodipodi.sourceforge.net/DTD/sodipodi-0.dtd"
   xmlns="http://www.w3.org/2000/svg"
   xmlns:svg="http://www.w3.org/2000/svg"><defs
     id="defs6" /><sodipodi:namedview
     id="namedview6"
     pagecolor="#ffffff"
     bordercolor="#000000"
     borderopacity="0.25"
     inkscape:showpageshadow="2"
     inkscape:pageopacity="0.0"
     inkscape:pagecheckerboard="0"
     inkscape:deskcolor="#d1d1d1"
     inkscape:zoom="4"
     inkscape:cx="63.5"
     inkscape:cy="53.25"
     inkscape:window-width="1848"
     inkscape:window-height="1011"
     inkscape:window-x="0"
     inkscape:window-y="0"
     inkscape:window-maximized="1"
     inkscape:current-layer="svg6" /><g
     id="g6"
     transform="matrix(0.07557416,0,0,0.07557416,3.335369,-5.4106108)"><path
       d="m 135.37,629.44 c 4.0781,1.3125 8.3906,1.5 12.562,0.5625 8.9062,-1.5 16.359,-7.5469 19.688,-15.938 0.51562,-1.2656 0.9375,-2.5781 1.3125,-3.9375 0.1875,-0.75 0.375,-1.3125 0.5625,-2.0625 7.2188,-31.359 16.078,-62.344 26.438,-92.812 3.375,-10.5 7.3125,-21 11.438,-31.5 24.188,-64.688 57,-128.06 97.688,-168.19 10.359,-10.594 22.078,-19.734 34.875,-27.188 2.0625,-1.3125 4.125,-2.4375 6.1875,-3.5625 1.125,-0.5625 2.25,-1.125 3.5625,-1.6875 4.5,-2.4375 9.75,-4.875 15.938,-7.5 20.906,-8.7656 43.688,-11.953 66.188,-9.1875 13.172,1.6406 25.969,5.25 38.062,10.688 5.9531,2.625 11.625,5.7656 17.062,9.375 2.5781,1.5938 5.0156,3.3281 7.3125,5.25 14.578,11.344 27.234,24.938 37.5,40.312 30.188,43.125 52.688,102.94 86.25,166.5 4.6875,8.8125 9.5625,17.625 15,26.625 11.016,19.312 23.016,38.016 36,56.062 7.875,11.062 16.5,21.938 25.875,32.812 5.8125,6.9375 12,13.875 18.75,20.812 7.5,8.0625 15.562,16.125 24.188,24 11.625,10.781 23.953,20.719 36.938,29.812 l 0.1875,0.1875 c 3.375,2.0625 6.5625,4.3125 9.9375,6.1875 8.0625,5.1562 16.547,9.6562 25.312,13.5 12.984,5.7188 26.672,9.7031 40.688,11.812 14.953,1.9688 30.094,1.2656 44.812,-2.0625 13.031,-3.0469 25.594,-7.8281 37.312,-14.25 8.2969,-4.5 16.266,-9.6562 23.812,-15.375 17.438,-13.359 33.797,-28.125 48.938,-44.062 l 0.5625,-0.5625 c 7.125,-6.9375 13.125,-12.938 18.75,-17.438 2.3906,-2.0625 5.0625,-3.8438 7.875,-5.25 6.5156,-3.4688 13.828,-5.2031 21.188,-5.0625 6.75,-0.375 14.438,0.1875 23.438,-0.375 h 1.3125 c 13.781,-1.1719 24.141,-12.984 23.531,-26.766 -0.61,-13.782 -11.953,-24.656 -25.781,-24.609 h -29.438 c -53.812,0 -83.438,51.75 -105.56,70.875 -5.2031,4.5 -10.641,8.7188 -16.312,12.562 -7.7344,5.5781 -16.125,10.266 -24.938,13.875 -6.5156,2.8125 -13.406,4.7812 -20.438,5.8125 -5.2969,5.7656 -12.375,9.5625 -20.062,10.875 -4.0312,0.70312 -8.1094,1.125 -12.188,1.3125 -1.7344,0.1875 -3.5156,0.28125 -5.25,0.1875 -3.9375,-0.0469 -7.9219,-0.32812 -11.812,-0.9375 h -5.8125 l -1.5,-1.3125 c -5.4375,-1.125 -10.688,-2.8125 -15.75,-5.0625 -17.859,-7.6875 -34.078,-18.703 -47.812,-32.438 -23.25,-21.609 -43.875,-45.797 -61.5,-72.188 -10.312,-14.812 -20.25,-30.75 -31.688,-50.25 -1.875,-3.1875 -3.9375,-6.5625 -5.625,-10.125 -3.375,-5.625 -6.9375,-12 -10.125,-18.188 -5.25,-9.9375 -10.125,-19.688 -14.438,-28.875 -4.313,-9.187 -8.25,-18.188 -11.812,-26.625 -3.1406,-7.5 -3.0469,-16.031 0.375,-23.438 1.7344,-3.9844 4.3125,-7.5469 7.5,-10.5 -52.312,-97.312 -103.69,-182.81 -199.87,-187.5 -142.13,-6.9375 -221.26,113.44 -272.26,248.63 -0.5625,1.875 -1.3125,3.75 -1.875,5.4375 -16.125,43.5 -29.438,88.125 -40.875,130.69 -2.2031,8.2969 -0.14063,17.109 5.4375,23.625 3.1875,3.9844 7.5,6.9375 12.375,8.4375 z"
       fill="#4c4c4c"
       id="path1" /><path
       d="M 1077.6,933.56 V 634.69 c -2.0625,0.1875 -3.9375,0.1875 -5.8125,0.1875 h -7.5 c -3.1875,0 -6.1875,0 -9.1875,0.1875 -2.2031,0 -4.4062,0.1875 -6.5625,0.5625 -4.3125,0.60938 -8.3906,2.4844 -11.625,5.4375 l -3.9375,3.375 c -3.5625,3.1875 -7.125,6.75 -11.062,10.688 l -5.4375,5.25 c -14.906,15.656 -30.984,30.047 -48.188,43.125 l -0.375,0.375 c -5.625,4.125 -11.062,7.875 -16.5,11.25 l -4.875,6.375 -50.812,65.625 v -49.875 c -14.719,3.0469 -29.906,3.6094 -44.812,1.6875 v 48.188 l -47.25,-61.312 h -0.1875 c -1.6875,-0.75 -3.1875,-1.5 -4.875,-2.25 -8.7188,-3.8438 -17.156,-8.4375 -25.125,-13.688 -14.953,-9.2812 -29.062,-19.828 -42.188,-31.5 l 33.188,42.938 -50.812,65.812 v -125.44 c -9,-8.625 -17.438,-17.625 -25.688,-27 l -0.9375,-1.125 -0.5625,-0.5625 c -6,-6.75 -11.812,-13.688 -17.438,-20.812 -0.375,-0.375 -0.75,-0.9375 -1.125,-1.3125 -8.8125,-11.062 -17.25,-22.688 -25.5,-34.875 l -3.1875,-4.3125 -21,-27.188 2.625,-3.375 c -1.5,-2.25 -2.8125,-4.5 -4.125,-6.75 -3.9375,-6.375 -7.6875,-12.938 -11.25,-19.5 l -5.0625,6.5625 -68.625,-88.688 v -65.438 c -11.25,-21.75 -26.438,-41.203 -44.812,-57.375 v 122.76 l -50.812,-65.766 46.688,-60.375 c -7.5469,-5.8594 -15.891,-10.594 -24.75,-14.062 l -39.75,51.375 -40.688,-52.688 c -7.8281,2.9062 -15.469,6.375 -22.875,10.312 -1.125,0.5625 -2.1562,1.1719 -3.1875,1.875 l 48.938,63.562 -50.766,65.766 -0.0469,-0.0469 v -128.16 c -17.016,10.312 -32.109,23.531 -44.625,39 v 88.875 l -68.625,89.062 -15.562,-20.25 c -2.625,6.75 -4.875,13.312 -7.125,19.875 -1.3125,3.9375 -2.625,7.875 -3.9375,12 l 8.8125,11.438 -20.25,26.25 c -3.9375,13.875 -7.5,27.75 -10.688,41.438 l -0.375,2.0625 c -2.7656,11.438 -9.7969,21.375 -19.688,27.75 -4.9219,3.4219 -10.594,5.6719 -16.5,6.5625 -3.2812,0.65625 -6.6094,0.84375 -9.9375,0.5625 -3.7969,0 -7.5938,-0.60938 -11.25,-1.6875 -2.4375,-0.70312 -4.7344,-1.73441 -6.9375,-3 v 289.13 h 44.625 V 833.24762 l 51,65.625 -26.812,34.688 h 35.625 l 9,-11.625 9,11.625 h 35.438 l -26.812,-34.688 51,-65.812 v 100.5 h 44.625 v -100.31 l 50.812,65.812 -26.625,34.5 h 35.438 l 9,-11.625 9,11.625 h 35.625 l -26.812,-34.688 50.812,-65.625 v 100.31 h 44.812 v -100.12 l 50.625,65.438 -26.625,34.688 h 35.625 l 9,-11.625 v 0.1875 l 8.8125,11.438 h 35.625 l -26.625,-34.5 v -0.1875 l 50.766,-65.766 0.0469,0.0937 v 100.36 h 44.625 v -100.31 l 0.0937,-0.0937 50.719,65.719 -26.625,34.688 h 35.625 l 8.8125,-11.625 9,11.625 h 35.625 l -26.812,-34.688 50.812,-65.625 v 100.31 h 44.812 v -100.31 l 50.812,65.625 -26.812,34.688 h 35.625 l 9,-11.625 9,11.625 h 35.4379 l -26.6249,-34.688 50.7189,-65.719 0.094,0.0937 v 100.31 z M 669.04,656.43 v 130.5 l -0.0937,0.14062 -50.719,-65.578 50.625,-65.438 z m -18.188,-23.438 -50.438,65.25 -0.0937,0.0937 -50.625,-65.438 0.0937,-0.0937 50.625,-65.25 z m -301.13,-23.391 v -130.92 l 50.859,65.766 -50.625,65.484 z m 0,177.52 v -130.92 l 0.23438,-0.32812 50.625,65.484 z m 18.047,-154.22 50.578,-65.438 50.625,65.438 -50.625,65.484 z m 119.2,-154.18 v 130.92 l -0.1875,0.23438 -50.625,-65.438 z m -0.1875,177.19 0.1875,0.23438 v 130.92 l -50.812,-65.719 z m 45,0.32813 0.1875,-0.32813 50.625,65.438 -50.812,65.578 z m 50.625,-111.75 -50.438,65.25 -0.0469,0.0937 -0.14062,-0.14063 v -130.82 z m -164.06,-154.69 50.812,65.953 -50.766,65.672 -50.953,-65.906 z m -113.25,88.688 v 130.87 l -0.375,0.5625 -50.625,-65.438 z m -68.625,88.875 50.438,65.625 -50.438,65.438 -50.625,-65.438 z m -68.812,89.062 0.375,-0.5625 50.625,65.438 -51,65.812 z m 68.812,219.56 -51,-65.812 51,-65.812 50.812,65.812 z m 17.625,-154.69 50.625,-65.438 0.375,0.5625 v 130.69 z m 164.26,154.69 -50.859,-65.859 50.859,-65.766 50.859,65.766 z m 182.06,-0.1875 -50.906,-65.672 50.859,-65.766 50.766,65.672 z m 181.87,0 -50.812,-65.672 50.812,-65.766 50.859,65.719 z m 250.69,-220.13 v 131.44 l -50.812,-65.625 z m -68.625,220.31 -50.812,-65.766 50.812,-65.672 50.859,65.719 z"
       fill="#4c4c4c"
       id="path2" /><path
       d="M 1085.1,952.31 H 114.97 c -12.516,0 -22.688,10.172 -22.688,22.688 0,12.516 10.172,22.688 22.688,22.688 h 970.13 c 12.516,0 22.688,-10.172 22.688,-22.688 0,-12.516 -10.172,-22.688 -22.688,-22.688 z"
       fill="#4c4c4c"
       id="path3" /><path
       d="m 653.26,452.63 c 4.3125,9 9,18.562 14.062,28.125 3.1875,6 6.5625,12.188 10.312,18.562 1.5,3 3.1875,6 5.0625,9 10.125,17.25 20.25,33.562 30.938,49.125 16.922,25.219 36.703,48.422 58.875,69.188 12.281,12.328 26.766,22.172 42.75,29.062 5.2031,2.2969 10.688,3.7969 16.312,4.5 0.14063,0.14062 0.375,0.23438 0.5625,0.1875 3.4219,0.60938 6.8438,0.89062 10.312,0.9375 1.4531,0.0469 2.8594,-0.0469 4.3125,-0.1875 3.3281,-0.14062 6.6562,-0.51562 9.9375,-1.125 4.5,-0.75 8.5312,-3.2344 11.25,-6.9375 0.75,-0.9375 1.5,-2.0625 2.25,-3.1875 2.1562,-3.0938 3.7969,-6.5156 4.875,-10.125 3.6562,-15.047 1.125,-30.891 -6.9375,-44.062 -4.0781,-8.5781 -9.5156,-16.406 -16.125,-23.25 -4.3125,-4.2656 -11.156,-4.5469 -15.75,-0.5625 -5.625,4.875 -11.438,9.9375 -17.062,14.812 -1.2188,1.0781 -3.0469,0.98438 -4.125,-0.1875 l -16.312,-15.75 c -0.60937,-0.60938 -0.9375,-1.4062 -0.9375,-2.25 0.0937,-0.84375 0.51563,-1.6406 1.125,-2.25 3.1875,-2.625 6.375,-5.4375 9.5625,-8.0625 7.2656,-6.1875 8.6719,-16.922 3.1875,-24.75 -0.9375,-1.3125 -1.875,-2.625 -2.8125,-3.75 -5.4844,-7.875 -16.172,-10.125 -24.375,-5.0625 -4.3125,2.4375 -8.625,5.0625 -12.75,7.5 -0.70312,0.46875 -1.5469,0.60938 -2.3438,0.46875 -0.84375,-0.1875 -1.5469,-0.70312 -1.9688,-1.4062 -5.4375,-8.625 -10.875,-17.25 -16.5,-25.688 -0.46875,-0.70312 -0.60937,-1.5469 -0.46875,-2.3438 0.1875,-0.84375 0.70313,-1.5469 1.4062,-1.9688 3,-2.0625 6.1875,-4.3125 9.1875,-6.375 8.25,-5.5781 10.5,-16.781 5.0625,-25.125 l -5.0625,-7.875 c -5.1094,-8.0625 -15.562,-10.875 -24,-6.375 -4.125,2.25 -8.4375,4.3125 -12.562,6.5625 -1.4531,0.75 -3.2344,0.23438 -4.125,-1.125 -4.875,-8.625 -9.9375,-17.25 -14.812,-25.875 -0.70312,-1.4062 -0.42187,-3.0938 0.75,-4.125 2.625,-1.6875 5.0625,-3.5625 7.5,-5.4375 8.1562,-5.8125 10.078,-17.109 4.3125,-25.312 -1.6875,-2.625 -3.375,-5.0625 -5.25,-7.6875 -5.5781,-8.0156 -16.406,-10.312 -24.75,-5.25 -10.312,6.375 -20.812,12.75 -31.125,19.125 -3.5625,2.25 -6.9375,4.3125 -10.5,6.5625 -1.9688,1.2188 -3.4688,3.0938 -4.3125,5.25 -1.3594,2.7656 -1.4531,6 -0.1875,8.8125 3.375,8.25 7.125,16.875 11.25,25.688 z"
       fill="#4c4c4c"
       id="path4" /></g></svg>
