<?xml version="1.0" encoding="UTF-8" standalone="no"?>
<svg xmlns="http://www.w3.org/2000/svg" width="128" height="100" viewBox="0 0 96 75" version="1.1">
  <g fill="none" stroke="#4c4c4c" stroke-linecap="round" stroke-linejoin="round">
    <path d="M 6 60 Q 18 60 24 50 Q 30 40 36 40 Q 48 40 48 30 A 12 12 0 1 1 48 6 A 12 12 0 1 1 48 30 Q 60 30 66 40 Q 72 50 84 50 Q 90 50 90 60" stroke-width="4"/>
    <path d="M 6 64 L 90 64" stroke-width="2"/>
    <g stroke-width="2">
      <line x1="12" y1="60" x2="12" y2="64"/>
      <line x1="20" y1="60" x2="20" y2="64"/>
      <line x1="78" y1="60" x2="78" y2="64"/>
      <line x1="86" y1="60" x2="86" y2="64"/>
    </g>
  </g>
</svg>
