<?xml version="1.0" encoding="UTF-8" standalone="no"?>
<svg
   width="128"
   height="100"
   version="1.1"
   viewBox="0 0 96 75"
   id="svg26"
   sodipodi:docname="cockpit.svg"
   inkscape:version="1.4.2 (ebf0e940d0, 2025-05-08)"
   xmlns:inkscape="http://www.inkscape.org/namespaces/inkscape"
   xmlns:sodipodi="http://sodipodi.sourceforge.net/DTD/sodipodi-0.dtd"
   xmlns="http://www.w3.org/2000/svg"
   xmlns:svg="http://www.w3.org/2000/svg">
  <defs
     id="defs26" />
  <sodipodi:namedview
     id="namedview26"
     pagecolor="#ffffff"
     bordercolor="#000000"
     borderopacity="0.25"
     inkscape:showpageshadow="2"
     inkscape:pageopacity="0.0"
     inkscape:pagecheckerboard="0"
     inkscape:deskcolor="#d1d1d1"
     inkscape:document-units="pt"
     inkscape:zoom="2.0075"
     inkscape:cx="103.61146"
     inkscape:cy="143.21295"
     inkscape:window-width="1920"
     inkscape:window-height="1043"
     inkscape:window-x="0"
     inkscape:window-y="0"
     inkscape:window-maximized="1"
     inkscape:current-layer="svg26" />
  <path
     d="m 49.862096,55.910123 4.914401,7.018293 c 1.024376,-0.55274 1.976062,-1.223353 2.8375,-1.992944 l -4.912738,-7.016443 c -0.736327,0.904066 -1.716409,1.600907 -2.839225,1.990967 z"
     fill="#4c4c4c"
     id="path1"
     style="stroke-width:0.0616017" />
  <path
     d="m 37.084046,39.774156 c -1.090044,1.148753 -1.997004,2.472269 -2.675363,3.923297 h 5.422616 z"
     fill="#4c4c4c"
     id="path2"
     style="stroke-width:0.0616017" />
  <path
     d="m 47.789814,43.594698 c 0.271674,0 0.538775,0.01904 0.801561,0.05248 l 5.081651,-7.257302 c -1.803514,-0.786838 -3.793312,-1.224338 -5.883212,-1.224338 -2.090147,0 -4.0797,0.437712 -5.883214,1.224338 l 5.081651,7.257298 c 0.262769,-0.03344 0.529873,-0.05248 0.801563,-0.05248 z"
     fill="#4c4c4c"
     id="path3"
     style="stroke-width:0.0616017" />
  <path
     d="m 45.71753,43.945219 -4.914156,-7.018293 c -1.024375,0.552741 -1.97606,1.223354 -2.837499,1.992945 l 4.912739,7.016441 c 0.73608,-0.904075 1.716164,-1.600917 2.838978,-1.990966 z"
     fill="#4c4c4c"
     id="path4"
     style="stroke-width:0.0616017" />
  <path
     d="m 41.459002,49.998199 h -8.430198 c 0.01828,3.902358 1.557845,7.451349 4.055611,10.083601 l 5.079003,-7.253607 c -0.439874,-0.85017 -0.693019,-1.811463 -0.704355,-2.830047 z"
     fill="#4c4c4c"
     id="path5"
     style="stroke-width:0.0616017" />
  <path
     d="m 42.878307,53.919156 -4.912741,7.016432 c 0.861439,0.769781 1.813187,1.440193 2.8375,1.992944 l 4.914402,-7.018282 c -1.122999,-0.39007 -2.103145,-1.086964 -2.839223,-1.990967 z"
     fill="#4c4c4c"
     id="path6"
     style="stroke-width:0.0616017" />
  <path
     d="M 42.163111,47.027763 40.679864,44.909464 H 33.90675 c -0.444443,1.225575 -0.731273,2.525921 -0.83501,3.876851 h 8.490568 c 0.113827,-0.622739 0.318838,-1.213494 0.600857,-1.758552 z"
     fill="#4c4c4c"
     id="path7"
     style="stroke-width:0.0616017" />
  <path
     d="m 53.416517,47.027763 c 0.282258,0.545281 0.487035,1.136004 0.601097,1.758794 h 8.490568 c -0.103711,-1.350929 -0.39079,-2.651274 -0.835011,-3.876839 h -6.773112 z"
     fill="#4c4c4c"
     id="path8"
     style="stroke-width:0.0616017" />
  <path
     d="M 10.828767,49.998199 V 60.816085 H 29.251385 C 27.378569,57.639526 26.297889,53.94256 26.285384,49.998199 Z m 6.294466,7.556072 h -2.437087 c -4.82e-4,0 -9.66e-4,2.44e-4 -0.0015,2.44e-4 -7.24e-4,0 -0.0015,-2.44e-4 -0.0019,-2.44e-4 h -2.437082 c -0.33472,0 -0.605909,-0.271181 -0.605909,-0.605906 0,-0.334714 0.271189,-0.605915 0.605909,-0.605915 h 1.519592 l -1.31507,-3.066102 c -0.131861,-0.307523 0.01034,-0.663874 0.318116,-0.795766 0.307288,-0.131875 0.663883,0.01063 0.795525,0.318114 l 1.519838,3.543765 h 2.039572 c 0.334719,0 0.605909,0.27119 0.605909,0.605915 0,0.334472 -0.271429,0.605905 -0.605909,0.605905 z m 7.586871,0 h -2.437088 c -4.93e-4,0 -9.48e-4,2.44e-4 -0.0014,2.44e-4 -7.11e-4,0 -0.0014,-2.44e-4 -0.0019,-2.44e-4 h -2.437357 c -0.334718,0 -0.605908,-0.271181 -0.605908,-0.605906 0,-0.334714 0.27119,-0.605915 0.605908,-0.605915 h 1.519839 l -1.315074,-3.066102 c -0.131861,-0.307523 0.01034,-0.663874 0.318116,-0.795766 0.30729,-0.131875 0.663883,0.01063 0.795527,0.318114 l 1.519838,3.543765 h 2.039572 c 0.334719,0 0.605909,0.27119 0.605909,0.605915 0,0.334472 -0.271431,0.605905 -0.605909,0.605905 z"
     fill="#4c4c4c"
     id="path9"
     style="stroke-width:0.0616017" />
  <path
     d="M 26.877253,44.909284 H 10.828767 v 3.87684 H 26.31483 c 0.06977,-1.32758 0.261566,-2.623122 0.562355,-3.87684 z"
     fill="#4c4c4c"
     id="path10"
     style="stroke-width:0.0616017" />
  <path
     d="m 46.988375,56.207658 -3.226391,4.607622 h 8.056275 l -3.226391,-4.607622 c -0.262768,0.03322 -0.529873,0.05248 -0.801563,0.05248 -0.271916,2.42e-4 -0.539014,-0.01904 -0.801807,-0.05248 z"
     fill="#4c4c4c"
     id="path11"
     style="stroke-width:0.0616017" />
  <path
     d="m 52.910766,49.927978 c 0,-2.823827 -2.297067,-5.120887 -5.120892,-5.120887 -2.823822,0 -5.120892,2.297314 -5.120892,5.120887 0,2.823573 2.29707,5.120887 5.120892,5.120887 2.823825,0 5.120892,-2.297314 5.120892,-5.120887 z"
     fill="#4c4c4c"
     id="path12"
     style="stroke-width:0.0616017" />
  <path
     d="M 61.170944,43.69758 C 60.492339,42.246298 59.585684,40.922845 58.49558,39.774283 L 55.748511,43.69758 Z"
     fill="#4c4c4c"
     id="path13"
     style="stroke-width:0.0616017" />
  <path
     d="m 52.701321,45.936185 4.912738,-7.016441 c -0.861438,-0.769771 -1.813186,-1.440184 -2.8375,-1.992933 l -4.914155,7.018281 c 1.122815,0.39007 2.102899,1.086965 2.838977,1.990966 z"
     fill="#4c4c4c"
     id="path14"
     style="stroke-width:0.0616017" />
  <path
     d="m 83.124569,53.325927 h 1.62814 v 3.61116 h -1.62814 z"
     fill="#4c4c4c"
     id="path15"
     style="stroke-width:0.0616017" />
  <path
     d="m 69.264796,48.78588 h 15.486066 v -3.87685 h -16.04849 c 0.30079,1.25373 0.492574,2.549272 0.562357,3.87685 z"
     fill="#4c4c4c"
     id="path16"
     style="stroke-width:0.0616017" />
  <path
     d="m 57.293115,22.581727 h 2.308648 v 2.308837 h -2.308648 z"
     fill="#4c4c4c"
     id="path17"
     style="stroke-width:0.0616017" />
  <path
     d="m 78.048587,53.325927 h 3.861202 v 3.61116 h -3.861202 z"
     fill="#4c4c4c"
     id="path18"
     style="stroke-width:0.0616017" />
  <path
     d="m 72.978769,53.325927 h 3.861438 v 3.61116 h -3.861438 z"
     fill="#4c4c4c"
     id="path19"
     style="stroke-width:0.0616017" />
  <path
     d="m 63.597436,18.444563 c -5.449105,-3.268531 -10.76737,-4.925746 -15.807622,-4.925746 -5.040256,0 -10.358335,1.657215 -15.807624,4.925492 -4.492368,2.694591 -9.070858,6.474346 -13.607825,11.234312 -2.570211,2.696991 -5.107647,5.696258 -7.545598,8.914386 v 5.104012 H 27.20559 c 1.540783,-5.081148 4.914896,-9.372084 9.349913,-12.100424 V 20.968442 c 0,-0.334714 0.27119,-0.605906 0.605909,-0.605906 h 15.543351 c 0.334719,0 0.605909,0.271192 0.605909,0.605906 v 8.172705 c 0.950763,0.252909 1.875958,0.568611 2.770662,0.943731 v -2.194064 c 0,-0.334724 0.27119,-0.605904 0.605909,-0.605904 h 3.520416 c 0.334719,0 0.605909,0.27118 0.605909,0.605904 v 4.935344 c 3.549554,2.709995 6.234096,6.497145 7.559764,10.870248 H 84.750773 V 38.592394 C 82.312947,35.373948 79.775446,32.374935 77.205178,29.678007 72.668332,24.91785 68.089967,21.138158 63.59735,18.443696 Z m -40.62943,19.943559 c -2.034519,0 -3.684091,-1.649258 -3.684091,-3.68409 0,-2.034831 1.649263,-3.6841 3.684091,-3.6841 2.03483,0 3.684093,1.649269 3.684093,3.6841 -2.46e-4,2.034758 -1.649509,3.68409 -3.684093,3.68409 z M 60.814269,25.496724 c 0,0.334724 -0.271188,0.605904 -0.605909,0.605904 h -3.520414 c -0.334721,0 -0.605911,-0.27118 -0.605911,-0.605904 v -3.520659 c 0,-0.334725 0.27119,-0.605904 0.605911,-0.605904 h 3.520414 c 0.334721,0 0.605909,0.271179 0.605909,0.605904 z m 11.797966,12.891398 c -2.034768,0 -3.684093,-1.649258 -3.684093,-3.68409 0,-2.034831 1.649265,-3.6841 3.684093,-3.6841 2.034524,0 3.68409,1.649269 3.68409,3.6841 0,2.034832 -1.649507,3.68409 -3.68409,3.68409 z"
     fill="#4c4c4c"
     id="path20"
     style="stroke-width:0.0616017" />
  <path
     d="M 80.389456,26.45279 C 75.572017,21.395648 70.676093,17.359133 65.838508,14.45585 59.699524,10.771506 53.627811,8.9032489 47.792277,8.9032489 c -5.835534,0 -11.907002,1.8682571 -18.046232,5.5523471 -4.837399,2.903485 -9.733074,6.940052 -14.550331,11.99694 -1.461377,1.534009 -2.928732,3.179701 -4.364114,4.893953 v 5.25826 c 2.167151,-2.780511 4.404773,-5.386756 6.66839,-7.761813 4.612184,-4.838884 9.27599,-8.687083 13.861624,-11.437599 5.639946,-3.383295 11.168395,-5.098531 16.431032,-5.098531 5.262638,0 10.790778,1.715236 16.431033,5.098287 4.585696,2.750633 9.249502,6.598779 13.861627,11.437588 2.263616,2.375058 4.50124,4.981303 6.668386,7.761826 v -5.258261 c -1.43563,-1.714009 -2.90298,-3.359701 -4.364361,-4.89371 z"
     fill="#4c4c4c"
     id="path21"
     style="stroke-width:0.0616017" />
  <path
     d="m 53.416517,52.828193 5.079001,7.253607 c 2.497767,-2.632062 4.037316,-6.181126 4.055613,-10.083601 h -8.430198 c -0.01137,1.018584 -0.264457,1.979951 -0.704356,2.830047 z"
     fill="#4c4c4c"
     id="path22"
     style="stroke-width:0.0616017" />
  <path
     d="m 47.789814,29.633898 c -11.189957,0 -20.293463,9.104121 -20.293463,20.293455 0,11.18996 9.104122,20.293467 20.293463,20.293467 11.189339,0 20.293461,-9.103507 20.293461,-20.293467 0,-11.189948 -9.104122,-20.293455 -20.293461,-20.293455 z m 0,36.268033 c -8.807818,0 -15.973949,-7.16614 -15.973949,-15.973953 0,-0.177821 0.0038,-0.35469 0.0096,-0.531071 0,-0.0011 -4.92e-4,-0.0031 -4.92e-4,-0.0043 0,-0.0031 9.47e-4,-0.0064 9.47e-4,-0.01063 0.06231,-1.850219 0.440594,-3.622006 1.082834,-5.262145 0.0092,-0.02813 0.0195,-0.05532 0.03224,-0.08178 2.349305,-5.901758 8.11911,-10.084206 14.848484,-10.084206 6.728758,0 12.49961,4.182448 14.848484,10.084206 0.013,0.02625 0.02334,0.05364 0.03226,0.08178 0.642013,1.639652 1.020063,3.410202 1.082836,5.259731 0,0.0043 0.0012,0.0084 0.0012,0.01255 0,0.0021 -7.11e-4,0.0031 -7.11e-4,0.0053 0.0058,0.175906 0.0096,0.352532 0.0096,0.53012 9.47e-4,8.808426 -7.164897,15.974566 -15.973332,15.974566 z"
     fill="#4c4c4c"
     id="path23"
     style="stroke-width:0.0616017" />
  <path
     d="M 52.098855,28.856488 V 21.575152 H 37.767208 v 9.330208 c 2.994648,-1.584095 6.40535,-2.483293 10.022606,-2.483293 1.475053,0 2.916471,0.149433 4.308979,0.434103 z"
     fill="#4c4c4c"
     id="path24"
     style="stroke-width:0.0616017" />
  <path
     d="m 57.293115,28.497345 v 2.142325 c 0.798666,0.395117 1.569612,0.838342 2.308648,1.326109 v -3.468498 z"
     fill="#4c4c4c"
     id="path25"
     style="stroke-width:0.0616017" />
  <path
     d="M 66.328241,60.815471 H 84.750862 V 58.149035 H 72.370758 c -0.334719,0 -0.605913,-0.271191 -0.605913,-0.605904 v -4.823237 c 0,-0.334714 0.271194,-0.605904 0.605913,-0.605904 l 12.380104,2.43e-4 v -2.116331 l -15.456496,-2.44e-4 c -0.0127,3.944426 -1.093185,7.641085 -2.966248,10.817887 z"
     fill="#4c4c4c"
     id="path26"
     style="stroke-width:0.0616017" />
</svg>
