<?xml version="1.0" encoding="UTF-8" standalone="no"?>
<svg
   width="1200pt"
   height="1200pt"
   version="1.1"
   viewBox="0 0 1200 1200"
   id="svg1"
   sodipodi:docname="control.svg"
   xml:space="preserve"
   inkscape:version="1.4.3 (0d15f75042, 2025-12-25)"
   xmlns:inkscape="http://www.inkscape.org/namespaces/inkscape"
   xmlns:sodipodi="http://sodipodi.sourceforge.net/DTD/sodipodi-0.dtd"
   xmlns="http://www.w3.org/2000/svg"
   xmlns:svg="http://www.w3.org/2000/svg"><defs
     id="defs1" /><sodipodi:namedview
     id="namedview1"
     pagecolor="#ffffff"
     bordercolor="#000000"
     borderopacity="0.25"
     inkscape:showpageshadow="2"
     inkscape:pageopacity="0.0"
     inkscape:pagecheckerboard="true"
     inkscape:deskcolor="#d1d1d1"
     inkscape:document-units="pt"
     inkscape:zoom="0.25"
     inkscape:cx="532"
     inkscape:cy="884"
     inkscape:window-width="1848"
     inkscape:window-height="1011"
     inkscape:window-x="0"
     inkscape:window-y="0"
     inkscape:window-maximized="1"
     inkscape:current-layer="svg1" /><path
     d="m 1108.9408,966.27642 -53.1371,-365.10565 c -6.3567,-42.39336 -27.6654,-81.07082 -60.0752,-109.08953 -32.36587,-28.02349 -73.72879,-43.51167 -116.52897,-43.69121 h -19.74174 c -4.11843,0 -7.43104,0.58196 -11.45999,1.16396 -4.02895,0.58199 -7.78916,1.16395 -11.45999,1.96968 -3.67082,0.80574 -6.53582,1.38771 -9.75913,2.28302 h -2.05917 l -9.04269,2.73073 -2.19354,0.80578 c -3.3127,1.16395 -6.75958,2.41729 -9.98261,3.76031 -3.3127,1.25343 -6.40145,2.73072 -9.62447,4.2527 l -1.38771,0.67148 c -3.22313,1.61156 -6.31197,3.3127 -9.40082,5.05853 h -0.67146 c -2.4173,1.38771 -4.70041,2.73073 -6.98343,4.34229 h 0.0449 c -1.8802,1.02958 -3.62603,2.14875 -5.28229,3.44697 -1.20864,0.71625 -2.3726,1.56677 -3.44697,2.50687 -2.10396,1.4325 -4.16322,2.99927 -6.04333,4.70041 -1.70104,1.16396 -3.26791,2.46209 -4.70041,3.89459 -0.98479,0.67147 -1.8802,1.43249 -2.64114,2.32781 -1.96969,1.61156 -3.76031,3.3127 -5.59572,5.14801 -1.83542,1.83532 -2.64115,2.64115 -3.89459,4.02895 l -0.0449,-0.0448 c -2.01448,1.96969 -3.93937,4.02895 -5.72999,6.22239 -2.50688,2.865 -5.05854,5.73 -7.34156,8.81885 l -0.67155,0.89531 c -1.96969,2.50687 -3.8051,5.14802 -5.50615,7.92353 -2.10395,2.82021 -4.02895,5.81957 -5.72999,8.95311 -2.19354,3.53646 -4.11843,7.11771 -5.95385,10.78863 l -62.22391,-0.0448 V 460.2086 c 0,-9.49031 -7.69968,-17.18999 -17.18998,-17.18999 h -2.64114 c 8.68457,-18.71225 13.34038,-38.99069 13.65362,-59.58334 0.58197,-26.68076 -4.7899,-53.18198 -15.7126,-77.48957 -2.99927,-6.40145 -6.31197,-12.48947 -9.62448,-18.66736 -4.92417,-8.46072 -9.08739,-17.32464 -12.48948,-26.50122 -5.50614,-18.17459 -6.75958,-37.37962 -3.67082,-56.1358 2.95457,-18.44294 9.04269,-36.21547 17.996,-52.59943 4.47656,-8.37114 1.34292,-18.84595 -7.07292,-23.32298 -8.37113,-4.47656 -18.80201,-1.34292 -23.2781,7.02822 -10.78862,20.01009 -18.04088,41.72199 -21.44259,64.19407 -4.02895,24.12901 -2.32781,48.8396 4.92417,72.20652 4.02895,11.10186 9.04269,21.8456 14.90658,32.09656 2.99927,5.37187 5.95384,10.78862 8.59499,16.51861 v -0.0448 c 8.72926,19.42849 12.98225,40.60273 12.48947,61.91067 -0.17906,21.39771 -6.58051,42.3036 -18.44294,60.16493 h -13.42919 c -9.4903,0 -17.18998,7.69968 -17.18998,17.18998 v 86.62127 h -61.32908 c -1.83541,-3.67082 -3.76031,-7.20728 -5.95385,-10.78862 -1.65635,-3.08885 -3.58124,-6.08812 -5.72999,-8.90833 -1.70104,-2.73072 -3.53646,-5.37186 -5.50614,-7.92353 l -0.67146,-0.89531 c -2.28302,-3.08885 -4.83468,-5.95384 -7.34156,-8.81884 v -0.0448 c -1.79062,-2.14875 -3.67082,-4.20792 -5.72999,-6.1777 -1.25344,-1.38771 -2.50687,-2.73072 -3.89458,-4.02895 -1.38771,-1.25343 -3.67083,-3.53645 -5.59572,-5.14801 -0.80573,-0.85055 -1.70105,-1.61156 -2.64115,-2.28302 -1.47728,-1.4325 -3.04406,-2.73073 -4.70041,-3.89459 -1.92489,-1.70104 -3.93937,-3.26791 -6.08811,-4.70041 -1.02959,-0.94008 -2.19354,-1.79062 -3.44698,-2.50687 -1.65635,-1.29822 -3.40218,-2.46208 -5.23759,-3.44697 -2.28302,-1.61156 -4.56604,-2.99927 -6.98343,-4.34229 h -0.67146 c -3.08885,-1.70104 -6.1777,-3.44697 -9.40082,-5.05853 l -1.38771,-1.25344 c -3.22312,-1.47728 -6.31197,-2.99927 -9.62448,-4.2527 -3.22312,-1.38771 -6.62531,-2.64115 -9.9826,-3.76031 l -2.19354,-0.80578 -9.4903,-2.64115 h -2.05917 c -3.22312,-0.89531 -6.40146,-1.61156 -9.75914,-2.28302 -3.3127,-0.67147 -7.69968,-1.47728 -11.45998,-1.96968 -3.76031,-0.44766 -7.34156,-0.89531 -11.45999,-1.16395 -4.11843,-0.22384 -8.37114,0 -12.62413,0 h -7.11771 l 0.0449,0.0448 c -42.61683,0.22383 -83.75627,15.57794 -116.08012,43.37796 -32.32099,27.75418 -53.7187,66.1184 -60.29959,108.23958 l -53.18199,365.10567 c -10.117263,69.61085 27.35212,137.47215 91.67989,166.03615 4.96896,2.1935 10.07238,4.1184 15.22078,5.73 9.75913,3.1335 19.78662,5.2376 29.94781,6.312 h 17.63788 c 5.37187,0 10.78862,-0.2687 16.16049,-0.8059 l 8.01301,-1.0296 7.92353,-1.4772 c 2.64115,0 5.28229,-1.164 7.92353,-1.8355 2.64125,-0.6714 5.28229,-1.3877 7.92354,-2.283 2.64124,-0.8953 5.28229,-1.701 7.92353,-2.7307 2.64124,-1.0297 4.56604,-1.8354 6.89394,-2.7307 l 3.3127,-1.4773 8.46072,-4.3423 c 3.3127,-1.8354 6.53582,-3.6708 9.75914,-5.73 l 6.40145,-4.3423 c 2.64114,-1.9697 5.28229,-3.8946 7.69968,-5.9538 l 4.34228,-3.6709 -0.0449,-0.09 c 4.65562,-4.1185 9.08739,-8.5054 13.29549,-13.072 1.25344,-1.4773 2.64115,-2.9993 3.89458,-4.5661 l 1.02959,-1.3877 c 2.05917,-2.5069 4.11843,-5.148 6.08812,-7.9235 h -0.0449 c 3.84979,-5.4167 7.34156,-11.0121 10.5642,-16.8319 1.61156,-2.9993 3.08885,-5.9538 4.47656,-9.0427 1.38771,-3.0888 2.19354,-5.0585 3.22312,-7.6997 1.02958,-2.6411 1.96969,-5.148 2.865,-7.7891 l 27.62048,-99.37723 3.44697,-12.62413 337.36293,0.0448 3.44697,12.62413 27.93372,101.17263 c 1.02959,2.865 2.05917,5.73 3.22313,8.4607 1.16395,2.7307 1.83541,4.4765 2.86499,6.6253 2.28302,4.9242 4.83468,9.6245 7.56541,14.325 l 3.67082,5.9538 2.05917,3.0889 c 2.3726,3.4469 4.87947,6.7595 7.56541,9.9826 v 0.045 c 0.35812,0.3581 0.67146,0.8058 0.89531,1.2534 1.61156,1.9697 3.22312,3.7603 4.92417,5.5957 l 5.59572,5.8643 5.86426,5.3719 5.14802,4.3422 7.69968,5.9539 6.40145,4.3423 c 3.22312,2.0591 6.40146,3.8945 9.75914,5.73 l 8.46072,4.3422 3.3127,1.4773 c 2.41729,1.164 4.83468,2.0592 7.20728,2.9993 l 7.69968,2.6411 c 2.64114,0.8954 5.28229,1.6116 7.78916,2.2831 2.50687,0.6714 5.28229,1.3877 7.92353,1.8354 v 0.045 c 5.32708,1.1191 10.65397,1.9697 16.07072,2.5516 7.34156,0.7611 14.728,1.0296 22.11396,0.6715 h 11.68346 c 10.16214,-1.0744 20.18953,-3.1783 29.90281,-6.312 5.1928,-1.6115 10.2959,-3.5364 15.2208,-5.73 64.9992,-28.3816 102.8725,-96.7414 92.4859,-166.84779 z M 399.58664,702.79221 H 352.7172 v 47.36221 c 0,9.49031 -7.69968,17.18999 -17.18998,17.18999 -9.49031,0 -17.18999,-7.69968 -17.18999,-17.18999 V 702.79221 H 271.0199 c -9.4903,0 -17.18998,-7.69968 -17.18998,-17.18998 0,-9.49031 7.69968,-17.18999 17.18998,-17.18999 h 47.31733 v -47.31733 c 0,-9.4903 7.69968,-17.18998 17.18999,-17.18998 9.4903,0 17.18998,7.69968 17.18998,17.18998 v 47.31733 h 46.86944 c 9.4903,0 17.18998,7.69968 17.18998,17.18999 0,9.4903 -7.69968,17.18998 -17.18998,17.18998 z m 157.34562,122.96566 h -40.46808 c -9.4903,0 -17.18998,-7.69968 -17.18998,-17.18998 0,-9.4903 7.69968,-17.18998 17.18998,-17.18998 h 40.46808 c 9.49031,0 17.18998,7.69968 17.18998,17.18998 0,9.4903 -7.69967,17.18998 -17.18998,17.18998 z m 138.32205,0 h -40.46808 c -9.4903,0 -17.18998,-7.69968 -17.18998,-17.18998 0,-9.4903 7.69968,-17.18998 17.18998,-17.18998 h 40.46808 c 9.4903,0 17.18998,7.69968 17.18998,17.18998 0,9.4903 -7.69968,17.18998 -17.18998,17.18998 z M 876.42716,573.63815 c 17.36953,0 33.03724,10.47538 39.70695,26.5461 6.66971,16.07073 2.99927,34.51462 -9.31124,46.82456 -12.31051,12.30993 -30.75383,15.98095 -46.82455,9.31124 -16.07072,-6.66972 -26.54611,-22.33838 -26.54611,-39.70695 0.17906,-23.59134 19.38362,-42.66171 42.97495,-42.75148 z m -68.75992,154.70983 c -17.36952,0 -33.03723,-10.47538 -39.70695,-26.50122 -6.6253,-16.07072 -2.95457,-34.5595 9.31124,-46.86944 12.31089,-12.26601 30.79872,-15.93702 46.86944,-9.31124 16.02584,6.67009 26.50122,22.33838 26.50122,39.70695 0.0449,11.4151 -4.47655,22.42719 -12.53436,30.53036 -8.0578,8.10316 -19.02549,12.66901 -30.44059,12.66901 z m 68.75992,68.75992 c -17.36952,0 -33.03723,-10.47538 -39.70694,-26.50122 -6.62531,-16.07072 -2.95458,-34.5595 9.31124,-46.86944 12.31089,-12.266 30.79871,-15.93702 46.86944,-9.31124 16.02583,6.6701 26.50122,22.33838 26.50122,39.70695 0.0449,11.4151 -4.47656,22.4272 -12.53436,30.53036 -8.05781,8.10317 -19.02549,12.66902 -30.4406,12.66902 z m 68.75993,-68.75992 c -17.36952,0 -33.03723,-10.47538 -39.70695,-26.50122 -6.6253,-16.07072 -2.95457,-34.5595 9.31124,-46.86944 12.31089,-12.26601 30.79872,-15.93702 46.86944,-9.31124 16.02584,6.67009 26.50122,22.33838 26.50122,39.70695 0.0449,11.4151 -4.47655,22.42719 -12.53436,30.53036 -8.0578,8.10316 -19.02549,12.66901 -30.44059,12.66901 z"
     fill="#ffffff"
     id="path1"
     style="stroke-width:0.954999" /></svg>
