<?xml version="1.0" encoding="UTF-8" standalone="no"?>
<svg
   width="128"
   height="100"
   version="1.1"
   viewBox="0 0 96 75"
   id="svg3"
   sodipodi:docname="cumulus.svg"
   inkscape:version="1.4.3 (0d15f75042, 2025-12-25)"
   xml:space="preserve"
   xmlns:inkscape="http://www.inkscape.org/namespaces/inkscape"
   xmlns:sodipodi="http://sodipodi.sourceforge.net/DTD/sodipodi-0.dtd"
   xmlns="http://www.w3.org/2000/svg"
   xmlns:svg="http://www.w3.org/2000/svg"><defs
     id="defs3" /><sodipodi:namedview
     id="namedview3"
     pagecolor="#ffffff"
     bordercolor="#000000"
     borderopacity="0.25"
     inkscape:showpageshadow="2"
     inkscape:pageopacity="0.0"
     inkscape:pagecheckerboard="0"
     inkscape:deskcolor="#d1d1d1"
     inkscape:document-units="pt"
     inkscape:zoom="2.0075"
     inkscape:cx="62.266501"
     inkscape:cy="43.835617"
     inkscape:window-width="1848"
     inkscape:window-height="1011"
     inkscape:window-x="0"
     inkscape:window-y="0"
     inkscape:window-maximized="1"
     inkscape:current-layer="svg3" /><g
     id="g1"
     transform="matrix(0.07419734,0,0,0.07419734,3.886247,-6.2077779)"><path
       d="m 1041.9,729.37 c -8.625,-2.4375 -14.438,-10.688 -13.688,-19.875 0,-1.6875 0.375,-3.5625 0.375,-5.4375 0,-55.312 -45,-100.12 -100.31,-100.12 -17.625,0 -34.312,4.3125 -49.688,13.125 -8.0625,4.6875 -18.375,2.4375 -24,-4.875 -21.562,-27.938 -53.812,-43.875 -88.5,-43.875 -61.688,0 -111.75,50.062 -111.75,111.56 0,8.0625 0.9375,15.938 2.625,24.188 1.3125,5.8125 0,12 -4.3125,16.5 -3.9375,4.5 -9.75,6.5625 -15.938,6 -2.25,-0.1875 -4.6875,-0.375 -7.125,-0.375 -47.812,0 -86.812,39 -86.812,86.812 0,47.812 39,86.812 86.812,86.812 h 390.56 c 47.438,-0.5625 86.062,-39.375 86.062,-86.812 0,-39 -26.438,-73.5 -64.312,-83.625 z"
       fill="#4c4c4c"
       id="path1" /><path
       d="m 1023.7,537.37 c -9,-2.25 -14.812,-10.875 -13.688,-20.062 0.1875,-2.8125 0.5625,-5.625 0.5625,-8.4375 0,-86.25 -70.312,-156.37 -156.56,-156.37 -27,0 -53.812,7.125 -77.438,20.625 -8.25,4.5 -18.562,2.4375 -24.188,-4.875 -33.188,-43.312 -83.25,-68.062 -137.26,-68.062 -95.625,0 -173.44,77.625 -173.44,173.26 0,12 1.3125,24.188 4.3125,37.125 1.125,5.8125 -0.375,12 -4.3125,16.5 -3.9375,4.3125 -9.75,6.75 -15.562,6.1875 -9.1875,-0.75 -18.375,-0.5625 -27.562,0.1875 -69,7.6875 -121.13,66.188 -121.13,135.94 0,75.375 61.312,136.69 136.69,136.69 h 91.5 c 3.1875,-61.125 51,-110.62 111.56,-116.62 -0.1875,-3.1875 -0.375,-6.375 -0.375,-9.5625 0,-82.125 66.938,-149.06 149.26,-149.06 41.25,0 79.875,16.875 108,46.688 17.25,-7.3125 35.625,-11.062 54.188,-11.062 73.875,0 134.26,58.312 137.63,131.44 17.438,7.125 32.812,17.812 45.188,31.125 9.1875,-18.375 13.875,-38.625 13.875,-59.625 0,-61.688 -41.625,-115.88 -101.25,-132 z M 615.14,375 c -54.188,0 -98.438,44.062 -98.438,98.438 0,10.312 -8.25,18.75 -18.75,18.75 -10.5,0 -18.75,-8.4375 -18.75,-18.75 0,-75 60.938,-135.94 135.94,-135.94 10.312,0 18.75,8.4375 18.75,18.75 0,10.3125 -8.4375,18.75 -18.75,18.75 z"
       fill="#4c4c4c"
       id="path2" /><path
       d="m 240,669.37 c 0,-76.5 49.312,-142.31 119.25,-165.56 -17.438,-14.062 -39.75,-24.562 -64.312,-24.562 -60.562,0 -109.88,49.312 -109.88,110.06 0,7.3125 0.9375,15.188 2.625,23.812 1.125,5.8125 -0.375,11.625 -4.3125,16.125 -3.75,4.3125 -9.5625,6.5625 -15.375,6.375 -2.8125,0 -5.0625,-0.375 -7.5,-0.375 -47.25,0 -85.5,38.25 -85.5,85.5 0,47.25 38.25,85.5 85.5,85.5 h 146.26 c -40.5,-31.688 -66.75,-81.375 -66.75,-136.87 z"
       fill="#4c4c4c"
       id="path3" /></g></svg>
