<?xml version="1.0" encoding="UTF-8" standalone="no"?>
<svg
   width="128"
   height="100"
   version="1.1"
   viewBox="0 0 96 75"
   id="svg3"
   sodipodi:docname="cyclone.svg"
   inkscape:version="1.4.3 (0d15f75042, 2025-12-25)"
   xml:space="preserve"
   xmlns:inkscape="http://www.inkscape.org/namespaces/inkscape"
   xmlns:sodipodi="http://sodipodi.sourceforge.net/DTD/sodipodi-0.dtd"
   xmlns="http://www.w3.org/2000/svg"
   xmlns:svg="http://www.w3.org/2000/svg"><defs
     id="defs3" /><sodipodi:namedview
     id="namedview3"
     pagecolor="#ffffff"
     bordercolor="#000000"
     borderopacity="0.25"
     inkscape:showpageshadow="2"
     inkscape:pageopacity="0.0"
     inkscape:pagecheckerboard="0"
     inkscape:deskcolor="#d1d1d1"
     inkscape:document-units="pt"
     inkscape:zoom="1.4195169"
     inkscape:cx="222.61095"
     inkscape:cy="46.494693"
     inkscape:window-width="1848"
     inkscape:window-height="1011"
     inkscape:window-x="0"
     inkscape:window-y="0"
     inkscape:window-maximized="1"
     inkscape:current-layer="svg3" /><path
     d="m 25.023574,28.78143 c -1.609072,0 -2.917572,-1.308493 -2.917572,-2.917571 0,-1.609072 1.3085,-2.917566 2.917572,-2.917566 h 25.5475 c 3.269444,0 5.219441,-0.813688 6.560937,-2.023268 2.5144,-2.265201 2.730684,-5.586017 0.465496,-8.100106 -1.67507,-1.858351 -4.537669,-2.008643 -6.396026,-0.333541 -0.55713,0.502151 -0.857708,1.176585 -0.897977,1.869303 -0.09163,1.609072 -1.473483,2.836949 -3.082562,2.745309 -1.605392,-0.09163 -2.836949,-1.473484 -2.745308,-3.082562 0.124629,-2.173554 1.073919,-4.2994087 2.818658,-5.8718847 4.251788,-3.830253 10.80561,-3.489406 14.636326,0.762388 4.570671,5.0728277 4.174852,11.7697437 -0.897976,16.3401757 -2.162529,1.946318 -5.212089,3.522395 -10.467815,3.522395 h -25.5475 z M 10.435728,40.40104 c -1.6090788,0 -2.9175718,-1.308493 -2.9175718,-2.917572 0,-1.609072 1.308493,-2.917565 2.9175718,-2.917565 h 64.286306 c 3.269444,0 5.219442,-0.813688 6.560937,-2.023268 2.5144,-2.265201 2.730684,-5.586017 0.465496,-8.096976 -1.675069,-1.858358 -4.537669,-2.008644 -6.396026,-0.333541 -0.560796,0.505817 -0.864981,1.194875 -0.897976,1.894946 -0.07698,1.609078 -1.447841,2.851653 -3.056913,2.771038 -1.609071,-0.07698 -2.851653,-1.447841 -2.774631,-3.056912 0.106299,-2.199204 1.055615,-4.35806 2.822331,-5.948835 4.251788,-3.830246 10.805611,-3.489399 14.636326,0.762389 4.570664,5.072828 4.174851,11.769743 -0.894383,16.340175 -2.162529,1.946325 -5.212089,3.522402 -10.467814,3.522402 H 10.433074 Z m 8.753019,11.721262 c -1.609071,0 -2.917571,-1.3085 -2.917571,-2.917571 0,-1.609072 1.3085,-2.917572 2.917571,-2.917572 h 50.064409 c 5.256116,0 8.305755,1.576076 10.467814,3.522401 5.072828,4.570664 5.465047,11.267738 0.894383,16.340173 -3.830252,4.251787 -10.383367,4.592634 -14.636333,0.762388 -1.74466,-1.572397 -2.694015,-3.698337 -2.818651,-5.871888 -0.09163,-1.609072 1.13623,-2.987242 2.745309,-3.082555 1.609071,-0.09164 2.987235,1.13623 3.082555,2.745308 0.0403,0.692752 0.34088,1.370812 0.897976,1.869303 1.858358,1.675066 4.720957,1.524774 6.396026,-0.333547 2.265201,-2.514401 2.048918,-5.835217 -0.465496,-8.096977 -1.345168,-1.20958 -3.295166,-2.023261 -6.560936,-2.023261 H 19.191401 Z m 14.587846,11.671211 c -1.609071,0 -2.917565,-1.30849 -2.917565,-2.917562 0,-1.609079 1.308494,-2.917572 2.917565,-2.917572 h 23.340872 c 1.609072,0 2.917572,1.308493 2.917572,2.917572 0,1.609072 -1.3085,2.917562 -2.917572,2.917562 z"
     fill="#4c4c4c"
     fill-rule="evenodd"
     id="path1"
     style="stroke-width:0.0781937" /></svg>
