<?xml version="1.0" encoding="UTF-8" standalone="no"?>
<svg
   width="128"
   height="100"
   version="1.1"
   viewBox="0 0 96 75"
   id="svg3"
   sodipodi:docname="daytime.svg"
   inkscape:version="1.4.3 (0d15f75042, 2025-12-25)"
   xml:space="preserve"
   xmlns:inkscape="http://www.inkscape.org/namespaces/inkscape"
   xmlns:sodipodi="http://sodipodi.sourceforge.net/DTD/sodipodi-0.dtd"
   xmlns="http://www.w3.org/2000/svg"
   xmlns:svg="http://www.w3.org/2000/svg"><defs
     id="defs3" /><sodipodi:namedview
     id="namedview3"
     pagecolor="#ffffff"
     bordercolor="#000000"
     borderopacity="0.25"
     inkscape:showpageshadow="2"
     inkscape:pageopacity="0.0"
     inkscape:pagecheckerboard="0"
     inkscape:deskcolor="#d1d1d1"
     inkscape:document-units="pt"
     inkscape:zoom="2.8390337"
     inkscape:cx="41.563438"
     inkscape:cy="73.616597"
     inkscape:window-width="1848"
     inkscape:window-height="1011"
     inkscape:window-x="0"
     inkscape:window-y="0"
     inkscape:window-maximized="1"
     inkscape:current-layer="svg3" /><path
     d="m 48.581805,9.7223952 c 15.892828,0 28.795991,12.9031618 28.795991,28.7959848 0,15.892829 -12.903163,28.795992 -28.795991,28.795992 -15.892823,0 -28.795986,-12.903163 -28.795986,-28.795992 0,-15.892823 12.903163,-28.7959848 28.795986,-28.7959848 z M 50.50154,37.723868 V 21.24079 c 0,-1.058257 -0.859071,-1.919736 -1.919735,-1.919736 -1.06066,0 -1.91973,0.861479 -1.91973,1.919736 v 16.483078 c 0,1.017458 0.405542,1.994116 1.125426,2.714045 l 9.639104,9.639104 c 0.748694,0.751102 1.965345,0.751102 2.714039,0 0.751102,-0.7487 0.751102,-1.965345 0,-2.714045 z"
     fill="#4c4c4c"
     fill-rule="evenodd"
     id="path1"
     style="stroke-width:0.0511929" /></svg>
