<?xml version="1.0" encoding="UTF-8" standalone="no"?>
<svg
   width="128"
   height="100"
   version="1.1"
   viewBox="0 0 96 75"
   id="svg15"
   sodipodi:docname="defense.svg"
   inkscape:version="1.4.2 (ebf0e940d0, 2025-05-08)"
   xmlns:inkscape="http://www.inkscape.org/namespaces/inkscape"
   xmlns:sodipodi="http://sodipodi.sourceforge.net/DTD/sodipodi-0.dtd"
   xmlns="http://www.w3.org/2000/svg"
   xmlns:svg="http://www.w3.org/2000/svg">
  <defs
     id="defs15" />
  <sodipodi:namedview
     id="namedview15"
     pagecolor="#ffffff"
     bordercolor="#000000"
     borderopacity="0.25"
     inkscape:showpageshadow="2"
     inkscape:pageopacity="0.0"
     inkscape:pagecheckerboard="0"
     inkscape:deskcolor="#d1d1d1"
     inkscape:document-units="pt"
     inkscape:zoom="1.4195169"
     inkscape:cx="80.309014"
     inkscape:cy="114.47557"
     inkscape:window-width="1862"
     inkscape:window-height="1011"
     inkscape:window-x="0"
     inkscape:window-y="0"
     inkscape:window-maximized="1"
     inkscape:current-layer="svg15" />
  <path
     d="M 70.441718,4.4745024 59.137801,14.231401 v 1.357554 h 22.596782 v -1.357554 z"
     fill="#4c4c4c"
     id="path1"
     style="stroke-width:0.0552705" />
  <path
     d="m 74.355429,57.453962 h 2.207385 v 3.520895 h -2.207385 z"
     fill="#4c4c4c"
     id="path2"
     style="stroke-width:0.0552705" />
  <path
     d="m 74.355429,45.613919 h 2.207385 v 3.520895 h -2.207385 z"
     fill="#4c4c4c"
     id="path3"
     style="stroke-width:0.0552705" />
  <path
     d="m 74.355429,33.776637 h 2.207385 v 3.520898 h -2.207385 z"
     fill="#4c4c4c"
     id="path4"
     style="stroke-width:0.0552705" />
  <path
     d="M 61.447001,17.335326 H 79.440307 V 26.95239 H 61.447001 Z"
     fill="#4c4c4c"
     id="path5"
     style="stroke-width:0.0552705" />
  <path
     d="M 76.555186,28.688436 H 64.484669 v 36.898577 h 12.070517 v -2.857647 h -3.044182 c -0.497435,0 -0.901572,-0.404168 -0.901572,-0.901574 v -5.199737 c 0,-0.497433 0.40416,-0.901574 0.901572,-0.901574 h 3.044182 v -4.834453 h -3.044182 c -0.497435,0 -0.901572,-0.404165 -0.901572,-0.901573 V 44.79072 c 0,-0.497436 0.40416,-0.901573 0.901572,-0.901573 h 3.044182 v -4.834454 h -3.044182 c -0.497435,0 -0.901572,-0.404167 -0.901572,-0.901572 v -5.199737 c 0,-0.497435 0.40416,-0.901572 0.901572,-0.901572 h 3.044182 z"
     fill="#4c4c4c"
     id="path6"
     style="stroke-width:0.0552705" />
  <path
     d="m 62.747515,33.118366 h -5.658593 v 1.101099 c 0,0.484479 -0.391208,0.867912 -0.867912,0.867912 -0.484477,0 -0.867912,-0.39121 -0.867912,-0.867912 v -1.101099 h -4.357746 v 1.101099 c 0,0.484479 -0.391208,0.867912 -0.867912,0.867912 -0.4767,0 -0.867912,-0.39121 -0.867912,-0.867912 v -1.101099 h -3.17634 v 4.178948 h 16.674553 l -0.0024,-4.178948 z"
     fill="#4c4c4c"
     id="path7"
     style="stroke-width:0.0552705" />
  <path
     d="m 42.119465,43.220154 h 20.62805 V 39.041208 H 46.067989 v 0.901569 c 0,0.590733 -0.484479,1.075178 -1.075177,1.075178 h -2.870639 z"
     fill="#4c4c4c"
     id="path8"
     style="stroke-width:0.0552705" />
  <path
     d="m 44.329179,28.517098 h -2.865443 v 5.505438 c 0,0.590731 -0.484479,1.075177 -1.075177,1.075177 h -4.19713 c -0.590731,0 -1.075177,-0.484479 -1.075177,-1.075177 v -5.505438 h -6.811536 v 5.505438 c 0,0.590731 -0.484478,1.075177 -1.075176,1.075177 l -4.19713,-0.0026 c -0.590731,0 -1.075177,-0.484479 -1.075177,-1.075178 v -5.505458 l -2.85765,0.0026 V 39.26887 h 25.229319 z"
     fill="#4c4c4c"
     id="path9"
     style="stroke-width:0.0552705" />
  <path
     d="M 40.375681,65.585355 V 41.011543 H 23.04562 V 65.585355 Z M 27.880129,44.095084 c 0,-0.484479 0.398986,-0.880899 0.880901,-0.880899 h 5.238592 c 0.484479,0 0.880901,0.398987 0.880901,0.880899 v 19.034605 c 0,0.497433 -0.404165,0.901572 -0.901572,0.901572 h -5.199737 c -0.497435,0 -0.901572,-0.404167 -0.901572,-0.901572 z"
     fill="#4c4c4c"
     id="path10"
     style="stroke-width:0.0552705" />
  <path
     d="m 19.100136,67.320851 h 62.063231 v 2.857647 H 19.100136 Z"
     fill="#4c4c4c"
     id="path11"
     style="stroke-width:0.0552705" />
  <path
     d="m 52.042175,50.893907 c -2.984605,0.199493 -5.318899,2.79807 -5.318899,5.922785 v 8.770321 h 11.415012 v -9.000247 c 0,-1.525962 -0.590729,-2.958685 -1.671047,-4.031315 -1.160681,-1.163281 -2.772146,-1.772084 -4.425066,-1.660714 z"
     fill="#4c4c4c"
     id="path12"
     style="stroke-width:0.0552705" />
  <path
     d="M 62.747515,65.585355 V 44.957304 h -20.62805 v 20.628051 h 2.865443 v -8.770321 c 0,-4.039056 3.051981,-7.40956 6.943633,-7.666568 2.147754,-0.145087 4.251514,0.650313 5.769683,2.16334 1.406803,1.406803 2.181474,3.277377 2.181474,5.267112 l 0.0024,9.005776 z"
     fill="#4c4c4c"
     id="path13"
     style="stroke-width:0.0552705" />
  <path
     d="m 29.623913,44.958411 h 3.520896 v 8.78027 h -3.520896 z"
     fill="#4c4c4c"
     id="path14"
     style="stroke-width:0.0552705" />
  <path
     d="m 29.623913,55.484676 h 3.520896 v 6.811533 h -3.520896 z"
     fill="#4c4c4c"
     id="path15"
     style="stroke-width:0.0552705" />
</svg>
