<?xml version="1.0" encoding="UTF-8" standalone="no"?>
<svg
   width="128"
   height="100"
   version="1.1"
   viewBox="0 0 96 75"
   id="svg3"
   sodipodi:docname="details.svg"
   inkscape:version="1.4.2 (ebf0e940d0, 2025-05-08)"
   xmlns:inkscape="http://www.inkscape.org/namespaces/inkscape"
   xmlns:sodipodi="http://sodipodi.sourceforge.net/DTD/sodipodi-0.dtd"
   xmlns="http://www.w3.org/2000/svg"
   xmlns:svg="http://www.w3.org/2000/svg">
  <defs
     id="defs3" />
  <sodipodi:namedview
     id="namedview3"
     pagecolor="#ffffff"
     bordercolor="#000000"
     borderopacity="0.25"
     inkscape:showpageshadow="2"
     inkscape:pageopacity="0.0"
     inkscape:pagecheckerboard="0"
     inkscape:deskcolor="#d1d1d1"
     inkscape:document-units="pt"
     inkscape:zoom="1.4760854"
     inkscape:cx="296.7308"
     inkscape:cy="175.80284"
     inkscape:window-width="1920"
     inkscape:window-height="1043"
     inkscape:window-x="0"
     inkscape:window-y="0"
     inkscape:window-maximized="1"
     inkscape:current-layer="svg3" />
  <path
     d="m 42.356181,38.219541 c 0,-3.614814 -2.991587,-6.606194 -6.606196,-6.606194 h -6.980126 c -3.614815,0 -6.606196,2.991587 -6.606196,6.606194 v 21.812906 c 0,3.614811 2.991587,6.606192 6.606196,6.606192 h 6.980126 c 3.614815,0 6.606196,-2.991587 6.606196,-6.606192 v -6.980129 h 2.243563 V 45.075026 H 42.356181 Z M 30.764184,62.649992 c -0.498665,0.498661 -1.246456,0.498661 -1.745138,0 l -2.866578,-2.866786 c -0.498665,-0.498664 -0.498665,-1.246452 0,-1.745136 0.498657,-0.498662 1.246448,-0.498662 1.745131,0 l 2.866783,2.866787 c 0.498467,0.498663 0.498467,1.246662 -1.98e-4,1.745135 z m 0,-5.609031 c -0.498665,0.498662 -1.246456,0.498662 -1.745138,0 l -2.866792,-2.866787 c -0.498665,-0.498662 -0.498665,-1.246451 0,-1.745135 0.498665,-0.498663 1.246456,-0.498663 1.745139,0 l 2.866791,2.866787 c 0.498657,0.498662 0.498657,1.246656 0,1.745135 z m 0,-5.609032 c -0.498665,0.498663 -1.246456,0.498663 -1.745138,0 l -2.866578,-2.866786 c -0.498665,-0.498663 -0.498665,-1.246452 0,-1.745135 0.498657,-0.498668 1.246448,-0.498668 1.745131,0 l 2.866783,2.866787 c 0.498467,0.498662 0.498467,1.371198 -1.98e-4,1.745134 z m 0,-5.484389 c -0.498665,0.498663 -1.246456,0.498663 -1.745138,0 l -2.866792,-2.866787 c -0.498665,-0.498662 -0.498665,-1.246451 0,-1.745135 0.498665,-0.498664 1.246456,-0.498664 1.745139,0 l 2.866791,2.866788 c 0.498657,0.373894 0.498657,1.246451 0,1.745134 z m 0,-5.609031 c -0.498665,0.498663 -1.246456,0.498663 -1.745138,0 l -2.866578,-2.991588 c -0.498665,-0.498664 -0.498665,-1.246452 0,-1.745136 0.498657,-0.498665 1.246448,-0.498665 1.745131,0 l 2.866783,2.866786 c 0.498467,0.623434 0.498467,1.371201 -1.98e-4,1.869885 z m 7.727995,19.444644 -2.866792,2.866786 c -0.498656,0.498671 -1.246448,0.498671 -1.74513,0 -0.498665,-0.498662 -0.498665,-1.246451 0,-1.745134 l 2.866783,-2.866787 c 0.498665,-0.498662 1.246457,-0.498662 1.745139,0 0.498665,0.498663 0.498665,1.246451 0,1.745135 z m 0,-5.609031 -2.866792,2.866787 c -0.498656,0.498662 -1.246448,0.498662 -1.74513,0 -0.498665,-0.498663 -0.498665,-1.246452 0,-1.745136 l 2.866783,-2.866786 c 0.498665,-0.498663 1.246457,-0.498663 1.745139,0 0.498665,0.498662 0.498665,1.246451 0,1.745135 z m 0,-5.609032 -2.866792,2.866787 c -0.498656,0.498663 -1.246448,0.498663 -1.74513,0 -0.498665,-0.498662 -0.498665,-1.246451 0,-1.745135 l 2.866783,-2.866787 c 0.498665,-0.498668 1.246457,-0.498668 1.745139,0 0.498665,0.498662 0.498665,1.246451 0,1.745135 z m 0,-5.609031 -2.866792,2.991587 c -0.498656,0.498662 -1.246448,0.498662 -1.74513,0 -0.498665,-0.498663 -0.498665,-1.246452 0,-1.745136 l 2.866783,-2.866788 c 0.498665,-0.498664 1.246457,-0.498664 1.745139,0 0.498665,0.373896 0.498665,1.121701 0,1.620337 z m 0,-5.609034 -2.866792,2.991587 c -0.498656,0.498664 -1.246448,0.498664 -1.74513,0 -0.498665,-0.498664 -0.498665,-1.246451 0,-1.745136 L 36.74704,35.72669 c 0.498665,-0.498665 1.246457,-0.498665 1.745139,0 0.498665,0.373894 0.498665,1.121702 0,1.620335 z"
     fill="#4c4c4c"
     id="path1"
     style="stroke-width:0.0519355" />
  <path
     d="m 70.401343,45.199672 h -2.866792 v -3.365475 c 0,-1.745134 -1.495789,-3.240669 -3.24067,-3.240669 h -0.997107 l 3.24067,-0.99711 c 0.498665,-0.124561 0.87257,-0.623225 0.87257,-1.246451 0,-0.498664 -0.373896,-0.99711 -0.87257,-1.246452 l -3.490217,-0.997109 3.490011,-1.121911 c 0.498665,-0.124561 0.87257,-0.623225 0.87257,-1.246451 0,-0.498663 -0.373896,-0.99711 -0.87257,-1.246452 l -3.490011,-0.997109 3.490011,-1.121911 c 0.498665,-0.124562 0.87257,-0.623225 0.87257,-1.246452 0,-0.498663 -0.373896,-0.997109 -0.87257,-1.24645 l -3.490011,-0.997111 3.490011,-1.12191 c 0.498665,-0.124562 0.87257,-0.623225 0.87257,-1.246451 0,-0.498664 -0.373896,-0.997109 -0.87257,-1.246452 l -3.490011,-0.87236 3.490011,-1.121911 c 0.498665,-0.124562 0.87257,-0.623225 0.87257,-1.246451 0,-0.498664 -0.373896,-0.99711 -0.87257,-1.246452 l -3.24067,-0.99711 h 0.997115 c 1.869677,0 3.240671,-1.495793 3.240671,-3.24067 V 9.3019152 c 0,-0.747768 -0.623229,-1.246453 -1.246457,-1.246453 h -7.478714 c -0.747766,0 -1.246448,0.498664 -1.246448,1.246453 v 3.2406688 c 0,0.872569 0.249333,1.495794 0.747766,2.11902 -0.373896,0.249332 -0.623228,0.623226 -0.623228,1.12191 0,0.498664 0.373895,0.99711 0.872569,1.246452 l 3.490012,1.12191 -3.490012,1.121911 c -0.498665,0.124562 -0.872569,0.623226 -0.872569,1.12191 0,0.498664 0.373895,0.997109 0.872569,1.246452 l 3.490012,1.12191 -3.490012,1.12191 c -0.498665,0.124562 -0.872569,0.623227 -0.872569,1.246452 0,0.498664 0.373895,0.99711 0.872569,1.246452 l 3.490012,1.12191 -3.490012,1.121911 c -0.498665,0.124562 -0.872569,0.623226 -0.872569,1.246451 0,0.498664 0.373895,0.99711 0.872569,1.246452 l 3.490012,1.12191 -3.490012,1.121911 c -0.498665,0.124562 -0.872569,0.623226 -0.872569,1.12191 0,0.498664 0.373895,0.997109 0.872569,1.246452 l 3.490012,1.12191 -3.490012,1.12191 c -0.498665,0.124562 -0.872569,0.623227 -0.872569,1.246452 0,0.498664 0.249332,0.872568 0.623228,1.121911 -0.498665,0.623226 -0.747766,1.246451 -0.747766,2.119022 v 3.365469 h -2.119017 v 7.977293 h 14.957419 c 0.747766,0 1.370994,-0.623226 1.370994,-1.370994 v -5.110347 c 0,-1.497197 -0.623022,-2.120423 -1.37084,-2.120423 z"
     fill="#4c4c4c"
     id="path2"
     style="stroke-width:0.0519355" />
  <path
     d="m 50.084184,40.463153 c -1.620335,0 -2.991595,1.370991 -2.991595,2.99159 v 11.467352 c 0,1.620335 1.370994,2.991591 2.991595,2.991591 1.620336,0 2.991587,-1.370993 2.991587,-2.991591 V 43.454743 c -0.124563,-1.620546 -1.370994,-2.99159 -2.991587,-2.99159 z"
     fill="#4c4c4c"
     id="path3"
     style="stroke-width:0.0519355" />
</svg>
