<?xml version="1.0" encoding="UTF-8" standalone="no"?>
<svg
   width="1200pt"
   height="1200pt"
   version="1.1"
   viewBox="0 0 1200 1200"
   id="svg1"
   sodipodi:docname="dressing.svg"
   inkscape:version="1.4.2 (ebf0e940d0, 2025-05-08)"
   xmlns:inkscape="http://www.inkscape.org/namespaces/inkscape"
   xmlns:sodipodi="http://sodipodi.sourceforge.net/DTD/sodipodi-0.dtd"
   xmlns="http://www.w3.org/2000/svg"
   xmlns:svg="http://www.w3.org/2000/svg">
  <defs
     id="defs1" />
  <sodipodi:namedview
     id="namedview1"
     pagecolor="#ffffff"
     bordercolor="#000000"
     borderopacity="0.25"
     inkscape:showpageshadow="2"
     inkscape:pageopacity="0.0"
     inkscape:pagecheckerboard="true"
     inkscape:deskcolor="#d1d1d1"
     inkscape:document-units="pt"
     inkscape:zoom="0.2609375"
     inkscape:cx="1214.8503"
     inkscape:cy="894.8503"
     inkscape:window-width="1862"
     inkscape:window-height="1011"
     inkscape:window-x="0"
     inkscape:window-y="0"
     inkscape:window-maximized="1"
     inkscape:current-layer="svg1" />
  <path
     d="m348.05 831.45c13.594-13.594 27.188-27.188 40.664-40.664 32.227-32.227 64.336-64.336 96.562-96.562 38.789-38.789 77.578-77.578 116.48-116.48 33.047-33.047 66.211-66.211 99.258-99.258 15.117-15.117 30.117-30.352 45.352-45.352 3.2812-3.2812 6.7969-6.3281 10.43-9.1406-3.5156 2.6953-7.1484 5.5078-10.664 8.2031 6.6797-4.9219 13.711-9.1406 21.328-12.422-4.2188 1.7578-8.4375 3.5156-12.539 5.2734 8.5547-3.5156 17.344-5.8594 26.367-7.1484-4.6875 0.58594-9.375 1.2891-14.062 1.875 8.5547-1.0547 16.992-1.0547 25.547 0-4.6875-0.58594-9.375-1.2891-14.062-1.875 9.1406 1.2891 17.93 3.6328 26.367 7.1484-4.2188-1.7578-8.4375-3.5156-12.539-5.2734 7.6172 3.2812 14.766 7.3828 21.328 12.422-3.5156-2.6953-7.1484-5.5078-10.664-8.2031 7.2656 5.625 13.594 11.953 19.219 19.219-2.6953-3.5156-5.5078-7.1484-8.2031-10.664 4.9219 6.6797 9.1406 13.711 12.422 21.328-1.7578-4.2188-3.5156-8.4375-5.2734-12.539 3.5156 8.5547 5.8594 17.344 7.1484 26.367-0.58594-4.6875-1.2891-9.375-1.875-14.062 1.0547 8.5547 1.0547 16.992 0 25.547 0.58594-4.6875 1.2891-9.375 1.875-14.062-1.2891 9.1406-3.6328 17.93-7.1484 26.367 1.7578-4.2188 3.5156-8.4375 5.2734-12.539-3.2812 7.6172-7.3828 14.766-12.422 21.328 2.6953-3.5156 5.5078-7.1484 8.2031-10.664-5.2734 6.9141-11.602 12.891-17.695 18.984-9.2578 9.2578-18.633 18.633-27.891 27.891-31.406 31.406-62.93 62.93-94.336 94.336-38.789 38.789-77.578 77.578-116.25 116.25l-101.25 101.25c-16.406 16.406-33.164 32.578-49.336 49.336-0.23437 0.23438-0.46875 0.46875-0.70312 0.70312l74.531 74.531c2.5781-2.5781 5.2734-5.2734 7.8516-7.8516 9.6094-9.6094 15.469-23.789 15.469-37.266 0-12.891-5.7422-28.359-15.469-37.266-10.078-9.2578-23.203-16.055-37.266-15.469-14.062 0.58594-27.188 5.3906-37.266 15.469-5.7422 5.625-11.719 10.898-17.93 15.82 3.5156-2.6953 7.1484-5.5078 10.664-8.2031-12.773 9.8438-26.602 17.93-41.484 24.141 4.2188-1.7578 8.4375-3.5156 12.539-5.2734-15 6.2109-30.703 10.547-46.758 12.773 4.6875-0.58594 9.375-1.2891 14.062-1.875-17.109 2.2266-34.219 2.2266-51.328 0 4.6875 0.58594 9.375 1.2891 14.062 1.875-16.055-2.3438-31.758-6.5625-46.758-12.773 4.2188 1.7578 8.4375 3.5156 12.539 5.2734-14.766-6.3281-28.711-14.414-41.484-24.141 3.5156 2.6953 7.1484 5.5078 10.664 8.2031-12.656-9.8438-23.906-21.211-33.867-33.867 2.6953 3.5156 5.5078 7.1484 8.2031 10.664-9.8438-12.773-17.93-26.602-24.141-41.484 1.7578 4.2188 3.5156 8.4375 5.2734 12.539-6.2109-15-10.547-30.703-12.773-46.758 0.58594 4.6875 1.2891 9.375 1.875 14.062-2.2266-17.109-2.2266-34.219 0-51.328-0.58594 4.6875-1.2891 9.375-1.875 14.062 2.3438-16.055 6.5625-31.758 12.773-46.758-1.7578 4.2188-3.5156 8.4375-5.2734 12.539 6.3281-14.766 14.414-28.711 24.141-41.484-2.6953 3.5156-5.5078 7.1484-8.2031 10.664 14.883-19.102 33.633-35.859 50.742-52.969l312.07-312.07c14.414-14.414 28.594-28.945 43.125-43.125 7.3828-7.1484 15.117-13.945 23.203-20.273-3.5156 2.6953-7.1484 5.5078-10.664 8.2031 18.867-14.648 39.492-26.719 61.523-35.977-4.2188 1.7578-8.4375 3.5156-12.539 5.2734 22.031-9.1406 45.117-15.469 68.672-18.75-4.6875 0.58594-9.375 1.2891-14.062 1.875 24.609-3.2812 49.336-3.2812 73.945 0-4.6875-0.58594-9.375-1.2891-14.062-1.875 23.672 3.2812 46.641 9.6094 68.672 18.75-4.2188-1.7578-8.4375-3.5156-12.539-5.2734 22.031 9.2578 42.656 21.328 61.523 35.977-3.5156-2.6953-7.1484-5.5078-10.664-8.2031 18.047 14.062 34.219 30.352 48.398 48.398-2.6953-3.5156-5.5078-7.1484-8.2031-10.664 14.648 18.867 26.719 39.492 35.977 61.523-1.7578-4.2188-3.5156-8.4375-5.2734-12.539 9.1406 22.031 15.469 45.117 18.75 68.672-0.58594-4.6875-1.2891-9.375-1.875-14.062 3.2812 24.609 3.2812 49.336 0 73.945 0.58594-4.6875 1.2891-9.375 1.875-14.062-3.2812 23.672-9.6094 46.641-18.75 68.672 1.7578-4.2188 3.5156-8.4375 5.2734-12.539-9.2578 22.031-21.328 42.656-35.977 61.523 2.6953-3.5156 5.5078-7.1484 8.2031-10.664-16.172 20.625-35.625 38.672-54.141 57.07-31.055 31.055-62.109 62.109-93.047 93.047-38.906 38.906-77.93 77.93-116.84 116.84-34.336 34.336-68.672 68.672-103.12 103.12-16.758 16.758-33.867 33.398-50.391 50.391-0.23437 0.23438-0.46875 0.46875-0.70312 0.70313-9.6094 9.6094-15.469 23.789-15.469 37.266 0 12.891 5.7422 28.359 15.469 37.266 10.078 9.2578 23.203 16.055 37.266 15.469 13.945-0.58594 27.188-5.3906 37.266-15.469 8.9062-8.9062 17.695-17.695 26.602-26.602 22.266-22.266 44.648-44.648 66.914-66.914 29.648-29.648 59.297-59.297 89.062-89.062 30.586-30.586 61.172-61.172 91.641-91.641 25.43-25.43 50.977-50.977 76.406-76.406 13.945-13.945 27.891-27.891 41.953-41.953 37.031-37.031 64.688-80.742 81.68-130.31 11.25-32.695 16.758-68.32 16.758-102.89 0-34.336-5.3906-69.609-16.406-102.19-24.375-71.602-71.953-132.77-135.82-173.44-29.18-18.633-62.344-32.578-95.977-40.547-33.398-7.9688-68.672-11.25-102.89-8.0859-19.336 1.875-38.906 4.6875-57.773 9.6094s-37.031 12.188-54.844 20.156c-32.227 14.414-61.992 35.625-87.539 60.117-10.078 9.6094-19.805 19.688-29.648 29.648l-360.59 360.59c-43.711 43.711-69.141 101.72-71.484 163.48-1.5234 39.023 7.9688 77.109 24.258 112.27 16.758 36.211 44.18 65.508 75.586 89.18 12.422 9.375 25.781 17.109 40.078 23.203 18.047 7.7344 35.977 14.414 55.43 17.578 38.438 6.2109 77.461 5.3906 114.84-6.5625 36.914-11.836 70.43-31.992 97.969-59.297l-74.531-74.531c-2.5781 2.5781-5.2734 5.2734-7.8516 7.8516-9.6094 9.6094-15.469 23.789-15.469 37.266 0 12.891 5.7422 28.359 15.469 37.266 10.078 9.2578 23.203 16.055 37.266 15.469 13.945-0.58594 27.188-5.3906 37.266-15.469l50.625-50.625c38.789-38.789 77.695-77.695 116.48-116.48l129.38-129.38c29.766-29.766 59.414-59.414 89.18-89.18 5.5078-5.5078 11.25-10.898 16.523-16.641 9.9609-11.133 19.219-23.438 25.43-37.031 3.6328-7.9688 7.2656-16.289 9.8438-24.727 2.8125-9.6094 3.9844-19.805 5.1562-29.766 3.3984-29.531-4.2188-59.883-17.812-86.016-13.359-25.547-36.797-48.75-62.461-61.758-13.359-6.6797-27.656-12.656-42.539-14.883-9.1406-1.4062-18.398-2.8125-27.539-3.0469-9.8438-0.11719-19.57 1.4062-29.18 2.8125-32.227 4.6875-61.172 22.617-83.906 45.352-23.789 23.789-47.578 47.578-71.484 71.484-41.484 41.484-82.969 82.969-124.45 124.45-41.484 41.484-83.203 83.555-124.69 125.04l-74.883 74.883c-9.6094 9.6094-15.469 23.789-15.469 37.266 0 12.891 5.7422 28.359 15.469 37.266 10.078 9.2578 23.203 16.055 37.266 15.469 14.062-0.70312 27.305-5.3906 37.383-15.469z"
     fill="#fff"
     id="path1"
     style="fill:#ffffff;fill-opacity:1" />
</svg>
