<?xml version="1.0" encoding="UTF-8" standalone="no"?>
<svg
   width="120pt"
   height="100pt"
   version="1.1"
   viewBox="0 0 120 100"
   id="svg9"
   sodipodi:docname="dryland.svg"
   inkscape:version="1.4.2 (ebf0e940d0, 2025-05-08)"
   xmlns:inkscape="http://www.inkscape.org/namespaces/inkscape"
   xmlns:sodipodi="http://sodipodi.sourceforge.net/DTD/sodipodi-0.dtd"
   xmlns="http://www.w3.org/2000/svg"
   xmlns:svg="http://www.w3.org/2000/svg">
  <defs
     id="defs9" />
  <sodipodi:namedview
     id="namedview9"
     pagecolor="#ffffff"
     bordercolor="#000000"
     borderopacity="0.25"
     inkscape:showpageshadow="2"
     inkscape:pageopacity="0.0"
     inkscape:pagecheckerboard="0"
     inkscape:deskcolor="#d1d1d1"
     inkscape:document-units="pt"
     inkscape:zoom="1.4195169"
     inkscape:cx="57.766133"
     inkscape:cy="120.11129"
     inkscape:window-width="1862"
     inkscape:window-height="1011"
     inkscape:window-x="0"
     inkscape:window-y="0"
     inkscape:window-maximized="1"
     inkscape:current-layer="svg9" />
  <path
     d="m 63.069052,67.517563 c -0.0891,-0.22278 -0.73666,-2.06442 -1.7941,-5.06752 l -0.71587,-2.03769 c -0.412884,-1.18816 -1.535677,-1.90999 -2.73873,-1.83274 0.332689,0.38912 0.600026,0.84654 0.778233,1.36046 l 0.760423,2.16543 c 0.769356,2.19218 1.642644,4.6754 1.722864,4.87742 0.0208,0.0505 0.0446,0.11584 0.0683,0.17823 0.67728,0.0861 1.3367,0.24357 1.96341,0.4812 -0.0149,-0.0416 -0.0327,-0.0921 -0.0446,-0.12476 z"
     fill="#4c4c4c"
     id="path1"
     style="stroke-width:0.0633688" />
  <path
     d="m 49.657084,58.003403 c -0.03862,-0.27031 -0.210897,-0.4218 -0.311895,-0.49012 -0.127726,-0.0861 -0.273278,-0.12773 -0.421794,-0.12773 -0.05941,0 -0.121788,0.006 -0.181199,0.0238 l -0.353475,0.0891 c -0.01188,0.003 -0.02079,0.0119 -0.03565,0.0178 -0.02079,0.006 -0.04158,0.003 -0.05941,0.009 l -3.656557,0.93272 c -0.0059,0 -0.0089,0.006 -0.01485,0.006 -0.0089,0.003 -0.01485,0 -0.02376,0.003 l -0.368331,0.0951 c -0.20496,0.0505 -0.38021,0.19308 -0.478234,0.38318 -0.05644,0.10694 -0.13367,0.32378 -0.03862,0.57923 1.479277,4.09026 3.989246,7.28613 4.951686,7.01618 0.917833,-0.23466 1.538652,-3.64174 1.110917,-7.5358 0,-0.003 -0.0028,-0.006 -0.0059,-0.0119 -0.0059,-0.0297 0,-0.0564 -0.0028,-0.0832 -0.03268,-0.29407 -0.07129,-0.59111 -0.118817,-0.89109 0.0089,-0.009 0.0089,-0.0119 0.0089,-0.0148 z"
     fill="#4c4c4c"
     id="path2"
     style="stroke-width:0.0633688" />
  <path
     d="m 44.964003,56.889383 2.340709,-0.59706 -5.224932,-20.511148 -2.364409,0.602989 z"
     fill="#4c4c4c"
     id="path3"
     style="stroke-width:0.0633688" />
  <path
     d="m 34.936554,27.613081 7.120098,-1.817919 c 0.374266,-0.09505 0.689131,-0.329713 0.888174,-0.662392 0.199015,-0.329713 0.255451,-0.715875 0.160398,-1.087152 -0.169313,-0.653457 -0.760423,-1.09013 -1.40501,-1.09013 -0.118814,0 -0.237632,0.01485 -0.35942,0.04456 l -7.116928,1.817919 c -0.76638,0.19605 -1.229732,0.986143 -1.033669,1.758479 0.19605,0.76638 0.989121,1.23271 1.746566,1.036648 z"
     fill="#4c4c4c"
     id="path4"
     style="stroke-width:0.0633688" />
  <path
     d="m 91.041862,85.565583 c 0.0594,-0.14258 0.22277,-0.63863 -0.19308,-1.06339 -0.38913,-0.401 -0.81987,-0.75149 -1.32181,-1.07233 -0.31189,-0.19901 -0.42179,-0.60299 -0.24951,-0.93272 0.70098,-1.36046 0.97429,-2.80108 0.81391,-4.28334 -0.30893,-2.91394 -2.4179,-5.44178 -5.24572,-6.29428 -0.37131,-0.10099 -0.78121,-0.17822 -1.19114,-0.23168 -2.71199,-0.30892 -5.31403,0.83469 -6.91225,3.07731 -0.11882,0.16336 -0.30001,0.27327 -0.502,0.29703 -0.20793,0.0208 -0.40398,-0.0416 -0.55547,-0.17228 -2.12975,-1.87134 -5.34672,-2.32284 -7.82412,-1.19114 -0.18119,0.0832 -0.38912,0.0861 -0.57329,0.009 -0.18417,-0.0772 -0.32971,-0.22575 -0.39803,-0.41586 -0.86739,-2.36149 -2.88428,-4.09025 -5.29622,-4.61602 0.42774,2.05257 0.43665,5.26061 -2.432785,7.99648 0.552497,0.35051 0.894068,0.62379 0.947552,0.66835 0.302973,0.25249 0.347533,0.70396 0.09505,1.00997 -0.252484,0.30298 -0.703962,0.34754 -1.009969,0.098 -0.06831,-0.0564 -0.638628,-0.51388 -1.57433,-1.01586 -0.0059,-0.003 -0.01485,0 -0.02376,-0.006 -1.416861,-0.75148 -3.909084,-1.71691 -6.826068,-1.32776 -0.0297,0.003 -0.06238,0.0119 -0.09208,0.0148 -0.395067,0.0564 -0.801997,0.14853 -1.208949,0.25843 -0.127725,0.0356 -0.255451,0.0683 -0.383184,0.1099 -0.392092,0.12179 -0.790142,0.27625 -1.191139,0.45448 -0.06832,0.0297 -0.13367,0.0505 -0.201989,0.0832 -0.938616,0.44556 -1.868359,0.82576 -2.777319,1.16142 -0.03564,0.0148 -0.07426,0.0267 -0.109906,0.0386 -5.522004,2.0169 -10.173831,2.18026 -10.402591,2.18621 h -0.02079 c -0.386156,0 -0.706941,-0.30892 -0.718854,-0.69508 -0.01188,-0.39507 0.300013,-0.72773 0.695091,-0.73964 0.03862,0 2.509967,-0.0862 5.92598,-0.89704 -1.725782,-1.88326 -2.180262,-4.17935 -2.293185,-5.18932 -0.01485,-0.11882 -0.142579,-0.92379 -0.323775,-2.04662 -0.597053,-0.0327 -1.197097,-0.0178 -1.791178,0.0921 -2.20998,0.38912 -4.200135,1.87432 -5.195212,3.87341 -1.081195,2.18621 -1.063389,4.75264 0.0505,6.86471 0.175253,0.33269 0.06535,0.74262 -0.252486,0.9416 -0.828734,0.51685 -1.583201,1.24462 -2.126777,2.04662 -0.300012,0.42476 -0.145551,0.82873 -0.06535,0.98322 0.139608,0.26734 0.445558,0.5525 0.89109,0.5525 h 60.949213 c 0.60893,-0.009 0.8525,-0.48121 0.91491,-0.62675 z"
     fill="#4c4c4c"
     id="path5"
     style="stroke-width:0.0633688" />
  <path
     d="m 29.390532,25.260204 0.614872,2.403065 c 0.249514,0.980249 0.846542,1.820833 1.678255,2.367389 l 2.62289,1.752523 c 0.76638,0.525762 1.704996,0.760423 2.667438,0.67728 0.02079,0 0.04456,-0.0028 0.06535,-0.0028 0.323776,0 0.614872,0.219812 0.69509,0.540611 l 0.484175,1.889147 c 0.02376,0.09802 0.08911,0.184158 0.175252,0.234657 0.04456,0.02674 0.142579,0.05941 0.252486,0.04159 0.0059,-0.0028 0.0089,-0.0059 0.01485,-0.0089 0.02079,-0.0059 0.03862,0 0.05941,-0.0028 l 3.680323,-0.938616 c 0.204959,-0.05347 0.329714,-0.26437 0.279215,-0.469322 l -0.484175,-1.889146 c -0.08615,-0.341593 0.08614,-0.69509 0.409919,-0.837668 0.882219,-0.383184 1.598095,-1.045583 2.013919,-1.865446 l 1.473318,-2.801083 c 0.451503,-0.908959 0.57032,-1.936672 0.326744,-2.881307 l -0.6119,-2.39413 C 45.65944,20.487111 45.288141,19.991074 44.765357,19.679174 44.239595,19.36728 43.624724,19.281143 43.03362,19.432632 l -12.003282,3.062479 c -1.214903,0.311893 -1.951563,1.550566 -1.639663,2.765469 z m 4.479401,-1.832747 7.11693,-1.817919 c 1.535674,-0.392093 3.112982,0.540611 3.508023,2.079251 0.392092,1.535675 -0.543585,3.101134 -2.08223,3.493195 l -7.120098,1.820834 c -0.237632,0.05941 -0.478236,0.09208 -0.715875,0.09208 -0.507937,0 -1.009969,-0.136636 -1.461407,-0.403975 -0.656435,-0.392093 -1.125807,-1.015862 -1.315912,-1.758479 -0.392094,-1.541632 0.537644,-3.112983 2.070379,-3.505045 z"
     fill="#4c4c4c"
     id="path6"
     style="stroke-width:0.0633688" />
  <path
     d="m 59.947512,68.052393 c -0.0028,-0.0119 -0.0089,-0.0208 -0.01188,-0.0327 -0.06238,-0.18416 -0.124759,-0.35645 -0.184162,-0.502 -0.08911,-0.22278 -0.718854,-2.01094 -1.746565,-4.9368 l -0.763404,-2.16841 c -0.469319,-1.3545 -1.865442,-2.10599 -3.249605,-1.75252 l -2.741706,0.69509 c 0.261396,3.08326 0.157435,7.96417 -2.224808,8.56997 -0.148523,0.0386 -0.294068,0.0535 -0.442591,0.0535 -2.067403,0 -4.292211,-3.48426 -5.620037,-6.49909 l -2.729792,0.69509 c -1.369333,0.35051 -2.257508,1.70798 -2.022854,3.08624 0.246542,1.46439 0.534673,3.23776 0.769358,4.68732 v 0.006 c 0.234661,1.45254 0.415857,2.58126 0.436648,2.7476 0.106935,0.97132 0.564375,3.30309 2.477335,4.93977 0.04158,-0.0119 0.0802,-0.0238 0.121788,-0.0356 0.813903,-0.23169 1.618877,-0.49606 2.40902,-0.78717 0.05644,-0.0208 0.112873,-0.0386 0.169313,-0.0594 0.846544,-0.31784 1.678256,-0.66835 2.486204,-1.05154 0.08911,-0.0416 0.172287,-0.0624 0.258426,-0.101 0.415856,-0.18416 0.825753,-0.34457 1.229731,-0.47824 0.157431,-0.0505 0.311891,-0.0891 0.466355,-0.13366 0.37724,-0.10694 0.74851,-0.19309 1.116869,-0.25546 0.100998,-0.0178 0.201989,-0.0356 0.30298,-0.0505 3.032757,-0.4515 5.643734,0.38319 7.384343,1.24165 3.199104,-2.75356 2.697094,-6.11311 2.108972,-7.87735 z"
     fill="#4c4c4c"
     id="path7"
     style="stroke-width:0.0633688" />
  <path
     d="m 92.328242,86.186593 h 2.29318 c 0.60596,0 0.84952,-0.46932 0.91194,-0.61784 0.0594,-0.14259 0.22278,-0.63565 -0.19308,-1.06339 -0.39507,-0.40992 -0.82873,-0.75745 -1.32776,-1.06637 -0.31783,-0.19902 -0.42774,-0.60596 -0.25843,-0.93862 0.69807,-1.35748 0.97727,-2.7981 0.82874,-4.28929 -0.35051,-3.32686 -3.11596,-6.13091 -6.43065,-6.51683 -0.17525,-0.0208 -0.34754,-0.003 -0.52279,-0.009 2.13869,1.4436 3.61201,3.7843 3.88824,6.38058 0.16931,1.53276 -0.0713,3.08326 -0.69212,4.52395 0.38319,0.28219 0.73667,0.59408 1.05452,0.92081 0.68318,0.70098 0.8703,1.70798 0.48417,2.61991 -0.009,0.0178 -0.0267,0.0357 -0.0356,0.0564 z"
     fill="#4c4c4c"
     id="path8"
     style="stroke-width:0.0633688" />
  <path
     d="m 47.200913,20.724659 0.611901,2.39413 c 0.326744,1.277258 0.172287,2.658503 -0.439617,3.891213 l -1.479281,2.80704 c -0.472289,0.932721 -1.229731,1.716908 -2.165429,2.248572 l 0.341593,1.33074 c 0.184162,0.718854 -0.09505,1.440621 -0.641606,1.874318 l 5.275438,20.701261 c 0.501998,-0.0505 1.012883,0.0624 1.440621,0.3505 0.507936,0.3416 0.84654,0.87924 0.932721,1.47928 0.0059,0.0356 0.01188,0.0802 0.01485,0.11584 l 1.571352,-0.39803 c -0.0028,0 -0.0028,-0.003 -0.0059,-0.006 -0.178224,-0.11882 -0.395066,-0.15446 -0.59408,-0.101 l -0.371302,0.098 c -0.187133,0.0505 -0.383184,0.0238 -0.546556,-0.0743 -0.166343,-0.098 -0.285157,-0.25545 -0.332685,-0.44259 l -5.59333,-21.907038 c -0.09803,-0.380213 0.127726,-0.766382 0.504972,-0.870304 0.201985,-0.05644 0.323774,-0.261396 0.273275,-0.457447 l -0.475264,-1.904038 c -0.08317,-0.338626 0.08911,-0.692112 0.409919,-0.831712 0.879241,-0.383184 1.595113,-1.04558 2.016896,-1.865446 l 1.464386,-2.801081 c 0.451502,-0.914917 0.570316,-1.93965 0.32674,-2.872373 l -0.602989,-2.400086 c -0.15149,-0.588137 -0.525765,-1.087152 -1.051538,-1.399053 -0.463385,-0.276249 -0.9921,-0.365358 -1.514892,-0.279214 0.288131,0.383183 0.507939,0.831713 0.629728,1.318827 z"
     fill="#4c4c4c"
     id="path9"
     style="stroke-width:0.0633688" />
</svg>
