<?xml version="1.0" encoding="UTF-8" standalone="no"?>
<svg
   width="128"
   height="100"
   version="1.1"
   viewBox="0 0 96 75"
   id="svg9"
   sodipodi:docname="dryland.svg"
   inkscape:version="1.4.2 (ebf0e940d0, 2025-05-08)"
   xmlns:inkscape="http://www.inkscape.org/namespaces/inkscape"
   xmlns:sodipodi="http://sodipodi.sourceforge.net/DTD/sodipodi-0.dtd"
   xmlns="http://www.w3.org/2000/svg"
   xmlns:svg="http://www.w3.org/2000/svg">
  <defs
     id="defs9" />
  <sodipodi:namedview
     id="namedview9"
     pagecolor="#ffffff"
     bordercolor="#000000"
     borderopacity="0.25"
     inkscape:showpageshadow="2"
     inkscape:pageopacity="0.0"
     inkscape:pagecheckerboard="0"
     inkscape:deskcolor="#d1d1d1"
     inkscape:document-units="pt"
     inkscape:zoom="1.4195169"
     inkscape:cx="57.766132"
     inkscape:cy="63.754084"
     inkscape:window-width="1920"
     inkscape:window-height="1043"
     inkscape:window-x="0"
     inkscape:window-y="0"
     inkscape:window-maximized="1"
     inkscape:current-layer="svg9" />
  <path
     d="m 52.21534,53.490087 c -0.07488,-0.187218 -0.619069,-1.734882 -1.507713,-4.258605 l -0.601598,-1.712419 c -0.346976,-0.998498 -1.290541,-1.605104 -2.301554,-1.540185 0.279583,0.327006 0.504246,0.711409 0.654006,1.143293 l 0.639039,1.819769 c 0.646546,1.842248 1.380433,3.929078 1.447848,4.09885 0.01748,0.04244 0.03748,0.09735 0.0574,0.14978 0.569168,0.07236 1.123327,0.20469 1.649997,0.404387 -0.01252,-0.03496 -0.02748,-0.0774 -0.03748,-0.104845 z"
     fill="#4c4c4c"
     id="path1"
     style="stroke-width:0.0532534" />
  <path
     d="m 40.944288,45.494647 c -0.03246,-0.227161 -0.177232,-0.35447 -0.262108,-0.411884 -0.107338,-0.07236 -0.229656,-0.107341 -0.354465,-0.107341 -0.04993,0 -0.102347,0.005 -0.152274,0.02 l -0.297051,0.07488 c -0.01,0.0025 -0.01747,0.01 -0.02996,0.01496 -0.01747,0.005 -0.03494,0.0025 -0.04993,0.0076 l -3.072871,0.783833 c -0.005,0 -0.0075,0.005 -0.01248,0.005 -0.0075,0.0025 -0.01248,0 -0.01997,0.0025 l -0.309536,0.07992 c -0.172242,0.04244 -0.319518,0.162259 -0.401895,0.322014 -0.04743,0.08987 -0.112332,0.272096 -0.03246,0.486769 1.243144,3.437343 3.352454,6.123065 4.161262,5.896206 0.771322,-0.197202 1.293041,-3.060419 0.933585,-6.332881 0,-0.0025 -0.0024,-0.005 -0.005,-0.01 -0.005,-0.02496 0,-0.0474 -0.0024,-0.06992 -0.02746,-0.247128 -0.05991,-0.496753 -0.09985,-0.748848 0.0075,-0.0076 0.0075,-0.01 0.0075,-0.01244 z"
     fill="#4c4c4c"
     id="path2"
     style="stroke-width:0.0532534" />
  <path
     d="m 37.00035,44.558455 1.967068,-0.501753 -4.39089,-17.23701 -1.986985,0.506736 z"
     fill="#4c4c4c"
     id="path3"
     style="stroke-width:0.0532534" />
  <path
     d="m 28.573556,19.955449 5.983536,-1.52773 c 0.314523,-0.07988 0.579127,-0.277081 0.746397,-0.556656 0.167247,-0.277082 0.214674,-0.601602 0.134794,-0.913613 -0.142286,-0.549147 -0.639038,-0.916115 -1.180732,-0.916115 -0.09985,0 -0.199699,0.01248 -0.302047,0.03745 l -5.980872,1.527729 c -0.644045,0.164756 -1.033433,0.828728 -0.868667,1.477778 0.164755,0.644045 0.83123,1.035936 1.467766,0.871171 z"
     fill="#4c4c4c"
     id="path4"
     style="stroke-width:0.0532534" />
  <path
     d="m 75.722926,68.657151 c 0.04992,-0.11982 0.18721,-0.536687 -0.162259,-0.893644 -0.327014,-0.336989 -0.688996,-0.631532 -1.110813,-0.901157 -0.262104,-0.167242 -0.354461,-0.506736 -0.209681,-0.783832 0.589084,-1.143294 0.818766,-2.353951 0.683987,-3.599602 -0.259616,-2.448796 -2.031937,-4.573124 -4.40836,-5.289542 -0.312038,-0.08487 -0.656507,-0.149771 -1.001001,-0.194697 -2.279083,-0.259608 -4.465766,0.701451 -5.808866,2.586087 -0.09985,0.137284 -0.252121,0.229649 -0.421868,0.249616 -0.174738,0.01748 -0.339493,-0.03496 -0.466801,-0.144779 -1.789784,-1.572623 -4.493238,-1.952052 -6.575177,-1.001002 -0.152268,0.06992 -0.327006,0.07236 -0.481778,0.0076 -0.154771,-0.06488 -0.277079,-0.189715 -0.334493,-0.349478 -0.728931,-1.984532 -2.423871,-3.437334 -4.450799,-3.879177 0.359461,1.724924 0.366949,4.420873 -2.044446,6.720023 0.464303,0.29456 0.75135,0.524217 0.796297,0.561664 0.25461,0.212185 0.292057,0.591588 0.07988,0.848751 -0.212181,0.254616 -0.59159,0.292063 -0.84875,0.08236 -0.05741,-0.0474 -0.536686,-0.43185 -1.323024,-0.853701 -0.005,-0.0025 -0.01248,0 -0.01997,-0.005 -1.190692,-0.631605 -3.285088,-1.442926 -5.736442,-1.115895 -0.02496,0.0025 -0.05242,0.01 -0.07738,0.01244 -0.332003,0.0474 -0.673976,0.124821 -1.015967,0.217178 -0.107337,0.02992 -0.214674,0.0574 -0.322018,0.09236 -0.329503,0.102349 -0.664013,0.232153 -1.001,0.381932 -0.05741,0.02496 -0.112333,0.04244 -0.169746,0.06992 -0.788788,0.374437 -1.570118,0.693947 -2.333984,0.976026 -0.02995,0.01244 -0.06241,0.02244 -0.09236,0.03244 -4.640541,1.694948 -8.54981,1.832232 -8.742053,1.837232 h -0.01747 c -0.324515,0 -0.594094,-0.259608 -0.604105,-0.584127 -0.01,-0.332006 0.252123,-0.611564 0.584136,-0.621573 0.03245,0 2.109307,-0.07244 4.980031,-0.753848 -1.4503,-1.58264 -1.832232,-3.512211 -1.92713,-4.360963 -0.01248,-0.09985 -0.119819,-0.776328 -0.272091,-1.719923 -0.501747,-0.02748 -1.006008,-0.01496 -1.505257,0.0774 -1.857207,0.327006 -3.529679,1.575127 -4.365915,3.255108 -0.908607,1.837231 -0.893643,3.993989 0.04244,5.768915 0.147278,0.279584 0.05492,0.624078 -0.212182,0.791295 -0.696446,0.434347 -1.330479,1.045945 -1.787286,1.719924 -0.252122,0.356956 -0.122317,0.696442 -0.05492,0.826271 0.117323,0.224665 0.374435,0.464306 0.748848,0.464306 h 51.220056 c 0.511728,-0.0076 0.716417,-0.404396 0.768865,-0.526704 z"
     fill="#4c4c4c"
     id="path5"
     style="stroke-width:0.0532534" />
  <path
     d="m 23.91283,17.978155 0.516722,2.019471 c 0.209685,0.823774 0.711411,1.530178 1.41036,1.989489 l 2.204205,1.472772 c 0.644045,0.441836 1.432832,0.639039 2.241642,0.569168 0.01747,0 0.03745,-0.0024 0.05492,-0.0024 0.272093,0 0.516722,0.184724 0.584135,0.454315 l 0.406887,1.587587 c 0.01997,0.08237 0.07489,0.154762 0.147277,0.1972 0.03745,0.02247 0.11982,0.04993 0.212183,0.03495 0.005,-0.0024 0.0075,-0.005 0.01248,-0.0075 0.01747,-0.005 0.03245,0 0.04993,-0.0024 l 3.092843,-0.788787 c 0.172242,-0.04494 0.277083,-0.222169 0.234645,-0.394405 l -0.406888,-1.587587 c -0.0724,-0.287066 0.07239,-0.584135 0.344485,-0.703953 0.741393,-0.322018 1.342995,-0.87868 1.692442,-1.56767 l 1.238137,-2.353954 c 0.379431,-0.763865 0.479281,-1.627526 0.274586,-2.421372 l -0.514224,-2.011962 c -0.124814,-0.494254 -0.436844,-0.91111 -0.876177,-1.173222 -0.441836,-0.262107 -0.958557,-0.334494 -1.455305,-0.207187 l -10.087231,2.573624 c -1.020971,0.262106 -1.64004,1.303053 -1.377928,2.324024 z m 3.764367,-1.54019 5.980873,-1.52773 c 1.290539,-0.329504 2.616066,0.454315 2.948047,1.747346 0.329504,1.290539 -0.456814,2.606108 -1.749849,2.935586 l -5.983536,1.530179 c -0.1997,0.04993 -0.401897,0.07738 -0.601602,0.07738 -0.426856,0 -0.84875,-0.114826 -1.228127,-0.33949 -0.55165,-0.329504 -0.946097,-0.853703 -1.105856,-1.477778 -0.329505,-1.295545 0.451821,-2.616066 1.73989,-2.945544 z"
     fill="#4c4c4c"
     id="path6"
     style="stroke-width:0.0532534" />
  <path
     d="m 49.592083,53.939544 c -0.0024,-0.01 -0.0075,-0.01748 -0.01,-0.02748 -0.05242,-0.154763 -0.104844,-0.299551 -0.154765,-0.421867 -0.07489,-0.187219 -0.604105,-1.68994 -1.467765,-4.148753 l -0.641544,-1.822272 c -0.394403,-1.138285 -1.567667,-1.769817 -2.73088,-1.47277 l -2.304054,0.584135 c 0.21967,2.591087 0.132304,6.692871 -1.869668,7.201969 -0.124815,0.03244 -0.247127,0.04496 -0.371942,0.04496 -1.737389,0 -3.607057,-2.928077 -4.722926,-5.461657 l -2.294042,0.584134 c -1.15075,0.294559 -1.897149,1.43534 -1.699952,2.593592 0.207187,1.230634 0.449325,2.720925 0.646548,3.939096 v 0.005 c 0.197202,1.220675 0.349475,2.169221 0.366947,2.309008 0.08987,0.816271 0.474285,2.775827 2.081885,4.151248 0.03494,-0.01 0.0674,-0.02 0.102347,-0.02992 0.683982,-0.194706 1.36046,-0.416875 2.024475,-0.661516 0.04743,-0.01748 0.09486,-0.03244 0.142286,-0.04992 0.711412,-0.267104 1.41036,-0.561663 2.089338,-0.883686 0.07489,-0.03496 0.144785,-0.05244 0.217174,-0.08488 0.349474,-0.154764 0.69394,-0.289568 1.033432,-0.4019 0.132301,-0.04244 0.262105,-0.07488 0.391912,-0.112325 0.317022,-0.08987 0.629028,-0.162267 0.938586,-0.214681 0.08488,-0.01496 0.169747,-0.02992 0.254617,-0.04244 2.548646,-0.379428 4.74284,0.322022 6.2056,1.043449 2.68844,-2.314017 2.266564,-5.137291 1.772323,-6.61991 z"
     fill="#4c4c4c"
     id="path7"
     style="stroke-width:0.0532534" />
  <path
     d="m 76.803965,69.179031 h 1.927126 c 0.509232,0 0.713913,-0.394404 0.766369,-0.519216 0.04992,-0.119829 0.187219,-0.534183 -0.162259,-0.893644 -0.332006,-0.344486 -0.696442,-0.63654 -1.115813,-0.896148 -0.267096,-0.167251 -0.359461,-0.509232 -0.217178,-0.788791 0.586639,-1.140789 0.821272,-2.351447 0.696451,-3.604602 -0.294559,-2.795803 -2.618568,-5.15225 -5.404143,-5.476566 -0.147275,-0.01748 -0.292063,-0.0025 -0.439338,-0.0076 1.797296,1.213162 3.035434,3.180223 3.26757,5.362066 0.142284,1.288089 -0.05992,2.591087 -0.581638,3.801804 0.322022,0.237145 0.619077,0.499248 0.88619,0.773823 0.574125,0.589085 0.731376,1.43534 0.406883,2.201701 -0.0076,0.01496 -0.02244,0.03 -0.02992,0.0474 z"
     fill="#4c4c4c"
     id="path8"
     style="stroke-width:0.0532534" />
  <path
     d="m 38.880189,14.166607 0.514224,2.011962 c 0.274587,1.073372 0.144786,2.234133 -0.369442,3.270069 l -1.243147,2.35896 c -0.396899,0.783833 -1.033432,1.442842 -1.819768,1.889638 l 0.287066,1.118318 c 0.154765,0.604105 -0.07988,1.210658 -0.539188,1.575126 l 4.433334,17.396775 c 0.421865,-0.04244 0.851199,0.05244 1.210659,0.29455 0.426855,0.287072 0.711409,0.73889 0.783833,1.243147 0.005,0.02992 0.01,0.0674 0.01248,0.09735 l 1.320522,-0.334494 c -0.0024,0 -0.0024,-0.0025 -0.005,-0.005 -0.149775,-0.09985 -0.332003,-0.129804 -0.499249,-0.08488 l -0.312032,0.08236 c -0.157262,0.04244 -0.322018,0.02 -0.459311,-0.06244 -0.13979,-0.08236 -0.239638,-0.214673 -0.279579,-0.37194 L 37.21515,26.235986 c -0.08238,-0.31952 0.107337,-0.644046 0.424364,-0.731379 0.169743,-0.04743 0.272091,-0.21967 0.229653,-0.384426 l -0.399399,-1.600102 c -0.06989,-0.284572 0.07489,-0.581632 0.344485,-0.698948 0.73889,-0.322017 1.34049,-0.878677 1.694944,-1.56767 l 1.230631,-2.353952 c 0.379429,-0.768871 0.479278,-1.630029 0.274583,-2.413864 l -0.506736,-2.016967 c -0.127308,-0.494254 -0.441838,-0.913613 -0.883683,-1.175726 -0.389417,-0.232152 -0.833734,-0.307037 -1.273074,-0.234644 0.242137,0.322017 0.426858,0.698949 0.529206,1.108307 z"
     fill="#4c4c4c"
     id="path9"
     style="stroke-width:0.0532534" />
</svg>
