<?xml version="1.0" encoding="UTF-8" standalone="no"?>
<svg
   version="1.1"
   viewBox="0 0 100 100"
   width="100"
   height="100"
   id="svg1"
   sodipodi:docname="duplicate.svg"
   xml:space="preserve"
   inkscape:version="1.4.3 (0d15f75042, 2025-12-25)"
   xmlns:inkscape="http://www.inkscape.org/namespaces/inkscape"
   xmlns:sodipodi="http://sodipodi.sourceforge.net/DTD/sodipodi-0.dtd"
   xmlns="http://www.w3.org/2000/svg"
   xmlns:svg="http://www.w3.org/2000/svg"><defs
     id="defs1" /><sodipodi:namedview
     id="namedview1"
     pagecolor="#ffffff"
     bordercolor="#000000"
     borderopacity="0.25"
     inkscape:showpageshadow="2"
     inkscape:pageopacity="0.0"
     inkscape:pagecheckerboard="true"
     inkscape:deskcolor="#d1d1d1"
     inkscape:zoom="4"
     inkscape:cx="27.75"
     inkscape:cy="76"
     inkscape:window-width="1848"
     inkscape:window-height="1011"
     inkscape:window-x="0"
     inkscape:window-y="0"
     inkscape:window-maximized="1"
     inkscape:current-layer="svg1" /><g
     id="g1"
     transform="matrix(0.08253998,0,0,0.08253998,1.3044433,0.4045272)"><path
       d="m 450,412.5 h 525 c 41.422,0 75,41.422 75,75 v 525 c 0,41.422 -33.578,75 -75,75 H 450 c -41.422,0 -75,-41.422 -75,-75 v -525 c 0,-41.422 33.578,-75 75,-75 z"
       fill="#ffffff"
       id="path1" /><path
       d="m 150,187.5 v 525 c 0.0586,19.875 7.9766,38.918 22.031,52.969 14.051,14.055 33.094,21.973 52.969,22.031 h 93.75 v -300 c 0.0391,-34.797 13.879,-68.16 38.484,-92.766 C 381.839,370.128 415.203,356.289 450,356.25 H 825 V 187.5 C 824.9414,167.625 817.0234,148.582 802.969,134.531 788.918,120.476 769.875,112.558 750,112.5 H 225 c -19.875,0.0586 -38.918,7.9766 -52.969,22.031 C 157.976,148.582 150.058,167.625 150,187.5 Z"
       fill="#ffffff"
       id="path2" /></g></svg>
