<?xml version="1.0" encoding="UTF-8" standalone="no"?>
<svg
   width="1200pt"
   height="1200pt"
   version="1.1"
   viewBox="0 0 1200 1200"
   id="svg3"
   sodipodi:docname="editing.svg"
   inkscape:version="1.4.2 (ebf0e940d0, 2025-05-08)"
   xmlns:inkscape="http://www.inkscape.org/namespaces/inkscape"
   xmlns:sodipodi="http://sodipodi.sourceforge.net/DTD/sodipodi-0.dtd"
   xmlns="http://www.w3.org/2000/svg"
   xmlns:svg="http://www.w3.org/2000/svg">
  <defs
     id="defs3" />
  <sodipodi:namedview
     id="namedview3"
     pagecolor="#ffffff"
     bordercolor="#000000"
     borderopacity="0.25"
     inkscape:showpageshadow="2"
     inkscape:pageopacity="0.0"
     inkscape:pagecheckerboard="0"
     inkscape:deskcolor="#d1d1d1"
     inkscape:document-units="pt"
     inkscape:zoom="0.35487922"
     inkscape:cx="608.65779"
     inkscape:cy="1080.6494"
     inkscape:window-width="1862"
     inkscape:window-height="1011"
     inkscape:window-x="0"
     inkscape:window-y="0"
     inkscape:window-maximized="1"
     inkscape:current-layer="svg3" />
  <path
     d="M 795.91391,713.54654 690.9475,608.58013 l -45.61835,45.61835 14.48073,14.48072 c 14.15962,14.08886 19.90214,34.95431 14.94487,54.42807 -4.31576,16.87072 -16.40657,30.3889 -32.0294,37.48659 l 53.28671,53.28672 c -12.01996,46.4386 0,97.91287 36.45177,134.13937 39.44819,39.62635 96.69541,50.43345 146.16925,32.8497 l -66.05542,-66.0554 c -13.01827,-13.0183 -13.01827,-33.848 0,-46.86703 l 38.05727,-38.05726 c 13.01827,-13.01827 33.84796,-13.01827 46.86699,0 l 66.05541,66.05539 c 17.4414,-49.47078 6.59847,-106.50342 -32.84965,-146.16923 -36.45177,-36.45176 -88.09722,-48.43597 -134.75572,-36.23795 z"
     fill="#ffffff"
     id="path1"
     style="stroke-width:0.760902" />
  <path
     d="m 386.30522,504.10069 53.07291,53.07291 c 7.09777,-15.62208 20.61587,-27.74933 37.48659,-32.02941 4.45843,-1.17703 9.30887,-1.7834 14.12386,-1.7834 15.23021,0 29.56788,5.95642 40.33997,16.79919 l 14.44496,14.44497 45.61835,-45.61835 -105.18707,-105.18708 c 12.01997,-46.4386 0,-97.91285 -36.45177,-134.322 -39.44819,-39.4482 -96.6954,-50.25529 -145.94858,-32.63585 l 65.87736,65.87737 c 13.01827,13.01827 13.01827,33.84795 0,46.86699 l -38.05727,38.05726 c -13.01827,13.01827 -33.84796,13.01827 -46.86699,0 l -65.87736,-65.87736 c -17.61944,49.25622 -6.81243,106.50344 32.63584,145.94859 36.63058,36.63057 88.09722,48.65054 134.75572,36.45176 z"
     fill="#ffffff"
     id="path2"
     style="stroke-width:0.760902" />
  <path
     d="m 920.12353,234.03379 -110.35359,64.59372 -14.62378,60.38442 -249.41602,249.41602 -41.4098,-41.4098 c -4.74377,-4.74377 -11.59158,-6.70545 -18.15436,-4.99342 -6.4914,1.64065 -11.62734,6.63415 -13.55318,13.05403 l -14.98064,50.82596 -50.82596,14.98064 c -3.03174,0.8917 -5.81375,2.53235 -8.06099,4.77937 L 246.7018,797.70814 c -20.75817,20.75817 -32.17169,48.36445 -32.17169,77.71852 0,29.35409 11.44929,56.96039 32.17169,77.71849 20.75816,20.7582 48.36444,32.17175 77.71851,32.17175 29.35408,0 56.96036,-11.44935 77.71852,-32.17175 L 554.18224,801.10177 c 2.24702,-2.24702 3.88775,-5.02911 4.77938,-8.061 l 14.98063,-50.82596 50.82596,-14.98064 c 6.42011,-1.89038 11.37777,-7.02647 13.05404,-13.55318 1.64065,-6.49141 -0.21401,-13.41089 -4.99342,-18.15436 l -41.4098,-41.4098 249.41602,-249.41602 60.38441,-14.62377 64.59372,-110.3536 -45.7614,-45.7614 z m -446.94614,519.59706 -136.4221,136.4221 c -3.70939,3.7094 -8.59591,5.5641 -13.44665,5.5641 -4.88644,0 -9.73727,-1.8547 -13.44666,-5.5641 -7.45448,-7.45449 -7.45448,-19.47453 0,-26.89332 l 136.42209,-136.4221 c 7.45448,-7.45448 19.47453,-7.45448 26.89332,0 7.45448,7.45448 7.45448,19.47453 0,26.89332 z"
     fill="#ffffff"
     id="path3"
     style="stroke-width:0.760902" />
</svg>
