<?xml version="1.0" encoding="UTF-8"?>
<svg width="1200pt" height="1200pt" version="1.1" viewBox="0 0 1200 1200" xmlns="http://www.w3.org/2000/svg">
 <path d="m600 693.74c7.3125 0 15.375 0.375 24 1.125l-10.875 65.625c-8.8125 52.688-13.125 105.94-13.125 158.26 0-52.312-4.3125-105.56-13.125-158.26l-11.062-65.625c7.6875-0.75 15.938-1.125 24.188-1.125zm-318.74-93.75c109.88 0 207.19 56.062 264.37 141l-14.25-85.5c-37.312-23.062-62.438-64.312-62.625-111.38v-225.37c0-6.1875 0.375-12.188 1.5-18.188v-0.1875c-12.375-36.188-39-65.438-74.625-80.438-24.938-10.688-51.188-15.188-78-13.688-31.125 1.875-60.75 11.812-87.562 29.625-23.438 15.375-41.625 39.562-51.375 67.875l-49.453 143.26c42.188-33.609 95.25-53.25 152.02-53.25 27.844 0 55.172 4.6875 81.234 13.875 9.75 3.4688 14.906 14.156 11.438 23.906-3.4219 9.75-14.203 14.906-23.906 11.438-22.031-7.7812-45.141-11.719-68.766-11.719-83.391 0-157.74 49.781-189.84 125.48l-54.469 157.82c58.312-69.938 146.26-114.56 244.31-114.56zm-66.562-454.69c9-26.438 26.25-49.125 48.562-63.75 22.875-15.188 48-23.625 74.812-25.125 2.8125-0.1875 5.625-0.1875 8.4375-0.1875 20.438 0 40.125 4.125 58.688 12 39.375 16.688 67.312 52.5 74.812 95.625l2.25 14.062c3.5625-11.812 5.25-24.375 5.25-37.312 0-77.625-63-140.63-140.63-140.63s-140.63 63-140.63 140.63c0 7.875 0.75 15.75 2.0625 23.25zm505.31 18.75c7.5-43.312 35.438-79.125 75-95.812 18.375-7.875 38.062-12 58.5-12 2.8125 0 5.625 0 8.4375 0.1875 26.812 1.5 51.938 9.9375 74.812 25.125 22.312 14.625 39.562 37.312 48.562 63.75l6.375 18.562c1.3125-7.5 2.0625-15.375 2.0625-23.25 0-77.625-63-140.63-140.63-140.63s-140.63 63-140.63 140.63c0 12.938 1.6875 25.5 5.25 37.312zm-329.63-61.312c-16.125-6.9375-33-9.75-50.25-8.8125-20.062 1.125-39 7.5-56.25 18.938-15.375 10.125-27.375 26.062-33.75 44.625l-10.5 30.375c23.812-11.062 49.125-17.438 75.75-19.125 4.125-0.1875 8.25-0.375 12.188-0.375 28.688 0 56.438 5.8125 82.875 17.062 14.062 6 27.188 13.688 39 23.25l-6.375-38.438c-5.25-30.375-24.75-55.688-52.688-67.5zm525.74 10.125c-17.25-11.438-36.188-17.812-56.25-18.938-17.25-0.9375-34.125 1.875-50.25 8.8125-27.938 11.812-47.438 37.125-52.688 67.5l-6.375 38.438c11.812-9.5625 24.938-17.25 39.188-23.25 26.25-11.25 54-17.062 82.688-17.062 3.9375 0 8.0625 0.1875 12 0.375 26.625 1.6875 52.125 8.0625 75.938 19.125l-10.5-30.375c-6.375-18.562-18.375-34.5-33.75-44.625zm-634.87 655.87c-82.688 0-150 67.312-150 150s67.312 150 150 150 150-67.312 150-150-67.312-150-150-150zm281.26 150c0 155.06-126.19 281.26-281.26 281.26-155.06 0-281.26-126.19-281.26-281.26 0-155.06 126.19-281.26 281.26-281.26 155.06 0 281.26 126.19 281.26 281.26zm-93.75 0c0-103.41-84.094-187.5-187.5-187.5s-187.5 84.094-187.5 187.5 84.094 187.5 187.5 187.5 187.5-84.094 187.5-187.5zm731.26 0c0 155.06-126.19 281.26-281.26 281.26-155.06 0-281.26-126.19-281.26-281.26 0-155.06 126.19-281.26 281.26-281.26 155.06 0 281.26 126.19 281.26 281.26zm-93.75 0c0-103.41-84.094-187.5-187.5-187.5s-187.5 84.094-187.5 187.5 84.094 187.5 187.5 187.5 187.5-84.094 187.5-187.5zm-187.5-150c-82.688 0-150 67.312-150 150s67.312 150 150 150 150-67.312 150-150-67.312-150-150-150zm-225-316.69v-133.31c0-51.75-42-93.75-93.75-93.75s-93.75 42-93.75 93.75v133.31c23.812-24.375 57-39.562 93.75-39.562s69.938 15.188 93.75 39.562zm-187.5 91.688c0-51.75 42-93.75 93.75-93.75s93.75 42 93.75 93.75-42 93.75-93.75 93.75-93.75-42-93.75-93.75zm75.281 0c0 10.359 8.4844 18.75 18.844 18.75s18.75-8.3906 18.75-18.75-8.3906-18.75-18.75-18.75h-0.1875c-10.359 0-18.656 8.3906-18.656 18.75zm72.844 197.26c57.188-84.938 154.5-141 264.37-141 98.062 0 186 44.625 244.31 114.56l-54.047-156.61c-31.781-76.5-105.84-126.71-190.26-126.71-23.578 0-46.734 3.9375-68.766 11.719-9.75 3.4688-20.484-1.6875-23.906-11.438-3.4688-9.75 1.6875-20.484 11.438-23.906 26.062-9.1875 53.391-13.875 81.234-13.875 56.953 0 109.88 19.453 151.87 52.875l-49.312-142.87c-9.75-28.312-27.938-52.5-51.375-67.875-26.812-17.812-56.438-27.75-87.562-29.625-26.625-1.5-53.062 3-78 13.688-35.625 15-62.25 44.25-74.625 80.438v0.1875c1.125 6 1.5 12 1.5 18.188v225.37c-0.1875 47.062-25.312 88.312-62.625 111.38z" fill="#fff"/>
</svg>
