<?xml version="1.0" encoding="UTF-8" standalone="no"?>
<svg
   version="1.1"
   viewBox="0 0 100 100"
   width="100"
   height="100"
   id="svg1"
   sodipodi:docname="export.svg"
   xml:space="preserve"
   inkscape:version="1.4.3 (0d15f75042, 2025-12-25)"
   xmlns:inkscape="http://www.inkscape.org/namespaces/inkscape"
   xmlns:sodipodi="http://sodipodi.sourceforge.net/DTD/sodipodi-0.dtd"
   xmlns="http://www.w3.org/2000/svg"
   xmlns:svg="http://www.w3.org/2000/svg"><defs
     id="defs1" /><sodipodi:namedview
     id="namedview1"
     pagecolor="#ffffff"
     bordercolor="#000000"
     borderopacity="0.25"
     inkscape:showpageshadow="2"
     inkscape:pageopacity="0.0"
     inkscape:pagecheckerboard="true"
     inkscape:deskcolor="#d1d1d1"
     inkscape:zoom="2.8284271"
     inkscape:cx="-38.183766"
     inkscape:cy="72.124892"
     inkscape:window-width="1848"
     inkscape:window-height="1011"
     inkscape:window-x="0"
     inkscape:window-y="0"
     inkscape:window-maximized="1"
     inkscape:current-layer="svg1" /><!-- Box with an arrow popping out the top — export --><path
     d="m 10.961074,50.457479 c 0,-21.139377 17.136987,-38.276365 38.276364,-38.276365 21.14015,0 38.276363,17.136988 38.276363,38.276365 0,21.139384 -17.136213,38.276364 -38.276363,38.276364 -21.139377,0 -38.276364,-17.13698 -38.276364,-38.276364 z m 24.861077,4.819268 11.943001,14.609971 c 0.373333,0.457006 0.881359,0.698348 1.473137,0.698348 0.58931,0 1.098256,-0.241351 1.471897,-0.698348 L 62.652419,55.276747 c 0.476639,-0.582362 0.569372,-1.3396 0.247074,-2.018369 -0.322597,-0.679623 -0.967503,-1.087974 -1.718955,-1.087974 H 52.873407 V 33.964771 c 0,-2.00081 -1.635289,-3.635248 -3.635253,-3.635248 -2.000811,0 -3.635249,1.634438 -3.635249,3.635248 v 18.205633 h -8.308673 c -0.752724,0 -1.39643,0.408371 -1.718961,1.087974 -0.322593,0.678415 -0.229567,1.435946 0.245878,2.018369 z"
     fill="#ffffff"
     fill-rule="evenodd"
     id="path1"
     style="stroke-width:0.0773256" /></svg>
