<?xml version="1.0" encoding="UTF-8" standalone="no"?>
<svg
   width="128"
   height="100"
   version="1.1"
   viewBox="0 0 95.999997 75"
   id="svg1"
   sodipodi:docname="factory.svg"
   inkscape:version="1.4.2 (ebf0e940d0, 2025-05-08)"
   xmlns:inkscape="http://www.inkscape.org/namespaces/inkscape"
   xmlns:sodipodi="http://sodipodi.sourceforge.net/DTD/sodipodi-0.dtd"
   xmlns="http://www.w3.org/2000/svg"
   xmlns:svg="http://www.w3.org/2000/svg">
  <defs
     id="defs1" />
  <sodipodi:namedview
     id="namedview1"
     pagecolor="#ffffff"
     bordercolor="#000000"
     borderopacity="0.25"
     inkscape:showpageshadow="2"
     inkscape:pageopacity="0.0"
     inkscape:pagecheckerboard="0"
     inkscape:deskcolor="#d1d1d1"
     inkscape:document-units="pt"
     inkscape:zoom="2.0075"
     inkscape:cx="51.058531"
     inkscape:cy="95.392279"
     inkscape:window-width="1862"
     inkscape:window-height="1011"
     inkscape:window-x="0"
     inkscape:window-y="0"
     inkscape:window-maximized="1"
     inkscape:current-layer="svg1" />
  <path
     d="m 52.000611,20.015751 c 0.326379,0.10385 0.642894,0.234892 0.944508,0.393137 0.153299,0.09149 0.346158,0.09149 0.499463,0 l 0.969247,-0.632978 c 0.197804,-0.133515 0.464838,-0.106319 0.632973,0.06429 l 1.115149,1.120053 h -0.0025 c 0.175547,0.16566 0.20275,0.435172 0.06429,0.632977 l -0.632978,0.969246 c -0.08902,0.153296 -0.08902,0.343685 0,0.499461 0.160717,0.301655 0.291759,0.615675 0.393136,0.942027 0.05192,0.168134 0.192855,0.294235 0.365939,0.328853 l 1.139834,0.234892 c 0.229952,0.04945 0.393136,0.2522 0.393136,0.487098 v 1.577483 c 0,0.232419 -0.163194,0.435172 -0.393136,0.479681 l -1.139858,0.234893 c -0.175552,0.03462 -0.316489,0.163193 -0.365939,0.33627 -0.10385,0.323905 -0.234892,0.640414 -0.393136,0.942027 -0.08902,0.153297 -0.08902,0.341217 0,0.494514 l 0.632978,0.969246 v -0.0025 c 0.133515,0.200279 0.106317,0.464842 -0.06429,0.632977 l -1.11515,1.115147 h 0.0025 c -0.165656,0.178025 -0.437641,0.205222 -0.632973,0.06429 l -0.969247,-0.632977 c -0.153299,-0.09643 -0.346158,-0.09643 -0.499463,0 -0.304122,0.153296 -0.618154,0.284344 -0.944507,0.38572 -0.168134,0.05439 -0.294232,0.197806 -0.328852,0.373357 l -0.239842,1.043409 c -0.04698,0.227477 -0.247254,0.390663 -0.482146,0.393137 h -1.582445 c -0.232414,-0.0025 -0.432696,-0.16566 -0.479678,-0.393137 l -0.22745,-1.120008 c -0.03462,-0.175551 -0.160723,-0.318962 -0.328857,-0.373356 -0.326374,-0.101377 -0.640411,-0.229951 -0.944507,-0.385721 -0.153295,-0.09643 -0.346159,-0.09643 -0.499459,0 l -0.969247,0.632977 c -0.195331,0.140938 -0.467315,0.113736 -0.632975,-0.06429 L 44.184856,30.68236 c -0.170608,-0.168134 -0.197805,-0.435171 -0.06429,-0.632976 l 0.632976,-0.969246 c 0.08901,-0.150828 0.08901,-0.341217 0,-0.49204 -0.158243,-0.304124 -0.289291,-0.618155 -0.393136,-0.944507 -0.04945,-0.170608 -0.190389,-0.299181 -0.36594,-0.333795 l -1.13983,-0.234911 c -0.22995,-0.04698 -0.393137,-0.247256 -0.393137,-0.482149 v -1.607182 c 0,-0.234892 0.163192,-0.44012 0.393137,-0.487096 l 1.139833,-0.234893 c 0.173077,-0.03462 0.314015,-0.160718 0.36594,-0.328853 0.101376,-0.326378 0.232418,-0.642893 0.393136,-0.942028 0.08901,-0.155769 0.08901,-0.346159 0,-0.501929 l -0.632976,-0.969246 v 0.0025 c -0.138465,-0.197803 -0.111267,-0.467314 0.06429,-0.632975 l 1.115147,-1.120052 h -0.0025 c 0.170608,-0.170609 0.435172,-0.197806 0.632976,-0.06429 l 0.969247,0.632977 c 0.153295,0.09149 0.346159,0.09149 0.499459,0 0.304126,-0.158244 0.618153,-0.289291 0.944506,-0.393136 0.168135,-0.05439 0.294237,-0.192858 0.328852,-0.365941 l 0.234892,-1.139832 c 0.04698,-0.227477 0.247259,-0.390663 0.479683,-0.393137 h 1.582441 c 0.232419,0.0025 0.432701,0.16566 0.482151,0.393137 l 0.234891,1.139832 h -0.0025 c 0.03709,0.173078 0.163189,0.311541 0.331318,0.365941 z m 26.458964,49.063096 h -2.638249 v -8.362155 c -0.0048,-0.796177 -0.647802,-1.43902 -1.443977,-1.441498 H 64.48445 c -0.796183,0.0025 -1.441504,0.645321 -1.443981,1.441498 v 8.362155 H 59.798942 V 31.530656 c 0.0051,-0.662622 0.541511,-1.199175 1.204133,-1.201654 h 16.855651 c 0.6651,0 1.206607,0.536553 1.209085,1.201654 v 36.940003 c 0,0.168134 -0.06676,0.328856 -0.185433,0.447536 -0.118685,0.118685 -0.279406,0.185442 -0.447542,0.185442 z M 27.732278,15.075366 c 0.182973,0 0.365941,0.01731 0.546417,0.05192 -0.06923,-0.254672 -0.10385,-0.516767 -0.101376,-0.778878 -0.02473,-1.693688 1.330254,-3.083283 3.021463,-3.105543 1.691209,-0.02226 3.080803,1.330254 3.105542,3.021463 0.64532,-0.677497 1.666523,-0.840699 2.492347,-0.398085 0.825824,0.442615 1.253611,1.384637 1.045889,2.297021 0.630498,-0.427755 1.426678,-0.534074 2.146214,-0.281875 0.722016,0.252199 1.278296,0.830781 1.505799,1.557703 0.225002,0.7294 0.09149,1.5231 -0.360997,2.136297 -0.450005,0.615676 -1.167051,0.97911 -1.931055,0.981589 h -5.632439 c -0.464842,0 -0.843125,0.37583 -0.843125,0.840699 v 1.196748 h -3.65196 V 21.372991 C 29.057687,20.920512 28.686802,20.55951 28.234298,20.55703 h -0.50193 c -1.505799,0 -2.727234,-1.221434 -2.727234,-2.727233 0,-1.508279 1.221435,-2.729713 2.727234,-2.729713 z M 36.240016,42.224275 35.006185,27.57666 H 26.777486 L 25.09862,47.774954 Z M 34.909762,26.399851 34.731738,24.266032 h 0.0025 c -0.02718,-0.262094 -0.249715,-0.459899 -0.514279,-0.454951 h -6.633597 c -0.262095,-0.0049 -0.484623,0.192857 -0.51182,0.454951 l -0.178024,2.133819 z M 21.263307,68.473297 V 51.427228 c -0.0025,-0.229947 0.128574,-0.440119 0.336269,-0.536551 l 18.056722,-9.034692 c 0.182972,-0.10385 0.407974,-0.10385 0.588457,0 0.180499,0.108794 0.289291,0.304127 0.286818,0.514293 v 8.683916 L 58.596205,42.021617 V 69.081379 H 21.870886 c -0.351102,0 -0.632977,-0.284346 -0.632977,-0.632978 z m 3.956106,-13.102091 c -0.791221,0.0025 -1.436541,0.637933 -1.448937,1.431633 v 2.823656 -0.0025 c 0.0025,0.798661 0.650278,1.443981 1.448937,1.443981 h 2.823658 c 0.796178,-0.0025 1.439019,-0.647803 1.441498,-1.443981 v -2.821179 c -0.0099,-0.791222 -0.650278,-1.429156 -1.441498,-1.431633 z m 26.585029,0 c -0.798655,0.0025 -1.443976,0.650275 -1.443976,1.448935 v 2.823656 c 0.01483,0.793701 0.662618,1.426678 1.456318,1.424201 h 2.823662 c 0.798655,0 1.446452,-0.645321 1.448935,-1.44398 v -2.821179 c -0.01236,-0.7937 -0.657718,-1.429156 -1.448935,-1.431633 z m 2.823656,1.209088 h -2.811314 c -0.06429,-0.0025 -0.126097,0.02225 -0.170606,0.06923 -0.04698,0.0445 -0.07171,0.106317 -0.06923,0.170607 v 2.823657 c 0,0.133514 0.106318,0.239841 0.239837,0.239841 h 2.823662 c 0.06428,0.0025 0.126096,-0.02225 0.170607,-0.06676 0.04698,-0.04698 0.07171,-0.108795 0.06923,-0.173079 v -2.840959 c 0.0025,-0.06429 -0.02225,-0.128574 -0.06923,-0.173075 -0.0445,-0.0445 -0.106323,-0.06923 -0.170607,-0.06923 z M 42.950203,55.371206 c -0.798658,0.0025 -1.443978,0.650275 -1.443978,1.448935 v 2.823656 c 0.01236,0.78874 0.655236,1.421718 1.443978,1.424201 h 2.82366 -0.0025 c 0.798661,0 1.446459,-0.645321 1.451419,-1.44398 v -2.821179 c -0.01483,-0.7937 -0.657719,-1.429156 -1.451419,-1.431633 z m 2.82366,1.209088 h -2.82366 c -0.06429,-0.0025 -0.128572,0.02225 -0.173076,0.06923 -0.04451,0.0445 -0.06923,0.106317 -0.06923,0.170607 v 2.823657 c 0,0.133514 0.108793,0.239841 0.242314,0.239841 h 2.823659 -0.0025 c 0.06676,0.0025 0.128575,-0.02225 0.175552,-0.06676 0.04698,-0.04698 0.07171,-0.108795 0.07171,-0.173079 v -2.840959 c 0,-0.06676 -0.02473,-0.128574 -0.07171,-0.173075 -0.04698,-0.0445 -0.108789,-0.06923 -0.175552,-0.06923 z M 34.08858,55.371206 c -0.801138,0.0025 -1.446458,0.650275 -1.451416,1.448935 v 2.823656 c 0.01483,0.791223 0.660195,1.424201 1.451416,1.424201 h 2.823657 -0.0025 c 0.796178,-0.0025 1.441498,-0.647803 1.443978,-1.44398 v -2.821179 c -0.0099,-0.791223 -0.652758,-1.429156 -1.443978,-1.431633 z m 2.823657,1.209088 H 34.08858 c -0.06676,-0.0025 -0.128574,0.02225 -0.175551,0.06923 -0.04698,0.0445 -0.07171,0.106317 -0.07171,0.170607 v 2.823657 c 0,0.06429 0.02473,0.126102 0.07171,0.173079 0.04698,0.04451 0.108793,0.06923 0.175551,0.06676 h 2.823657 -0.0025 c 0.133515,0 0.242313,-0.106322 0.242313,-0.239842 v -2.840958 c 0,-0.06429 -0.02473,-0.128575 -0.06923,-0.17308 -0.04451,-0.0445 -0.108792,-0.06923 -0.173077,-0.06923 z m -8.861676,0 h -2.831095 c -0.06429,-0.0025 -0.1261,0.02225 -0.173077,0.06923 -0.0445,0.0445 -0.06923,0.106317 -0.06676,0.170607 v 2.823657 c -0.0025,0.06429 0.02225,0.126102 0.06676,0.173079 0.04698,0.04451 0.108793,0.06923 0.173077,0.06676 h 2.823656 c 0.133517,0 0.239841,-0.106322 0.239841,-0.239842 v -2.840958 c 0.0025,-0.06429 -0.02226,-0.128575 -0.06923,-0.17308 -0.0445,-0.0445 -0.106319,-0.06923 -0.170609,-0.06923 z m 46.565475,12.501297 v -8.362154 c 0.0027,-0.06429 -0.02225,-0.126102 -0.06676,-0.170607 -0.04697,-0.04698 -0.108793,-0.07171 -0.173077,-0.06923 h -9.892897 c -0.13352,0 -0.242314,0.106321 -0.242314,0.239841 v 8.362154 z M 71.995087,50.801743 c -0.796177,0.0025 -1.441498,0.650281 -1.441498,1.448935 v 2.823662 c 0.0025,0.7937 0.647798,1.439015 1.441498,1.441498 h 2.855833 c 0.79866,0 1.446462,-0.64532 1.44894,-1.441498 v -2.823662 c -0.0027,-0.798654 -0.65028,-1.446458 -1.44894,-1.448935 z m 2.855833,1.201656 h -2.855833 c -0.06429,0 -0.126097,0.0272 -0.170607,0.0717 -0.04698,0.04698 -0.07171,0.111266 -0.06923,0.175551 v 2.823656 c 0,0.131047 0.108794,0.239843 0.239841,0.239843 h 2.855833 c 0.06431,0.0025 0.126098,-0.02226 0.173078,-0.06923 0.04451,-0.04451 0.06923,-0.106323 0.06676,-0.170613 V 52.25065 c 0.0027,-0.06429 -0.02225,-0.128575 -0.06676,-0.175551 -0.04697,-0.0445 -0.108793,-0.0717 -0.173078,-0.0717 z M 64.090314,50.801743 c -0.79866,0.0025 -1.443981,0.650281 -1.443981,1.448935 v 2.823662 c 0.0051,0.7937 0.647804,1.439015 1.443981,1.441498 h 2.823657 c 0.79866,0 1.446458,-0.64532 1.448935,-1.441498 v -2.823662 c -0.0025,-0.798654 -0.650275,-1.446458 -1.448935,-1.448935 z m 2.823657,1.201656 h -2.873137 c -0.06676,0 -0.12857,0.0272 -0.173074,0.0717 -0.04698,0.04698 -0.06923,0.111266 -0.06923,0.175551 v 2.823656 c 0,0.131047 0.108794,0.239843 0.242314,0.239843 h 2.823662 -0.0025 c 0.06429,0.0025 0.126102,-0.02226 0.17308,-0.06923 0.0445,-0.04451 0.06923,-0.106323 0.06923,-0.170613 V 52.25065 c 0,-0.06429 -0.02473,-0.128575 -0.06923,-0.175551 -0.0445,-0.0445 -0.106318,-0.0717 -0.17308,-0.0717 z m 5.081116,-9.544237 c -0.380778,0.0025 -0.746702,0.153295 -1.018671,0.422806 -0.269512,0.271979 -0.420339,0.637933 -0.422806,1.018672 v 2.831094 c -0.0025,0.380779 0.150827,0.74422 0.422806,1.011284 0.271979,0.269512 0.637938,0.422807 1.018671,0.425284 h 2.855833 c 0.365938,0 0.719534,-0.140937 0.986551,-0.393136 0.269508,-0.271979 0.422809,-0.637939 0.42528,-1.018672 V 43.90066 c -0.0027,-0.380779 -0.153294,-0.744225 -0.42528,-1.011285 -0.259624,-0.267039 -0.613199,-0.420338 -0.986551,-0.430223 z m 2.855833,1.201651 h -2.855833 c -0.06182,0.0025 -0.123629,0.0272 -0.170607,0.06923 -0.04451,0.04203 -0.06923,0.103849 -0.06923,0.165657 v 2.828616 c 0,0.06182 0.02473,0.121157 0.06923,0.165662 0.04698,0.04203 0.10879,0.06676 0.170607,0.06923 h 2.855833 c 0.06431,-0.0025 0.123634,-0.0272 0.170607,-0.06923 0.04451,-0.04451 0.07171,-0.103849 0.06923,-0.165662 V 43.90066 c 0.0027,-0.06182 -0.02471,-0.121157 -0.06923,-0.163194 -0.04451,-0.04698 -0.106315,-0.07417 -0.170607,-0.07665 z M 64.090314,42.459162 c -0.796177,0.0025 -1.43902,0.647798 -1.443981,1.441498 v 2.831094 c 0.0051,0.7937 0.647804,1.439021 1.443981,1.441498 h 2.823657 c 0.79866,0 1.446458,-0.64532 1.448935,-1.441498 V 43.90066 c -0.0025,-0.796177 -0.650275,-1.441498 -1.448935,-1.441498 z m 2.823657,1.201651 h -2.873137 c -0.133515,0 -0.242314,0.108795 -0.242314,0.239842 v 2.831094 c 0,0.131047 0.108795,0.239841 0.242314,0.239841 h 2.823661 -0.0025 c 0.06429,0.0025 0.126103,-0.02225 0.173079,-0.06923 0.04451,-0.04451 0.06923,-0.106317 0.06923,-0.170607 v -2.831094 c 0,-0.06429 -0.02473,-0.126102 -0.06923,-0.170607 -0.04698,-0.04698 -0.108794,-0.07171 -0.173079,-0.06923 z m 5.133019,-9.544235 c -0.796178,0.0025 -1.439021,0.64532 -1.443976,1.441499 v 2.823658 c 0,0.798655 0.645321,1.446459 1.443976,1.448936 h 2.803882 c 0.798653,-0.0025 1.446455,-0.650281 1.448933,-1.448936 v -2.823658 c -0.0027,-0.798659 -0.65028,-1.441499 -1.448933,-1.441499 z m 2.803882,1.201654 h -2.855835 c -0.131047,0 -0.239842,0.106319 -0.239842,0.23984 v 2.823658 c -0.0025,0.06429 0.02226,0.126097 0.06923,0.173075 0.04451,0.04451 0.106322,0.06923 0.170612,0.06676 h 2.855835 c 0.0643,0.0025 0.126098,-0.02226 0.173071,-0.06676 0.04451,-0.04698 0.06923,-0.10879 0.06676,-0.173075 v -2.823658 c 0.0027,-0.06429 -0.02226,-0.1261 -0.06676,-0.170609 -0.04697,-0.04698 -0.108793,-0.07171 -0.173071,-0.06923 z M 64.090259,34.116578 c -0.796178,0.0025 -1.439016,0.64532 -1.443976,1.441499 v 2.823658 c 0,0.798655 0.645321,1.446459 1.443976,1.448936 h 2.823661 c 0.798656,-0.0025 1.446458,-0.650281 1.448936,-1.448936 v -2.823658 c -0.0025,-0.798659 -0.65028,-1.441499 -1.448936,-1.441499 z m 2.823661,1.201654 h -2.873136 c -0.133515,0 -0.242314,0.106319 -0.242314,0.23984 v 2.823658 c 0,0.06429 0.02472,0.126097 0.06923,0.173075 0.04451,0.04451 0.108795,0.06923 0.17308,0.06676 h 2.823656 -0.0025 c 0.06429,0.0025 0.126097,-0.02226 0.173075,-0.06676 0.04451,-0.04698 0.06923,-0.10879 0.06923,-0.173075 v -2.823658 c 0,-0.06429 -0.02473,-0.1261 -0.06923,-0.170609 -0.04698,-0.04698 -0.10879,-0.07171 -0.173075,-0.06923 z M 50.164822,22.765244 c -1.223914,0 -2.326665,0.739317 -2.796495,1.869286 -0.467315,1.12997 -0.207694,2.430527 0.657719,3.295911 0.865412,0.865385 2.165943,1.125012 3.295912,0.657716 1.132446,-0.469785 1.869284,-1.572525 1.869284,-2.796492 0,-0.801138 -0.318961,-1.572526 -0.887645,-2.138776 -0.566195,-0.568677 -1.33516,-0.887645 -2.138775,-0.887645 z"
     fill="#4c4c4c"
     fill-rule="evenodd"
     id="path1"
     style="stroke-width:0.0527478" />
</svg>
