<?xml version="1.0" encoding="UTF-8" standalone="no"?>
<svg
   width="128"
   height="100"
   version="1.1"
   viewBox="0 0 96 75"
   id="svg1"
   sodipodi:docname="farming.svg"
   inkscape:version="1.4.2 (ebf0e940d0, 2025-05-08)"
   xmlns:inkscape="http://www.inkscape.org/namespaces/inkscape"
   xmlns:sodipodi="http://sodipodi.sourceforge.net/DTD/sodipodi-0.dtd"
   xmlns="http://www.w3.org/2000/svg"
   xmlns:svg="http://www.w3.org/2000/svg">
  <defs
     id="defs1" />
  <sodipodi:namedview
     id="namedview1"
     pagecolor="#ffffff"
     bordercolor="#000000"
     borderopacity="0.25"
     inkscape:showpageshadow="2"
     inkscape:pageopacity="0.0"
     inkscape:pagecheckerboard="0"
     inkscape:deskcolor="#d1d1d1"
     inkscape:document-units="pt"
     inkscape:zoom="4.015"
     inkscape:cx="99.626401"
     inkscape:cy="93.77335"
     inkscape:window-width="1862"
     inkscape:window-height="1011"
     inkscape:window-x="0"
     inkscape:window-y="0"
     inkscape:window-maximized="1"
     inkscape:current-layer="svg1" />
  <path
     d="m 62.463711,54.120065 v 1.82365 h 14.420341 v -1.82365 z m -0.03809,-19.360673 h 14.455762 v -1.82365 H 61.187059 l 1.235725,1.82365 z m -16.916048,0.552542 c -1.929796,-1.929797 -5.057281,-1.929797 -6.98429,0 -1.929796,1.929796 -1.929796,5.05728 0,6.984289 1.929796,1.929796 5.057281,1.929796 6.98429,0 1.929799,-1.929796 1.929799,-5.057281 0,-6.984289 z m -3.492228,-2.950497 c 3.557528,0 6.442522,2.885229 6.442522,6.442525 0,3.557296 -2.885227,6.442525 -6.442522,6.442525 -3.557529,0 -6.442526,-2.885229 -6.442526,-6.442525 0,-3.557296 2.88523,-6.442525 6.442526,-6.442525 z M 53.343299,49.618344 H 30.689068 v 2.417037 h 22.654231 z m 0.323903,3.922245 h 0.430053 c 0.416452,0 0.751272,-0.337509 0.751272,-0.751266 v -3.922245 c 0,-0.416452 -0.337516,-0.751272 -0.751272,-0.751272 l -24.162226,-0.0027 c -0.416451,0 -0.75127,0.337516 -0.75127,0.751272 v 3.922245 c 0,0.416453 0.337514,0.751273 0.75127,0.751273 h 0.430055 v 16.7314 H 23.070136 V 42.375665 L 29.888354,32.313248 42.01389,25.3127 l 12.125532,7.000548 6.818222,10.062417 v 27.893609 h -7.29495 V 53.537868 Z M 36.568234,63.369 32.441882,70.271996 h 8.250149 L 36.565679,63.369 Z m 4.695233,-7.86052 -3.8215,6.396652 3.8215,6.396652 z m -4.695233,4.934762 4.126352,-6.902996 h -8.250149 l 4.126352,6.902996 z m -4.697963,7.860519 3.821501,-6.396651 -3.821501,-6.396652 z M 47.464143,63.369 43.337792,70.271996 h 8.25015 L 47.461587,63.369 Z m 4.697965,-7.86052 -3.8215,6.396652 3.8215,6.396652 z m -4.697965,4.934762 4.126355,-6.902996 h -8.250151 l 4.126352,6.902996 z m -4.695232,7.860519 3.8215,-6.396651 -3.8215,-6.396652 z M 76.884968,31.430101 V 18.607763 H 56.29676 v 8.614809 l 1.303776,0.75667 c 0.579768,0.375624 0.748545,0.748541 1.06698,1.232993 l 1.505215,2.22106 h 16.712237 z m 0,21.183973 V 36.263592 H 63.447119 l 4.2271,6.23871 c 1.282006,1.891705 -0.356565,4.700692 -2.789942,4.232557 -1.314693,-0.253137 -1.755593,-1.154081 -2.419765,-2.136689 v 8.016139 z M 62.464633,70.271067 H 76.884968 V 57.448726 H 62.464633 Z M 76.857678,17.098604 C 76.471173,11.747388 72.004556,7.5587887 66.590867,7.5587887 c -5.413581,0 -9.880668,4.1890063 -10.266811,9.5398153 z m -19.591777,12.705623 9.167023,13.538885 c 0.166037,0.24769 0.206863,0.519879 0.155152,0.792091 -0.136103,0.707719 -0.653255,1.273872 -1.420843,1.126846 -0.315739,-0.05988 -0.604246,-0.239526 -0.797489,-0.519879 L 55.286915,31.334517 C 55.218864,31.233806 55.129042,31.15487 55.031057,31.100438 L 42.390471,23.802587 c -0.24225,-0.138815 -0.530766,-0.127927 -0.75667,0.0055 l -12.640589,7.29782 c -0.106152,0.0626 -0.193252,0.144261 -0.255854,0.242249 l -9.036956,13.337392 c -0.228638,0.304852 -0.421891,0.498104 -0.835641,0.57704 -0.767586,0.146979 -1.284731,-0.419173 -1.420839,-1.126847 -0.05172,-0.269465 -0.01089,-0.544377 0.155148,-0.792091 l 9.006761,-13.293841 c 0.193253,-0.2858 0.400116,-0.675029 0.626019,-0.805679 l 14.094004,-8.135756 c 0.383788,-0.225915 0.996197,-0.220475 1.380019,-0.0027 v 0.0027 l 14.094001,8.13866 c 0.179649,0.100711 0.318467,0.329349 0.465442,0.560705 z"
     fill="#4c4c4c"
     fill-rule="evenodd"
     id="path1"
     style="stroke-width:0.0580669" />
</svg>
