<?xml version="1.0" encoding="UTF-8" standalone="no"?>
<svg
   width="128"
   height="100"
   version="1.1"
   viewBox="0 0 96 75"
   id="svg3"
   sodipodi:docname="fogmist.svg"
   inkscape:version="1.4.3 (0d15f75042, 2025-12-25)"
   xml:space="preserve"
   xmlns:inkscape="http://www.inkscape.org/namespaces/inkscape"
   xmlns:sodipodi="http://sodipodi.sourceforge.net/DTD/sodipodi-0.dtd"
   xmlns="http://www.w3.org/2000/svg"
   xmlns:svg="http://www.w3.org/2000/svg"><defs
     id="defs3" /><sodipodi:namedview
     id="namedview3"
     pagecolor="#ffffff"
     bordercolor="#000000"
     borderopacity="0.25"
     inkscape:showpageshadow="2"
     inkscape:pageopacity="0.0"
     inkscape:pagecheckerboard="0"
     inkscape:deskcolor="#d1d1d1"
     inkscape:document-units="pt"
     inkscape:zoom="1.00375"
     inkscape:cx="74.719801"
     inkscape:cy="151.43213"
     inkscape:window-width="1848"
     inkscape:window-height="1011"
     inkscape:window-x="0"
     inkscape:window-y="0"
     inkscape:window-maximized="1"
     inkscape:current-layer="svg3" /><path
     d="M 60.211347,54.673823 41.213897,46.524005 C 32.788294,42.907149 23.163935,44.777354 16.700708,51.244009 l 4.320668,4.320668 c 4.688382,-4.688382 11.67499,-6.035696 17.774175,-3.432999 l 18.997446,8.149816 c 2.849802,1.226702 5.851839,1.806957 8.793321,1.806957 5.75991,0 11.431075,-2.2666 15.719872,-6.526961 l -4.320668,-4.320668 c -4.688382,4.688382 -11.67499,6.035696 -17.774175,3.433001 z M 38.820679,21.516235 57.818124,29.666053 c 2.849801,1.226701 5.851839,1.806956 8.793322,1.806956 5.75991,0 11.431075,-2.266599 15.71987,-6.526961 L 78.01065,20.62538 c -4.688382,4.688382 -11.674991,6.035696 -17.774177,3.433001 L 41.239024,15.908563 c -8.425603,-3.616856 -18.049962,-1.74665 -24.513189,4.720005 l 4.320668,4.320668 C 25.734884,20.260854 32.721492,18.91354 38.820679,21.516235 Z M 60.211347,39.350473 41.213897,31.200655 C 32.788294,27.583799 23.163935,29.454005 16.700708,35.92066 l 4.320668,4.320668 c 4.688382,-4.688382 11.67499,-6.035696 17.774175,-3.433001 l 18.997446,8.149822 c 2.849802,1.226697 5.851839,1.806956 8.793321,1.806956 5.75991,0 11.431075,-2.266603 15.719872,-6.526965 l -4.320668,-4.320663 c -4.688382,4.688382 -11.67499,6.035691 -17.774175,3.432996 z"
     fill="#4c4c4c"
     id="path1"
     style="stroke-width:0.061286" /></svg>
