<?xml version="1.0" encoding="UTF-8" standalone="no"?>
<svg
   width="128"
   height="100"
   version="1.1"
   viewBox="0 0 96 75"
   id="svg8"
   sodipodi:docname="forearm.svg"
   inkscape:version="1.4.3 (0d15f75042, 2025-12-25)"
   xml:space="preserve"
   xmlns:inkscape="http://www.inkscape.org/namespaces/inkscape"
   xmlns:sodipodi="http://sodipodi.sourceforge.net/DTD/sodipodi-0.dtd"
   xmlns="http://www.w3.org/2000/svg"
   xmlns:svg="http://www.w3.org/2000/svg"><defs
     id="defs8" /><sodipodi:namedview
     id="namedview8"
     pagecolor="#ffffff"
     bordercolor="#000000"
     borderopacity="0.25"
     inkscape:showpageshadow="2"
     inkscape:pageopacity="0.0"
     inkscape:pagecheckerboard="0"
     inkscape:deskcolor="#d1d1d1"
     inkscape:document-units="pt"
     inkscape:zoom="2.8390337"
     inkscape:cx="18.316091"
     inkscape:cy="55.300506"
     inkscape:window-width="1848"
     inkscape:window-height="1011"
     inkscape:window-x="0"
     inkscape:window-y="0"
     inkscape:window-maximized="1"
     inkscape:current-layer="g2" /><g
     id="g1"><g
       id="g2"><path
         d="m 46.048552,22.707529 c 0.155953,1.39974 0.805319,2.698543 1.832276,3.662606 0.292015,0.274331 0.663575,0.449221 1.061362,0.499102 0.397773,0.04988 0.800905,-0.02777 1.151637,-0.221616 2.673897,-1.47708 4.741668,-3.84953 5.839318,-6.700493 0.32263,-0.837829 0.337468,-1.762771 0.04135,-2.610458 -0.296123,-0.847602 -0.883645,-1.562667 -1.657707,-2.016939 -3.070382,-1.80164 -6.383214,-3.153703 -9.836986,-4.015284 -0.743769,-0.185629 -1.531396,-0.02372 -2.140998,0.4407 -6.23863,4.748937 -11.34987,10.81891 -14.96722,17.775593 -3.617343,6.956689 -5.652142,14.626177 -5.957709,22.461334 -0.815765,0.661057 -1.348342,1.609387 -1.488155,2.650223 -0.139855,1.041158 0.123429,2.096217 0.735871,2.949479 0.61275,0.853017 1.527919,1.439826 2.558975,1.640329 3.177385,0.911048 6.359533,1.805446 9.546047,2.683355 7.440778,1.922222 15.272711,1.710078 22.597916,-0.612436 7.325856,-2.322506 13.849527,-6.661385 18.822974,-12.520095 1.554748,-1.830982 2.076586,-4.324979 1.385846,-6.625665 -0.690419,-2.301092 -2.499335,-4.095456 -4.805433,-4.767853 -2.790994,-0.812931 -5.772724,-0.678414 -8.479263,0.383249 -2.706064,1.061362 -4.98444,2.989887 -6.478254,5.483807 -1.923194,-2.224074 -4.643802,-3.602315 -7.574693,-3.837818 -2.930569,-0.235189 -5.836485,0.691363 -8.089732,2.579829 -0.256029,-6.864637 0.662631,-13.722649 2.716809,-20.277676 0.03253,-0.103868 0.107961,-0.188462 0.207408,-0.232663 0.09913,-0.04421 0.212773,-0.04358 0.311583,0.0014 z"
         fill="#4c4c4c"
         id="path1"
         style="stroke-width:0.0808167" /></g></g></svg>
