<?xml version="1.0" encoding="UTF-8" standalone="no"?>
<svg
   width="128"
   height="100"
   version="1.1"
   viewBox="0 0 96 75"
   id="svg1"
   sodipodi:docname="forest.svg"
   inkscape:version="1.4.2 (ebf0e940d0, 2025-05-08)"
   xmlns:inkscape="http://www.inkscape.org/namespaces/inkscape"
   xmlns:sodipodi="http://sodipodi.sourceforge.net/DTD/sodipodi-0.dtd"
   xmlns="http://www.w3.org/2000/svg"
   xmlns:svg="http://www.w3.org/2000/svg">
  <defs
     id="defs1" />
  <sodipodi:namedview
     id="namedview1"
     pagecolor="#ffffff"
     bordercolor="#000000"
     borderopacity="0.25"
     inkscape:showpageshadow="2"
     inkscape:pageopacity="0.0"
     inkscape:pagecheckerboard="0"
     inkscape:deskcolor="#d1d1d1"
     inkscape:document-units="pt"
     inkscape:zoom="4.015"
     inkscape:cx="76.712329"
     inkscape:cy="62.391034"
     inkscape:window-width="1862"
     inkscape:window-height="1011"
     inkscape:window-x="0"
     inkscape:window-y="0"
     inkscape:window-maximized="1"
     inkscape:current-layer="svg1" />
  <path
     d="m 83.91163,68.156604 h -2.62859 c -0.26286,-1.3143 -1.05144,-2.6286 -2.36573,-3.94289 -2.10288,-2.10288 -3.94289,-2.10288 -5.52005,-2.10288 -1.05144,-1.3143 -2.36573,-2.10287 -3.94289,-2.62859 v -9.20078 h 9.98866 c 0.52571,0 1.05143,-0.26286 1.05143,-0.78858 0,-0.52572 0.26286,-1.05143 0,-1.31429 l -4.99432,-7.09721 h 1.05143 c 0.52572,0 1.05144,-0.26285 1.05144,-0.78857 0,-0.52572 0.26286,-1.05144 0,-1.3143 l -5.52004,-7.62292 h 0.52571 c 0.52572,0 1.05144,-0.26286 1.05144,-0.78858 0.26286,-0.52572 0.26286,-1.05144 0,-1.31429 l -6.57148,-8.4115 c -0.52572,-0.78858 -1.57716,-0.78858 -2.10288,0 l -6.30862,8.67365 c -0.26286,0.52572 -0.26286,1.05144 0,1.3143 0.26286,0.52572 0.78858,0.78858 1.05144,0.78858 h 0.52572 l -5.52005,7.62292 c -0.26286,0.52572 -0.26286,1.05144 0,1.3143 0.26286,0.52571 0.78858,0.78857 1.05144,0.78857 h 1.05143 l -4.99432,7.0972 c -0.26286,0.52572 -0.26286,1.05144 0,1.3143 0.26286,0.52572 0.78858,0.78858 1.05143,0.78858 h 9.98866 v 8.93722 c -1.05144,0.26286 -1.84002,0.78857 -2.62859,1.31429 -1.3143,0.78858 -2.6286,0.78858 -3.68003,-0.26286 -4.20575,-3.94289 -11.0401,-4.20575 -15.50941,-0.52571 -1.31429,-0.26286 -2.89145,0 -4.20575,0.52571 V 47.125754 H 50.5278 c 0.52572,0 1.05144,-0.26286 1.05144,-0.78858 0,-0.52572 0.26286,-1.05144 0,-1.3143 l -7.36006,-9.98865 h 2.36573 c 0.52572,0 1.05144,-0.26286 1.05144,-0.78858 0.26286,-0.52572 0.26286,-1.05144 0,-1.3143 l -7.88578,-10.77653 h 1.57715 c 0.52572,0 1.05144,-0.26286 1.05144,-0.78858 0,-0.52571 0.26286,-1.05143 0,-1.31429 L 33.967662,8.4861344 c -0.262859,-0.52572 -0.788578,-0.78858 -1.314296,-0.78858 -0.525719,0 -0.788578,0.26286 -1.051438,0.52572 L 23.19043,19.789084 c -0.262859,0.52572 -0.262859,1.05144 0,1.57715 0.262859,0.52572 0.788578,0.78858 1.051437,0.78858 h 1.577156 l -7.885779,10.77653 c -0.26286,0.52572 -0.26286,1.05144 0,1.3143 0.262859,0.52572 0.788578,0.78858 1.051437,0.78858 h 2.365734 l -7.360061,9.98865 c -0.262859,0.52572 -0.262859,1.05144 0,1.3143 0.262859,0.26286 0.525719,0.78858 1.051437,0.78858 h 13.668685 v 13.14296 c -1.577156,0.52572 -2.891453,1.3143 -4.205749,2.36574 -0.788578,-0.26286 -1.314297,-0.26286 -2.102875,-0.26286 -3.417171,0 -6.308624,2.62859 -7.097201,6.04576 h -2.628594 c -0.525718,-0.26286 -1.051437,0.26286 -1.051437,1.05144 0,0.78858 0.525719,1.3143 1.314297,1.3143 H 83.91093 c 0.78858,0 1.3143,-0.52572 1.3143,-1.3143 0,-0.78858 -0.52572,-1.3143 -1.3143,-1.3143 z m -49.679706,-7.88578 c -1.051438,-0.26286 -1.840016,-0.52572 -2.891453,-0.52572 v -12.61725 h 2.891453 z m 32.594556,-1.3143 h -1.57716 v -8.4115 h 1.57716 z"
     fill="#4c4c4c"
     id="path1"
     style="stroke-width:0.0700958" />
</svg>
