<?xml version="1.0" encoding="UTF-8" standalone="no"?>
<svg
   width="128"
   height="100"
   version="1.1"
   viewBox="0 0 96 75"
   id="svg8"
   sodipodi:docname="foreleg.svg"
   inkscape:version="1.4.3 (0d15f75042, 2025-12-25)"
   xml:space="preserve"
   xmlns:inkscape="http://www.inkscape.org/namespaces/inkscape"
   xmlns:sodipodi="http://sodipodi.sourceforge.net/DTD/sodipodi-0.dtd"
   xmlns="http://www.w3.org/2000/svg"
   xmlns:svg="http://www.w3.org/2000/svg"><defs
     id="defs8" /><sodipodi:namedview
     id="namedview8"
     pagecolor="#ffffff"
     bordercolor="#000000"
     borderopacity="0.25"
     inkscape:showpageshadow="2"
     inkscape:pageopacity="0.0"
     inkscape:pagecheckerboard="0"
     inkscape:deskcolor="#d1d1d1"
     inkscape:document-units="pt"
     inkscape:zoom="2.0075"
     inkscape:cx="23.412204"
     inkscape:cy="97.633874"
     inkscape:window-width="1848"
     inkscape:window-height="1011"
     inkscape:window-x="0"
     inkscape:window-y="0"
     inkscape:window-maximized="1"
     inkscape:current-layer="g2" /><g
     id="g1"><g
       id="g2"><path
         d="m 76.027962,15.077125 c 0,-1.710789 -1.381928,-3.089691 -3.074627,-3.089691 H 39.163052 c -4.501812,0 -8.57776,2.682369 -10.370422,6.834014 -0.356036,0.829772 -0.612507,1.69875 -0.766376,2.588836 l -7.588408,44.38407 c -0.162931,0.950464 0.567246,1.807339 1.511629,1.807339 h 7.11144 c 0.476728,0 0.923305,-0.220264 1.215987,-0.603456 l 6.99429,-9.136475 c 1.656462,-2.163364 2.712558,-4.72504 3.059502,-7.428779 l 1.206913,-9.359189 c 0.503883,-3.889281 4.450506,-6.339275 8.156144,-5.038838 l 10.065312,3.542266 c 0.199142,0.0694 0.404312,0.117674 0.615525,0.14483 l 8.512101,1.122461 h 4.067322 c 1.692699,0 3.074626,-1.378906 3.074626,-3.089694 z m -34.264035,1.35779 c 0.319833,-0.793536 1.219011,-1.179746 2.009521,-0.859897 0.793536,0.316815 1.179749,1.215986 0.859901,2.006496 -0.89009,2.226768 -4.006944,6.996865 -9.728022,9.350179 -0.787488,0.325866 -1.692702,-0.05129 -2.015508,-0.838785 -0.325866,-0.787488 0.05129,-1.692703 0.838785,-2.015509 4.785419,-1.970259 7.383075,-6.007392 8.034487,-7.642484 z"
         fill="#4c4c4c"
         id="path1"
         style="stroke-width:0.0643687" /></g></g></svg>
