<?xml version="1.0" encoding="UTF-8" standalone="no"?>
<svg
   width="128"
   height="100"
   version="1.1"
   viewBox="0 0 96 75"
   id="svg1"
   sodipodi:docname="gliding.svg"
   inkscape:version="1.4.2 (ebf0e940d0, 2025-05-08)"
   xmlns:inkscape="http://www.inkscape.org/namespaces/inkscape"
   xmlns:sodipodi="http://sodipodi.sourceforge.net/DTD/sodipodi-0.dtd"
   xmlns="http://www.w3.org/2000/svg"
   xmlns:svg="http://www.w3.org/2000/svg">
  <defs
     id="defs1" />
  <sodipodi:namedview
     id="namedview1"
     pagecolor="#ffffff"
     bordercolor="#000000"
     borderopacity="0.25"
     inkscape:showpageshadow="2"
     inkscape:pageopacity="0.0"
     inkscape:pagecheckerboard="0"
     inkscape:deskcolor="#d1d1d1"
     inkscape:document-units="pt"
     inkscape:zoom="2.0875"
     inkscape:cx="57.964072"
     inkscape:cy="81.676647"
     inkscape:window-width="1920"
     inkscape:window-height="1043"
     inkscape:window-x="0"
     inkscape:window-y="0"
     inkscape:window-maximized="1"
     inkscape:current-layer="svg1" />
  <path
     d="m 64.149647,15.070087 c -1.378359,-0.788869 -3.0283,-1.160867 -4.508725,-0.850875 l -37.44574,3.658918 c -2.96044,0.510423 -5.820866,1.357546 -7.442491,4.166125 l -3.228751,5.592647 19.944703,2.678725 -2.809119,4.865287 c -0.54087,0.936927 -0.179581,2.282209 0.757874,2.823617 l 10.745404,6.204103 2.066302,-3.579284 -8.954391,-5.169867 2.631658,-4.557844 17.733636,2.371966 10.892896,14.155709 -2.603879,4.573995 -8.954389,-5.169856 -2.066302,3.579293 10.745404,6.204102 c 0.937991,0.541408 2.283304,0.181183 2.824166,-0.755734 l 2.797343,-4.909617 12.303958,15.976827 3.196595,-5.536542 C 84.425204,58.535599 83.365848,54.1797 82.333253,52.076591 L 67.088435,18.445479 C 66.636276,17.04838 65.52783,15.859256 64.148924,15.070877 Z M 50.673674,38.346427 C 48.85488,37.296197 46.56583,37.167924 45.053249,39.87392 l -4.133014,7.158029 c -1.071061,1.768033 -0.303583,4.596987 1.487403,5.631094 1.791015,1.034188 4.606015,0.273108 5.676519,-1.494925 l 4.133014,-7.158039 c 1.512034,-2.705947 0.21967,-4.645548 -1.543497,-5.663242 z"
     fill="#4c4c4c"
     id="path1"
     style="stroke-width:0.136824" />
</svg>
