<?xml version="1.0" encoding="UTF-8" standalone="no"?>
<svg
   width="128"
   height="100"
   version="1.1"
   viewBox="0 0 96 75"
   id="svg10"
   sodipodi:docname="grasses.svg"
   inkscape:version="1.4.3 (0d15f75042, 2025-12-25)"
   xml:space="preserve"
   xmlns:inkscape="http://www.inkscape.org/namespaces/inkscape"
   xmlns:sodipodi="http://sodipodi.sourceforge.net/DTD/sodipodi-0.dtd"
   xmlns="http://www.w3.org/2000/svg"
   xmlns:svg="http://www.w3.org/2000/svg"><defs
     id="defs10" /><sodipodi:namedview
     id="namedview10"
     pagecolor="#ffffff"
     bordercolor="#000000"
     borderopacity="0.25"
     inkscape:showpageshadow="2"
     inkscape:pageopacity="0.0"
     inkscape:pagecheckerboard="0"
     inkscape:deskcolor="#d1d1d1"
     inkscape:document-units="pt"
     inkscape:zoom="2.0075"
     inkscape:cx="68.991283"
     inkscape:cy="-101.1208"
     inkscape:window-width="1848"
     inkscape:window-height="1011"
     inkscape:window-x="0"
     inkscape:window-y="0"
     inkscape:window-maximized="1"
     inkscape:current-layer="svg10" /><path
     d="M 84.473354,31.598997 C 75.203109,34.688868 69.9272,43.168106 64.977066,54.871581 61.985248,56.933459 58.755749,60.22837 56.857204,63.86485 57.25532,62.195112 57.647517,60.754188 58.048592,59.48256 64.721449,41.48715 71.837339,29.83501 84.472535,31.599566 Z M 69.877129,26.628455 C 61.06513,34.93276 55.672598,40.637137 53.061257,55.25428 c 0,0.0031 -0.0031,0.0063 -0.0031,0.0089 v 0.0089 c -1.036864,4.62587 -1.182454,7.887883 -1.384515,12.406378 l -0.02378,0.51993 3.499887,0.01489 c 0,-0.02972 -0.0056,-0.06238 0,-0.0921 0.754626,-3.731617 1.440924,-6.539118 2.16291,-8.829742 0.45754,-10.181679 4.248556,-20.090179 12.564843,-32.663256 z M 52.306381,55.150334 c 0.160431,-8.776498 -4.750668,-21.561271 -10.763524,-28.771603 3.853432,8.042532 5.63605,21.486481 4.524902,28.95858 0.78435,3.517699 1.384515,7.61471 1.880664,12.846894 l 2.944288,0.01189 c 0,-0.0063 -0.0031,-0.01189 -0.0031,-0.01783 l 0.02378,-0.534783 c 0.205001,-4.53973 0.35355,-7.828934 1.393393,-12.493212 z m 13.197392,0.279273 -0.0031,0.0031 c -3.96334,2.703617 -8.393042,7.641325 -9.352645,12.58512 -0.01483,0.08022 -0.05643,0.145584 -0.112899,0.199058 l 3.580071,0.01489 c 3.170111,-6.987868 8.606634,-12.516674 16.581349,-16.848199 -3.981144,0.463484 -7.493012,1.794468 -10.689995,4.046558 h -0.0031 z m -20.188425,0.01189 C 40.745887,36.393949 32.910866,29.57278 20.756739,22.025891 c 9.593496,10.529642 15.404985,20.395679 18.71416,31.692247 0.0031,0.0056 0,0.01189 0.0031,0.01483 0,0.0031 0.0031,0.0063 0.0056,0.01189 1.170604,5.451863 1.934164,9.527577 2.697661,14.412423 l 5.009145,0.02077 C 46.693275,62.98764 46.096101,58.926185 45.314728,55.441445 Z M 19.740728,42.803131 c 10.084071,5.012117 15.161599,13.491486 19.867077,25.345812 l 1.797446,0.0063 C 40.653603,63.362938 39.898915,59.333685 38.752149,53.98615 34.072786,47.417244 27.68502,43.661859 19.740728,42.803037 Z"
     fill="#4c4c4c"
     id="path1"
     style="stroke-width:0.0633818" /></svg>
