<?xml version="1.0" encoding="UTF-8" standalone="no"?>
<svg
   width="128"
   height="100"
   version="1.1"
   viewBox="0 0 96 75"
   id="svg3"
   sodipodi:docname="helmets.svg"
   inkscape:version="1.4.3 (0d15f75042, 2025-12-25)"
   xml:space="preserve"
   xmlns:inkscape="http://www.inkscape.org/namespaces/inkscape"
   xmlns:sodipodi="http://sodipodi.sourceforge.net/DTD/sodipodi-0.dtd"
   xmlns="http://www.w3.org/2000/svg"
   xmlns:svg="http://www.w3.org/2000/svg"><defs
     id="defs3" /><sodipodi:namedview
     id="namedview3"
     pagecolor="#ffffff"
     bordercolor="#000000"
     borderopacity="0.25"
     inkscape:showpageshadow="2"
     inkscape:pageopacity="0.0"
     inkscape:pagecheckerboard="0"
     inkscape:deskcolor="#d1d1d1"
     inkscape:document-units="pt"
     inkscape:zoom="2.0075"
     inkscape:cx="7.9701122"
     inkscape:cy="156.91158"
     inkscape:window-width="1848"
     inkscape:window-height="1011"
     inkscape:window-x="0"
     inkscape:window-y="0"
     inkscape:window-maximized="1"
     inkscape:current-layer="svg3" /><g
     id="g1"
     transform="matrix(0.07342157,0,0,0.07342157,6.5486008,-6.2209168)"><path
       d="m 446.39,308.39 c 31.219,-1.2188 46.781,-14.391 48,-18 -1.2188,-3.6094 -15.609,-13.219 -43.219,-13.219 h -6 c -31.219,1.2188 -48,14.391 -48,18 1.2188,3.6094 18.047,15.609 49.219,13.219 z"
       fill="#4c4c4c"
       id="path1" /><path
       d="m 624,481.22 c 15.609,33.609 26.391,68.391 33.609,104.39 15.609,-3.6094 31.219,-7.2188 49.219,-9.6094 37.219,-6 76.781,-7.2188 117.61,-2.3906 -4.7812,-40.781 -20.391,-102 -64.781,-157.22 -79.219,-97.219 -193.22,-108 -235.22,-111.61 -2.3906,7.2188 -8.3906,14.391 -20.391,20.391 39.562,33.609 86.344,84.047 119.95,156.05 z"
       fill="#4c4c4c"
       id="path2" /><path
       d="m 376.78,321.61 c -52.781,16.781 -99.609,42 -139.22,79.219 -99.562,92.391 -139.18,235.18 -105.56,376.78 22.781,7.2188 45.609,12 69.609,13.219 37.219,2.3906 72,-4.7812 108,-19.219 -12,-176.39 -8.3906,-349.22 85.219,-439.22 -7.2188,-2.3906 -13.219,-6 -18.047,-10.781 z"
       fill="#4c4c4c"
       id="path3" /><path
       d="m 438,697.22 c 54,-36 114,-76.781 187.22,-102 -6,-34.781 -16.781,-68.391 -31.219,-100.78 -36,-76.781 -87.609,-127.22 -126,-156 -6,1.2188 -13.219,2.3906 -19.219,2.3906 h -12 c -99.609,72 -105.61,247.22 -94.781,415.22 32.391,-15.656 63.609,-36.047 96,-58.828 z"
       fill="#4c4c4c"
       id="path4" /><path
       d="m 1028.4,873.61 c 4.7812,-1.2188 48,-19.219 51.609,-52.781 2.3906,-22.781 -14.391,-40.781 -21.609,-49.219 -60,-25.219 -114,-30 -160.78,-15.609 -19.219,6 -33.609,14.391 -50.391,27.609 61.172,72 132,109.17 181.18,90 z"
       fill="#4c4c4c"
       id="path5" /><path
       d="m 588,918 c 40.781,-12 88.781,-48 169.22,-108 18,-13.219 32.391,-24 44.391,-33.609 3.6094,-3.6094 7.2188,-6 10.781,-8.3906 26.391,-20.391 45.609,-33.609 74.391,-43.219 30,-9.6094 63.609,-12 97.219,-7.2188 l -147.61,-108 c -43.219,-6 -85.219,-6 -124.78,0 -106.78,15.609 -182.39,66 -255.61,115.22 -33.609,22.781 -66,44.391 -100.78,62.391 160.78,151.22 204,140.44 232.78,130.82 z"
       fill="#4c4c4c"
       id="path6" /></g></svg>
