<?xml version="1.0" encoding="UTF-8" standalone="no"?>
<svg
   width="128"
   height="100"
   version="1.1"
   viewBox="0 0 96 75"
   id="svg3"
   sodipodi:docname="hipwear.svg"
   inkscape:version="1.4.3 (0d15f75042, 2025-12-25)"
   xml:space="preserve"
   xmlns:inkscape="http://www.inkscape.org/namespaces/inkscape"
   xmlns:sodipodi="http://sodipodi.sourceforge.net/DTD/sodipodi-0.dtd"
   xmlns="http://www.w3.org/2000/svg"
   xmlns:svg="http://www.w3.org/2000/svg"><defs
     id="defs3" /><sodipodi:namedview
     id="namedview3"
     pagecolor="#ffffff"
     bordercolor="#000000"
     borderopacity="0.25"
     inkscape:showpageshadow="2"
     inkscape:pageopacity="0.0"
     inkscape:pagecheckerboard="0"
     inkscape:deskcolor="#d1d1d1"
     inkscape:document-units="pt"
     inkscape:zoom="1.4195169"
     inkscape:cx="-98.625106"
     inkscape:cy="128.21264"
     inkscape:window-width="1848"
     inkscape:window-height="1011"
     inkscape:window-x="0"
     inkscape:window-y="0"
     inkscape:window-maximized="1"
     inkscape:current-layer="svg3" /><g
     id="g1"
     transform="matrix(0.0650536,0,0,0.0650536,8.4634178,-0.7527982)"><path
       d="m 1058.8,475.55 -0.047,0.14062 v 0.0469 z m 38.531,14.203 -0.047,0.1875 h -0.047 z m 0.9844,0.89062 -0.047,0.14062 z m -642.66002,21.234 0.0469,0.0469 z m -209.44,5.5781 v 0.0937 l -0.0469,-0.0937 h -0.0469 z m 355.36,0.28125 v 0.1875 l -0.0937,-0.1875 z m -166.6,3.5625 0.0469,0.14062 -0.0469,-0.0937 h -0.0937 l 0.0469,-0.0469 z m -12.656,24.469 h -0.0469 z m 146.02,-107.62 c -52.594,0 -98.25,1.4531 -140.34,3.75 -55.266,3 -105,7.4531 -144,11.719 -38.953,4.2656 -67.594,8.3906 -95.766,13.312 -28.828,5.0625 -55.406,10.734 -70.922,18.938 v 0.0469 c -8.4844,4.4531 -10.688,8.0625 -11.016,9.1406 l 0.0469,0.1875 0.1875,0.32812 -0.0937,0.1875 c 0.42188,0.70312 1.5938,2.1094 4.5938,3.9844 v 0.0469 c 14.344,9.0469 50.859,17.156 77.766,22.5 22.781,4.5469 35.484,6.6094 47.156,8.3438 l 0.1875,-0.0469 0.65625,-0.5625 0.0937,-0.0937 c 2.0156,-4.8281 5.2969,-9.1875 9.5156,-12.375 5.25,-4.0312 11.766,-6.1875 18.328,-6.1875 0.89062,0 1.875,0.0469 2.7188,0.0937 v 0.0469 h 0.1875 l 20.297,2.2031 v 0.0469 l 0.51562,0.0469 h 0.0469 c 7.8281,1.2656 15.141,5.2969 20.438,11.203 3.3281,3.7031 5.7656,8.1562 7.2656,12.891 l 0.0937,0.14062 0.60938,0.375 0.0469,-0.14062 v 0.14062 c 10.125,0.98438 21.188,1.9688 37.359,3.2812 h 0.32812 c 0.14062,0 0.0937,0 0.23438,0.0469 h 0.23438 c 17.578,1.3594 37.594,2.7656 60.891,4.4062 1.5469,0.14062 2.0156,0.14062 2.0156,0.14062 0.28125,0.0469 0.70312,0.0469 1.2188,0.0937 l 2.2031,0.14062 0.1875,-0.0469 0.60938,-0.5625 0.0469,-0.14062 0.0469,-0.0469 c 1.0781,-9.32809 5.6719,-18.188 12.844,-24.328 h 0.0469 -0.0469 c 5.4375,-4.6875 12.188,-7.7344 19.266,-8.7188 l 1.5,-0.0937 h 0.14062 c 0.1875,0 0.32812,0 0.60938,0.0469 h 0.0469 c 47.391,3.5625 94.781,5.3438 142.31,5.3438 h 2.5312 c 46.078,-0.0937 92.109,-1.8281 138.14,-5.2031 l 0.0469,-0.0469 h 0.0937 c 1.1719,-0.14062 2.5312,-0.1875 3.6562,-0.1875 7.7812,0 15.516,2.76559 21.46901,7.9219 l 0.0469,0.0469 c 7.2656,6.3281 11.438,15.797 11.25,25.406 l 0.0469,0.14062 0.5625,0.5625 0.1875,0.0937 c 31.5,-1.4062 63.14099,-2.9531 96.844,-5.9062 36.797,-3.1875 76.078,-8.0625 108.19,-12.328 l 0.1875,-0.0469 v 0.0469 c 32.109,-4.3125 55.828,-7.875 76.219,-13.266 20.953,-5.5312 35.719,-12.328 40.969,-17.812 l -0.047,0.0469 0.094,-0.0937 c 0.047,-0.0469 0.094,-0.0469 0.094,-0.0937 v 0.0469 c 0,-0.0469 0.047,-0.0937 0.1875,-0.23438 l 0.1875,-0.1875 c 1.6875,-1.7812 1.875,-3.0469 -1.4531,-6.1875 v -0.0469 h -0.047 l -0.1406,-0.0469 0.1406,0.0469 c -0.3281,-0.28125 -0.6094,-0.5625 -0.9844,-0.84375 l -0.047,-0.0469 c -5.6719,-4.6406 -16.078,-8.625 -38.578,-14.25 h -0.094 v -0.0469 l 0.047,0.0469 c -21.938,-5.4844 -53.391,-12.188 -85.35898,-16.922 -31.922,-4.7344 -64.594,-7.6406 -126.14,-11.156 h -0.14062 c -61.641,-3.5156 -151.69,-7.5938 -227.29,-8.8594 -18.234,-0.28125 -34.828,-0.42188 -51.562,-0.42188 z"
       fill="#4c4c4c"
       id="path1" /><path
       d="m 911.44,743.44 v 0.0469 z m 0,0.0469 v 0.0469 z m 0,0.0469 -0.0937,0.0937 0.1875,0.0469 z m 0.28125,0.0937 0.0469,0.0937 z m -0.1875,0.0469 0.0937,0.1875 z m 189.24005,-221.58 -0.1407,0.0469 c -10.266,5.4844 -23.438,10.031 -36.703,13.5 -21.797,5.7656 -46.969,9.5156 -78.98397,13.781 -24.422,3.2812 -53.25,6.8906 -81.984,9.8906 v 0.42188 l -0.0937,-0.0469 6.1406,5.9531 h 0.0469 c 5.6719,5.4844 10.172,12.234 13.078,19.594 v 0.0469 l 0.0469,0.32812 0.1875,0.14062 h -0.0469 c 2.4375,6.4219 3.6562,13.266 3.5625,20.203 l 0.14062,-0.1875 h 0.0937 l -0.0937,0.0469 -0.14062,0.14062 v 97.594 l 0.0469,0.0469 h -0.0469 c 0.1875,7.5 -1.0781,14.953 -3.7031,21.984 -2.4844,6.5156 -6.1406,12.609 -10.734,17.859 v 0.0469 h 0.0469 l -0.0469,0.0469 0.0937,0.14062 0.14062,0.0937 -0.0469,0.0937 c 14.016,-1.2656 28.688,-2.625 39.797,-3.75 h 0.0469 c 44.625,-4.5 64.54695,-7.7344 85.40595,-12.562 h 0.047 l 0.1406,-0.0469 c 21.562,-5.0156 43.078,-11.438 54,-17.062 7.3125,-3.7969 8.8125,-6.5156 9.8438,-9.75 l -0.094,0.0469 0.1875,-0.28125 0.047,-178.13 -0.2343,-0.23438 z M 911.63375,743.85437 h -0.0469 z"
       fill="#4c4c4c"
       id="path2" /><path
       d="m 776.81,567.98 -0.14062,0.14062 0.14062,0.14062 z m 124.92,25.266 h 0.14062 l -0.1875,0.0469 v -0.0469 z m -27.891,-31.172 c -33.844,2.8594 -65.672,4.4062 -96.938,5.8125 h -0.0937 v 0.0937 l 0.0469,-0.0469 v 0.1875 h -0.0469 0.0469 v 0.14062 h -0.0469 l -0.14062,-0.14062 -0.70312,186.94 0.23438,0.23438 h 0.0469 c 34.547,-2.8594 71.578,-5.9062 102.28,-8.5312 h 0.0937 l 0.14062,-0.0937 15.656,-16.781 h 0.0469 -0.0469 c 3.2344,-3.4688 5.7656,-7.5469 7.4062,-11.953 l 0.0469,-0.0937 c 1.6406,-4.4531 2.4375,-9.2344 2.2969,-13.969 l -0.0469,-0.375 0.0469,-97.547 v -0.1875 c 0.0469,-4.2656 -0.70312,-8.5312 -2.25,-12.516 l -0.0469,-0.0937 c -1.7344,-4.4531 -4.4531,-8.5781 -7.9219,-11.906 v 0.0469 l -0.0937,-0.14062 -19.734,-19.031 -0.1875,-0.0469 z"
       fill="#4c4c4c"
       id="path3" /><path
       d="m 702.37,577.36 c -28.5,1.3125 -57.234,2.1094 -85.734,2.2969 h -0.0469 c -3.75,0 -10.40599,0.0469 -14.203,0.0469 -32.53099,0 -65.01599,-0.75 -97.547,-2.2031 l -0.32812,-0.0469 c -0.28125,0 -0.60938,-0.0469 -0.84375,-0.0469 -2.9531,0 -5.9062,1.2656 -7.9688,3.2812 -2.1094,2.0625 -3.375,5.1562 -3.3281,8.1094 v 0.14062 l 0.0469,36.375 0.28125,0.23438 0.0469,-0.0469 h 0.0469 c 24.469,1.3594 49.078,2.0156 73.594,2.0156 4.7812,0 8.3438,0 13.078,-0.0469 h 0.14062 c 0.46875,0 1.0781,-0.0469 1.5469,-0.0469 9.9844,0 19.922,3.7031 27.469,10.266 8.0156,6.9844 13.172,17.016 14.203,27.562 1.0781,11.25 -2.5781,22.781 -9.9844,31.359 -7.4063,8.578 -18.281,13.875 -29.578,14.438 h -0.14062 c -13.078,0.46875 -26.062,0.70312 -39.141,0.70312 -17.109,0 -34.125,-0.42188 -51.234,-1.2188 l -0.0469,0.0469 -0.0469,-0.0469 -0.28125,0.23438 0.0469,39.469 -0.0937,1.4531 c -0.32812,2.7656 0.79688,5.9062 2.8594,7.8281 1.5938,1.4062 3.7969,2.2969 5.9531,2.3438 v 0.0469 h 0.46875 -0.0469 c 29.109,1.9219 58.266,3.0469 87.469,3.375 h 0.0469 c 5.57809,0.0469 10.26599,0.0469 15.844,0.0469 32.859,0 65.766,-1.0312 98.578,-3.0938 h 0.0469 l 0.28125,-0.0469 v 0.0469 c 2.3438,-0.14062 4.7344,-1.2188 6.375,-2.9062 v 0.0469 -0.0469 c 1.7344,-1.7812 2.7656,-4.4531 2.625,-6.9375 v -0.51562 l 0.32812,-163.82 -0.0937,0.1875 -0.0937,-0.1875 h 0.23438 c -0.1875,-2.5781 -1.2656,-5.1562 -3.0469,-7.0312 h -0.0469 l -0.0469,-0.14062 c -1.9219,-2.0156 -4.7344,-3.3281 -7.5,-3.4688 h -0.0937 0.0469 l -0.0469,-0.0469 z"
       fill="#4c4c4c"
       id="path4" /><path
       d="m 743.53,533.68 c -0.42188,0 -0.89062,0.0469 -1.2656,0.0937 l -0.5625,0.0469 c -46.641,3.4688 -93.328,5.25 -140.06,5.2969 v 0.0469 l -0.0469,-0.0469 h -2.5312 c -47.578,0 -95.062,-1.7812 -142.5,-5.2969 h -0.1875 c -2.7188,0.5625 -5.2969,1.8281 -7.4062,3.6094 v 0.0469 c -3.6094,3.0469 -5.7656,7.875 -5.7188,12.609 v 0.14062 l -0.0937,71.484 0.28125,0.23438 h 0.0937 c 8.8594,0.79688 18.047,1.5469 26.906,2.2031 l 0.28125,-0.23438 v -0.0469 l -0.0469,-34.688 v -0.0469 c -0.14062,-8.8594 3.4688,-17.625 9.75,-23.859 l 0.0469,-0.0469 c 6.1406,-6.09379 14.625,-9.51559 23.203,-9.51559 0.79688,0 1.6406,0.0469 2.3906,0.0937 h 0.0469 l 0.0937,0.0469 c 32.109,1.4062 64.031,2.1562 96.188,2.1562 4.2656,0 9.7969,-0.0469 14.062,-0.0469 h 0.0469 -0.0469 c 28.5,-0.1875 57,-0.98438 85.453,-2.2969 h 0.79688 c 8.6719,0.23437 17.062,3.9844 23.062,10.26599 5.3438,5.5781 8.5781,12.98401 9.0938,20.672 v 0.75 l -0.32812,164.58001 v 0.0469 l 0.0937,0.0469 h -0.0937 c 0.23438,8.25 -2.9531,16.453 -8.7188,22.40599 v 0.0469 c -5.4375,5.625 -12.984,9 -20.812,9.4219 h -0.14062 c -33.234,2.1094 -66.609,3.1875 -99.938,3.1875 -5.5781,0 -10.5,-0.0469 -16.078,-0.0937 h -0.0469 c -29.438,-0.32812 -58.92201,-1.4531 -88.26601,-3.375 h -0.0469 v -0.0469 c -7.3594,-0.1875 -14.531,-3.0938 -19.969,-8.0625 -6.8906,-6.3281 -10.547,-15.75 -9.8438,-25.031 h -0.0937 l 0.14062,-0.1875 -0.0469,-40.781 -0.14062,0.14062 v -0.375 c -9.0469,-0.65625 -17.76601,-1.3594 -26.76601,-2.1562 h -0.0469 l -0.0469,-0.0469 -0.28125,0.23438 0.0469,72.984 h 0.0469 l -0.0469,0.0469 c 0.32812,4.7344 2.3906,9.4219 5.7188,12.844 h -0.0469 l 0.1875,0.23438 0.23438,0.0937 h -0.0937 c 3.1875,3.0938 7.4531,5.1562 11.812,5.7188 h 0.14062 c 39.938,2.8594 80.39101,4.5 120.47,4.875 h 0.0469 c 6.1406,0.0469 11.859,0.0937 18,0.0937 44.25,0 88.688,-1.5469 132.89,-4.5938 v 0.0469 l 0.32812,-0.0469 c 5.9531,-0.23438 11.906,-3.0938 15.797,-7.6406 l 0.0469,-0.0469 c 3.04691,-3.6094 4.92191,-8.25 5.2031,-12.984 h -0.0469 l 0.0469,-0.14062 0.84375,-231.52 0.0937,-1.0312 c 0.32812,-3.5156 -1.1719,-7.3125 -3.7969,-9.6562 h -0.0937 l -0.0469,-0.14062 c -2.0625,-1.7344 -4.8281,-2.7656 -7.6406,-2.7656 z"
       fill="#4c4c4c"
       id="path5" /><path
       d="m 426.74,642.14 c -1.5938,0 -3.2812,0.65625 -4.4531,1.7344 l -0.0469,0.0469 c -0.89063,0.84375 -1.5469,2.01559 -1.8281,3.2344 l -0.0469,0.0469 -1.2188,24.656 -0.1875,1.4062 v 0.0469 c -0.46875,2.57809 0.42187,5.5312 2.25,7.45309 l 0.0937,0.0937 h -0.0469 c 1.4531,1.5 3.6094,2.5312 5.6719,2.67191 l 0.42187,0.0469 c 18.656,2.0625 37.125,3.6094 55.922,4.6875 20.203,1.1719 40.453,1.7812 60.703,1.7812 12.562,0 25.641,-0.23438 38.156,-0.70312 h 0.0469 c 5.3438,-0.28125 10.688,-2.8594 14.203,-6.9375 v 0.0469 -0.0469 c 3.5156,-4.0781 5.3438,-9.7031 4.8281,-15.094 -0.51563,-4.9688 -2.9531,-9.7969 -6.7031,-13.078 h -0.0937 l -0.0469,-0.14062 c -3.5625,-3.1406 -8.4375,-4.9219 -13.219,-4.9219 h -1.1719 v 0.0469 c -5.0156,0 -8.5781,0.0469 -13.594,0.0469 -25.219,0 -50.625,-0.70312 -75.844,-2.1094 0,0 -5.1562,-0.28125 -6.1406,-0.32812 l -2.3906,-0.14062 -0.0469,-0.0469 h -0.28125 l -0.14063,0.0469 c -0.5625,-0.0469 -1.0781,-0.0469 -1.5938,-0.14062 h -0.0937 v -0.0469 h -0.0937 v 0.0469 c -17.625,-1.1719 -35.156,-2.625 -52.688,-4.3594 h -0.0937 v -0.0469 z"
       fill="#4c4c4c"
       id="path6" /><path
       d="m 318.52,559.82 -0.23438,0.23438 -0.98438,186.56 0.28125,0.23438 0.0937,0.0469 c 18,1.5 36.469,3.04691 54.047,4.2656 16.781,1.1719 33.141,2.0625 49.734,2.9062 l 0.23438,-0.23438 v -48.938 l -0.14062,0.14062 v -0.375 c -6.0938,-1.26559 -11.812,-4.4062 -16.078,-8.9062 h -0.0937 l -0.0469,-0.1875 c -6.14061,-6.5625 -9.0938,-15.75 -7.9688,-24.609 h -0.0469 l 0.14062,-0.1875 1.2188,-24.656 0.0469,-0.70312 c 0.75,-6.6094 3.8906,-12.844 8.7656,-17.391 v -0.0469 0.0469 c 3.8438,-3.6094 8.625,-6.0469 13.73399,-7.0312 l 0.0469,-0.0469 0.1875,-0.23438 0.0469,-52.734 -0.0937,0.14062 -0.0469,-0.42188 c -25.594,-1.7812 -48.844,-3.4219 -67.922,-4.875 h -0.0937 v -0.0469 h -0.65625 l -0.0469,-0.0469 c -14.484,-1.125 -24.703,-2.0625 -34.031,-2.9062 z"
       fill="#4c4c4c"
       id="path7" /><path
       d="m 264.74,532.5 c -1.9688,0 -3.9844,0.65625 -5.4844,1.8281 l -0.0469,0.0469 c -2.1094,1.5938 -3.5156,4.4531 -3.5156,7.125 v 0.0469 l -0.0469,208.26 -0.0937,1.5 c -0.46875,3.3281 0.70312,7.0312 3,9.5625 l 0.0937,0.0469 h -0.0469 c 1.7812,1.875 4.2188,3.1875 6.75,3.6094 h 0.0937 l 18.141,1.92191 1.2188,0.1875 h 0.0469 c 0.51563,0.0937 1.0312,0.14062 1.5469,0.14062 2.2969,0 4.5469,-0.84375 6.0938,-2.2031 v -0.0469 0.0469 c 1.7812,-1.5938 2.9531,-4.0781 3.0469,-6.4219 v -0.0469 l 1.0781,-208.08 0.0469,-0.75 c 0.23438,-3.6094 -1.0781,-7.4531 -3.4688,-10.172 -2.0156,-2.2031 -4.7344,-3.7969 -7.6875,-4.3594 l -0.0469,0.0469 v -0.0469 l -19.922,-2.2031 c -0.32812,-0.0469 -0.51562,-0.0469 -0.79687,-0.0469 z"
       fill="#4c4c4c"
       id="path8" /><path
       d="m 107.2,521.63 -0.28125,0.32812 0.14062,180.71 0.28125,0.23438 H 107.2 c 0.70312,0.70312 2.1094,1.8281 4.9219,3.5156 7.8281,4.6875 23.812,11.953 46.031,17.719 21.141,5.4375 47.906,9.4688 75.516,13.5 l 0.375,-0.28125 0.0469,-185.39 -0.1875,0.23438 v -0.5625 c -12.18799,-1.8281 -25.312,-3.8906 -49.21899,-8.6719 -22.07801,-4.3594 -56.672,-11.672 -77.297,-21.281 l -0.0937,-0.0469 z"
       fill="#4c4c4c"
       id="path9" /></g></svg>
