<?xml version="1.0" encoding="UTF-8" standalone="no"?>
<svg
   viewBox="0 0 127.99999 128"
   version="1.1"
   x="0px"
   y="0px"
   id="svg5534"
   sodipodi:docname="history.svg"
   width="128"
   height="128"
   inkscape:version="1.2.2 (b0a8486541, 2022-12-01)"
   xmlns:inkscape="http://www.inkscape.org/namespaces/inkscape"
   xmlns:sodipodi="http://sodipodi.sourceforge.net/DTD/sodipodi-0.dtd"
   xmlns="http://www.w3.org/2000/svg"
   xmlns:svg="http://www.w3.org/2000/svg">
  <defs
     id="defs5538" />
  <sodipodi:namedview
     id="namedview5536"
     pagecolor="#ffffff"
     bordercolor="#000000"
     borderopacity="0.25"
     inkscape:showpageshadow="2"
     inkscape:pageopacity="0.0"
     inkscape:pagecheckerboard="0"
     inkscape:deskcolor="#d1d1d1"
     showgrid="false"
     inkscape:zoom="3.0851995"
     inkscape:cx="67.904847"
     inkscape:cy="59.477515"
     inkscape:window-width="1920"
     inkscape:window-height="1043"
     inkscape:window-x="0"
     inkscape:window-y="0"
     inkscape:window-maximized="1"
     inkscape:current-layer="svg5534" />
  <g
     display="inline"
     id="g5528"
     transform="matrix(14.861828,0,0,14.861828,-4.0476481,-1.3569152)"
     style="fill:#4d4d4d;fill-opacity:1">
    <path
       style="color:#000000;paint-order:fill markers stroke;fill:#4d4d4d;fill-opacity:1"
       d="m 4.658184,1.0585922 c -1.3479754,0 -2.5530096,0.785834 -3.112987,1.972489 L 1.4160063,2.6073342 A 0.26458251,0.26458251 0 0 0 1.0857931,2.4295672 0.26458251,0.26458251 0 0 0 0.91009387,2.7597802 l 0.32401143,1.066085 a 0.26460897,0.26460897 0 0 0 0.3224609,0.177767 L 2.601464,3.7183782 A 0.26458251,0.26458251 0 0 0 2.7869819,3.3922992 0.26458251,0.26458251 0 0 0 2.4624545,3.2067812 l -0.4743899,0.130225 c 0.4560808,-1.050368 1.496732,-1.749248 2.6701194,-1.749248 1.6111378,1e-6 2.9099007,1.299398 2.9099007,2.9099 0,1.610503 -1.2987629,2.910416 -2.9099007,2.910417 -1.3213001,0 -2.4754919,-0.885659 -2.8148148,-2.162142 A 0.26458299,0.26458299 0 0 0 1.5193578,5.0583472 0.26458299,0.26458299 0 0 0 1.3317735,5.3808082 c 0.4003093,1.505911 1.7678533,2.556434 3.3264105,2.556433 1.8970307,0 3.4390673,-1.543009 3.4390673,-3.439583 0,-1.896573 -1.5420366,-3.439065 -3.4390673,-3.439066 z m -0.1741488,1.659847 a 0.26458399,0.26458399 0 0 0 -0.2635488,0.263549 v 1.949235 a 0.26461045,0.26461045 0 0 0 0.1328076,0.230477 l 1.2402344,0.705384 a 0.26458399,0.26458399 0 0 0 0.3612171,-0.09974 0.26458399,0.26458399 0 0 0 -0.099735,-0.361218 L 4.7496531,4.7772282 v -1.79524 A 0.26458399,0.26458399 0 0 0 4.4840352,2.7184392 Z"
       fill="#000000"
       fill-rule="evenodd"
       stroke-width="1"
       stroke-linecap="round"
       stroke-linejoin="round"
       id="path5526" />
  </g>
</svg>
