<?xml version="1.0" encoding="UTF-8" standalone="no"?>
<svg
   width="128"
   height="100"
   version="1.1"
   viewBox="0 0 96 75"
   id="svg3"
   sodipodi:docname="jackets.svg"
   inkscape:version="1.4.3 (0d15f75042, 2025-12-25)"
   xml:space="preserve"
   xmlns:inkscape="http://www.inkscape.org/namespaces/inkscape"
   xmlns:sodipodi="http://sodipodi.sourceforge.net/DTD/sodipodi-0.dtd"
   xmlns="http://www.w3.org/2000/svg"
   xmlns:svg="http://www.w3.org/2000/svg"><defs
     id="defs3" /><sodipodi:namedview
     id="namedview3"
     pagecolor="#ffffff"
     bordercolor="#000000"
     borderopacity="0.25"
     inkscape:showpageshadow="2"
     inkscape:pageopacity="0.0"
     inkscape:pagecheckerboard="0"
     inkscape:deskcolor="#d1d1d1"
     inkscape:document-units="pt"
     inkscape:zoom="2.8390337"
     inkscape:cx="109.89655"
     inkscape:cy="10.566976"
     inkscape:window-width="1848"
     inkscape:window-height="1011"
     inkscape:window-x="0"
     inkscape:window-y="0"
     inkscape:window-maximized="1"
     inkscape:current-layer="svg3" /><g
     id="g1"
     transform="matrix(0.05802985,0,0,0.05802985,14.169125,6.188407)"><path
       d="M 1077.9,1042.5 H 915.53 c 0.98438,54.703 7.0781,86.953 71.109,79.5 62.062,12.609 106.41,-14.438 91.266,-79.5 z"
       fill="#4c4c4c"
       id="path1" /><path
       d="m 833.06,879.14 c -44.859,13.781 -90.891,23.484 -137.53,29.016 v 67.734 c 55.922,-16.781 185.58,-10.031 150.98,-101.02 -4.5,1.4531 -8.9531,2.9531 -13.453,4.2656 z"
       fill="#4c4c4c"
       id="path2" /><path
       d="m 579.56,230.9 v -70.172 c -102.14,-11.203 -63.422,-49.031 16.828,-47.531 81.938,-2.625 130.97,40.172 20.578,48.094 v 70.172 c 67.266,-3.6562 119.62,-17.016 159.61,-58.922 -43.922,-14.344 -47.766,-45.188 -80.812,-75.422 -51.844,-29.25 -198.98,-39.609 -216.89,33.656 -13.922,18.094 -32.25,32.297 -53.297,41.156 39.328,39.609 90.328,53.578 153.98,58.969 z"
       fill="#4c4c4c"
       id="path3" /><path
       d="m 402.94,889.26 c -16.547,-4.1719 -33.609,-8.7188 -49.781,-14.578 -52.547,110.58 236.02,111.47 304.97,105.84 V 911.71 c -85.734,6.6562 -171.94,-0.89062 -255.19,-22.453 z"
       fill="#4c4c4c"
       id="path4" /><path
       d="m 1077,1005 c -5.625,-233.11 -32.812,-465.24 -81.188,-693.32 -22.406,-92.062 -109.31,-101.72 -182.76,-125.16 -42.562,59.766 -124.45,79.5 -196.08,82.5 V 876.1 c 16.922,-0.1875 33.609,-1.1719 50.344,-2.625 59.484,-5.0625 118.17,-17.391 174.71,-36.656 -17.156,-168.42 -8.2031,-322.36 59.484,-468.56 2.625,-5.4375 7.7344,-9.2344 13.688,-10.266 5.9062,-0.98438 12,0.9375 16.266,5.2031 l 0.23437,0.23438 c 5.5312,5.5781 6.9844,14.016 3.5625,21.047 -45.984,105.05 -67.547,219.14 -63.094,333.74 16.219,84.281 29.766,187.92 39.656,286.82002 z"
       fill="#4c4c4c"
       id="path5" /><path
       d="m 268.22,363.14 c 4.2656,-4.2656 10.359,-6.2344 16.312,-5.2031 5.9531,0.98438 11.062,4.8281 13.641,10.266 67.078,145.4 76.594,301.87 59.484,468.66 71.531,24.328 146.34,37.5 221.9,39.094 v -607.64 c -69.797,-4.7812 -147.89,-25.172 -190.82,-82.312 -74.062,23.766 -162.19,32.719 -184.64,126.1 h -0.0469 c -48.703,227.9 -75.891,459.94 -81.188,692.95 h 165 c 26.719,-214.31 74.578,-426.71 -22.922,-620.34 -3.65621,-7.125 -2.3438,-15.844 3.2812,-21.562 z"
       fill="#4c4c4c"
       id="path6" /><path
       d="m 121.92,1042.5 c -14.344,63.609 26.859,92.484 88.5,79.125 65.438,7.5938 73.031,-21.75 73.688,-79.125 z"
       fill="#4c4c4c"
       id="path7" /></g></svg>
