<?xml version="1.0" encoding="UTF-8" standalone="no"?>
<svg
   width="128"
   height="100"
   version="1.1"
   viewBox="0 0 96 75"
   id="svg3"
   sodipodi:docname="legwear.svg"
   inkscape:version="1.4.3 (0d15f75042, 2025-12-25)"
   xml:space="preserve"
   xmlns:inkscape="http://www.inkscape.org/namespaces/inkscape"
   xmlns:sodipodi="http://sodipodi.sourceforge.net/DTD/sodipodi-0.dtd"
   xmlns="http://www.w3.org/2000/svg"
   xmlns:svg="http://www.w3.org/2000/svg"><defs
     id="defs3" /><sodipodi:namedview
     id="namedview3"
     pagecolor="#ffffff"
     bordercolor="#000000"
     borderopacity="0.25"
     inkscape:showpageshadow="2"
     inkscape:pageopacity="0.0"
     inkscape:pagecheckerboard="0"
     inkscape:deskcolor="#d1d1d1"
     inkscape:document-units="pt"
     inkscape:zoom="2.0075"
     inkscape:cx="207.22292"
     inkscape:cy="74.719801"
     inkscape:window-width="1848"
     inkscape:window-height="1011"
     inkscape:window-x="0"
     inkscape:window-y="0"
     inkscape:window-maximized="1"
     inkscape:current-layer="svg3" /><g
     id="g1"
     transform="matrix(0.04786357,0,0,0.04786357,21.236515,12.717219)"><path
       d="M 212.75,0 H 889.6 V 86.043 H 212.75 Z"
       fill="#4c4c4c"
       id="path1" /><path
       d="m 536.49,355.91 h 39.062 l 0.004,-243.7 h -89.363 v 192.77 c 0.0312,13.387 5.3203,26.227 14.73,35.754 9.4062,9.5273 22.18,14.98 35.566,15.18 z"
       fill="#4c4c4c"
       id="path2" /><path
       d="m 873.25,282 h 61.148 L 892.527,112.21 h -117.45 v 71.617 c 0.0312,26.027 10.387,50.977 28.789,69.383 18.402,18.402 43.355,28.754 69.379,28.789 z"
       fill="#4c4c4c"
       id="path3" /><path
       d="m 229.72,276.13 c 24.062,-0.0352 47.129,-9.6094 64.145,-26.625 17.016,-17.012 26.59,-40.078 26.621,-64.141 v -73.152 h -110.55 l -40.598,163.92 z"
       fill="#4c4c4c"
       id="path4" /><path
       d="M 278.49,1046.8 539.81,964.714 V 736.204 H 69.51 Z"
       fill="#4c4c4c"
       id="path5" /><path
       d="M 873.25,308.17 C 840.285,308.1348 808.68,295.025 785.367,271.713 762.054,248.401 748.945,216.795 748.91,183.826 V 112.209 H 601.72 v 256.73 c 0,3.3828 -1.3438,6.6328 -3.7383,9.0273 -2.3945,2.3906 -5.6406,3.7383 -9.0273,3.7383 h -52.469 c -20.312,0 -39.797,-8.0703 -54.16,-22.434 -14.363,-14.367 -22.434,-33.848 -22.434,-54.164 v -192.89 h -113.23 v 73.152 c -0.0352,31 -12.367,60.727 -34.289,82.648 -21.922,21.921 -51.645,34.254 -82.648,34.285 h -66.895 l -101.23,407.75 h 358.46 l 120.51,-237.7 c 2.0039,-4.707 6.6289,-7.7617 11.746,-7.7617 5.1172,0 9.7383,3.0547 11.742,7.7617 l 344.68,727.66 229.15,-92.555 -196.98,-799.27 z"
       fill="#4c4c4c"
       id="path6" /></g></svg>
