<?xml version="1.0" encoding="UTF-8" standalone="no"?>
<svg
   width="128"
   height="100"
   version="1.1"
   viewBox="0 0 96 75"
   id="svg1"
   sodipodi:docname="liquids.svg"
   inkscape:version="1.4.3 (0d15f75042, 2025-12-25)"
   xml:space="preserve"
   xmlns:inkscape="http://www.inkscape.org/namespaces/inkscape"
   xmlns:sodipodi="http://sodipodi.sourceforge.net/DTD/sodipodi-0.dtd"
   xmlns="http://www.w3.org/2000/svg"
   xmlns:svg="http://www.w3.org/2000/svg"><defs
     id="defs1" /><sodipodi:namedview
     id="namedview1"
     pagecolor="#ffffff"
     bordercolor="#000000"
     borderopacity="0.25"
     inkscape:showpageshadow="2"
     inkscape:pageopacity="0.0"
     inkscape:pagecheckerboard="0"
     inkscape:deskcolor="#d1d1d1"
     inkscape:document-units="pt"
     inkscape:zoom="5.12"
     inkscape:cx="94.140625"
     inkscape:cy="44.726563"
     inkscape:window-width="1848"
     inkscape:window-height="1011"
     inkscape:window-x="0"
     inkscape:window-y="0"
     inkscape:window-maximized="1"
     inkscape:current-layer="svg1" /><path
     d="m 29.950876,14.263747 c 1.100102,0 2.104825,0.620862 2.597711,1.603798 l 0.495577,0.993857 c 0.985716,1.965983 2.995218,3.210375 5.195422,3.210375 h 0.849555 c 2.200148,0 4.209694,-1.244392 5.195422,-3.210375 l 0.495577,-0.993857 c 0.492853,-0.982992 1.497609,-1.603798 2.597711,-1.603798 1.100102,0 2.104813,0.620862 2.597712,1.603798 l 0.495565,0.993857 c 0.985728,1.965983 2.995217,3.210375 5.195421,3.210375 h 0.849567 c 2.200136,0 4.209694,-1.244392 5.195422,-3.210375 l 0.495566,-0.993857 c 0.492863,-0.982992 1.497609,-1.603798 2.597711,-1.603798 1.100102,0 2.104825,0.620862 2.597711,1.603798 l 0.495577,0.993857 c 0.985728,1.965983 2.995218,3.210375 5.195422,3.210375 h 3.330167 c 1.603785,0 2.902675,1.301558 2.902675,2.905413 0,1.603854 -1.298821,2.902686 -2.902675,2.902686 h -3.330167 c -3.166813,0 -6.137757,-1.287967 -8.288813,-3.477193 -2.151111,2.189283 -5.121874,3.477193 -8.288811,3.477193 h -0.849555 c -3.166814,0 -6.137757,-1.287967 -8.288813,-3.477193 -2.151112,2.189283 -5.121874,3.477193 -8.288813,3.477193 h -0.849553 c -3.166814,0 -6.137758,-1.287967 -8.288813,-3.477193 -2.151124,2.189283 -5.121886,3.477193 -8.288813,3.477193 h -3.330166 c -1.603786,0 -2.902676,-1.298832 -2.902676,-2.902686 0,-1.603855 1.298822,-2.905413 2.902676,-2.905413 h 3.330166 c 2.200148,0 4.209695,-1.244392 5.195422,-3.210375 l 0.495577,-0.993857 c 0.492853,-0.982992 1.497609,-1.603798 2.597711,-1.603798 z m 0,17.423989 c 1.100102,0 2.104825,0.623531 2.597711,1.606523 l 0.495577,0.991132 c 0.985716,1.968708 2.995218,3.213044 5.195422,3.213044 h 0.849555 c 2.200148,0 4.209694,-1.244393 5.195422,-3.213044 l 0.495577,-0.991132 c 0.492853,-0.982992 1.497609,-1.606523 2.597711,-1.606523 1.100102,0 2.104813,0.623531 2.597712,1.606523 l 0.495565,0.991132 c 0.985728,1.968708 2.995217,3.213044 5.195421,3.213044 h 0.849567 c 2.200136,0 4.209694,-1.244393 5.195422,-3.213044 l 0.495566,-0.991132 c 0.492863,-0.982992 1.497609,-1.606523 2.597711,-1.606523 1.100102,0 2.104825,0.623531 2.597711,1.606523 l 0.495577,0.991132 c 0.985728,1.968708 2.995218,3.213044 5.195422,3.213044 h 3.330167 c 1.603785,0 2.902675,1.298833 2.902675,2.902687 0,1.603854 -1.298821,2.905411 -2.902675,2.905411 h -3.330167 c -3.166813,0 -6.137757,-1.287967 -8.288813,-3.477193 -2.151111,2.189283 -5.121874,3.477193 -8.288811,3.477193 h -0.849555 c -3.166814,0 -6.137757,-1.287967 -8.288813,-3.477193 -2.151112,2.189283 -5.121874,3.477193 -8.288813,3.477193 h -0.849553 c -3.166814,0 -6.137758,-1.287967 -8.288813,-3.477193 -2.151124,2.189283 -5.121886,3.477193 -8.288813,3.477193 h -3.330166 c -1.603786,0 -2.902676,-1.301557 -2.902676,-2.905411 0,-1.603854 1.298822,-2.902687 2.902676,-2.902687 h 3.330166 c 2.200148,0 4.209695,-1.244393 5.195422,-3.213044 l 0.495577,-0.991132 c 0.492853,-0.982992 1.497609,-1.606523 2.597711,-1.606523 z m 0,17.426885 c 1.100102,0 2.104825,0.623542 2.597711,1.606533 l 0.495577,0.991121 c 0.985716,1.968719 2.995218,3.213056 5.195422,3.213056 h 0.849555 c 2.200148,0 4.209694,-1.244393 5.195422,-3.213056 l 0.495577,-0.991121 c 0.492853,-0.982991 1.497609,-1.606533 2.597711,-1.606533 1.100102,0 2.104813,0.623542 2.597712,1.606533 l 0.495565,0.991121 c 0.985728,1.968719 2.995217,3.213056 5.195421,3.213056 h 0.849567 c 2.200136,0 4.209694,-1.244393 5.195422,-3.213056 l 0.495566,-0.991121 c 0.492863,-0.982991 1.497609,-1.606533 2.597711,-1.606533 1.100102,0 2.104825,0.623542 2.597711,1.606533 l 0.495577,0.991121 c 0.985728,1.968719 2.995218,3.213056 5.195422,3.213056 h 3.330167 c 1.603785,0 2.902675,1.298821 2.902675,2.902675 0,1.603854 -1.298821,2.905412 -2.902675,2.905412 h -3.330167 c -3.166813,0 -6.137757,-1.287956 -8.288813,-3.477182 -2.151111,2.189282 -5.121874,3.477182 -8.288811,3.477182 h -0.849555 c -3.166814,0 -6.137757,-1.287956 -8.288813,-3.477182 -2.151112,2.189282 -5.121874,3.477182 -8.288813,3.477182 h -0.849553 c -3.166814,0 -6.137758,-1.287956 -8.288813,-3.477182 -2.151124,2.189282 -5.121886,3.477182 -8.288813,3.477182 h -3.330166 c -1.603786,0 -2.902676,-1.301558 -2.902676,-2.905412 0,-1.603854 1.298822,-2.902675 2.902676,-2.902675 h 3.330166 c 2.200148,0 4.209695,-1.244393 5.195422,-3.213056 l 0.495577,-0.991121 c 0.492853,-0.982991 1.497609,-1.606533 2.597711,-1.606533 z"
     fill="#4c4c4c"
     fill-rule="evenodd"
     id="path1"
     style="stroke-width:0.0580896" /></svg>
