<?xml version="1.0" encoding="UTF-8" standalone="no"?>
<!-- Created with Inkscape (http://www.inkscape.org/) -->

<svg
   width="128"
   height="100"
   viewBox="0 0 33.866667 26.458333"
   version="1.1"
   id="svg5"
   xml:space="preserve"
   inkscape:version="1.2.2 (b0a8486541, 2022-12-01)"
   sodipodi:docname="mineral.svg"
   xmlns:inkscape="http://www.inkscape.org/namespaces/inkscape"
   xmlns:sodipodi="http://sodipodi.sourceforge.net/DTD/sodipodi-0.dtd"
   xmlns="http://www.w3.org/2000/svg"
   xmlns:svg="http://www.w3.org/2000/svg"><sodipodi:namedview
     id="namedview7"
     pagecolor="#ffffff"
     bordercolor="#666666"
     borderopacity="1.0"
     inkscape:showpageshadow="2"
     inkscape:pageopacity="0.0"
     inkscape:pagecheckerboard="0"
     inkscape:deskcolor="#d1d1d1"
     inkscape:document-units="mm"
     showgrid="false"
     showguides="false"
     inkscape:zoom="2.587745"
     inkscape:cx="-58.158745"
     inkscape:cy="80.378864"
     inkscape:window-width="1920"
     inkscape:window-height="1011"
     inkscape:window-x="0"
     inkscape:window-y="0"
     inkscape:window-maximized="1"
     inkscape:current-layer="g61000" /><defs
     id="defs2" /><g
     inkscape:label="Layer 1"
     inkscape:groupmode="layer"
     id="layer1"
     transform="translate(-33.044247,-131.48302)"><rect
       style="opacity:0.668844;fill:none;fill-opacity:0;stroke:none;stroke-width:0.901099;stroke-opacity:0.591956"
       id="rect58346"
       width="33.866665"
       height="26.458334"
       x="33.044247"
       y="131.48302" /><g
       id="g61000"
       transform="translate(-0.00838726,0.09605415)"
       style="fill:#4d4d4d;fill-opacity:1"><path
         d="m 43.953406,145.98866 c -0.07937,-0.21166 -0.238125,-0.37041 -0.423333,-0.47625 -0.238125,-0.13229 -0.47625,-0.29104 -0.687917,-0.44979 -0.105833,-0.0794 -0.185208,-0.13229 -0.291042,-0.18521 -0.185208,-0.0794 -0.396874,-0.0794 -0.555624,0.0265 0.264583,-0.0529 0.555624,0 0.767291,0.18521 0.211667,0.18521 0.449792,0.34396 0.687917,0.47625 0.132291,0.0794 0.264583,0.18521 0.343958,0.3175 0.02646,0.0529 0.05292,0.10583 0.15875,0.10583 m 8.122708,-4.10104 h -0.05292 c -0.15875,0.3175 -0.291042,0.66146 -0.396875,1.00542 -0.02646,0.15875 -0.15875,0.3175 -0.3175,0.37041 -0.15875,0.0529 -0.3175,0.1323 -0.423334,0.23813 -0.343958,0.29104 -0.661458,0.60854 -1.005416,0.92604 -0.185209,0.15875 -0.370417,0.29104 -0.608542,0.39688 -0.370417,0.13229 -0.740833,0.26458 -1.084792,0.42333 -0.132291,0.0794 -0.3175,0.10583 -0.47625,0.0794 -0.370416,-0.0794 -0.767291,0.0794 -1.005416,0.39688 -0.02646,0.0529 -0.105834,0.10583 -0.05292,0.15875 0.05292,0.0529 0.07938,-0.0265 0.132292,-0.0794 0.238125,-0.23812 0.582083,-0.34395 0.899583,-0.26458 0.15875,0.0529 0.343958,0.0265 0.502708,-0.0529 0.185209,-0.10583 0.396875,-0.1852 0.608542,-0.26458 0.370417,-0.10583 0.740833,-0.29104 1.058333,-0.52917 0.264584,-0.23812 0.529167,-0.5027 0.79375,-0.76729 0.185209,-0.21166 0.423334,-0.37041 0.687917,-0.47625 0.211667,-0.0794 0.343958,-0.26458 0.396875,-0.47625 0.07937,-0.23812 0.15875,-0.50271 0.238125,-0.74083 0.02646,-0.13229 0.07937,-0.23813 0.105833,-0.34396 m -5.635625,0.18521 c 0.238125,-0.0265 0.47625,-0.0794 0.714375,-0.15875 0.185209,-0.0794 0.370417,-0.10583 0.555625,-0.13229 0.211667,0 0.396875,-0.10584 0.529167,-0.26459 0.238125,-0.26458 0.529167,-0.5027 0.79375,-0.74083 0.185208,-0.15875 0.370417,-0.3175 0.502708,-0.50271 0.02646,-0.0265 0.05292,-0.0794 0.02646,-0.10583 -0.05292,-0.0529 -0.07937,0 -0.105834,0.0265 -0.370416,0.37041 -0.820208,0.66146 -1.190625,1.03187 -0.132291,0.13229 -0.264583,0.3175 -0.47625,0.34396 -0.3175,0.0265 -0.608541,0.10583 -0.899583,0.18521 -0.343958,0.10583 -0.714375,0.10583 -1.058333,0 -0.608542,-0.18521 -1.164167,-0.44979 -1.719792,-0.74083 -0.449792,-0.23813 -0.978958,-0.3175 -1.455208,-0.18521 -0.05292,0 -0.105834,0 -0.105834,0.0529 0,0.0794 0.07937,0.0529 0.105834,0.0265 0.423333,-0.0794 0.873125,-0.0265 1.27,0.18521 0.343958,0.18521 0.687916,0.39688 1.058333,0.55563 0.449792,0.26458 0.9525,0.39687 1.455208,0.42333 m 6.270625,0.66146 v 0.84666 c 0.02646,0.3175 0.105834,0.66146 0.264584,0.92605 0.132291,0.26458 0.264583,0.52916 0.370416,0.8202 0.02646,0.0794 0,0.18521 -0.07937,0.21167 -0.47625,0.39688 -1.031875,0.71438 -1.534583,1.05833 -0.291042,0.21167 -0.529167,0.47625 -0.714375,0.7673 -0.185208,0.26458 -0.343958,0.52916 -0.529167,0.79375 -0.07937,0.10583 -0.132291,0.23812 -0.15875,0.37041 -0.132291,0.47625 -0.291041,0.9525 -0.423333,1.42875 -0.02646,0.0794 -0.07937,0.10584 -0.15875,0.10584 -0.846667,0 -1.666875,-0.0529 -2.513542,-0.15875 -0.502708,-0.0529 -0.978958,0 -1.455208,0.15875 -0.608542,0.1852 -1.243542,0.29104 -1.878542,0.34395 -0.635,0.0529 -1.243541,0.10584 -1.878541,0.15875 -0.449792,0.0265 -0.926042,-0.0529 -1.322917,-0.29104 -0.185208,-0.10583 -0.343958,-0.29104 -0.449791,-0.47625 -0.370417,-0.66146 -0.555625,-1.42875 -0.47625,-2.16958 0.02646,-0.23813 0.02646,-0.47625 0.05292,-0.71438 0.02646,-0.44979 0.185209,-0.87312 0.449792,-1.24354 0.291042,-0.39687 0.555625,-0.82021 0.767292,-1.27 0.105833,-0.23812 0.185208,-0.50271 0.211666,-0.76729 0.132292,-0.89958 0.370417,-1.77271 0.687917,-2.59292 0.132292,-0.34395 0.396875,-0.66145 0.714375,-0.84666 0.79375,-0.52917 1.613958,-1.00542 2.513541,-1.37584 0.740834,-0.29104 1.561042,-0.34395 2.328334,-0.15875 0.687916,0.15875 1.349375,0.37042 1.984375,0.635 0.740833,0.3175 1.455208,0.66146 2.169583,1.05834 0.687917,0.3175 1.11125,1.03187 1.058333,1.77271 v 0.60854"
         id="path60972"
         style="stroke-width:0.264583;fill:#4d4d4d;fill-opacity:1" /><path
         d="m 54.986531,147.60262 c -0.105833,-0.37042 -0.423333,-0.60854 -0.79375,-0.60854 -0.05292,0 -0.07938,0.0265 -0.07938,0.0529 0,0.0265 0.05292,0.0529 0.07938,0.0529 0.343958,0.0529 0.635,0.21167 0.79375,0.50271 m 0.846667,2.59292 c 0.15875,-0.21167 0.185208,-0.50271 0.07937,-0.76729 -0.07937,-0.15875 -0.07937,-0.34396 -0.02646,-0.52917 0.05292,-0.21167 0.105834,-0.44979 0.132292,-0.66146 0.07937,-0.42333 0.291042,-0.82021 0.635,-1.13771 0.238125,-0.18521 0.423333,-0.39687 0.608542,-0.635 0.02646,-0.0265 0.05292,-0.0529 0.02646,-0.10583 -0.02646,-0.0265 -0.05292,0 -0.07937,0.0265 -0.238125,0.21166 -0.47625,0.39687 -0.687917,0.635 -0.291041,0.29104 -0.502708,0.635 -0.582083,1.03187 -0.05292,0.21167 -0.05292,0.42334 -0.105833,0.60854 -0.105834,0.3175 -0.05292,0.66146 0.07937,0.9525 0.02646,0.10584 0.05292,0.21167 0,0.3175 -0.02646,0.10584 -0.05292,0.18521 -0.07937,0.26459 m 0.608541,0.92604 c -1.058333,-0.0265 -2.037291,-0.0529 -3.01625,-0.15875 -0.529166,-0.0529 -1.058333,0 -1.5875,-0.0265 -0.343958,-0.0265 -0.687916,-0.0794 -1.031875,-0.21167 -0.211666,-0.0794 -0.396875,-0.21166 -0.555625,-0.37041 -0.132291,-0.13229 -0.15875,-0.34396 -0.07937,-0.52917 0.132292,-0.39687 0.238125,-0.82021 0.370417,-1.21708 0.05292,-0.13229 0.132292,-0.26459 0.238125,-0.37042 0.291042,-0.3175 0.47625,-0.71437 0.740833,-1.05833 0.105834,-0.13229 0.238125,-0.26459 0.396875,-0.39688 0.47625,-0.39687 1.031875,-0.68791 1.481667,-1.11125 0.396875,-0.34396 0.846667,-0.635 1.296458,-0.84666 0.264584,-0.1323 0.555625,-0.15875 0.820209,-0.0794 0.132291,0.0529 0.264583,0.0794 0.396875,0.13229 0.291041,0.13229 0.582083,0.26459 0.899583,0.37042 0.396875,0.13229 0.767292,0.39687 1.031875,0.71437 0.3175,0.34396 0.635,0.635 1.005417,0.92605 0.343958,0.3175 0.635,0.68791 0.820208,1.1377 0.15875,0.29105 0.264583,0.58209 0.3175,0.89959 0.05292,0.29104 0.05292,0.60854 0.05292,0.89958 -0.02646,0.39688 -0.291042,0.71438 -0.661459,0.82021 -0.767291,0.21167 -1.561041,0.37042 -2.38125,0.44979 -0.211666,0.0265 -0.423333,0.0265 -0.555625,0.0265"
         id="path60974"
         style="stroke-width:0.265;stroke-dasharray:none;fill:#4d4d4d;fill-opacity:1" /></g></g></svg>
