<?xml version="1.0" encoding="UTF-8" standalone="no"?>
<svg
   width="128"
   height="100"
   version="1.1"
   viewBox="0 0 96 75"
   id="svg1"
   sodipodi:docname="mirrors.svg"
   inkscape:version="1.4.2 (ebf0e940d0, 2025-05-08)"
   xmlns:inkscape="http://www.inkscape.org/namespaces/inkscape"
   xmlns:sodipodi="http://sodipodi.sourceforge.net/DTD/sodipodi-0.dtd"
   xmlns="http://www.w3.org/2000/svg"
   xmlns:svg="http://www.w3.org/2000/svg">
  <defs
     id="defs1" />
  <sodipodi:namedview
     id="namedview1"
     pagecolor="#ffffff"
     bordercolor="#000000"
     borderopacity="0.25"
     inkscape:showpageshadow="2"
     inkscape:pageopacity="0.0"
     inkscape:pagecheckerboard="0"
     inkscape:deskcolor="#d1d1d1"
     inkscape:document-units="pt"
     inkscape:zoom="1.04375"
     inkscape:cx="273.05389"
     inkscape:cy="129.82036"
     inkscape:window-width="1920"
     inkscape:window-height="1043"
     inkscape:window-x="0"
     inkscape:window-y="0"
     inkscape:window-maximized="1"
     inkscape:current-layer="svg1" />
  <path
     d="m 67.326982,27.882987 c -0.53851,-3.0552 -2.17102,-5.80986 -4.59244,-7.74948 -2.42136,-1.93962 -5.46584,-2.93103 -8.56529,-2.78951 -8.02395,0.27222 -23.33347,1.67227 -34.13186,7.86839 -1.612255,0.95443 -2.992283,2.25557 -4.039351,3.80955 -1.047068,1.5537 -1.735181,3.32123 -2.014422,5.17387 -0.855561,5.31485 -1.153745,13.20917 3.266686,17.85028 5.392627,5.67782 27.079967,2.13894 37.333557,0 1.80293,-0.34406 3.50541,-1.08889 4.98189,-2.17917 1.4764,-1.09048 2.68877,-2.49893 3.54779,-4.12086 2.43705,-4.56299 5.26299,-11.5499 4.21302,-17.86342 z m -7.428,16.5277 c -1.51857,2.7938 -4.19518,4.77254 -7.31115,5.40562 -8.80173,1.77597 -27.39108,4.82225 -32.0315,0 -3.798208,-4.01854 -3.525949,-10.74653 -2.787021,-15.32196 0.492056,-3.19216 2.396811,-5.99246 5.185211,-7.62227 9.25596,-5.34078 22.41327,-6.48152 29.2709,-6.76671 2.63851,-0.1218 5.2325,0.71134 7.30631,2.34711 2.07381,1.63576 3.48841,3.96427 3.98453,6.55846 0.88149,5.49633 -1.52964,11.45933 -3.61665,15.4001 z m 23.56716,1.84075 c -0.44075,4.16117 -2.2815,13.53342 -10.00747,17.53917 -0.48476,0.23982 -1.05219,0.24549 -1.54153,0.0159 -0.48962,-0.22955 -0.84775,-0.66975 -0.9733,-1.19557 -0.71293,-3.22783 -2.91672,-9.22968 -9.41082,-11.09636 1.72356,-1.22233 3.13947,-2.82892 4.13517,-4.69262 1.20311,-2.26746 2.23884,-4.62024 3.09813,-7.03876 2.08709,2.29449 6.00186,4.79632 12.96305,4.54999 0.49529,-0.007 0.96949,0.19958 1.30197,0.56686 0.33245,0.36702 0.49098,0.85964 0.43507,1.35169 z"
     fill="#4c4c4c"
     id="path1"
     style="stroke-width:0.0691362" />
</svg>
