<?xml version="1.0" encoding="UTF-8" standalone="no"?>
<svg
   width="128"
   height="100"
   version="1.1"
   viewBox="0 0 96 75"
   id="svg3"
   sodipodi:docname="mittens.svg"
   inkscape:version="1.4.3 (0d15f75042, 2025-12-25)"
   xml:space="preserve"
   xmlns:inkscape="http://www.inkscape.org/namespaces/inkscape"
   xmlns:sodipodi="http://sodipodi.sourceforge.net/DTD/sodipodi-0.dtd"
   xmlns="http://www.w3.org/2000/svg"
   xmlns:svg="http://www.w3.org/2000/svg"><defs
     id="defs3" /><sodipodi:namedview
     id="namedview3"
     pagecolor="#ffffff"
     bordercolor="#000000"
     borderopacity="0.25"
     inkscape:showpageshadow="2"
     inkscape:pageopacity="0.0"
     inkscape:pagecheckerboard="0"
     inkscape:deskcolor="#d1d1d1"
     inkscape:document-units="pt"
     inkscape:zoom="2.0075"
     inkscape:cx="19.92528"
     inkscape:cy="105.10585"
     inkscape:window-width="1848"
     inkscape:window-height="1011"
     inkscape:window-x="0"
     inkscape:window-y="0"
     inkscape:window-maximized="1"
     inkscape:current-layer="svg3" /><path
     d="m 70.799062,62.017439 c -0.02638,0.184816 -0.01683,0.350428 0.01919,0.499238 -1.951327,0.556841 -4.104289,0.616849 -6.101434,0.763244 -6.696421,0.494431 -13.865452,0.252018 -20.480457,-0.744042 -2.29935,-0.345626 -4.615552,-0.950441 -6.936558,-1.140099 0.02396,-0.132011 0.04563,-0.26882 0.06479,-0.415234 0.134413,-1.099292 0.307219,-2.467403 0.292821,-3.557071 0.523253,0.134414 1.063301,0.218418 1.591308,0.302421 3.158657,0.504036 6.99187,0.67205 10.17469,0.770459 4.682728,0.144011 9.363106,0.28562 14.048245,0.427235 1.279276,0.03836 2.561004,0.07681 3.842682,0.117613 1.284088,0.03836 2.575391,0.15361 3.854667,-0.0052 -0.112801,0.996064 -0.235217,1.989721 -0.36963,2.981025 z m 0.24722,-38.990586 c -0.208819,-1.668116 -0.37443,-3.379444 -0.816089,-5.004341 -0.832874,-3.057833 -3.100994,-5.494157 -5.868453,-7.140355 0.237613,0.885668 0.283217,1.428119 0.396031,2.33294 0.290419,2.318553 0.504035,4.788365 0.732056,7.123967 0.05998,0.63365 0.122415,1.267293 0.17762,1.898534 0.05278,0.602465 0.247213,1.267294 -0.129607,1.79054 -0.271222,0.376832 -0.784851,0.504043 -1.140101,0.14881 -0.472838,-0.470434 -0.410435,-1.075276 -0.453635,-1.701704 -0.153616,-2.162535 -0.59284,-9.195156 -0.463239,-10.92277 0.02638,-0.352822 0.04321,-0.736876 0.144011,-1.082496 C 61.678318,9.4403237 59.53498,8.7826582 57.494775,8.5570581 56.486676,8.444258 55.47381,8.427452 54.468172,8.4946504 c 0.304823,1.4833196 0.566415,8.9790786 0.633644,10.6447416 0.0504,1.28649 0.23282,2.644978 0.0408,3.921894 -0.120008,0.801645 -1.401699,0.748853 -1.564883,0 -0.177625,-0.811269 -0.141613,-1.660939 -0.160818,-2.486549 l -0.15601,-7.291409 c -0.01919,-1.52172 -0.175217,-3.16341 0.05278,-4.677916 -2.892189,0.3696286 -6.041011,1.432885 -8.436317,3.137043 0.141609,0.384028 0.165612,0.83524 0.218411,1.228892 0.09362,0.708043 0.199213,1.420904 0.273625,2.133759 0.36242,3.441861 0.480033,7.330319 0.463232,10.808076 -0.0026,0.700879 0.0816,1.432886 -0.283217,2.056955 -0.283216,0.48484 -1.072874,0.530419 -1.346504,0 -0.348029,-0.679271 -0.225618,-1.432884 -0.206414,-2.174567 0.110404,-4.53875 -0.0672,-8.671859 -0.235224,-13.164987 -0.780032,0.691254 -1.473689,1.478508 -2.047325,2.371346 -2.421781,3.777865 -3.168231,9.254558 -3.05543,13.719521 0.02403,0.967288 0.09121,1.929765 0.14401,2.894594 0.211215,0.273624 0.420033,0.547268 0.624072,0.82566 1.310505,1.773745 2.577798,3.672279 3.417845,5.714845 0.398432,0.967287 -1.130472,1.514505 -1.62971,0.686434 -1.221671,-2.018549 -2.325774,-4.063471 -3.746677,-5.954988 -1.382496,-1.83852 -2.952196,-3.547439 -4.634749,-5.112379 -1.478507,-1.372871 -3.16823,-3.026602 -5.220221,-3.439458 -0.847267,-0.172809 -1.833708,-0.1008 -2.558595,0.415232 -0.710452,0.504037 -1.020081,1.368112 -1.197707,2.18655 -0.919256,4.226713 0.712861,8.691318 2.647386,12.384637 2.104931,4.027479 4.76435,7.791156 7.543326,11.37439 1.240875,1.600938 2.983434,3.17064 3.451441,5.211005 0.890479,0.0408 1.785726,0.206409 2.659413,0.283217 1.269703,0.1128 2.539398,0.21841 3.811502,0.28082 4.533934,0.220813 9.082001,0.252018 13.618647,0.367227 l 10.329835,0.261617 c 1.152084,0.02881 2.306572,-0.0026 3.441861,0.225619 1.176094,-11.38156 1.111274,-22.943352 -0.314421,-34.298284 z"
     fill="#4c4c4c"
     id="path1"
     style="stroke-width:0.0512038" /></svg>
