<?xml version="1.0" encoding="UTF-8" standalone="no"?>
<svg
   width="128"
   height="100"
   version="1.1"
   viewBox="0 0 96 75"
   id="svg3"
   sodipodi:docname="muzzles.svg"
   inkscape:version="1.4.3 (0d15f75042, 2025-12-25)"
   xml:space="preserve"
   xmlns:inkscape="http://www.inkscape.org/namespaces/inkscape"
   xmlns:sodipodi="http://sodipodi.sourceforge.net/DTD/sodipodi-0.dtd"
   xmlns="http://www.w3.org/2000/svg"
   xmlns:svg="http://www.w3.org/2000/svg"><defs
     id="defs3" /><sodipodi:namedview
     id="namedview3"
     pagecolor="#ffffff"
     bordercolor="#000000"
     borderopacity="0.25"
     inkscape:showpageshadow="2"
     inkscape:pageopacity="0.0"
     inkscape:pagecheckerboard="0"
     inkscape:deskcolor="#d1d1d1"
     inkscape:document-units="pt"
     inkscape:zoom="1.04375"
     inkscape:cx="137.96407"
     inkscape:cy="54.610779"
     inkscape:window-width="1848"
     inkscape:window-height="1011"
     inkscape:window-x="0"
     inkscape:window-y="0"
     inkscape:window-maximized="1"
     inkscape:current-layer="svg3" /><path
     d="m 68.138366,19.141215 c 0.71161,0 1.357602,0 2.003594,0.06561 4.716219,5.10231 6.911568,10.787515 8.463562,16.86145 0.772175,-9.046572 -1.554416,-17.186599 -7.045075,-24.550363 L 71.043149,10.614547 C 68.910897,8.6109514 65.746507,7.8362984 62.064947,7.9018674 c -6.459914,0 -14.340469,2.4552496 -20.091408,4.9105586 -1.614979,-0.968986 -3.552953,-1.486267 -5.619587,-1.614979 -2.455251,-0.128694 -5.167928,0.451688 -7.880555,1.809258 l -0.194305,0.06561 c -6.651555,2.838808 -10.527505,9.81584 -10.916176,17.631259 11.95084,-2.455254 2.003595,14.406145 7.55756,20.414403 13.631496,10.981853 27.068116,16.601439 40.826116,16.990109 5.81392,0 8.786556,-1.614978 9.172539,-5.296642 1.872351,-6.008257 2.003596,-12.91983 1.743691,-19.379743 -1.680602,5.619588 -3.358671,11.17619 -6.202596,16.730101 -0.774703,0 -1.549351,0 -2.455249,-0.06561 -1.357603,2.583966 -2.778246,4.779315 -5.167929,6.136918 1.680599,-2.132257 2.583964,-4.587561 3.424238,-8.009215 1.034609,-5.233554 1.549357,-10.401537 1.937974,-15.632453 L 60.773053,58.741223 C 60.450054,58.61253 60.12706,58.546918 59.804065,58.418226 51.148857,51.569642 47.530228,44.981068 47.789701,38.649816 47.98148,32.578573 51.794363,26.375979 59.028875,20.110403 c 0.194301,-0.06561 0.451688,-0.06561 0.645989,-0.128693 2.583966,5.942581 4.52194,11.885162 6.26558,17.764763 0.903363,-5.748248 0.711614,-11.627845 -0.322995,-17.507446 -0.645992,-2.583962 -1.486264,-4.521938 -2.778249,-6.331252 2.260971,1.097702 4.07023,2.649588 5.299177,5.233555 z m -40.051467,0.5173 c 0.840275,-1.486264 1.680601,-3.035676 1.937973,-4.716223 2.06669,-0.903365 4.004662,-1.357603 5.813925,-1.357603 h 0.322994 c 1.614979,0.06561 3.035676,0.517299 4.327661,1.163266 -1.291985,2.066689 -3.164337,3.424241 -5.49093,4.198945 -2.066686,0.711615 -4.52194,0.903364 -6.911569,0.711615 z m 25.77398,36.755831 C 49.661934,54.993651 45.139994,53.184389 41.521368,50.666098 37.193709,48.210848 33.703795,45.175172 31.897174,41.364902 29.893578,37.100334 30.087911,32.0637 33.254777,26.572774 l 2.132257,1.226364 c -2.841339,4.973648 -2.972583,8.978201 -1.291985,12.531155 0.128694,0.322994 0.322997,0.645988 0.517299,0.903364 -0.257384,-1.034609 -0.322995,-2.132257 -0.322995,-3.29558 0.06561,-8.592225 10.916177,-14.017474 19.960056,-16.667116 -5.556603,5.622278 -8.720881,11.370526 -8.915219,17.250123 -0.259909,6.008258 2.583966,12.014364 8.526548,17.893425 z"
     fill="#4c4c4c"
     id="path1"
     style="stroke-width:0.0538325" /></svg>
