<?xml version="1.0" encoding="UTF-8" standalone="no"?>
<svg
   width="128"
   height="100"
   version="1.1"
   viewBox="0 0 96 75"
   id="svg1"
   sodipodi:docname="nowater.svg"
   inkscape:version="1.4.3 (0d15f75042, 2025-12-25)"
   xml:space="preserve"
   xmlns:inkscape="http://www.inkscape.org/namespaces/inkscape"
   xmlns:sodipodi="http://sodipodi.sourceforge.net/DTD/sodipodi-0.dtd"
   xmlns="http://www.w3.org/2000/svg"
   xmlns:svg="http://www.w3.org/2000/svg"><defs
     id="defs1" /><sodipodi:namedview
     id="namedview1"
     pagecolor="#ffffff"
     bordercolor="#000000"
     borderopacity="0.25"
     inkscape:showpageshadow="2"
     inkscape:pageopacity="0.0"
     inkscape:pagecheckerboard="0"
     inkscape:deskcolor="#d1d1d1"
     inkscape:document-units="pt"
     inkscape:zoom="2.56"
     inkscape:cx="51.5625"
     inkscape:cy="69.53125"
     inkscape:window-width="1848"
     inkscape:window-height="1011"
     inkscape:window-x="0"
     inkscape:window-y="0"
     inkscape:window-maximized="1"
     inkscape:current-layer="svg1" /><path
     d="m 15.72437,65.653874 c -10.2740598,-18.44209 27.29954,-21.82645 32.96148,-24.96179 6.69446,-3.70276 1.97742,-5.21506 1.65633,-11.60297 -0.4681,-9.37083 43.84493,-6.37324 17.20536,-15.1083 17.58688,1.95041 19.72299,11.47686 6.39731,15.42325 -15.93023,4.70494 8.94195,10.17483 -1.10422,20.34967 -5.25404,5.32004 -22.27005,4.20084 -12.80064,15.90014 z"
     fill="#4c4c4c"
     fill-rule="evenodd"
     id="path1"
     style="stroke-width:0.0640128" /><path
     d="m 42.106959,10.967075 -10.105027,10.105022 -10.10502,-10.105022 -3.062221,3.06222 10.105021,10.105021 -10.105021,10.105022 3.062221,3.062225 10.10502,-10.105596 10.105027,10.105021 3.06222,-3.06222 L 35.064158,24.133742 45.169179,14.028721 42.106959,10.9665 Z"
     fill="#4c4c4c"
     id="path1-2"
     style="stroke-width:0.0573044" /></svg>
