<?xml version="1.0" encoding="UTF-8" standalone="no"?>
<svg
   width="128"
   height="100"
   version="1.1"
   viewBox="0 0 96 75"
   id="svg7"
   sodipodi:docname="obelisk.svg"
   inkscape:version="1.4.2 (ebf0e940d0, 2025-05-08)"
   xmlns:inkscape="http://www.inkscape.org/namespaces/inkscape"
   xmlns:sodipodi="http://sodipodi.sourceforge.net/DTD/sodipodi-0.dtd"
   xmlns="http://www.w3.org/2000/svg"
   xmlns:svg="http://www.w3.org/2000/svg">
  <defs
     id="defs7" />
  <sodipodi:namedview
     id="namedview7"
     pagecolor="#ffffff"
     bordercolor="#000000"
     borderopacity="0.25"
     inkscape:showpageshadow="2"
     inkscape:pageopacity="0.0"
     inkscape:pagecheckerboard="0"
     inkscape:deskcolor="#d1d1d1"
     inkscape:document-units="pt"
     inkscape:zoom="2.0075"
     inkscape:cx="52.303861"
     inkscape:cy="150.1868"
     inkscape:window-width="1862"
     inkscape:window-height="1011"
     inkscape:window-x="0"
     inkscape:window-y="0"
     inkscape:window-maximized="1"
     inkscape:current-layer="svg7" />
  <path
     d="m 47.602079,1.9571781 v 6.5747006 c 0,0.057277 -0.04824,0.1025019 -0.102503,0.1025019 h -2.900124 c -0.02409,0 -0.0392,-0.027133 -0.02712,-0.048233 1.115441,-2.1555084 2.110233,-4.3712783 2.984498,-6.6351553 0.01207,-0.024121 0.0452,-0.018088 0.04824,0.00901 z"
     fill="#4c4c4c"
     id="path1"
     style="stroke-width:0.0643127" />
  <path
     d="m 47.836822,2.0204624 c 0,-0.024121 0.03313,-0.030144 0.0452,-0.00901 0.880313,2.24291 1.881154,4.4345626 2.999617,6.5689119 0.006,0.00901 0.006,0.0211 0,0.033156 -0.006,0.00901 -0.01505,0.015077 -0.02712,0.015077 l -2.879032,0.015077 c -0.05728,0 -0.102502,-0.04221 -0.102502,-0.099486 z"
     fill="#4c4c4c"
     id="path2"
     style="stroke-width:0.0643127" />
  <path
     d="m 42.727165,59.854032 c -0.01505,-0.0452 -0.009,-0.476316 0.02112,-1.290244 C 43.00453,51.563978 43.27283,42.975001 43.5502,35.944322 43.899897,27.05693 44.231526,18.06407 44.545054,8.9663761 h -0.0029 c 0,-0.033156 0.03015,-0.060289 0.06331,-0.060289 h 2.942313 c 0.02415,0 0.04223,0.018088 0.04223,0.04221 v 50.857299 c 0,0.02712 -0.009,0.05127 -0.02712,0.06933 -0.01808,0.01808 -0.04223,0.02712 -0.06933,0.02712 l -4.711941,-0.009 v 0.0029 c -0.02409,0 -0.04824,-0.01808 -0.05425,-0.04223 z"
     fill="#4c4c4c"
     id="path3"
     style="stroke-width:0.0643127" />
  <path
     d="m 47.909494,8.9118396 h 2.999617 c 0.01505,0 0.03015,0.012056 0.03015,0.030144 l 1.805777,50.9235451 c 0.0029,0.01808 -0.01207,0.03313 -0.03015,0.03313 h -4.805391 c -0.01808,0 -0.03313,-0.01505 -0.03313,-0.03313 V 8.9419858 c 0,-0.018088 0.01505,-0.033156 0.03313,-0.030144 z"
     fill="#4c4c4c"
     id="path4"
     style="stroke-width:0.0643127" />
  <path
     d="m 41.602333,60.547323 h 12.004636 c 0.277347,0 0.50043,0.277352 0.50043,0.500435 v 0.02112 c 0,0.277352 -0.223089,0.500435 -0.50043,0.500435 H 41.602333 c -0.277347,0 -0.500429,-0.277353 -0.500429,-0.500435 v -0.02112 c 0,-0.277353 0.223088,-0.500435 0.500429,-0.500435 z"
     fill="#4c4c4c"
     id="path5"
     style="stroke-width:0.0643127" />
  <path
     d="m 47.616871,67.439089 c -0.153746,0 -0.43713,-0.01505 -0.850151,-0.0452 -2.628784,-0.180881 -5.230434,-0.370802 -7.805007,-0.569777 l 0.0029,0.0029 c -0.03617,-0.0029 -0.06631,-0.03319 -0.06631,-0.06934 l 0.01207,-1.79073 c 0,-0.0452 0.03617,-0.07839 0.07839,-0.07839 l 1.465111,-0.09345 c 0.01208,0 0.02112,-0.009 0.02409,-0.02112 0.0029,-0.01207 -0.0029,-0.02409 -0.01505,-0.02712 l -0.325585,-0.141689 c -0.03015,-0.01207 -0.04824,-0.04223 -0.04824,-0.07537 l 0.01505,-2.351408 c 0,-0.02409 0.02112,-0.04223 0.0452,-0.04223 0.105513,0.0061 2.598623,0.01208 7.479585,0.01808 4.880957,0.0061 7.374107,0.0061 7.479579,0 0.01207,0 0.02409,0.0061 0.03313,0.01207 0.009,0.009 0.01505,0.02112 0.01505,0.03313 l 0.009,2.351403 c 0,0.03015 -0.01808,0.0603 -0.04824,0.07235 l -0.328601,0.141688 c -0.009,0.0061 -0.01505,0.01808 -0.01505,0.03015 0.0029,0.01208 0.01207,0.02112 0.02409,0.02112 l 1.465111,0.09647 v -0.0029 c 0.0452,0 0.07839,0.03617 0.07839,0.07839 l 0.009,1.790726 c 0,0.0392 -0.03015,0.06933 -0.06632,0.06933 -2.574508,0.192937 -5.176153,0.376833 -7.805007,0.551683 -0.422051,0.02712 -0.708468,0.0392 -0.862173,0.0392 z"
     fill="#4c4c4c"
     id="path6"
     style="stroke-width:0.0643127" />
  <path
     d="m 47.605293,67.972883 h 0.03313 c 5.082708,-0.250212 7.895045,-0.391907 8.441706,-0.422051 0.533595,-0.03015 1.070229,0.01505 1.591739,0.126616 0.09044,0.01808 0.162792,0.08441 0.189922,0.168824 l 0.58485,1.971571 c 0.009,0.03313 -0.01208,0.06632 -0.0452,0.06933 -2.707186,0.31956 -6.237318,0.717474 -10.587823,1.193778 h -0.0029 c -0.06933,0.009 -0.138673,0.01207 -0.211026,0.01207 -0.06933,0 -0.141683,-0.0061 -0.21102,-0.01207 -4.350184,-0.488379 -7.880252,-0.895363 -10.584609,-1.223941 -0.03313,-0.0061 -0.05425,-0.0392 -0.0452,-0.06933 l 0.590875,-1.968549 h -0.0029 c 0.02712,-0.08742 0.09948,-0.153745 0.189922,-0.168818 0.521538,-0.114554 1.058137,-0.153751 1.591739,-0.123607 0.545657,0.03313 3.358356,0.183896 8.441705,0.44617 z"
     fill="#4c4c4c"
     id="path7"
     style="stroke-width:0.0643127" />
</svg>
