<?xml version="1.0" encoding="UTF-8" standalone="no"?>
<svg
   width="128"
   height="100"
   version="1.1"
   viewBox="0 0 96 75"
   id="svg1"
   sodipodi:docname="organic.svg"
   inkscape:version="1.4.2 (ebf0e940d0, 2025-05-08)"
   xmlns:inkscape="http://www.inkscape.org/namespaces/inkscape"
   xmlns:sodipodi="http://sodipodi.sourceforge.net/DTD/sodipodi-0.dtd"
   xmlns="http://www.w3.org/2000/svg"
   xmlns:svg="http://www.w3.org/2000/svg">
  <defs
     id="defs1" />
  <sodipodi:namedview
     id="namedview1"
     pagecolor="#ffffff"
     bordercolor="#000000"
     borderopacity="0.25"
     inkscape:showpageshadow="2"
     inkscape:pageopacity="0.0"
     inkscape:pagecheckerboard="0"
     inkscape:deskcolor="#d1d1d1"
     inkscape:document-units="pt"
     inkscape:zoom="1.4195169"
     inkscape:cx="-52.130411"
     inkscape:cy="168.71937"
     inkscape:window-width="1920"
     inkscape:window-height="1043"
     inkscape:window-x="0"
     inkscape:window-y="0"
     inkscape:window-maximized="1"
     inkscape:current-layer="svg1" />
  <path
     d="M 71.183841,19.669534 C 66.229088,25.373194 61.280245,31.078619 58.115064,37.215955 55.591909,31.439702 52.567006,26.250263 47.420161,23.554756 51.750472,29.026042 53.64119,34.498501 54.898873,39.970009 52.420556,38.787898 49.642095,37.921 46.5,37.5 c 3.695328,1.521963 6.618495,3.354608 9.00761,5.40616 -0.352094,0.936332 -0.718603,1.862357 -1.079359,2.792394 -0.803841,-0.378426 -1.636476,-0.745953 -2.578184,-1.182111 0.817202,0.708822 1.533937,1.459342 2.173676,2.240487 -0.557637,1.520506 -1.048142,3.089375 -1.309824,4.825059 -3.058203,-4.461779 -6.03572,-9.556478 -9.829103,-8.242374 6.820301,6.399644 6.810903,17.154244 5.941288,23.702779 -1.831795,-4.612732 -2.656039,-12.812446 -5.941288,-17.227405 1.657151,4.995985 0.757667,13.442428 0.579649,18.438339 h 12.20702 c 0.981576,-3.083079 1.793275,-9.588671 2.531274,-12.635386 0.751631,3.059886 1.083322,9.635504 1.451914,12.635386 h 14.589636 c -0.353668,-6.68317 -1.328699,-18.562 4.394534,-26.799252 -4.02695,2.356519 -6.936417,6.775503 -8.317654,14.014604 -0.403217,-0.675099 -0.829215,-1.357344 -1.268156,-2.040146 2.269116,-10.986911 4.6934,-21.581645 15.311123,-11.386408 C 74.543775,27.621433 69.439617,37.139571 64.468355,47.326242 63.406308,46.137848 62.257699,44.999434 61.00484,43.941934 63.036641,36.055878 65.718179,28.071787 71.184962,19.669164 Z M 23.764534,41.57312 c 2.754627,6.830088 3.164638,13.659743 4.212044,20.489978 -3.145513,-4.59276 -6.112761,-9.450383 -12.421112,-9.30259 4.925959,3.062231 6.237074,11.024968 7.662606,15.493339 h 20.001175 c -0.746129,-3.775324 -0.966131,-11.095204 -2.820402,-14.669459 -0.02287,2.943841 -0.02389,5.400457 -1.727692,8.832115 -0.164906,-1.227549 0.203709,-2.489179 0.86384,-3.768745 -1.728225,0.376698 -2.628253,1.837756 -3.348203,3.533792 1.437489,-6.487952 1.050769,-12.859279 5.617251,-19.548301 -5.086369,3.933956 -6.74916,9.422585 -9.613664,14.365812 C 29.869924,51.663496 28.191757,46.07361 23.76467,41.573046 Z m 36.273394,6.275033 c 0.868347,1.190147 1.644877,2.417399 2.347504,3.677573 -0.270559,0.534761 -0.541118,1.071769 -0.815323,1.588262 -0.638641,-1.433371 -1.284393,-2.554886 -1.95998,-3.466345 0.140527,-0.599629 0.284723,-1.19959 0.427606,-1.799786 z M 57.84592,59.808206 c 0.05899,1.665744 -0.782033,6.780045 -1.760982,8.445789 h 3.353446 c -0.472433,-1.729179 -0.994393,-6.85322 -1.592192,-8.445789 z"
     fill="#4c4c4c"
     id="path1"
     style="stroke-width:0.0700766" />
</svg>
