<?xml version="1.0" encoding="UTF-8" standalone="no"?>
<svg
   width="128"
   height="100"
   version="1.1"
   viewBox="0 0 96 75"
   id="svg1"
   sodipodi:docname="pickaxe.svg"
   inkscape:version="1.4.3 (0d15f75042, 2025-12-25)"
   xml:space="preserve"
   xmlns:inkscape="http://www.inkscape.org/namespaces/inkscape"
   xmlns:sodipodi="http://sodipodi.sourceforge.net/DTD/sodipodi-0.dtd"
   xmlns="http://www.w3.org/2000/svg"
   xmlns:svg="http://www.w3.org/2000/svg"><defs
     id="defs1" /><sodipodi:namedview
     id="namedview1"
     pagecolor="#ffffff"
     bordercolor="#000000"
     borderopacity="0.25"
     inkscape:showpageshadow="2"
     inkscape:pageopacity="0.0"
     inkscape:pagecheckerboard="0"
     inkscape:deskcolor="#d1d1d1"
     inkscape:document-units="pt"
     inkscape:zoom="1.04375"
     inkscape:cx="256.76647"
     inkscape:cy="227.06587"
     inkscape:window-width="1848"
     inkscape:window-height="1011"
     inkscape:window-x="0"
     inkscape:window-y="0"
     inkscape:window-maximized="1"
     inkscape:current-layer="svg1" /><path
     d="m 68.225374,18.602256 1.773686,1.773685 c 0.821795,0.821791 0.821795,2.163779 0,2.988179 l -0.08582,0.08582 -4.75926,-4.759259 0.08583,-0.08582 c 0.821791,-0.821791 2.163779,-0.821791 2.988175,0 z m -4.665663,0.174242 c -0.548741,-0.548746 -1.443403,-0.548746 -1.992114,0 l -6.449724,6.449724 c -0.548747,0.548747 -0.548747,1.443408 0,1.99212 l 6.26497,6.264969 c 0.548746,0.548742 1.443403,0.548742 1.992119,0 l 6.44972,-6.449724 c 0.548746,-0.548746 0.548746,-1.443407 0,-1.992119 z m 6.537941,9.664322 c 6.067454,6.798144 9.913988,13.975787 8.316677,23.471443 -0.05462,0.322485 -0.312087,0.559144 -0.639759,0.585163 -0.327673,0.02601 -0.618951,-0.166446 -0.72298,-0.478529 C 74.716155,45.043766 69.840105,39.325288 64.604874,33.936373 l 5.492668,-5.492668 z M 59.791411,33.571969 27.444037,65.919344 c -1.308142,1.308142 -3.451112,1.308142 -4.759255,0 -1.308146,-1.308143 -1.308146,-3.451118 0,-4.75926 L 55.032152,28.81271 Z m -5.123382,-9.57333 C 49.27939,18.763461 43.56008,13.886583 36.5855,11.55192 c -0.309482,-0.104025 -0.504538,-0.397909 -0.478528,-0.722976 0.02601,-0.325072 0.262673,-0.585167 0.585166,-0.63976 9.495101,-1.5994214 16.673295,2.247 23.471444,8.314458 z"
     fill="#4c4c4c"
     fill-rule="evenodd"
     id="path1"
     style="stroke-width:0.0554814" /></svg>
