<?xml version="1.0" encoding="UTF-8" standalone="no"?>
<svg
   width="128"
   height="100"
   version="1.1"
   viewBox="0 0 96 75"
   id="svg1"
   sodipodi:docname="quality.svg"
   inkscape:version="1.4.3 (0d15f75042, 2025-12-25)"
   xml:space="preserve"
   xmlns:inkscape="http://www.inkscape.org/namespaces/inkscape"
   xmlns:sodipodi="http://sodipodi.sourceforge.net/DTD/sodipodi-0.dtd"
   xmlns="http://www.w3.org/2000/svg"
   xmlns:svg="http://www.w3.org/2000/svg"><defs
     id="defs1" /><sodipodi:namedview
     id="namedview1"
     pagecolor="#ffffff"
     bordercolor="#000000"
     borderopacity="0.25"
     inkscape:showpageshadow="2"
     inkscape:pageopacity="0.0"
     inkscape:pagecheckerboard="0"
     inkscape:deskcolor="#d1d1d1"
     inkscape:document-units="pt"
     inkscape:zoom="2.0075001"
     inkscape:cx="97.63387"
     inkscape:cy="-31.382316"
     inkscape:window-width="1848"
     inkscape:window-height="1011"
     inkscape:window-x="0"
     inkscape:window-y="0"
     inkscape:window-maximized="1"
     inkscape:current-layer="g1" /><g
     id="g1"
     transform="translate(-550.2446,-550.1895)"><path
       d="m 568.7189,593.43368 h 0.45556 c 0.14514,0 0.27818,0 0.41121,-0.0121 0.14513,0 0.27817,-0.0121 0.41121,-0.0201 0.12497,0 0.24593,-0.0121 0.3709,-0.0201 0.12497,0 0.24593,-0.0201 0.36285,-0.0201 0.11287,0 0.22575,-0.0201 0.33864,-0.0322 0.11288,0 0.22576,-0.0201 0.33059,-0.0322 0.10482,-0.0121 0.19755,-0.0201 0.29833,-0.0322 0.10483,-0.0121 0.19755,-0.0201 0.29028,-0.0403 0.0927,-0.0121 0.18544,-0.0322 0.27011,-0.0403 0.0806,-0.0121 0.17738,-0.0322 0.25801,-0.0403 0.0807,-0.0121 0.16529,-0.0322 0.23786,-0.0524 0.0726,-0.0121 0.14513,-0.0322 0.21769,-0.0403 0.0726,-0.0201 0.14513,-0.0322 0.2177,-0.0525 0.0605,-0.0201 0.12498,-0.0322 0.18545,-0.0524 0.0605,-0.0201 0.12497,-0.0403 0.18544,-0.0525 0.0524,-0.0201 0.11288,-0.0322 0.1532,-0.0525 0.0525,-0.0201 0.10482,-0.0403 0.15319,-0.0604 0.0403,-0.0201 0.0927,-0.0322 0.13304,-0.0525 0.0524,-0.0201 0.0927,-0.0403 0.13305,-0.0605 0.0403,-0.0201 0.0726,-0.0322 0.11287,-0.0524 0.0403,-0.0201 0.0806,-0.0403 0.1129,-0.0605 0.0322,-0.0201 0.0604,-0.0322 0.0806,-0.0525 0.0403,-0.0201 0.0726,-0.0403 0.10483,-0.0604 0.0201,-0.0121 0.0403,-0.0322 0.0605,-0.0403 0.0322,-0.0201 0.0605,-0.0524 0.0806,-0.0726 0.0121,-0.0121 0.0322,-0.0201 0.0403,-0.0322 l 0.10079,-0.10079 c 0.0322,-0.0322 0.0524,-0.0605 0.0726,-0.0927 0.0927,-0.15319 0.19756,-0.4233 -0.0403,-0.92723 -0.0806,-0.17738 -0.2056,-0.35074 -0.33864,-0.53619 -0.0403,-0.0525 -0.0927,-0.10482 -0.13304,-0.1653 -0.10483,-0.12496 -0.2177,-0.25801 -0.33865,-0.38299 -0.0605,-0.0605 -0.13304,-0.13304 -0.20561,-0.19754 -0.12498,-0.11288 -0.23786,-0.22577 -0.3709,-0.33865 -0.0807,-0.0726 -0.1653,-0.14513 -0.24592,-0.20561 -0.12498,-0.10481 -0.25802,-0.21769 -0.39106,-0.31042 -0.0927,-0.0726 -0.17739,-0.13304 -0.27012,-0.20561 -0.13304,-0.10483 -0.2701,-0.19755 -0.39105,-0.29027 -0.0806,-0.0605 -0.17739,-0.12497 -0.25802,-0.18544 -0.13304,-0.0927 -0.27011,-0.17739 -0.39107,-0.25802 -0.0726,-0.0524 -0.15319,-0.10483 -0.22575,-0.14513 -0.14514,-0.0927 -0.27011,-0.16531 -0.39106,-0.24593 -0.0525,-0.0322 -0.10483,-0.0605 -0.1532,-0.0927 0,0 -0.0121,0 -0.0201,-0.0121 l -2.19719,3.49941 v 2.36249 h 0.20561 z"
       fill="#4c4c4c"
       id="path1"
       style="stroke-width:0.0860058" /><path
       d="m 626.51475,587.59217 c 0,0 -0.0726,0.0403 -0.10482,0.0605 -0.13305,0.0806 -0.29027,0.17738 -0.44347,0.27818 -0.0605,0.0403 -0.13304,0.0806 -0.19754,0.12497 -0.13304,0.0927 -0.27819,0.18545 -0.42332,0.27818 -0.0806,0.0524 -0.16529,0.11288 -0.23786,0.16529 -0.13304,0.0927 -0.27817,0.19754 -0.4112,0.29834 -0.0806,0.0605 -0.17739,0.13304 -0.25803,0.19755 -0.13304,0.10482 -0.2701,0.2056 -0.39106,0.31849 -0.0806,0.0726 -0.16529,0.14513 -0.24592,0.2056 -0.12497,0.11289 -0.24592,0.21769 -0.36284,0.33059 -0.0726,0.0726 -0.14514,0.14514 -0.2177,0.2056 -0.11288,0.12498 -0.21769,0.23786 -0.31848,0.36285 -0.0524,0.0605 -0.11289,0.12497 -0.15319,0.18544 -0.13305,0.17739 -0.25803,0.36284 -0.33865,0.52813 -0.24593,0.50394 -0.14514,0.77405 -0.0403,0.92723 0.0201,0.0322 0.0403,0.0604 0.0726,0.0927 l 0.0201,0.0201 c 0.0201,0.0322 0.0524,0.0524 0.0806,0.0806 0.0121,0.0121 0.0322,0.0201 0.0403,0.0322 0.0322,0.0201 0.0525,0.0524 0.0806,0.0726 0.0201,0.0121 0.0403,0.0322 0.0605,0.0403 0.0322,0.0201 0.0605,0.0403 0.10483,0.0605 0.0322,0.0201 0.0605,0.0322 0.0806,0.0525 0.0403,0.0201 0.0726,0.0403 0.11288,0.0604 0.0322,0.0201 0.0726,0.0322 0.11288,0.0525 0.0403,0.0201 0.0927,0.0403 0.13304,0.0605 0.0403,0.0201 0.0927,0.0322 0.13304,0.0524 0.0525,0.0201 0.10483,0.0403 0.1532,0.0605 0.0524,0.0201 0.10482,0.0322 0.15319,0.0525 0.0605,0.0201 0.12498,0.0403 0.18545,0.0524 0.0605,0.0201 0.12497,0.0322 0.18544,0.0524 0.0726,0.0201 0.13304,0.0322 0.2177,0.0525 0.0726,0.0201 0.14514,0.0322 0.2177,0.0403 0.0806,0.0201 0.15319,0.0322 0.23785,0.0524 0.0806,0.0121 0.16529,0.0322 0.25803,0.0403 0.0806,0.0121 0.17738,0.0322 0.2701,0.0403 0.0927,0.0121 0.19755,0.0201 0.29027,0.0403 0.0927,0.0121 0.19755,0.0201 0.29834,0.0322 0.10482,0.0121 0.2177,0.0201 0.33059,0.0322 0.11288,0 0.2177,0.0201 0.33865,0.0322 0.11288,0 0.23785,0.0201 0.36284,0.0201 0.12497,0 0.24592,0.0121 0.3709,0.0201 0.13304,0 0.27011,0.0121 0.4112,0.0201 0.13305,0 0.27011,0 0.41122,0.0121 h 0.66116 v -2.36249 l -2.19718,-3.4994 c 0,0 -0.0121,0 -0.0201,0.0121 z"
       fill="#4c4c4c"
       id="path2"
       style="stroke-width:0.0860058" /><path
       d="m 556.85011,608.34621 h 5.45869 c 2.37454,0 4.31371,-1.93916 4.47901,-4.37416 h -9.11145 c -0.17739,0 -0.33865,-0.0927 -0.4354,-0.23786 -0.0927,-0.14513 -0.10483,-0.33059 -0.0322,-0.49587 l 3.20105,-6.85363 c 0.0807,-0.18544 0.27011,-0.29833 0.46363,-0.29833 h 5.94652 v -7.93808 c 0,-2.60029 -2.0238,-4.71689 -4.51127,-4.71689 H 556.85 c -2.48745,0 -4.51934,2.11651 -4.51934,4.71689 v 15.48104 c 0,2.60029 2.0238,4.71689 4.51934,4.71689 z"
       fill="#4c4c4c"
       id="path3"
       style="stroke-width:0.0860058" /><path
       d="m 590.24699,596.0861 c -3.62436,-3.41469 -11.46542,-6.30526 -16.78315,-7.87357 0.95138,0.7418 1.88679,1.6207 2.32215,2.4995 0.4354,0.89901 0.23786,1.5481 0,1.93109 -0.76196,1.20941 -3.07608,1.79399 -7.26482,1.83837 v 1.60856 h 21.7345 z"
       fill="#4c4c4c"
       id="path4"
       style="stroke-width:0.0860058" /><path
       d="m 607.00951,596.0861 h 21.73451 v -1.60856 c -4.18874,-0.0403 -6.50281,-0.62893 -7.26482,-1.83838 -0.24593,-0.38299 -0.44346,-1.03206 0,-1.93109 0.42331,-0.86676 1.37075,-1.75374 2.32215,-2.4995 -5.31352,1.56824 -13.15887,4.45889 -16.78316,7.87357 z"
       fill="#4c4c4c"
       id="path5"
       style="stroke-width:0.0860058" /><path
       d="m 571.04105,576.12589 h 15.8199 c 0.71357,-2.14481 2.01176,-5.07967 4.22098,-7.26482 h -22.97557 l 2.94303,7.26482 z"
       fill="#4c4c4c"
       id="path6"
       style="stroke-width:0.0860058" /><path
       d="m 628.49803,568.85754 h -22.31418 c 2.20932,2.17698 3.5074,5.12001 4.22099,7.26483 h 15.16195 l 2.94303,-7.26483 z"
       fill="#4c4c4c"
       id="path7"
       style="stroke-width:0.0860058" /><path
       d="m 629.77609,590.92576 v 5.14821 h 6.6036 c 0.19755,0 0.38299,0.11288 0.46362,0.29834 l 3.20105,6.85363 c 0.0726,0.16529 0.0605,0.35074 -0.0322,0.49586 -0.0927,0.14514 -0.25802,0.23787 -0.4354,0.23787 h -9.77198 c 0.1653,2.43499 2.09639,4.37416 4.46697,4.37416 h 5.45061 c 2.48746,0 4.49914,-2.11652 4.49914,-4.7169 V 588.1359 c 0,-2.6003 -2.02381,-4.7169 -4.49914,-4.7169 h -5.45061 c -2.48746,0 -4.49914,2.11651 -4.49914,4.7169 v 2.77773 z"
       fill="#4c4c4c"
       id="path8"
       style="stroke-width:0.0860058" /><path
       d="m 571.37131,586.5601 c 3.18892,0.83453 15.8113,4.40642 20.29047,9.52686 h 13.93293 c 4.47901,-5.12001 17.10138,-8.69174 20.29047,-9.52686 l -2.00367,-3.03574 c 0,0 -0.0806,0.0121 -0.11288,0.0201 -0.0806,0.0121 -0.18545,0.0322 -0.29834,0.0403 -0.0524,0 -0.0806,0.0121 -0.14514,0.0201 -0.17738,0.0201 -0.3709,0.0524 -0.58861,0.0806 -0.0403,0 -0.0806,0.0121 -0.12496,0.0201 -0.24593,0.0322 -0.51604,0.0726 -0.80631,0.10483 -0.0322,0 -0.0604,0 -0.0806,0.0121 -0.31848,0.0403 -0.66117,0.0806 -1.01995,0.13304 h -0.0121 c -0.75389,0.0927 -1.60856,0.19754 -2.54791,0.29833 -0.0403,0 -0.0726,0 -0.11289,0.0121 -0.44346,0.0525 -0.89902,0.10483 -1.37075,0.14514 -0.0726,0 -0.13305,0.0121 -0.20561,0.0201 -0.47572,0.0524 -0.95948,0.10482 -1.46743,0.14513 -0.0726,0 -0.13305,0.0121 -0.20561,0.0201 -0.51603,0.0524 -1.04419,0.10483 -1.58035,0.14513 -0.0605,0 -0.12498,0.0121 -0.18544,0.0201 -0.55636,0.0525 -1.13692,0.0927 -1.71342,0.14514 h -0.0524 c -0.58862,0.0524 -1.19738,0.0927 -1.80613,0.13305 h -0.11288 c -0.58861,0.0403 -1.19737,0.0806 -1.80612,0.11287 -0.0807,0 -0.16529,0 -0.24592,0.0121 -0.58861,0.0322 -1.18525,0.0605 -1.786,0.0927 -0.10482,0 -0.20561,0 -0.31043,0.0121 -0.59666,0.0322 -1.19737,0.0524 -1.80612,0.0726 h -0.29027 c -0.62086,0.0201 -1.23771,0.0322 -1.85849,0.0403 h -0.20561 c -0.64907,0.0121 -1.31021,0.0201 -1.9593,0.0201 h -0.79421 c -0.64907,0 -1.31021,0 -1.95929,-0.0201 h -0.20561 c -0.62086,-0.0121 -1.24975,-0.0322 -1.86659,-0.0403 h -0.29027 c -0.60875,-0.0201 -1.20941,-0.0403 -1.80612,-0.0726 -0.10482,0 -0.2056,0 -0.31042,-0.0121 -0.59667,-0.0322 -1.19738,-0.0605 -1.786,-0.0927 -0.0806,0 -0.15319,0 -0.23785,-0.0121 -0.60876,-0.0322 -1.2175,-0.0726 -1.81825,-0.11287 h -0.10482 c -0.62087,-0.0403 -1.22963,-0.0927 -1.82626,-0.13305 h -0.0403 c -0.5886,-0.0524 -1.16512,-0.0927 -1.73352,-0.14514 -0.0605,0 -0.11289,0 -0.1774,-0.0121 -0.54828,-0.0524 -1.0724,-0.0927 -1.58844,-0.14513 -0.0604,0 -0.12497,-0.0121 -0.19754,-0.0201 -0.50394,-0.0524 -0.99982,-0.10483 -1.47551,-0.14515 -0.0605,0 -0.12498,-0.0121 -0.18545,-0.0201 -0.48378,-0.0525 -0.9514,-0.10482 -1.39493,-0.1532 -0.0322,0 -0.0605,0 -0.0927,-0.0121 -0.9514,-0.10482 -1.81825,-0.20561 -2.56805,-0.31043 -0.37089,-0.0403 -0.71358,-0.0927 -1.03207,-0.13304 -0.0322,0 -0.0605,0 -0.0806,-0.0121 -0.29834,-0.0403 -0.56845,-0.0726 -0.80631,-0.10483 -0.0403,0 -0.0806,-0.0121 -0.12497,-0.0201 -0.2177,-0.0322 -0.42331,-0.0605 -0.58861,-0.0806 -0.0524,0 -0.0927,-0.0121 -0.14513,-0.0201 -0.11288,-0.0201 -0.20561,-0.0322 -0.29834,-0.0403 -0.0322,0 -0.0807,-0.0121 -0.11288,-0.0201 l -2.00371,3.03581 z"
       fill="#4c4c4c"
       id="path9"
       style="stroke-width:0.0860058" /><path
       d="m 586.75945,579.52914 -11.16697,3.24138 c 4.25323,0.55636 13.56997,1.62069 22.63326,1.62069 h 0.79421 c 9.07103,0 18.38028,-1.06432 22.63328,-1.62069 l -11.16699,-3.24138 c -0.18545,-0.0524 -0.33059,-0.2177 -0.36284,-0.41122 -0.0201,-0.12497 -2.1246,-12.21969 -11.10678,-12.21969 h -0.79422 c -8.97813,0 -11.08269,12.09499 -11.10677,12.21969 -0.0322,0.19754 -0.1774,0.35074 -0.36285,0.41122 z m 6.19242,-3.87835 c 0,-3.12846 2.54792,-5.67637 5.67638,-5.67637 3.12846,0 5.67638,2.54791 5.67638,5.67637 v 5.16035 c 0,0.29027 -0.22577,0.51603 -0.51604,0.51603 H 593.4679 c -0.29027,0 -0.51603,-0.22576 -0.51603,-0.51603 z"
       fill="#4c4c4c"
       id="path10"
       style="stroke-width:0.0860058" /><path
       d="m 593.98393,580.29458 h 9.28863 v -4.64431 c 0,-2.56004 -2.08427,-4.6443 -4.64431,-4.6443 -2.56005,0 -4.64432,2.08426 -4.64432,4.6443 z"
       fill="#4c4c4c"
       id="path11"
       style="stroke-width:0.0860058" /><path
       d="m 561.20457,597.12247 -2.71322,5.82155 h 80.28377 l -2.71322,-5.82155 z"
       fill="#4c4c4c"
       id="path12"
       style="stroke-width:0.0860058" /></g></svg>
