<?xml version="1.0" encoding="UTF-8" standalone="no"?>
<svg
   width="128"
   height="100"
   version="1.1"
   viewBox="0 0 96 75"
   id="svg3"
   sodipodi:docname="raining.svg"
   inkscape:version="1.4.3 (0d15f75042, 2025-12-25)"
   xml:space="preserve"
   xmlns:inkscape="http://www.inkscape.org/namespaces/inkscape"
   xmlns:sodipodi="http://sodipodi.sourceforge.net/DTD/sodipodi-0.dtd"
   xmlns="http://www.w3.org/2000/svg"
   xmlns:svg="http://www.w3.org/2000/svg"><defs
     id="defs3" /><sodipodi:namedview
     id="namedview3"
     pagecolor="#ffffff"
     bordercolor="#000000"
     borderopacity="0.25"
     inkscape:showpageshadow="2"
     inkscape:pageopacity="0.0"
     inkscape:pagecheckerboard="0"
     inkscape:deskcolor="#d1d1d1"
     inkscape:document-units="pt"
     inkscape:zoom="4.015"
     inkscape:cx="89.663762"
     inkscape:cy="38.854297"
     inkscape:window-width="1848"
     inkscape:window-height="1011"
     inkscape:window-x="0"
     inkscape:window-y="0"
     inkscape:window-maximized="1"
     inkscape:current-layer="svg3" /><path
     d="m 40.570376,40.024085 c 2.146011,-1.431738 4.923613,-2.24411 7.765306,-2.434236 l 0.0031,24.182125 c 0,3.528692 -4.298225,5.346703 -6.82154,2.823581 -1.882364,-1.882364 -0.469069,-4.141847 -2.492447,-4.141847 -2.992191,0 -0.833887,7.953013 5.316027,7.953013 3.645174,0 6.634486,-2.989112 6.634486,-6.634486 V 37.59011 c 2.845034,0.190072 5.619564,1.002498 7.765306,2.434236 -0.251393,-6.680272 -1.321338,-12.648952 -2.924759,-17.110099 -3.660546,-10.18718 -8.660674,-10.18718 -12.321282,0 -1.603421,4.460687 -2.673351,10.433098 -2.924759,17.110099 z M 75.679393,22.35283 c -1.361166,-0.781766 -1.790406,-2.55379 -1.073001,-3.936479 0.677515,-1.306035 3.320252,-2.409712 4.776455,-3.124045 0.361754,2.581394 1.358156,6.358422 -1.5513,7.287207 -0.714334,0.229931 -1.499171,0.150229 -2.152154,-0.226867 z m -6.882361,-0.803212 c -2.274786,3.093362 -6.698585,-0.459862 -4.384033,-3.537914 0.760313,-1.008648 3.240528,-2.096953 4.512808,-2.719329 0.266726,1.913039 0.919702,4.831647 -0.12876,6.257243 z M 82.433571,13.066186 C 81.072404,12.28442 80.643164,10.515467 81.360569,9.129707 82.038077,7.8236722 84.680822,6.7199953 86.137016,6.0056616 86.498779,8.5870558 87.492101,12.364084 84.585724,13.292869 83.86524,13.5228 83.089625,13.436963 82.433571,13.066002 Z m -10.45403,0 c -1.361166,-0.781766 -1.790407,-2.553798 -1.073002,-3.936479 0.677516,-1.3060348 3.320253,-2.4097117 4.776455,-3.1240454 0.361755,2.5813942 1.355085,6.3584224 -1.551299,7.2872074 -0.714326,0.229931 -1.502242,0.150229 -2.152154,-0.226867 z m -10.460564,0 c -1.361166,-0.781766 -1.790406,-2.553798 -1.073001,-3.936479 0.677507,-1.3060348 3.320252,-2.4097117 4.776455,-3.1240454 0.361754,2.5813942 1.355084,6.3584224 -1.5513,7.2872074 -0.717405,0.229931 -1.496092,0.144094 -2.152154,-0.226867 z m 1.17726,5.567434 c -0.533445,1.857839 0.251392,3.948711 1.952867,4.859252 v 0.0031 c 1.358156,0.732716 2.933919,0.628489 4.169443,-0.217668 4.469908,4.497512 7.281326,10.386666 7.953013,16.772616 -4.540412,-2.998334 -10.733294,-3.13627 -15.386725,0.150229 -0.285116,-8.237515 -2.026442,-18.887752 -6.33389,-24.397307 2.691726,0.545707 5.26697,1.508323 7.646267,2.82973 z M 44.25911,15.80389 C 39.954803,21.310043 38.213385,31.96041 37.928292,40.195307 33.274469,36.908801 27.081847,37.046737 22.541566,40.045086 23.804632,28.082863 32.575707,18.191956 44.25931,15.80409 Z"
     fill="#4c4c4c"
     fill-rule="evenodd"
     id="path1"
     style="stroke-width:0.0654031" /></svg>
