<?xml version="1.0" encoding="UTF-8" standalone="no"?>
<svg
   width="128"
   height="100"
   version="1.1"
   viewBox="0 0 96 75"
   id="svg1"
   sodipodi:docname="rake.svg"
   inkscape:version="1.4.3 (0d15f75042, 2025-12-25)"
   xml:space="preserve"
   xmlns:inkscape="http://www.inkscape.org/namespaces/inkscape"
   xmlns:sodipodi="http://sodipodi.sourceforge.net/DTD/sodipodi-0.dtd"
   xmlns="http://www.w3.org/2000/svg"
   xmlns:svg="http://www.w3.org/2000/svg"><defs
     id="defs1" /><sodipodi:namedview
     id="namedview1"
     pagecolor="#ffffff"
     bordercolor="#000000"
     borderopacity="0.25"
     inkscape:showpageshadow="2"
     inkscape:pageopacity="0.0"
     inkscape:pagecheckerboard="0"
     inkscape:deskcolor="#d1d1d1"
     inkscape:document-units="pt"
     inkscape:zoom="1.4760854"
     inkscape:cx="31.163509"
     inkscape:cy="111.78215"
     inkscape:window-width="1848"
     inkscape:window-height="1011"
     inkscape:window-x="0"
     inkscape:window-y="0"
     inkscape:window-maximized="1"
     inkscape:current-layer="svg1" /><g
     id="g1"
     transform="matrix(0.06581726,0,0,0.06581726,9.086951,-1.6789504)"><path
       d="m 646.13,935.16 -24.141,42.047 c -3.4688,8.8125 -9.9375,27.234 -12.609,48.188 -1.2188,9.5156 -1.7812,38.438 -1.875,48.75 -0.0937,7.4062 -6.0938,13.359 -13.5,13.359 h -0.14062 c -7.4531,-0.094 -13.406,-6.1875 -13.359,-13.641 0.0469,-3.9375 0.46875,-39.094 2.1094,-51.891 1.875,-14.859 5.3906,-28.406 8.7188,-39 3.7031,-11.719 -1.4062,-24.375 -12.047,-30.562 l -0.0937,-0.0469 c -15.703,-9.1406 -35.672,-0.23438 -39.375,17.578 -0.9375,4.5 -1.7812,9.2344 -2.3906,14.109 -1.2188,9.5156 -1.7812,38.438 -1.875,48.75 -0.0937,7.4062 -6.0938,13.359 -13.5,13.359 h -0.14062 c -7.4531,-0.094 -13.406,-6.1875 -13.359,-13.641 0.0469,-3.9375 0.46875,-39.094 2.1094,-51.891 1.9219,-15.047 5.4375,-28.781 8.8125,-39.422 3.7031,-11.719 -1.3594,-24.422 -12.047,-30.656 l -0.46875,-0.28125 c -15.703,-9.1406 -35.812,-0.1875 -39.422,17.625 -0.84375,4.125 -1.5938,8.4375 -2.1562,12.891 -1.2188,9.5156 -1.7812,38.438 -1.875,48.75 -0.0937,7.4062 -6.0938,13.35905 -13.5,13.35905 h -0.14062 c -7.4531,-0.094 -13.406,-6.18755 -13.359,-13.64105 0.0469,-3.9375 0.46875,-39.094 2.1094,-51.891 1.8281,-14.438 5.2031,-27.703 8.4375,-38.156 3.7031,-11.859 -1.2188,-24.609 -11.953,-30.844 l -0.0469,-0.0469 c -15.703,-9.1406 -35.719,-0.1875 -39.375,17.625 -0.89062,4.3125 -1.6406,8.8125 -2.25,13.406 -1.2188,9.5156 -1.7812,38.438 -1.875,48.75 -0.0937,7.4062 -6.0938,13.359 -13.5,13.359 h -0.14062 c -7.4531,-0.0937 -13.406,-6.1875 -13.359,-13.641 0.0469,-3.9375 0.46875,-39.094 2.1094,-51.891 1.875,-14.812 5.3438,-28.312 8.6719,-38.859 3.7031,-11.719 -1.4062,-24.375 -12.047,-30.562 l -0.42188,-0.23438 c -15.75,-9.1875 -35.859,-0.1875 -39.422,17.672 -0.79688,3.9375 -1.4531,8.0156 -2.0156,12.234 -1.2188,9.5156 -1.7812,38.438 -1.875,48.75 -0.0937,7.4062 -6.0938,13.359 -13.5,13.359 h -0.14062 c -7.4531,-0.0937 -13.406,-6.1875 -13.359,-13.641 0.0469,-3.9375 0.46875,-39.094 2.1094,-51.891 1.8281,-14.203 5.0625,-27.234 8.25,-37.594 3.6562,-11.812 -1.2656,-24.516 -11.953,-30.75 -15.70299,-9.1406 -35.812,-0.1875 -39.422,17.625 -0.84375,4.0781 -1.54689,8.3438 -2.10939,12.75 -1.2188,9.5156 -1.78121,38.438 -1.875,48.75 -0.0937,7.4062 -6.0938,13.359 -13.5,13.359 h -0.14063 c -7.4531,-0.0937 -13.406,-6.1875 -13.359,-13.641 0.0469,-3.9375 0.46875,-39.094 2.1094,-51.891 1.8281,-14.391 5.1562,-27.562 8.3906,-38.016 3.6562,-11.859 -1.2188,-24.562 -11.953,-30.797 l -0.0469,-0.0469 c -15.703,-9.14059 -35.766,-0.1875 -39.422,17.625 -0.84375,4.2656 -1.6406,8.67191 -2.2031,13.266 -1.2188,9.5156 -1.7812,38.438 -1.875,48.75 -0.0937,7.4062 -6.0938,13.359 -13.5,13.359 h -0.14062 c -7.4531,-0.0937 -13.406,-6.1875 -13.359,-13.64099 0.0469,-3.9375 0.46875,-39.09401 2.1094,-51.891 1.875,-14.766 5.2969,-28.219 8.625,-38.766 3.6562,-11.719 -1.4531,-24.375 -12.047,-30.562 l -0.375,-0.23438 c -15.75,-9.1875 -35.859,-0.1875 -39.422,17.672 -0.75,3.8906 -1.4531,7.9219 -1.9688,12.047 -1.2188,9.5156 -1.7812,38.438 -1.875,48.75 -0.0937,7.4062 -6.0938,13.359 -13.5,13.359 h -0.14062 c -7.4531,-0.0937 -13.406,-6.1875 -13.359,-13.641 0.04687,-3.9375 0.46875,-39.094 2.1094,-51.891 3.3281,-26.062 10.875,-48.422 15.234,-57.188 5.3438,-10.594 23.109,-30.797 33.234,-41.906 4.2188,-4.6406 11.062,-5.625 16.453,-2.4375 l 210.74,123.56 c 12.422,7.3125 28.312,4.6875 37.734,-6.2344 l 84.562,-97.734 c 17.625,-2.1094 31.406,8.2969 37.031,13.453 10.734,9.8906 16.922,22.781 17.344,34.359 l -107.67,86.859 c -3.375,2.7656 -3,8.0625 0.75,10.266 l 217.26,127.36 c 6.2812,3.7031 8.4375,11.766 4.7812,18.047 z"
       fill="#4c4c4c"
       id="path1" /><path
       d="m 1117.5,144.32 c 0.094,5.3438 -2.5781,10.406 -6.5156,14.016 l -556.92,512.95 c -4.3125,-11.953 -11.906,-23.391 -22.219,-32.906 -8.9062,-8.2031 -19.031,-13.922 -29.531,-17.297 l 553.26,-509.58 c 21.703,-20.016 61.266,-8.2969 61.922,32.812 z"
       fill="#4c4c4c"
       id="path2" /></g></svg>
