<?xml version="1.0" encoding="UTF-8" standalone="no"?>
<svg
   width="128"
   height="100"
   version="1.1"
   viewBox="0 0 96 75"
   id="svg1"
   sodipodi:docname="removal.svg"
   inkscape:version="1.4.3 (0d15f75042, 2025-12-25)"
   xml:space="preserve"
   xmlns:inkscape="http://www.inkscape.org/namespaces/inkscape"
   xmlns:sodipodi="http://sodipodi.sourceforge.net/DTD/sodipodi-0.dtd"
   xmlns="http://www.w3.org/2000/svg"
   xmlns:svg="http://www.w3.org/2000/svg"><defs
     id="defs1" /><sodipodi:namedview
     id="namedview1"
     pagecolor="#ffffff"
     bordercolor="#000000"
     borderopacity="0.25"
     inkscape:showpageshadow="2"
     inkscape:pageopacity="0.0"
     inkscape:pagecheckerboard="0"
     inkscape:deskcolor="#d1d1d1"
     inkscape:document-units="pt"
     inkscape:zoom="2.9521708"
     inkscape:cx="130.75124"
     inkscape:cy="94.167993"
     inkscape:window-width="1848"
     inkscape:window-height="1011"
     inkscape:window-x="0"
     inkscape:window-y="0"
     inkscape:window-maximized="1"
     inkscape:current-layer="svg1" /><g
     id="g1"
     transform="matrix(0.06483896,0,0,0.06483896,10.411287,0.86531679)"><path
       d="M 1050,722.39 H 504 c -45.609,0 -85.219,25.219 -105.61,62.391 h -75.609 v -24 l -73.219,-60 -20.391,-78 c -2.3906,-10.781 -12,-18 -24,-18 h -55.219 c -6,0 -10.781,4.7812 -9.6094,10.781 1.2188,14.391 2.3906,33.609 2.3906,55.219 0,27.609 0,62.391 -9.6094,102 -6,21.609 -25.219,92.391 -90,146.39 -2.3906,2.3906 -4.7812,3.6094 -7.2188,6 -15.609,12 -7.2188,34.781 12,34.781 h 91.219 c 60,0 115.22,-39.609 132,-96 h 114 c 9.6094,56.391 58.781,99.609 117.61,99.609 h 546 c 66,0 120,-54 120,-120 1.2656,-67.172 -52.734,-121.18 -118.73,-121.18 z M 504,903.61 c -33.609,0 -61.219,-27.609 -61.219,-61.219 0,-33.61 27.609,-61.219 61.219,-61.219 33.61,0 61.219,27.609 61.219,61.219 0,33.61 -27.609,61.219 -61.219,61.219 z m 408,-67.219 c 0,20.391 -16.781,37.219 -37.219,37.219 h -198 c -20.391,0 -37.219,-16.781 -37.219,-37.219 0,-20.391 16.781,-37.219 37.219,-37.219 h 198 C 895.219,799.21888 912,816 912,836.391 Z m 135.61,67.219 c -33.609,0 -61.219,-27.609 -61.219,-61.219 0,-33.61 27.609,-61.219 61.219,-61.219 33.61,0 61.219,27.609 61.219,61.219 -0.047,33.609 -27.609,61.219 -61.219,61.219 z"
       fill="#4c4c4c"
       id="path1" /><path
       d="m 381.61,753.61 c 22.781,-42 76.781,-62.391 111.61,-62.391 h 582 v -20.391 h 13.219 c 18,0 32.391,-14.391 32.391,-32.391 l -0.047,-140.44 c 0,-18 -14.391,-32.391 -32.391,-32.391 h -36 l -18,-205.22 c -1.2188,-13.219 -12,-24 -25.219,-24 H 707.99312 c -10.78099,0 -20.391,7.2188 -24,16.781 l -78,214.78 -73.219,9.6094 v -105.61 c 0,-24 -19.219,-43.219 -43.219,-43.219 h -27.609 v 46.781 h 10.781 c 4.7812,0 9.6094,3.6094 9.6094,9.6094 v 97.219 l -84,10.781 c -28.781,3.6094 -50.391,28.781 -50.391,57.609 v 201.61 z M 898.79,298.79 h 61.219 c 6,0 9.6094,4.7812 9.6094,9.6094 v 147.61 c 0,6 -4.7812,9.6094 -9.6094,9.6094 H 898.79 Z M 654.01,499.23 c 0,-2.3906 0,-3.6094 1.2188,-6 l 62.391,-181.22 c 2.3906,-7.2188 9.6094,-13.219 18,-13.219 h 134.39 v 166.78 h -43.219 c -12,0 -22.781,7.2188 -27.609,16.781 l -28.781,57.656 c -3.6094,6 -9.6094,10.781 -16.781,10.781 h -90 c -6,0 -10.781,-4.7812 -10.781,-10.781 l -0.0469,-40.781 z"
       fill="#4c4c4c"
       id="path2" /></g></svg>
