<?xml version="1.0" encoding="UTF-8" standalone="no"?>
<svg
   version="1.1"
   x="0px"
   y="0px"
   viewBox="0 0 100 100"
   enable-background="new 0 0 100 100"
   xml:space="preserve"
   id="svg8"
   sodipodi:docname="restart.svg"
   width="100"
   height="100"
   inkscape:version="1.2.2 (b0a8486541, 2022-12-01)"
   xmlns:inkscape="http://www.inkscape.org/namespaces/inkscape"
   xmlns:sodipodi="http://sodipodi.sourceforge.net/DTD/sodipodi-0.dtd"
   xmlns="http://www.w3.org/2000/svg"
   xmlns:svg="http://www.w3.org/2000/svg"><defs
     id="defs12" /><sodipodi:namedview
     id="namedview10"
     pagecolor="#ffffff"
     bordercolor="#000000"
     borderopacity="0.25"
     inkscape:showpageshadow="2"
     inkscape:pageopacity="0.0"
     inkscape:pagecheckerboard="true"
     inkscape:deskcolor="#d1d1d1"
     showgrid="false"
     inkscape:zoom="2.3815356"
     inkscape:cx="73.691948"
     inkscape:cy="72.012359"
     inkscape:window-width="1920"
     inkscape:window-height="1041"
     inkscape:window-x="1920"
     inkscape:window-y="0"
     inkscape:window-maximized="1"
     inkscape:current-layer="svg8" /><path
     d="m 90.091,46.208 c -0.974,-0.994 -2.084,-1.915 -3.599,-1.915 -2.033,0 -3.529,1.524 -6.807,4.865 -0.619,0.63 -1.318,1.342 -2.095,2.119 -0.683,-11.604 -3.897,-20.166 -9.772,-26.069 -5.612,-5.641 -13.479,-8.5 -23.375,-8.5 -20.809,0 -32.038,17.306 -32.038,33.589 0,15.893 10.432,32.995 33.336,32.995 3.038,0 5.5,-2.463 5.5,-5.5 0,-3.037 -2.462,-5.5 -5.5,-5.5 -16.487,0 -22.336,-11.849 -22.336,-21.995 0,-5.902 1.991,-11.639 5.463,-15.737 3.797,-4.482 9.183,-6.852 15.574,-6.852 6.96,0 12.056,1.72 15.578,5.259 3.724,3.743 5.907,9.816 6.524,18.083 -0.683,-0.688 -1.301,-1.322 -1.854,-1.89 -3.205,-3.285 -4.668,-4.784 -6.711,-4.784 -1.481,0 -2.621,0.906 -3.539,1.793 -3.621,3.497 -0.735,6.524 5.584,13.16 l 1.604,1.687 c 3.88,4.09 6.237,6.575 8.34,7.625 0.703,0.396 1.447,0.596 2.222,0.596 h 0.008 l 0.104,0.002 h 10e-4 c 0.769,0 1.515,-0.201 2.22,-0.598 2.1,-1.048 4.447,-3.521 8.312,-7.597 l 1.622,-1.705 c 6.261,-6.571 9.118,-9.571 5.634,-13.131 z"
     id="path2"
     style="fill:#ffffff" /></svg>
