<?xml version="1.0" encoding="UTF-8" standalone="no"?>
<svg
   width="1200pt"
   height="1200pt"
   version="1.1"
   viewBox="0 0 1200 1200"
   id="svg1"
   sodipodi:docname="ribcage.svg"
   xml:space="preserve"
   inkscape:version="1.4.3 (0d15f75042, 2025-12-25)"
   xmlns:inkscape="http://www.inkscape.org/namespaces/inkscape"
   xmlns:sodipodi="http://sodipodi.sourceforge.net/DTD/sodipodi-0.dtd"
   xmlns="http://www.w3.org/2000/svg"
   xmlns:svg="http://www.w3.org/2000/svg"><defs
     id="defs1" /><sodipodi:namedview
     id="namedview1"
     pagecolor="#ffffff"
     bordercolor="#000000"
     borderopacity="0.25"
     inkscape:showpageshadow="2"
     inkscape:pageopacity="0.0"
     inkscape:pagecheckerboard="true"
     inkscape:deskcolor="#d1d1d1"
     inkscape:document-units="pt"
     inkscape:zoom="0.25"
     inkscape:cx="1052"
     inkscape:cy="1504"
     inkscape:window-width="1848"
     inkscape:window-height="1011"
     inkscape:window-x="0"
     inkscape:window-y="0"
     inkscape:window-maximized="1"
     inkscape:current-layer="svg1" /><g
     id="g1"
     transform="translate(6.5641899,3.000157)"><path
       d="m 505.5,161.25 c 9.25,18.5 12.25,13.75 166.5,13.75 19,0 22.25,-13.75 39,-47.25 8.9531,-17.766 10.48,-38.359 4.25,-57.25 L 711.5,59.25 C 708.1875,49.2734 701.8164,40.594 693.289,34.445 684.7617,28.2927 674.512,24.9919 664,24.9997 H 536 c -10.512,-0.0078 -20.762,3.293 -29.289,9.4453 -8.5273,6.1484 -14.898,14.828 -18.211,24.805 -15.25,46 -6.25,55 17,102 z"
       fill="#ffffff"
       id="path1" /><path
       d="m 700,1050 c 8.9297,0 17.184,-4.7656 21.652,-12.5 4.4648,-7.7344 4.4648,-17.266 0,-25 C 717.1832,1004.7656 708.929,1000 700,1000 h -25 v -27.25 c -49.934,3.6289 -100.07,3.6289 -150,0 V 1000 h -25 c -8.9297,0 -17.184,4.7656 -21.652,12.5 -4.4648,7.7344 -4.4648,17.266 0,25 4.4688,7.7344 12.723,12.5 21.652,12.5 h 25 v 50 h -25 c -8.9297,0 -17.184,4.7656 -21.652,12.5 -4.4648,7.7344 -4.4648,17.266 0,25 4.4688,7.7344 12.723,12.5 21.652,12.5 h 25 v 25 h 150 v -25 h 25 c 8.9297,0 17.184,-4.7656 21.652,-12.5 4.4648,-7.7344 4.4648,-17.266 0,-25 C 717.1832,1104.7656 708.929,1100 700,1100 h -25 v -50 z"
       fill="#ffffff"
       id="path2" /><path
       d="m 1166.5,547.25 c -7.375,-10.988 -18.801,-18.609 -31.785,-21.188 -12.98,-2.5742 -26.453,0.0977 -37.465,7.4375 -197.25,131.5 -347.25,73 -353,70.5 -7.8984,-3.2812 -16.527,-4.4023 -25,-3.25 l -8.5,-78 c 27.297,6.2812 55.242,9.3047 83.25,9 63.793,-0.33203 126.87,-13.473 185.48,-38.637 58.617,-25.164 111.59,-61.844 155.77,-107.86 11.023,-12.871 14.777,-30.453 9.9688,-46.703 -4.8047,-16.25 -17.516,-28.961 -33.766,-33.766 -16.25,-4.8086 -33.832,-1.0547 -46.703,9.9688 -41.242,44.125 -92.723,77.406 -149.89,96.898 -57.168,19.488 -118.26,24.59 -177.86,14.852 -12.367,-2.9141 -25.375,-1.1328 -36.5,5 -10.25,-93.75 -9,-79.5 -9,-82.25 12.684,1.6211 25.465,2.3711 38.25,2.25 61.688,-0.54688 122.66,-13.312 179.38,-37.555 56.727,-24.246 108.09,-59.488 151.12,-103.7 11.023,-12.871 14.777,-30.453 9.9688,-46.703 -4.8047,-16.25 -17.516,-28.961 -33.766,-33.766 -16.25,-4.8086 -33.832,-1.0547 -46.703,9.9688 -36.246,37.941 -80.371,67.477 -129.27,86.527 -48.895,19.047 -101.37,27.145 -153.73,23.723 -33.5,-4.5 -23.5,23 -29,-25 h -155.5 c -5.25,48 4.25,21 -29,25 -52.363,3.4219 -104.84,-4.6758 -153.73,-23.723 -48.895,-19.051 -93.02,-48.586 -129.27,-86.527 -12.871,-11.023 -30.453,-14.777 -46.703,-9.9688 -16.25,4.8047 -28.961,17.516 -33.766,33.766 -4.8086,16.25 -1.0547,33.832 9.9688,46.703 110.25,110.5 266.75,156.5 368.75,139.75 0,2.75 2,-17.25 -9.25,82.25 -11.086,-6.25 -24.141,-8.0391 -36.5,-5 -1.5,0 -175,41.25 -327.5,-111.75 -12.871,-11.023 -30.453,-14.777 -46.703,-9.9688 -16.25,4.8047 -28.961,17.516 -33.766,33.766 -4.8086,16.25 -1.0547,33.832 9.9688,46.703 44.18,46.02 97.148,82.699 155.77,107.86 58.617,25.164 121.69,38.305 185.48,38.637 27.922,0.21875 55.773,-2.8008 83,-9 -12,108.25 0,67 -33.25,81.25 -5.75,1.75 -155.75,60.25 -353,-71.25 -10.98,-8.2617 -24.879,-11.637 -38.43,-9.3359 -13.547,2.3008 -25.551,10.078 -33.188,21.504 -7.6406,11.422 -10.242,25.484 -7.1914,38.887 3.0508,13.398 11.48,24.953 23.309,31.945 160,106.75 321.5,120.5 432.5,84.75 10,110 13,63 -18.75,87 -49.039,34.652 -108.63,51.117 -168.5,46.555 -59.875,-4.5664 -116.28,-29.871 -159.5,-71.555 -13.508,-10.879 -31.691,-13.98 -48.043,-8.1953 -16.352,5.7852 -28.535,19.633 -32.195,36.586 -3.6602,16.953 1.7305,34.594 14.238,46.609 66.742,61.988 154.17,96.922 245.25,98 64.879,0.22656 128.61,-17.047 184.5,-50 2.2344,11.555 8.4727,21.953 17.621,29.363 9.1445,7.4062 20.609,11.352 32.379,11.137 h 108.5 c 11.805,0.20312 23.297,-3.7773 32.449,-11.234 9.1523,-7.457 15.367,-17.914 17.551,-29.516 125,75 291.75,75 429.75,-46.75 12.508,-12.016 17.898,-29.656 14.238,-46.609 -3.6602,-16.953 -15.844,-30.801 -32.195,-36.586 -16.352,-5.7852 -34.535,-2.6836 -48.043,8.1953 -43.219,41.684 -99.625,66.988 -159.5,71.555 -59.871,4.5625 -119.46,-11.902 -168.5,-46.555 -7.2891,-5.4688 -15.934,-8.8398 -25,-9.75 8,-88 7,-75 7,-77 111.75,35.75 272.75,21.5 432.25,-85 10.875,-7.7734 18.188,-19.574 20.301,-32.773 2.1133,-13.199 -1.1445,-26.695 -9.0508,-37.477 z"
       fill="#ffffff"
       id="path3" /></g></svg>
