<?xml version="1.0" encoding="UTF-8" standalone="no"?>
<svg
   width="128"
   height="100"
   version="1.1"
   viewBox="0 0 96 75"
   id="svg3"
   sodipodi:docname="sandals.svg"
   inkscape:version="1.4.3 (0d15f75042, 2025-12-25)"
   xml:space="preserve"
   xmlns:inkscape="http://www.inkscape.org/namespaces/inkscape"
   xmlns:sodipodi="http://sodipodi.sourceforge.net/DTD/sodipodi-0.dtd"
   xmlns="http://www.w3.org/2000/svg"
   xmlns:svg="http://www.w3.org/2000/svg"><defs
     id="defs3" /><sodipodi:namedview
     id="namedview3"
     pagecolor="#ffffff"
     bordercolor="#000000"
     borderopacity="0.25"
     inkscape:showpageshadow="2"
     inkscape:pageopacity="0.0"
     inkscape:pagecheckerboard="0"
     inkscape:deskcolor="#d1d1d1"
     inkscape:document-units="pt"
     inkscape:zoom="2.0075"
     inkscape:cx="-7.9701122"
     inkscape:cy="-5.4794521"
     inkscape:window-width="1848"
     inkscape:window-height="1011"
     inkscape:window-x="0"
     inkscape:window-y="0"
     inkscape:window-maximized="1"
     inkscape:current-layer="svg3" /><g
     id="g1"
     transform="matrix(0.066904,0,0,0.066904,8.47148,-0.30659405)"><path
       d="m 376.22,273.84 c -0.14062,0.70312 0.60938,3.8438 5.0625,9.1406 12.938,15.469 38.625,28.547 48.609,28.922 19.922,0.60938 47.625,-2.0625 83.156,-12.938 l -31.922,-74.297 c -4.9219,-11.156 -16.078,-18.844 -29.297,-19.922 -22.312,-1.9219 -44.625,-9.9375 -67.781,-24.375 0.375,2.625 0.60938,5.0625 0.84375,7.3125 3.7031,31.547 3.9375,33.469 -0.375,49.453 -1.8281,6.7969 -4.5938,17.156 -8.2969,36.703 z"
       fill="#4c4c4c"
       id="path1" /><path
       d="m 749.06,570 c 18.938,37.781 36.844,73.453 53.766,103.78 7.4531,13.312 21.938,20.625 37.312,18.375 l 56.156,-8.0625 c -2.5312,-4.3125 -5.0625,-8.5312 -7.2188,-13.078 l -24.844,-49.922 -67.078,-5.0625 c -6.9375,-0.46875 -12.141,-6.6094 -11.625,-13.547 0.46875,-6.9375 6.375,-12.234 13.547,-11.625 l 52.219,3.8438 -25.922,-52.078 -71.625,-5.1562 c -6.9375,-0.46875 -12.234,-6.6094 -11.625,-13.547 0.46875,-6.9375 6.6094,-12.234 13.547,-11.625 l 56.766,4.0781 -25.781,-52.078 -76.312,-5.625 c -6.9375,-0.46875 -12.234,-6.6094 -11.625,-13.547 0.46875,-6.9375 6.7031,-12.234 13.547,-11.625 l 61.453,4.5469 -25.922,-52.078 -80.766,-5.8594 c -6.9375,-0.46875 -12.234,-6.6094 -11.625,-13.547 0.46875,-6.9375 6.2344,-12.141 13.547,-11.625 l 65.859,4.7812 -36.234,-72.938 c -5.2969,-10.547 -14.391,-18.234 -25.781,-21.703 -3.9375,-1.2188 -8.0625,-1.7812 -12.141,-1.7812 -7.3125,0 -14.625,1.9219 -21.141,5.7656 -23.391,13.781 -45,24.844 -65.156,33.703 60.562,39.703 118.5,155.02 174.71,267.24 z"
       fill="#4c4c4c"
       id="path2" /><path
       d="m 358.69,409.55 c 51.844,14.859 107.62,34.078 170.39,58.688 30.609,11.859 54.375,37.922 63.844,69.844 17.859,61.688 47.859,110.06 88.781,143.63 37.219,30.375 60.703,67.547 67.781,107.39 5.625,30.844 3.6094,64.219 -6,99.234 123.14,79.969 225.98,107.67 300.05,80.062 14.766,-5.5312 26.531,-16.922 32.531,-31.312 5.625,-13.781 5.3906,-28.781 -0.8438,-42 -3.7031,-8.1562 -8.7656,-16.781 -14.859,-26.156 -18.703,7.2188 -38.156,11.062 -58.688,11.062 -65.53095,0 -141.13995,-37.312 -235.77995,-114.7 -5.3906,-4.4531 -6.2344,-12.375 -1.7812,-17.766 4.4532,-5.391 12.375,-6.2344 17.766,-1.7812 112.92,92.391 195,124.45 263.29005,102 -25.0781,-32.859 -62.53105,-72.234 -112.92005,-119.06 -7.0781,-6.6094 -13.547,-13.781 -19.547,-21.234 l -68.859,9.9375 c -3,0.46875 -6,0.60938 -9,0.60938 -22.312,0 -42.844,-11.859 -53.859,-31.781 -17.156,-30.844 -35.156,-66.703 -54.234,-104.77 -55.828,-111.05 -124.82,-248.58 -183.98,-265.82 -49.781,18.234 -87.703,22.312 -113.77,21.469 -19.453,-0.60938 -52.453,-19.547 -68.062,-39 -8.0625,-10.078 -11.297,-19.781 -9.6094,-28.922 3.8438,-20.531 6.8438,-31.312 8.7656,-38.531 3,-11.297 3,-11.297 -0.23438,-39.938 -0.23438,-1.7812 -0.375,-3.6094 -0.60938,-5.625 l -75.141,91.922 c 3.8438,27.141 8.3906,50.766 14.062,71.859 7.5938,28.922 30.75,52.219 60.516,60.703 z"
       fill="#4c4c4c"
       id="path3" /><path
       d="m 319.69,676.92 c 27.609,5.2969 53.156,21.469 69.938,44.625 141,194.16 371.68,348.84 579.52,282.37 -86.297,-4.2188 -191.53,-53.531 -314.29,-147.47 -26.859,-20.531 -52.547,-44.531 -76.453,-71.156 -40.078,-44.766 -78.469,-80.062 -118.08,-108.14 -47.766,-38.625 -83.859,-73.078 -110.53,-105.14 -22.078,-26.625 -43.922,-48.469 -66.703,-66.703 l -45.609,-36.609 c -22.922,-18.469 -37.312,-44.766 -40.453,-74.062 -0.60938,-6.2344 -0.70313,-12.375 -0.23438,-18.469 -59.297,61.219 -108.84,130.69 -51.234,200.16 44.391,53.438 66.609,80.297 174.14,100.59 z"
       fill="#4c4c4c"
       id="path4" /><path
       d="m 253.31,449.06 45.609,36.609 c 24.141,19.312 47.062,42.375 70.312,70.312 25.547,30.844 60.609,64.078 106.31,101.16 40.453,28.781 80.297,65.156 121.55,111.38 22.781,25.453 47.391,48.375 72.938,67.922 17.391,13.312 34.453,25.547 51.234,37.078 6.7031,-28.312 7.9219,-55.219 3.375,-79.922 -7.6875,-42.703 -36.375,-73.781 -59.062,-92.297 -45,-36.938 -77.625,-89.531 -97.078,-156.14 -7.2188,-24.469 -25.453,-44.391 -48.703,-53.391 -62.156,-24.234 -117.23,-43.219 -168.24,-57.938 -38.297,-11.062 -68.156,-41.156 -78,-78.469 -4.3125,-15.938 -7.9219,-33.234 -11.156,-52.078 l -21.844,26.625 c -14.297,17.531 -20.859,39.609 -18.609,62.156 2.6719,22.547 13.734,42.797 31.359,57 z"
       fill="#4c4c4c"
       id="path5" /></g></svg>
