<?xml version="1.0" encoding="UTF-8"?>
<svg width="1200pt" height="1200pt" version="1.1" viewBox="0 0 1200 1200" xmlns="http://www.w3.org/2000/svg">
 <path d="m1106.3 75h-750c-10.312 0-18.75 8.4375-18.75 18.75v750c0 10.312 8.4375 18.75 18.75 18.75h750c10.312 0 18.75-8.4375 18.75-18.75v-750c0-10.312-8.4375-18.75-18.75-18.75zm-430.87 476.06-180 180.19h113.81c10.312 0 18.75 8.4375 18.75 18.75s-8.4375 18.75-18.75 18.75h-159.19c-10.031 0.14062-18.938-8.625-18.75-18.75v-159.19c0.46875-24.562 37.031-24.656 37.5 0v113.81l180.19-180c17.25-17.156 43.734 9 26.438 26.438zm355.87-204.37c-0.46875 24.609-36.984 24.656-37.5 0v-113.81l-180.19 180c-17.25 17.156-43.734-9-26.438-26.438l180-180.19h-113.81c-24.562-0.42188-24.656-37.031 0-37.5h159.19c4.7812 0.09375 9.8906 1.9688 13.312 5.4375 3.4688 3.4219 5.3438 8.5312 5.4375 13.312z" fill="#fff"/>
 <path d="m300 843.74v-206.26h-206.26c-10.312 0-18.75 8.4375-18.75 18.75v450c0 10.312 8.4375 18.75 18.75 18.75h450c10.312 0 18.75-8.4375 18.75-18.75v-206.26h-206.26c-30.938 0-56.25-25.312-56.25-56.25z" fill="#fff"/>
</svg>
