<?xml version="1.0" encoding="UTF-8" standalone="no"?>
<svg
   width="128"
   height="100"
   version="1.1"
   viewBox="0 0 96 75"
   id="svg1"
   sodipodi:docname="scenery.svg"
   inkscape:version="1.4.2 (ebf0e940d0, 2025-05-08)"
   xmlns:inkscape="http://www.inkscape.org/namespaces/inkscape"
   xmlns:sodipodi="http://sodipodi.sourceforge.net/DTD/sodipodi-0.dtd"
   xmlns="http://www.w3.org/2000/svg"
   xmlns:svg="http://www.w3.org/2000/svg">
  <defs
     id="defs1" />
  <sodipodi:namedview
     id="namedview1"
     pagecolor="#ffffff"
     bordercolor="#000000"
     borderopacity="0.25"
     inkscape:showpageshadow="2"
     inkscape:pageopacity="0.0"
     inkscape:pagecheckerboard="0"
     inkscape:deskcolor="#d1d1d1"
     inkscape:document-units="pt"
     inkscape:zoom="2.8390337"
     inkscape:cx="67.628644"
     inkscape:cy="50.545367"
     inkscape:window-width="1862"
     inkscape:window-height="1011"
     inkscape:window-x="0"
     inkscape:window-y="0"
     inkscape:window-maximized="1"
     inkscape:current-layer="svg1" />
  <path
     d="m 71.239026,39.457339 -6.837851,5.707307 v -2.08e-4 c -0.305581,0.261726 -0.700523,0.394924 -1.102322,0.371972 -0.401625,-0.02274 -0.778858,-0.2 -1.052993,-0.494609 -0.274107,-0.294417 -0.42375,-0.683424 -0.417663,-1.085897 V 40.743751 H 50.132895 v 11.695302 h 3.22026 c 0.402233,-0.0061 0.791281,0.143349 1.085896,0.417451 0.294416,0.274107 0.471668,0.651355 0.494614,1.052997 0.02274,0.401823 -0.110453,0.796732 -0.371971,1.102525 l -5.707308,6.837856 v 0 c -0.296242,0.360402 -0.738263,0.569119 -1.204669,0.569119 -0.466411,0 -0.908441,-0.208726 -1.204669,-0.569119 l -5.715106,-6.837856 v 2.12e-4 c -0.262126,-0.306392 -0.395527,-0.702551 -0.371971,-1.105181 0.02356,-0.402435 0.202231,-0.78031 0.498266,-1.053979 0.296243,-0.273701 0.686905,-0.422132 1.08995,-0.413803 h 3.212365 V 40.743973 H 33.46325 v 3.220057 c 0.0041,0.401416 -0.146803,0.788832 -0.421117,1.081787 -0.274513,0.292991 -0.65135,0.468827 -1.052158,0.490958 -0.400808,0.02214 -0.794712,-0.111064 -1.09967,-0.37218 l -6.869043,-5.707307 c -0.360403,-0.296238 -0.569119,-0.738258 -0.569119,-1.204669 0,-0.466596 0.208726,-0.908437 0.569119,-1.204666 l 6.837855,-5.707306 c 0.305576,-0.261518 0.700523,-0.394721 1.102318,-0.371977 0.401623,0.02296 0.778858,0.2 1.052992,0.494614 0.274107,0.294619 0.42375,0.683631 0.417663,1.085896 v 3.220053 H 45.127392 V 24.073931 h -3.204613 c -0.404258,0.0079 -0.79575,-0.141522 -1.091978,-0.416644 -0.29604,-0.275324 -0.473905,-0.654832 -0.495635,-1.058448 -0.02172,-0.403621 0.114315,-0.800219 0.379088,-1.105596 l 5.715101,-6.830058 c 0.296242,-0.360402 0.738258,-0.569118 1.204669,-0.569118 0.466596,0 0.908441,0.208725 1.204669,0.569118 l 5.707308,6.830058 c 0.264768,0.305377 0.400803,0.701924 0.379083,1.105596 -0.02172,0.403667 -0.19959,0.783115 -0.495634,1.058448 -0.296238,0.275126 -0.687685,0.424566 -1.091974,0.416644 H 50.117419 V 35.769233 H 61.812721 V 32.54918 c -0.0061,-0.402228 0.143348,-0.791277 0.417456,-1.085896 0.274107,-0.294618 0.65135,-0.471667 1.052992,-0.494614 0.401827,-0.02274 0.796737,0.110459 1.102529,0.371977 l 6.837852,5.707306 v 0 c 0.362435,0.293799 0.574006,0.734413 0.577072,1.200976 0.0032,0.466393 -0.203039,0.909635 -0.561425,1.208308 z"
     fill="#4c4c4c"
     id="path1"
     style="stroke-width:0.0519789" />
</svg>
