<?xml version="1.0" encoding="UTF-8" standalone="no"?>
<svg
   width="128"
   height="100"
   version="1.1"
   viewBox="0 0 96 75"
   id="svg1"
   sodipodi:docname="scythe.svg"
   inkscape:version="1.4.3 (0d15f75042, 2025-12-25)"
   xml:space="preserve"
   xmlns:inkscape="http://www.inkscape.org/namespaces/inkscape"
   xmlns:sodipodi="http://sodipodi.sourceforge.net/DTD/sodipodi-0.dtd"
   xmlns="http://www.w3.org/2000/svg"
   xmlns:svg="http://www.w3.org/2000/svg"><defs
     id="defs1" /><sodipodi:namedview
     id="namedview1"
     pagecolor="#ffffff"
     bordercolor="#000000"
     borderopacity="0.25"
     inkscape:showpageshadow="2"
     inkscape:pageopacity="0.0"
     inkscape:pagecheckerboard="0"
     inkscape:deskcolor="#d1d1d1"
     inkscape:document-units="pt"
     inkscape:zoom="1.4760854"
     inkscape:cx="205.27268"
     inkscape:cy="59.617147"
     inkscape:window-width="1848"
     inkscape:window-height="1011"
     inkscape:window-x="0"
     inkscape:window-y="0"
     inkscape:window-maximized="1"
     inkscape:current-layer="svg1" /><g
     id="g1"
     transform="matrix(0.05278465,0,0,0.05278465,19.371422,6.0227184)"><path
       d="M 992.16,321.61 C 914.816,269.344 829.64,229.782 739.84,204.42 708.246,196.2169 677.918,183.795 649.606,167.436 l -57.844,87.234 51.844,34.406 c 9.1875,6.0938 11.672,18.516 5.5781,27.703 l -11.719,17.672 v 0.0469 c -2.4375,3.5625 -2.6719,8.1562 -0.65625,12 1.8281,3.6094 5.5312,5.9062 9.6094,6 110.58,2.34379 218.29,35.391 311.16,95.48399 77.43805,49.172 145.59995,111.66001 201.23995,184.55001 6.4689,-73.54701 -8.4844,-206.11001 -166.63995,-310.92001 z"
       fill="#4c4c4c"
       id="path1" /><path
       d="M 632.34,82.969 598.074,60.422 c -9.7031,-6.2812 -22.688,-3.7031 -29.297,5.8594 -0.0937,0.1875 -125.02,188.29 -125.02,188.29 l 68.625,46.266 125.86,-188.63 0.0469,-0.0469 c 6.2812,-9.7031 3.6562,-22.687996 -5.9531,-29.202996 z"
       fill="#4c4c4c"
       id="path2" /><path
       d="m 58.359,1159.8 c 0.79688,0 2.0156,0.1875 3.2812,0.1875 l -0.04687,0.047 c 9.7031,-0.047 18.141,-6.7031 20.391,-16.172 33.328,-127.22 78.98399,-250.87003 136.39999,-369.19003 11.391,-24.234 23.391,-49.031 36.422,-75.094 65.719,-129.56 138.79,-255.28 218.9,-376.45 l -35.156,-23.344 c -79.312,119.77 -151.82,243.89 -217.26,371.81 -2.5781,5.0625 -7.2188,8.8125 -12.75,10.266 -5.5312,1.4535 -11.391,0.46875 -16.125,-2.6719 l -106.30999,-70.5 c -5.25,-3.2812 -11.719,-4.1719 -17.672,-2.3906 -5.953,1.7813 -10.875,6 -13.5,11.625 -3.4688,10.312 0.70312,21.656 9.9844,27.328 l 113.06,75.047 c 8.2969,5.4844 11.297,16.219 7.0312,25.219 -61.359,124.26 -109.78,254.53003 -144.37,388.78003 -1.3594,5.625 -0.23438,11.531 3.0469,16.312 3.375,4.9688 8.6719,8.3438 14.672,9.1875 z"
       fill="#4c4c4c"
       id="path3" /><path
       d="m 461.11,43.5 c -9.7031,-6.4219 -22.781,-3.75 -29.25,5.9062 l -45.422,68.438 c -6.375,9.7969 -3.7031,22.922 6,29.438 l 51.844,34.406 68.766,-103.69 z"
       fill="#4c4c4c"
       id="path4" /></g></svg>
