<?xml version="1.0" encoding="UTF-8" standalone="no"?>
<svg
   width="128"
   height="100"
   version="1.1"
   viewBox="0 0 96 75"
   id="svg8"
   sodipodi:docname="sensory.svg"
   inkscape:version="1.4.3 (0d15f75042, 2025-12-25)"
   xml:space="preserve"
   xmlns:inkscape="http://www.inkscape.org/namespaces/inkscape"
   xmlns:sodipodi="http://sodipodi.sourceforge.net/DTD/sodipodi-0.dtd"
   xmlns="http://www.w3.org/2000/svg"
   xmlns:svg="http://www.w3.org/2000/svg"><defs
     id="defs8" /><sodipodi:namedview
     id="namedview8"
     pagecolor="#ffffff"
     bordercolor="#000000"
     borderopacity="0.25"
     inkscape:showpageshadow="2"
     inkscape:pageopacity="0.0"
     inkscape:pagecheckerboard="0"
     inkscape:deskcolor="#d1d1d1"
     inkscape:document-units="pt"
     inkscape:zoom="2.0075"
     inkscape:cx="-93.648818"
     inkscape:cy="91.65629"
     inkscape:window-width="1848"
     inkscape:window-height="1011"
     inkscape:window-x="0"
     inkscape:window-y="0"
     inkscape:window-maximized="1"
     inkscape:current-layer="g2" /><g
     id="g1"><g
       id="g2"><path
         d="m 42.582427,16.130134 c -0.90435,-0.750287 0.298112,-2.160409 1.182389,-1.379961 0.874197,0.844043 1.976199,6.464587 0.971381,8.749118 -0.140687,0.482335 -0.646458,0.757011 -1.128799,0.616311 -0.482335,-0.140694 -0.757005,-0.646458 -0.616311,-1.128793 0.338306,-1.14888 0.388545,-2.344631 0.301461,-3.419835 -0.147378,-1.838861 -0.639753,-3.423191 -0.710101,-3.43662 z m -8.84579,24.816517 2.100175,3.637561 c 0.247871,0.432095 0.803883,0.582817 1.23934,0.334957 0.432087,-0.247872 0.582814,-0.80389 0.331601,-1.23934 l -2.100174,-3.63756 c -0.57277,-1.028334 -2.173851,-0.107184 -1.570902,0.90435 z m 10.419771,1.403478 c 0.485684,-0.127279 0.773729,-0.629708 0.643109,-1.112002 l -1.088566,-4.056293 c -0.288052,-1.145518 -2.076666,-0.666552 -1.758473,0.468932 l 1.088566,4.056293 c 0.130633,0.482329 0.633062,0.77373 1.115364,0.64311 z m 31.248193,-4.975333 c 1.1288,0.224416 2.910708,0.998173 3.001169,0.562723 0.224416,-0.3584 0.160781,-0.64311 -0.401941,-0.787167 -0.813964,-0.221073 -1.701523,-0.06029 -2.599228,0.224417 z M 37.081855,27.294376 c 0.422037,0.267966 0.984744,0.140688 1.252703,-0.284709 1.875732,-2.910702 2.036513,-6.106161 1.641282,-8.53118 -0.381848,-2.136978 -0.978092,-3.433263 -1.664717,-4.485032 -0.823964,-0.850761 -2.133617,0.468934 -1.289575,1.289574 0.458887,0.344997 0.760368,1.366605 1.16231,3.483498 0.338307,2.083383 0.204323,4.819948 -1.386685,7.278549 -0.267959,0.418693 -0.14068,0.981382 0.284717,1.249347 z M 62.052974,33.3125 c -0.04693,0.167478 -0.02012,0.49573 0.154077,0.525877 l 2.706412,0.723497 C 64.354096,33.935516 62.61571,32.378023 62.052988,33.312526 Z m -4.23261,-14.794837 c 0.562722,-0.790448 1.18239,-1.457066 1.869013,-1.976199 -1.463709,-1.11872 -2.47868,-2.726493 -3.292563,-4.495039 -0.810602,1.765191 -1.82886,3.376319 -3.29257,4.495039 1.46371,1.11872 2.47868,2.726492 3.29257,4.495039 0.432088,-0.941228 0.904349,-1.785271 1.42355,-2.51884 z m 3.27054,21.525675 -2.100174,3.63756 c -0.247866,0.432089 -0.100481,0.988099 0.331601,1.23934 0.432088,0.247866 0.9881,0.100481 1.239341,-0.334949 l 2.100174,-3.63756 c 0.602916,-1.014898 -1.091323,-0.536832 -1.570902,-0.904351 -1.5e-5,-1.2e-5 -4e-5,-4e-5 -4e-5,-4e-5 z m -7.737294,1.664717 1.088566,-4.056293 c 0.318199,-1.135511 -1.470435,-1.611128 -1.758474,-0.468931 l -1.088566,4.056292 c -0.318206,1.135517 1.470428,1.611127 1.758474,0.468932 z m 6.887276,-8.579417 c 0.244516,-1.37996 1.343163,-2.244157 3.007886,-1.815417 2.264311,0.602915 3.433264,2.636098 4.89033,4.23379 1.105355,1.302936 2.334621,1.651289 3.942394,1.078567 2.073378,-0.649814 4.116527,-1.845578 6.387555,-1.235984 1.654644,0.462235 2.183854,1.751822 1.701525,3.078199 3.687787,0.123937 4.260583,-5.054399 1.802055,-7.228529 -1.38668,-1.768546 -2.934139,-3.744746 -2.428378,-7.784461 0.278019,-4.74628 2.311193,-11.776731 -2.364775,-13.69319 -5.010877,-0.6833022 -6.762706,6.420997 -8.89632,10.671299 -1.580968,3.754818 -3.912237,4.692684 -5.998975,5.533438 -3.228975,0.676606 -5.295567,5.409464 -2.04323,7.161366 z M 48.197681,59.454257 c 1.802062,0.01337 3.198821,-1.607774 2.957654,-3.386393 -1.353244,-0.311508 -2.475319,-1.282856 -2.967654,-2.579148 -3.892157,0.0268 -3.885446,5.955467 0.01,5.965467 z m -17.943412,-2.98109 c 1.83886,-6.648802 11.297972,-10.011759 17.943412,-10.02462 6.642091,0.01678 16.111276,3.372957 17.943419,10.02462 -1.83221,6.652159 -11.301541,10.008184 -17.943419,10.024621 -6.642085,-0.01678 -16.1077,-3.372957 -17.943412,-10.024621 z m 11.827459,6.116241 c 3.071482,3.332797 9.157856,3.326079 12.236197,0.0033 2.505405,-2.371496 3.697868,-7.600105 1.155591,-10.346176 -1.195751,-0.38854 -1.192461,1.262783 -2.026432,1.684804 -1.952762,1.46371 -4.675959,-0.994818 -3.413184,-3.091636 0.281362,-0.683303 1.132156,-0.800527 1.406833,-1.457066 0.278005,-1.607772 -2.183851,-1.440274 -3.242337,-1.560894 -7.58009,-0.170821 -11.542348,9.616603 -6.116233,14.768607 z m 12.81142,-7.492919 c -0.539273,0.485677 -1.185745,0.823964 -1.909242,0.984738 0.01,0.133982 0.01678,0.264609 0.01678,0.391894 0.144029,4.180202 -5.392746,6.404279 -8.196049,3.396399 -2.9275,-2.719775 -0.921142,-8.106015 3.118427,-8.193193 0.05361,-0.743577 0.314851,-1.420195 0.706752,-2.023078 -6.179836,-0.52587 -9.697351,7.429325 -5.265479,11.649541 4.572063,4.773071 12.98934,0.311507 11.528771,-6.206629 z M 11.740972,30.487194 c 0,-7.878069 4.039501,-13.213722 8.571197,-15.571782 8.423995,-4.7362 15.708976,3.42319 9.532287,11.244382 -2.475324,2.68297 -3.62756,7.312133 -3.098282,11.267958 0.177526,4.039502 0.34165,7.834481 -5.235325,8.423994 -9.110693,0.870915 -9.686629,-8.856303 -9.770947,-15.364552 z m 6.002338,-0.04017 c 2.384857,1.269493 1.179032,4.367767 -0.21772,5.657341 -1.235978,1.433562 -2.173843,2.51884 -0.378498,4.575426 0.857479,0.984744 1.869013,1.507306 2.964297,1.691515 1.051768,0.08039 4.116534,0.291407 3.841924,-1.45371 -0.147379,-0.47898 -0.659853,-0.746931 -1.138867,-0.59956 -1.621207,0.499079 -3.115071,0.512483 -4.29746,-0.834036 -0.757012,-0.867553 -0.264611,-1.440275 0.38519,-2.19057 0.924504,-1.071847 2.049942,-2.374782 2.049942,-4.669248 0.140686,-3.969188 -4.113172,-2.84375 -3.403112,-6.869889 0.572769,-3.831851 5.409462,-9.154282 8.671953,-5.352512 0.49908,0.780447 0.803884,1.942756 0.803884,3.570603 -0.01337,1.179033 1.83557,1.185751 1.822136,0 -0.127279,-10.932829 -11.800307,-6.863173 -13.072949,1.36996 -0.663203,3.074844 0.653156,4.136688 1.96948,5.104706 z"
         fill="#4c4c4c"
         id="path1"
         style="stroke-width:0.0714566"
         sodipodi:nodetypes="cccsccccccccccccccccccccccccccccccccccccccccccccccccscccccccccccccccccccccccccccccccccccccccccccccccccccccccccccccccccccccc" /></g></g></svg>
