<?xml version="1.0" encoding="UTF-8" standalone="no"?>
<svg version="1.1" viewBox="0 0 100 100" width="100" height="100" xmlns="http://www.w3.org/2000/svg">
  <path
    d="M 50 8 L 56 8 L 58 22 A 30 30 0 0 1 70 27 L 82 18 L 90 26 L 81 38 A 30 30 0 0 1 86 50 L 100 52 L 100 58 L 86 60 A 30 30 0 0 1 81 72 L 90 84 L 82 92 L 70 83 A 30 30 0 0 1 58 88 L 56 102 L 50 102 L 44 102 L 42 88 A 30 30 0 0 1 30 83 L 18 92 L 10 84 L 19 72 A 30 30 0 0 1 14 60 L 0 58 L 0 52 L 14 50 A 30 30 0 0 1 19 38 L 10 26 L 18 18 L 30 27 A 30 30 0 0 1 42 22 L 44 8 Z M 50 35 A 15 15 0 1 0 50 65 A 15 15 0 1 0 50 35 Z"
    style="fill:#ffffff;fill-rule:evenodd" />
</svg>
