<?xml version="1.0" encoding="UTF-8" standalone="no"?>
<svg
   version="1.1"
   viewBox="0 0 100 100"
   width="100"
   height="100"
   id="svg1"
   sodipodi:docname="settings.svg"
   xml:space="preserve"
   inkscape:version="1.4.3 (0d15f75042, 2025-12-25)"
   xmlns:inkscape="http://www.inkscape.org/namespaces/inkscape"
   xmlns:sodipodi="http://sodipodi.sourceforge.net/DTD/sodipodi-0.dtd"
   xmlns="http://www.w3.org/2000/svg"
   xmlns:svg="http://www.w3.org/2000/svg"><defs
     id="defs1" /><sodipodi:namedview
     id="namedview1"
     pagecolor="#ffffff"
     bordercolor="#000000"
     borderopacity="0.25"
     inkscape:showpageshadow="2"
     inkscape:pageopacity="0.0"
     inkscape:pagecheckerboard="true"
     inkscape:deskcolor="#d1d1d1"
     showborder="true"
     inkscape:zoom="4"
     inkscape:cx="46"
     inkscape:cy="75.5"
     inkscape:window-width="1848"
     inkscape:window-height="1011"
     inkscape:window-x="0"
     inkscape:window-y="0"
     inkscape:window-maximized="1"
     inkscape:current-layer="svg1" /><path
     d="m 89.023315,58.426507 c -2.880897,-1.659785 -4.670563,-4.751265 -4.670563,-8.074356 0,-3.319573 1.789596,-6.411049 4.663529,-8.070614 2.947594,-1.694898 4.175738,-5.217937 2.916004,-8.372297 -1.579086,-3.986273 -3.730102,-7.712784 -6.375945,-11.070986 -2.108939,-2.673909 -5.772349,-3.375718 -8.719642,-1.670265 -2.873932,1.670265 -6.453126,1.673786 -9.334246,0.01404 -2.873934,-1.663306 -4.652971,-4.758223 -4.645932,-8.084836 0,-3.4037916 -2.43526,-6.2285447 -5.80394,-6.7163278 -4.235408,-0.6140771 -8.533995,-0.6105641 -12.783025,0.01406 -3.361646,0.4912667 -5.796977,3.3125409 -5.786421,6.7092954 0,3.32309 -1.782558,6.418012 -4.652975,8.078096 -2.880897,1.65979 -6.449604,1.656268 -9.334242,-0.01054 -2.947597,-1.705377 -6.611003,-1.003568 -8.719647,1.673788 -1.308847,1.666823 -2.519474,3.449381 -3.586226,5.298634 -1.066747,1.84574 -2.00017,3.782732 -2.789715,5.751317 -1.266775,3.161617 -0.0421,6.688252 2.90545,8.390259 2.880896,1.65979 4.670563,4.751265 4.670563,8.070615 0,3.319349 -1.789592,6.41105 -4.663525,8.070615 -2.9476,1.694897 -4.175747,5.214419 -2.916009,8.372295 1.579093,3.98979 3.730106,7.716526 6.375942,11.070988 2.108946,2.673904 5.772349,3.375712 8.719646,1.670264 2.873938,-1.670264 6.449604,-1.673786 9.334242,-0.01404 2.873938,1.66331 4.652974,4.758232 4.652974,8.084836 -0.007,3.403795 2.435261,6.228549 5.796977,6.716332 2.108946,0.305281 4.224927,0.456178 6.340833,0.456178 2.151019,0 4.302107,-0.15791 6.442565,-0.470206 3.361646,-0.491266 5.796982,-3.312539 5.796982,-6.709293 -0.007,-3.326613 1.772078,-6.421534 4.645932,-8.08109 2.880896,-1.659789 6.449605,-1.656268 9.334246,0.01054 2.947597,1.705372 6.610998,1.003564 8.719641,-1.673788 1.308849,-1.666823 2.519479,-3.449385 3.586227,-5.298638 1.059714,-1.84574 2.007135,-3.782734 2.789718,-5.75483 1.263255,-3.154658 0.03858,-6.684736 -2.908969,-8.379783 z M 62.091828,56.952674 c -1.754563,3.052846 -4.603868,5.238973 -8.014471,6.151359 -3.403791,0.912389 -6.965461,0.445646 -10.014715,-1.319401 -6.298761,-3.638851 -8.467369,-11.727502 -4.828445,-18.029183 2.435256,-4.228368 6.888281,-6.597005 11.449775,-6.597005 2.24227,0 4.50213,0.568472 6.57597,1.765044 6.302273,3.635328 8.467368,11.727501 4.831958,18.029186 z"
     fill="#ffffff"
     fill-rule="evenodd"
     id="path1"
     style="stroke-width:0.0748594" /></svg>
