<?xml version="1.0" encoding="UTF-8" standalone="no"?>
<svg
   version="1.1"
   viewBox="-5 -10 128 128"
   id="svg440"
   sodipodi:docname="shading.svg"
   width="128"
   height="128"
   inkscape:version="1.2.2 (b0a8486541, 2022-12-01)"
   xmlns:inkscape="http://www.inkscape.org/namespaces/inkscape"
   xmlns:sodipodi="http://sodipodi.sourceforge.net/DTD/sodipodi-0.dtd"
   xmlns="http://www.w3.org/2000/svg"
   xmlns:svg="http://www.w3.org/2000/svg">
  <defs
     id="defs444" />
  <sodipodi:namedview
     id="namedview442"
     pagecolor="#000000"
     bordercolor="#000000"
     borderopacity="0.25"
     inkscape:showpageshadow="2"
     inkscape:pageopacity="0"
     inkscape:pagecheckerboard="0"
     inkscape:deskcolor="#d1d1d1"
     showgrid="false"
     inkscape:zoom="4.111695"
     inkscape:cx="6.3234262"
     inkscape:cy="70.408919"
     inkscape:window-width="1920"
     inkscape:window-height="1043"
     inkscape:window-x="0"
     inkscape:window-y="0"
     inkscape:window-maximized="1"
     inkscape:current-layer="svg440" />
  <path
     d="M 52.449957,15.740639 H 51.827455 C 51.204954,15.325634 50.997457,14.703143 51.412461,14.080642 L 57.844962,0.8006679 c 0.207497,-0.4150046 0.622502,-0.6225015 1.037496,-0.6225015 0.414994,0 0.829998,0.2074969 1.037495,0.6225015 l 6.432501,13.2799741 c 0.414994,0.622501 0.207497,1.245024 -0.414994,1.659997 H 52.450318 Z"
     fill-rule="evenodd"
     id="path418"
     style="fill:#ffffff;stroke-width:1.0624" />
  <path
     d="m 58.882776,86.913865 c -18.467663,0 -33.615333,-15.14767 -33.615333,-33.615334 0,-18.467663 15.14767,-33.615333 33.615333,-33.615333 18.467664,0 33.615334,15.14767 33.615334,33.615333 0,18.467664 -15.14767,33.615334 -33.615334,33.615334 z M 36.058219,54.543662 c -0.622502,0 -1.245024,-0.622502 -1.245024,-1.245024 0,-13.279975 10.789713,-24.069689 24.069688,-24.069689 0.622501,0 1.245024,0.622502 1.245024,1.245025 0,0.829998 -0.622502,1.245024 -1.245024,1.245024 -11.827677,0 -21.579428,9.752494 -21.579428,21.579427 0,0.622502 -0.414994,1.245024 -1.245024,1.245024 z"
     fill-rule="evenodd"
     id="path420"
     style="fill:#ffffff;stroke-width:1.0624" />
  <path
     d="m 90.837582,31.719104 h -0.414994 c -0.414994,-0.207497 -9.959981,-9.959981 -9.959981,-9.959981 -0.207496,-0.622501 0.207497,-1.45251 0.829999,-1.659997 l 13.90254,-4.565017 c 0.414993,-0.207497 0.830002,-0.207497 1.245022,0.207497 0.41501,0.414993 0.41501,0.829998 0.2075,1.245024 l -4.565019,13.902539 c -0.207497,0.414994 -0.622502,0.829999 -1.245024,0.829999 z"
     fill-rule="evenodd"
     id="path422"
     style="fill:#ffffff;stroke-width:1.0624" />
  <path
     d="m 97.684738,60.976481 c -0.41501,0 -1.0375,-0.207497 -1.24503,-0.622501 -0.20749,-0.414994 0,-14.109707 0,-14.109707 0.41501,-0.622502 1.0375,-0.829999 1.66,-0.414994 l 13.279982,6.432501 c 0.415,0.207497 0.6225,0.622501 0.6225,1.037495 0,0.414994 -0.2075,0.829998 -0.6225,1.037495 l -13.279982,6.432501 c 0,0.207497 -0.2075,0.207497 -0.41499,0.207497 z"
     fill-rule="evenodd"
     id="path424"
     style="fill:#ffffff;stroke-width:1.0624" />
  <path
     d="m 95.609874,91.270759 c -0.207497,0 -0.414994,0 -0.414994,-0.207497 L 81.29234,86.498244 c -0.622501,-0.207497 -1.037495,-1.037495 -0.829998,-1.659996 0.207497,-0.414994 9.959981,-9.959981 9.959981,-9.959981 0.622501,-0.207497 1.45251,0.207497 1.659997,0.829998 l 4.565018,13.90254 c 0.2075,0.414994 0.2075,0.829998 -0.2075,1.245024 -0.20749,0.207497 -0.6225,0.415004 -0.829996,0.415004 z"
     fill-rule="evenodd"
     id="path426"
     style="fill:#ffffff;stroke-width:1.0624" />
  <path
     d="m 58.882776,106.41843 c -0.414993,0 -0.829998,-0.20749 -1.037495,-0.6225 L 51.41278,92.515953 c -0.414994,-0.622501 -0.207497,-1.245024 0.414994,-1.659997 0,0 13.695372,-0.207496 14.109707,0 0.622502,0.415005 0.829999,1.037496 0.414994,1.659997 l -6.432501,13.279977 c -0.207497,0.41501 -0.622501,0.6225 -1.037495,0.6225 z"
     fill-rule="evenodd"
     id="path428"
     style="fill:#ffffff;stroke-width:1.0624" />
  <path
     d="m 22.155679,91.270759 c -0.207497,0 -0.622501,-0.207497 -0.829998,-0.415004 -0.415005,-0.414994 -0.415005,-0.829999 -0.207497,-1.245025 l 4.565017,-13.902539 c 0.207497,-0.622502 1.037496,-1.037496 1.659997,-0.829999 0,0 9.752495,9.545009 9.959981,9.959981 0.207497,0.622502 -0.207497,1.452511 -0.829998,1.659997 l -13.90254,4.565018 c 0,0.207497 -0.207497,0.207497 -0.414994,0.207497 z"
     fill-rule="evenodd"
     id="path430"
     style="fill:#ffffff;stroke-width:1.0624" />
  <path
     d="m 20.080816,60.976481 c -0.207497,0 -0.414994,0 -0.414994,-0.207497 L 6.3858468,54.336483 c -0.415004,-0.207496 -0.622501,-0.622501 -0.622501,-1.037495 0,-0.414994 0.207497,-0.829998 0.622501,-1.037495 L 19.665822,45.828992 c 0.622501,-0.414994 1.245024,-0.207497 1.659997,0.414994 0,0 0.207497,13.695372 0,14.109707 -0.207497,0.414994 -0.829999,0.622502 -1.245024,0.622502 z"
     fill-rule="evenodd"
     id="path432"
     style="fill:#ffffff;stroke-width:1.0624" />
  <path
     d="m 26.927971,31.719104 c -0.622502,0 -1.037496,-0.414994 -1.245025,-0.829998 l -4.565017,-13.90254 c -0.207497,-0.414994 -0.207497,-0.829998 0.207497,-1.245024 0.414994,-0.415005 0.829998,-0.415005 1.245024,-0.207497 l 13.902539,4.565018 c 0.622502,0.207497 1.037496,1.037495 0.829999,1.659996 0,0 -9.545008,9.752495 -9.959981,9.959981 h -0.414994 z"
     fill-rule="evenodd"
     id="path434"
     style="fill:#ffffff;stroke-width:1.0624" />
</svg>
