<?xml version="1.0" encoding="UTF-8" standalone="no"?>
<svg
   data-name="Layer 1"
   viewBox="0 0 128 128"
   x="0px"
   y="0px"
   version="1.1"
   id="svg1462"
   sodipodi:docname="shareit.svg"
   width="128"
   height="128"
   xml:space="preserve"
   inkscape:version="1.2.2 (b0a8486541, 2022-12-01)"
   xmlns:inkscape="http://www.inkscape.org/namespaces/inkscape"
   xmlns:sodipodi="http://sodipodi.sourceforge.net/DTD/sodipodi-0.dtd"
   xmlns="http://www.w3.org/2000/svg"
   xmlns:svg="http://www.w3.org/2000/svg"><defs
     id="defs1466" /><sodipodi:namedview
     id="namedview1464"
     pagecolor="#ffffff"
     bordercolor="#000000"
     borderopacity="0.25"
     inkscape:showpageshadow="2"
     inkscape:pageopacity="0.0"
     inkscape:pagecheckerboard="0"
     inkscape:deskcolor="#d1d1d1"
     showgrid="false"
     inkscape:zoom="1.57"
     inkscape:cx="-60.828025"
     inkscape:cy="97.133758"
     inkscape:window-width="1920"
     inkscape:window-height="1043"
     inkscape:window-x="0"
     inkscape:window-y="0"
     inkscape:window-maximized="1"
     inkscape:current-layer="svg1462" /><rect
     style="fill:#ffffff;stroke-width:1.00176"
     id="rect1524"
     width="128"
     height="128"
     x="0"
     y="0"
     inkscape:label="rect1524" /><path
     d="m 89.65221,77.288435 c -4.513054,0 -8.495773,2.19377 -10.920144,5.544656 L 51.131618,66.617866 c 0.01629,-0.264923 0.04111,-0.527685 0.04111,-0.796567 0,-1.05837 -0.142019,-2.082185 -0.383966,-3.067966 L 81.000694,47.962428 c 2.333755,1.939645 5.350525,3.115359 8.651516,3.115359 7.391906,0 13.38422,-5.86741 13.38422,-13.105385 0,-7.237855 -5.992314,-13.105264 -13.38422,-13.105264 -7.391849,0 -13.384154,5.867409 -13.384154,13.105264 0,1.8403 0.390889,3.590132 1.090139,5.179187 L 48.105658,57.473481 c -2.454943,-2.905629 -6.164959,-4.757567 -10.317083,-4.757567 -7.39191,0 -13.384216,5.86753 -13.384216,13.105385 0,7.237975 5.992306,13.105385 13.384216,13.105385 4.92459,0 9.216282,-2.61191 11.54048,-6.490601 l 27.115269,15.930144 c -0.105381,0.662546 -0.176268,1.336131 -0.176268,2.027593 0,7.237974 5.992305,13.10538 13.384154,13.10538 7.391906,0 13.38422,-5.867406 13.38422,-13.10538 0,-7.237856 -5.992314,-13.105385 -13.38422,-13.105385 z"
     id="path1456"
     style="fill:#4d4d4d;fill-opacity:1;stroke-width:0.87369" /></svg>
