<?xml version="1.0" encoding="UTF-8" standalone="no"?>
<!-- Created with Inkscape (http://www.inkscape.org/) -->

<svg
   width="128"
   height="100"
   viewBox="0 0 33.866667 26.458333"
   version="1.1"
   id="svg5"
   xml:space="preserve"
   inkscape:version="1.2.2 (b0a8486541, 2022-12-01)"
   sodipodi:docname="shelter.svg"
   xmlns:inkscape="http://www.inkscape.org/namespaces/inkscape"
   xmlns:sodipodi="http://sodipodi.sourceforge.net/DTD/sodipodi-0.dtd"
   xmlns="http://www.w3.org/2000/svg"
   xmlns:svg="http://www.w3.org/2000/svg"><sodipodi:namedview
     id="namedview7"
     pagecolor="#ffffff"
     bordercolor="#666666"
     borderopacity="1.0"
     inkscape:showpageshadow="2"
     inkscape:pageopacity="0.0"
     inkscape:pagecheckerboard="0"
     inkscape:deskcolor="#d1d1d1"
     inkscape:document-units="mm"
     showgrid="false"
     showguides="false"
     inkscape:zoom="3.659624"
     inkscape:cx="9.427198"
     inkscape:cy="74.871079"
     inkscape:window-width="1920"
     inkscape:window-height="1011"
     inkscape:window-x="0"
     inkscape:window-y="0"
     inkscape:window-maximized="1"
     inkscape:current-layer="layer1" /><defs
     id="defs2" /><g
     inkscape:label="Layer 1"
     inkscape:groupmode="layer"
     id="layer1"
     transform="translate(-33.044247,-131.48302)"><g
       id="g64149"
       transform="matrix(0.26458333,0,0,0.26458333,36.53694,131.74173)"
       style="fill:#4d4d4d;fill-opacity:1"><path
         d="m 38.47,57.57 v 0 c -3.19,-0.31 -6.32,-0.74 -9.31,-1.29 v 0 c -1.12,-0.2 -2.23,-0.43 -3.34,-0.66 -1.53,-0.33 -3.06,-0.68 -4.57,-1.06 L 20.09,82.8 a 2.71,2.71 0 0 0 2.07,2.75 131.47,131.47 0 0 0 15.89,2.83 l 1,-20 a 1.51,1.51 0 0 1 1.06,-1.36 33.29,33.29 0 0 1 19.76,0 1.51,1.51 0 0 1 1.06,1.36 l 1,20 A 136.24,136.24 0 0 0 77.82,85.55 2.72,2.72 0 0 0 79.89,82.8 L 78.77,54.41 q -1.08,0.27 -2.16,0.51 l -1.06,0.24 c -1.57,0.35 -3.14,0.67 -4.71,1 -1.28,0.24 -2.57,0.45 -3.87,0.64 l -0.76,0.13 c -1.56,0.22 -3.12,0.42 -4.67,0.58 q -2.91,0.32 -5.81,0.46 c -1.92,0.11 -3.84,0.16 -5.72,0.17 H 49.4 c -2.11,0 -4.24,-0.06 -6.35,-0.18 C 41.51,57.83 40,57.72 38.47,57.57 Z"
         id="path64107"
         style="fill:#4d4d4d;fill-opacity:1" /><path
         d="M 38.85,13 C 18.42,21.12 10,49.53 10,49.53 c 2.59,0.95 5.19,1.77 7.8,2.52 1.37,-5.88 7.66,-29.8 21.05,-39.05 z"
         id="path64109"
         style="fill:#4d4d4d;fill-opacity:1" /><path
         d="m 82.17,51.94 c 2.61,-0.72 5.21,-1.52 7.83,-2.41 0,0 -8.43,-28.43 -28.87,-36.5 13.37,9.19 19.68,33.08 21.04,38.91 z"
         id="path64111"
         style="fill:#4d4d4d;fill-opacity:1" /><path
         d="m 19.24,52.48 q 4.34,1.2 8.7,2 A 162.1,162.1 0 0 1 33.77,29.42 Q 37.91,17.05 43.19,12.3 C 27.62,19.05 20.41,47.43 19.24,52.48 Z"
         id="path64113"
         style="fill:#4d4d4d;fill-opacity:1" /><path
         d="m 72,54.36 c 2.89,-0.56 5.79,-1.22 8.69,-2 C 79.47,47 72.25,19 56.8,12.33 c 9,8.09 13.54,31.03 15.2,42.03 z"
         id="path64115"
         style="fill:#4d4d4d;fill-opacity:1" /><path
         d="M 37.12,55.9 C 37.29,53.64 38.2,42.52 40.03,31.8 41.93,20.62 44,15 45.81,12.22 c -10.24,6.4 -15.25,35 -16.4,42.58 2.59,0.47 5.13,0.82 7.71,1.1 z"
         id="path64117"
         style="fill:#4d4d4d;fill-opacity:1" /><path
         d="m 62.87,55.78 c 2.56,-0.3 5.12,-0.66 7.7,-1.14 C 69.36,46.83 64.36,18.56 54.18,12.21 56,15 58,20.54 59.94,31.6 c 1.76,10.32 2.68,21.04 2.93,24.18 z"
         id="path64119"
         style="fill:#4d4d4d;fill-opacity:1" /><path
         d="m 41.3,56.3 c 0.89,0.07 1.79,0.12 2.69,0.16 1.75,0.09 3.5,0.13 5.26,0.13 V 11.06 c -7.1,2.51 -10.26,40 -10.64,45 0.9,0.11 1.79,0.18 2.69,0.24 z"
         id="path64121"
         style="fill:#4d4d4d;fill-opacity:1" /><path
         d="M 50.75,11.06 V 56.58 Q 56,56.52 61.38,56 C 61,50.57 57.8,13.56 50.75,11.06 Z"
         id="path64123"
         style="fill:#4d4d4d;fill-opacity:1" /><path
         d="m 50,67.05 a 32.2,32.2 0 0 0 -9.44,1.44 l -1,20 A 91.35,91.35 0 0 0 50,89.1 91.7,91.7 0 0 0 60.46,88.5 l -1,-20 A 32.2,32.2 0 0 0 50,67.05 Z"
         id="path64125"
         style="fill:#4d4d4d;fill-opacity:1" /></g></g></svg>
