<?xml version="1.0" encoding="UTF-8" standalone="no"?>
<svg
   width="128"
   height="100"
   version="1.1"
   viewBox="0 0 96 75"
   id="svg1"
   sodipodi:docname="shrooms.svg"
   inkscape:version="1.4.3 (0d15f75042, 2025-12-25)"
   xml:space="preserve"
   xmlns:inkscape="http://www.inkscape.org/namespaces/inkscape"
   xmlns:sodipodi="http://sodipodi.sourceforge.net/DTD/sodipodi-0.dtd"
   xmlns="http://www.w3.org/2000/svg"
   xmlns:svg="http://www.w3.org/2000/svg"><defs
     id="defs1" /><sodipodi:namedview
     id="namedview1"
     pagecolor="#ffffff"
     bordercolor="#000000"
     borderopacity="0.25"
     inkscape:showpageshadow="2"
     inkscape:pageopacity="0.0"
     inkscape:pagecheckerboard="0"
     inkscape:deskcolor="#d1d1d1"
     inkscape:document-units="pt"
     inkscape:zoom="2.0875"
     inkscape:cx="39.760479"
     inkscape:cy="60.838323"
     inkscape:window-width="1848"
     inkscape:window-height="1011"
     inkscape:window-x="0"
     inkscape:window-y="0"
     inkscape:window-maximized="1"
     inkscape:current-layer="svg1" /><path
     d="m 43.136181,52.597396 c 0.216743,1.764914 0.255137,3.54214 0.117663,5.303434 -0.149865,1.922204 -0.510263,3.829612 -1.07752,5.691046 -0.100323,0.328214 -0.0867,0.661369 0.02477,0.958619 0.110229,0.294764 0.319548,0.55362 0.609345,0.735694 0.388906,0.242754 0.806293,0.429783 1.241018,0.557347 0.43348,0.126331 0.886775,0.19445 1.345038,0.199405 0.559831,0.0062 1.110971,-0.08298 1.63114,-0.256376 0.526381,-0.175871 1.019311,-0.437204 1.458999,-0.774087 0.07431,-0.05697 0.143671,-0.122614 0.206835,-0.195686 0.01611,-0.02229 0.03344,-0.04335 0.05202,-0.06316 0.606887,-0.779029 0.632885,-2.303688 0.346787,-4.083529 -0.115182,-0.717122 -0.282398,-1.468909 -0.485503,-2.230603 -0.0087,-0.02353 -0.01487,-0.0483 -0.01981,-0.07307 -0.603163,-2.242993 -1.507298,-4.549347 -2.291293,-6.203632 -0.655189,0.122615 -1.322741,0.226651 -1.992806,0.310882 -0.388906,0.0483 -0.779026,0.09041 -1.167932,0.125092 z m 5.312156,-0.921469 c 0.940042,-0.250188 1.824362,-0.542471 2.613298,-0.869446 2.106736,-0.87441 3.578075,-2.031195 3.778882,-3.407123 0.02849,-0.198164 0.03716,-0.391362 0.02602,-0.582104 0.117663,0.01487 0.23037,0.03097 0.339366,0.04954 0.268766,0.04459 0.509048,0.101561 0.714637,0.168441 0.469415,0.153579 1.057702,0.460748 1.684407,0.875654 1.161752,0.767877 2.432467,1.883813 3.329179,3.054126 0.844688,1.099818 1.350009,2.22442 1.071335,3.07764 -0.03839,0.12014 -0.09413,0.235319 -0.167202,0.345549 -0.02972,0.04458 -0.0644,0.08793 -0.101561,0.130047 -0.790178,0.855836 -3.024534,0.840959 -5.537535,0.322031 -0.44587,-0.09165 -0.899168,-0.200644 -1.35249,-0.323248 l -0.005,-0.0025 c -0.02105,-0.0074 -0.04211,-0.01239 -0.06316,-0.01736 -0.959861,-0.26257 -1.924687,-0.588314 -2.836144,-0.958619 -0.01981,-0.0099 -0.04087,-0.01857 -0.06193,-0.02477 -1.132027,-0.463205 -2.18106,-0.995793 -3.03563,-1.561781 -0.137477,-0.09042 -0.268766,-0.182063 -0.393847,-0.273705 z m 5.656432,3.581772 c -0.745604,-0.217981 -1.489966,-0.470629 -2.208302,-0.751786 -0.376513,0.516473 -0.790178,1.12706 -1.201384,1.788457 -0.401297,0.644036 -0.801327,1.338858 -1.166694,2.044829 0.194454,0.745604 0.356698,1.482514 0.469416,2.186001 0.281157,1.74758 0.26257,3.31174 -0.267524,4.36228 0.04954,0.02105 0.100322,0.04087 0.152339,0.05945 0.20312,0.07431 0.41118,0.131286 0.620495,0.16968 0.34679,0.06316 0.697305,0.07803 1.041612,0.04583 0.346787,-0.0322 0.688611,-0.112707 1.013125,-0.23656 0.227892,-0.08793 0.411182,-0.242752 0.528864,-0.435963 0.117684,-0.193212 0.173396,-0.427298 0.147387,-0.672521 -0.161011,-1.522147 -0.153578,-3.053069 0.01733,-4.562825 0.153579,-1.354949 0.438449,-2.692671 0.853352,-3.994485 z m -0.173394,-7.988444 c 0.02602,-0.178349 0.02723,-0.35297 0.005,-0.52638 -0.147389,-1.181567 -1.366103,-2.2343 -2.970105,-3.062844 -1.681925,-0.868202 -3.767786,-1.472607 -5.534893,-1.729007 -0.958617,-0.139955 -1.816939,-0.175868 -2.454768,-0.0966 -0.636613,0.07927 -1.457757,0.325731 -2.350743,0.696064 -1.652196,0.684911 -3.524702,1.783487 -4.941717,3.039326 -1.350008,1.19766 -2.271478,2.517943 -2.124096,3.703316 0.02105,0.17092 0.06564,0.339366 0.133764,0.50408 0.391362,0.945011 1.83797,1.53084 3.783901,1.814455 1.938297,0.282398 4.340086,0.243993 6.715431,-0.05326 2.373015,-0.297247 4.708937,-0.850869 6.517261,-1.601414 1.815699,-0.75427 3.073944,-1.676981 3.221378,-2.688972 z"
     fill="#4c4c4c"
     fill-rule="evenodd"
     id="path1"
     style="stroke-width:0.026422" /></svg>
