<?xml version="1.0" encoding="UTF-8" standalone="no"?>
<svg
   width="128"
   height="100"
   version="1.1"
   viewBox="0 0 96 75"
   id="svg17"
   sodipodi:docname="sliding.svg"
   inkscape:version="1.4.2 (ebf0e940d0, 2025-05-08)"
   xmlns:inkscape="http://www.inkscape.org/namespaces/inkscape"
   xmlns:sodipodi="http://sodipodi.sourceforge.net/DTD/sodipodi-0.dtd"
   xmlns="http://www.w3.org/2000/svg"
   xmlns:svg="http://www.w3.org/2000/svg">
  <defs
     id="defs17" />
  <sodipodi:namedview
     id="namedview17"
     pagecolor="#ffffff"
     bordercolor="#000000"
     borderopacity="0.25"
     inkscape:showpageshadow="2"
     inkscape:pageopacity="0.0"
     inkscape:pagecheckerboard="0"
     inkscape:deskcolor="#d1d1d1"
     inkscape:document-units="pt"
     inkscape:zoom="1.4195169"
     inkscape:cx="178.22965"
     inkscape:cy="142.65417"
     inkscape:window-width="1862"
     inkscape:window-height="1011"
     inkscape:window-x="0"
     inkscape:window-y="0"
     inkscape:window-maximized="1"
     inkscape:current-layer="svg17" />
  <path
     d="m 50.855912,56.00414 c -0.0621,0.01022 -0.123748,0.01597 -0.188724,0.01616 -0.09004,6.39e-4 -0.181407,-0.0071 -0.27544,-0.02619 -0.05278,-0.01067 -0.105121,-0.02396 -0.15901,-0.04082 -0.100237,-0.03124 -0.201589,-0.07407 -0.303382,-0.126409 -0.03127,-0.01597 -0.06165,-0.02064 -0.09292,-0.03859 -0.189389,-0.11022 -0.369909,-0.262133 -0.542005,-0.432676 -0.115544,-0.112437 -0.229976,-0.228196 -0.336646,-0.365696 -0.09403,-0.131066 -0.174089,-0.25437 -0.242614,-0.376786 l -3.889625,-2.246274 -2.956165,1.716073 1.568351,0.905697 10.074352,5.816385 c 0.131067,0.07607 0.259249,0.135724 0.383439,0.182516 0.02639,0.01 0.05145,0.01489 0.0774,0.02351 0.09492,0.03124 0.18784,0.05609 0.27699,0.06986 0.03327,0.0051 0.06453,0.0057 0.09647,0.0086 0.07629,0.0064 0.150137,0.0058 0.22066,-0.0019 0.03726,-0.0045 0.07385,-0.01041 0.109111,-0.01885 0.06653,-0.01508 0.129068,-0.0368 0.188283,-0.06564 0.01752,-0.0091 0.03238,-0.01265 0.05078,-0.02351 6.39e-4,-6.39e-4 0.0122,-0.0064 0.0175,-0.0091 0.06941,-0.0421 0.131067,-0.09625 0.187838,-0.15834 0.01463,-0.01706 0.03041,-0.03124 0.04504,-0.05054 0.03571,-0.04549 0.06363,-0.101569 0.09337,-0.155459 0.03169,-0.0614 0.06409,-0.122192 0.08959,-0.195599 0.02683,-0.0763 0.05232,-0.154354 0.06986,-0.24151 0.0051,-0.02242 0.0089,-0.04881 0.01329,-0.07318 0.01993,-0.124633 0.03328,-0.256587 0.03328,-0.400074 4.54e-4,-0.161669 -0.01572,-0.329988 -0.04012,-0.500972 -0.0057,-0.03993 -0.01329,-0.08051 -0.02064,-0.121311 -0.02485,-0.143256 -0.05833,-0.288295 -0.0998,-0.435109 -0.01086,-0.03859 -0.02108,-0.07696 -0.03328,-0.115548 -0.01616,-0.05213 -0.03904,-0.104675 -0.05763,-0.157012 l -4.16213,-2.406658 c -0.06254,0.02351 -0.129067,0.03328 -0.195599,0.04479 z"
     fill="#4c4c4c"
     id="path1"
     style="stroke-width:0.0567729" />
  <path
     d="m 72.519886,44.383857 c -0.410053,-0.242609 -0.782616,-0.340415 -1.074259,-0.285638 -0.115982,0.0122 -0.202915,0.04434 -0.283197,0.08783 l 2.792715,1.608486 c -0.413822,-0.617179 -0.9099,-1.115301 -1.435278,-1.410688 z"
     fill="#4c4c4c"
     id="path2"
     style="stroke-width:0.0567729" />
  <path
     d="m 44.425245,49.683614 -2.936238,-1.694958 -0.0057,2.112575 -0.0098,3.284826 2.737987,-1.589185 0.204916,-0.118876 z"
     fill="#4c4c4c"
     id="path3"
     style="stroke-width:0.0567729" />
  <path
     d="M 53.127964,55.648175 C 52.595275,55.340796 52.12314,55.279368 51.774271,55.45124 l 2.781645,1.607808 C 54.145419,56.44806 53.651296,55.949989 53.127964,55.64813 Z"
     fill="#4c4c4c"
     id="path4"
     style="stroke-width:0.0567729" />
  <path
     d="m 77.095778,52.214547 c 0.04657,-0.07917 0.102681,-0.146808 0.142815,-0.233083 0.08272,-0.177634 0.140388,-0.382549 0.196712,-0.588333 0.02683,-0.09847 0.06609,-0.184515 0.08648,-0.289189 0.0084,-0.03993 0.01616,-0.07984 0.02153,-0.114654 0.05143,-0.300721 0.08272,-0.620756 0.08272,-0.966052 6.39e-4,-0.36636 -0.03616,-0.744009 -0.09159,-1.124609 -0.01508,-0.102905 -0.03482,-0.205586 -0.0543,-0.308484 -0.05833,-0.321344 -0.130625,-0.644484 -0.224649,-0.968262 -0.01706,-0.05852 -0.03079,-0.116654 -0.049,-0.175194 -0.109996,-0.356604 -0.244608,-0.71165 -0.392752,-1.063363 -0.04792,-0.113765 -0.09979,-0.226426 -0.151689,-0.339086 -0.125745,-0.274105 -0.263245,-0.543994 -0.409389,-0.810146 -0.04146,-0.07518 -0.07872,-0.152801 -0.121744,-0.227096 -0.233747,-0.408054 -0.488118,-0.799247 -0.758201,-1.165147 -0.01904,-0.02619 -0.04057,-0.04836 -0.06012,-0.07429 -0.215341,-0.28719 -0.44376,-0.559967 -0.680364,-0.820994 -0.120422,-0.131508 -0.244614,-0.254147 -0.369247,-0.376563 -0.17453,-0.17453 -0.351723,-0.344408 -0.534686,-0.501637 -0.09825,-0.08538 -0.196712,-0.167438 -0.295399,-0.24572 -0.281862,-0.221768 -0.56994,-0.4289 -0.865786,-0.602988 -0.01176,-0.0066 -0.02306,-0.01597 -0.03418,-0.02236 -0.182956,-0.10401 -0.364366,-0.197159 -0.546435,-0.277658 -0.05833,-0.02594 -0.115541,-0.04747 -0.172759,-0.07074 -0.106674,-0.0437 -0.211349,-0.08316 -0.313582,-0.117535 -0.09447,-0.03105 -0.188279,-0.05897 -0.280757,-0.08294 -0.05232,-0.01374 -0.104233,-0.0253 -0.155465,-0.03661 -0.101346,-0.02172 -0.201145,-0.03948 -0.299827,-0.05232 -0.204474,-0.02108 -0.400073,-0.02747 -0.591457,-0.01929 -0.08804,0.0057 -0.175647,0.01176 -0.260356,0.02575 -0.01751,0.0038 -0.03169,0.0051 -0.05034,0.0091 -0.276987,0.0568 -0.505853,0.141934 -0.706309,0.259245 -0.217111,0.130185 -0.402067,0.282762 -0.559749,0.465719 -0.199593,0.234852 -0.19183,0.884403 0.170319,1.563463 0.0089,0.01572 0.01572,0.03239 0.02243,0.049 0.06165,0.108667 0.125297,0.216223 0.202474,0.316904 0.231972,0.313135 0.477474,0.492111 0.643807,0.589023 0.234853,0.135941 0.451964,0.175194 0.57238,0.104674 0.0175,-0.01086 0.03616,-0.02064 0.05565,-0.02837 0.120423,-0.133948 0.23286,-0.24949 0.379668,-0.330659 0.174089,-0.135053 0.423578,-0.231965 0.696604,-0.259245 0.454852,-0.08228 1.015502,0.04792 1.585894,0.384542 0.734701,0.413829 1.428411,1.139892 1.946006,2.038944 0.174089,0.297393 0.323779,0.611447 0.456845,0.957819 0,4.54e-4 0,6.39e-4 5.69e-4,0.0013 0,2.3e-4 5.68e-4,4.54e-4 5.68e-4,6.39e-4 0.223982,0.59299 0.337531,1.176052 0.337531,1.734696 0,1.02833 -0.402064,1.570338 -0.739578,1.844213 -0.01265,0.0098 -0.02639,0.01949 -0.04102,0.02926 -0.0568,0.04702 -0.113548,0.08228 -0.168326,0.11443 -0.02881,0.01463 -0.05143,0.01731 -0.07828,0.02996 -0.01265,0.0073 -0.02881,0.01687 -0.03124,0.01795 -0.01265,0.0057 -0.08516,0.04504 -0.09781,0.0499 -0.06986,0.02773 -0.129067,0.04057 -0.188726,0.05392 -0.01022,0.0026 -0.02064,0.0091 -0.03041,0.01156 -0.0065,0.0019 -0.01374,0.0013 -0.01993,0.0026 -0.0045,6.39e-4 -0.0098,0.0032 -0.01418,0.0038 -0.05967,0.01616 -0.126185,0.01508 -0.18939,0.02396 -0.06808,0.0089 -0.133947,0.0246 -0.204026,0.02594 -0.01022,2.24e-4 -0.01955,0.0038 -0.03041,0.0038 -0.03041,0 -0.06453,-0.01355 -0.09537,-0.01508 -0.14969,-0.0071 -0.302267,-0.0315 -0.45839,-0.07207 -0.0568,-0.01489 -0.111996,-0.03016 -0.169215,-0.04945 -0.19804,-0.06609 -0.398297,-0.148584 -0.600771,-0.266566 l -11.464151,-6.621992 -1.909443,1.109059 -0.04415,0.02575 13.808876,7.969788 c 1.307087,0.759336 2.51555,0.88333 3.403928,0.357492 0.18939,-0.114877 0.356605,-0.261692 0.506748,-0.430229 0.109108,-0.121975 0.196264,-0.275217 0.284749,-0.426466 z"
     fill="#4c4c4c"
     id="path5"
     style="stroke-width:0.0567729" />
  <path
     d="m 70.334696,44.717685 c -0.03725,0.0091 -0.07341,0.01929 -0.111548,0.0246 -0.06808,0.0095 -0.137941,0.01022 -0.209349,0.0075 -0.03527,-0.0013 -0.06941,4.53e-4 -0.105562,-0.0038 -0.07917,-0.0093 -0.159899,-0.02952 -0.241727,-0.05322 -0.03131,-0.0089 -0.06165,-0.0131 -0.09292,-0.02396 -0.113108,-0.03993 -0.227538,-0.09092 -0.342415,-0.157899 -0.332652,-0.192712 -0.637782,-0.468594 -0.881509,-0.800384 -0.08893,-0.115541 -0.166326,-0.241727 -0.240621,-0.370794 l -3.314803,-1.908759 -0.511616,0.296281 -2.439701,1.417115 11.06731,6.393764 c 0.440209,0.257252 0.845406,0.348401 1.18002,0.260357 0.06165,-0.01552 0.113548,-0.03993 0.167214,-0.06299 l 0.184956,-0.11066 c 0.04012,-0.03635 0.07185,-0.08272 0.106674,-0.125521 0.02549,-0.03169 0.0552,-0.05833 0.07784,-0.09336 0.03041,-0.04766 0.05143,-0.104681 0.07584,-0.158347 0.01821,-0.03948 0.04057,-0.07407 0.0552,-0.116653 0.02306,-0.06497 0.03571,-0.139487 0.05143,-0.211789 0.0084,-0.03968 0.02153,-0.07474 0.02754,-0.116653 0.0175,-0.1182 0.02639,-0.244832 0.02639,-0.379445 0,-0.221544 -0.02485,-0.449753 -0.06853,-0.681954 -0.01418,-0.07386 -0.04102,-0.150137 -0.05967,-0.225097 -0.03373,-0.138605 -0.07141,-0.277651 -0.120423,-0.418697 l -4.171899,-2.40286 c -0.03463,0.0122 -0.0723,0.01418 -0.107996,0.02332 z"
     fill="#4c4c4c"
     id="path6"
     style="stroke-width:0.0567729" />
  <path
     d="m 78.373169,50.861653 c 0.0077,0.01929 -0.0032,0.09425 -0.02242,0.17497 -0.0065,0.04012 -0.01373,0.07895 -0.02108,0.118423 -0.0065,0.04389 -0.01706,0.100905 -0.03169,0.16655 -0.04702,0.217775 -0.106233,0.420697 -0.173648,0.614054 -0.01022,0.02996 -0.01418,0.06587 -0.02485,0.09537 l 1.925395,-1.122176 c 0.871753,-0.507852 1.351253,-1.596736 1.351253,-3.06528 v -6.39e-4 c 0.0089,-3.232536 -2.274659,-7.191995 -5.09162,-8.82592 -1.301345,-0.748494 -2.502658,-0.877542 -3.380423,-0.363926 l -1.926533,1.121268 c 0.290518,0.04632 0.578174,0.129955 0.86891,0.233077 0.06653,0.02287 0.132171,0.04792 0.19804,0.07363 0.07297,0.02881 0.142816,0.04811 0.21667,0.08072 0.213783,0.09071 0.430005,0.204921 0.646695,0.327995 0.0098,0.0057 0.01993,0.0086 0.03041,0.01444 0.232413,0.134836 0.460391,0.28896 0.684791,0.45174 0.06498,0.04721 0.129067,0.09646 0.193831,0.146368 0.483894,0.370353 0.946061,0.798563 1.3785,1.275174 0.103787,0.11222 0.204474,0.227531 0.304264,0.345513 0.06742,0.08007 0.132178,0.162557 0.1976,0.244832 0.107555,0.133507 0.219551,0.259469 0.322897,0.399186 0.05763,0.07828 0.105562,0.168543 0.161891,0.248825 0.180081,0.256581 0.351282,0.519819 0.513622,0.789478 0.04146,0.06964 0.09159,0.131514 0.131507,0.202257 0.248601,0.426907 0.465271,0.871574 0.66197,1.3215 0.0032,0.0075 0.0069,0.01508 0.01022,0.02262 0.09204,0.210678 0.176529,0.421809 0.255923,0.634725 0.01176,0.03169 0.02306,0.06318 0.03482,0.09492 0.07629,0.210013 0.147697,0.419362 0.211348,0.629611 6.39e-4,0.0038 0.0019,0.0069 0.0032,0.01041 0.06318,0.209789 0.126192,0.419802 0.176088,0.628244 0.0089,0.03016 0.01265,0.07762 0.01904,0.119758 0.06165,0.274105 0.10822,0.546441 0.145256,0.81702 0.01578,0.110884 0.02926,0.218446 0.04057,0.331988 0.02153,0.217775 0.03373,0.433117 0.03814,0.646247 6.39e-4,0.05392 0.0093,0.107115 0.0093,0.161005 0,0.169207 -0.01086,0.328666 -0.02064,0.487223 0.0013,0.100905 -0.01265,0.231083 -0.03904,0.349283 z"
     fill="#4c4c4c"
     id="path7"
     style="stroke-width:0.0567729" />
  <path
     d="m 63.825681,34.991916 3.086804,-1.794137 c 0.0754,-0.0437 0.135053,-0.09159 0.199587,-0.138382 0.206026,-0.151032 0.356604,-0.316246 0.444648,-0.487447 0.01463,-0.02862 0.03725,-0.05635 0.04836,-0.08538 0.0093,-0.02396 0.0073,-0.04792 0.01418,-0.07185 0.0175,-0.06363 0.03571,-0.127297 0.03571,-0.191607 -6.39e-4,-0.348401 -0.276987,-0.707446 -0.757349,-0.984215 L 41.470162,16.557989 c -0.578175,-0.333547 -1.335469,-0.500979 -2.092819,-0.500979 -0.756216,0 -1.51158,0.166327 -2.084872,0.499867 L 19.994334,26.610225 c -0.475031,0.276323 -0.73714,0.619166 -0.740717,0.966276 v 0.0013 c 0,0.354163 0.269007,0.706308 0.75735,0.991083 l 25.423477,14.67693 c 0.14925,0.08693 0.314471,0.16234 0.492107,0.22665 0.0033,0.0013 0.0073,0.0019 0.01087,0.0032 0.524928,0.188061 1.154988,0.275441 1.794308,0.255035 0.691721,-0.02703 1.368738,-0.183627 1.882362,-0.483677 z"
     fill="#4c4c4c"
     id="path8"
     style="stroke-width:0.0567729" />
  <path
     d="m 58.933564,62.417777 c -0.05079,0.288295 -0.122863,0.558631 -0.213341,0.811679 -0.0084,0.02306 -0.01086,0.05098 -0.01949,0.07385 l 1.926533,-1.123249 c 0.871747,-0.507853 1.351252,-1.596736 1.351252,-3.065281 v -6.39e-4 c 0.0089,-3.232533 -2.274665,-7.190855 -5.091626,-8.825917 -1.303106,-0.747587 -2.502661,-0.877535 -3.380427,-0.363926 l -1.932266,1.124162 c 0.05567,0.0086 0.115545,0.03437 0.171648,0.04523 0.208907,0.04012 0.420698,0.09558 0.635345,0.167214 0.09159,0.0306 0.181407,0.05942 0.273884,0.09558 0.291626,0.114213 0.586124,0.246832 0.882422,0.418039 v 6.39e-4 c 0,0 0,2.3e-4 4.53e-4,2.3e-4 4.55e-4,2.24e-4 8.95e-4,4.54e-4 0.0015,6.39e-4 0.458396,0.265685 0.901497,0.594357 1.327294,0.963381 2.397519,2.075559 4.175704,5.595256 4.167469,8.556246 -6.39e-4,0.345514 -0.03284,0.668615 -0.07984,0.979105 -0.0071,0.04747 -0.01239,0.09602 -0.02083,0.142821 z"
     fill="#4c4c4c"
     id="path9"
     style="stroke-width:0.0567729" />
  <path
     d="m 24.459348,44.031297 1.621775,0.936529 1.194672,0.687691 8.95e-4,-0.300504 0.01619,-5.561983 -2.816448,-1.625805 -0.01552,5.194492 z"
     fill="#4c4c4c"
     id="path10"
     style="stroke-width:0.0567729" />
  <path
     d="M 19.231358,44.198211 53.50346,63.985278 c 1.296466,0.748494 2.4929,0.882416 3.370665,0.37678 0.394745,-0.22709 0.697684,-0.58947 0.924544,-1.039453 0.02396,-0.04747 0.05878,-0.08183 0.08073,-0.131507 0.05833,-0.131731 0.08893,-0.292735 0.13306,-0.439991 0.129073,-0.432676 0.21667,-0.907684 0.21667,-1.456566 0.0069,-2.458951 -1.314409,-5.330465 -3.184164,-7.286233 -0.590552,-0.616725 -1.23237,-1.147897 -1.908308,-1.539512 -0.182071,-0.105345 -0.361042,-0.194054 -0.538679,-0.274553 -0.06808,-0.0306 -0.134614,-0.05565 -0.202032,-0.08272 -0.103122,-0.04191 -0.206023,-0.08006 -0.307152,-0.113325 -0.08605,-0.02792 -0.171205,-0.05322 -0.255257,-0.07518 -0.07917,-0.02064 -0.157011,-0.03635 -0.23441,-0.05169 -0.09093,-0.01776 -0.182071,-0.03661 -0.270557,-0.04702 -0.07097,-0.0084 -0.139491,-0.0091 -0.208907,-0.01265 -0.141489,-0.0075 -0.278766,-0.0051 -0.412489,0.0069 -0.08605,0.008 -0.17276,0.01444 -0.255257,0.0306 -0.06165,0.01195 -0.119757,0.03105 -0.179635,0.04766 -0.08361,0.02351 -0.166771,0.04926 -0.246162,0.08183 -0.05278,0.02153 -0.103787,0.04568 -0.154575,0.07119 -0.251487,0.127297 -0.480351,0.297169 -0.674179,0.52293 -0.260355,0.304268 -0.159452,1.172079 0.402066,1.92937 0.08959,0.119758 0.186283,0.225761 0.286748,0.320897 0.113103,0.105345 0.230419,0.196705 0.351283,0.266126 0.05722,0.03348 0.157011,0.08516 0.264125,0.115094 0.0033,6.39e-4 0.0057,0.0019 0.0089,0.0032 0.04014,0.01067 0.08073,0.01284 0.121307,0.01508 0.01952,0.0013 0.03859,0.0026 0.05766,0.0013 0.03814,-0.0032 0.07341,-0.01687 0.10667,-0.03418 0.03371,-0.01578 0.06986,-0.02504 0.09691,-0.0568 0.601678,-0.701434 1.609398,-0.769954 2.635738,-0.178082 0.738729,0.426683 1.429546,1.152548 1.943168,2.043825 0.175648,0.304267 0.313582,0.616725 0.432893,0.930108 0.0069,0.01284 0.02242,0.0191 0.02792,0.03284 0.03527,0.09447 0.0568,0.187837 0.08649,0.281861 0.02198,0.06853 0.04344,0.136389 0.06255,0.204474 0.04057,0.147703 0.07185,0.293183 0.09891,0.438662 0.01572,0.0825 0.03124,0.16411 0.04255,0.245497 0.0051,0.04344 0.01821,0.08849 0.02243,0.131514 0.01175,0.151689 0.02242,0.291623 0.02242,0.431564 0,0.229754 -0.02306,0.422466 -0.05922,0.597417 -0.0065,0.03258 -0.01175,0.0652 -0.01865,0.09691 -0.0026,0.01041 -0.0032,0.02332 -0.0065,0.03348 -0.0051,0.04587 -0.02926,0.135054 -0.06653,0.225985 -0.0093,0.02971 -0.02996,0.05322 -0.04012,0.08228 -0.04594,0.120199 -0.100681,0.230418 -0.164326,0.334205 -0.03904,0.0652 -0.07829,0.128619 -0.125298,0.188501 -0.06942,0.08782 -0.149696,0.162557 -0.233306,0.234189 -0.04459,0.03923 -0.07584,0.09025 -0.124633,0.125297 -0.01265,0.0084 -0.06012,0.03373 -0.09691,0.05277 -0.0073,0.0045 -0.0122,0.01156 -0.01949,0.01578 -0.01866,0.01086 -0.04102,0.01284 -0.06012,0.02287 -0.07784,0.04261 -0.161898,0.08405 -0.251048,0.114213 -0.02683,0.0086 -0.05718,0.0058 -0.08405,0.0131 -0.0998,0.02702 -0.203585,0.03859 -0.308705,0.04766 -0.05389,0.0045 -0.103787,0.0246 -0.15901,0.0246 -0.0235,0 -0.0499,-0.01041 -0.07385,-0.01131 -0.134614,-0.0051 -0.273441,-0.03169 -0.414266,-0.06389 -0.06853,-0.01553 -0.135057,-0.02172 -0.204916,-0.0437 -0.166328,-0.05277 -0.335983,-0.131283 -0.506744,-0.220433 -0.04546,-0.02351 -0.08959,-0.03284 -0.1355,-0.05897 L 44.634175,56.606966 39.434571,53.6051 37.254151,52.348773 c -4.54e-4,-2.3e-4 -0.0015,-2.3e-4 -0.002,-4.54e-4 l -5.36152,-3.098783 -7.065388,-4.079245 -0.967127,-0.557086 c -8.94e-4,-6.38e-4 -0.0015,-0.0019 -0.0029,-0.0026 l -2.59312,-1.497355 -2.488015,-1.429771 c -0.04502,-0.02306 -0.09004,-0.04568 -0.132616,-0.06076 -0.175644,-0.04657 -0.286084,-0.04945 -0.363034,-0.01022 -0.0064,0.0032 -0.01264,0.0045 -0.01907,0.0071 -0.128182,0.07674 -0.202918,0.273882 -0.204031,0.543777 -0.002,0.733845 0.536237,1.6664 1.176051,2.035194 z"
     fill="#4c4c4c"
     id="path11"
     style="stroke-width:0.0567729" />
  <path
     d="m 23.658282,43.561789 0.0078,-3.413701 -1.070283,-0.615421 c -0.237737,-0.133948 -0.456846,-0.168319 -0.595889,-0.08804 l -2.73265,1.584981 z"
     fill="#4c4c4c"
     id="path12"
     style="stroke-width:0.0567729" />
  <path
     d="m 19.236241,33.662865 c 0,0.348394 0.275882,0.71034 0.758202,0.991083 l 4.277952,2.46962 c 0.002,0.0013 0.0044,6.39e-4 0.0064,0.0019 l 3.616151,2.083966 3.278635,1.898371 6.497091,3.750762 c 8.95e-4,6.39e-4 0.0024,2.23e-4 0.0033,6.39e-4 l 3.61615,2.083968 c 4.55e-4,2.24e-4 8.95e-4,0.0013 0.0015,0.0013 l 3.735032,2.152032 c 0.0084,0.0051 0.01176,0.01463 0.01996,0.01993 l 0.370352,0.213783 c 0.133951,0.0774 0.279874,0.143486 0.430895,0.202921 0.448194,0.17276 0.975983,0.272112 1.528668,0.28519 l 2.27e-4,-5.275677 c -0.432451,-0.01112 -0.859996,-0.06786 -1.264957,-0.173207 -4.55e-4,0 -8.95e-4,-2.24e-4 -8.95e-4,-2.24e-4 -0.194271,-0.05034 -0.382996,-0.109555 -0.563517,-0.181628 -0.02839,-0.01131 -0.05278,-0.02664 -0.08073,-0.03859 -0.148143,-0.06274 -0.296059,-0.126633 -0.430895,-0.204474 L 19.607271,29.26362 c -0.02351,-0.01355 -0.03903,-0.03016 -0.06165,-0.04389 -0.104229,-0.06409 -0.206466,-0.129738 -0.296508,-0.199587 z"
     fill="#4c4c4c"
     id="path13"
     style="stroke-width:0.0567729" />
  <path
     d="m 60.834887,42.795918 c 4.54e-4,-2.24e-4 6.39e-4,-2.24e-4 0.0013,-4.54e-4 0,-2.23e-4 4.6e-4,-4.53e-4 4.6e-4,-6.39e-4 l 3.013844,-1.744234 3.047118,-1.770403 c 0.477467,-0.275882 0.739575,-0.621152 0.739575,-0.97354 l 0.01374,-4.641413 c -0.1018,0.07917 -0.212237,0.153683 -0.331771,0.223985 l -5.505442,3.19813 -11.797409,6.855896 c -0.527369,0.306484 -1.168273,0.496098 -1.837341,0.570623 v 5.26904 c 0.520493,-0.06964 1.015497,-0.216888 1.418641,-0.45174 l 8.924702,-5.184957 z"
     fill="#4c4c4c"
     id="path14"
     style="stroke-width:0.0567729" />
  <path
     d="m 28.09395,40.2559 -0.0069,2.281137 -0.0089,3.114507 2.943959,-1.707844 0.0078,-1.992843 z"
     fill="#4c4c4c"
     id="path15"
     style="stroke-width:0.0567729" />
  <path
     d="m 37.854916,51.765471 2.628869,1.517771 0.187396,0.107996 8.95e-4,-0.298498 0.01619,-5.56641 -2.81622,-1.625584 -0.01575,5.17343 z"
     fill="#4c4c4c"
     id="path16"
     style="stroke-width:0.0567729" />
  <path
     d="m 37.053851,51.302774 0.0078,-3.421246 -5.630737,-3.249121 -2.956166,1.715395 3.340291,1.93051 z"
     fill="#4c4c4c"
     id="path17"
     style="stroke-width:0.0567729" />
</svg>
