<?xml version="1.0" encoding="UTF-8" standalone="no"?>
<svg
   width="128"
   height="100"
   version="1.1"
   viewBox="0 0 96 75"
   id="svg3"
   sodipodi:docname="snowing.svg"
   inkscape:version="1.4.3 (0d15f75042, 2025-12-25)"
   xml:space="preserve"
   xmlns:inkscape="http://www.inkscape.org/namespaces/inkscape"
   xmlns:sodipodi="http://sodipodi.sourceforge.net/DTD/sodipodi-0.dtd"
   xmlns="http://www.w3.org/2000/svg"
   xmlns:svg="http://www.w3.org/2000/svg"><defs
     id="defs3" /><sodipodi:namedview
     id="namedview3"
     pagecolor="#ffffff"
     bordercolor="#000000"
     borderopacity="0.25"
     inkscape:showpageshadow="2"
     inkscape:pageopacity="0.0"
     inkscape:pagecheckerboard="0"
     inkscape:deskcolor="#d1d1d1"
     inkscape:document-units="pt"
     inkscape:zoom="4.015"
     inkscape:cx="41.843089"
     inkscape:cy="40.348693"
     inkscape:window-width="1848"
     inkscape:window-height="1011"
     inkscape:window-x="0"
     inkscape:window-y="0"
     inkscape:window-maximized="1"
     inkscape:current-layer="svg3" /><path
     d="m 75.525395,51.758427 c 0.369899,0.182147 0.647318,0.507211 0.767839,0.899539 0.120494,0.395122 0.07289,0.818301 -0.131702,1.176993 -0.204569,0.355882 -0.549253,0.610904 -0.949994,0.706143 -0.400724,0.09246 -0.821052,0.014 -1.162942,-0.212974 l -4.138947,-2.395941 0.759416,2.869533 c 0.212974,0.79026 -0.257816,1.605684 -1.050852,1.818682 -0.793069,0.210172 -1.605684,-0.260609 -1.818682,-1.050843 l -1.527255,-5.739069 -4.304301,-2.460388 1.765418,6.59395 v -0.0025 c 0.210172,0.793069 -0.26061,1.605684 -1.053655,1.81869 -0.790259,0.212975 -1.605682,-0.257816 -1.81588,-1.050852 l -2.4828,-9.446741 -5.172998,-2.992806 -4.304302,2.46881 v 5.954827 l 6.921564,6.929926 v -0.0025 c 0.58007,0.580071 0.58007,1.516015 0,2.096076 -0.577269,0.577269 -1.516014,0.577269 -2.093324,0 l -4.777902,-4.819917 v 4.929206 l 4.175418,4.175402 v -0.0025 c 0.479186,0.588484 0.437154,1.440387 -0.09528,1.981235 -0.532434,0.538035 -1.384312,0.591283 -1.978425,0.120503 l -2.079286,-2.087698 v 4.800311 c 0,0.821044 -0.66692,1.485222 -1.485221,1.485222 -0.821044,0 -1.485222,-0.664111 -1.485222,-1.485222 v -4.800311 l -2.124108,2.087713 c -0.585683,0.540837 -1.493594,0.521216 -2.056863,-0.04488 -0.56326,-0.563261 -0.58007,-1.471172 -0.03926,-2.056854 l 4.17541,-4.175418 v -4.926388 l -4.805935,4.825538 c -0.57726,0.58007 -1.516006,0.58007 -2.093325,0 -0.58007,-0.577269 -0.58007,-1.516015 0,-2.093325 l 6.921556,-6.929927 V 44.764853 L 41.729716,42.290416 36.57071,45.27485 34.026264,54.737738 C 33.8133,55.527997 32.997842,55.99878 32.207582,55.788591 31.414513,55.575617 30.943732,54.760159 31.156731,53.9699 l 1.765425,-6.593949 -4.267897,2.460379 -1.527245,5.739077 h -0.0025 c -0.212973,0.793061 -1.025612,1.263843 -1.818682,1.050844 -0.793069,-0.210172 -1.263851,-1.025621 -1.050852,-1.81869 l 0.759417,-2.869534 -4.088552,2.390322 c -0.700582,0.341882 -1.549667,0.08128 -1.939211,-0.594078 -0.389509,-0.67817 -0.18775,-1.541238 0.462378,-1.975615 l 4.133385,-2.387571 -2.869534,-0.767847 h -0.0025 C 20.32921,48.499493 20.00693,48.252892 19.807973,47.911026 19.611818,47.569144 19.55857,47.16561 19.659454,46.784497 c 0.212973,-0.79307 1.025621,-1.263852 1.818682,-1.050853 l 5.739068,1.527254 4.262277,-2.460388 -6.59395,-1.765417 c -0.381113,-0.100884 -0.703392,-0.350287 -0.902349,-0.692161 -0.196155,-0.339072 -0.249403,-0.745417 -0.14852,-1.12653 0.212974,-0.790259 1.025621,-1.26104 1.818682,-1.050844 l 9.462888,2.538876 5.159006,-2.976004 -0.0025,-4.929207 -5.159007,-2.976004 -9.496961,2.575289 c -0.793069,0.212973 -1.605683,-0.257809 -1.81869,-1.050844 -0.210172,-0.79307 0.260618,-1.605683 1.050852,-1.818691 l 6.599327,-1.765417 -4.304301,-2.460388 -5.739069,1.527246 h 0.0025 c -0.79306,0.212973 -1.608493,-0.257808 -1.818681,-1.050844 -0.212975,-0.79026 0.257808,-1.605683 1.050844,-1.81869 l 2.869533,-0.767839 -4.096913,-2.415553 c -0.708954,-0.417534 -0.944383,-1.331099 -0.526832,-2.042862 0.417543,-0.708954 1.331107,-0.944382 2.040061,-0.526831 l 4.138946,2.395942 -0.759416,-2.869534 c -0.212973,-0.790259 0.257817,-1.605683 1.050853,-1.81869 0.793069,-0.210164 1.605683,0.260617 1.818682,1.050852 l 1.527254,5.739068 4.267897,2.460388 -1.765426,-6.593957 v 0.0025 c -0.210172,-0.793069 0.260618,-1.605691 1.053663,-1.81869 0.79025,-0.212973 1.605682,0.257808 1.815871,1.050844 l 2.533264,9.455121 5.122593,2.984434 4.304302,-2.468817 V 23.822458 L 39.11233,16.892531 v 0.0025 c -0.580071,-0.580071 -0.580071,-1.516006 0,-2.096077 0.577268,-0.57726 1.516014,-0.57726 2.093325,0 L 46.03401,19.62731 V 14.692506 L 41.858593,10.517097 C 41.446662,9.9342246 41.505512,9.1411557 42.001509,8.6283409 42.494713,8.115526 43.284972,8.0258574 43.881835,8.4153673 L 45.961109,10.50308 V 5.7027739 c 0,-0.8210434 0.66693,-1.4852213 1.485222,-1.4852213 0.821044,0 1.485221,0.6641192 1.485221,1.4852213 V 10.480667 L 51.05567,8.4153838 c 0.585674,-0.5408397 1.493593,-0.5212283 2.056853,0.044788 0.563261,0.5632607 0.580071,1.4711717 0.03926,2.0568622 l -4.17541,4.175409 v 4.926387 l 4.828356,-4.828348 -0.0025,0.0025 c 0.58007,-0.58007 1.518824,-0.58007 2.096076,0 0.577268,0.577268 0.577268,1.516014 0,2.093325 l -6.921555,6.929927 v 5.954826 l 4.231426,2.47443 5.159006,-2.984434 2.533264,-9.455113 h -0.0025 c 0.103686,-0.381113 0.350287,-0.706143 0.692161,-0.902349 0.341866,-0.196207 0.745416,-0.249404 1.12653,-0.14852 0.793069,0.212974 1.263851,1.025612 1.050844,1.818682 l -1.765418,6.593949 4.304301,-2.460379 1.527254,-5.739068 0.0025,-0.0025 c 0.100884,-0.378303 0.350287,-0.703392 0.692152,-0.899539 0.33908,-0.198957 0.745425,-0.252205 1.12653,-0.151321 0.793069,0.212974 1.261041,1.028431 1.050852,1.81869 l -0.759408,2.869534 4.138939,-2.395942 c 0.70059,-0.341882 1.546866,-0.08128 1.9364,0.594087 0.389518,0.67816 0.18775,1.541237 -0.459575,1.975614 l -4.133386,2.387571 2.869534,0.767838 c 0.793069,0.212974 1.263852,1.025621 1.050853,1.81869 -0.210173,0.793062 -1.025621,1.263852 -1.818691,1.050844 l -5.739068,-1.527245 -4.262277,2.460379 6.559877,1.793459 c 0.79026,0.212974 1.261041,1.025621 1.050844,1.81869 -0.212973,0.79307 -1.025612,1.263852 -1.818682,1.050844 l -9.462888,-2.57528 -5.159006,2.976005 v 4.934818 l 5.159006,2.976004 9.462888,-2.538876 v 0.0025 c 0.79307,-0.212974 1.605683,0.257808 1.818682,1.050852 0.210172,0.793061 -0.26061,1.605683 -1.050844,1.818681 l -6.599334,1.765427 4.304301,2.46038 5.739076,-1.527247 -0.0025,-0.0025 c 0.79306,-0.210172 1.608493,0.26061 1.818681,1.050844 0.212974,0.793069 -0.257808,1.608493 -1.050844,1.81869 l -2.869534,0.767838 4.133385,2.387571 z M 51.400383,39.562906 v -4.562083 l -3.931618,-2.272671 -3.931626,2.275422 v 4.534101 l 3.931626,2.269869 z"
     fill="#4c4c4c"
     fill-rule="evenodd"
     id="path1"
     style="stroke-width:0.0597819" /></svg>
