<?xml version="1.0" encoding="UTF-8" standalone="no"?>
<!-- Created with Inkscape (http://www.inkscape.org/) -->

<svg
   width="128"
   height="100"
   viewBox="0 0 33.866667 26.458333"
   version="1.1"
   id="svg5"
   xml:space="preserve"
   inkscape:version="1.2.2 (b0a8486541, 2022-12-01)"
   sodipodi:docname="special.svg"
   xmlns:inkscape="http://www.inkscape.org/namespaces/inkscape"
   xmlns:sodipodi="http://sodipodi.sourceforge.net/DTD/sodipodi-0.dtd"
   xmlns="http://www.w3.org/2000/svg"
   xmlns:svg="http://www.w3.org/2000/svg"><sodipodi:namedview
     id="namedview7"
     pagecolor="#ffffff"
     bordercolor="#666666"
     borderopacity="1.0"
     inkscape:showpageshadow="2"
     inkscape:pageopacity="0.0"
     inkscape:pagecheckerboard="0"
     inkscape:deskcolor="#d1d1d1"
     inkscape:document-units="mm"
     showgrid="false"
     showguides="false"
     inkscape:zoom="1.829812"
     inkscape:cx="-115.03914"
     inkscape:cy="49.185381"
     inkscape:window-width="1920"
     inkscape:window-height="1011"
     inkscape:window-x="0"
     inkscape:window-y="0"
     inkscape:window-maximized="1"
     inkscape:current-layer="layer1" /><defs
     id="defs2" /><g
     inkscape:label="Layer 1"
     inkscape:groupmode="layer"
     id="layer1"
     transform="translate(-33.044247,-131.48302)"><g
       id="g69320"
       transform="matrix(0.26458333,0,0,0.26458333,36.735791,132.1408)"
       style="fill:#4d4d4d;fill-opacity:1"><g
         id="g69256"
         style="fill:#4d4d4d;fill-opacity:1"><path
           d="m 53.3,46.9 c 0,0 9.8,-7.1 24.4,-7.8 14.6,-0.7 16.1,4.6 15.7,5.7 C 93,45.9 89.7,44.7 84.3,43 79,41.2 73.1,38.8 53.3,46.9 Z"
           id="path69230"
           style="fill:#4d4d4d;fill-opacity:1" /><path
           d="m 52.4,50.1 c 0,0 10.7,5.7 17.8,18.5 7.1,12.8 2.9,16.5 1.7,16.6 -1.1,0.1 -1.6,-3.4 -2.3,-9 C 68.7,70.7 68.2,64.4 52.4,50.1 Z"
           id="path69232"
           style="fill:#4d4d4d;fill-opacity:1" /><path
           d="m 50.1,39.5 c 0,0 0,-9.6 6.4,-19.2 6.4,-9.6 10.4,-8.1 10.9,-7.3 0.5,0.7 -1.8,2.4 -5.4,5 -3.6,2.6 -7.8,5.2 -11.9,21.5 z"
           id="path69234"
           style="fill:#4d4d4d;fill-opacity:1" /><path
           d="M 47,47 C 47,47 35.7,42.7 21.4,45.8 7.1,48.9 7,54.4 7.6,55.4 c 0.6,0.9 3.6,-1 8.3,-4.1 4.7,-3.1 9.8,-6.9 31.1,-4.3 z"
           id="path69236"
           style="fill:#4d4d4d;fill-opacity:1" /><path
           d="m 47.5,44.6 c 0,0 -3.5,-8.5 -12.6,-14.7 -9.1,-6.2 -12.1,-3.4 -12.3,-2.6 -0.2,0.8 2.4,1.4 6.6,2.4 4.1,1.1 8.8,1.9 18.3,14.9 z"
           id="path69238"
           style="fill:#4d4d4d;fill-opacity:1" /><path
           d="m 47.6,50.1 c 0,0 -8.7,2.8 -15.7,11.3 -7,8.5 -4.4,11.8 -3.6,12.1 0.8,0.3 1.6,-2.3 3,-6.3 1.4,-4 2.6,-8.6 16.3,-17.1 z"
           id="path69240"
           style="fill:#4d4d4d;fill-opacity:1" /><path
           d="m 35.9,51.3 c 0,0 -6.6,0.9 -12.7,6.1 -6.1,5.2 -4.6,7.9 -4.1,8.2 0.5,0.3 1.5,-1.4 2.9,-4.2 1.5,-2.6 2.9,-5.8 13.9,-10.1 z"
           id="path69242"
           style="fill:#4d4d4d;fill-opacity:1" /><path
           d="m 47.4,38 c 0,0 0.7,-6.6 -3.1,-13.8 -3.7,-7.1 -6.7,-6.3 -7.1,-5.9 -0.4,0.4 1.1,1.8 3.4,3.8 2.3,2 5.1,4.2 6.8,15.9 z"
           id="path69244"
           style="fill:#4d4d4d;fill-opacity:1" /><path
           d="m 48.6,51.3 c 0,0 -5.1,4.3 -7.5,12 -2.4,7.7 0.3,9.2 0.9,9.1 0.6,0 0.5,-2 0.3,-5.1 -0.3,-3.1 -0.7,-6.5 6.3,-16 z"
           id="path69246"
           style="fill:#4d4d4d;fill-opacity:1" /><path
           d="m 58.2,49.3 c 0,0 6.6,0.9 12.7,6.1 6.1,5.3 4.6,7.9 4.1,8.2 -0.5,0.3 -1.5,-1.4 -2.9,-4.2 -1.5,-2.6 -2.9,-5.8 -13.9,-10.1 z"
           id="path69248"
           style="fill:#4d4d4d;fill-opacity:1" /><path
           d="m 53.3,40.7 c 0,0 2.4,-6.2 9,-10.9 6.6,-4.7 8.8,-2.6 9,-2 0.2,0.6 -1.8,1.1 -4.8,1.9 -3,0.7 -6.4,1.4 -13.2,11 z"
           id="path69250"
           style="fill:#4d4d4d;fill-opacity:1" /><path
           d="m 68.9,47.5 c 0,0 5.7,-0.4 11.7,3 6,3.4 5.2,5.9 4.8,6.2 -0.4,0.3 -1.5,-1 -3.2,-3 -1.7,-2.1 -3.4,-4.5 -13.3,-6.2 z"
           id="path69252"
           style="fill:#4d4d4d;fill-opacity:1" /><path
           d="m 51.1,54.9 c 0,0 3.8,4.2 4.9,11 1.1,6.8 -1.4,7.7 -1.9,7.6 -0.5,-0.1 -0.2,-1.8 0.4,-4.3 0.5,-2.6 1.3,-5.4 -3.4,-14.3 z"
           id="path69254"
           style="fill:#4d4d4d;fill-opacity:1" /></g><polygon
         points="24.2,36.6 23.5,34.3 25.4,35.7 27.3,34.4 26.6,36.6 28.5,38 26.1,38 25.4,40.2 24.7,37.9 22.3,37.9 "
         id="polygon69258"
         style="fill:#4d4d4d;fill-opacity:1" /><polygon
         points="50.8,45.9 52.5,45.2 51.5,46.8 52.7,48.2 50.9,47.8 50,49.3 49.8,47.5 48.1,47.1 49.8,46.4 49.6,44.5 "
         id="polygon69260"
         style="fill:#4d4d4d;fill-opacity:1" /><polygon
         points="78,15.3 80.6,13.4 79.6,16.5 82.2,18.4 79,18.4 78,21.4 77,18.4 73.8,18.4 76.4,16.5 75.4,13.4 "
         id="polygon69262"
         style="fill:#4d4d4d;fill-opacity:1" /><polygon
         points="89.6,30.8 89.3,27.8 91.3,30.1 94,28.9 92.5,31.5 94.5,33.7 91.6,33.1 90,35.6 89.8,32.7 86.9,32 "
         id="polygon69264"
         style="fill:#4d4d4d;fill-opacity:1" /><polygon
         points="25,12.1 28.9,11 26.4,14.1 28.6,17.5 24.8,16.1 22.3,19.3 22.5,15.2 18.7,13.8 22.6,12.7 22.8,8.7 "
         id="polygon69266"
         style="fill:#4d4d4d;fill-opacity:1" /><polygon
         points="8.6,23.2 8.4,21.9 9.3,22.9 10.5,22.3 9.9,23.5 10.8,24.5 9.5,24.2 8.8,25.4 8.7,24 7.4,23.8 "
         id="polygon69268"
         style="fill:#4d4d4d;fill-opacity:1" /><polygon
         points="13,68.8 16.6,66.9 14.8,70.6 17.7,73.4 13.7,72.9 11.9,76.5 11.2,72.5 7.2,71.9 10.8,70 10.1,66 "
         id="polygon69270"
         style="fill:#4d4d4d;fill-opacity:1" /><polygon
         points="40.4,84.5 40.7,82.5 41.7,84.3 43.7,84 42.2,85.4 43.2,87.3 41.3,86.4 39.9,87.8 40.2,85.8 38.3,84.8 "
         id="polygon69272"
         style="fill:#4d4d4d;fill-opacity:1" /><polygon
         points="60.9,81.9 62.3,81.9 61.1,82.7 61.6,84 60.4,83.2 59.3,84 59.7,82.7 58.6,81.9 60,81.9 60.4,80.5 "
         id="polygon69274"
         style="fill:#4d4d4d;fill-opacity:1" /><polygon
         points="81.6,66.2 81.6,61.2 84.5,65.2 89.3,63.7 86.3,67.7 89.2,71.8 84.5,70.2 81.5,74.2 81.6,69.2 76.8,67.7 "
         id="polygon69276"
         style="fill:#4d4d4d;fill-opacity:1" /><polygon
         points="92.6,53.6 93.4,53 93.1,54 94,54.5 93,54.6 92.8,55.6 92.4,54.7 91.3,54.7 92.1,54.1 91.7,53.1 "
         id="polygon69278"
         style="fill:#4d4d4d;fill-opacity:1" /><polygon
         points="45.4,11.3 46.5,9.5 46.7,11.6 48.7,12.1 46.8,13 47,15.1 45.6,13.5 43.6,14.3 44.7,12.5 43.3,10.9 "
         id="polygon69280"
         style="fill:#4d4d4d;fill-opacity:1" /></g></g></svg>
