<?xml version="1.0" encoding="UTF-8" standalone="no"?>
<svg
   width="128"
   height="100"
   version="1.1"
   viewBox="0 0 96 75"
   id="svg26"
   sodipodi:docname="spinner.svg"
   inkscape:version="1.4.2 (ebf0e940d0, 2025-05-08)"
   xmlns:inkscape="http://www.inkscape.org/namespaces/inkscape"
   xmlns:sodipodi="http://sodipodi.sourceforge.net/DTD/sodipodi-0.dtd"
   xmlns="http://www.w3.org/2000/svg"
   xmlns:svg="http://www.w3.org/2000/svg">
  <defs
     id="defs26" />
  <sodipodi:namedview
     id="namedview26"
     pagecolor="#ffffff"
     bordercolor="#000000"
     borderopacity="0.25"
     inkscape:showpageshadow="2"
     inkscape:pageopacity="0.0"
     inkscape:pagecheckerboard="0"
     inkscape:deskcolor="#d1d1d1"
     inkscape:document-units="pt"
     inkscape:zoom="1.4760854"
     inkscape:cx="95.522928"
     inkscape:cy="80.957375"
     inkscape:window-width="1920"
     inkscape:window-height="1043"
     inkscape:window-x="0"
     inkscape:window-y="0"
     inkscape:window-maximized="1"
     inkscape:current-layer="svg26" />
  <path
     d="m 55.924304,40.90137 c 0.564813,-1.161988 0.860863,-2.440284 0.860863,-3.748322 0,-1.308038 -0.296059,-2.586542 -0.860863,-3.748323 -1.040441,0.816353 -2.159999,1.594188 -3.238585,2.293403 0.149327,0.458531 0.231062,0.947304 0.231062,1.454961 0,0.507658 -0.08173,0.996389 -0.231062,1.454961 1.078627,0.69934 2.198353,1.477049 3.238585,2.293403 z"
     fill="#4c4c4c"
     id="path1"
     style="stroke-width:0.0415977" />
  <path
     d="m 31.64334,47.708826 -4.617755,2.665994 c 2.014907,3.215706 4.740884,5.941808 7.956382,7.956382 l 2.665994,-4.617756 C 35.237876,52.171879 33.184949,50.118827 31.642923,47.70841 Z"
     fill="#4c4c4c"
     id="path2"
     style="stroke-width:0.0415977" />
  <path
     d="m 36.472411,59.195601 c 3.261672,1.743024 6.953047,2.782675 10.870298,2.916203 v -5.334067 c -2.9484,-0.127879 -5.730076,-0.908326 -8.203888,-2.200765 z"
     fill="#4c4c4c"
     id="path3"
     style="stroke-width:0.0415977" />
  <path
     d="m 51.857718,34.180853 c 4.036761,-2.634961 6.608203,-5.104031 6.76669,-6.523759 0.03103,-0.277535 -0.04144,-0.481617 -0.242274,-0.682451 -0.200837,-0.200837 -0.404765,-0.273634 -0.68245,-0.242273 -1.419521,0.158592 -3.888715,2.730178 -6.52376,6.766691 0.249748,0.203437 0.478206,0.431907 0.681661,0.681659 z"
     fill="#4c4c4c"
     id="path4"
     style="stroke-width:0.0415977" />
  <path
     d="m 51.194235,37.153006 c 0,1.651219 -1.338612,2.989831 -2.989831,2.989831 -1.651219,0 -2.989831,-1.338612 -2.989831,-2.989831 0,-1.651219 1.338612,-2.989831 2.989831,-2.989831 1.651219,0 2.989831,1.338612 2.989831,2.989831 z"
     fill="#4c4c4c"
     id="path5"
     style="stroke-width:0.0415977" />
  <path
     d="m 46.74911,41.634321 c -0.69934,1.07846 -1.477049,2.198186 -2.293403,3.238585 1.161989,0.564813 2.440285,0.860863 3.748323,0.860863 1.308037,0 2.586542,-0.296058 3.748322,-0.860863 -0.816354,-1.040274 -1.594187,-2.16 -2.293403,-3.238585 -0.458531,0.149327 -0.947303,0.2309 -1.454961,0.2309 -0.507616,1.66e-4 -0.996555,-0.08157 -1.45496,-0.2309 z"
     fill="#4c4c4c"
     id="path6"
     style="stroke-width:0.0415977" />
  <path
     d="M 59.935981,15.11062 C 56.674143,13.367595 52.982933,12.327945 49.065267,12.194416 v 5.334067 c 2.9484,0.12788 5.730077,0.908326 8.203889,2.200766 z"
     fill="#4c4c4c"
     id="path7"
     style="stroke-width:0.0415977" />
  <path
     d="m 49.659282,32.671692 c 0.69934,-1.078461 1.47705,-2.198187 2.293403,-3.238586 -1.161989,-0.564813 -2.440284,-0.860863 -3.748323,-0.860863 -1.308038,0 -2.586541,0.296059 -3.748322,0.860863 0.816354,1.040274 1.594188,2.159999 2.293403,3.238586 0.458531,-0.149328 0.947303,-0.230901 1.454961,-0.230901 0.507616,-1.67e-4 0.996555,0.08157 1.454961,0.230901 z"
     fill="#4c4c4c"
     id="path8"
     style="stroke-width:0.0415977" />
  <path
     d="m 47.343125,17.528483 v -5.334067 c -3.917667,0.133566 -7.608627,1.173179 -10.870298,2.916204 l 2.666617,4.618587 c 2.473937,-1.292273 5.255447,-2.072894 8.203889,-2.200599 z"
     fill="#4c4c4c"
     id="path9"
     style="stroke-width:0.0415977" />
  <path
     d="m 64.765052,26.597186 4.617755,-2.665993 c -2.014906,-3.215707 -4.740883,-5.941808 -7.956382,-7.956382 l -2.665993,4.617755 c 2.410084,1.541567 4.463012,3.594619 6.005037,6.005036 z"
     fill="#4c4c4c"
     id="path10"
     style="stroke-width:0.0415977" />
  <path
     d="m 30.780605,28.087631 -4.618587,-2.666618 c -1.743025,3.261838 -2.782675,6.953047 -2.916204,10.870713 h 5.334067 c 0.127879,-2.9484 0.908326,-5.730076 2.200765,-8.203888 z"
     fill="#4c4c4c"
     id="path11"
     style="stroke-width:0.0415977" />
  <path
     d="m 37.648376,20.59215 -2.665993,-4.617755 c -3.215707,2.014907 -5.941808,4.740884 -7.956382,7.956382 l 4.617755,2.665994 c 1.541567,-2.410085 3.594619,-4.463012 6.005036,-6.005037 z"
     fill="#4c4c4c"
     id="path12"
     style="stroke-width:0.0415977" />
  <path
     d="m 28.579673,38.014077 h -5.334067 c 0.133566,3.917666 1.173179,7.608627 2.916204,10.870298 l 4.618586,-2.666617 c -1.292438,-2.473937 -2.072893,-5.255447 -2.200765,-8.203889 z"
     fill="#4c4c4c"
     id="path13"
     style="stroke-width:0.0415977" />
  <path
     d="m 67.829968,36.291935 h 5.334066 C 73.030468,32.374268 71.990855,28.683308 70.247831,25.421637 l -4.618587,2.666617 c 1.292439,2.473937 2.072893,5.255447 2.200765,8.203889 z"
     fill="#4c4c4c"
     id="path14"
     style="stroke-width:0.0415977" />
  <path
     d="m 66.124464,37.153006 c 0,-9.882354 -8.039993,-17.922347 -17.921932,-17.922347 -9.881937,0 -17.921931,8.039993 -17.921931,17.922347 0,9.882354 8.039994,17.922348 17.921931,17.922348 9.881939,0 17.921932,-8.039994 17.921932,-17.922348 z m -6.525839,11.396092 c -0.533782,0.51136 -1.257664,0.713317 -2.091573,0.736071 -0.587233,-0.06548 -1.202254,-0.324495 -1.828673,-0.726503 -2.222063,1.461117 -4.793298,2.23134 -7.47593,2.23134 -2.682383,0 -5.253783,-0.770223 -7.475929,-2.23134 -0.62642,0.402004 -1.24144,0.660862 -1.828675,0.726503 -0.832286,0.06467 -1.523847,-0.193525 -2.091571,-0.736071 -0.570845,-0.570678 -0.825298,-1.293895 -0.736237,-2.091571 0.06548,-0.587235 0.324495,-1.202256 0.726503,-1.828675 -1.461118,-2.222229 -2.23134,-4.793296 -2.23134,-7.475929 0,-2.682632 0.770222,-5.253783 2.23134,-7.47593 -0.402004,-0.626419 -0.661029,-1.241606 -0.726503,-1.828841 -0.08904,-0.797676 0.165417,-1.520893 0.73607,-2.091571 0.570653,-0.570678 1.293604,-0.824798 2.091572,-0.73607 0.587233,0.06548 1.202255,0.324494 1.828674,0.726503 2.222063,-1.461117 4.793297,-2.23134 7.475929,-2.23134 2.682384,0 5.253784,0.770223 7.475931,2.23134 0.626418,-0.402004 1.24144,-0.660862 1.828673,-0.726503 0.797844,-0.08937 1.520894,0.165417 2.091572,0.73607 0.570845,0.570678 0.825297,1.293895 0.736237,2.091571 -0.06548,0.587235 -0.324495,1.202256 -0.726503,1.828675 1.461118,2.22223 2.23134,4.793296 2.23134,7.47593 0,2.682632 -0.770222,5.253783 -2.23134,7.475929 0.402004,0.626419 0.661028,1.241606 0.726503,1.828841 0.08904,0.79751 -0.16558,1.520893 -0.73607,2.091571 z"
     fill="#4c4c4c"
     id="path15"
     style="stroke-width:0.0415977" />
  <path
     d="m 58.472992,31.110115 c -0.362029,0.389167 -0.763525,0.777669 -1.193479,1.162155 0.804998,1.494604 1.227797,3.166954 1.227797,4.880653 0,1.713615 -0.422799,3.386132 -1.227797,4.880653 0.429788,0.384454 0.831455,0.772967 1.193355,1.162154 1.078626,-1.825429 1.645685,-3.892791 1.645685,-6.04289 1.66e-4,-2.150224 -0.5671,-4.217587 -1.645561,-6.042891 z"
     fill="#4c4c4c"
     id="path16"
     style="stroke-width:0.0415977" />
  <path
     d="m 49.065267,56.778778 v 5.334066 c 3.917666,-0.133566 7.608627,-1.173179 10.870298,-2.916203 l -2.666617,-4.618587 c -2.473937,1.292106 -5.255447,2.072727 -8.203889,2.200598 z"
     fill="#4c4c4c"
     id="path17"
     style="stroke-width:0.0415977" />
  <path
     d="m 58.760016,53.713862 2.665994,4.617755 c 3.215706,-2.014906 5.941808,-4.740883 7.956382,-7.956382 l -4.617756,-2.665993 c -1.541567,2.410084 -3.594619,4.463012 -6.005036,6.005037 z"
     fill="#4c4c4c"
     id="path18"
     style="stroke-width:0.0415977" />
  <path
     d="m 43.323544,28.077231 c 1.494604,-0.804998 3.166787,-1.22763 4.880652,-1.22763 1.713865,0 3.386132,0.422798 4.880652,1.22763 0.384454,-0.429788 0.772968,-0.831454 1.162156,-1.193479 -1.825431,-1.07846 -3.892958,-1.645561 -6.042891,-1.645561 -2.150099,0 -4.21717,0.567267 -6.04289,1.645561 0.389004,0.362191 0.777667,0.763691 1.161988,1.193479 z"
     fill="#4c4c4c"
     id="path19"
     style="stroke-width:0.0415977" />
  <path
     d="m 51.857718,40.125158 c -0.203438,0.249748 -0.432075,0.478206 -0.681827,0.681828 2.634962,4.03676 5.104031,6.608202 6.523758,6.766689 0.27705,0.03103 0.481618,-0.04159 0.682452,-0.242274 0.200838,-0.200837 0.273309,-0.404927 0.242274,-0.68245 -0.158592,-1.419852 -2.730013,-3.888881 -6.766691,-6.52376 z"
     fill="#4c4c4c"
     id="path20"
     style="stroke-width:0.0415977" />
  <path
     d="M 65.629452,46.218382 70.248039,48.885 c 1.743025,-3.261673 2.782674,-6.953048 2.916203,-10.870299 h -5.334066 c -0.12788,2.948234 -0.908327,5.72966 -2.200766,8.203888 z"
     fill="#4c4c4c"
     id="path21"
     style="stroke-width:0.0415977" />
  <path
     d="m 40.484088,33.404642 c -0.564813,1.161989 -0.860863,2.440284 -0.860863,3.748322 0,1.308038 0.296059,2.586542 0.860863,3.748323 1.04044,-0.816354 2.16,-1.594189 3.238585,-2.293402 -0.149327,-0.458532 -0.231062,-0.947304 -0.231062,-1.454962 0,-0.507658 0.08173,-0.996389 0.231062,-1.454961 -1.078461,-0.699215 -2.198352,-1.47705 -3.238585,-2.293404 z"
     fill="#4c4c4c"
     id="path22"
     style="stroke-width:0.0415977" />
  <path
     d="m 39.128421,42.033658 c -0.804998,-1.494603 -1.227796,-3.166954 -1.227796,-4.880652 0,-1.713616 0.422798,-3.386132 1.227796,-4.880652 -0.429788,-0.384454 -0.831454,-0.772967 -1.193354,-1.162155 -1.078626,1.825429 -1.645686,3.892791 -1.645686,6.04289 0,2.1501 0.567267,4.21717 1.645686,6.042891 0.362029,-0.388843 0.763525,-0.777502 1.193354,-1.161823 z"
     fill="#4c4c4c"
     id="path23"
     style="stroke-width:0.0415977" />
  <path
     d="m 44.550674,34.180853 c 0.203438,-0.249747 0.432076,-0.478206 0.681827,-0.681826 -2.634961,-4.036761 -5.104031,-6.608203 -6.523759,-6.76669 -0.277697,-0.03136 -0.481617,0.04159 -0.682452,0.242273 -0.200837,0.200838 -0.273308,0.404928 -0.242272,0.682452 0.158592,1.419851 2.730012,3.88888 6.76669,6.523759 z"
     fill="#4c4c4c"
     id="path24"
     style="stroke-width:0.0415977" />
  <path
     d="m 53.084848,46.228781 c -1.494603,0.804997 -3.166787,1.22763 -4.880652,1.22763 -1.713865,0 -3.386132,-0.422799 -4.880652,-1.22763 -0.384454,0.429787 -0.772967,0.831454 -1.162155,1.193478 1.825429,1.078461 3.892957,1.645562 6.04289,1.645562 2.1501,0 4.21717,-0.567267 6.042891,-1.645562 -0.389004,-0.362191 -0.777669,-0.763691 -1.161989,-1.193478 z"
     fill="#4c4c4c"
     id="path25"
     style="stroke-width:0.0415977" />
  <path
     d="m 44.550674,40.125158 c -4.03676,2.634962 -6.608202,5.104032 -6.766689,6.523759 -0.03103,0.277536 0.04144,0.481618 0.242272,0.682452 0.200839,0.200838 0.403952,0.273147 0.682452,0.242273 1.419519,-0.158592 3.888714,-2.730179 6.52376,-6.76669 -0.249749,-0.203437 -0.478207,-0.431909 -0.681662,-0.681661 z"
     fill="#4c4c4c"
     id="path26"
     style="stroke-width:0.0415977" />
</svg>
