<?xml version="1.0" encoding="UTF-8" standalone="no"?>
<svg
   width="128"
   height="100"
   version="1.1"
   viewBox="0 0 96 75"
   id="svg3"
   sodipodi:docname="spoiler.svg"
   inkscape:version="1.4.2 (ebf0e940d0, 2025-05-08)"
   xmlns:inkscape="http://www.inkscape.org/namespaces/inkscape"
   xmlns:sodipodi="http://sodipodi.sourceforge.net/DTD/sodipodi-0.dtd"
   xmlns="http://www.w3.org/2000/svg"
   xmlns:svg="http://www.w3.org/2000/svg">
  <defs
     id="defs3" />
  <sodipodi:namedview
     id="namedview3"
     pagecolor="#ffffff"
     bordercolor="#000000"
     borderopacity="0.25"
     inkscape:showpageshadow="2"
     inkscape:pageopacity="0.0"
     inkscape:pagecheckerboard="0"
     inkscape:deskcolor="#d1d1d1"
     inkscape:document-units="pt"
     inkscape:zoom="2.9521708"
     inkscape:cx="165.30209"
     inkscape:cy="78.755606"
     inkscape:window-width="1920"
     inkscape:window-height="1043"
     inkscape:window-x="0"
     inkscape:window-y="0"
     inkscape:window-maximized="1"
     inkscape:current-layer="svg3" />
  <path
     d="m 19.735566,36.817684 4.545674,6.363947 c 0.680905,0.953643 1.787383,1.522788 2.959222,1.522788 0.170839,0 0.343575,-0.01176 0.514594,-0.03733 l 44.546637,-6.363947 c 1.530013,-0.218193 2.757316,-1.415585 3.051103,-2.952045 l 1.009117,-4.500195 -56.957903,5.384019 c 0.09262,0.201905 0.199064,0.398313 0.330887,0.582818 z"
     fill="#4c4c4c"
     id="path1"
     style="stroke-width:0.0484872" />
  <path
     d="m 76.374956,24.166409 c -0.692641,-0.813665 -1.702725,-1.280936 -2.770947,-1.280936 -0.07368,0 -0.146405,0.0021 -0.212701,0.0065 l -47.275007,2.772884 c -1.126358,0.0663 -2.174748,0.664614 -2.804694,1.60105 l -3.636539,5.409207 c -0.359106,0.534474 -0.5737,1.145514 -0.618211,1.764693 l 57.723999,-5.453838 0.373687,-1.668253 c 0.248122,-1.10667 -0.04374,-2.284765 -0.778458,-3.151278 z"
     fill="#4c4c4c"
     id="path2"
     style="stroke-width:0.0484872" />
  <path
     d="m 24.202254,52.265217 c -1.136443,0.569144 -1.726386,1.830006 -1.434542,3.066431 0.291869,1.237392 1.383776,2.101043 2.654674,2.101043 h 19.091831 c 1.048147,0 2.015612,-0.611759 2.464701,-1.56012 L 53.133882,42.87897 32.313967,45.853756 c -3.821033,4.192057 -8.047904,6.379463 -8.111422,6.411461 z m 6.674747,2.44007 c -0.50194,0 -0.909135,-0.407213 -0.909135,-0.909133 0,-0.50192 0.407215,-0.909133 0.909135,-0.909133 0.50192,0 0.909135,0.407213 0.909135,0.909133 0,0.50192 -0.407215,0.909133 -0.909135,0.909133 z m 10.909618,-1.818266 c 0.501939,0 0.909134,0.407213 0.909134,0.909133 0,0.50192 -0.407214,0.909133 -0.909134,0.909133 -0.50192,0 -0.909135,-0.407213 -0.909135,-0.909133 0,-0.50192 0.407215,-0.909133 0.909135,-0.909133 z"
     fill="#4c4c4c"
     id="path3"
     style="stroke-width:0.0484872" />
</svg>
