<?xml version="1.0" encoding="UTF-8" standalone="no"?>
<svg
   width="128"
   height="100"
   version="1.1"
   viewBox="0 0 96 75"
   id="svg8"
   sodipodi:docname="stepper.svg"
   inkscape:version="1.4.3 (0d15f75042, 2025-12-25)"
   xml:space="preserve"
   xmlns:inkscape="http://www.inkscape.org/namespaces/inkscape"
   xmlns:sodipodi="http://sodipodi.sourceforge.net/DTD/sodipodi-0.dtd"
   xmlns="http://www.w3.org/2000/svg"
   xmlns:svg="http://www.w3.org/2000/svg"><defs
     id="defs8" /><sodipodi:namedview
     id="namedview8"
     pagecolor="#ffffff"
     bordercolor="#000000"
     borderopacity="0.25"
     inkscape:showpageshadow="2"
     inkscape:pageopacity="0.0"
     inkscape:pagecheckerboard="0"
     inkscape:deskcolor="#d1d1d1"
     inkscape:document-units="pt"
     inkscape:zoom="2.8390337"
     inkscape:cx="67.980877"
     inkscape:cy="54.948273"
     inkscape:window-width="1848"
     inkscape:window-height="1011"
     inkscape:window-x="0"
     inkscape:window-y="0"
     inkscape:window-maximized="1"
     inkscape:current-layer="svg8" /><path
     d="m 78.680378,44.453706 c -0.196613,4.428536 -5.075502,7.406957 -6.271117,11.592146 -1.182379,4.131818 -1.767857,10.528904 -7.079758,10.2711 -2.181522,-0.106965 -5.110514,0.87819 -6.712,-0.917797 -1.377733,-1.543734 -1.534765,-4.154344 -2.201325,-6.012248 -0.76103,-2.117524 -0.58297,-4.398269 -1.761397,-6.430175 -0.426593,-0.737869 -1.649846,-1.821022 -1.80373,-2.627903 0,0 -0.998498,-3.85389 -1.423849,-4.705819 -0.55794,-1.120892 -1.077336,-1.822889 -0.920305,-3.223631 0.125516,-1.129855 1.225348,-2.095209 1.326495,-2.93086 0.151159,-1.248302 -1.451343,-1.795987 -1.154895,-3.062863 1.307281,-0.232478 1.779975,0.434928 2.508234,1.265595 0.433055,0.494559 0.256873,0.655935 0.842965,1.067729 0.322757,0.226012 0.830047,0.08006 1.21115,0.396563 1.267457,1.052303 1.622357,3.833449 2.014296,5.321295 0.270837,1.027274 0.817929,2.023265 1.034364,3.078288 0.241443,1.179872 0.120516,2.161717 0.990764,3.121255 2.575595,2.839962 2.673589,-1.555794 2.673589,-3.269053 0,-2.580607 -1.294577,-12.568924 2.471782,-12.493128 0.01979,-1.010188 -0.868586,-4.67518 1.199722,-4.235632 1.366902,0.290231 1.047288,3.211512 0.601543,4.082606 3.514475,0.313789 2.0681,9.034378 1.748698,11.333808 -0.16388,1.190117 -1.951523,5.306722 0.579021,5.420305 1.427585,0.06652 2.626676,-3.248019 3.338918,-4.282977 0.559221,-0.812749 1.059404,-1.617927 1.757666,-2.348107 0.858172,-0.898632 2.111649,-1.104235 2.82977,-1.874821 0.397813,-0.425965 0.948059,-2.619575 2.095209,-1.661535 0.251448,0.211419 0.112381,2.963207 0.104041,3.12579 z M 16.294799,25.888552 c 1.174697,4.273372 6.591906,6.097648 8.685838,9.911878 2.068095,3.768221 4.056346,9.87558 9.179027,8.44725 2.104817,-0.587993 5.179106,-0.27668 6.343711,-2.38334 1.000366,-1.809327 0.574,-4.389939 0.813336,-6.34958 0.271673,-2.233455 -0.406157,-4.41828 0.290855,-6.660757 0.25291,-0.814195 1.206775,-2.14005 1.177793,-2.961127 0,0 0.119678,-3.980015 0.344643,-4.904967 0.295867,-1.215738 0.646331,-2.015787 0.183272,-3.347247 -0.373418,-1.072955 -1.660254,-1.772233 -1.94469,-2.5639 -0.424085,-1.183021 1.016432,-2.072688 0.447644,-3.242152 -1.32585,0.06276 -1.640236,0.818571 -2.165454,1.789527 -0.312539,0.578381 -0.106332,0.696822 -0.586705,1.227855 -0.264582,0.292115 -0.791028,0.261873 -1.092762,0.654707 -1.001864,1.307281 -0.732689,4.099312 -0.784572,5.635951 -0.03645,1.061267 -0.349026,2.153976 -0.326092,3.230086 0.02566,1.202821 0.361953,2.134816 -0.274176,3.263444 -1.88315,3.338923 -2.952159,-0.924893 -3.332033,-2.594169 -0.571921,-2.517199 -1.523076,-12.542233 -5.179746,-11.634844 -0.242691,-0.981205 -0.188272,-4.7518861 -2.108553,-3.8655782 -1.268903,0.5867052 -0.308788,3.3638972 0.317752,4.1147372 -3.357444,1.08502 -0.01355,9.268162 0.806452,11.440024 0.424086,1.124041 3.080156,4.741689 0.636774,5.41497 -1.377738,0.379261 -3.280742,-2.587656 -4.204408,-3.437504 -0.725804,-0.667412 -1.392575,-1.343148 -2.234042,-1.89986 -1.037677,-0.686568 -2.304553,-0.608375 -3.175646,-1.200954 -0.481632,-0.326716 -1.505144,-2.343514 -2.410236,-1.155477 -0.197237,0.260417 0.548971,2.914212 0.591939,3.070973 z"
     fill="#4c4c4c"
     id="path1"
     style="stroke-width:0.0533758" /></svg>
