<?xml version="1.0" encoding="UTF-8" standalone="no"?>
<svg
   width="128"
   height="100"
   version="1.1"
   viewBox="0 0 96 75"
   id="svg1"
   sodipodi:docname="storage.svg"
   inkscape:version="1.4.2 (ebf0e940d0, 2025-05-08)"
   xmlns:inkscape="http://www.inkscape.org/namespaces/inkscape"
   xmlns:sodipodi="http://sodipodi.sourceforge.net/DTD/sodipodi-0.dtd"
   xmlns="http://www.w3.org/2000/svg"
   xmlns:svg="http://www.w3.org/2000/svg">
  <defs
     id="defs1" />
  <sodipodi:namedview
     id="namedview1"
     pagecolor="#ffffff"
     bordercolor="#000000"
     borderopacity="0.25"
     inkscape:showpageshadow="2"
     inkscape:pageopacity="0.0"
     inkscape:pagecheckerboard="0"
     inkscape:deskcolor="#d1d1d1"
     inkscape:document-units="pt"
     inkscape:zoom="2.9521708"
     inkscape:cx="59.95588"
     inkscape:cy="66.899923"
     inkscape:window-width="1920"
     inkscape:window-height="1043"
     inkscape:window-x="0"
     inkscape:window-y="0"
     inkscape:window-maximized="1"
     inkscape:current-layer="svg1" />
  <path
     d="m 25.750221,31.715742 h 4.415595 v -8.26061 z m -0.349858,36.353371 6.567552,-6.567549 V 40.084122 l -6.567552,-6.567117 z m 7.31326,-5.820972 -6.56755,6.567549 H 68.963567 L 62.396018,62.248141 Z M 64.944294,23.455567 v 8.260175 h 4.414731 z m -1.054985,8.260175 V 21.882449 H 31.221031 v 9.833293 z m 2.527763,27.683406 c -0.290783,0 -0.527252,-0.236462 -0.527252,-0.527259 0,-0.290783 0.236462,-0.527905 0.532861,-0.527905 0.297575,0 0.53403,0.237143 0.53403,0.527905 0,0.290783 -0.236462,0.527259 -0.53946,0.527259 z m -6.283779,6.659239 c -0.290782,0 -0.527905,-0.236462 -0.527905,-0.527252 0,-0.290783 0.237136,-0.527905 0.53403,-0.527905 0.296895,0 0.534037,0.237136 0.534037,0.527905 0,0.290783 -0.237142,0.527252 -0.540162,0.527252 z M 28.693525,58.344025 c 0.290784,0 0.527256,0.237143 0.527256,0.527905 0,0.29079 -0.236464,0.527259 -0.532862,0.527259 -0.297575,0 -0.534034,-0.236462 -0.534034,-0.527259 0,-0.290782 0.236463,-0.527905 0.539466,-0.527905 z m 6.283785,6.659246 c 0.290783,0 0.527905,0.237143 0.527905,0.527905 0,0.290769 -0.237143,0.527259 -0.533343,0.527259 -0.296894,0 -0.53403,-0.236462 -0.53403,-0.527259 0,-0.29079 0.237136,-0.527905 0.539468,-0.527905 z M 66.417072,43.242092 c -0.290783,0 -0.527252,-0.236464 -0.527252,-0.527256 0,-0.291292 0.236462,-0.527907 0.532861,-0.527907 0.297575,0 0.53403,0.236463 0.53403,0.527907 0,0.290784 -0.236462,0.527256 -0.53946,0.527256 z m -6.283779,-6.65881 c -0.290782,0 -0.527905,-0.236463 -0.527905,-0.527907 0,-0.290784 0.237136,-0.527256 0.53403,-0.527256 0.296895,0 0.534037,0.236464 0.534037,0.527256 0,0.291292 -0.237142,0.527907 -0.540162,0.527907 z m -31.439768,5.60369 c 0.290784,0 0.527256,0.236463 0.527256,0.527908 0,0.290783 -0.236464,0.527255 -0.532862,0.527255 -0.297575,0 -0.534034,-0.236463 -0.534034,-0.527255 0,-0.291292 0.236463,-0.527908 0.539466,-0.527908 z m 6.283785,-6.658809 c 0.290783,0 0.527905,0.236463 0.527905,0.527255 0,0.291292 -0.237143,0.527907 -0.533343,0.527907 -0.296894,0 -0.53403,-0.236463 -0.53403,-0.527907 0,-0.290783 0.237136,-0.527255 0.539468,-0.527255 z m 20.728218,4.865803 v 20.799059 h 6.381559 V 40.393966 Z M 54.650543,61.193025 V 40.393966 H 48.082987 V 61.193025 Z M 40.459881,40.393966 v 20.799059 h 6.567557 V 40.393966 Z M 39.404896,61.193025 V 40.393966 H 33.023338 V 61.193025 Z M 32.714798,39.338846 H 62.39676 L 68.963877,32.77086 H 26.147681 Z m 30.427673,0.745885 v 21.417005 l 6.567549,6.567549 V 33.517179 Z"
     fill="#4c4c4c"
     id="path1"
     style="stroke-width:0.0434563" />
</svg>
