<?xml version="1.0" encoding="UTF-8" standalone="no"?>
<svg
   width="128"
   height="100"
   version="1.1"
   viewBox="0 0 96 75"
   id="svg3"
   sodipodi:docname="sunside.svg"
   inkscape:version="1.4.3 (0d15f75042, 2025-12-25)"
   xml:space="preserve"
   xmlns:inkscape="http://www.inkscape.org/namespaces/inkscape"
   xmlns:sodipodi="http://sodipodi.sourceforge.net/DTD/sodipodi-0.dtd"
   xmlns="http://www.w3.org/2000/svg"
   xmlns:svg="http://www.w3.org/2000/svg"><defs
     id="defs3" /><sodipodi:namedview
     id="namedview3"
     pagecolor="#ffffff"
     bordercolor="#000000"
     borderopacity="0.25"
     inkscape:showpageshadow="2"
     inkscape:pageopacity="0.0"
     inkscape:pagecheckerboard="0"
     inkscape:deskcolor="#d1d1d1"
     inkscape:document-units="pt"
     inkscape:zoom="1.4195169"
     inkscape:cx="19.725021"
     inkscape:cy="46.494693"
     inkscape:window-width="1848"
     inkscape:window-height="1011"
     inkscape:window-x="0"
     inkscape:window-y="0"
     inkscape:window-maximized="1"
     inkscape:current-layer="svg3" /><g
     id="g1"
     transform="matrix(0.04701358,0,0,0.04701358,20.554701,8.6757579)"><path
       d="m 583.96,364.45 c -15.301,0 -30.227,1.5 -44.711,4.3086 l 23.328,189.97 -182.15,-77.305 c -20.34,34.824 -32.016,75.336 -32.016,118.59 0,130.09 105.46,235.55 235.55,235.55 130.09,0 235.55,-105.46 235.55,-235.55 0,-130.11 -105.46,-235.56 -235.55,-235.56 z"
       fill="#4c4c4c"
       id="path1" /><path
       d="m 583.96,319.11 c 24.266,0 43.934,-19.668 43.934,-43.934 l -0.004,-171.24 c 0.0117,-24.266 -19.668,-43.934 -43.93,-43.934 -24.266,0 -43.934,19.668 -43.934,43.934 v 171.24 c 0,24.266 19.668,43.934 43.934,43.934"
       fill="#4c4c4c"
       id="path2" /><path
       d="m 583.96,1140 c 24.266,0 43.934,-19.668 43.934,-43.934 v -171.24 c 0,-24.266 -19.668,-43.934 -43.934,-43.934 -24.266,0 -43.934,19.668 -43.934,43.934 v 171.24 c 0,24.266 19.668,43.934 43.934,43.934"
       fill="#4c4c4c"
       id="path3" /><path
       d="m 746.33,362.63 c 15.18,0 29.953,-7.8711 38.09,-21.973 l 85.621,-148.31 c 12.133,-21.012 4.9336,-47.879 -16.078,-60.012 -21.012,-12.133 -47.879,-4.9336 -60.012,16.078 l -85.621,148.3 c -12.133,21.012 -4.9336,47.879 16.078,60.012 6.9102,4.0078 14.469,5.9062 21.922,5.9062"
       fill="#4c4c4c"
       id="path4" /><path
       d="m 335.88,1073.5 c 15.18,0 29.953,-7.8711 38.09,-21.973 l 85.621,-148.29 c 12.133,-21.012 4.9336,-47.879 -16.078,-60.023 -21.023,-12.133 -47.891,-4.9336 -60.023,16.078 l -85.613,148.3 c -12.133,21.012 -4.9453,47.879 16.066,60.012 6.9258,3.9961 14.488,5.8906 21.938,5.8906"
       fill="#4c4c4c"
       id="path5" /><path
       d="m 865.31,481.52 c 7.4531,0 15,-1.8945 21.926,-5.8906 l 148.3,-85.621 c 21.012,-12.133 28.211,-39 16.078,-60.012 -12.133,-21.012 -39,-28.223 -60.012,-16.078 l -148.31,85.621 c -21.012,12.133 -28.211,39 -16.078,60.012 8.1328,14.098 22.906,21.969 38.098,21.969"
       fill="#4c4c4c"
       id="path6" /><path
       d="m 154.39,891.97 c 7.4531,0 15,-1.8945 21.926,-5.8906 l 148.3,-85.621 c 21.012,-12.133 28.211,-39 16.078,-60.012 -12.133,-21.012 -39,-28.211 -60.012,-16.078 l -148.3,85.621 c -21.012,12.133 -28.211,39 -16.078,60.012 8.1367,14.098 22.906,21.969 38.086,21.969"
       fill="#4c4c4c"
       id="path7" /><path
       d="m 908.79,643.93 h 171.24 c 24.266,0 43.934,-19.668 43.934,-43.934 0,-24.266 -19.668,-43.934 -43.934,-43.934 H 908.79 c -24.266,0 -43.934,19.668 -43.934,43.934 0,24.266 19.668,43.934 43.934,43.934"
       fill="#4c4c4c"
       id="path8" /><path
       d="m 1013.5,891.97 c 15.18,0 29.953,-7.8711 38.09,-21.973 12.133,-21.012 4.9336,-47.879 -16.078,-60.023 l -148.31,-85.621 c -21.012,-12.121 -47.879,-4.9336 -60.012,16.078 -12.133,21.012 -4.9336,47.879 16.078,60.023 l 148.3,85.621 c 6.9219,3.9961 14.48,5.8945 21.934,5.8945"
       fill="#4c4c4c"
       id="path9" /><path
       d="m 832.03,1073.5 c 7.4531,0 15.012,-1.8945 21.926,-5.8906 21.012,-12.133 28.211,-39 16.078,-60.012 l -85.621,-148.3 c -12.133,-21.012 -39,-28.211 -60.023,-16.066 -21.012,12.133 -28.211,39 -16.078,60.012 l 85.621,148.29 c 8.1445,14.098 22.906,21.969 38.098,21.969"
       fill="#4c4c4c"
       id="path10" /><path
       d="m 133.99,301.07 c -32.41,32.305 -52.512,73.621 -57.949,118.29 v 49.512 c 5.4375,44.664 25.535,85.98 57.949,118.29 38.293,38.16 89.184,59.172 143.33,59.172 24.145,0 43.703,-19.57 43.703,-43.703 0,-24.145 -19.57,-43.703 -43.703,-43.703 -63.602,0 -115.36,-51.492 -115.36,-114.79 0,-63.301 51.758,-114.79 115.36,-114.79 22.199,0 43.738,6.2891 62.293,18.156 13.043,8.3516 24.18,19.152 32.867,31.754 l -54.109,40.777 205.56,87.254 -27.215,-221.65 -54.383,40.969 c -14.93,-20.832 -33.758,-38.762 -55.598,-52.727 -32.641,-20.902 -70.477,-31.945 -109.43,-31.945 -54.129,-0.008 -105.02,21.008 -143.31,59.152"
       fill="#4c4c4c"
       id="path11" /></g></svg>
