<?xml version="1.0" encoding="UTF-8" standalone="no"?>
<!-- Created with Inkscape (http://www.inkscape.org/) -->

<svg
   width="128"
   height="100"
   viewBox="0 0 33.866667 26.458333"
   version="1.1"
   id="svg5"
   xml:space="preserve"
   inkscape:version="1.2.2 (b0a8486541, 2022-12-01)"
   sodipodi:docname="terrain.svg"
   xmlns:inkscape="http://www.inkscape.org/namespaces/inkscape"
   xmlns:sodipodi="http://sodipodi.sourceforge.net/DTD/sodipodi-0.dtd"
   xmlns="http://www.w3.org/2000/svg"
   xmlns:svg="http://www.w3.org/2000/svg"><sodipodi:namedview
     id="namedview7"
     pagecolor="#ffffff"
     bordercolor="#666666"
     borderopacity="1.0"
     inkscape:showpageshadow="2"
     inkscape:pageopacity="0.0"
     inkscape:pagecheckerboard="0"
     inkscape:deskcolor="#d1d1d1"
     inkscape:document-units="mm"
     showgrid="false"
     showguides="false"
     inkscape:zoom="2.587745"
     inkscape:cx="-58.158745"
     inkscape:cy="80.378864"
     inkscape:window-width="1920"
     inkscape:window-height="1011"
     inkscape:window-x="0"
     inkscape:window-y="0"
     inkscape:window-maximized="1"
     inkscape:current-layer="layer1" /><defs
     id="defs2" /><g
     inkscape:label="Layer 1"
     inkscape:groupmode="layer"
     id="layer1"
     transform="translate(-33.044247,-131.48302)"><path
       class="cls-1"
       d="m 51.326755,55.23485 c 2.03307,-6.340303 2.65602,-12.014647 2.03176,-16.779323 -0.48611,-3.707741 -1.72811,-6.858996 -3.64779,-9.337775 -1.91186,-2.468352 -4.50142,-4.273351 -7.69307,-5.299008 -3.02745,-0.972223 -6.59705,-1.245905 -10.64624,-0.720696 -2.30805,0.66205 -4.40107,1.647306 -6.28166,2.899728 -6.030126,4.016611 -9.9112,10.79611 -11.734444,18.517856 -1.831064,7.758238 -1.58475,16.457418 0.643804,24.266488 1.152072,4.03746 2.833262,7.83382 5.030539,11.13495 2.138631,2.7264 4.557461,5.34723 7.128771,7.61618 2.34845,2.07347 4.82332,3.8498 7.32425,5.14132 8.9051,4.59656 20.99142,6.72606 31.8162,6.52797 5.94151,-0.10947 11.49596,-0.92009 15.9257,-2.40971 4.35546,-1.46485 7.60185,-3.57741 9.01066,-6.30772 0.5239,-1.01523 0.79498,-2.12038 0.77283,-3.31416 -0.1199,-6.51754 -6.54492,-7.54841 -14.20541,-8.77868 -6.74431,-1.083 -14.40872,-2.31327 -19.85239,-7.4637 -2.5713,2.63647 -5.53098,5.16998 -8.81516,7.61748 -0.14988,0.11078 -0.35709,0.13424 -0.53434,0.0417 -0.24631,-0.12903 -0.34275,-0.43398 -0.21373,-0.6803 1.39839,-2.68208 2.38495,-5.26251 2.90885,-7.72696 0.45744,-2.15296 0.5604,-4.2121 0.27498,-6.16697 -0.35187,-1.67337 -0.37663,-3.47316 -0.12902,-5.23515 0.17073,-1.21593 0.47178,-2.41492 0.8823,-3.54223 v 0 z m 12.52161,-2.052616 c 0.21373,0.50957 0.36751,1.064754 0.45874,1.648609 0.28802,1.827157 -0.0156,3.931897 -0.90706,5.855497 -0.11729,0.25413 -0.24371,0.50045 -0.37664,0.73894 l -0.0156,0.0274 c -1.68901,2.9271 -3.86282,5.73299 -6.45499,8.43332 -2.16599,2.25723 -4.62131,4.43886 -7.32685,6.55534 0.95006,-2.08129 1.64469,-4.10132 2.05912,-6.05359 0.48221,-2.26504 0.58907,-4.44277 0.28411,-6.51885 -10e-4,-0.0182 -0.004,-0.0365 -0.008,-0.0547 -0.0391,-0.26195 -0.0847,-0.5226 -0.13814,-0.78325 -0.19158,-1.33453 -0.17464,-2.73552 0.0195,-4.11696 0.2424,-1.7229 0.7624,-3.4106 1.49873,-4.887183 0.91619,-1.834974 2.21683,-3.074363 3.70123,-3.660825 1.487,-0.587765 3.1708,-0.522602 4.84548,0.254134 0.10556,0.04822 0.2033,0.09905 0.29453,0.149873 0.924,0.51739 1.603,1.344953 2.03958,2.357577 0.007,0.01824 0.0143,0.03519 0.0222,0.05213 v 0 z m 3.59566,-9.073215 -3.19687,7.665707 c -0.49784,-0.780646 -1.15468,-1.42836 -1.97181,-1.884497 -0.1212,-0.06777 -0.24241,-0.130325 -0.36231,-0.185062 -1.38535,-0.642501 -2.78373,-0.860144 -4.10653,-0.680295 l 3.69862,-7.745206 c 1.22766,0.04692 2.34194,0.294535 3.3324,0.759794 0.98787,0.463957 1.85844,1.148162 2.6052,2.069559 v 0 z M 37.971065,28.961363 c 2.23247,0 4.25511,0.905757 5.71735,2.368002 1.46355,1.463548 2.36801,3.484886 2.36801,5.717351 0,2.232464 -0.90576,4.255106 -2.36801,5.71735 -1.46355,1.463548 -3.48488,2.368003 -5.71735,2.368003 -2.23246,0 -4.2538,-0.905758 -5.71735,-2.368003 -1.46355,-1.463548 -2.368,-3.484886 -2.368,-5.71735 0,-2.232465 0.90576,-4.255106 2.368,-5.717351 1.46355,-1.463548 3.48489,-2.368002 5.71735,-2.368002 z m -10.44944,20.531375 c 2.10083,0 4.00358,0.851021 5.37981,2.228555 1.37623,1.37623 2.22855,3.278973 2.22855,5.379807 0,2.10084 -0.85232,4.00358 -2.22855,5.37981 -1.37623,1.37623 -3.27898,2.22856 -5.37981,2.22856 -2.10084,0 -4.00358,-0.85233 -5.379814,-2.22856 -1.377533,-1.37623 -2.228554,-3.27897 -2.228554,-5.37981 0,-2.100834 0.851021,-4.003577 2.228554,-5.379807 1.376234,-1.376231 3.278974,-2.228555 5.379814,-2.228555 z m 8.70309,20.128672 c 1.98745,0 3.78594,0.80541 5.08918,2.10735 1.30195,1.30195 2.10736,3.10173 2.10736,5.08919 0,1.98745 -0.80541,3.78593 -2.10736,5.08918 -1.30194,1.30325 -3.10173,2.10735 -5.08918,2.10735 -1.98745,0 -3.78594,-0.8054 -5.08919,-2.10735 -1.30194,-1.30195 -2.10735,-3.10173 -2.10735,-5.08918 0,-1.98746 0.80541,-3.78594 2.10735,-5.08919 1.30195,-1.30194 3.10174,-2.10735 5.08919,-2.10735 z m 18.23374,11.05415 c 1.38275,0 2.63387,0.5604 3.53963,1.46615 0.90575,0.90576 1.46615,2.15688 1.46615,3.53963 0,1.38274 -0.5604,2.63386 -1.46615,3.53962 -0.90576,0.90576 -2.15688,1.46615 -3.53963,1.46615 -1.38274,0 -2.63386,-0.56039 -3.53962,-1.46615 -0.90575,-0.90576 -1.46615,-2.15688 -1.46615,-3.53962 0,-1.38275 0.5604,-2.63387 1.46615,-3.53963 0.90576,-0.90575 2.15688,-1.46615 3.53962,-1.46615 z m 17.4114,2.65081 c 1.07258,0 2.0435,0.43528 2.74725,1.13773 0.70245,0.70245 1.13774,1.67468 1.13774,2.74725 0,1.07257 -0.43529,2.04349 -1.13774,2.74725 -0.70245,0.70245 -1.67467,1.13773 -2.74725,1.13773 -1.07257,0 -2.04349,-0.43528 -2.74725,-1.13773 -0.70245,-0.70245 -1.13773,-1.67468 -1.13773,-2.74725 0,-1.07257 0.43528,-2.04349 1.13773,-2.74725 0.70246,-0.70245 1.67468,-1.13773 2.74725,-1.13773 z m -20.64345,-8.92725 c -0.16551,0.22416 -0.4822,0.27107 -0.70636,0.10426 -0.22416,-0.16552 -0.27108,-0.4822 -0.10426,-0.70636 1.57823,-2.12299 3.02093,-4.30072 4.23555,-6.57359 1.20942,-2.26374 2.19468,-4.62783 2.86454,-7.13268 0.0717,-0.26977 0.34928,-0.43007 0.61905,-0.35839 0.26977,0.0717 0.43007,0.34927 0.35839,0.61904 -0.68811,2.57783 -1.70465,5.0123 -2.95186,7.34641 -1.24199,2.325 -2.71206,4.54443 -4.31505,6.7 v 0 z M 82.733735,7.4421253 67.878005,43.065117 c -0.7637,-0.839292 -1.63688,-1.481794 -2.61301,-1.939234 -0.99568,-0.467866 -2.09562,-0.738942 -3.2907,-0.828866 L 78.636325,5.4090583 c 0.92009,-0.0404 1.71247,0.117292 2.38625,0.458743 0.67378,0.341451 1.24069,0.871873 1.71116,1.575627 v 0 z m -3.6126,-3.049601 c 0.87839,0.02606 1.66164,0.220249 2.35627,0.572126 0.65423,0.331025 1.22114,0.797588 1.70856,1.391869 l 0.10426,-0.24892 c 0.005,-0.01173 0.0104,-0.02476 0.0169,-0.03649 0.51218,-1.154678 0.71679,-2.313266 0.63468,-3.251605 -0.0743,-0.841898 -0.37403,-1.477884 -0.8849,-1.7059519 -0.51218,-0.22937202 -1.18726,-0.02867 -1.86365,0.4769889 -0.74937,0.5617 -1.47267,1.483096 -1.99267,2.629955 -0.008,0.02346 -0.0182,0.04561 -0.03,0.06647 l -0.0495,0.10426 z"
       id="path55546"
       style="fill:#454545;fill-opacity:1;fill-rule:evenodd;stroke-width:1.30325"
       transform="matrix(0.20301835,0,0,0.20301835,39.423208,134.59732)" /></g></svg>
