<?xml version="1.0" encoding="UTF-8" standalone="no"?>
<svg
   width="128"
   height="100"
   version="1.1"
   viewBox="0 0 96 75"
   id="svg1"
   sodipodi:docname="toaster.svg"
   inkscape:version="1.4.3 (0d15f75042, 2025-12-25)"
   xml:space="preserve"
   xmlns:inkscape="http://www.inkscape.org/namespaces/inkscape"
   xmlns:sodipodi="http://sodipodi.sourceforge.net/DTD/sodipodi-0.dtd"
   xmlns="http://www.w3.org/2000/svg"
   xmlns:svg="http://www.w3.org/2000/svg"><defs
     id="defs1" /><sodipodi:namedview
     id="namedview1"
     pagecolor="#ffffff"
     bordercolor="#000000"
     borderopacity="0.25"
     inkscape:showpageshadow="2"
     inkscape:pageopacity="0.0"
     inkscape:pagecheckerboard="0"
     inkscape:deskcolor="#d1d1d1"
     inkscape:document-units="pt"
     inkscape:zoom="1.4195169"
     inkscape:cx="117.64566"
     inkscape:cy="143.0064"
     inkscape:window-width="1848"
     inkscape:window-height="1011"
     inkscape:window-x="0"
     inkscape:window-y="0"
     inkscape:window-maximized="1"
     inkscape:current-layer="svg1" /><path
     d="m 75.962903,51.624867 c -0.337086,2.576985 -1.577934,5.06606 -3.488123,7.005638 -1.822228,1.849064 -4.128084,3.126587 -6.692981,3.710374 -0.278464,2.242334 -2.195958,3.983949 -4.51401,3.983949 h -3.864253 c -0.378608,0 -0.68639,-0.307771 -0.68639,-0.68639 v -1.162674 h -3.246283 c -0.378608,0 -0.68639,-0.307771 -0.68639,-0.68639 0,-0.378618 0.307771,-0.68639 0.68639,-0.68639 h 3.246283 v -2.657598 h -3.246283 c -0.378608,0 -0.68639,-0.307772 -0.68639,-0.686391 0,-0.378621 0.307771,-0.686389 0.68639,-0.686389 h 3.246283 v -1.162674 c 0,-0.378611 0.307771,-0.68639 0.68639,-0.68639 h 3.864253 c 2.222795,0 4.076756,1.602374 4.470029,3.710371 4.675236,-1.179818 8.270864,-4.987895 8.861791,-9.489711 0.730368,-5.56689 -3.050872,-10.896678 -8.715882,-12.508954 l -0.666849,11.035811 -27.939183,9.342763 1.53156,-25.38424 27.93918,-9.341199 -0.781647,12.94824 c 3.043525,0.798736 5.710713,2.591626 7.567384,5.10759 1.971208,2.672243 2.83347,5.859746 2.423104,8.976432 z m -19.25769,-24.829269 9.685124,-3.238937 c -2.064016,-2.256978 -5.354279,-5.019631 -9.995178,-6.53144 -0.302887,-0.0977 -0.608223,-0.190523 -0.913535,-0.273577 l 0.437233,2.239888 c 2.083555,0.696134 4.052369,1.731817 5.852448,3.080157 0.163655,0.122135 0.244265,0.324873 0.212509,0.525162 -0.03175,0.2003 -0.173426,0.368837 -0.366393,0.432349 l -22.865252,7.645548 c -0.05618,0.01954 -0.114804,0.02931 -0.173426,0.02931 -0.09038,0 -0.178315,-0.02199 -0.258923,-0.06595 l -5.788876,-3.104596 c -0.0073,-0.0024 -0.01466,-0.0073 -0.02199,-0.01222 l -3.40996,-1.831971 c -0.168542,-0.09038 -0.278464,-0.261363 -0.28823,-0.45189 -0.0098,-0.19053 0.07817,-0.373726 0.234495,-0.481203 1.402065,-0.969711 2.862807,-1.849064 4.343039,-2.616068 l -0.403039,-2.066465 c -2.926278,1.465588 -5.727909,3.31465 -8.34903,5.508004 l 13.70331,7.352691 z m -25.053864,9.098889 -2.330296,-1.250636 -0.676592,11.206731 2.330296,1.250633 z m 24.509316,-15.654822 0.632665,3.248734 3.451441,-1.155379 c -1.289719,-0.864711 -2.657599,-1.565742 -4.084106,-2.093355 z m -25.565058,-5.86235 c 0.07572,0.385936 0.449447,0.637512 0.835371,0.561797 0.107476,-0.01955 0.212509,-0.03176 0.315104,-0.03176 0.781647,0 1.458239,0.559347 1.609724,1.32635 l 1.834419,9.414153 5.325098,-1.780695 -1.084507,-5.574185 c -0.04885,-0.256479 -0.273577,-0.442119 -0.532511,-0.442119 -0.0342,0 -0.07084,0.0049 -0.107477,0.01222 -0.974609,0.190524 -1.927227,-0.45189 -2.115343,-1.428956 l -0.495858,-2.550147 c -0.09282,-0.473875 0.0049,-0.955069 0.276022,-1.35569 0.268688,-0.400593 0.679043,-0.671746 1.152929,-0.764554 L 48.595405,9.6239997 48.331598,8.2732104 C 48.255878,7.8872747 47.882151,7.6356991 47.496226,7.7114138 L 30.668935,10.989434 c -0.383497,0.07572 -0.637511,0.449444 -0.561796,0.835371 l 0.495858,2.550147 z m 2.222795,12.066542 1.32145,-0.44212 -0.532509,-2.740663 c -1.082112,0.574041 -2.151977,1.206655 -3.192558,1.893045 z m -1.602377,22.032536 -3.38552,-1.814879 c 0,0 -0.0024,0 -0.0024,-0.0024 l -1.704979,-0.915987 -0.26625,4.389415 7.520483,4.035279 0.26625,-4.389418 -2.415757,-1.294613 c -0.0049,-0.0024 -0.0098,-0.0049 -0.01222,-0.0073 z m 3.715272,-21.58335 -0.784096,0.26136 4.482275,2.406015 2.857909,-0.955071 c -0.05618,-0.11969 -0.100148,-0.249146 -0.127018,-0.383494 l -0.637511,-3.268273 -5.79148,1.937022 z m 2.78949,6.954051 -1.53156,25.359745 -13.556881,-7.274525 1.531559,-25.359748 13.556882,7.271921 z m -2.960462,15.647524 c 0.01222,-0.212509 -0.100148,-0.415253 -0.28823,-0.515396 L 32.036796,47.672413 32.764718,35.61056 c 0,-0.01222 -0.0024,-0.02443 -0.0024,-0.03908 0,-0.01955 0,-0.04152 -0.0024,-0.06107 -0.0024,-0.01711 -0.0073,-0.0342 -0.0098,-0.05129 -0.0049,-0.01711 -0.0073,-0.0342 -0.01222,-0.0513 -0.0049,-0.0171 -0.01222,-0.03419 -0.01955,-0.05129 -0.0073,-0.01466 -0.01466,-0.03175 -0.02199,-0.04641 -0.0073,-0.01466 -0.01955,-0.02932 -0.02931,-0.04396 -0.0098,-0.01466 -0.01955,-0.02931 -0.03176,-0.04397 l -0.03664,-0.03664 c -0.01222,-0.01222 -0.02443,-0.02443 -0.03908,-0.03664 -0.01711,-0.01222 -0.0342,-0.02443 -0.0513,-0.0342 -0.0098,-0.0073 -0.01954,-0.01466 -0.03175,-0.02199 l -3.392872,-1.82224 c -0.0024,-0.0024 -0.0049,-0.0024 -0.0073,-0.0024 -0.01954,-0.0098 -0.03908,-0.01711 -0.05862,-0.02443 -0.01466,-0.0049 -0.02931,-0.01222 -0.04396,-0.01711 -0.01466,-0.0049 -0.03175,-0.0049 -0.04641,-0.0098 -0.02199,-0.0049 -0.04152,-0.0098 -0.06107,-0.0098 -0.0024,0 -0.0049,0 -0.0073,-0.0024 -0.01466,0 -0.02687,0.0024 -0.03908,0.0024 -0.01954,0 -0.03908,0 -0.05862,0.0024 -0.02199,0.0024 -0.04152,0.0073 -0.06107,0.01222 -0.01466,0.0024 -0.02687,0.0049 -0.03908,0.0098 -0.02199,0.0073 -0.04152,0.01711 -0.06107,0.02443 -0.01222,0.0049 -0.02443,0.0098 -0.0342,0.01711 -0.01955,0.0098 -0.03664,0.02199 -0.05373,0.0342 -0.01222,0.0073 -0.02199,0.01466 -0.0342,0.02443 -0.01711,0.01466 -0.03176,0.02932 -0.04641,0.04396 -0.0098,0.0098 -0.01955,0.01955 -0.02932,0.03175 -0.01466,0.01955 -0.02687,0.03908 -0.03908,0.05862 -0.0049,0.0098 -0.01222,0.01711 -0.01711,0.02443 0,0.0024 -0.0024,0.0049 -0.0024,0.0073 -0.0098,0.01954 -0.01711,0.04152 -0.02687,0.06351 -0.0049,0.01466 -0.01222,0.02687 -0.01466,0.03908 -0.0049,0.01466 -0.0073,0.03176 -0.0098,0.04885 -0.0049,0.01955 -0.0073,0.03908 -0.0098,0.06107 0,0.0024 0,0.0049 -0.0024,0.0073 l -0.69866,11.558551 -1.690338,-0.906243 c -0.163655,-0.08793 -0.361512,-0.08549 -0.525162,0.0049 -0.16365,0.09037 -0.268688,0.258923 -0.280902,0.444557 l -0.33709,5.574185 c -0.0049,0.06106 -0.0024,0.124571 0.01466,0.18564 0.03664,0.149003 0.136789,0.276021 0.273575,0.349298 l 8.583525,4.606816 c 0.06839,0.03664 0.144113,0.05862 0.219839,0.06351 0.01222,0 0.02687,0.0024 0.03908,0.0024 0.1319,0 0.261361,-0.04885 0.361513,-0.136789 0.109919,-0.09526 0.175869,-0.232048 0.18564,-0.378608 l 0.337089,-5.593462 z m 2.594076,-36.351784 c -0.107476,0.15633 -0.144114,0.346854 -0.107476,0.53496 l 0.495858,2.550149 c 0.07572,0.383495 0.449446,0.637511 0.83537,0.561793 0.107477,-0.01955 0.21251,-0.03176 0.315102,-0.03176 0.781647,0 1.458242,0.559345 1.609723,1.326351 l 1.934577,9.926913 c 0.01711,0.08793 0.05862,0.168545 0.112358,0.236938 L 55.747236,23.836777 54.110677,15.43616 c -0.08305,-0.429905 0.0049,-0.86716 0.249149,-1.231094 0.244262,-0.363934 0.617969,-0.608226 1.047875,-0.693685 0.334643,-0.06595 0.576438,-0.356631 0.576438,-0.696136 0,-0.04397 -0.0049,-0.09038 -0.01466,-0.139233 L 55.473624,10.125866 C 55.436989,9.9377796 55.32951,9.776568 55.17318,9.6715294 55.016852,9.5664909 54.826328,9.5274162 54.640672,9.564053 l -16.827291,3.27802 c -0.188087,0.03664 -0.349298,0.144114 -0.454337,0.300444 z"
     fill="#4c4c4c"
     id="path1"
     style="stroke-width:0.0521098" /></svg>
