<?xml version="1.0" encoding="UTF-8" standalone="no"?>
<svg
   width="128"
   height="100"
   version="1.1"
   viewBox="0 0 96 75"
   id="svg9"
   sodipodi:docname="noun-lights-5006593-4C4C4C.svg"
   inkscape:version="1.4.2 (ebf0e940d0, 2025-05-08)"
   xmlns:inkscape="http://www.inkscape.org/namespaces/inkscape"
   xmlns:sodipodi="http://sodipodi.sourceforge.net/DTD/sodipodi-0.dtd"
   xmlns="http://www.w3.org/2000/svg"
   xmlns:svg="http://www.w3.org/2000/svg">
  <defs
     id="defs9" />
  <sodipodi:namedview
     id="namedview9"
     pagecolor="#ffffff"
     bordercolor="#000000"
     borderopacity="0.25"
     inkscape:showpageshadow="2"
     inkscape:pageopacity="0.0"
     inkscape:pagecheckerboard="0"
     inkscape:deskcolor="#d1d1d1"
     inkscape:document-units="pt"
     inkscape:zoom="2.0875"
     inkscape:cx="78.562874"
     inkscape:cy="55.329341"
     inkscape:window-width="1920"
     inkscape:window-height="1043"
     inkscape:window-x="0"
     inkscape:window-y="0"
     inkscape:window-maximized="1"
     inkscape:current-layer="svg9" />
  <path
     d="m 47.3396,19.439746 c -16.12274,1.08831 -21.6071,22.299509 -7.66045,30.771839 1.2409,0.70943 1.48388,2.11922 1.38456,3.43956 0.007,1.28055 1.94353,1.30508 1.97757,0.0231 h 10.41743 v 4.0852 c -0.0107,0.70098 -0.83391,0.56409 -1.30571,0.56905 h -8.53839 c -0.31363,0 -0.56905,-0.2554 -0.56905,-0.56905 0,-0.54775 -0.4437,-0.99105 -0.99106,-0.99105 -0.54735,0 -0.99105,0.44329 -0.99105,0.99105 0,1.32056 1.01272,2.39772 2.30046,2.52595 0.0213,2.16816 1.7876,3.92563 3.96031,3.92563 h 1.85536 c 2.17265,0 3.939,-1.75768 3.9603,-3.92563 1.28774,-0.12801 2.30046,-1.20539 2.30046,-2.52595 v -5.07626 c 0,-1.00839 0.52692,-1.95404 1.3749,-2.46505 5.02837,-3.03511 8.03045,-8.34653 8.03045,-14.20987 0.2044,-9.264109 -8.25773,-17.277642 -17.50651,-16.569368 z m 1.84024,42.789759 h -1.85536 c -1.07139,0 -1.94722,-0.85458 -1.98105,-1.91831 h 5.81788 c -0.0339,1.06373 -0.9097,1.91831 -1.98105,1.91831 z m 6.61179,-13.70826 c -1.15375,0.69601 -1.94786,1.86196 -2.22081,3.17158 H 42.9335 c -0.27419,-1.30904 -1.07118,-2.47658 -2.22905,-3.17634 -4.43807,-2.68288 -7.07851,-7.37503 -7.06318,-12.55071 0.0223,-7.612884 6.21484,-14.139042 13.80499,-14.545506 15.15652,-0.732535 21.29578,19.179936 8.34547,27.100976 z"
     fill="#4c4c4c"
     id="path1"
     style="stroke-width:0.0528562" />
  <path
     d="m 52.88369,35.596835 c -0.64025,-0.33386 -1.41248,-0.24962 -1.96562,0.21287 l -2.66533,2.22223 -2.66533,-2.22223 c -0.55499,-0.4627 -1.32637,-0.54674 -1.96561,-0.21287 -0.64067,0.33304 -1.01521,1.01336 -0.95469,1.73247 l 0.85563,10.17112 c 0.0461,0.5449 0.50957,0.95533 1.07098,0.90395 0.54526,-0.0454 0.95035,-0.52464 0.90431,-1.07034 l -0.81599,-9.69859 2.42932,2.02567 c 0.66113,0.54981 1.62121,0.55065 2.28419,-0.001 l 2.42826,-2.02466 -0.81599,9.69859 c -0.10571,1.28588 1.8599,1.46221 1.97529,0.16641 l 0.85564,-10.17112 c 0.0605,-0.71911 -0.31404,-1.39948 -0.95469,-1.73247 z"
     fill="#4c4c4c"
     id="path2"
     style="stroke-width:0.0528562" />
  <path
     d="m 48.25242,17.117243 c 0.54733,0 0.99106,-0.443289 0.99106,-0.991054 V 9.7036287 c 0,-0.547749 -0.4437,-0.991054 -0.99106,-0.991054 -0.54735,0 -0.99105,0.443289 -0.99105,0.991054 v 6.4225603 c 0,0.547749 0.4437,0.991054 0.99105,0.991054 z"
     fill="#4c4c4c"
     id="path3"
     style="stroke-width:0.0528562" />
  <path
     d="m 35.64463,20.544441 c 0.76869,1.044756 2.36056,-0.114386 1.60366,-1.165321 l -3.77447,-5.195186 c -0.32126,-0.442258 -0.94068,-0.54093 -1.38435,-0.21865 -0.44288,0.321265 -0.54093,0.940682 -0.21927,1.383987 l 3.77446,5.195397 z"
     fill="#4c4c4c"
     id="path4"
     style="stroke-width:0.0528562" />
  <path
     d="m 22.73608,28.962324 6.10807,1.983958 c 0.50709,0.167861 1.08107,-0.111083 1.24894,-0.636759 0.16889,-0.520718 -0.11624,-1.079218 -0.63634,-1.248517 l -6.10806,-1.983958 c -1.23409,-0.393737 -1.844,1.478758 -0.61261,1.885276 z"
     fill="#4c4c4c"
     id="path5"
     style="stroke-width:0.0528562" />
  <path
     d="m 28.84415,41.474445 -6.10807,1.98502 c -1.0631,0.33242 -0.79242,1.95113 0.3064,1.9338 0.10118,0 0.20462,-0.0155 0.3062,-0.0483 l 6.10807,-1.98501 c 1.22806,-0.40551 0.62454,-2.27921 -0.61261,-1.88528 z"
     fill="#4c4c4c"
     id="path6"
     style="stroke-width:0.0528562" />
  <path
     d="m 73.77141,43.459725 -6.10806,-1.98501 c -0.52072,-0.16848 -1.07965,0.11706 -1.24894,0.63676 -0.1689,0.51968 0.11562,1.07922 0.63633,1.24851 l 6.10807,1.98502 c 1.22394,0.39622 1.84975,-1.47606 0.6126,-1.88528 z"
     fill="#4c4c4c"
     id="path7"
     style="stroke-width:0.0528562" />
  <path
     d="m 67.35414,30.994646 c 0.10117,0 0.20461,-0.01549 0.3064,-0.04831 l 6.10806,-1.983959 c 1.22748,-0.405095 0.62561,-2.280059 -0.6126,-1.885276 l -6.10807,1.983959 c -1.06251,0.332 -0.79305,1.951346 0.30641,1.933798 z"
     fill="#4c4c4c"
     id="path8"
     style="stroke-width:0.0528562" />
  <path
     d="m 60.05733,20.952491 c 0.30682,0 0.6087,-0.141226 0.80278,-0.408399 l 3.77447,-5.195397 c 0.75611,-1.050306 -0.8364,-2.211716 -1.60366,-1.165321 l -3.77446,5.195186 c -0.48521,0.625183 0.0211,1.597262 0.80087,1.573688 z"
     fill="#4c4c4c"
     id="path9"
     style="stroke-width:0.0528562" />
</svg>
