<?xml version="1.0" encoding="UTF-8" standalone="no"?>
<svg
   version="1.1"
   viewBox="0 0 100 100"
   width="100"
   height="100"
   id="svg1"
   sodipodi:docname="trash.svg"
   xml:space="preserve"
   inkscape:version="1.4.3 (0d15f75042, 2025-12-25)"
   xmlns:inkscape="http://www.inkscape.org/namespaces/inkscape"
   xmlns:sodipodi="http://sodipodi.sourceforge.net/DTD/sodipodi-0.dtd"
   xmlns="http://www.w3.org/2000/svg"
   xmlns:svg="http://www.w3.org/2000/svg"><defs
     id="defs1" /><sodipodi:namedview
     id="namedview1"
     pagecolor="#ffffff"
     bordercolor="#000000"
     borderopacity="0.25"
     inkscape:showpageshadow="2"
     inkscape:pageopacity="0.0"
     inkscape:pagecheckerboard="true"
     inkscape:deskcolor="#d1d1d1"
     inkscape:zoom="4.16"
     inkscape:cx="19.230769"
     inkscape:cy="73.076923"
     inkscape:window-width="1848"
     inkscape:window-height="1011"
     inkscape:window-x="0"
     inkscape:window-y="0"
     inkscape:window-maximized="1"
     inkscape:current-layer="svg1" /><path
     d="M 67.335334,90.478343 H 32.612021 c -2.839027,0 -5.539004,-3.182987 -6.029234,-7.111364 L 20.248203,30.079763 h 59.45068 l -6.334585,53.287216 c -0.489976,3.92756 -3.190206,7.111364 -6.029233,7.111364 z m -19.154992,-9.77055 c 0,0.981002 0.802799,1.776379 1.793132,1.776379 0.990334,0 1.793128,-0.795377 1.793128,-1.776379 V 39.84963 c 0,-0.981275 -0.802794,-1.776647 -1.793128,-1.776647 -0.990333,0 -1.793132,0.795372 -1.793132,1.776647 z M 60.79394,80.338844 c -0.120763,0.973853 0.578297,1.860137 1.561193,1.979854 0.98291,0.119432 1.877709,-0.572976 1.998511,-1.546825 l 5.026372,-40.553772 c 0.120493,-0.973853 -0.578557,-1.860137 -1.561462,-1.97958 -0.982915,-0.119696 -1.877708,0.572712 -1.99851,1.546551 z m -25.201317,0.433054 c 0.120764,0.973854 1.015601,1.666267 1.998511,1.546825 0.982911,-0.119702 1.681926,-1.005996 1.561188,-1.979849 L 34.126155,39.785102 c -0.120762,-0.973854 -1.015595,-1.666268 -1.998506,-1.54655 -0.982914,0.119437 -1.681929,1.00579 -1.561466,1.979579 z M 32.264932,19.420642 H 17.690141 c -1.982778,0 -3.581762,1.590404 -3.581762,3.552752 0,1.958333 1.603752,3.553027 3.581762,3.553027 h 64.565438 c 1.982778,0 3.581762,-1.590674 3.581762,-3.553027 0,-1.958332 -1.603752,-3.552752 -3.581762,-3.552752 H 67.680788 v -3.560994 c 0,-3.924357 -3.216216,-7.0977443 -7.178096,-7.0977443 H 39.44235 c -3.968013,0 -7.178101,3.1731833 -7.178101,7.0977443 z m 7.173333,0 h 21.070554 c 0,-1.233169 -4.99e-4,-3.553028 -0.0051,-3.553028 0,0 -21.065105,-0.005 -21.065105,-0.008 z"
     fill="#ffffff"
     fill-rule="evenodd"
     id="path1"
     style="stroke-width:0.0680966" /></svg>
