<?xml version="1.0" encoding="UTF-8" standalone="no"?>
<svg
   version="1.1"
   viewBox="0 0 100 100"
   width="100"
   height="100"
   xmlns="http://www.w3.org/2000/svg">
  <path
     d="M 38 14 L 62 14 A 3 3 0 0 1 65 17 L 65 22 L 82 22 A 3 3 0 0 1 85 25 L 85 30 A 3 3 0 0 1 82 33 L 18 33 A 3 3 0 0 1 15 30 L 15 25 A 3 3 0 0 1 18 22 L 35 22 L 35 17 A 3 3 0 0 1 38 14 Z M 24 38 L 76 38 L 71 86 A 4 4 0 0 1 67 90 L 33 90 A 4 4 0 0 1 29 86 Z M 41 46 A 2.5 2.5 0 0 1 43.5 48.5 L 45 79.5 A 2.5 2.5 0 0 1 42.5 82 L 41.5 82 A 2.5 2.5 0 0 1 39 79.5 L 37.5 48.5 A 2.5 2.5 0 0 1 40 46 Z M 50 46 A 2.5 2.5 0 0 1 52.5 48.5 L 52.5 79.5 A 2.5 2.5 0 0 1 50 82 L 50 82 A 2.5 2.5 0 0 1 47.5 79.5 L 47.5 48.5 A 2.5 2.5 0 0 1 50 46 Z M 60 46 A 2.5 2.5 0 0 1 62.5 48.5 L 61 79.5 A 2.5 2.5 0 0 1 58.5 82 L 57.5 82 A 2.5 2.5 0 0 1 55 79.5 L 56.5 48.5 A 2.5 2.5 0 0 1 59 46 Z"
     style="fill:#ffffff;fill-rule:evenodd" />
</svg>
