<?xml version="1.0" encoding="UTF-8" standalone="no"?>
<svg
   width="128"
   height="100"
   version="1.1"
   viewBox="0 0 96 75"
   id="svg1"
   sodipodi:docname="trinket.svg"
   inkscape:version="1.4.2 (ebf0e940d0, 2025-05-08)"
   xmlns:inkscape="http://www.inkscape.org/namespaces/inkscape"
   xmlns:sodipodi="http://sodipodi.sourceforge.net/DTD/sodipodi-0.dtd"
   xmlns="http://www.w3.org/2000/svg"
   xmlns:svg="http://www.w3.org/2000/svg">
  <defs
     id="defs1" />
  <sodipodi:namedview
     id="namedview1"
     pagecolor="#ffffff"
     bordercolor="#000000"
     borderopacity="0.25"
     inkscape:showpageshadow="2"
     inkscape:pageopacity="0.0"
     inkscape:pagecheckerboard="0"
     inkscape:deskcolor="#d1d1d1"
     inkscape:document-units="pt"
     inkscape:zoom="2.0875"
     inkscape:cx="277.84431"
     inkscape:cy="142.99401"
     inkscape:window-width="1920"
     inkscape:window-height="1043"
     inkscape:window-x="0"
     inkscape:window-y="0"
     inkscape:window-maximized="1"
     inkscape:current-layer="svg1" />
  <path
     d="m 38.535771,44.879629 c -1.420911,2.068953 -2.227379,4.550761 -2.227379,7.219775 v 5.134235 c -1.406523,-1.1377 -2.133775,-2.90665 -2.054559,-5.340587 0.110403,-3.065027 1.46894,-6.147054 3.540299,-8.043139 0.237617,0.362426 0.472841,0.696071 0.741639,1.027255 z m 21.423794,0.01679 c 1.420917,2.068953 2.227379,4.533967 2.227379,7.205443 v 5.134235 c 1.40653,-1.137707 2.133781,-2.906657 2.054566,-5.340587 -0.110403,-3.065028 -1.46894,-6.147055 -3.540299,-8.04314 -0.220818,0.362426 -0.458436,0.710452 -0.741646,1.041691 z m 0.648042,7.205443 c 0,-2.196198 -0.616855,-4.250764 -1.723326,-5.98832 -2.275408,2.212991 -5.513146,3.696318 -9.639682,3.696318 -4.123519,0 -7.346766,-1.485739 -9.622277,-3.713112 -1.106465,1.737763 -1.737763,3.806716 -1.737763,6.002653 v 1.89614 h 7.047217 c 0.472841,-0.789668 1.344113,-1.31052 2.323388,-1.31052 h 3.981941 c 0.996069,0 1.864953,0.520852 2.33777,1.31052 h 7.029811 v -1.89614 z m -22.720284,5.9238 h 6.636562 v -2.448175 h -6.636562 z m 22.720284,0 v -2.448175 h -6.636562 v 2.448172 z m 0.252023,1.579337 h -7.284295 c -0.472841,0.789674 -1.344107,1.327313 -2.337775,1.327313 h -3.981941 c -0.996069,0 -1.864953,-0.537639 -2.323382,-1.327313 h -7.299149 l -0.362426,1.137707 c -0.631243,2.006585 0.537645,4.123518 2.575411,4.661158 2.116982,0.552032 5.198755,1.07529 9.401586,1.07529 4.202832,0 7.299143,-0.520852 9.415925,-1.07529 2.023379,-0.53764 3.206654,-2.654622 2.558618,-4.661158 z M 35.691277,36.743406 v -7.029812 l -0.362426,-0.06241 c -1.248098,-0.206414 -2.385805,0.74164 -2.385805,2.006586 0,1.485738 0.537645,2.858623 1.43771,3.93391 0.379226,0.441636 0.82085,0.837649 1.310515,1.1545 z m 28.423394,-1.152094 c 0.900065,-1.075286 1.43771,-2.44817 1.43771,-3.933908 0,-1.264895 -1.120907,-2.21299 -2.369011,-2.006586 l -0.362426,0.06241 v 7.029812 c 0.489641,-0.316828 0.931301,-0.710459 1.296078,-1.154501 z M 49.248077,11.179246 c -2.954631,0 -10.159922,9.605889 -11.835316,18.059174 H 61.097727 C 59.407993,20.784623 52.216889,11.179246 49.248077,11.179246 Z m -7.995008,23.051573 v -3.41306 h 16.004349 v 3.41306 c 0,1.737767 -0.585668,2.796204 -1.958556,3.413059 -1.500127,-1.768944 -3.617109,-2.71699 -6.050785,-2.71699 -2.416991,0 -4.519586,0.948095 -6.036452,2.71699 -1.38973,-0.616855 -1.958556,-1.675346 -1.958556,-3.413059 z M 52.802661,33.44115 c 0,0.441635 0.362432,0.789669 0.789674,0.789669 0.441636,0 0.789668,-0.348029 0.789668,-0.789669 0,-0.441641 -0.348032,-0.78967 -0.789668,-0.78967 -0.427236,0 -0.789674,0.348029 -0.789674,0.78967 z m -8.688819,0 c 0,0.441635 0.348026,0.789669 0.789668,0.789669 0.441642,0 0.789669,-0.348029 0.789669,-0.789669 0,-0.441641 -0.348027,-0.78967 -0.789669,-0.78967 -0.441642,0 -0.789668,0.348029 -0.789668,0.78967 z m -6.84292,3.240246 v -5.861333 h 2.402598 v 3.413061 c 0,2.858624 1.344107,4.550764 4.109132,5.278119 0.048,0 1.548107,-3.00266 5.467571,-3.00266 3.919469,0 5.419445,3.00266 5.467577,3.00266 2.781817,-0.727252 4.123518,-2.416986 4.123518,-5.278119 v -3.413061 h 2.402598 v 5.861333 c 0,5.419439 -4.092337,11.549597 -11.991487,11.549597 -7.884412,0 -11.97664,-6.130158 -11.97664,-11.549597 z m 10.397509,3.917112 c 0.44163,0.441636 1.010456,0.664836 1.579337,0.664836 0.568875,0 1.1545,-0.220818 1.579337,-0.664836 0.316827,-0.300021 0.316827,-0.806461 0,-1.106465 -0.300022,-0.316827 -0.806462,-0.316827 -1.106466,0 -0.268822,0.252017 -0.679277,0.252017 -0.9313,0 -0.316828,-0.316827 -0.806468,-0.316827 -1.120908,0 -0.300027,0.300022 -0.300027,0.806462 0,1.106465 z m -0.410436,13.666374 c -0.631243,0 -1.154495,0.50644 -1.154495,1.1545 V 58.2012 c 0,0.631242 0.520846,1.1545 1.154495,1.1545 h 3.98194 c 0.648037,0 1.154501,-0.520852 1.154501,-1.1545 v -2.781818 c 0,-0.648036 -0.50644,-1.1545 -1.154501,-1.1545 z"
     fill="#4c4c4c"
     id="path1"
     style="stroke-width:0.0512041" />
</svg>
