<?xml version="1.0" encoding="UTF-8" standalone="no"?>
<svg
   width="128"
   height="100"
   version="1.1"
   viewBox="0 0 96 75"
   id="svg3"
   sodipodi:docname="vehicle.svg"
   inkscape:version="1.4.2 (ebf0e940d0, 2025-05-08)"
   xmlns:inkscape="http://www.inkscape.org/namespaces/inkscape"
   xmlns:sodipodi="http://sodipodi.sourceforge.net/DTD/sodipodi-0.dtd"
   xmlns="http://www.w3.org/2000/svg"
   xmlns:svg="http://www.w3.org/2000/svg">
  <defs
     id="defs3" />
  <sodipodi:namedview
     id="namedview3"
     pagecolor="#ffffff"
     bordercolor="#000000"
     borderopacity="0.25"
     inkscape:showpageshadow="2"
     inkscape:pageopacity="0.0"
     inkscape:pagecheckerboard="0"
     inkscape:deskcolor="#d1d1d1"
     inkscape:document-units="pt"
     inkscape:zoom="2.9521708"
     inkscape:cx="145.65553"
     inkscape:cy="118.38746"
     inkscape:window-width="1920"
     inkscape:window-height="1043"
     inkscape:window-x="0"
     inkscape:window-y="0"
     inkscape:window-maximized="1"
     inkscape:current-layer="svg3" />
  <path
     d="m 23.250597,41.384046 c 1.491249,0 3.378847,-0.07492 5.425768,-0.186104 0.488222,3.018744 1.68218,5.810413 3.403029,8.190986 -1.527495,1.367967 -2.919643,2.661014 -3.978244,3.712396 -1.899714,1.899714 -1.725695,4.065282 -0.570368,5.223132 0.538968,0.543817 1.305114,0.865251 2.153499,0.865251 0.971616,0 2.059245,-0.420543 3.06948,-1.435667 1.0586,-1.058606 2.344429,-2.443532 3.712395,-3.978247 2.3831,1.72085 5.167447,2.914794 8.190987,3.403026 -0.111176,2.04713 -0.186104,3.934728 -0.186104,5.425769 0,1.213285 0.333537,2.245333 0.971616,2.994566 0.599397,0.698495 1.440512,1.102114 2.320247,1.102114 1.633866,0 3.291863,-1.404212 3.291863,-4.09668 0,-1.491244 -0.07492,-3.378841 -0.186105,-5.425769 3.018745,-0.488215 5.810414,-1.682176 8.190988,-3.403026 1.367965,1.527497 2.661013,2.919641 3.712394,3.978247 1.015134,1.015132 2.097916,1.435667 3.069479,1.435667 0.853181,0 1.614484,-0.328707 2.153496,-0.865251 1.157707,-1.157698 1.336566,-3.323263 -0.570366,-5.223132 -1.058598,-1.0586 -2.443528,-2.344429 -3.978242,-3.712396 1.72085,-2.383099 2.914798,-5.167447 3.403029,-8.190986 2.047131,0.111176 3.934728,0.186104 5.42577,0.186104 2.685194,0 4.09668,-1.657996 4.09668,-3.291863 0,-1.633866 -1.404213,-3.291863 -4.09668,-3.291863 -1.491252,0 -3.37885,0.07492 -5.42577,0.186104 -0.488223,-3.018744 -1.682179,-5.810413 -3.403029,-8.190987 1.527496,-1.367965 2.919644,-2.661013 3.973396,-3.712395 0.860454,-0.86045 1.348635,-1.824796 1.428393,-2.803631 0.07493,-0.916033 -0.241692,-1.800615 -0.860446,-2.419348 -1.157699,-1.157699 -3.323265,-1.336565 -5.223134,0.570369 -1.0586,1.058599 -2.34443,2.443529 -3.712396,3.973397 -2.383099,-1.72085 -5.172087,-2.914798 -8.190986,-3.403029 0.111175,-2.047128 0.186104,-3.934726 0.186104,-5.425768 0,-2.692467 -1.657997,-4.0966798 -3.291863,-4.0966798 -1.633866,0 -3.291863,1.4042128 -3.291863,4.0966798 0,1.491248 0.07492,3.378847 0.186104,5.425768 -3.018744,0.488221 -5.810414,1.682179 -8.190986,3.403029 -1.367967,-1.527496 -2.661014,-2.919644 -3.712396,-3.973397 -1.899715,-1.899715 -4.065278,-1.725697 -5.223133,-0.570369 -0.618733,0.618733 -0.935369,1.503315 -0.860451,2.419348 0.07976,0.976463 0.570368,1.948027 1.428396,2.803631 1.0586,1.0586 2.443529,2.34443 3.978243,3.712395 -1.720849,2.3831 -2.914797,5.172089 -3.403028,8.190987 -2.047128,-0.111176 -3.934727,-0.186104 -5.425768,-0.186104 -1.213284,0 -2.245329,0.333538 -2.994563,0.971616 -0.698497,0.599397 -1.102117,1.440512 -1.102117,2.320247 0,1.633867 1.404213,3.291863 4.09668,3.291863 z M 47.77045,20.291456 c 9.812582,0 17.800934,7.987836 17.800934,17.800933 0,9.813098 -7.987836,17.800931 -17.800934,17.800931 -9.813097,0 -17.800934,-7.987833 -17.800934,-17.800931 0,-9.813097 7.987837,-17.800933 17.800934,-17.800933 z"
     fill="#4c4c4c"
     id="path1"
     style="stroke-width:0.051561" />
  <path
     d="m 31.99999,38.092389 c 0,8.698863 7.072112,15.77046 15.77046,15.77046 8.698348,0 15.770461,-7.078815 15.770461,-15.77046 0,-8.693707 -7.072113,-15.77046 -15.770461,-15.77046 -8.698348,0 -15.77046,7.078815 -15.77046,15.77046 z M 47.77045,32.67848 c 2.987344,0 5.41391,2.431413 5.41391,5.413909 0,2.982497 -2.426566,5.41391 -5.41391,5.41391 -2.987343,0 -5.413909,-2.431413 -5.413909,-5.41391 0,-2.982496 2.426566,-5.413909 5.413909,-5.413909 z m -6.608063,7.579473 c 0.111176,0.333538 0.246524,0.66225 0.408462,0.971617 -1.583079,1.324499 -3.581895,3.006627 -5.61706,4.763775 -1.027199,-1.527496 -1.764368,-3.267681 -2.129316,-5.135944 2.677977,-0.19819 5.283459,-0.420541 7.337651,-0.599397 z m 3.470677,4.041097 c 0.309366,0.161932 0.638068,0.29728 0.971616,0.408461 -0.186104,2.054398 -0.401206,4.659829 -0.599397,7.337652 -1.868263,-0.372209 -3.606076,-1.106964 -5.135944,-2.129317 1.757098,-2.035062 3.439277,-4.033826 4.763777,-5.617059 z m 5.302538,0.401206 c 0.333537,-0.111175 0.66225,-0.246523 0.971616,-0.408462 1.3245,1.583079 3.006628,3.581895 4.763776,5.617061 -1.527496,1.027199 -3.267681,1.764367 -5.135944,2.129316 -0.19819,-2.677977 -0.420542,-5.28346 -0.599397,-7.337652 z m 4.041096,-3.470676 c 0.161933,-0.309367 0.29728,-0.638068 0.408462,-0.971617 2.054398,0.186105 4.659828,0.401207 7.337651,0.599398 -0.372209,1.868262 -1.106963,3.606075 -2.129316,5.135943 -2.035063,-1.757097 -4.033826,-3.439276 -5.61706,-4.763776 z m 0.401206,-5.302538 c -0.111175,-0.333538 -0.246522,-0.66225 -0.408461,-0.971616 1.583079,-1.324501 3.581895,-3.006627 5.61706,-4.763776 1.0272,1.527496 1.764367,3.267681 2.129317,5.135943 -2.677977,0.19819 -5.28346,0.420542 -7.337653,0.599397 z m -3.470676,-4.041097 c -0.309366,-0.161933 -0.638067,-0.29728 -0.971616,-0.408461 0.186104,-2.054398 0.401207,-4.659829 0.599397,-7.337652 1.868263,0.372209 3.606076,1.106964 5.135943,2.129317 -1.757096,2.035062 -3.439275,4.033826 -4.763776,5.617059 z M 45.60469,31.484739 c -0.333537,0.111175 -0.66225,0.246524 -0.971615,0.408461 -1.324501,-1.583078 -3.006628,-3.581894 -4.763776,-5.61706 1.527495,-1.027199 3.26768,-1.764367 5.135943,-2.129316 0.19819,2.677978 0.420542,5.28346 0.599397,7.337652 z m -4.041096,3.470676 c -0.161933,0.309366 -0.29728,0.638069 -0.408461,0.971616 -2.054398,-0.186104 -4.65983,-0.401206 -7.337652,-0.599397 0.372209,-1.868262 1.106964,-3.606075 2.129316,-5.135943 2.035063,1.757097 4.033826,3.439276 5.61706,4.763776 z"
     fill="#4c4c4c"
     id="path2"
     style="stroke-width:0.051561" />
  <path
     d="m 44.478794,38.092389 c 0,1.81268 1.479183,3.291863 3.291863,3.291863 1.812679,0 3.291862,-1.479183 3.291862,-3.291863 0,-1.81268 -1.479183,-3.291863 -3.291862,-3.291863 -1.81268,0 -3.291863,1.479183 -3.291863,3.291863 z m 1.546831,0 c 0,-0.964346 0.78548,-1.745032 1.745032,-1.745032 0.959551,0 1.745031,0.785482 1.745031,1.745032 0,0.959551 -0.78548,1.745032 -1.745031,1.745032 -0.959552,0 -1.745032,-0.785481 -1.745032,-1.745032 z"
     fill="#4c4c4c"
     id="path3"
     style="stroke-width:0.051561" />
</svg>
