<?xml version="1.0" encoding="UTF-8" standalone="no"?>
<svg
   width="128"
   height="100"
   version="1.1"
   viewBox="0 0 95.999997 75"
   id="svg1"
   sodipodi:docname="village.svg"
   inkscape:version="1.4.2 (ebf0e940d0, 2025-05-08)"
   xmlns:inkscape="http://www.inkscape.org/namespaces/inkscape"
   xmlns:sodipodi="http://sodipodi.sourceforge.net/DTD/sodipodi-0.dtd"
   xmlns="http://www.w3.org/2000/svg"
   xmlns:svg="http://www.w3.org/2000/svg">
  <defs
     id="defs1" />
  <sodipodi:namedview
     id="namedview1"
     pagecolor="#ffffff"
     bordercolor="#000000"
     borderopacity="0.25"
     inkscape:showpageshadow="2"
     inkscape:pageopacity="0.0"
     inkscape:pagecheckerboard="0"
     inkscape:deskcolor="#d1d1d1"
     inkscape:document-units="pt"
     inkscape:zoom="2.8390337"
     inkscape:cx="97.920641"
     inkscape:cy="111.83383"
     inkscape:window-width="1862"
     inkscape:window-height="1011"
     inkscape:window-x="0"
     inkscape:window-y="0"
     inkscape:window-maximized="1"
     inkscape:current-layer="svg1" />
  <path
     d="m 85.381364,15.59827 h 1.941865 V 8.1389299 L 48.010737,11.308674 v 4.292985 h 37.37388 z M 21.367076,46.25468 c 1.072468,0 2.049695,0.43787 2.754136,1.142257 0.707554,0.710731 1.145435,1.684847 1.145435,2.757248 0,1.07883 -0.437868,2.056056 -1.142254,2.760428 -0.707554,0.707552 -1.681668,1.142256 -2.757249,1.142256 -1.072467,0 -2.049694,-0.43787 -2.754135,-1.142256 -0.710736,-0.710738 -1.145436,-1.684848 -1.145436,-2.760428 0,-1.07883 0.437868,-2.052876 1.142254,-2.757248 0.704387,-0.70438 1.681669,-1.142257 2.757249,-1.142257 z m 1.611814,2.287693 c -0.412484,-0.409316 -0.980409,-0.663148 -1.611814,-0.663148 -0.628237,0 -1.199383,0.253832 -1.608699,0.666321 -0.412485,0.412481 -0.666319,0.980405 -0.666319,1.608695 0,0.631413 0.253834,1.202566 0.663144,1.608702 0.412483,0.412482 0.98359,0.66632 1.611814,0.66632 0.628222,0 1.196202,-0.253838 1.608699,-0.66632 0.409309,-0.409308 0.666319,-0.980406 0.666319,-1.608702 0,-0.62829 -0.253835,-1.199379 -0.663144,-1.611812 z m 15.477797,7.043728 c 0,-0.447383 0.364885,-0.812273 0.81227,-0.812273 0.447384,0 0.812269,0.36489 0.812269,0.812273 v 5.365448 c 0,0.447381 -0.364885,0.812265 -0.812269,0.812265 -0.447385,0 -0.81227,-0.364884 -0.81227,-0.812265 z m 8.151125,0 c 0,-0.447383 0.364886,-0.812273 0.81227,-0.812273 0.447384,0 0.812269,0.36489 0.812269,0.812273 v 5.365448 c 0,0.447381 -0.364885,0.812265 -0.812269,0.812265 -0.447384,0 -0.81227,-0.364884 -0.81227,-0.812265 z M 16.66214,70.244861 v -7.376765 c 0,-1.294554 0.529877,-2.471732 1.380249,-3.325229 0.850311,-0.85031 2.030674,-1.380245 3.325229,-1.380245 1.291373,0 2.468555,0.529872 3.322047,1.383425 0.853492,0.850317 1.383431,2.027495 1.383431,3.322049 v 7.376765 h 4.87998 V 50.407884 L 21.367618,37.852903 11.78216,50.407884 v 19.836977 z m 7.786281,0 v -7.376765 c 0,-0.847193 -0.34585,-1.614992 -0.904259,-2.173426 -0.555261,-0.561614 -1.326301,-0.904261 -2.17343,-0.904261 -0.84713,0 -1.618177,0.345848 -2.176613,0.904261 -0.558435,0.558406 -0.904259,1.329482 -0.904259,2.173426 v 7.376765 z m 8.132172,0 H 54.112505 V 50.950071 H 32.577886 Z M 32.168109,49.325533 h 21.280788 l -4.178722,-6.555289 c -0.02856,-0.03807 -0.05712,-0.07932 -0.07933,-0.123743 l -3.39183,-5.317788 H 23.010792 Z m 23.397425,0.314121 c 0.107887,0.139606 0.171334,0.310947 0.171334,0.539397 l 0.0035,20.033951 h 26.389298 c 0.685347,0 1.30721,-0.279214 1.754638,-0.726574 0.450542,-0.450548 0.732932,-1.075644 0.732932,-1.757821 V 17.225074 H 50.726308 v 24.822278 l 4.841869,7.596074 z m 15.611145,2.595467 h 6.177723 c 0.447381,0 0.812267,0.36489 0.812267,0.812272 v 6.174534 c 0,0.447382 -0.364886,0.812273 -0.812267,0.812273 h -6.177723 c -0.447384,0 -0.812268,-0.364891 -0.812268,-0.812273 v -6.174534 c 0,-0.447382 0.364884,-0.812272 0.812268,-0.812272 z m 5.365449,1.624545 h -4.549996 v 4.549989 h 4.549996 z M 57.980415,37.972343 h 6.174534 c 0.447381,0 0.812265,0.364891 0.812265,0.812272 v 6.174535 c 0,0.447389 -0.364884,0.812273 -0.812265,0.812273 h -6.174534 c -0.447389,0 -0.812273,-0.364884 -0.812273,-0.812273 v -6.174535 c 0,-0.447381 0.364884,-0.812272 0.812273,-0.812272 z m 5.362262,1.624545 H 58.79268 v 4.549989 h 4.549997 z m 7.833668,-1.624545 h 6.177713 c 0.447389,0 0.812274,0.364891 0.812274,0.812272 v 6.174535 c 0,0.447389 -0.364885,0.812273 -0.812274,0.812273 h -6.177713 c -0.447391,0 -0.812275,-0.364884 -0.812275,-0.812273 v -6.174535 c 0,-0.447381 0.364884,-0.812272 0.812275,-0.812272 z m 5.365446,1.624545 h -4.549994 v 4.549989 h 4.549994 z M 57.980073,23.707537 h 6.174535 c 0.447388,0 0.812272,0.364884 0.812272,0.812272 v 6.177714 c 0,0.447389 -0.364884,0.812273 -0.812272,0.812273 h -6.174535 c -0.447382,0 -0.812272,-0.364884 -0.812272,-0.812273 v -6.177714 c 0,-0.447388 0.36489,-0.812272 0.812272,-0.812272 z m 5.362268,1.624538 h -4.549995 v 4.549996 h 4.549995 z m 7.833662,-1.624538 h 6.177718 c 0.447389,0 0.812267,0.364884 0.812267,0.812272 v 6.177714 c 0,0.447389 -0.364878,0.812273 -0.812267,0.812273 h -6.177718 c -0.447385,0 -0.812269,-0.364884 -0.812269,-0.812273 v -6.177714 c 0,-0.447388 0.364884,-0.812272 0.812269,-0.812272 z m 5.365451,1.624538 h -4.549999 v 4.549996 h 4.549999 z"
     fill="#4c4c4c"
     id="path1"
     style="stroke-width:0.0676891" />
</svg>
