<?xml version="1.0" encoding="UTF-8" standalone="no"?>
<svg
   width="120pt"
   height="100pt"
   version="1.1"
   viewBox="0 0 120 100"
   id="svg9"
   sodipodi:docname="volcano.svg"
   inkscape:version="1.4.2 (ebf0e940d0, 2025-05-08)"
   xmlns:inkscape="http://www.inkscape.org/namespaces/inkscape"
   xmlns:sodipodi="http://sodipodi.sourceforge.net/DTD/sodipodi-0.dtd"
   xmlns="http://www.w3.org/2000/svg"
   xmlns:svg="http://www.w3.org/2000/svg">
  <defs
     id="defs9" />
  <sodipodi:namedview
     id="namedview9"
     pagecolor="#ffffff"
     bordercolor="#000000"
     borderopacity="0.25"
     inkscape:showpageshadow="2"
     inkscape:pageopacity="0.0"
     inkscape:pagecheckerboard="0"
     inkscape:deskcolor="#d1d1d1"
     inkscape:document-units="pt"
     inkscape:zoom="1.4195169"
     inkscape:cx="84.535805"
     inkscape:cy="183.51314"
     inkscape:window-width="1862"
     inkscape:window-height="1011"
     inkscape:window-x="0"
     inkscape:window-y="0"
     inkscape:window-maximized="1"
     inkscape:current-layer="svg9" />
  <path
     d="m 11.857355,86.476722 c 3.553762,0 7.818686,-1.066129 11.727743,-1.066129 3.198386,0.355374 6.041477,1.421502 9.595649,1.066129 0.355377,-0.355374 1.066129,-0.355374 1.776881,-0.355374 1.066129,0 2.132258,-0.355381 3.198387,-0.355381 h 2.843009 c -1.066129,0 -7.46331,1.066128 -5.330644,1.421509 2.132258,0 -4.61989,1.421502 -4.975266,1.776883 7.46331,0 19.190479,-3.198392 28.075704,-2.843011 1.776881,0.355374 7.107934,1.421502 9.240438,1.421502 -6.396854,-2.48763 3.553762,-1.421502 6.752229,-1.421502 5.330644,0 9.59565,0.355374 14.215868,0.355374 3.553765,0.355373 6.041479,-0.710763 9.595652,-1.066129 3.909135,0 8.174055,1.066129 11.727735,1.066129 -2.84301,-1.066129 -3.90913,-2.48763 -5.68602,-2.132257 -1.06612,0 -1.4215,-0.710762 -1.77687,-1.421501 -0.35538,-0.710762 -0.71076,-0.710762 -1.42151,-0.355381 -0.35537,0 -0.35537,0 -0.71076,0.355381 -0.35538,0 -0.35538,-0.355381 -0.710758,0 -0.355381,0 -0.355381,0.355373 -0.710763,0 h -0.710762 v -0.355381 c -0.355373,-0.355374 -0.355373,0 -0.355373,0 -0.355382,0.355381 -0.355382,0.355381 -0.710763,0 0,0 0,-0.710763 -0.355373,-0.710763 -0.355381,-0.355373 -0.355381,0.710763 -0.710762,0.355382 -0.355382,0 0,-0.710763 -0.710763,-0.710763 -0.355373,0 -0.710762,0.355374 -0.710762,0 v -0.355373 c -0.355373,0 -0.710755,-0.710762 -1.066128,0 V 81.85682 C 93.598,82.212202 93.598,82.212202 93.598,82.567583 c -0.355374,0.355381 -0.355374,-0.355374 -0.355374,-0.355374 -0.355381,-0.355381 -0.355381,-0.710762 -0.710762,-0.710762 -0.355381,0.355373 -0.355381,1.066128 -0.355381,1.066128 -0.355374,0.355374 -0.355374,0 -0.355374,-0.355373 -0.355373,0 -0.355373,0.710762 -0.710762,0.355373 0,0 -0.355374,-0.355373 -0.355374,0 -0.355373,0 -0.355373,0.710762 -0.710762,0.710762 v -0.355373 l -0.355373,-0.355381 c -0.355381,-0.355374 -0.355381,1.066128 -0.710763,0.710762 h -0.355373 c -0.355381,0.355374 -0.355381,0.710762 -0.710762,0 v -0.710762 c 0,0 0,-0.710763 -0.355374,-0.710763 -0.355381,0.355382 -0.710762,1.42151 -1.066128,1.066129 v -0.355374 c 0,0 0,-0.355373 -0.355381,-0.710762 v -0.710755 -0.355381 c -0.355373,-0.355373 -0.710762,0.355381 -1.066128,0.355381 0,-0.355381 0,-0.710762 -0.355376,-1.066136 -0.355376,0 -0.355376,0.355382 -0.71076,0.355382 -0.355376,0 -0.355376,0 -0.355376,0.355373 0,0.355381 -0.355377,0.710762 -0.355377,0.710762 l -0.355376,-0.355373 c -0.355376,0 -0.355376,-0.355381 -0.355376,-0.355381 -0.355377,-0.355374 -0.710761,0 -0.710761,0.355381 -0.355376,0.710754 -0.355376,0.710754 -1.066129,0.710754 0,0.355382 0,0.355382 -0.355375,0.355382 L 80.093646,81.85682 c 0,0 0,-0.355373 -0.355376,-0.355373 -0.355376,0.355373 -0.355376,1.066128 -0.355376,0.710762 -0.355377,0 -0.355377,-0.355381 -0.710761,0 -0.355384,0.355374 -0.355376,0.355374 -0.355376,0 0,-0.355381 -0.355376,-0.710762 -0.355376,-0.710762 -0.355377,-0.355373 -0.355377,0.355373 -0.355377,0.710762 0,0 0,1.421502 -0.355376,1.066128 v -0.355373 c -0.355376,0 -0.355376,-0.710762 -0.71076,-0.710762 v 0.710762 c -0.355377,0 -0.355377,0.710755 -0.355377,0.710755 0,0 -0.355376,-0.710755 -0.71076,-0.355374 0,0 0.355376,0.710762 -0.355376,0.710762 l -0.355376,-0.355381 c -0.355377,0 -0.355377,0 -0.355377,-0.355373 l -0.355376,-0.355374 c -0.355376,0 -0.71076,0.710755 -0.71076,0 l -0.355377,-0.355381 c -0.355376,0.355381 -0.355376,0.710762 -0.71076,0.710762 0,0 -0.355376,-0.710762 -0.355376,-1.066128 0,0 0,-0.355373 -0.355377,-0.355373 0,0.355373 0,0.710755 -0.355376,0.710755 -0.355376,0.355381 -0.355376,0 -0.355376,0 -0.710761,-0.355374 -0.710761,-0.355374 -0.710761,-1.066129 0,-0.355373 -0.355376,-0.355373 -0.355376,0 0,0 -0.355376,1.066129 -0.71076,0.355382 0,0 0,-0.355382 -0.355377,-0.355382 0,-0.355373 -0.355375,0 -0.355375,0 0,0.355382 -0.355377,0.355382 -0.355377,0 -0.355377,0 -0.355377,0 -0.355377,0.355382 -0.355375,0 -0.355375,0.355373 -0.355375,0.710762 -0.355377,0 -0.355377,-0.710762 -0.355377,-0.710762 0,-0.355382 -0.355376,-0.710763 -0.355376,-1.066128 h -0.355376 c -0.355376,0 -0.355376,-0.355382 -0.710761,-0.355382 0,-0.710754 -0.355376,0 -0.710761,0.355382 0,0.355373 -0.355375,0 -0.355375,0.355373 -0.355377,0 -0.710761,0.355373 -0.710761,0.355373 v 0.355382 c -0.710761,0.355373 -0.710761,0.355373 -1.421505,0.355373 -1.066129,0 -1.066129,1.066128 -1.421505,1.421509 -0.355376,0 -1.066128,-0.355381 -1.421505,-0.710762 -1.066128,-0.355381 -0.71076,-0.355381 -1.421504,-1.066128 -0.710761,-1.066128 -1.421505,0.355373 -2.132258,-0.355381 -0.355376,0 -0.355376,0 -0.355376,-0.355374 -1.066128,-1.066128 -1.421504,1.066128 -2.132257,1.066128 h -0.355376 c -1.421505,0 -1.421505,1.066128 -2.132258,0.710763 L 50.59734,82.567614 c -0.710761,-0.355374 -1.421505,0 -1.776881,0 -0.355377,-0.355374 -0.355377,-0.710755 -1.066129,-0.710755 -0.355376,-0.355381 -1.066128,-0.355381 -1.421505,0.355373 -0.355376,0 -0.355376,0 -0.710761,0.355374 -0.71076,0.710762 -0.71076,0.355381 -1.421504,0 -0.355377,-0.355374 -0.710761,-0.710755 -1.066129,-1.066128 -0.355376,-0.355374 -0.710761,-0.355374 -1.421505,0 -0.71076,0.355381 -0.71076,0.355381 -1.776881,-0.355374 h -0.355376 c -0.71076,-0.355373 -1.066128,-0.355373 -1.421505,-0.355373 -0.710761,0 -1.066129,-1.066128 -1.776881,-0.710762 -0.355376,0 -0.355376,0.710762 -0.355376,0.710762 -0.355376,0 -0.355376,0 -0.71076,0.355373 0,0.355374 0.355375,0.710763 0,1.066128 -0.355377,1.066128 -0.710761,0.710763 -1.066129,0.355374 -0.355376,-0.355374 -1.066129,-0.710755 -1.421505,-0.355374 0,0.355374 -0.355376,0.710763 -0.355376,0.710763 -0.355376,0.355373 -0.710761,-0.355381 -0.710761,-0.355381 -0.355376,0 -0.355376,1.066135 -0.71076,1.066135 0,0 -0.355377,0 -0.355377,-0.355381 l -0.355375,-0.710762 c 0,-0.355374 -0.355377,-0.355374 -0.355377,-0.710755 -0.355376,-0.355381 -0.355376,-0.710762 -0.355376,0 -0.355376,0 -0.355376,0.355374 -0.71076,0 h -0.355377 c -0.355376,0 -0.355376,0.355374 -0.355376,0 -0.355376,-0.355381 -0.355376,-0.710762 -0.71076,-0.355381 0,0 -0.355377,0 -0.355377,0.355381 0,0 0,0.710755 -0.355376,1.066128 -0.355376,0 -0.355376,-0.355381 -0.71076,-0.355381 -0.355385,0 -0.355377,0.355381 -0.710761,0.355381 0,-0.355381 -0.355377,-0.710762 -0.710761,-0.355381 0,0.355381 -0.355376,0.710762 -0.710761,0.710762 -0.355375,0 0,-1.066128 -0.355375,-1.066128 -0.355377,0 -0.710761,0.710763 -0.710761,0.710763 -0.355377,0.355373 -0.355377,0 -0.710761,0 h -0.710761 c -1.776881,-1.42151 -2.132257,-0.355381 -2.84301,0 -0.355375,0.355373 -0.71076,0 -1.421504,-0.355381 -1.776881,0 -2.487633,2.84301 -5.330643,3.909138 z"
     fill="#4c4c4c"
     id="path1"
     style="stroke-width:0.0820351" />
  <path
     d="m 54.148107,62.665201 c 0,0 -4.264514,1.776883 -5.330643,3.553765 -1.066129,2.132256 -4.61989,3.198384 -5.330642,3.553766 -0.710761,0 -3.909139,1.421501 -3.909139,1.421501 0,0 6.041478,-0.355373 7.818686,-2.132256 1.776881,-1.421509 3.198387,-3.553765 3.909139,-3.909139 0.355376,0 0.71076,-0.710762 2.843009,-1.776882 1.776881,-0.710763 5.330644,-3.198385 5.330644,-3.198385 -1.776882,1.066129 -3.553763,1.776883 -5.330644,2.48763 z m -2.487633,-7.10793 c 1.776881,-0.710763 3.553762,1.066128 5.686019,2.132256 2.132257,2.132256 3.553762,2.132256 4.61989,2.84301 0.355377,0.355374 3.553763,0.355374 5.686019,1.776883 1.066129,0.710755 2.487635,1.776875 2.487635,1.776875 0.355375,0 -1.421506,-0.710755 -2.132258,-0.355373 -1.066129,0.355373 -2.84301,1.066128 -2.84301,1.776882 0,1.066128 -1.421504,2.132256 -2.132257,2.48763 -1.421504,1.776882 -4.61989,3.553765 -4.61989,3.553765 0,0 5.686019,-3.198384 6.396854,-4.264512 0.355375,-0.710762 2.132256,-2.487637 2.132256,-2.487637 0.355377,0 0.355377,-0.355374 0.710761,-0.355374 1.066129,0.355374 2.843009,0.355374 3.553762,0.710762 1.066128,0.710755 0.71076,0.355374 2.132257,0.710755 1.421497,0.355389 2.487634,1.066128 3.553762,1.776883 1.776882,1.066128 3.553763,2.487637 5.330643,3.909138 L 77.24765,66.929321 c -0.355376,0 -4.975267,-2.132256 -5.686019,-2.843003 -1.066129,-0.355381 -2.843009,-1.421509 -3.198386,-2.132264 -0.355376,-0.355373 -1.421504,-1.066128 -2.487633,-1.066128 0,0 -2.84301,-0.355373 -3.553762,-0.710754 -0.710761,-0.710763 -2.132257,-1.066128 -2.843009,-1.066128 0,-0.355381 -0.355377,-0.710763 -0.355377,-0.710763 h 1.066129 c 4.264515,-1.066128 2.843009,-2.132256 5.330643,-3.198384 0,0 4.619891,-0.710762 7.46331,2.132256 8.529193,8.529194 11.727743,12.794198 24.877151,20.967357 -1.066128,-0.355373 -1.776875,0 -2.132256,0.710762 -0.710762,-1.066128 -1.421501,-1.776882 -1.776882,0 -0.355374,-0.710762 -1.066128,-0.710762 -1.421502,-0.355373 -0.355373,-0.710762 -0.710762,-0.355381 -1.066128,0 0.355374,-0.355381 -0.710762,-2.487637 -1.776882,-1.066136 h -0.710763 c -0.355373,-1.066128 -1.421501,0.355381 -1.776875,1.066136 -0.355381,-0.355381 -0.710762,-0.355381 -1.421509,0 -0.710762,-1.421509 -1.776879,-0.355381 -2.487632,0 0.355377,-0.355381 -0.355376,-1.421509 -0.710761,-1.776883 -0.355375,-0.355381 -0.355375,-0.710762 -0.355375,-1.066128 -1.066129,-0.355381 -1.421506,1.066128 -2.132258,1.066128 -0.710761,-0.355381 -1.421505,0 -1.776881,0.355374 -0.71076,0.710762 -1.066128,0 -1.776881,0 -2.487634,-1.421502 -2.132257,2.84301 -4.264514,0.710762 -1.776881,-1.421509 -2.84301,0.355373 -3.198386,0.355373 -4.619891,1.776883 -4.264514,-3.198384 -7.107935,-0.710762 0,0 -1.421504,-1.066128 -2.487633,0.355381 -1.77688,2.843011 -2.487633,0 -3.553761,0 -2.84301,-0.355381 -2.487634,-3.553765 -4.264515,-1.421509 -0.355376,0.355381 -0.710761,0.710762 -0.710761,1.066128 -0.355376,-0.355373 -0.71076,-0.355373 -1.066128,0 -0.355376,-0.355373 -0.710761,-0.710755 -1.066128,-0.355373 -1.066129,-1.421502 -1.421506,1.066128 -1.776882,1.421509 0.355376,-0.710762 -1.066128,-1.421509 -1.421505,0 -0.355376,-0.355381 -0.71076,-0.355381 -1.066128,0 -0.710761,0 -1.066129,0.355373 -1.421505,1.066128 0,-0.355381 0,-0.710762 -0.71076,-0.710762 -0.710761,-1.066128 -1.066129,-0.710763 -1.421506,-0.710763 0,-1.421501 -1.066128,-1.421501 -1.421504,-0.355373 h -0.355377 c -0.71076,-0.355381 -1.066128,-0.355381 -1.77688,0 -1.066129,-0.710762 -1.066129,-2.132256 -2.487633,-1.066128 0,0 -1.776882,-1.776883 -2.132258,0 -0.710761,-0.355381 -1.066129,0 -1.421505,1.421501 -0.71076,-1.421501 -1.421504,-0.355373 -1.776881,1.066128 -0.355376,-0.355373 -0.355376,-0.355373 -0.710761,0 0.355377,-0.355373 0,-1.776882 -1.066128,-1.066128 0,0 -0.355376,-0.355373 -0.71076,0 -0.355377,-0.355373 -0.355377,-0.355373 -0.710761,-0.355373 -0.355377,-0.710762 -1.066129,-0.355381 -1.776881,0 -0.355377,-2.487637 -1.776881,-0.710762 -1.776881,-0.355381 0,-0.355374 -1.066129,-0.355374 -1.421505,0.355381 0,-0.355381 -0.355376,-0.355381 -0.710761,-0.355381 6.396854,-5.330641 13.149412,-8.884406 18.480055,-12.438163 4.61989,-3.553766 4.975267,-5.686022 12.438167,-9.595653 z"
     fill="#4c4c4c"
     fill-rule="evenodd"
     id="path2"
     style="stroke-width:0.0820351" />
  <path
     d="m 79.025262,27.481976 c 2.132257,0 4.264514,1.776883 4.975266,3.909139 7.81869,-1.776883 9.240438,10.661288 1.066125,10.661288 -1.421501,0 -3.198381,-1.066128 -3.909134,-2.132256 -1.421505,2.843003 -4.975267,4.619885 -8.174063,3.198384 -1.066128,4.264512 -6.396853,5.686014 -9.59565,2.843011 -0.355376,0.355373 -1.066128,0.710754 -1.421504,0.710754 -2.132258,4.619894 -8.529194,2.132264 -6.041478,-2.487629 -2.843009,-3.909139 0.355377,-9.24044 4.975267,-8.884406 0,-6.752234 8.529193,-9.595652 12.438167,-4.264512 0,-0.355381 0.355376,-0.355381 0.710761,-0.355381 0.71076,-1.776883 2.487633,-3.198384 4.975266,-3.198384 z"
     fill="#4c4c4c"
     fill-rule="evenodd"
     id="path3"
     style="stroke-width:0.0820351" />
  <path
     d="m 60.189995,53.069557 c 0,0.981547 -0.795355,1.776882 -1.776881,1.776882 -0.981222,0 -1.776881,-0.795358 -1.776881,-1.776882 0,-0.981225 0.795675,-1.776883 1.776881,-1.776883 0.981551,0 1.776881,0.795673 1.776881,1.776883 z"
     fill="#4c4c4c"
     fill-rule="evenodd"
     id="path4"
     style="stroke-width:0.0820351" />
  <path
     d="m 54.50414,49.515791 c 0,0.392559 -0.318207,0.710763 -0.710761,0.710763 -0.392554,0 -0.710761,-0.318204 -0.710761,-0.710763 0,-0.392551 0.318207,-0.710762 0.710761,-0.710762 0.392554,0 0.710761,0.318211 0.710761,0.710762 z"
     fill="#4c4c4c"
     fill-rule="evenodd"
     id="path5"
     style="stroke-width:0.0820351" />
  <path
     d="m 64.098969,51.292674 c 0,0.588988 -0.477469,1.066128 -1.066129,1.066128 -0.588987,0 -1.066128,-0.477147 -1.066128,-1.066128 0,-0.588666 0.477149,-1.066128 1.066128,-1.066128 0.588668,0 1.066129,0.47747 1.066129,1.066128 z"
     fill="#4c4c4c"
     fill-rule="evenodd"
     id="path6"
     style="stroke-width:0.0820351" />
  <path
     d="m 55.214564,52.359133 c 0,0.473941 -0.710761,0.473941 -0.710761,0 0,-0.473942 0.710761,-0.473942 0.710761,0 z"
     fill="#4c4c4c"
     fill-rule="evenodd"
     id="path7"
     style="stroke-width:0.0820351" />
  <path
     d="m 69.429612,52.003921 c 0,0.473941 -0.710761,0.473941 -0.710761,0 0,-0.473942 0.710761,-0.473942 0.710761,0 z"
     fill="#4c4c4c"
     fill-rule="evenodd"
     id="path8"
     style="stroke-width:0.0820351" />
  <path
     d="m 71.562525,48.805367 c 0,0.392559 -0.318205,0.710763 -0.71076,0.710763 -0.392555,0 -0.71076,-0.318204 -0.71076,-0.710763 0,-0.392551 0.318205,-0.710762 0.71076,-0.710762 0.392555,0 0.71076,0.318211 0.71076,0.710762 z"
     fill="#4c4c4c"
     fill-rule="evenodd"
     id="path9"
     style="stroke-width:0.0820351" />
</svg>
