<?xml version="1.0" encoding="UTF-8" standalone="no"?>
<svg
   width="128"
   height="100"
   version="1.1"
   viewBox="0 0 96 75"
   id="svg9"
   sodipodi:docname="walking.svg"
   inkscape:version="1.4.2 (ebf0e940d0, 2025-05-08)"
   xmlns:inkscape="http://www.inkscape.org/namespaces/inkscape"
   xmlns:sodipodi="http://sodipodi.sourceforge.net/DTD/sodipodi-0.dtd"
   xmlns="http://www.w3.org/2000/svg"
   xmlns:svg="http://www.w3.org/2000/svg">
  <defs
     id="defs9" />
  <sodipodi:namedview
     id="namedview9"
     pagecolor="#ffffff"
     bordercolor="#000000"
     borderopacity="0.25"
     inkscape:showpageshadow="2"
     inkscape:pageopacity="0.0"
     inkscape:pagecheckerboard="0"
     inkscape:deskcolor="#d1d1d1"
     inkscape:document-units="pt"
     inkscape:zoom="2.0875"
     inkscape:cx="203.59281"
     inkscape:cy="115.68862"
     inkscape:window-width="1920"
     inkscape:window-height="1043"
     inkscape:window-x="0"
     inkscape:window-y="0"
     inkscape:window-maximized="1"
     inkscape:current-layer="svg9" />
  <path
     d="m 74.349411,11.990616 c -5.600332,0 -10.138526,4.538005 -10.138526,10.138528 0,5.600334 4.538006,10.138529 10.138526,10.138529 h 1.322392 V 28.74131 h -1.322392 c -3.651993,0 -6.612162,-2.959935 -6.612162,-6.612166 0,-3.652183 2.959931,-6.612165 6.612162,-6.612165 h 1.322392 v -3.526363 z"
     fill="#4c4c4c"
     id="path1"
     style="stroke-width:0.0470182" />
  <path
     d="m 74.349411,17.28016 h 1.322392 v 9.697968 h -1.322392 c -2.677823,0 -4.848511,-2.170922 -4.848511,-4.848514 0,-2.677826 2.170926,-4.848514 4.848511,-4.848514 z"
     fill="#4c4c4c"
     id="path2"
     style="stroke-width:0.0470182" />
  <path
     d="m 64.822595,14.994607 c -8.042462,0.877171 -13.871775,1.816076 -20.827644,3.272888 2.867356,1.340017 5.036117,3.925265 5.805334,7.061659 2.43982,0.58848 4.560011,0.868378 6.709023,0.76696 1.94171,-0.09036 3.936315,-0.48927 6.241195,-1.287122 -0.198364,-0.861749 -0.304152,-1.758762 -0.304152,-2.680036 0,-2.675615 0.883797,-5.146139 2.375874,-7.134538 z"
     fill="#4c4c4c"
     id="path3"
     style="stroke-width:0.0470182" />
  <path
     d="m 63.272873,26.494781 c -2.408929,0.828695 -4.557848,1.265072 -6.680343,1.36428 -2.148871,0.09918 -4.238265,-0.147665 -6.508256,-0.652377 0.01323,0.215992 0.01983,0.43198 0.01983,0.652377 0,1.824869 -0.462838,3.541785 -1.276121,5.040348 6.753221,3.070146 18.870274,4.095002 24.699589,1.102012 -4.676845,-0.317372 -8.610902,-3.336833 -10.255133,-7.506922 z"
     fill="#4c4c4c"
     id="path4"
     style="stroke-width:0.0470182" />
  <path
     d="m 43.051296,27.859249 c 0,1.948339 -1.578023,3.526363 -3.526363,3.526363 -1.948339,0 -3.526363,-1.578024 -3.526363,-3.526363 0,-1.948339 1.578024,-3.526363 3.526363,-3.526363 1.94834,0 3.526363,1.578024 3.526363,3.526363 z"
     fill="#4c4c4c"
     id="path5"
     style="stroke-width:0.0470182" />
  <path
     d="m 48.341781,27.859249 c 0,-4.619535 -3.554997,-8.410141 -8.077252,-8.784875 -0.24464,-0.01983 -0.489271,-0.03086 -0.738326,-0.03086 -4.868733,0 -8.815908,3.947316 -8.815908,8.815906 0,1.390705 0.321783,2.704298 0.894803,3.874581 0.0551,0.110201 0.110202,0.220397 0.169708,0.328394 1.492074,2.748353 4.403534,4.612906 7.751416,4.612906 3.334623,0 6.237431,-1.851341 7.7359,-4.584272 0.429774,-0.78464 0.744956,-1.641969 0.919064,-2.549985 l 0.0088,-0.04629 c 0.09918,-0.528954 0.152075,-1.07554 0.152075,-1.635339 z m -3.526363,0 c 0,2.920252 -2.369293,5.289545 -5.289544,5.289545 -2.920252,0 -5.289545,-2.369293 -5.289545,-5.289545 0,-2.920251 2.369293,-5.289544 5.289545,-5.289544 2.920251,0 5.289544,2.369293 5.289544,5.289544 z"
     fill="#4c4c4c"
     fill-rule="evenodd"
     id="path6"
     style="stroke-width:0.0470182" />
  <path
     d="m 32.496657,55.189033 h 6.147156 V 38.403545 C 35.913091,38.176536 33.477455,36.915843 31.72979,35.009397 Z"
     fill="#4c4c4c"
     id="path7"
     style="stroke-width:0.0470182" />
  <path
     d="M 31.591086,56.951277 V 56.80361 l -7.189079,2.9952 c -0.985172,0.412138 -1.626546,1.375279 -1.626546,2.442025 0,1.461233 1.183542,2.644776 2.644772,2.644776 h 17.781804 c 1.54718,0 2.981986,-0.813272 3.779838,-2.140082 0.837488,-1.395119 0.837488,-3.14067 0,-4.535796 l -0.755959,-1.258488 z"
     fill="#4c4c4c"
     id="path8"
     style="stroke-width:0.0470182" />
  <path
     d="M 46.122053,55.189033 H 40.406994 V 38.403545 c 3.303779,-0.273293 6.177718,-2.065133 7.921152,-4.674641 0.103585,6.307958 0.03966,11.859864 -2.206187,21.460035 z"
     fill="#4c4c4c"
     id="path9"
     style="stroke-width:0.0470182" />
</svg>
