<?xml version="1.0" encoding="UTF-8" standalone="no"?>
<svg
   width="128"
   height="100"
   version="1.1"
   viewBox="0 0 95.999997 75"
   id="svg3"
   sodipodi:docname="windows.svg"
   inkscape:version="1.4.2 (ebf0e940d0, 2025-05-08)"
   xmlns:inkscape="http://www.inkscape.org/namespaces/inkscape"
   xmlns:sodipodi="http://sodipodi.sourceforge.net/DTD/sodipodi-0.dtd"
   xmlns="http://www.w3.org/2000/svg"
   xmlns:svg="http://www.w3.org/2000/svg">
  <defs
     id="defs3" />
  <sodipodi:namedview
     id="namedview3"
     pagecolor="#ffffff"
     bordercolor="#000000"
     borderopacity="0.25"
     inkscape:showpageshadow="2"
     inkscape:pageopacity="0.0"
     inkscape:pagecheckerboard="0"
     inkscape:deskcolor="#d1d1d1"
     inkscape:document-units="pt"
     inkscape:zoom="4.0150001"
     inkscape:cx="69.489413"
     inkscape:cy="32.004981"
     inkscape:window-width="1862"
     inkscape:window-height="1011"
     inkscape:window-x="0"
     inkscape:window-y="0"
     inkscape:window-maximized="1"
     inkscape:current-layer="svg3" />
  <path
     d="M 68.628769,24.961097 61.648995,28.194286 28.772392,12.963263 35.751616,9.7300781 Z"
     fill="#4c4c4c"
     id="path1"
     style="stroke-width:0.0546402" />
  <path
     id="path2"
     style="stroke-width:0.0546402;fill:#4d4d4d"
     d="M 28.243652 13.564453 L 28.243652 51.51416 L 61.26416 66.812988 L 61.26416 28.863281 L 28.243652 13.564453 z M 34.606934 24.105469 L 43.797363 28.362305 L 43.797363 38.923828 L 34.606934 34.665527 L 34.606934 24.105469 z M 44.961914 28.665527 L 54.150879 32.923828 L 54.150879 43.483887 L 44.961914 39.227051 L 44.961914 28.665527 z M 34.583496 35.806641 L 43.773926 40.063477 L 43.773926 50.625 L 34.583496 46.368164 L 34.583496 35.806641 z M 44.961914 40.483887 L 54.150879 44.740723 L 54.150879 55.302246 L 44.961914 51.04541 L 44.961914 40.483887 z " />
  <g
     id="g1"
     transform="translate(-1.3075965,-0.09339975)" />
  <path
     d="M 62.033666,66.810212 V 28.86024 l 7.124565,-3.301482 v 37.950513 z"
     fill="#4c4c4c"
     id="path3"
     style="stroke-width:0.0546402" />
</svg>
