<?xml version="1.0" encoding="UTF-8" standalone="no"?>
<svg
   version="1.1"
   x="0px"
   y="0px"
   viewBox="0 0 128 128"
   xml:space="preserve"
   id="svg823"
   sodipodi:docname="wiseowl.svg"
   width="128"
   height="128"
   inkscape:version="1.2.2 (b0a8486541, 2022-12-01)"
   xmlns:inkscape="http://www.inkscape.org/namespaces/inkscape"
   xmlns:sodipodi="http://sodipodi.sourceforge.net/DTD/sodipodi-0.dtd"
   xmlns="http://www.w3.org/2000/svg"
   xmlns:svg="http://www.w3.org/2000/svg"><defs
     id="defs827" /><sodipodi:namedview
     id="namedview825"
     pagecolor="#000000"
     bordercolor="#000000"
     borderopacity="0.25"
     inkscape:showpageshadow="2"
     inkscape:pageopacity="0"
     inkscape:pagecheckerboard="0"
     inkscape:deskcolor="#d1d1d1"
     showgrid="false"
     inkscape:zoom="3.5525045"
     inkscape:cx="61.928141"
     inkscape:cy="76.706448"
     inkscape:window-width="1452"
     inkscape:window-height="991"
     inkscape:window-x="26"
     inkscape:window-y="23"
     inkscape:window-maximized="0"
     inkscape:current-layer="g849" /><g
     id="g874"
     transform="matrix(0.09468601,0,0,0.09468601,16.186698,16.680287)"><g
       id="g849"
       transform="matrix(1.2522654,0,0,1.2522654,-120.00357,-131.36346)"
       style="fill:#ffffff"><path
         d="M 232.70507,634.72561 C 176.42638,574.3252 162.2867,508.92224 204.48224,436.23751 c -20.99898,2.74157 -41.19576,2.00691 -61.75497,-8.44152 11.66365,-1.86045 21.43043,-3.5474 30.61384,-7.13237 9.29691,-3.62934 17.90431,-8.22102 26.34579,-15.71576 -25.32647,-0.18036 -47.78823,-5.66081 -68.85906,-16.51734 28.18417,-4.13276 54.04798,-12.81034 77.10007,-29.20307 -12.17399,-13.37416 -21.30182,-27.86572 -24.16191,-45.77749 27.47942,16.94306 51.0508,23.81542 74.55249,21.71898 3.25947,-15.04691 6.55847,-30.27607 9.97869,-46.06505 -15.80213,-3.07803 -31.27271,-6.13914 -46.766,-9.10033 -46.06063,-8.80335 -92.12937,-17.57109 -138.196926,-26.34384 -9.517646,-1.81249 -14.11886,-5.80795 -14.134873,-12.34278 -0.0161,-6.52697 4.294263,-10.57856 13.856822,-12.76654 115.872727,-26.51293 231.749947,-53.0093 347.628067,-79.50208 20.43618,-4.67225 40.90386,-9.23075 61.3062,-14.02371 4.28903,-1.0076 8.27648,-1.00931 12.54969,-0.0176 86.86036,20.15989 173.74381,40.2365 260.60964,60.37656 3.97067,0.92058 7.75294,1.32472 11.85683,0.39799 31.37435,-7.085 59.0139,-0.0883 83.17773,19.12525 3.15894,2.51177 6.39054,4.30017 10.42671,5.19345 13.7162,3.03559 27.3994,6.19624 41.09007,9.32814 8.78746,2.01023 12.52518,5.73391 12.42842,12.31414 -0.0932,6.32637 -4.38339,10.44854 -12.89181,12.06837 -7.65342,1.45703 -15.35234,2.71394 -23.8533,4.20314 4.98334,18.22533 7.92263,36.41084 8.35375,54.7989 24.7154,12.0848 25.17273,38.56958 1.39661,52.4174 16.48867,5.60001 19.60168,18.3019 21.16683,31.741 1.47659,12.68038 2.83523,25.37312 4.1305,38.07025 2.67398,26.21187 6.21672,52.32205 10.66373,78.33037 0.13643,0.7984 0.018,1.63357 0.018,2.71578 -3.25828,3.67718 -8.74868,3.46373 -13.04781,4.56126 -6.72722,1.71732 -13.52706,3.73072 -20.6742,4.31859 -6.29877,0.51815 -12.50184,2.03427 -18.73671,3.15835 -0.86564,0.1561 -1.65114,0.7945 -2.50791,0.86601 -9.42582,0.78745 -16.27607,-0.69807 -16.35089,-10.75391 -0.18815,-25.3199 0.1789,-50.62998 0.40617,-75.94408 0.0268,-3.01288 0.65752,-6.1074 -0.82662,-9.5584 -16.28655,4.8207 -32.90564,6.03195 -49.86447,3.58068 40.07129,72.16692 27.34627,137.48486 -28.76507,198.42461 m 0,0 c 0,0 -265.40119,-358.74664 -4.6e-4,-10e-6 265.4006,358.74662 -809.065416,356.84214 -552.09274,2.42506 0.67865,-0.80606 1.35646,-1.61288 2.0522,-2.44034 M 633.55338,407.31013 c -28.33418,12.61882 -55.87822,29.57714 -75.36954,52.26325 -17.40067,20.25276 -26.46131,45.53824 -33.71481,70.89745 25.87693,15.22304 25.48285,36.92998 17.66575,60.12797 34.60841,28.59894 73.99202,42.15696 119.83385,34.63494 54.87226,-9.00377 95.74777,-47.07729 106.64696,-97.36687 10.35673,-47.78766 -13.02823,-99.03035 -57.4375,-126.47657 -7.95825,-4.91842 -15.8204,-8.28224 -25.65831,-5.48378 -3.38178,0.96179 -7.09003,0.93235 -10.63258,1.45045 -14.10813,2.06325 -28.52047,4.24666 -41.33382,9.95316 z M 490.78151,530.53852 c -8.03191,-27.88069 -18.44072,-55.12025 -37.87341,-76.87306 -18.39303,-20.58899 -44.47691,-35.23252 -70.74577,-46.55908 -12.34541,-5.32306 -26.09904,-7.49489 -39.58777,-9.52403 -12.98756,-1.95374 -23.62415,-4.74631 -35.11605,1.97757 -17.45623,10.21362 -32.24288,24.10344 -42.99938,40.32306 -36.59723,55.18442 -20.74968,130.77564 38.50604,166.85085 53.13864,32.3511 124.67556,24.59772 169.96389,-15.87494 -2.52229,-12.41426 -6.58713,-24.27247 -2.39602,-36.81777 3.34625,-10.01634 10.45852,-18.13333 20.24847,-23.5026 z M 792.38268,348.26408 c -31.98286,7.46207 -64.4833,0.0427 -96.35533,-4.05588 -29.13536,-3.7467 -57.7764,-2.89251 -85.63819,6.36253 -49.49197,16.44002 -80.91079,53.28242 -102.46037,95.77343 -13.18734,-24.06184 -26.71905,-46.4062 -48.50055,-64.95001 -18.25557,-15.54193 -39.91877,-27.63563 -63.96008,-33.92094 -26.83246,-7.01499 -53.85174,-5.56463 -81.18011,-2.16337 -16.38628,2.0394 -32.7683,4.56642 -49.26856,5.71459 -8.17026,0.56849 -16.41152,0.75618 -24.57568,-0.005 -6.00485,-0.55932 -14.21045,-4.03974 -19.7356,-2.56223 24.61972,20.17967 56.81784,24.47709 88.42435,27.8182 46.77816,4.94483 92.30811,12.60077 129.89885,40.5149 37.11382,27.55996 55.66588,66.85786 68.17336,108.07292 3.83096,-2.06093 5.0078,-13.30564 6.30842,-17.26738 2.19605,-6.68885 4.68453,-13.29535 7.51561,-19.78096 5.57951,-12.78187 12.50333,-25.07132 20.99786,-36.43572 17.23554,-23.05867 40.69267,-41.7388 68.14639,-53.92723 28.74198,-12.76036 59.61224,-17.32778 91.02799,-20.65142 30.65926,-3.24356 68.69738,-6.5919 91.18164,-28.53715 z m 71.09982,34.90103 c 2.60616,-6.9095 6.32092,-12.64104 13.03804,-16.36707 -27.15381,-18.27794 -28.01206,-38.96988 -2.20857,-53.04806 -1.02755,-17.05598 -2.10303,-34.347 -8.39776,-51.01361 -41.18493,7.67891 -81.54395,15.20384 -122.41122,22.82353 3.76247,16.8929 7.416,33.29627 11.02009,49.47764 23.0542,2.8619 48.55963,-4.2422 76.61163,-21.22846 -2.52744,18.00676 -13.69247,32.50566 -25.35124,46.53339 18.08393,10.63768 36.04563,19.93761 57.69903,22.82264 z m -338.86728,250.3291 c 5.41445,4.97381 11.57963,8.71089 17.7209,12.39254 40.07812,24.02672 83.51912,34.25945 131.23059,26.38231 78.41417,-12.94587 139.2248,-74.81447 144.6933,-146.03684 2.22488,-28.97801 -4.92229,-55.86994 -21.54075,-80.61755 -0.68724,-1.02347 -1.76018,-1.82929 -2.56013,-2.64164 22.99904,71.95131 11.71288,136.66896 -55.3373,183.75966 -68.74177,48.27869 -139.96429,41.27736 -208.76016,-4.43368 -1.76036,3.61851 -3.54818,7.29337 -5.44645,11.1952 z M 221.59441,443.16056 c -2.82741,1.86752 -4.1498,4.52657 -5.68798,6.96838 -18.65949,29.62132 -23.42372,61.39242 -16.41663,94.6588 20.79442,98.72192 139.62988,156.76313 240.58075,117.64404 18.46072,-7.15357 35.37446,-16.61025 50.61304,-28.86809 -1.97288,-4.0356 -3.7617,-7.69476 -5.48671,-11.22332 -65.76529,44.17381 -134.79835,52.55609 -202.41759,8.91637 -72.08571,-46.52222 -86.31522,-112.56346 -61.18488,-188.09618 z m 285.91871,181.60313 c 7.73719,-16.64666 15.25853,-33.66587 18.30832,-51.64756 2.04358,-12.04855 -2.12926,-27.92714 -18.90641,-27.39321 -38.68449,1.23118 -6.7739,64.01672 0.59809,79.04077 z M 349.42382,447.68326 c 30.03587,-7.37005 62.03941,2.8703 79.59277,26.42133 1.80133,-18.32326 -7.24856,-36.44624 -26.59717,-43.42283 -19.59243,-7.06457 -41.56791,1.52533 -52.9956,17.0015 z m 329.26848,22.97286 c 2.02577,-20.07732 -12.39816,-37.75652 -33.5941,-41.85962 -15.4937,-2.99928 -38.32283,6.58854 -42.17523,17.55571 29.38702,-3.66259 55.35667,1.81638 75.76933,24.30391 z m 183.56895,-74.81529 c -15.47744,5.60162 -30.91955,8.12272 -48.1303,9.21343 14.52618,11.62647 30.08154,17.75695 48.1303,20.90269 z"
         id="path829"
         style="fill:#ffffff;stroke-width:1.00015"
         sodipodi:nodetypes="cccsccccccssscsssssssssscccssscssscsscccczcccssscaacaccsssacaaccsscsccsscssssccssccscssccccscccccccsccccsccccccsccccccccccsccs" /><path
         style="fill:#ffffff;stroke-width:1.18719"
         d="m 423.29883,466.48202 c -5.56767,-6.35139 -20.51847,-15.12005 -31.29757,-18.35608 -7.74806,-2.32607 -11.67835,-2.77308 -24.38048,-2.77308 h -15.14332 l 5.07828,-4.74336 c 10.89447,-10.17587 29.65776,-14.28683 43.43734,-9.51695 14.80659,5.12541 25.47024,18.16287 26.74274,32.69584 0.34386,3.92704 0.36323,7.14004 0.043,7.14004 -0.32021,0 -2.3362,-2.00089 -4.47999,-4.44641 z"
         id="path992" /><path
         style="fill:#ffffff;stroke-width:1.18719"
         d="m 670.76938,462.43832 c -13.76348,-11.89437 -33.54391,-18.16272 -55.08789,-17.45715 -12.70996,0.41625 -13.21276,-0.22419 -5.10849,-6.50756 7.83521,-6.07483 16.68368,-8.95218 27.61636,-8.98032 8.46945,-0.0219 10.87714,0.43498 16.47142,3.12487 12.94213,6.22307 21.47186,17.23222 23.29716,30.06927 0.46679,3.2822 0.63721,5.94897 0.37884,5.92618 -0.25843,-0.0226 -3.66369,-2.80166 -7.5674,-6.17529 z"
         id="path994" /><path
         style="fill:#ffffff;stroke-width:1.12919"
         d="m 620.60212,618.33045 c -11.94978,-1.99006 -21.10373,-4.58311 -31.11874,-8.81504 -8.88534,-3.75457 -28.05609,-15.08178 -35.26706,-20.83782 l -3.93992,-3.145 2.01833,-8.31665 c 4.53457,-18.68498 0.58068,-33.21275 -11.88082,-43.65359 -3.53883,-2.96501 -6.43424,-6.17716 -6.43424,-7.13815 0,-0.96095 2.42501,-8.4162 5.38892,-16.56721 5.25165,-14.44261 14.83458,-33.64199 20.82619,-41.72529 l 2.97374,-4.01193 0.58606,12.75571 c 0.90318,19.65987 6.99897,33.4704 20.43855,46.30521 13.24353,12.64758 27.94036,18.70486 47.67225,19.64805 21.75217,1.03975 36.79254,-4.28334 52.55602,-18.60061 15.4786,-14.0585 21.89562,-27.47333 21.98005,-45.94907 0.0876,-19.21734 -6.52004,-33.92805 -21.41363,-47.67283 -10.36394,-9.56446 -23.60151,-16.18713 -37.20134,-18.61156 l -8.25541,-1.47169 5.89671,-1.74042 c 12.53752,-3.70045 39.28172,-8.32957 48.18813,-8.34085 6.04691,-0.007 15.59751,4.76895 26.71519,13.36124 20.31638,15.7015 34.80436,37.06479 42.16105,62.16866 2.70132,9.21784 3.05245,12.46834 3.05245,28.25517 0,15.84818 -0.34546,19.01875 -3.09526,28.40986 -7.65492,26.14305 -24.01489,48.66417 -46.76916,64.38248 -26.22843,18.11823 -63.75,26.52851 -95.07806,21.31133 z"
         id="path996"
         sodipodi:nodetypes="ssscssssscssssssscsssssssss" /><path
         style="fill:#ffffff;stroke-width:1.09413"
         d="m 362.23294,614.66418 c -30.57287,-3.42761 -60.1802,-18.30335 -79.11987,-39.75253 -9.89304,-11.20385 -19.29559,-28.35012 -23.26292,-42.42169 -5.71628,-20.27486 -4.93364,-44.79999 2.05572,-64.41823 7.99011,-22.42728 23.76604,-42.45664 44.6812,-56.72799 10.28203,-7.01589 15.73224,-8.70346 25.45583,-7.88198 9.31862,0.78723 28.93386,4.45246 38.63769,7.2196 l 7.87633,2.24604 -6.73359,1.27634 c -15.70617,2.97704 -28.83185,9.58445 -40.07572,20.17395 -19.60552,18.46452 -25.48721,43.17983 -15.85739,66.63385 14.05256,34.22583 58.1582,50.07434 94.50786,33.95957 12.61611,-5.59302 25.08999,-16.89675 31.06078,-28.14698 6.18267,-11.64946 8.0017,-19.40652 7.95439,-33.92053 l -0.0407,-12.44499 3.84053,5.63568 c 9.84069,14.44048 19.55433,34.5304 24.89407,51.48616 l 2.6986,8.56916 -6.50828,5.78914 c -7.35601,6.54317 -10.94569,12.5845 -12.72729,21.41967 -1.20492,5.97523 -1.08505,7.77041 1.45865,21.84547 1.28094,7.08786 1.27858,7.09974 -2.04796,10.3061 -4.35334,4.19612 -21.18904,14.517 -29.70527,18.2104 -21.31992,9.24617 -47.3636,13.3743 -69.0428,10.94379 z"
         id="path998" /></g></g></svg>
