<?xml version="1.0" encoding="UTF-8" standalone="no"?>
<svg
   width="1200pt"
   height="1200pt"
   version="1.1"
   viewBox="0 0 1200 1200"
   id="svg1"
   sodipodi:docname="brush.svg"
   inkscape:version="1.4.3 (0d15f75042, 2025-12-25)"
   xml:space="preserve"
   xmlns:inkscape="http://www.inkscape.org/namespaces/inkscape"
   xmlns:sodipodi="http://sodipodi.sourceforge.net/DTD/sodipodi-0.dtd"
   xmlns="http://www.w3.org/2000/svg"
   xmlns:svg="http://www.w3.org/2000/svg"><defs
     id="defs1" /><sodipodi:namedview
     id="namedview1"
     pagecolor="#ffffff"
     bordercolor="#000000"
     borderopacity="0.25"
     inkscape:showpageshadow="2"
     inkscape:pageopacity="0.0"
     inkscape:pagecheckerboard="true"
     inkscape:deskcolor="#d1d1d1"
     inkscape:document-units="pt"
     inkscape:zoom="0.12546875"
     inkscape:cx="-486.17684"
     inkscape:cy="446.32628"
     inkscape:window-width="1848"
     inkscape:window-height="1011"
     inkscape:window-x="0"
     inkscape:window-y="0"
     inkscape:window-maximized="1"
     inkscape:current-layer="svg1" /><g
     id="g1"
     transform="rotate(90,608.72267,606.78351)"><path
       d="m 231.66,968.68 c 29.391,10.547 60.469,15.75 91.688,15.375 97.078,-0.84375 189.98,-39.891 258.47,-108.75 50.25,-48.984 72.516,-119.95 59.297,-188.86 -12.891,-59.438 -54.703,-108.47 -111.38,-130.6 -38.766,-14.391 -80.953,-16.875 -121.13,-7.0781 -40.172,9.7969 -76.5,31.406 -104.25,62.062 -42.703,43.219 -46.078,93.609 -49.922,151.92 -1.1719,59.766 -13.547,118.78 -36.469,174 -2.5781,6.0469 -2.625,12.844 0,18.891 2.5781,6.0469 7.5469,10.734 13.688,13.031 z"
       fill="#ffffff"
       id="path1" /><path
       d="m 900.52,216.05 c -21.094,-0.89062 -41.812,6.1406 -58.078,19.641 l -334.31,276 c 11.953,2.6719 23.672,6.2812 35.062,10.828 6,2.3438 11.812,5.1094 17.484,8.1562 41.906,20.484 75.938,54.141 96.984,95.766 8.2969,16.172 14.484,33.375 18.469,51.094 l 284.63,-311.76 h 0.0469 c 32.391,-36.047 30.703,-91.219 -3.8438,-125.26 -15.188,-14.812 -35.25,-23.484 -56.438,-24.469 z"
       fill="#ffffff"
       id="path2" /></g></svg>
