<?xml version="1.0" encoding="UTF-8" standalone="no"?>
<svg
   width="1200pt"
   height="1200pt"
   version="1.1"
   viewBox="0 0 1200 1200"
   id="svg1"
   sodipodi:docname="power.svg"
   inkscape:version="1.4.3 (0d15f75042, 2025-12-25)"
   xml:space="preserve"
   xmlns:inkscape="http://www.inkscape.org/namespaces/inkscape"
   xmlns:sodipodi="http://sodipodi.sourceforge.net/DTD/sodipodi-0.dtd"
   xmlns="http://www.w3.org/2000/svg"
   xmlns:svg="http://www.w3.org/2000/svg"><defs
     id="defs1" /><sodipodi:namedview
     id="namedview1"
     pagecolor="#ffffff"
     bordercolor="#000000"
     borderopacity="0.25"
     inkscape:showpageshadow="2"
     inkscape:pageopacity="0.0"
     inkscape:pagecheckerboard="true"
     inkscape:deskcolor="#d1d1d1"
     inkscape:document-units="pt"
     inkscape:zoom="0.12546875"
     inkscape:cx="-486.17684"
     inkscape:cy="446.32628"
     inkscape:window-width="1848"
     inkscape:window-height="1011"
     inkscape:window-x="0"
     inkscape:window-y="0"
     inkscape:window-maximized="1"
     inkscape:current-layer="svg1" /><path
     d="m 334.65378,659.12993 h 227.61671 c 4.92406,0 9.58378,2.22316 12.67971,6.05154 3.09593,3.82837 4.29655,8.84832 3.26781,13.66385 l -78.71432,367.56558 c -0.25154,0.7422 -0.19104,1.5511 0.16568,2.2487 0.35672,0.6975 0.97778,1.2198 1.72629,1.4523 0.66248,0.414 1.4683,0.5383 2.22317,0.3408 0.75478,-0.1975 1.39818,-0.6975 1.77088,-1.3855 L 868.73174,555.67477 c 2.50341,-3.37927 3.6596,-7.56437 3.24555,-11.74938 -0.41404,-4.18192 -2.3696,-8.06125 -5.4878,-10.8802 -3.11493,-2.82189 -7.16948,-4.3794 -11.37349,-4.37622 H 627.49928 c -4.92724,0 -9.5903,-2.22317 -12.68623,-6.0579 -3.09903,-3.83156 -4.29656,-8.85729 -3.26145,-13.67364 l 78.71432,-367.5656 c 0.25162,-0.74211 0.19104,-1.55425 -0.16568,-2.24861 -0.35672,-0.69752 -0.97779,-1.22305 -1.72629,-1.45233 -0.5096,-0.24843 -1.0638,-0.3822 -1.63072,-0.39175 -0.98415,0.0478 -1.87917,0.58604 -2.38241,1.43324 L 321.03509,632.13742 c -2.49704,3.37927 -3.65005,7.56118 -3.23275,11.73959 0.41731,4.17841 2.37287,8.05489 5.48462,10.87368 3.11494,2.81871 7.16631,4.37622 11.36453,4.37622 z"
     fill="#ffffff"
     id="path1"
     style="stroke-width:0.815363" /></svg>
