<?xml version="1.0" encoding="UTF-8"?>
<svg width="1200pt" height="1200pt" version="1.1" viewBox="0 0 1200 1200" xmlns="http://www.w3.org/2000/svg">
 <path d="m1095 585-174-188c-13-13-29-2-29 19v121h-209c-13 0-21-8-21-21v-209h123c21 0 31-19 19-29l-188-173c-8-6-21-6-29 0l-188 173c-13 13-2 29 19 29h119v209c0 13-8 21-21 21h-209v-123c0-21-19-31-29-19l-174 188c-6 8-6 21 0 29l173 188c13 13 29 2 29-19v-118h209c13 0 21 8 21 21v209h-122c-21 0-31 19-19 29l188 173c8 6 21 6 29 0l188-173c13-13 2-29-19-29h-119v-209c0-13 8-21 21-21h209v123c0 21 19 31 29 19l173-188c9-11 9-23 1-32z" fill="#fff"/>
</svg>
