<?xml version="1.0" encoding="UTF-8"?>
<svg width="1200pt" height="1200pt" version="1.1" viewBox="0 0 1200 1200" xmlns="http://www.w3.org/2000/svg">
 <path d="m1069.5 676.45c-27.047-7.5938-55.125 8.2031-62.625 35.25-49.688 177.71-213.47 301.82-398.29 301.82-228.05 0-413.58-185.48-413.58-413.58 0-228 185.53-413.53 413.53-413.53 133.82 0 258.05 65.156 334.92 171.14h-116.16c-28.078 0-50.859 22.781-50.859 50.859s22.781 50.859 50.859 50.859h212.67c28.078 0 50.859-22.781 50.859-50.859v-212.76c0-28.078-22.781-50.859-50.859-50.859s-50.859 22.781-50.859 50.859v57.375c-96.141-105.23-233.76-168.28-380.68-168.28-283.97 0-515.16 231.1-515.16 515.26s231.14 515.26 515.26 515.26c230.16 0 434.26-154.64 496.22-376.13 7.5938-27.047-8.2031-55.125-35.25-62.625z" fill="#fff"/>
</svg>
