<?xml version="1.0" encoding="UTF-8" standalone="no"?>
<svg
   width="128"
   height="100"
   version="1.1"
   viewBox="0 0 96 75"
   id="svg1"
   sodipodi:docname="deoth.svg"
   inkscape:version="1.4.2 (ebf0e940d0, 2025-05-08)"
   xmlns:inkscape="http://www.inkscape.org/namespaces/inkscape"
   xmlns:sodipodi="http://sodipodi.sourceforge.net/DTD/sodipodi-0.dtd"
   xmlns="http://www.w3.org/2000/svg"
   xmlns:svg="http://www.w3.org/2000/svg">
  <defs
     id="defs1" />
  <sodipodi:namedview
     id="namedview1"
     pagecolor="#ffffff"
     bordercolor="#000000"
     borderopacity="0.25"
     inkscape:showpageshadow="2"
     inkscape:pageopacity="0.0"
     inkscape:pagecheckerboard="0"
     inkscape:deskcolor="#d1d1d1"
     inkscape:document-units="pt"
     inkscape:zoom="1.4195169"
     inkscape:cx="-16.90716"
     inkscape:cy="63.754084"
     inkscape:window-width="1862"
     inkscape:window-height="1011"
     inkscape:window-x="0"
     inkscape:window-y="0"
     inkscape:window-maximized="1"
     inkscape:current-layer="svg1" />
  <path
     d="M 21.840771,57.294909 32.917973,50.854673 V 34.625287 c 0,-0.450731 0.257651,-0.901687 0.644026,-1.159348 L 47.730511,25.351241 V 12.535178 H 50.3709 v 12.816063 l 14.039709,8.114698 c 0.386371,0.257651 0.644023,0.64402 0.644023,1.159348 v 16.293792 l 11.077203,6.44023 -1.288047,-4.443814 c -0.193293,-0.708371 0.193292,-1.416741 0.901686,-1.610057 0.708372,-0.193294 1.416744,0.193293 1.610058,0.901686 l 2.189734,7.470674 c 0.06436,0.322012 0.06436,0.708371 -0.128719,1.030383 -0.193293,0.322012 -0.450731,0.515301 -0.837338,0.64402 l -7.599476,1.93207 c -0.128718,0 -0.193292,0.06437 -0.322011,0.06437 -0.579675,0 -1.094733,-0.386369 -1.288047,-0.966038 -0.193293,-0.708371 0.257653,-1.416742 0.966035,-1.610057 L 74.843873,59.613194 63.702269,53.17296 49.66256,61.287658 c -0.193293,0.128719 -0.450731,0.193289 -0.644024,0.193289 -0.193292,0 -0.45073,-0.06436 -0.644023,-0.193289 L 34.270402,53.17296 23.128794,59.613194 Z m 15.069985,-22.669622 12.107641,7.019855 12.10764,-7.019855 -12.10764,-7.019854 z M 47.73035,43.899225 35.622711,36.87937 V 50.919079 L 47.73035,57.938934 Z M 62.478485,36.87937 50.306444,43.899225 v 14.039709 l 12.172041,-7.019855 z"
     fill="#4c4c4c"
     id="path1"
     style="stroke-width:0.0536686"
     sodipodi:nodetypes="ccsccccccscccccccccscccccsccccccccccccccccccc" />
</svg>
