<?xml version="1.0" encoding="UTF-8" standalone="no"?>
<svg
   width="128"
   height="100"
   version="1.1"
   viewBox="0 0 96 75"
   id="svg2"
   sodipodi:docname="noise_strength.svg"
   inkscape:version="1.4.2 (ebf0e940d0, 2025-05-08)"
   xmlns:inkscape="http://www.inkscape.org/namespaces/inkscape"
   xmlns:sodipodi="http://sodipodi.sourceforge.net/DTD/sodipodi-0.dtd"
   xmlns="http://www.w3.org/2000/svg"
   xmlns:svg="http://www.w3.org/2000/svg">
  <defs
     id="defs2" />
  <sodipodi:namedview
     id="namedview2"
     pagecolor="#ffffff"
     bordercolor="#000000"
     borderopacity="0.25"
     inkscape:showpageshadow="2"
     inkscape:pageopacity="0.0"
     inkscape:pagecheckerboard="0"
     inkscape:deskcolor="#d1d1d1"
     inkscape:document-units="pt"
     inkscape:zoom="2.0075"
     inkscape:cx="104.60772"
     inkscape:cy="121.79328"
     inkscape:window-width="1862"
     inkscape:window-height="1011"
     inkscape:window-x="0"
     inkscape:window-y="0"
     inkscape:window-maximized="1"
     inkscape:current-layer="svg2" />
  <path
     d="m 71.345204,15.877076 c -0.310634,-0.689612 -0.882809,-1.227228 -1.590442,-1.494319 -0.707693,-0.266853 -1.492483,-0.241374 -2.181143,0.07111 -5.891408,2.663666 -12.285331,4.034523 -18.750885,4.020649 -6.464969,0.01622 -12.858776,-1.352354 -18.750893,-4.013478 -0.36808,-0.170255 -0.768836,-0.25759 -1.174214,-0.256193 -0.876528,-0.003 -1.70561,0.397962 -2.247201,1.086861 -0.541812,0.689136 -0.736161,1.589319 -0.526529,2.440343 0.209644,0.851085 0.799614,1.558011 1.599522,1.916602 5.755196,2.60253 11.945536,4.108411 18.252764,4.440377 v 12.41758 L 41.70653,32.236955 c -0.476022,-0.498495 -1.110937,-0.815623 -1.795683,-0.895975 -0.684507,-0.08062 -1.375717,0.08038 -1.954375,0.454952 -0.69471,0.480431 -1.139941,1.244602 -1.215427,2.08596 -0.07552,0.84112 0.226311,1.672458 0.823984,2.268966 l 5.607413,5.607414 v 2.38e-4 c 1.501021,1.499185 3.53581,2.341195 5.657409,2.341195 2.121367,0 4.156155,-0.84201 5.657176,-2.341195 l 5.607414,-5.607414 v -2.38e-4 c 0.609198,-0.607125 0.911038,-1.457496 0.821196,-2.312728 -0.08987,-0.855476 -0.561734,-1.624544 -1.283564,-2.091955 -0.561265,-0.352097 -1.226575,-0.501044 -1.884158,-0.422057 -0.657882,0.07899 -1.268923,0.381057 -1.730875,0.856189 l -4.347926,4.326398 V 24.089136 c 6.307222,-0.331948 12.497629,-1.837847 18.252762,-4.440384 0.689606,-0.310633 1.227228,-0.882808 1.494319,-1.590441 0.266853,-0.707694 0.241374,-1.492483 -0.07111,-2.181144 z"
     fill="#4c4c4c"
     id="path1"
     style="stroke-width:0.0593007" />
  <path
     d="m 71.345204,58.075474 c 0.312487,-0.68866 0.337966,-1.473505 0.07111,-2.181137 -0.267079,-0.7077 -0.804707,-1.279832 -1.494319,-1.590448 -6.635155,-2.978496 -13.82596,-4.518418 -21.099197,-4.518418 -7.273231,0 -14.464043,1.539977 -21.099199,4.518418 -0.926571,0.419508 -1.559194,1.301591 -1.659232,2.313912 -0.100044,1.012326 0.347694,2.00093 1.174209,2.593699 0.826715,0.592776 1.906642,0.699571 2.833451,0.280057 5.89716,-2.645817 12.287113,-4.01371 18.750893,-4.01371 6.46378,0 12.853433,1.367832 18.750885,4.01371 0.36808,0.170261 0.768836,0.25759 1.174214,0.256199 0.548074,0.0012 1.084556,-0.156588 1.545319,-0.453092 0.46074,-0.296735 0.826058,-0.71997 1.052113,-1.219165 z"
     fill="#4c4c4c"
     id="path2"
     style="stroke-width:0.0593007" />
</svg>
