<?xml version="1.0" encoding="UTF-8" standalone="no"?>
<svg
   width="128"
   height="100"
   version="1.1"
   viewBox="0 0 96 75"
   id="svg1"
   sodipodi:docname="noise_scale.svg"
   inkscape:version="1.4.2 (ebf0e940d0, 2025-05-08)"
   xmlns:inkscape="http://www.inkscape.org/namespaces/inkscape"
   xmlns:sodipodi="http://sodipodi.sourceforge.net/DTD/sodipodi-0.dtd"
   xmlns="http://www.w3.org/2000/svg"
   xmlns:svg="http://www.w3.org/2000/svg">
  <defs
     id="defs1" />
  <sodipodi:namedview
     id="namedview1"
     pagecolor="#ffffff"
     bordercolor="#000000"
     borderopacity="0.25"
     inkscape:showpageshadow="2"
     inkscape:pageopacity="0.0"
     inkscape:pagecheckerboard="0"
     inkscape:deskcolor="#d1d1d1"
     inkscape:document-units="pt"
     inkscape:zoom="1.00375"
     inkscape:cx="-177.33499"
     inkscape:cy="-2.49066"
     inkscape:window-width="1862"
     inkscape:window-height="1011"
     inkscape:window-x="0"
     inkscape:window-y="0"
     inkscape:window-maximized="1"
     inkscape:current-layer="svg1" />
  <path
     d="m 42.691998,48.428363 h 8.715489 c 1.324474,0 2.528182,-0.542486 3.403283,-1.415608 0.873122,-0.873122 1.415607,-2.078859 1.415607,-3.403282 v -8.71549 c 0,-1.324474 -0.542485,-2.528181 -1.415607,-3.403283 -0.873122,-0.873121 -2.07886,-1.415606 -3.403283,-1.415606 h -8.715489 c -1.324474,0 -2.528182,0.542485 -3.403283,1.415606 -0.873122,0.873122 -1.415607,2.07886 -1.415607,3.403283 v 8.71549 c 0,1.324474 0.542485,2.528181 1.415607,3.403282 0.873122,0.873122 2.07886,1.415608 3.403283,1.415608 z M 27.327245,40.652112 h -8.715489 c -0.772653,0 -1.39937,-0.626565 -1.39937,-1.399369 0,-0.772652 0.626565,-1.39937 1.39937,-1.39937 h 8.715489 l -1.309759,-1.099686 c -0.588306,-0.495133 -0.664978,-1.373796 -0.16987,-1.961898 0.495133,-0.588306 1.373795,-0.662999 1.961899,-0.16987 l 1.660438,1.39739 c 0.496919,0.416442 0.873122,0.902452 1.12526,1.443161 0.255695,0.549843 0.387305,1.150834 0.387305,1.790237 0,0.637425 -0.131615,1.238619 -0.387305,1.790237 -0.252128,0.54071 -0.628341,1.026516 -1.12526,1.443161 l -1.660438,1.397391 c -0.588306,0.495132 -1.466959,0.420207 -1.961899,-0.16987 -0.495133,-0.588306 -0.418228,-1.466959 0.16987,-1.961899 z m 21.120446,18.322011 v 8.715491 c 0,0.772653 -0.626565,1.399366 -1.399369,1.399366 -0.772652,0 -1.39937,-0.626561 -1.39937,-1.399366 v -8.715491 l -1.099686,1.309762 c -0.495133,0.588303 -1.373796,0.664977 -1.961898,0.169865 -0.588306,-0.495128 -0.662999,-1.373791 -0.16987,-1.961895 l 1.39739,-1.660439 c 0.416442,-0.496919 0.902452,-0.873122 1.443161,-1.12526 0.549843,-0.255695 1.150834,-0.387306 1.790237,-0.387306 0.637425,0 1.238619,0.131616 1.790237,0.387306 0.54071,0.252128 1.026516,0.628341 1.443161,1.12526 l 1.397391,1.660439 c 0.495132,0.588306 0.420207,1.466958 -0.16987,1.961895 -0.588306,0.495135 -1.466959,0.41823 -1.961899,-0.169865 z M 66.769702,37.853677 h 8.715491 c 0.772653,0 1.399366,0.626566 1.399366,1.39937 0,0.772653 -0.626561,1.39937 -1.399366,1.39937 h -8.715491 l 1.309762,1.099686 c 0.588303,0.495133 0.664977,1.373795 0.169865,1.961899 -0.495128,0.588305 -1.373791,0.662998 -1.961895,0.169869 L 64.626995,42.48648 c -0.496919,-0.416441 -0.873122,-0.90245 -1.12526,-1.44316 -0.255695,-0.549843 -0.387306,-1.150834 -0.387306,-1.790237 0,-0.639454 0.131616,-1.238618 0.387306,-1.790238 0.252128,-0.540709 0.628341,-1.026515 1.12526,-1.44316 l 1.660439,-1.397391 c 0.588306,-0.495133 1.466958,-0.420206 1.961895,0.16987 0.495135,0.588306 0.41823,1.466958 -0.169865,1.961898 z M 45.649256,19.531666 v -8.715489 c 0,-0.772653 0.626566,-1.39937 1.39937,-1.39937 0.772653,0 1.39937,0.626565 1.39937,1.39937 v 8.715489 l 1.099686,-1.309759 c 0.495133,-0.588306 1.373795,-0.664978 1.961899,-0.16987 0.588305,0.495133 0.662998,1.373795 0.169869,1.961899 l -1.397391,1.660438 c -0.416441,0.496919 -0.90245,0.873122 -1.44316,1.12526 -0.549843,0.255695 -1.150834,0.387305 -1.790237,0.387305 -0.639454,0 -1.238618,-0.131615 -1.790238,-0.387305 -0.540709,-0.252128 -1.026515,-0.628341 -1.44316,-1.12526 l -1.397391,-1.660438 c -0.495133,-0.588306 -0.420206,-1.466959 0.16987,-1.961899 0.588306,-0.495133 1.466958,-0.418228 1.961898,0.16987 z m 5.756201,31.694117 h -8.715488 c -2.095301,0 -4.00052,-0.856682 -5.379694,-2.235805 -1.380951,-1.379175 -2.235805,-3.284546 -2.235805,-5.379694 v -8.715488 c 0,-2.095301 0.856681,-4.00052 2.235805,-5.379694 1.379174,-1.38095 3.284546,-2.235805 5.379694,-2.235805 h 8.715488 c 2.0953,0 4.000519,0.856681 5.379694,2.235805 1.38095,1.379174 2.235805,3.284546 2.235805,5.379694 v 8.715488 c 0,2.0953 -0.856682,4.000519 -2.235805,5.379694 -1.379175,1.38095 -3.284546,2.235805 -5.379694,2.235805 z"
     fill="#4c4c4c"
     id="path1"
     style="stroke-width:0.0507422" />
</svg>
