<?xml version="1.0" encoding="UTF-8" standalone="no"?>
<svg
   width="128"
   height="100"
   version="1.1"
   viewBox="0 0 96 75"
   id="svg6"
   sodipodi:docname="scrape_strength.svg"
   inkscape:version="1.4.2 (ebf0e940d0, 2025-05-08)"
   xmlns:inkscape="http://www.inkscape.org/namespaces/inkscape"
   xmlns:sodipodi="http://sodipodi.sourceforge.net/DTD/sodipodi-0.dtd"
   xmlns="http://www.w3.org/2000/svg"
   xmlns:svg="http://www.w3.org/2000/svg">
  <defs
     id="defs6" />
  <sodipodi:namedview
     id="namedview6"
     pagecolor="#ffffff"
     bordercolor="#000000"
     borderopacity="0.25"
     inkscape:showpageshadow="2"
     inkscape:pageopacity="0.0"
     inkscape:pagecheckerboard="0"
     inkscape:deskcolor="#d1d1d1"
     inkscape:document-units="pt"
     inkscape:zoom="2.0075"
     inkscape:cx="57.783313"
     inkscape:cy="152.17933"
     inkscape:window-width="1862"
     inkscape:window-height="1011"
     inkscape:window-x="0"
     inkscape:window-y="0"
     inkscape:window-maximized="1"
     inkscape:current-layer="svg6" />
  <path
     d="m 44.851581,42.875624 c 0.09015,0.26801 0.280194,0.470239 0.535999,0.572589 0.107207,0.04387 0.22172,0.06577 0.348417,0.06577 0.07553,0 0.155935,-0.01218 0.238778,-0.02925 l 5.004524,10.808371 -0.713871,1.905321 3.372094,3.99094 3.659584,-1.732334 L 56.410253,53.316076 54.58046,52.677727 49.495526,41.85272 c 0.304562,-0.246081 0.428821,-0.670047 0.270448,-1.135409 l -2.273219,-4.960708 0.421513,-0.197357 c 0.582312,-0.292378 0.830821,-0.991642 0.560378,-1.659251 L 46.14295,29.00998 46.64974,28.77364 c 0.375221,-0.187612 0.640788,-0.492173 0.748019,-0.857643 0.09746,-0.336238 0.05117,-0.691935 -0.109642,-0.955102 l -0.886855,-1.844398 0.543329,-0.270448 c 1.917532,-0.913675 2.736191,-3.135749 1.856614,-5.067885 l -0.07309,-0.155936 1.63243,-0.75774 c 0.684658,-0.343545 1.003806,-1.157349 0.71387,-1.880991 l -0.372783,-0.806495 5.384434,-2.52178 c 0.97215,-0.431259 1.396085,-1.525251 0.969706,-2.490073 -0.433696,-0.97215 -1.527694,-1.398528 -2.497401,-0.964822 l -5.455122,2.524194 -0.382529,-0.823544 c -0.343546,-0.687102 -1.159741,-1.006248 -1.880992,-0.716314 l -1.727447,0.80161 -0.986757,-2.08563 C 43.998828,9.581466 43.762488,9.335379 43.462801,9.206266 43.15824,9.074698 42.807406,9.074698 42.451667,9.218456 l -16.91894,7.855482 c -0.350854,0.141319 -0.621297,0.438567 -0.723643,0.799167 -0.09015,0.319177 -0.03898,0.648118 0.136443,0.916117 l 0.972151,2.117285 -1.488711,0.694378 c -0.372783,0.12426 -0.674887,0.404454 -0.825988,0.769903 -0.153497,0.370346 -0.13888,0.791838 0.03655,1.1403 l 0.389837,0.83815 -5.477475,2.565598 c -0.97215,0.43126 -1.396085,1.525252 -0.969706,2.490073 0.207102,0.467805 0.577426,0.823545 1.037954,1.006248 0.216848,0.08528 0.443437,0.129136 0.674886,0.129136 0.263141,0 0.531166,-0.05604 0.787005,-0.170551 l 5.53309,-2.592419 0.345979,0.743134 c 0.124258,0.372783 0.406891,0.674886 0.772345,0.825987 0.170551,0.07066 0.350854,0.104768 0.531167,0.104768 0.211972,0 0.421512,-0.04873 0.609134,-0.141318 l 1.564235,-0.726086 0.104767,0.229027 c 0.913675,1.919975 3.135748,2.736189 5.077658,1.851727 l 0.548215,-0.277762 0.884463,1.842008 c 0.187611,0.37522 0.492172,0.640789 0.857642,0.745577 0.116952,0.03411 0.238778,0.05117 0.35573,0.05117 0.216848,0 0.426383,-0.05604 0.592084,-0.158373 l 0.350854,-0.163243 2.358516,4.948491 c 0.211972,0.423946 0.640788,0.670052 1.113479,0.670052 0.177865,0 0.3606,-0.03411 0.543329,-0.107205 l 0.402021,-0.18761 2.224517,4.846145 z"
     fill="#4c4c4c"
     id="path1"
     style="stroke-width:0.0519783" />
  <path
     d="m 78.50234,61.363271 c -0.353291,-0.823547 -0.823544,-0.823547 -1.530138,-0.411771 -0.175426,0.116953 -0.411767,0.17543 -0.648117,0.236341 -0.05847,-0.236341 -0.175427,-0.470246 -0.175427,-0.706594 0.05847,-0.82354 0.175427,-1.705512 0.23634,-2.587529 0,-0.353293 -0.116951,-0.823547 -0.353291,-1.118364 -0.823544,-0.882024 -1.647089,-1.70552 -2.529057,-2.52906 -0.353292,-0.294816 -0.823544,-0.648117 -1.293792,-0.706594 -0.648117,-0.116953 -0.882019,-0.470239 -0.998971,-0.998969 -0.05847,-0.411771 -0.116951,-0.765072 -0.116951,-1.118365 -0.07796,-1.293794 -0.765069,-2.039318 -2.058809,-2.234235 -1.410744,-0.23634 -2.470581,-0.882023 -2.940829,-2.292711 -0.23634,-0.706594 -0.587199,-1.35227 -0.882021,-2.058813 -0.23634,-0.470239 -0.587198,-0.648118 -1.17684,-0.41177 -0.528723,0.236341 -1.118366,0.353294 -1.705513,0.470247 -1.293792,0.294817 -2.529057,0.470239 -3.764373,0.882016 -1.05989,0.353293 -1.352268,1.118372 -1.293792,2.234242 0.05847,0.587199 0,1.235311 0.05847,1.880986 0,0.41177 0.116952,0.765071 0.23634,1.118365 0.528725,1.176841 1.059891,2.292711 1.530138,3.469552 0.823545,2.058813 0.587199,4.059194 -0.587199,5.940083 -0.706593,1.118364 -1.76404,1.647088 -3.05778,1.705512 -1.880991,0.0585 -4.176145,-0.528723 -5.586628,-2.058805 -1.176841,2.175757 -1.822465,4.351568 -1.352268,6.587726 0.116951,0.587199 0.470242,0.587199 0.940495,0.587199 H 78.68493 c 0.294816,0 0.353291,-4.763338 -0.175427,-5.881859 z"
     fill="#4c4c4c"
     id="path2"
     style="stroke-width:0.0519783" />
  <path
     d="m 45.74093,59.247748 c -0.294816,-0.175422 -0.5872,-0.294809 -0.88202,-0.411762 -0.587199,-0.17543 -0.998972,0 -1.05989,0.648118 -0.05847,0.706587 0,1.410739 0.175427,2.117282 0.05847,0.236341 0.470243,0.528722 0.765069,0.528722 0.882019,0 1.647088,-0.353293 2.234235,-0.998969 0.294816,-0.294816 0.294816,-0.648118 -0.05847,-0.9405 -0.411767,-0.353286 -0.823545,-0.64811 -1.176841,-0.940493 z"
     fill="#4c4c4c"
     id="path3"
     style="stroke-width:0.0519783" />
  <path
     d="m 53.622401,41.5429 c -0.528724,0.236341 -0.823544,0.528723 -0.823544,1.118365 0,0.116953 0,0.294817 0.116951,0.470238 0.175427,0.411771 0.294816,0.823548 0.470242,1.235318 0.175427,0.41177 0.353292,0.41177 0.648118,0.116953 0.587199,-0.528723 0.88202,-1.235318 1.059889,-2.000337 0,-0.175422 -0.05847,-0.411762 -0.175427,-0.587199 -0.294815,-0.411762 -0.823543,-0.528723 -1.293791,-0.353286 z"
     fill="#4c4c4c"
     id="path4"
     style="stroke-width:0.0519783" />
  <path
     d="m 62.209218,42.071519 c 0.05847,-0.236341 -0.05847,-0.648119 -0.23634,-0.9405 -0.116951,-0.175422 -0.470243,-0.116946 -0.648118,-0.175422 -0.587199,0.353286 -0.998971,0.648118 -1.352268,0.998969 -0.116951,0.116953 -0.175426,0.470247 -0.116951,0.528723 0.5872,0.587199 2.058809,0.353293 2.353631,-0.41177 z"
     fill="#4c4c4c"
     id="path5"
     style="stroke-width:0.0519783" />
  <path
     d="m 45.974832,52.952656 c 0.294815,-0.706594 0,-1.176841 -0.5872,-1.471605 -0.882018,-0.411771 -2.058808,0.0585 -2.529056,1.059888 -0.411767,0.940493 0.353292,1.118364 0.765069,1.410739 0.998971,0.528723 1.941858,0.116953 2.35363,-0.99897 z"
     fill="#4c4c4c"
     id="path6"
     style="stroke-width:0.0519783" />
</svg>
