<?xml version="1.0" encoding="UTF-8" standalone="no"?>
<svg
   width="128"
   height="100"
   version="1.1"
   viewBox="0 0 96 75"
   id="svg1"
   sodipodi:docname="max_radius.svg"
   inkscape:version="1.4.2 (ebf0e940d0, 2025-05-08)"
   xmlns:inkscape="http://www.inkscape.org/namespaces/inkscape"
   xmlns:sodipodi="http://sodipodi.sourceforge.net/DTD/sodipodi-0.dtd"
   xmlns="http://www.w3.org/2000/svg"
   xmlns:svg="http://www.w3.org/2000/svg">
  <defs
     id="defs1" />
  <sodipodi:namedview
     id="namedview1"
     pagecolor="#ffffff"
     bordercolor="#000000"
     borderopacity="0.25"
     inkscape:showpageshadow="2"
     inkscape:pageopacity="0.0"
     inkscape:pagecheckerboard="0"
     inkscape:deskcolor="#d1d1d1"
     inkscape:document-units="pt"
     inkscape:zoom="1.04375"
     inkscape:cx="284.5509"
     inkscape:cy="72.335329"
     inkscape:window-width="1920"
     inkscape:window-height="1043"
     inkscape:window-x="0"
     inkscape:window-y="0"
     inkscape:window-maximized="1"
     inkscape:current-layer="svg1" />
  <path
     d="m 68.712488,44.528013 3.856299,-3.790216 C 72.015678,46.478904 69.274435,51.786982 64.913317,55.561431 60.55212,59.33572 54.905304,61.286693 49.144388,61.009757 43.383472,60.733046 37.949803,58.24962 33.970527,54.074551 29.991252,49.899559 27.771431,44.352979 27.771431,38.585327 c 0,-5.767652 2.219702,-11.314233 6.199096,-15.489223 3.979276,-4.174991 9.412945,-6.658671 15.173861,-6.935208 5.760916,-0.276865 11.407732,1.674197 15.768929,5.448328 4.361198,3.77429 7.102394,9.082526 7.65547,14.823634 l -3.856299,-3.790217 c -0.353781,-0.356257 -0.870814,-0.496617 -1.356298,-0.368328 -0.485326,0.128451 -0.865425,0.505927 -0.996958,0.990461 -0.131545,0.484691 0.0054,1.002544 0.359196,1.358793 l 2.562045,2.641281 H 52.112617 l 2.562045,-2.641281 h -1.59e-4 c 0.279806,-0.250556 0.439686,-0.608341 0.439686,-0.983805 0,-0.375603 -0.159869,-0.733417 -0.439686,-0.983964 -0.26309,-0.26696 -0.622286,-0.417221 -0.997116,-0.417221 -0.374826,0 -0.733853,0.150272 -0.996959,0.417221 l -4.952304,4.952305 c -0.259687,0.26433 -0.405297,0.619949 -0.405297,0.99046 0,0.370497 0.14563,0.726286 0.405297,0.990461 l 4.952304,4.952305 c 0.258138,0.278723 0.623832,0.432712 1.003615,0.42265 0.375139,0.0061 0.735397,-0.147488 0.99046,-0.42265 0.279806,-0.250401 0.439686,-0.608222 0.439686,-0.983806 0,-0.375582 -0.159869,-0.733415 -0.439686,-0.983804 l -2.562044,-2.641282 h 17.167856 l -2.562046,2.641282 v 0 c -0.258913,0.262009 -0.404068,0.615472 -0.404068,0.983804 0,0.368334 0.145166,0.721809 0.404068,0.983806 0.261237,0.270364 0.621059,0.422966 0.997118,0.422966 0.375911,0 0.735714,-0.152594 0.996958,-0.422966 z"
     fill="#4c4c4c"
     id="path1"
     style="stroke-width:0.0396184" />
</svg>
