<?xml version="1.0" encoding="UTF-8" standalone="no"?>
<svg
   width="128"
   height="100"
   version="1.1"
   viewBox="0 0 96 75"
   id="svg8"
   sodipodi:docname="scrape_count.svg"
   inkscape:version="1.4.2 (ebf0e940d0, 2025-05-08)"
   xmlns:inkscape="http://www.inkscape.org/namespaces/inkscape"
   xmlns:sodipodi="http://sodipodi.sourceforge.net/DTD/sodipodi-0.dtd"
   xmlns="http://www.w3.org/2000/svg"
   xmlns:svg="http://www.w3.org/2000/svg">
  <defs
     id="defs8" />
  <sodipodi:namedview
     id="namedview8"
     pagecolor="#ffffff"
     bordercolor="#000000"
     borderopacity="0.25"
     inkscape:showpageshadow="2"
     inkscape:pageopacity="0.0"
     inkscape:pagecheckerboard="0"
     inkscape:deskcolor="#d1d1d1"
     inkscape:document-units="pt"
     inkscape:zoom="2.0075"
     inkscape:cx="148.94147"
     inkscape:cy="178.08219"
     inkscape:window-width="1862"
     inkscape:window-height="1011"
     inkscape:window-x="0"
     inkscape:window-y="0"
     inkscape:window-maximized="1"
     inkscape:current-layer="svg8" />
  <path
     d="m 27.071263,51.313206 6.429116,6.429119 1.445843,-5.793645 -2.071306,-2.08153 z"
     fill="#4c4c4c"
     id="path1"
     style="stroke-width:0.054688" />
  <path
     d="m 74.51526,10.29778 c -2.002069,-2.002072 -5.247473,-2.002072 -7.249436,0 l 7.249436,7.25928 c 0.963879,-0.961304 1.507309,-2.268675 1.507309,-3.629913 0,-1.361238 -0.543458,-2.668609 -1.507309,-3.629914 z"
     fill="#4c4c4c"
     id="path2"
     style="stroke-width:0.054688" />
  <path
     d="m 59.294509,18.28277 6.526462,-6.526462 7.249437,7.249437 -6.526462,6.526464 z"
     fill="#4c4c4c"
     id="path3"
     style="stroke-width:0.054688" />
  <path
     d="m 55.659397,21.905301 c -0.39734,0.399905 -0.39734,1.045906 0,1.445842 l 0.728005,0.728005 -1.20997,1.209969 -4.737347,0.676763 c -0.217896,0.03077 -0.417847,0.133304 -0.574221,0.287116 l -22.999572,22.999568 5.793643,-1.486857 18.651878,-18.610858 0.153812,-0.133305 3.353026,-2.225141 c 0.03335,0.06665 0.07435,0.128174 0.123048,0.18457 l 1.31251,1.302231 -3.558108,2.378925 -18.057418,18.067266 1.445837,1.456066 18.057424,-18.057418 2.389209,-3.568393 1.322789,1.322795 c 0.05125,0.04616 0.110229,0.0846 0.174319,0.112792 l -2.225146,3.353026 c -0.03844,0.0564 -0.0846,0.107672 -0.133299,0.153811 L 37.048561,52.164891 35.613003,57.937755 58.581947,34.958414 c 0.156374,-0.161499 0.258916,-0.364013 0.297367,-0.584505 l 0.66654,-4.737342 1.209969,-1.209975 0.728005,0.72801 c 0.192263,0.192258 0.45631,0.29993 0.72801,0.297367 0.271729,0.0028 0.53577,-0.105109 0.728005,-0.297367 l 2.173848,-2.173848 -7.249437,-7.249437 z"
     fill="#4c4c4c"
     id="path4"
     style="stroke-width:0.054688" />
  <path
     d="m 24.364208,46.114569 c -0.533207,-0.674194 -1.317651,-1.099718 -2.173846,-1.179184 l -0.861336,-0.08203 c -1.371464,-0.08972 -2.555787,0.945934 -2.64553,2.317403 -0.08974,1.371464 0.945938,2.555784 2.317403,2.645528 0.271733,0 0.533207,-0.107666 0.72549,-0.29993 0.192283,-0.192263 0.299931,-0.453741 0.299931,-0.725492 0,-0.271746 -0.10767,-0.533207 -0.299931,-0.725487 -0.192261,-0.192286 -0.453741,-0.299935 -0.72549,-0.299935 -0.220459,-0.03077 -0.376833,-0.230715 -0.35889,-0.451173 0.0026,-0.120486 0.05383,-0.23584 0.143556,-0.317874 0.08972,-0.07947 0.21021,-0.115361 0.328127,-0.102542 l 0.861336,0.08203 c 0.305055,0.0282 0.584505,0.174319 0.779304,0.410159 0.29993,0.456304 0.412724,1.010035 0.317873,1.548328 -0.474248,2.268673 -1.215111,4.475881 -2.204581,6.572943 -0.240966,0.5127 -0.02051,1.122799 0.492192,1.363809 0.135866,0.06921 0.287111,0.105104 0.440921,0.102542 0.384522,-0.01539 0.730577,-0.243534 0.89207,-0.594734 1.089494,-2.284088 1.891876,-4.696322 2.389208,-7.178336 0.184572,-1.084353 -0.07434,-2.194355 -0.717779,-3.086478 z"
     fill="#4c4c4c"
     id="path5"
     style="stroke-width:0.054688" />
  <path
     d="m 52.296087,53.538459 c -0.884413,-0.651113 -1.991847,-0.920285 -3.0762,-0.748568 -2.481465,0.499881 -4.891181,1.302231 -7.178342,2.389209 -0.389651,0.292241 -0.517831,0.817749 -0.310186,1.258699 0.210214,0.440922 0.699844,0.67162 1.171529,0.556288 2.096957,-0.992096 4.301534,-1.732953 6.572943,-2.204583 0.538338,-0.09741 1.092069,0.01796 1.548329,0.317874 0.243533,0.220458 0.381963,0.533207 0.379395,0.861332 l 0.08203,0.861337 c 0.01281,0.117917 -0.02305,0.238408 -0.102541,0.328131 -0.08203,0.08972 -0.197389,0.140987 -0.317874,0.143555 -0.112792,0.0028 -0.223021,-0.04101 -0.305055,-0.120486 -0.07947,-0.0769 -0.125611,-0.187137 -0.125611,-0.299929 -0.01796,-0.566511 -0.489625,-1.012604 -1.056135,-0.994665 -0.566511,0.01796 -1.012604,0.489625 -0.994665,1.056136 0.0028,0.684472 0.289679,1.338159 0.789588,1.804703 0.499881,0.466555 1.174092,0.707548 1.855996,0.661392 0.684479,-0.04616 1.317653,-0.371708 1.753411,-0.899778 0.433228,-0.530644 0.630606,-1.215112 0.543457,-1.894448 l -0.07178,-0.902351 c -0.07434,-0.851054 -0.492193,-1.635499 -1.158727,-2.173848 z"
     fill="#4c4c4c"
     id="path6"
     style="stroke-width:0.054688" />
  <path
     d="m 32.137007,58.399129 c -2.302033,-0.274292 -4.555341,0.815175 -5.77286,2.789083 l -2.450677,3.414609 c -0.325563,0.458866 -0.220458,1.094637 0.235842,1.42528 0.174318,0.125611 0.381963,0.192257 0.594732,0.194826 0.330693,-0.0028 0.638318,-0.1615 0.8306,-0.430672 l 2.501975,-3.476074 c 0.799811,-1.330449 2.304606,-2.066165 3.845223,-1.876453 0.325562,0.04101 0.59987,0.264041 0.707548,0.574221 0.04616,0.13843 0.02305,0.292242 -0.06152,0.410159 -0.0846,0.117923 -0.223021,0.187138 -0.369144,0.184575 -0.566513,0 -1.0254,0.458867 -1.0254,1.0254 0,0.566533 0.458865,1.0254 1.0254,1.0254 0.804952,0.0028 1.561174,-0.384527 2.03286,-1.035684 0.471686,-0.653682 0.59987,-1.491944 0.346069,-2.255877 -0.364014,-1.074124 -1.315079,-1.840581 -2.440445,-1.968765 z"
     fill="#4c4c4c"
     id="path7"
     style="stroke-width:0.054688" />
  <path
     d="m 29.983397,42.279847 c 0.271733,0 0.533208,-0.107666 0.72549,-0.29993 0.192283,-0.192257 0.299931,-0.453741 0.299931,-0.725487 l 0.112794,-4.029849 c -0.0769,-1.41762 0.681904,-2.74807 1.93803,-3.404325 0.25379,-0.130736 0.56143,-0.102541 0.789588,0.07178 0.09485,0.06665 0.151243,0.176881 0.151243,0.292242 0,0.11536 -0.0564,0.225589 -0.151243,0.292241 -0.476817,0.317874 -0.604957,0.958736 -0.287111,1.435559 0.317846,0.476822 0.958731,0.604956 1.435559,0.28711 0.643458,-0.433234 1.038196,-1.151016 1.058703,-1.927751 0.02048,-0.774161 -0.335818,-1.512451 -0.956162,-1.979045 -0.856196,-0.658831 -2.017496,-0.758798 -2.973659,-0.256354 -1.963628,0.99975 -3.163372,3.05055 -3.0762,5.250047 l -0.112794,3.947816 c -0.0052,0.279422 0.10254,0.548572 0.299931,0.745994 0.197391,0.197428 0.466554,0.305055 0.745999,0.299935 z"
     fill="#4c4c4c"
     id="path8"
     style="stroke-width:0.054688" />
</svg>
