<?xml version="1.0" encoding="UTF-8" standalone="no"?>
<svg
   width="128"
   height="100"
   version="1.1"
   viewBox="0 0 96 75"
   id="svg2"
   sodipodi:docname="seed.svg"
   inkscape:version="1.4.2 (ebf0e940d0, 2025-05-08)"
   xmlns:inkscape="http://www.inkscape.org/namespaces/inkscape"
   xmlns:sodipodi="http://sodipodi.sourceforge.net/DTD/sodipodi-0.dtd"
   xmlns="http://www.w3.org/2000/svg"
   xmlns:svg="http://www.w3.org/2000/svg">
  <defs
     id="defs2" />
  <sodipodi:namedview
     id="namedview2"
     pagecolor="#ffffff"
     bordercolor="#000000"
     borderopacity="0.25"
     inkscape:showpageshadow="2"
     inkscape:pageopacity="0.0"
     inkscape:pagecheckerboard="0"
     inkscape:deskcolor="#d1d1d1"
     inkscape:document-units="pt"
     inkscape:zoom="2.9521708"
     inkscape:cx="115.84696"
     inkscape:cy="49.963234"
     inkscape:window-width="1920"
     inkscape:window-height="1043"
     inkscape:window-x="0"
     inkscape:window-y="0"
     inkscape:window-maximized="1"
     inkscape:current-layer="svg2" />
  <path
     d="M 53.015381,31.338293 H 24.110688 c -1.70846,0.0048 -3.091756,1.38847 -3.096931,3.096932 v 28.904693 c 0.0052,1.708455 1.388471,3.091751 3.096931,3.096932 h 28.904693 c 1.708462,-0.0048 3.091752,-1.388477 3.096932,-3.096932 V 34.435225 c -0.0048,-1.708462 -1.38847,-3.091758 -3.096932,-3.096932 z M 30.511563,60.552956 c -1.460706,0 -2.779475,-0.880023 -3.336923,-2.229791 -0.560035,-1.349768 -0.250337,-2.905943 0.78197,-3.938253 1.032304,-1.032311 2.588538,-1.342004 3.938249,-0.781966 1.349768,0.557447 2.229792,1.876215 2.229792,3.336922 -0.0026,1.994919 -1.61817,3.610497 -3.613088,3.613088 z m 0,-16.104047 c -1.460706,0 -2.779475,-0.880023 -3.336923,-2.229791 -0.560035,-1.349761 -0.250337,-2.905936 0.78197,-3.938246 1.032304,-1.032311 2.588538,-1.342004 3.938249,-0.781966 1.349768,0.557441 2.229792,1.876215 2.229792,3.336923 -0.0026,1.994918 -1.61817,3.610497 -3.613088,3.61308 z m 8.05257,8.052577 c -1.460703,0 -2.779472,-0.88003 -3.336921,-2.229791 -0.560034,-1.349767 -0.250336,-2.905942 0.781968,-3.938253 1.032306,-1.03231 2.588537,-1.342004 3.938249,-0.781966 1.349768,0.557448 2.229791,1.876216 2.229791,3.336923 -0.0028,1.994919 -1.618168,3.610497 -3.613087,3.613087 z m 8.052577,8.052571 c -1.460707,0 -2.779482,-0.88003 -3.336922,-2.229791 C 42.71975,56.974498 43.02945,55.418323 44.061753,54.386013 45.094057,53.353702 46.650287,53.044009 48,53.604047 c 1.349768,0.557448 2.229791,1.876215 2.229791,3.336923 -0.0028,1.994918 -1.618162,3.610497 -3.613081,3.613087 z m 0,-16.104047 c -1.460707,0 -2.779482,-0.880023 -3.336922,-2.229791 C 42.71975,40.870458 43.02945,39.314284 44.061753,38.281973 45.094057,37.249662 46.650287,36.939969 48,37.5 c 1.349768,0.557448 2.229791,1.876222 2.229791,3.336923 -0.0028,1.994919 -1.618162,3.610504 -3.613081,3.613087 z"
     fill="#4c4c4c"
     id="path1"
     style="stroke-width:0.0550565" />
  <path
     d="M 75.722906,8.6274656 H 46.818213 c -1.708462,0.00519 -3.091758,1.3884714 -3.096932,3.0969314 v 17.548728 h 9.290242 c 2.849178,0 5.161554,2.312376 5.161554,5.161553 v 9.290242 h 17.548727 c 1.708462,-0.0048 3.091759,-1.38847 3.096932,-3.096932 V 11.723296 c -0.0048,-1.70846 -1.38847,-3.0917565 -3.096932,-3.0969316 z M 53.219087,21.738083 c -1.460708,0 -2.779475,-0.880023 -3.336923,-2.229791 -0.560031,-1.349768 -0.250338,-2.905939 0.781966,-3.938249 1.032311,-1.032311 2.588541,-1.342005 3.938253,-0.78197 1.349768,0.557448 2.229791,1.876217 2.229791,3.336923 -0.0028,1.994921 -1.618168,3.610499 -3.613087,3.613087 z m 8.052577,8.052568 c -1.460707,0 -2.779482,-0.880023 -3.336929,-2.229784 -0.560031,-1.349768 -0.250331,-2.905944 0.781972,-3.938255 1.032304,-1.03231 2.588541,-1.342001 3.938247,-0.781967 1.349767,0.557448 2.229791,1.876217 2.229791,3.336926 -0.0028,1.994919 -1.618162,3.610497 -3.613081,3.61308 z m 8.052571,8.052578 c -1.460708,0 -2.779475,-0.88003 -3.33693,-2.229791 -0.560031,-1.349768 -0.250331,-2.905943 0.781973,-3.938253 1.032304,-1.032311 2.588541,-1.342004 3.938253,-0.781966 1.349761,0.557448 2.229791,1.876215 2.229791,3.336922 -0.0028,1.994919 -1.618169,3.610498 -3.613087,3.613088 z"
     fill="#4c4c4c"
     id="path2"
     style="stroke-width:0.0550565" />
</svg>
