<?xml version="1.0" encoding="UTF-8" standalone="no"?>
<svg
   width="128"
   height="100"
   version="1.1"
   viewBox="0 0 96 75"
   id="svg1"
   sodipodi:docname="width.svg"
   inkscape:version="1.4.2 (ebf0e940d0, 2025-05-08)"
   xmlns:inkscape="http://www.inkscape.org/namespaces/inkscape"
   xmlns:sodipodi="http://sodipodi.sourceforge.net/DTD/sodipodi-0.dtd"
   xmlns="http://www.w3.org/2000/svg"
   xmlns:svg="http://www.w3.org/2000/svg">
  <defs
     id="defs1" />
  <sodipodi:namedview
     id="namedview1"
     pagecolor="#ffffff"
     bordercolor="#000000"
     borderopacity="0.25"
     inkscape:showpageshadow="2"
     inkscape:pageopacity="0.0"
     inkscape:pagecheckerboard="0"
     inkscape:deskcolor="#d1d1d1"
     inkscape:document-units="pt"
     inkscape:zoom="1.4195169"
     inkscape:cx="-16.202696"
     inkscape:cy="63.754086"
     inkscape:window-width="1862"
     inkscape:window-height="1011"
     inkscape:window-x="0"
     inkscape:window-y="0"
     inkscape:window-maximized="1"
     inkscape:current-layer="svg1" />
  <path
     d="M 75.083758,57.294909 64.006556,50.854673 V 34.625287 c 0,-0.450731 -0.257651,-0.901687 -0.644026,-1.159348 L 49.194018,25.351241 V 12.535178 H 46.553629 V 25.351241 L 32.51392,33.465939 c -0.386371,0.257651 -0.644023,0.64402 -0.644023,1.159348 v 16.293792 l -11.077203,6.44023 1.288047,-4.443814 c 0.193293,-0.708371 -0.193292,-1.416741 -0.901686,-1.610057 -0.708372,-0.193294 -1.416744,0.193293 -1.610058,0.901686 l -2.189734,7.470674 c -0.06436,0.322012 -0.06436,0.708371 0.128719,1.030383 0.193293,0.322012 0.450731,0.515301 0.837338,0.64402 l 7.599476,1.93207 c 0.128718,0 0.193292,0.06437 0.322011,0.06437 0.579675,0 1.094733,-0.386369 1.288047,-0.966038 0.193293,-0.708371 -0.257653,-1.416742 -0.966035,-1.610057 L 22.080656,59.613194 33.22226,53.17296 47.261969,61.287658 c 0.193293,0.128719 0.450731,0.193289 0.644024,0.193289 0.193292,0 0.45073,-0.06436 0.644023,-0.193289 L 62.654127,53.17296 73.795735,59.613194 Z M 60.013773,34.625287 47.906132,41.645142 35.798492,34.625287 47.906132,27.605433 Z M 49.194179,43.899225 61.301818,36.87937 V 50.919079 L 49.194179,57.938934 Z M 34.446044,36.87937 46.618085,43.899225 V 57.938934 L 34.446044,50.919079 Z"
     fill="#4c4c4c"
     id="path1"
     style="stroke-width:0.0536686"
     sodipodi:nodetypes="ccsccccccscccccccccscccccsccccccccccccccccccc" />
</svg>
