<?xml version="1.0" encoding="UTF-8" standalone="no"?>
<svg
   width="128"
   height="100"
   version="1.1"
   viewBox="0 0 96 75"
   id="svg3"
   sodipodi:docname="canyon.svg"
   inkscape:version="1.4.3 (0d15f75042, 2025-12-25)"
   xml:space="preserve"
   xmlns:inkscape="http://www.inkscape.org/namespaces/inkscape"
   xmlns:sodipodi="http://sodipodi.sourceforge.net/DTD/sodipodi-0.dtd"
   xmlns="http://www.w3.org/2000/svg"
   xmlns:svg="http://www.w3.org/2000/svg"><defs
     id="defs3"><clipPath
       id="a"><path
         d="m222.14 433h755.71v334h-755.71z"
         id="path1" /></clipPath><clipPath
       id="a-5"><path
         d="m222.14 461h755.71v278h-755.71z"
         id="path1-5" /></clipPath></defs><sodipodi:namedview
     id="namedview3"
     pagecolor="#ffffff"
     bordercolor="#000000"
     borderopacity="0.25"
     inkscape:showpageshadow="2"
     inkscape:pageopacity="0.0"
     inkscape:pagecheckerboard="0"
     inkscape:deskcolor="#d1d1d1"
     inkscape:document-units="pt"
     inkscape:zoom="5.6780674"
     inkscape:cx="94.838607"
     inkscape:cy="82.950759"
     inkscape:window-width="1848"
     inkscape:window-height="1011"
     inkscape:window-x="0"
     inkscape:window-y="0"
     inkscape:window-maximized="1"
     inkscape:current-layer="svg3" /><path
     d="M 8.6986271,35.424261 H 22.487582 c 5.096891,0 8.25375,1.895488 12.850521,6.482558 0.224268,0.223826 1.00148,1.004558 1.143378,1.146429 4.530223,4.529771 7.34565,6.159971 12.329421,6.159971 4.984097,0 7.799416,-1.6302 12.329413,-6.159971 0.14187,-0.141871 0.919083,-0.922613 1.143378,-1.146429 4.597223,-4.58707 7.754082,-6.482558 12.850521,-6.482558 h 13.788954 c 1.38431,0 2.507054,1.122641 2.507054,2.507052 v 26.323655 c 0,1.384761 -1.122635,2.507052 -2.507054,2.507052 H 8.6979486 c -1.38431,0 -2.5070523,-1.1222 -2.5070523,-2.507052 V 37.931313 c 0,-1.38431 1.1226428,-2.507052 2.5070523,-2.507052 z"
     fill="#4c4c4c"
     id="path2-8"
     style="stroke-width:0.112794" /></svg>
