<?xml version="1.0" encoding="UTF-8" standalone="no"?>
<svg
   width="128"
   height="100"
   version="1.1"
   viewBox="0 0 96 75"
   id="svg3"
   sodipodi:docname="plateau.svg"
   inkscape:version="1.4.3 (0d15f75042, 2025-12-25)"
   xml:space="preserve"
   xmlns:inkscape="http://www.inkscape.org/namespaces/inkscape"
   xmlns:sodipodi="http://sodipodi.sourceforge.net/DTD/sodipodi-0.dtd"
   xmlns="http://www.w3.org/2000/svg"
   xmlns:svg="http://www.w3.org/2000/svg"><defs
     id="defs3"><clipPath
       id="a"><path
         d="m222.14 433h755.71v334h-755.71z"
         id="path1" /></clipPath></defs><sodipodi:namedview
     id="namedview3"
     pagecolor="#ffffff"
     bordercolor="#000000"
     borderopacity="0.25"
     inkscape:showpageshadow="2"
     inkscape:pageopacity="0.0"
     inkscape:pagecheckerboard="0"
     inkscape:deskcolor="#d1d1d1"
     inkscape:document-units="pt"
     inkscape:zoom="0.70975843"
     inkscape:cx="-274.0369"
     inkscape:cy="4.2267903"
     inkscape:window-width="1848"
     inkscape:window-height="1011"
     inkscape:window-x="0"
     inkscape:window-y="0"
     inkscape:window-maximized="1"
     inkscape:current-layer="svg3" /><path
     d="m 59.555,29.134542 c 6.59743,0 3.471835,2.24315 8.841785,7.6122 0.14772,0.14772 0.9202,0.92415 1.13654,1.14003 3.73266,3.72388 5.86934,5.00675 9.28989,5.00675 h 9.75906 c 1.38134,0 2.50168,1.12023 2.50168,2.50168 v 18.762339 c 0,1.381795 -1.12024,2.501683 -2.50168,2.501683 H 8.5288653 c -1.3813401,0 -2.5016801,-1.119798 -2.5016801,-2.501683 V 45.395202 c 0,-1.38135 1.12024,-2.50168 2.5016801,-2.50168 h -4.5e-4 9.7593697 c 3.42055,0 5.55723,-1.28287 9.28944,-5.00675 0.21675,-0.21587 0.98923,-0.9923 1.13699,-1.14003 5.36905,-5.36905 2.244025,-7.6122 8.840785,-7.6122"
     fill="#4c4c4c"
     id="path2"
     style="stroke-width:0.112552"
     sodipodi:nodetypes="cccssssssssccsccc" /></svg>
