<?xml version="1.0" encoding="UTF-8" standalone="no"?>
<svg
   width="128"
   height="100"
   version="1.1"
   viewBox="0 0 96 75"
   id="svg3"
   sodipodi:docname="water_level.svg"
   inkscape:version="1.4.3 (0d15f75042, 2025-12-25)"
   xml:space="preserve"
   xmlns:inkscape="http://www.inkscape.org/namespaces/inkscape"
   xmlns:sodipodi="http://sodipodi.sourceforge.net/DTD/sodipodi-0.dtd"
   xmlns="http://www.w3.org/2000/svg"
   xmlns:svg="http://www.w3.org/2000/svg"><defs
     id="defs3" /><sodipodi:namedview
     id="namedview3"
     pagecolor="#ffffff"
     bordercolor="#000000"
     borderopacity="0.25"
     inkscape:showpageshadow="2"
     inkscape:pageopacity="0.0"
     inkscape:pagecheckerboard="0"
     inkscape:deskcolor="#d1d1d1"
     inkscape:document-units="pt"
     inkscape:zoom="2.8390337"
     inkscape:cx="51.073715"
     inkscape:cy="95.807245"
     inkscape:window-width="1848"
     inkscape:window-height="1011"
     inkscape:window-x="0"
     inkscape:window-y="0"
     inkscape:window-maximized="1"
     inkscape:current-layer="svg3" /><path
     d="m 81.173725,5.2926534 h -3.67807 c -1.015304,0 -1.839043,0.8237395 -1.839043,1.839035 0,1.0153035 0.823739,1.839043 1.839043,1.839043 h 1.839035 v 4.2025066 h -1.839035 c -1.015304,0 -1.839043,0.823732 -1.839043,1.839035 0,1.015303 0.823739,1.839035 1.839043,1.839035 h 1.839035 v 4.202507 h -1.839035 c -1.015304,0 -1.839043,0.823739 -1.839043,1.839043 0,1.015303 0.823739,1.839035 1.839043,1.839035 h 1.839035 v 4.202506 h -1.839035 c -1.015304,0 -1.839043,0.82374 -1.839043,1.839035 0,1.015304 0.823739,1.839043 1.839043,1.839043 h 1.839035 v 4.204856 h -1.839035 c -1.015304,0 -1.839043,0.823739 -1.839043,1.839035 0,1.015303 0.823739,1.839042 1.839043,1.839042 h 1.839035 v 4.202507 h -1.839035 c -1.015304,0 -1.839043,0.823731 -1.839043,1.839035 0,1.015304 0.823739,1.839035 1.839043,1.839035 h 1.839035 v 4.202507 h -1.839035 c -1.015304,0 -1.839043,0.823739 -1.839043,1.839043 0,1.015303 0.823739,1.839035 1.839043,1.839035 h 1.839035 v 4.207259 h -1.839035 c -1.015304,0 -1.839043,0.823731 -1.839043,1.839035 0,1.015304 0.823739,1.839043 1.839043,1.839043 h 3.67807 c 1.015303,0 1.839035,-0.823739 1.839035,-1.839043 V 7.131744 c 0,-1.0153035 -0.823732,-1.8390429 -1.839035,-1.8390429 z M 70.139499,31.039175 c -1.575642,0.03111 -3.112979,-0.474118 -4.365309,-1.434341 -0.672887,-0.541186 -1.630714,-0.541186 -2.306005,0 -2.598094,1.90131 -6.130119,1.90131 -8.728277,0 -0.672878,-0.541186 -1.630713,-0.541186 -2.305996,0 -2.598102,1.90131 -6.130127,1.90131 -8.728277,0 -0.672887,-0.541186 -1.630714,-0.541186 -2.305996,0 -2.598103,1.90131 -6.130128,1.90131 -8.728278,0 -0.672886,-0.541186 -1.630714,-0.541186 -2.306004,0 -1.249982,0.960232 -2.787262,1.465507 -4.362913,1.434341 -1.015296,0 -1.839035,0.82374 -1.839035,1.839043 v 29.424601 c 0,1.015303 0.823739,1.839034 1.839035,1.839034 h 44.136904 c 1.015303,0 1.839035,-0.823731 1.839035,-1.839034 V 32.878218 c 0,-1.015303 -0.823732,-1.839043 -1.839035,-1.839043 z m -1.839035,10.816606 c -0.921918,-0.215509 -1.781568,-0.629763 -2.526274,-1.216419 -0.672887,-0.541187 -1.630714,-0.541187 -2.306005,0 -2.598094,1.90131 -6.130119,1.90131 -8.728277,0 -0.672878,-0.541187 -1.630713,-0.541187 -2.305996,0 -2.598102,1.90131 -6.130127,1.90131 -8.728277,0 -0.672887,-0.541187 -1.630714,-0.541187 -2.305996,0 -2.598103,1.90131 -6.130128,1.90131 -8.728278,0 -0.672886,-0.541187 -1.630714,-0.541187 -2.306004,0 -0.742303,0.584307 -1.604356,1.00095 -2.526274,1.216419 l 0.0024,-7.284629 c 1.295445,-0.203536 2.543031,-0.64652 3.678078,-1.305053 3.419485,1.946774 7.614637,1.946774 11.034218,0 3.419494,1.946774 7.614637,1.946774 11.034226,0 3.419485,1.946774 7.614638,1.946774 11.034226,0 1.135047,0.658533 2.382633,1.101485 3.678078,1.305053 z"
     fill="#4c4c4c"
     id="path1"
     style="stroke-width:0.0510844" /></svg>
