<?xml version="1.0" encoding="UTF-8" standalone="no"?>
<svg
   width="128"
   height="100"
   version="1.1"
   viewBox="0 0 96 75"
   id="svg1"
   sodipodi:docname="climb_rate.svg"
   inkscape:version="1.4.2 (ebf0e940d0, 2025-05-08)"
   xml:space="preserve"
   xmlns:inkscape="http://www.inkscape.org/namespaces/inkscape"
   xmlns:sodipodi="http://sodipodi.sourceforge.net/DTD/sodipodi-0.dtd"
   xmlns="http://www.w3.org/2000/svg"
   xmlns:svg="http://www.w3.org/2000/svg"><defs
     id="defs1" /><sodipodi:namedview
     id="namedview1"
     pagecolor="#ffffff"
     bordercolor="#000000"
     borderopacity="0.25"
     inkscape:showpageshadow="2"
     inkscape:pageopacity="0.0"
     inkscape:pagecheckerboard="0"
     inkscape:deskcolor="#d1d1d1"
     inkscape:document-units="pt"
     inkscape:zoom="2.0875"
     inkscape:cx="25.868264"
     inkscape:cy="131.49701"
     inkscape:window-width="1862"
     inkscape:window-height="1011"
     inkscape:window-x="0"
     inkscape:window-y="0"
     inkscape:window-maximized="1"
     inkscape:current-layer="svg1" /><path
     d="m 55.990532,20.222511 v 8.201637 H 45.445573 v 8.143045 H 34.900615 V 44.76883 H 24.355657 l -0.05854,8.143052 H 13.752154 v 11.013623 h 55.65395 V 20.222511 Z"
     fill="#4c4c4c"
     id="path1"
     style="stroke-width:0.0488193" /><g
     inkscape:label="Layer 1"
     id="layer1"
     transform="matrix(2.8346457,0,0,2.8346457,-16.453837,-354.86209)"><g
       id="g23069"
       inkscape:export-filename="g23069.png"
       inkscape:export-xdpi="96"
       inkscape:export-ydpi="96"
       transform="matrix(2.5191547,0,0,2.5191547,-44.05364,-196.04964)" /><g
       id="path1-9"
       style="opacity:1"
       transform="translate(-23.828343,-6.7175648)"><path
         style="baseline-shift:baseline;display:inline;overflow:visible;vector-effect:none;fill:#4c4c4c;enable-background:accumulate;stop-color:#000000;stop-opacity:1"
         d="m 57.553254,154.01689 v -8.39783"
         id="path17" /><path
         style="baseline-shift:baseline;display:inline;overflow:visible;vector-effect:none;fill:#4c4c4c;stroke-width:1.38516;enable-background:accumulate;stop-color:#000000;stop-opacity:1"
         d="m 56.789062,137.90368 v 16.1139 h 1.529297 v -16.1139 z"
         id="path18" /><g
         id="g11"><g
           id="path11"
           style="opacity:1"><path
             style="baseline-shift:baseline;display:inline;overflow:visible;vector-effect:none;fill:#4c4c4c;fill-rule:evenodd;enable-background:accumulate;stop-color:#000000;stop-opacity:1"
             d="m 57.553254,155.34024 -1.14675,-1.98388 h 2.2935 z"
             id="path12" /><path
             style="baseline-shift:baseline;display:inline;overflow:visible;vector-effect:none;fill:#4c4c4c;fill-rule:evenodd;enable-background:accumulate;stop-color:#000000;stop-opacity:1"
             d="m 56.140625,153.20312 1.412109,2.44336 1.41211,-2.44336 z m 0.53125,0.30665 h 1.763672 l -0.882813,1.52343 z"
             id="path13" /></g><g
           id="path14"
           style="opacity:1"><path
             style="baseline-shift:baseline;display:inline;overflow:visible;vector-effect:none;fill:#4c4c4c;fill-rule:evenodd;enable-background:accumulate;stop-color:#000000;stop-opacity:1"
             d="m 57.553254,135.82904 1.14675,1.98388 h -2.2935 z"
             id="path15"
             sodipodi:nodetypes="cccc" /><path
             style="baseline-shift:baseline;display:inline;overflow:visible;vector-effect:none;fill:#4c4c4c;fill-rule:evenodd;enable-background:accumulate;stop-color:#000000;stop-opacity:1"
             d="m 57.552734,135.52356 -1.412109,2.44141 h 2.824219 z m 0,0.61133 0.882813,1.52539 h -1.763672 z"
             id="path16"
             sodipodi:nodetypes="cccccccc" /></g></g></g></g><path
     d="m -504.18022,-511.34108 v -6.85308 h 14.84834 c 0.92814,0 1.42773,-1.14212 0.71387,-1.78466 l -17.56103,-17.63241 c -0.78519,-0.78519 -2.07026,-0.78519 -2.85545,0 l -17.63241,17.63241 c -0.64254,0.64254 -0.21426,1.78466 0.71386,1.78466 h 14.84835 v 3.99757 c 0,0.78519 -0.28559,1.49905 -0.85652,1.99894 l -5.4253,5.35397 c -1.14212,1.07079 -1.14212,2.92678 0,3.99757 l 9.85131,9.77992 c 1.14212,1.07079 1.14212,2.85545 0,3.99757 l -9.3522,9.42299 4.85439,4.85439 14.34864,-14.34865 c 1.07079,-1.07079 1.07079,-2.92677 0,-3.99757 l -9.85131,-9.70853 c -1.14212,-1.0708 -1.14212,-2.92678 0,-3.99757 l 2.49852,-2.49852 c 0.57119,-0.57096 0.85676,-1.28484 0.85676,-1.9987 z"
     fill="#4c4c4c"
     id="path1-2"
     style="stroke-width:0.0594886" /></svg>
