<?xml version="1.0" encoding="UTF-8" standalone="no"?>
<svg
   width="128"
   height="100"
   version="1.1"
   viewBox="0 0 96 75"
   id="svg1"
   sodipodi:docname="clump_min.svg"
   inkscape:version="1.4.2 (ebf0e940d0, 2025-05-08)"
   xmlns:inkscape="http://www.inkscape.org/namespaces/inkscape"
   xmlns:sodipodi="http://sodipodi.sourceforge.net/DTD/sodipodi-0.dtd"
   xmlns="http://www.w3.org/2000/svg"
   xmlns:svg="http://www.w3.org/2000/svg">
  <defs
     id="defs1" />
  <sodipodi:namedview
     id="namedview1"
     pagecolor="#ffffff"
     bordercolor="#000000"
     borderopacity="0.25"
     inkscape:showpageshadow="2"
     inkscape:pageopacity="0.0"
     inkscape:pagecheckerboard="0"
     inkscape:deskcolor="#d1d1d1"
     inkscape:document-units="pt"
     inkscape:zoom="2.0875"
     inkscape:cx="146.10778"
     inkscape:cy="179.88024"
     inkscape:window-width="1920"
     inkscape:window-height="1043"
     inkscape:window-x="0"
     inkscape:window-y="0"
     inkscape:window-maximized="1"
     inkscape:current-layer="svg1" />
  <path
     d="m 53.32455,36.339453 c 0,-5.879693 4.838483,-10.720711 10.72071,-10.720711 h 1.518851 v 4.009184 c 0,0.356424 0.191026,0.661571 0.512479,0.817671 0.321452,0.156099 0.680257,0.114149 0.959755,-0.107158 l 9.884307,-7.866594 c 0.223632,-0.179376 0.342443,-0.423977 0.342443,-0.710522 0,-0.286546 -0.118811,-0.533451 -0.342443,-0.710523 l -9.884307,-7.866593 c -0.279548,-0.221306 -0.638313,-0.263242 -0.959755,-0.107156 -0.321482,0.156079 -0.512479,0.461249 -0.512479,0.81767 v 4.009184 H 64.04526 c -5.912492,0 -11.197805,2.821119 -14.575734,7.184248 -3.377879,-4.363278 -8.663242,-7.184248 -14.575735,-7.184248 H 33.37494 v -4.009184 c 0,-0.356424 -0.191026,-0.661571 -0.512479,-0.81767 -0.321481,-0.15608 -0.680257,-0.11415 -0.959754,0.107156 l -9.888779,7.869078 c -0.223638,0.179377 -0.342444,0.423979 -0.342444,0.710523 0,0.286545 0.118806,0.533451 0.342444,0.710524 l 9.884306,7.866592 c 0.279548,0.221307 0.638312,0.263241 0.959755,0.107157 0.321443,-0.156084 0.512479,-0.461251 0.512479,-0.81767 v -4.009185 h 1.51885 c 5.879693,0 10.720712,4.838485 10.720712,10.720712 v 30.903795 c 0,0.73383 0.60104,1.334823 1.334821,1.334823 h 5.045771 c 0.733831,0 1.334821,-0.601037 1.334821,-1.334823 z"
     fill="#4c4c4c"
     fill-rule="evenodd"
     id="path1"
     style="stroke-width:0.0496973" />
</svg>
