<?xml version="1.0" encoding="UTF-8" standalone="no"?>
<svg
   width="128"
   height="100"
   version="1.1"
   viewBox="0 0 96 75"
   id="svg1"
   sodipodi:docname="clump_max.svg"
   inkscape:version="1.4.2 (ebf0e940d0, 2025-05-08)"
   xml:space="preserve"
   xmlns:inkscape="http://www.inkscape.org/namespaces/inkscape"
   xmlns:sodipodi="http://sodipodi.sourceforge.net/DTD/sodipodi-0.dtd"
   xmlns="http://www.w3.org/2000/svg"
   xmlns:svg="http://www.w3.org/2000/svg"><defs
     id="defs1" /><sodipodi:namedview
     id="namedview1"
     pagecolor="#ffffff"
     bordercolor="#000000"
     borderopacity="0.25"
     inkscape:showpageshadow="2"
     inkscape:pageopacity="0.0"
     inkscape:pagecheckerboard="0"
     inkscape:deskcolor="#d1d1d1"
     inkscape:document-units="pt"
     inkscape:zoom="1.4760854"
     inkscape:cx="137.52592"
     inkscape:cy="108.05608"
     inkscape:window-width="1862"
     inkscape:window-height="1011"
     inkscape:window-x="0"
     inkscape:window-y="0"
     inkscape:window-maximized="1"
     inkscape:current-layer="svg1" /><path
     d="M 71.242659,39.206781 C 71.066382,39.060114 70.825442,39.018432 70.60984,39.096537 l -9.423237,3.455802 c -0.215229,0.07908 -0.372617,0.267241 -0.411569,0.493376 -0.03954,0.223804 0.0448,0.45559 0.220881,0.602655 l 1.534108,1.280698 -4.044394,4.899104 c -0.701034,0.849228 -1.394239,1.351558 -1.90205,1.378631 -0.362095,0.01949 -0.738581,-0.216395 -0.914301,-0.365015 l -0.01558,-0.0183 c -0.02903,-0.03368 -0.06097,-0.06486 -0.09564,-0.0933 l -1.888587,-1.559235 0.05941,-0.06915 -5.054182,-4.225744 -0.0066,-1.657569 c 0.0088,-0.321971 0.137709,-1.235673 0.633419,-1.751462 0.333463,-0.347096 0.874558,-0.522972 1.654277,-0.53738 l 3.432017,-0.06467 c 0.767053,0.03779 3.270559,-0.0028 5.306992,-1.873779 1.707431,-1.568957 2.545191,-3.859197 2.489891,-6.807887 l -0.11862,-6.318724 2.064104,-0.02766 c 0.230038,-0.003 0.440202,-0.127779 0.552392,-0.328202 0.112,-0.200039 0.108688,-0.444686 -0.0084,-0.642398 l -5.133979,-8.62445 c -0.009,-0.01502 -0.0187,-0.02961 -0.02843,-0.04384 -0.121543,-0.170817 -0.31983,-0.272494 -0.531946,-0.269967 -0.229064,0.003 -0.439229,0.128359 -0.551991,0.328203 l -4.903195,8.757558 c -0.111998,0.200234 -0.108882,0.445265 0.0088,0.642392 0.11531,0.195759 0.330541,0.316717 0.559969,0.313603 l 1.998037,-0.0265 0.119204,6.351634 c 0.02065,1.101096 -0.178611,1.933568 -0.546555,2.284756 -0.262173,0.250487 -0.701582,0.31652 -0.931653,0.318076 l -0.02357,-0.0039 c -0.04422,-0.0066 -0.08882,-0.0096 -0.13362,-0.0088 l -3.672559,0.06895 -0.06486,0.001 c -3.000996,0.05629 -4.834433,1.320389 -5.844023,2.370867 -0.902034,0.938637 -1.450135,2.006217 -1.783973,2.979956 l -1.847698,-1.544778 c -0.238802,-0.21601 -0.84848,-0.908666 -0.917043,-1.62077 -0.04636,-0.478965 0.172184,-1.004304 0.668872,-1.605561 l 2.185026,-2.647461 c 0.528056,-0.557677 2.126585,-2.484412 2.031944,-5.248151 -0.07927,-2.317514 -1.27252,-4.444301 -3.546753,-6.321722 l -4.873576,-4.023203 1.322734,-1.584912 c 0.147641,-0.176471 0.189522,-0.417222 0.110438,-0.632824 -0.07888,-0.21523 -0.266656,-0.372023 -0.492987,-0.411758 l -9.888969,-1.71749 c -0.01714,-0.003 -0.03467,-0.0055 -0.05181,-0.0072 -0.208998,-0.01887 -0.415075,0.06545 -0.551242,0.228082 -0.146669,0.17608 -0.188545,0.417027 -0.110244,0.632672 l 3.456001,9.423237 c 0.07888,0.215236 0.267045,0.372425 0.493376,0.411379 0.223414,0.03975 0.45559,-0.04481 0.602453,-0.220883 l 1.280699,-1.533906 4.899106,4.044194 c 0.849229,0.700835 1.351555,1.394239 1.378631,1.902197 0.01928,0.361905 -0.216398,0.738434 -0.365017,0.914306 l -0.01831,0.01539 c -0.03389,0.02925 -0.06486,0.06136 -0.09369,0.09564 l -2.338506,2.832708 -0.04129,0.05007 c -1.910776,2.314578 -2.144736,4.529221 -2.004669,5.979653 0.319636,3.303072 2.770376,5.413702 3.053352,5.647561 l 5.160891,4.314356 0.09311,19.336138 h 5.974166 l -0.07304,-14.325337 0.770943,0.644536 2.047352,1.81419 c 0.557476,0.528058 2.484408,2.126587 5.248152,2.032145 2.317514,-0.07947 4.444501,-1.272669 6.321717,-3.547152 l 4.023199,-4.873375 1.584918,1.322731 c 0.176474,0.147644 0.417414,0.189523 0.632819,0.110441 0.215619,-0.07888 0.372223,-0.266851 0.411766,-0.49299 l 1.717353,-9.888964 c 0.0028,-0.01735 0.0051,-0.03445 0.007,-0.05181 0.0189,-0.208999 -0.06564,-0.415075 -0.228282,-0.551043 z"
     fill="#4c4c4c"
     id="path1-7"
     style="stroke-width:0.0498638" /></svg>
