<?xml version="1.0" encoding="UTF-8" standalone="no"?>
<svg
   width="128"
   height="100"
   version="1.1"
   viewBox="0 0 96 75"
   id="svg1"
   sodipodi:docname="grow_amount.svg"
   inkscape:version="1.4.2 (ebf0e940d0, 2025-05-08)"
   xmlns:inkscape="http://www.inkscape.org/namespaces/inkscape"
   xmlns:sodipodi="http://sodipodi.sourceforge.net/DTD/sodipodi-0.dtd"
   xmlns="http://www.w3.org/2000/svg"
   xmlns:svg="http://www.w3.org/2000/svg">
  <defs
     id="defs1" />
  <sodipodi:namedview
     id="namedview1"
     pagecolor="#ffffff"
     bordercolor="#000000"
     borderopacity="0.25"
     inkscape:showpageshadow="2"
     inkscape:pageopacity="0.0"
     inkscape:pagecheckerboard="0"
     inkscape:deskcolor="#d1d1d1"
     inkscape:document-units="pt"
     inkscape:zoom="1.4760854"
     inkscape:cx="16.259222"
     inkscape:cy="25.405034"
     inkscape:window-width="1920"
     inkscape:window-height="1043"
     inkscape:window-x="0"
     inkscape:window-y="0"
     inkscape:window-maximized="1"
     inkscape:current-layer="svg1" />
  <path
     d="m 48.669839,19.222448 c -0.429258,0.01361 -0.826732,0.230869 -1.070198,0.585038 l -4.378523,6.372191 -4.384426,6.371836 c -0.186855,0.271735 -0.267893,0.602499 -0.227726,0.930084 0.0398,0.327275 0.19839,0.628688 0.445326,0.847346 0.247284,0.218641 0.565472,0.339495 0.89557,0.339495 h 4.029545 c -1.597565,4.458461 -5.356092,7.800314 -9.927661,8.68051 v -5.309683 c 0,-0.334957 -0.124687,-0.658039 -0.349625,-0.906395 -0.224584,-0.248329 -0.533697,-0.404456 -0.867249,-0.437636 -0.33321,-0.0332 -0.667108,0.05833 -0.936791,0.257413 l -6.133636,4.531155 h -0.0013 l -6.140249,4.524537 3.55e-4,3.58e-4 c -0.345432,0.254625 -0.549403,0.658034 -0.549753,1.08692 0,0.428911 0.203624,0.832668 0.548706,1.087633 l 6.141686,4.532226 v -3.6e-4 3.6e-4 l 6.134616,4.525521 c 0.269638,0.198738 0.60355,0.290596 0.936795,0.257067 0.33321,-0.03351 0.642315,-0.189311 0.866898,-0.437987 0.224929,-0.248334 0.349267,-0.571411 0.349267,-0.906394 v -5.00299 c 6.264897,-0.447073 11.666767,-4.135764 14.661246,-9.437666 3.024704,5.353674 8.506241,9.063021 14.844547,9.451076 v 5.50076 c 0,0.334608 0.124687,0.65769 0.349266,0.906037 0.224583,0.248329 0.533342,0.404456 0.866552,0.437986 0.333211,0.03351 0.667109,-0.05798 0.936791,-0.256371 l 6.141684,-4.52552 v -3.55e-4 h 8.86e-4 l 6.134979,-4.532227 c 0.345082,-0.254974 0.548355,-0.658383 0.548009,-1.086918 0,-0.428912 -0.203624,-0.831972 -0.54871,-1.086561 l -6.134644,-4.525521 v -3.59e-4 l -6.141329,-4.531867 h -3.6e-4 c -0.269287,-0.198745 -0.603194,-0.290248 -0.936431,-0.256718 -0.333561,0.03316 -0.642315,0.189306 -0.867248,0.437636 -0.224584,0.24833 -0.349271,0.571061 -0.349271,0.906035 v 4.833283 C 58.90128,42.558433 55.069704,39.186232 53.451841,34.668315 h 4.029898 c 0.330064,0 0.648255,-0.120502 0.895574,-0.339151 0.246934,-0.218643 0.405511,-0.52007 0.445677,-0.847691 0.0398,-0.327275 -0.04122,-0.658033 -0.22808,-0.930088 l -4.384781,-6.372191 -4.384785,-6.372551 h -3.55e-4 c -0.26091,-0.378266 -0.696459,-0.597955 -1.156125,-0.582937 z"
     fill="#4c4c4c"
     fill-rule="evenodd"
     id="path1"
     style="stroke-width:0.0894142" />
</svg>
