<?xml version="1.0" encoding="UTF-8" standalone="no"?>
<svg
   width="128"
   height="100"
   version="1.1"
   viewBox="0 0 96 75"
   id="svg1"
   sodipodi:docname="sweep_amount.svg"
   inkscape:version="1.4.2 (ebf0e940d0, 2025-05-08)"
   xmlns:inkscape="http://www.inkscape.org/namespaces/inkscape"
   xmlns:sodipodi="http://sodipodi.sourceforge.net/DTD/sodipodi-0.dtd"
   xmlns="http://www.w3.org/2000/svg"
   xmlns:svg="http://www.w3.org/2000/svg">
  <defs
     id="defs1" />
  <sodipodi:namedview
     id="namedview1"
     pagecolor="#ffffff"
     bordercolor="#000000"
     borderopacity="0.25"
     inkscape:showpageshadow="2"
     inkscape:pageopacity="0.0"
     inkscape:pagecheckerboard="0"
     inkscape:deskcolor="#d1d1d1"
     inkscape:document-units="pt"
     inkscape:zoom="2.9521708"
     inkscape:cx="54.197406"
     inkscape:cy="102.8057"
     inkscape:window-width="1920"
     inkscape:window-height="1043"
     inkscape:window-x="0"
     inkscape:window-y="0"
     inkscape:window-maximized="1"
     inkscape:current-layer="svg1" />
  <path
     d="M 46.804842,43.143384 C 40.487915,42.458507 37.348821,34.875592 41.590417,29.94668 39.359403,23.591012 45.56221,17.447863 51.897625,19.746288 c 2.861434,-5.883589 11.409656,-6.070651 14.398215,-0.06745 6.5217,-2.363342 12.80487,4.189684 10.148371,10.605514 6.423194,2.563077 6.734776,11.489905 0.671928,14.590259 2.166206,6.581471 -4.568455,12.685881 -10.911561,9.829592 -4.695581,3.938031 -11.827501,1.307492 -13.010195,-4.576263 -0.549977,-0.114148 -1.076602,-0.280177 -1.579897,-0.490312 l 6.150899,-6.150898 6.361203,1.707022 c 2.090941,0.55775 4.044406,-0.617415 4.60216,-2.677252 0.557754,-2.059837 -0.537004,-4.057356 -2.635741,-4.622914 l -2.158405,-0.578507 c 1.473526,-1.533187 1.413865,-3.785011 -0.08043,-5.274091 -1.515032,-1.515032 -3.797959,-1.561742 -5.333749,-0.02073 l -2.46451,2.46451 -0.25164,-0.936525 c -0.565558,-2.098744 -2.563077,-3.193497 -4.622914,-2.643549 -2.064985,0.54998 -3.248011,2.503419 -2.690202,4.596958 l 1.380164,5.159914 -3.001511,2.996363 C 46.85166,43.489298 46.82571,43.315489 46.80495,43.14427 Z M 59.583701,33.080795 55.29285,37.371646 54.369272,33.936905 c -0.778241,-2.908143 -5.198875,-1.727774 -4.423176,1.17517 l 1.6084,5.998149 -6.288153,6.28317 c -2.18436,2.18436 -3.286915,4.840856 -3.286915,7.9302 v 8.986155 h -3.268712 c -3.014514,0 -3.014514,4.589205 0,4.589205 h 11.131831 c 3.014515,0 3.014515,-4.589205 0,-4.589205 l -3.276512,-0.0024 v -7.079714 c 0,-3.087126 1.102558,-5.74357 3.281715,-7.923003 l 7.476931,-7.476936 7.199111,1.924912 c 2.895139,0.783444 4.091112,-3.626731 1.188173,-4.410231 l -4.656676,-1.247832 1.766685,-1.774432 c 2.140248,-2.129846 -1.107763,-5.377857 -3.237608,-3.240205 z m -37.883863,2.677253 c -0.41248,0 -0.744539,-0.332063 -0.744539,-0.74454 0,-0.412481 0.332062,-0.74454 0.744539,-0.74454 H 35.70622 c 0.412481,0 0.74454,0.332062 0.74454,0.74454 0,0.412481 -0.332063,0.74454 -0.74454,0.74454 z m 2.851084,-8.641365 H 37.12999 c 0.412485,0 0.74454,-0.332062 0.74454,-0.74454 0,-0.412478 -0.332062,-0.74454 -0.74454,-0.74454 l -12.579068,0.0024 c -0.412481,0 -0.744537,0.332062 -0.744537,0.74454 0,0.404701 0.332063,0.741935 0.744537,0.741935 z m 4.500992,-11.907751 c -0.41248,0 -0.744539,-0.332059 -0.744539,-0.744536 0,-0.412477 0.332062,-0.744539 0.744539,-0.744539 h 6.109392 c 0.412481,0 0.744537,0.332062 0.744537,0.744539 0,0.412477 -0.332059,0.744536 -0.744537,0.744536 z m 9.624268,-2.384094 c 0.596663,-1.06365 1.707022,-1.707022 2.921096,-1.707022 1.852298,0 3.346577,1.502083 3.346577,3.34658 0,1.852297 -1.50208,3.346577 -3.346577,3.346577 l -16.157037,0.0024 c -0.41248,0 -0.744539,0.332062 -0.744539,0.744539 0,0.412478 0.332062,0.74454 0.744539,0.74454 h 16.157037 c 2.677252,0 4.840856,-2.171356 4.840856,-4.84086 0,-2.677248 -2.171353,-4.8408552 -4.840856,-4.8408552 -1.745927,0 -3.36733,0.9494782 -4.223385,2.4775142 -0.19976,0.358008 -0.07265,0.817206 0.285359,1.016941 0.358009,0.194566 0.817206,0.06745 1.016941,-0.290553 z m 24.386092,8.46205 c -0.757544,-1.527985 -2.272525,-2.438554 -3.971794,-2.423003 -1.694017,0.01297 -3.201301,0.928724 -3.945841,2.464509 -0.179002,0.370975 -0.02595,0.817206 0.345036,0.996188 0.370974,0.179006 0.817202,0.02595 0.996184,-0.345036 0.490314,-1.009136 1.494282,-1.621404 2.609789,-1.626603 1.128512,-0.0078 2.119496,0.591511 2.622791,1.600647 0.186786,0.370977 0.630423,0.518849 1.003992,0.339846 0.373569,-0.18938 0.526629,-0.635567 0.339843,-1.006593 z"
     fill="#4c4c4c"
     fill-rule="evenodd"
     id="path1"
     style="stroke-width:0.0553438" />
</svg>
