<?xml version="1.0" encoding="UTF-8" standalone="no"?>
<svg
   width="128"
   height="100"
   version="1.1"
   viewBox="0 0 96 75"
   id="svg1"
   sodipodi:docname="taper_rate.svg"
   inkscape:version="1.4.2 (ebf0e940d0, 2025-05-08)"
   xmlns:inkscape="http://www.inkscape.org/namespaces/inkscape"
   xmlns:sodipodi="http://sodipodi.sourceforge.net/DTD/sodipodi-0.dtd"
   xmlns="http://www.w3.org/2000/svg"
   xmlns:svg="http://www.w3.org/2000/svg">
  <defs
     id="defs1" />
  <sodipodi:namedview
     id="namedview1"
     pagecolor="#ffffff"
     bordercolor="#000000"
     borderopacity="0.25"
     inkscape:showpageshadow="2"
     inkscape:pageopacity="0.0"
     inkscape:pagecheckerboard="0"
     inkscape:deskcolor="#d1d1d1"
     inkscape:document-units="pt"
     inkscape:zoom="2.8390337"
     inkscape:cx="104.61306"
     inkscape:cy="97.744524"
     inkscape:window-width="1862"
     inkscape:window-height="1011"
     inkscape:window-x="0"
     inkscape:window-y="0"
     inkscape:window-maximized="1"
     inkscape:current-layer="svg1" />
  <path
     d="m 66.487562,36.034824 h 11.680833 c 0.48349,0 0.886716,0.400652 0.886716,0.895108 v 1.756898 c 0,0.501944 -0.397115,0.895109 -0.886716,0.895109 H 66.487562 l 2.552507,2.552708 c 0.346861,0.346861 0.344117,0.910635 -0.0055,1.260246 l -1.242407,1.242408 c -0.354912,0.354913 -0.914758,0.351184 -1.262409,0.0035 l -5.578094,-5.578096 c -0.692739,-0.692739 -0.692739,-1.815594 0,-2.508334 l 5.578094,-5.578094 c 0.346471,-0.346471 0.912798,-0.346079 1.262409,0.0035 l 1.242407,1.242408 c 0.354912,0.354913 0.351967,0.913803 0.0055,1.260248 z M 31.31893,39.581989 H 19.638098 c -0.483491,0 -0.886717,-0.400653 -0.886717,-0.895108 v -1.756899 c 0,-0.501943 0.397115,-0.895109 0.886717,-0.895109 H 31.31893 l -2.552506,-2.552707 c -0.346863,-0.346861 -0.344119,-0.910636 0.0055,-1.260247 l 1.242407,-1.242407 c 0.354912,-0.354913 0.914757,-0.351185 1.262408,-0.0035 l 5.578095,5.578095 c 0.69274,0.69274 0.69274,1.815595 0,2.508334 l -5.578095,5.578095 c -0.34647,0.34647 -0.912797,0.346079 -1.262408,-0.0035 l -1.242407,-1.242409 c -0.354913,-0.354912 -0.351968,-0.913802 -0.0055,-1.260247 z m 4.607205,27.095974 -1.458697,-0.979534 c -0.416749,-0.279924 -0.529015,-0.829176 -0.265201,-1.236326 0,0 -0.03474,0.06262 0.180007,-0.286011 4.117035,-6.687684 6.539436,-16.166928 6.539436,-26.367806 0,-10.172235 -2.409033,-19.627357 -6.505264,-26.311523 -0.224963,-0.36728 -0.209848,-0.334103 -0.209848,-0.334103 -0.259512,-0.4032 -0.147813,-0.965613 0.262654,-1.2410002 l 1.458697,-0.979534 c 0.416749,-0.279729 0.959532,-0.165875 1.226075,0.244789 0,0 -9.96e-4,-0.0106 0.232224,0.367475 4.492176,7.2836862 7.082674,17.4162202 7.082674,28.2538062 0,10.897888 -2.619242,21.082183 -7.15755,28.374412 -0.210043,0.33764 -0.162931,0.257156 -0.162931,0.257156 -0.26206,0.404576 -0.812492,0.513536 -1.222759,0.237917 z M 61.877342,8.9421668 63.33624,9.9214998 c 0.416749,0.2797282 0.527055,0.8332962 0.260492,1.2457232 0,0 -0.01433,0.01198 -0.25421,0.40595 -4.067386,6.680146 -6.457524,16.100593 -6.457524,26.23363 0,10.178265 2.411747,19.63791 6.5123,26.322579 0.223978,0.365118 0.201797,0.321147 0.201797,0.321147 0.265199,0.412035 0.152527,0.972649 -0.25794,1.248287 l -1.458496,0.979734 c -0.416553,0.279926 -0.959734,0.165288 -1.22708,-0.246551 0,0 -0.01433,-0.01276 -0.255191,-0.404382 -4.479813,-7.281173 -7.062571,-17.399636 -7.062571,-28.221141 0,-10.76321 2.555069,-20.830918 6.990709,-28.1035482 0.262061,-0.4299 0.319972,-0.509013 0.319972,-0.509013 0.272076,-0.422438 0.818774,-0.527658 1.229242,-0.25205 z"
     fill="#4c4c4c"
     id="path1"
     style="stroke-width:0.0502531" />
</svg>
