<?xml version="1.0" encoding="UTF-8" standalone="no"?>
<svg
   width="128"
   height="100"
   version="1.1"
   viewBox="0 0 96 75"
   id="svg1"
   sodipodi:docname="trunk_kink.svg"
   inkscape:version="1.4.2 (ebf0e940d0, 2025-05-08)"
   xml:space="preserve"
   xmlns:inkscape="http://www.inkscape.org/namespaces/inkscape"
   xmlns:sodipodi="http://sodipodi.sourceforge.net/DTD/sodipodi-0.dtd"
   xmlns="http://www.w3.org/2000/svg"
   xmlns:svg="http://www.w3.org/2000/svg"><defs
     id="defs1" /><sodipodi:namedview
     id="namedview1"
     pagecolor="#ffffff"
     bordercolor="#000000"
     borderopacity="0.25"
     inkscape:showpageshadow="2"
     inkscape:pageopacity="0.0"
     inkscape:pagecheckerboard="0"
     inkscape:deskcolor="#d1d1d1"
     inkscape:document-units="pt"
     inkscape:zoom="2.0875"
     inkscape:cx="25.868263"
     inkscape:cy="131.49701"
     inkscape:window-width="1920"
     inkscape:window-height="1043"
     inkscape:window-x="0"
     inkscape:window-y="0"
     inkscape:window-maximized="1"
     inkscape:current-layer="svg1" /><path
     d="m 51.737939,34.251004 -0.11808,-6.084892 13.183931,-0.255848 c 0.824103,-0.01599 1.248011,-1.038695 0.603099,-1.596912 L 49.510514,10.96002 c -0.710705,-0.683645 -1.851726,-0.661502 -2.535371,0.0492 l -15.35211,15.959753 c -0.559444,0.581588 -0.159492,1.588302 0.664592,1.572311 l 13.183942,-0.255853 0.06889,3.549469 c 0.01353,0.697174 -0.227748,1.335936 -0.726065,1.789629 l -4.724911,4.847289 c -0.995656,0.97043 -0.963664,2.618385 0.06887,3.549466 l 8.915557,8.513906 c 1.032556,0.931069 1.063297,2.515692 0.06889,3.549466 l -8.14151,8.527879 4.393886,4.226598 12.493009,-12.987493 c 0.932311,-0.969212 0.900331,-2.617149 -0.06887,-3.549469 l -8.914319,-8.450525 c -1.032544,-0.931092 -1.064527,-2.579027 -0.06887,-3.549467 l 2.1754,-2.261502 c 0.497325,-0.516801 0.738583,-1.15558 0.726284,-1.789421 z"
     fill="#4c4c4c"
     id="path1-2"
     style="stroke-width:0.0528301" /><path
     d="m 83.107307,49.773953 v 3.330535 h -4.282116 v 3.306744 h -4.282112 v 3.330533 h -4.282116 l -0.02376,3.306744 h -4.282112 v 4.472434 h 22.600052 v -17.74699 z"
     fill="#4c4c4c"
     id="path1-2-1"
     style="stroke-width:0.0198246" /></svg>
