<?xml version="1.0" encoding="UTF-8" standalone="no"?>
<svg
   width="128"
   height="100"
   version="1.1"
   viewBox="0 0 96 75"
   id="svg1"
   sodipodi:docname="twig_scale.svg"
   xml:space="preserve"
   inkscape:version="1.4.2 (ebf0e940d0, 2025-05-08)"
   xmlns:inkscape="http://www.inkscape.org/namespaces/inkscape"
   xmlns:sodipodi="http://sodipodi.sourceforge.net/DTD/sodipodi-0.dtd"
   xmlns="http://www.w3.org/2000/svg"
   xmlns:svg="http://www.w3.org/2000/svg"><defs
     id="defs1" /><sodipodi:namedview
     id="namedview1"
     pagecolor="#ffffff"
     bordercolor="#000000"
     borderopacity="0.25"
     inkscape:showpageshadow="2"
     inkscape:pageopacity="0.0"
     inkscape:pagecheckerboard="0"
     inkscape:deskcolor="#d1d1d1"
     inkscape:document-units="pt"
     inkscape:zoom="2.0875"
     inkscape:cx="23.952096"
     inkscape:cy="102.27545"
     inkscape:window-width="1920"
     inkscape:window-height="1043"
     inkscape:window-x="0"
     inkscape:window-y="0"
     inkscape:window-maximized="1"
     inkscape:current-layer="layer1" /><g
     id="g1"
     transform="rotate(-12.614004,35.91873,7.4690073)"><path
       d="m 54.233296,39.351712 c 0.0196,0.005 0.03863,0.01368 0.05605,0.02025 l 0.01309,-0.01283 c -0.01503,0.0014 -0.143374,-0.03066 -0.06869,-0.01113 z M 36.470409,28.924114 c -1.442759,1.110498 -3.218339,2.020579 -5.393409,2.420905 -0.02952,-9.97e-4 -0.05745,-6e-6 -0.08547,9.08e-4 l -0.01863,7.04e-4 c -0.204019,3.12e-4 -0.528706,0.0015 -0.760349,-0.04535 -0.01076,-0.0017 -0.02166,-0.0035 -0.03406,-0.0073 l -0.0247,-0.0077 c 0.101119,-2.900378 0.451543,-5.291279 1.5234,-7.500163 1.094027,-2.25367 2.949522,-4.331941 6.075944,-6.586222 0.123881,-0.08933 0.154095,-0.264292 0.06326,-0.390272 -0.08932,-0.123878 -0.264291,-0.154096 -0.390273,-0.06326 -3.204092,2.310284 -5.112879,4.45571 -6.248921,6.793872 -1.082128,2.225893 -1.45215,4.611714 -1.569445,7.475967 -0.356338,-0.215371 -0.7266,-0.516435 -1.088766,-0.890353 -0.663861,-0.686127 -1.282781,-1.615308 -1.699666,-2.715752 -0.418382,-1.102503 -0.637387,-2.371091 -0.500844,-3.739663 0.303383,-3.027098 2.335073,-6.547259 7.748538,-9.825063 1.243947,-0.753331 2.212602,-1.2954 3.021546,-1.744652 2.230843,-1.247906 3.236118,-1.810002 5.188158,-4.0727641 1.008885,3.4882631 1.350842,6.4012041 1.004033,9.0892481 -0.364514,2.809471 -1.486908,5.386759 -3.391589,8.135552 -0.851546,1.226731 -1.970145,2.556696 -3.421879,3.67685 z m 16.05756,20.437627 c -0.01599,-0.0044 -0.03045,-0.0068 -0.04489,-0.0091 -0.05688,-0.0036 0.04241,0.0014 0.05233,-0.0026 l -0.009,0.0098 z M 22.66587,62.912417 c 1.984537,0.809342 3.987159,1.152491 5.764398,1.010363 1.758534,-0.141441 3.294643,-0.763957 4.36634,-1.884588 0.689822,-0.720777 1.177627,-1.659689 1.426496,-2.806094 0.05987,0.08768 0.114595,0.185441 0.174548,0.273054 3.980678,5.724322 6.58602,8.571948 8.712498,9.524985 0.929883,0.417725 2.060265,0.307991 2.742643,-0.184033 0.197366,-0.142313 0.359088,-0.316354 0.464399,-0.51994 0.202914,-0.382472 0.476157,-1.393277 -1.367533,-2.533948 -2.788528,-1.729593 -5.395402,-4.397882 -7.614696,-7.77236 0.806667,0.251263 1.568854,0.308089 2.290743,0.167335 0.922433,-0.176848 1.790896,-0.649856 2.63212,-1.355341 l 0.0045,-0.0033 c 0.938055,-0.788074 1.689176,-1.658372 2.428641,-2.513867 1.775262,-2.052346 3.486527,-4.02982 7.452297,-4.700048 -1.42172,-1.05558 -6.431139,-4.378174 -11.265346,-2.057377 -1.435899,0.690683 -2.921334,2.224479 -3.751939,4.316911 -0.55942,1.414983 -0.813464,3.085328 -0.552786,4.920668 -0.08183,-0.135672 -0.168497,-0.26466 -0.248258,-0.401808 -1.774262,-3.044921 -3.220265,-6.510893 -4.205808,-10.01994 1.121663,0.710263 2.234789,1.050188 3.342792,1.055444 1.228076,0.0081 2.466148,-0.377227 3.728137,-1.070131 l 0.0063,-0.0044 c 1.404841,-0.773599 2.591431,-1.699385 3.762779,-2.610997 2.805628,-2.185723 5.509103,-4.291421 10.775399,-4.140992 -1.558914,-1.719432 -7.147987,-7.266717 -13.95292,-5.515635 -2.021948,0.519687 -4.321995,2.114258 -5.921482,4.591964 -1.151446,1.78446 -1.9371,4.023162 -1.992197,6.651055 0.968311,-1.62688 2.301182,-3.363385 4.108508,-4.800596 2.154741,-1.716411 4.97881,-3.009117 8.646424,-3.19311 0.154946,-0.0064 0.287877,0.111558 0.294282,0.266501 0.0064,0.154942 -0.111555,0.287871 -0.266501,0.294283 -3.533202,0.176462 -6.252988,1.41949 -8.324664,3.07283 -1.937631,1.543909 -3.31188,3.444354 -4.269489,5.165572 -0.285394,-1.042004 -0.536524,-2.089587 -0.735572,-3.126861 -0.843801,-4.392346 -0.837164,-8.300035 0.01635,-11.002799 0.03026,-0.09525 0.01415,-0.20168 -0.04489,-0.283564 -0.05904,-0.08189 -0.152851,-0.132328 -0.25487,-0.13217 -0.03521,-1.66e-4 -0.07973,6.5e-5 -0.133609,5.99e-4 -0.187465,0.0011 -0.502822,0.0019 -0.719987,-0.04252 -0.197576,-0.03945 -0.323174,-0.133972 -0.323174,-0.133972 L 29.58576,31.35974 c 0,0 -0.174131,0.09046 -0.214643,0.18032 -1.052035,2.418039 -1.387467,6.489459 -0.936028,10.900012 -0.460019,-1.062882 -1.037449,-2.133692 -1.770894,-3.1686 -1.341812,-1.891908 -3.196427,-3.662954 -5.744516,-5.032573 -1.797772,-0.966332 -3.367404,-1.510036 -4.857723,-2.027875 -1.913792,-0.662503 -3.70249,-1.284356 -5.70139,-2.680143 -0.08789,4.923752 1.393744,9.430517 3.666332,12.878898 1.544533,2.345671 3.454024,4.201672 5.482231,5.359216 2.005616,1.148364 4.125553,1.614374 6.112434,1.196564 1.259062,-0.263188 2.467464,-0.88878 3.572087,-1.915023 0.874445,3.974556 2.295239,7.7021 4.153431,10.823613 -1.10847,-0.917682 -2.465276,-1.790292 -4.076973,-2.383455 -1.662575,-0.610671 -3.591691,-0.927031 -5.788555,-0.689787 -1.549315,0.166123 -2.771912,0.501962 -3.934174,0.819799 -1.490137,0.407461 -2.88562,0.79133 -4.746228,0.773465 2.07078,3.137485 4.948283,5.335718 7.865123,6.526322 z m 6.322738,-16.794485 c 0.0403,0.197527 0.0827,0.393531 0.125103,0.58954 -2.133811,-0.471934 -4.199695,-1.30561 -6.105029,-2.615814 -1.940557,-1.332526 -3.712389,-3.156945 -5.221038,-5.576815 -0.07941,-0.127843 -0.04255,-0.298015 0.08738,-0.378941 0.127843,-0.07941 0.298021,-0.04256 0.378947,0.08738 1.463604,2.352953 3.185246,4.121032 5.065661,5.414487 1.771816,1.218027 3.688286,2.012654 5.667411,2.478066 z m 7.988169,11.326502 c -0.09757,-0.153032 -0.190967,-0.309086 -0.287948,-0.465745 0.482519,-1.318073 1.203754,-2.747608 2.295731,-4.039243 1.359894,-1.606035 3.279602,-2.993415 5.998917,-3.674442 0.116007,-0.02942 0.230682,0.0411 0.260089,0.157126 0.02942,0.116007 -0.0411,0.230681 -0.157124,0.260089 -2.618987,0.656544 -4.470908,1.991854 -5.776,3.536044 -1.144375,1.351713 -1.869761,2.864072 -2.33705,4.225354 z m -2.052849,1.694001 c -2.804783,-4.03154 -4.809245,-9.396252 -5.646212,-15.102516 -0.694323,-4.74269 -0.480932,-9.262183 0.550932,-11.933581 0.06845,0.02408 0.14464,0.0457 0.228686,0.06489 0.174386,0.03383 0.370348,0.0489 0.547903,0.05172 -0.763687,2.778194 -0.734489,6.624962 0.08695,10.902449 0.900459,4.683381 2.704677,9.509212 5.080919,13.588184 2.472,4.242752 5.528402,7.569871 8.84074,9.623142 0.958677,0.594869 1.384878,1.22579 1.139008,1.690304 -0.29035,0.544444 -1.414095,0.85367 -2.380486,0.420776 -1.984587,-0.889093 -4.590161,-3.759157 -8.449417,-9.306188 z M 23.249352,58.566189 c 0.04496,-0.105842 0.169643,-0.154209 0.275451,-0.109257 1.937184,0.849881 3.783442,1.219592 5.525797,1.223872 1.716445,0.0037 3.328011,-0.363604 4.832319,-0.972726 0.077,0.119988 0.153352,0.243656 0.232451,0.362147 -1.57333,0.646158 -3.263964,1.032265 -5.065851,1.029457 -1.796206,-0.0037 -3.698174,-0.384309 -5.694452,-1.258645 -0.105843,-0.04496 -0.154211,-0.169643 -0.109258,-0.275456 z"
       fill="#4c4c4c"
       fill-rule="evenodd"
       id="path1-2"
       style="stroke-width:0.0552228"
       sodipodi:nodetypes="cccccccccccccssccccccccccccccccccccccccscccccccccccccccccccccccscccccsccccccccccccccccccccccccccccccccccccccccccccccccccccccccccccc" /><path
       style="fill:#4c4c4c;fill-opacity:1;stroke:#4c4c4c;stroke-width:1.03348;stroke-opacity:1"
       d="M 58.343711,91.390761 C 55.882067,90.692292 51.953267,86.502651 46.77314,79.051998 42.378677,72.731378 39.573105,64.614221 38.743368,55.820044 38.298842,51.108617 38.643249,46.20358 39.615422,43.400267 l 0.161523,-0.465759 0.456726,0.02996 c 0.251199,0.01648 0.465367,0.03782 0.475928,0.04743 0.01056,0.0096 -0.07372,0.456185 -0.187288,0.992388 -0.706932,3.337646 -0.61174,8.19885 0.252666,12.902993 0.893775,4.863979 2.471895,9.794174 4.578098,14.302414 3.497813,7.486923 8.026801,13.177421 13.332554,16.751836 0.628775,0.423596 1.310299,0.904492 1.514499,1.068657 0.449418,0.361305 0.856637,0.978499 0.856637,1.298345 0,0.314617 -0.420283,0.779675 -0.865658,0.957878 -0.473325,0.189387 -1.369332,0.24 -1.847396,0.104354 z"
       id="path1"
       transform="scale(0.75)" /></g><g
     inkscape:label="Layer 1"
     id="layer1"
     transform="matrix(2.8346457,0,0,2.8346457,-262.86701,-330.43993)"><g
       id="path1-3"
       style="opacity:1"
       transform="translate(59.951097,-15.843313)"><path
         style="baseline-shift:baseline;display:inline;overflow:visible;vector-effect:none;fill:#4c4c4c;enable-background:accumulate;stop-color:#000000;stop-opacity:1"
         d="m 57.553254,154.01689 v -8.39783"
         id="path17" /><path
         style="baseline-shift:baseline;display:inline;overflow:visible;vector-effect:none;fill:#4c4c4c;stroke-width:1.38516;enable-background:accumulate;stop-color:#000000;stop-opacity:1"
         d="m 56.789062,137.90368 v 16.1139 h 1.529297 v -16.1139 z"
         id="path18" /><g
         id="g11"><g
           id="path11"
           style="opacity:1"><path
             style="baseline-shift:baseline;display:inline;overflow:visible;vector-effect:none;fill:#4c4c4c;fill-rule:evenodd;enable-background:accumulate;stop-color:#000000;stop-opacity:1"
             d="m 57.553254,155.34024 -1.14675,-1.98388 h 2.2935 z"
             id="path12" /><path
             style="baseline-shift:baseline;display:inline;overflow:visible;vector-effect:none;fill:#4c4c4c;fill-rule:evenodd;enable-background:accumulate;stop-color:#000000;stop-opacity:1"
             d="m 56.140625,153.20312 1.412109,2.44336 1.41211,-2.44336 z m 0.53125,0.30665 h 1.763672 l -0.882813,1.52343 z"
             id="path13" /></g><g
           id="path14"
           style="opacity:1"><path
             style="baseline-shift:baseline;display:inline;overflow:visible;vector-effect:none;fill:#4c4c4c;fill-rule:evenodd;enable-background:accumulate;stop-color:#000000;stop-opacity:1"
             d="m 57.553254,135.82904 1.14675,1.98388 h -2.2935 z"
             id="path15"
             sodipodi:nodetypes="cccc" /><path
             style="baseline-shift:baseline;display:inline;overflow:visible;vector-effect:none;fill:#4c4c4c;fill-rule:evenodd;enable-background:accumulate;stop-color:#000000;stop-opacity:1"
             d="m 57.552734,135.52356 -1.412109,2.44141 h 2.824219 z m 0,0.61133 0.882813,1.52539 h -1.763672 z"
             id="path16"
             sodipodi:nodetypes="cccccccc" /></g></g></g></g></svg>
