<?xml version="1.0" encoding="UTF-8" standalone="no"?>
<svg
   width="128"
   height="100"
   version="1.1"
   viewBox="0 0 96 75"
   id="svg3"
   sodipodi:docname="twist_rate.svg"
   xml:space="preserve"
   inkscape:version="1.4.2 (ebf0e940d0, 2025-05-08)"
   xmlns:inkscape="http://www.inkscape.org/namespaces/inkscape"
   xmlns:sodipodi="http://sodipodi.sourceforge.net/DTD/sodipodi-0.dtd"
   xmlns="http://www.w3.org/2000/svg"
   xmlns:svg="http://www.w3.org/2000/svg"><defs
     id="defs3" /><sodipodi:namedview
     id="namedview3"
     pagecolor="#ffffff"
     bordercolor="#000000"
     borderopacity="0.25"
     inkscape:showpageshadow="2"
     inkscape:pageopacity="0.0"
     inkscape:pagecheckerboard="0"
     inkscape:deskcolor="#d1d1d1"
     inkscape:document-units="pt"
     inkscape:zoom="1.04375"
     inkscape:cx="205.02994"
     inkscape:cy="148.02395"
     inkscape:window-width="1920"
     inkscape:window-height="1043"
     inkscape:window-x="0"
     inkscape:window-y="0"
     inkscape:window-maximized="1"
     inkscape:current-layer="svg3" /><path
     d="M 66.691388,16.474633 C 55.059761,12.69174 39.490476,14.473279 31.246974,20.531609 c -3.32184,2.442674 -4.925728,5.4675 -4.516841,8.518044 0.332252,2.47835 1.956951,4.724732 4.672655,6.555152 2.515994,1.374889 5.903293,2.920721 10.00449,4.083746 1.317788,0.291032 2.63179,0.485719 4.101423,0.654508 3.307541,0.380432 16.978982,0.327796 19.028211,-4.06127 0.792102,-1.696618 0.678586,-3.419962 -0.321729,-4.85401 -2.523115,-3.6152 -10.234714,-4.324482 -16.612167,-3.781844 -5.674433,0.481794 -9.55225,2.668929 -11.992046,5.29711 -2.64664,-1.307966 -4.291637,-2.923365 -4.500948,-4.481347 -0.24892,-1.856683 1.61933,-3.53398 2.754581,-4.368928 7.09875,-5.216713 21.211285,-6.747467 31.459704,-3.415166 1.160923,0.377755 2.407502,-0.257665 2.784729,-1.418059 0.377577,-1.160376 -0.257129,-2.406951 -1.417695,-2.784546 z m -18.713017,15.57431 c 7.265026,-0.617234 11.820743,0.773005 12.612841,1.907709 0.03727,0.05264 0.07512,0.106882 0.0077,0.2971 -1.50138,1.147357 -9.66462,2.267263 -14.582128,1.698767 -2.177317,-0.251598 -3.900705,-0.544236 -5.883193,-1.189474 1.797255,-1.355066 4.360523,-2.418053 7.844712,-2.714063 z"
     fill="#4c4c4c"
     id="path1"
     style="stroke-width:0.0456804" /><path
     d="m 49.732047,59.038354 c -0.779401,0.0186 -1.479456,-0.022 -2.085774,-0.11849 -3.50118,-0.55744 -4.888727,-3.14802 -5.426844,-4.85081 -1.946582,-0.75268 -3.539006,-1.54208 -4.843958,-2.30883 0.03624,1.03444 0.196284,2.10272 0.488368,3.16411 1.266723,4.59546 4.57947,7.64143 9.08905,8.35999 0.742127,0.11777 1.55743,0.17701 2.429473,0.17701 0.148637,0 0.299241,-0.002 0.451094,-0.005 1.22017,-0.0285 2.186041,-1.03996 2.158768,-2.25958 -0.02748,-1.21999 -1.050286,-2.18696 -2.260134,-2.15859 z"
     fill="#4c4c4c"
     id="path2"
     style="stroke-width:0.0456804" /><path
     d="m 57.376675,42.991254 c -0.410588,-0.25107 -0.877016,-0.48125 -1.385763,-0.68736 -2.807204,0.42487 -5.361519,0.57727 -7.548702,0.57727 -2.013322,0 -3.713322,-0.12491 -5.027597,-0.27302 -1.251417,0.54154 -2.459071,1.25905 -3.569702,2.18659 -0.268018,0.22358 -0.515868,0.4791 -0.74336,0.76195 -1.681771,-1.68232 -2.509593,-3.60967 -2.431571,-5.081956 0.01265,-0.24553 0.05264,-0.505316 0.105815,-0.771771 -1.500333,-0.570642 -2.86362,-1.171475 -4.086624,-1.766737 -0.246601,0.808498 -0.395782,1.590227 -0.433607,2.305632 -0.173266,3.297222 1.687846,7.038452 5.181536,9.750502 -0.0028,0.0252 -0.004,0.0521 -0.0066,0.0773 1.565107,0.98999 3.641422,2.0474 6.394357,3.02474 0.75053,0.19735 1.531029,0.35794 2.343957,0.47142 8.871154,1.23731 13.176999,-2.69693 13.807846,-5.46933 0.438964,-1.93073 -0.532451,-3.83876 -2.599496,-5.10479 z m -10.596505,6.19793 c -1.478357,-0.20663 -2.801126,-0.59864 -3.96438,-1.11488 2.959045,-2.37415 7.205184,-2.77546 10.140612,-2.1088 1.589728,0.36063 2.431072,0.94235 2.666237,1.23497 -0.392387,0.66361 -2.809902,2.83453 -8.842378,1.98871 z"
     fill="#4c4c4c"
     id="path3"
     style="stroke-width:0.0456804" /><path
     d="m 77.398639,48.246725 v 3.330535 h -4.282116 v 3.306744 h -4.282112 v 3.330533 h -4.282116 l -0.02376,3.306744 h -4.282112 v 4.472434 h 22.600052 v -17.74699 z"
     fill="#4c4c4c"
     id="path1-2"
     style="stroke-width:0.0198246" /></svg>
