<?xml version="1.0" encoding="UTF-8" standalone="no"?>
<svg
   width="128pt"
   height="100pt"
   version="1.1"
   viewBox="0 0 128 100"
   id="svg20"
   sodipodi:docname="v_multiplier.svg"
   inkscape:version="1.4.2 (ebf0e940d0, 2025-05-08)"
   xmlns:inkscape="http://www.inkscape.org/namespaces/inkscape"
   xmlns:sodipodi="http://sodipodi.sourceforge.net/DTD/sodipodi-0.dtd"
   xmlns="http://www.w3.org/2000/svg"
   xmlns:svg="http://www.w3.org/2000/svg">
  <defs
     id="defs20" />
  <sodipodi:namedview
     id="namedview20"
     pagecolor="#ffffff"
     bordercolor="#000000"
     borderopacity="0.25"
     inkscape:showpageshadow="2"
     inkscape:pageopacity="0.0"
     inkscape:pagecheckerboard="0"
     inkscape:deskcolor="#d1d1d1"
     inkscape:document-units="pt"
     inkscape:zoom="0.7380427"
     inkscape:cx="-170.72183"
     inkscape:cy="106.36241"
     inkscape:window-width="1920"
     inkscape:window-height="1043"
     inkscape:window-x="0"
     inkscape:window-y="0"
     inkscape:window-maximized="1"
     inkscape:current-layer="svg20" />
  <path
     d="m 52.349942,50.684065 c -0.133043,-1.904053 -0.24219,-3.215095 -0.304333,-4.527768 -0.01616,-0.340973 0.06032,-0.712254 0.189348,-1.031163 1.156791,-2.856829 1.047338,-5.757782 0.434714,-8.709923 -0.401254,-1.9343 -0.751276,-3.887241 -0.963449,-5.849146 -0.148444,-1.37291 0.0677,-2.784358 -0.05154,-4.16284 -0.103558,-1.193434 -0.537486,-2.356823 -0.659107,-3.550252 -0.08472,-0.834627 0.05548,-1.706705 0.193326,-2.54615 0.268478,-1.635595 0.583157,-3.264727 0.938227,-4.883321 0.04967,-0.228385 0.434712,-0.382667 0.664953,-0.570945 0.07595,0.23263 0.217751,0.465788 0.217751,0.698381 -0.0016,1.63077 -0.172081,3.276962 -0.0037,4.88808 0.110204,1.053183 0.588206,2.115415 1.097304,3.069071 0.697637,1.306016 0.482254,2.542688 0.105965,3.840743 -0.396474,1.369709 -0.816607,2.73868 -1.081601,4.136061 -0.109414,0.575189 0.01803,1.294585 0.287067,1.820907 0.642113,1.254754 0.39249,2.49068 0.274049,3.786829 -0.392491,4.291132 0.09454,8.355732 3.37336,11.601902 2.502103,2.476873 5.017185,4.941988 7.45701,7.478077 1.492149,1.550822 2.216571,3.547058 2.843843,5.571099 0.380277,1.226067 0.789754,2.444178 1.201657,3.659638 0.916951,2.702848 0.06694,5.208889 -0.846855,7.706499 -0.736658,2.01344 -1.487934,4.020282 -2.233565,6.030254 -0.654333,1.763059 -1.292216,3.531625 -1.985571,5.278232 -0.08976,0.225192 -0.469773,0.334608 -0.716194,0.497647 -0.139419,-0.245636 -0.426745,-0.513052 -0.394881,-0.733458 0.179512,-1.219675 0.423297,-2.431192 0.670531,-3.639988 0.225987,-1.105532 0.362218,-2.250087 0.755491,-3.295793 0.623265,-1.658434 1.348499,-3.289199 2.174079,-4.857284 1.03517,-1.967006 1.643817,-3.905256 0.915388,-6.151875 -0.558739,-1.723697 -0.678767,-3.612387 -1.385964,-5.260145 -0.631495,-1.471692 -1.816694,-2.701766 -2.725693,-4.060869 -0.907159,-1.357548 -2.686395,-2.006848 -3.054453,-3.814711 -0.05711,-0.280691 -0.45835,-0.475609 -0.637868,-0.751267 -0.399661,-0.613436 -0.762692,-1.252377 -1.134696,-1.883596 -0.06106,-0.103557 -0.06374,-0.25042 -0.140216,-0.332737 -1.157534,-1.243336 -2.313513,-2.487485 -3.499739,-3.702128 -0.114984,-0.11817 -0.506679,-0.135435 -0.631495,-0.03187 -0.154282,0.127199 -0.217751,0.42755 -0.229175,0.656724 -0.07328,1.495343 -0.02047,3.005303 -0.203943,4.486029 -0.26104,2.102426 -1.364683,3.790298 -2.978452,5.145939 -0.946455,0.795331 -1.111111,1.939878 -1.26937,3.040386 -0.421704,2.926985 -0.05951,5.83215 0.855895,8.595028 0.359837,1.085886 1.481544,1.939065 2.31936,2.839087 0.392489,0.421702 0.894111,0.792948 1.417777,1.030343 1.262704,0.571747 1.574479,1.669786 1.563055,2.846224 -0.03023,2.993067 -0.14924,5.985385 -0.266884,8.976413 -0.02285,0.588205 -0.110205,1.211449 -0.347616,1.738314 -0.126409,0.282287 -0.635479,0.392489 -0.971677,0.579981 -0.07833,-0.306721 -0.25626,-0.626444 -0.218549,-0.918586 0.17208,-1.355914 0.40471,-2.704416 0.614239,-4.055296 0.01884,-0.12003 0.04565,-0.244044 0.03269,-0.361423 -0.254404,-2.196176 -0.331151,-4.402957 -1.262706,-6.495255 -1.026404,-2.305288 -1.954772,-4.608468 -3.715115,-6.520476 -1.389427,-1.509144 -1.594118,-3.513609 -1.286633,-5.464911 0.800357,-5.075031 1.716282,-10.133478 1.794599,-15.29131 0.03902,-2.547782 -0.470829,-4.992708 -1.375286,-7.382223 -0.599621,-1.58352 -1.091458,-3.22149 -1.46271,-4.873529 -0.190139,-0.846044 -0.009,-1.77523 -7.45e-4,-2.667503 0.0046,-0.513054 -0.03105,-1.02796 0.0046,-1.538646 0.108624,-1.547694 0.230768,-3.094293 0.380277,-4.63845 0.02599,-0.271665 0.212979,-0.527127 0.318142,-0.792948 0.04252,-0.107809 0.128792,-0.261843 0.08816,-0.327963 -0.671326,-1.08507 -0.16969,-2.200122 -0.0595,-3.285191 0.181903,-1.794599 0.473213,-3.578125 0.726798,-5.364504 0.108624,-0.768536 0.568554,-1.212261 1.331507,-1.30125 0.08817,-0.01066 0.31893,0.272464 0.297685,0.38506 -0.315743,1.683924 -0.662294,3.361944 -1.002471,5.041587 -0.01222,0.0595 -0.01303,0.126402 -0.04169,0.177129 -1.077662,1.861561 0.08152,3.555285 0.367796,5.3231 0.164908,1.014981 0.143671,2.060687 0.190138,3.093481 0.05629,1.248087 -0.0449,2.523303 0.177129,3.739578 0.325573,1.780807 0.886696,3.51864 1.332325,5.278232 0.460204,1.820916 0.369652,3.658819 -0.146053,5.429021 -0.442153,1.518182 -0.441356,2.989122 -0.320524,4.544769 0.128792,1.667401 -0.08153,3.36275 -0.164918,5.044776 -0.01616,0.329557 -0.193325,0.656723 -0.178713,0.97963 0.01377,0.292116 0.188536,0.576791 0.292114,0.864668 0.281487,-0.165705 0.729248,-0.270072 0.816606,-0.507475 0.511721,-1.408261 0.944341,-2.848877 1.238847,-3.765076 z"
     fill="#4c4c4c"
     id="path1"
     style="stroke-width:0.0679825" />
  <path
     d="m 58.180123,82.856798 c -0.09055,0.761065 -0.159064,1.525596 -0.279099,2.282445 -0.100383,0.637074 -1.164205,1.230346 -1.754021,0.956788 -0.172072,-0.0799 -0.283081,-0.392491 -0.332736,-0.618482 -0.53669,-2.418686 0.28866,-4.703782 0.697636,-7.032797 0.19996,-1.137891 0.302733,-2.29305 0.441356,-3.441887 0.01303,-0.105162 -0.009,-0.235016 -0.06189,-0.324773 -0.50828,-0.852433 0.01884,-0.747263 0.581571,-0.651939 0.438958,0.07436 0.882681,0.127203 1.327224,0.153491 1.970946,0.116577 3.652221,-1.257949 4.257673,-3.391988 0.463398,-1.633144 0.56696,-3.23053 -0.14446,-4.821457 -0.809129,-1.810306 -1.542592,-3.65644 -2.423717,-5.43065 -0.681179,-1.370527 -3.995808,-3.589541 -5.843569,-3.028961 -0.503232,0.152435 -1.078412,0.451974 -1.363119,0.862291 -0.751274,1.083507 -1.489496,2.21392 -1.974959,3.428907 -0.242191,0.60706 -0.0098,1.462709 0.16969,2.164288 0.271665,1.061412 0.574399,2.140635 1.061411,3.11394 0.872077,1.744976 2.288291,2.62263 4.323822,2.870698 1.499358,0.183499 2.328131,-0.634678 2.754855,-1.533617 0.413734,-0.872897 0.301147,-2.14383 0.04565,-3.145756 -0.284676,-1.118517 -0.888259,-2.200119 -1.554829,-3.156431 -0.31814,-0.455958 -1.096492,-0.779961 -1.681206,-0.804364 -0.510664,-0.02122 -1.26774,0.323972 -1.5256,0.745698 -0.977248,1.600511 -0.480391,3.521834 1.060668,4.641914 0.135434,0.09879 0.379213,0.162254 0.518101,0.106755 0.11738,-0.04727 0.238201,-0.304331 0.215369,-0.446135 -0.111798,-0.694985 -0.269276,-1.38358 -0.41454,-2.072922 -0.04565,-0.216165 -0.163047,-0.436577 -0.138623,-0.642116 0.02442,-0.203949 0.186685,-0.390635 0.28866,-0.585024 0.179513,0.118169 0.449592,0.195714 0.522884,0.361423 0.455162,1.022117 0.991047,2.036279 1.236672,3.112308 0.120027,0.524472 -0.20714,1.582701 -0.549967,1.68787 -0.640527,0.195715 -1.568627,0.08312 -2.150496,-0.27246 -1.924516,-1.177186 -2.573748,-3.159624 -2.785922,-5.272386 -0.07171,-0.717009 0.08817,-1.505949 0.955221,-1.857557 0.212181,-0.08657 0.419321,-0.296099 0.531119,-0.502427 0.659108,-1.21308 1.870601,-1.43824 3.085245,-0.735845 1.301258,0.75202 2.148113,1.82411 2.628481,3.185593 0.670531,1.900859 1.401596,3.799884 1.827299,5.76016 0.314954,1.446463 -0.167299,2.867504 -1.430824,3.842373 -0.259454,0.20076 -0.635486,0.334603 -0.964269,0.347614 -1.849325,0.07329 -3.416663,-0.725237 -4.897931,-1.713091 -2.068985,-1.379569 -3.678472,-3.067439 -3.762427,-5.758597 -0.04647,-1.495343 -0.199967,-2.989869 -0.190145,-4.484468 0.01884,-2.863494 1.716289,-4.532533 4.153329,-5.673074 2.111944,-0.988672 3.785265,-0.31654 5.29597,1.222873 1.812687,1.84695 3.650597,3.680912 4.406088,6.259422 0.301139,1.026399 0.481188,2.088355 0.725234,3.131682 0.117379,0.501638 0.199171,1.021302 0.392489,1.493781 0.655132,1.600512 -0.139418,2.927735 -0.858278,4.196357 -1.474879,2.600876 -2.671777,5.285369 -3.163562,8.255119 -0.225192,1.362301 -0.484644,2.719029 -0.718578,4.078951 -0.109414,0.63548 -1.321646,1.388611 -1.924515,1.137888 -0.120824,-0.04965 -0.22519,-0.379209 -0.185097,-0.540933 0.338582,-1.349317 0.757121,-2.680007 1.061411,-4.035647 0.225987,-1.009132 0.305921,-2.050897 0.474814,-3.07383 0.07171,-0.433919 0.246436,-0.853248 0.294506,-1.288201 0.02122,-0.189345 -0.157478,-0.400458 -0.245648,-0.602019 -0.172876,0.123219 -0.455161,0.214566 -0.502425,0.375229 -0.432332,1.463461 -0.852434,2.932019 -1.217839,4.413561 -0.22015,0.892544 -0.3362,1.810308 -0.498451,2.717466 0.06717,0.01114 0.135703,0.02257 0.204213,0.0332 z"
     fill="#4c4c4c"
     id="path2"
     style="stroke-width:0.0679825" />
  <path
     d="m 72.631848,61.25671 c 0.3107,2.378845 0.707972,4.749463 0.914568,7.137485 0.394091,4.547896 1.980813,8.753431 3.471874,13.000978 0.381074,1.086634 0.488621,2.274493 0.647684,3.42618 0.02204,0.15748 -0.385058,0.374435 -0.593784,0.56379 -0.143671,-0.203155 -0.342567,-0.387448 -0.420907,-0.61344 -0.359031,-1.037005 -0.653536,-2.097396 -1.028779,-3.127741 -0.468172,-1.286636 -1.151965,-2.51746 -1.449658,-3.838361 -0.312563,-1.388611 -0.277243,-2.855266 -0.394888,-4.287658 -7.44e-4,-0.0098 0.003,-0.02204 -7.44e-4,-0.03027 -0.199968,-0.420906 -0.400458,-0.842643 -0.60123,-1.263794 -0.211385,0.303529 -0.499247,0.579178 -0.620868,0.915385 -0.480392,1.32967 -0.777586,2.742686 -1.396569,3.999819 -0.519689,1.054818 -1.488678,1.879581 -2.085157,2.906798 -0.89336,1.539463 -1.630763,3.169412 -2.444176,4.756122 -0.102767,0.200763 -0.262638,0.371247 -0.396473,0.555549 -0.06851,-0.233426 -0.257054,-0.514647 -0.185894,-0.69179 0.53669,-1.3347 1.023753,-2.705229 1.718122,-3.956515 1.239865,-2.234383 2.649757,-4.373452 3.923074,-6.59009 0.884311,-1.538649 1.241765,-3.256499 1.22606,-5.017179 -0.01066,-1.228444 -0.342568,-2.461172 -0.285473,-3.680915 0.138622,-2.953228 -0.920138,-5.648673 -2.032814,-8.206172 -1.533619,-3.524217 -3.641548,-6.794783 -5.424256,-10.215737 -1.512335,-2.901763 -2.877293,-5.880213 -4.374266,-8.790816 -1.055567,-2.052459 -1.285554,-4.304931 -1.519002,-6.5043 -0.24803,-2.342199 -0.05391,-4.732465 -0.04408,-7.101457 0.0022,-0.674775 0.02866,-1.349312 0.05786,-2.023289 0.003,-0.08153 0.09879,-0.159071 0.151639,-0.239005 0.06457,0.06933 0.166502,0.129588 0.186683,0.210587 0.208726,0.837822 0.424094,1.674073 0.597238,2.519842 0.171284,0.840198 0.317345,1.68706 0.436583,2.536365 0.202352,1.437489 0.39249,2.876475 0.554747,4.318722 0.133843,1.186227 0.109403,2.40087 0.354788,3.560045 0.304328,1.436677 0.80913,2.831606 1.239866,4.241222 0.349999,1.145374 0.69573,2.293869 1.102883,3.419047 0.0677,0.187749 0.489417,0.423298 0.661505,0.368861 0.97249,-0.308318 1.010691,-0.762698 0.984658,-1.783183 -0.02599,-1.013894 0.265022,-2.062319 0.560325,-3.052554 0.747262,-2.509237 1.613493,-4.982914 2.343829,-7.496433 0.185894,-0.641317 0.180316,-1.407984 0.02949,-2.06313 -0.447992,-1.950489 -1.045781,-3.865965 -1.522197,-5.810945 -0.592191,-2.417865 -1.193435,-4.847495 -0.741423,-7.36727 0.0595,-0.330353 0.341771,-0.620867 0.521289,-0.929178 0.298489,0.329557 0.76617,0.614232 0.868138,0.996074 0.892548,3.330058 1.718128,6.677928 2.564783,10.019945 0.261038,1.029599 0.453567,2.082782 0.802799,3.081247 0.70002,2.002826 0.332745,3.92463 -0.366196,5.806656 -0.245646,0.660707 -0.6992,1.283168 -1.179636,1.811867 -1.850957,2.036284 -3.053365,4.372637 -2.718216,7.144968 0.203156,1.679644 0.836259,3.330869 1.443067,4.932201 1.419408,3.745426 2.945819,7.450882 4.410093,11.179722 0.152437,0.388246 0.183504,0.824836 0.27087,1.239122 -0.07089,0.01006 -0.14446,0.02071 -0.217751,0.0321 z"
     fill="#4c4c4c"
     id="path3"
     style="stroke-width:0.0679825" />
  <path
     d="m 83.445828,64.265616 c 0.18935,2.864307 0.320524,5.956154 0.626446,9.03012 0.172884,1.737565 0.663366,3.442702 0.95869,5.170411 0.3516,2.059122 -0.175268,4.022662 -0.789754,5.958533 -0.08817,0.277239 -0.388237,0.566964 -0.661504,0.683561 -0.282277,0.120823 -0.672914,0.101186 -0.97249,0.0058 -0.0972,-0.03112 -0.11817,-0.505885 -0.07008,-0.757869 0.59219,-3.104899 0.154289,-6.18777 -0.175259,-9.273496 -0.05786,-0.542536 -0.07171,-1.090645 -0.153494,-1.629202 -0.398864,-2.626097 -0.911917,-5.239685 -1.179637,-7.879855 -0.11817,-1.171339 0.123222,-2.423713 0.41772,-3.584514 0.905528,-3.570649 1.995424,-7.096698 2.851259,-10.678695 0.442154,-1.851709 0.686214,-3.781259 0.75284,-5.684498 0.07993,-2.30209 -0.1126,-4.614039 -0.210595,-6.921297 -0.02122,-0.492612 -0.147647,-0.979632 -0.216165,-1.47094 -0.05548,-0.398865 -1.041759,-0.677164 -0.155884,-1.197651 -0.267681,-1.19683 -0.523672,-2.395026 -0.805926,-3.588728 -0.260251,-1.096487 -0.419322,-2.240229 -0.848427,-3.269009 -1.414649,-3.387972 -2.968659,-6.718031 -4.38963,-10.102882 -0.468179,-1.115051 -0.749646,-2.319358 -1.018176,-3.505318 -0.185894,-0.823196 0.358235,-1.425252 1.216275,-1.487114 0.137029,-0.0098 0.359032,0.127199 0.420906,0.254406 0.67797,1.401595 1.440617,2.776135 1.950491,4.238028 0.312563,0.896554 0.287066,1.930837 0.30114,2.904891 0.01138,0.817359 0.601222,0.987108 1.143736,1.19765 0.114193,0.0449 0.518101,-0.266885 0.544925,-0.449584 0.153486,-1.053191 0.277236,-2.114602 0.328753,-3.177369 0.07833,-1.604729 0.07008,-3.213538 0.154291,-4.81718 0.009,-0.170486 0.376023,-0.339378 0.598035,-0.474016 0.07439,-0.0449 0.215368,0.03269 0.325573,0.03187 0.69016,-0.0037 0.839445,0.101174 0.516509,0.875272 -0.348405,0.835439 -0.322118,1.833151 -0.420907,2.763894 -0.132247,1.25476 -0.245641,2.512707 -0.3346,3.771474 -0.195715,2.764712 -0.142873,5.519567 0.49367,8.233359 0.314947,1.343741 0.770921,2.657167 1.037821,4.009606 0.265022,1.34293 0.466585,2.711618 0.531111,4.077387 0.146053,3.126112 0.194122,6.257051 0.274853,9.386352 0.02285,0.888258 0.120824,1.791477 0.0016,2.662737 -0.167299,1.226067 -0.455959,2.441529 -0.778337,3.639173 -0.574393,2.136689 -1.310223,4.234833 -1.789841,6.390907 -0.320799,1.439053 -0.314418,2.949009 -0.475878,4.663936 z"
     fill="#4c4c4c"
     id="path4"
     style="stroke-width:0.0679825" />
  <path
     d="m 78.31791,43.19647 c 0,-1.118513 0.238199,-2.27925 -0.68275,-3.207684 -0.760317,-0.76617 -1.475699,-1.57611 -2.225336,-2.352065 -0.395685,-0.409484 -2.780152,-0.868883 -3.076488,-0.461 -1.03782,1.430013 -3.105709,2.233563 -2.777693,4.534908 0.105162,0.737478 -0.134638,1.51819 -0.07171,2.267827 0.119236,1.426074 0.150037,2.879677 1.125722,4.099416 0.47322,0.5914 0.81423,1.293028 1.178817,1.964354 1.545787,2.844663 4.45021,2.419772 6.474796,0.809131 0.283877,-0.225987 0.252013,-0.819801 0.424093,-1.219671 0.557138,-1.294593 1.245712,-2.543499 1.677268,-3.877388 0.277236,-0.857459 0.184293,-1.832332 0.271665,-2.753291 0.04729,-0.500043 0.121622,-0.997712 0.192523,-1.495343 0.0067,-0.04408 0.07328,-0.07993 0.1126,-0.120026 0.03344,0.03507 0.08896,0.06449 0.0972,0.104372 0.522085,2.424523 1.183575,4.884133 -0.292912,7.191867 -0.814975,1.274129 -1.891817,2.379664 -2.728887,3.641549 -1.194182,1.799708 -2.276867,3.672625 -3.406805,5.514816 -0.01066,0.01727 -0.01623,0.03664 -0.02442,0.05548 -0.121629,0.257859 -0.242988,0.515704 -0.365405,0.773302 -0.185098,-0.279105 -0.428346,-0.535103 -0.547318,-0.840198 -1.005939,-2.559948 -1.974959,-5.133771 -2.986746,-7.691547 -0.363812,-0.920957 -0.853996,-1.79147 -1.21308,-2.714267 -0.368861,-0.947267 -0.903145,-1.928463 -0.903145,-2.895375 -7.44e-4,-1.326479 0.284676,-2.704417 0.726055,-3.963176 0.370445,-1.055565 1.136325,-1.973328 1.732737,-2.94902 1.698476,-2.778513 2.307935,-5.719572 1.33946,-8.899593 -0.886695,-2.912368 -1.828869,-5.809307 -2.63514,-8.743911 -0.43233,-1.57366 -0.634681,-3.210813 -0.933193,-4.820367 -0.08897,-0.480392 0.126401,-0.654333 0.602013,-0.571749 1.262712,0.219352 1.356728,0.439762 1.318251,1.736753 -0.07914,2.635139 0.632291,5.090461 1.863132,7.415532 0.749644,1.416214 1.486302,2.845407 2.103245,4.321106 0.200759,0.480391 0.09295,1.147748 -0.02949,1.694536 -0.425948,1.904051 0.117379,3.586345 1.076849,5.18339 0.822452,1.369716 1.86503,2.642281 2.461167,4.100978 0.488629,1.196087 0.607858,2.598976 0.635479,3.915932 0.04729,2.227243 -0.948013,4.211176 -1.833964,6.19015 -0.497652,1.112668 -2.422964,1.736752 -3.320265,0.233427 -0.663359,-1.111111 -1.67883,-2.107193 -2.004396,-3.30062 -0.416126,-1.522949 -0.399662,-3.193819 -0.370447,-4.797528 0.02122,-1.133951 1.543403,-2.315895 2.595023,-2.252465 0.173674,0.01066 0.377626,0.05474 0.509872,0.158267 1.497719,1.175623 2.533909,2.584427 2.2596,4.627845 -0.09135,0.681186 -0.14446,1.372903 -0.309109,2.036277 -0.03745,0.150038 -0.54652,0.354787 -0.703959,0.274056 -0.67053,-0.346819 -0.68275,-1.187047 -0.08153,-1.616963 0.09454,-0.06769 0.180317,-0.167301 0.23502,-0.27087 0.381871,-0.729255 -0.129589,-2.747451 -0.804371,-3.199397 -0.593784,-0.397277 -1.612749,-0.187747 -1.835527,0.510664 -0.193332,0.6052 -0.181909,1.306828 -0.124011,1.952932 0.07089,0.798526 0.207132,1.608743 0.453569,2.369059 0.369658,1.13789 1.166582,2.024042 2.310317,2.323371 0.39488,0.103558 1.244149,-0.39887 1.425255,-0.821639 0.562976,-1.317432 0.904783,-2.729632 1.332325,-4.104984 -0.0826,-0.01937 -0.164119,-0.04066 -0.245907,-0.06189 z"
     fill="#4c4c4c"
     id="path5"
     style="stroke-width:0.0679825" />
  <path
     d="m 40.507384,85.905889 c 0.116577,-0.602818 0.31654,-1.349322 0.396474,-2.108008 0.267681,-2.55254 0.594588,-5.105353 0.70559,-7.66707 0.10781,-2.502845 -0.133037,-5.021122 -0.01541,-7.522946 0.120035,-2.560766 -0.841828,-4.924248 -1.060659,-7.399901 -0.128003,-1.449658 0.112588,-2.945 0.295303,-4.40608 0.300082,-2.402502 0.211383,-4.791957 -0.02949,-7.187116 -0.247225,-2.458793 -0.656723,-4.915203 -0.694985,-7.377465 -0.06106,-3.907629 0.137825,-7.819349 0.205539,-11.729704 0.05711,-3.30327 0.101174,-6.606267 0.116577,-9.909816 0.0083,-1.655983 -0.07254,-3.312035 -0.07515,-4.968028 0,-0.159063 0.252008,-0.425948 0.420909,-0.457552 0.381072,-0.07008 0.785537,-0.04886 1.174802,-0.006 0.08976,0.0098 0.23263,0.270072 0.216166,0.396473 -0.261845,1.957967 -0.451975,3.932109 -0.849239,5.864033 -0.457559,2.226163 0.05711,4.36047 0.439763,6.489682 0.611052,3.406059 0.568561,6.80777 0.253614,10.218455 -0.20714,2.246617 -0.571748,4.478618 -0.82164,6.722042 -0.252811,2.280069 -0.132247,4.505682 0.616623,6.731083 0.861472,2.561587 1.403979,5.240774 1.315801,7.953957 -0.05711,1.773666 -0.530315,3.530064 -0.750457,5.30264 -0.108623,0.873712 -0.09533,1.766186 -0.08577,2.649756 0.03425,3.020192 1.295403,5.711347 2.192979,8.519569 1.003557,3.140725 1.460261,6.402323 0.299278,9.665756 -0.330353,0.929179 -0.862291,1.465089 -1.923704,1.477256 -0.518898,0.0057 -1.027149,0.329557 -1.555646,0.415338 -0.193326,0.03188 -0.560326,-0.163051 -0.622463,-0.335407 -0.12879,-0.359031 -0.107809,-0.773571 -0.164908,-1.331501 z"
     fill="#4c4c4c"
     id="path6"
     style="stroke-width:0.0679825" />
  <path
     d="m 86.685199,14.104029 c 1.47651,0.01138 1.576855,0.146851 1.40479,1.260324 -0.486229,3.138347 -0.651936,6.291312 -0.305921,9.455694 0.183496,1.68202 0.578383,3.361119 0.575993,5.04077 -0.0067,4.507305 1.554016,8.747991 2.062319,13.16685 0.357437,3.105717 -0.02361,6.036917 -0.959435,8.987294 -0.528722,1.666662 -0.791385,3.432846 -1.02715,5.174624 -0.26104,1.927644 -0.427548,3.875005 -0.504028,5.818354 -0.121628,3.092662 -0.16225,6.190149 0.374432,9.259902 0.234224,1.336263 0.510671,2.666749 0.691791,4.009608 0.142069,1.052371 0.114983,2.12765 0.257054,3.180019 0.163852,1.217023 0.442154,2.418683 0.647692,3.630947 0.115786,0.683564 -0.11817,1.05876 -0.900494,1.085884 -0.744067,0.02523 -1.481544,0.205539 -2.223779,0.301938 -0.127199,0.01619 -0.318134,-0.0016 -0.381075,-0.08153 -0.05711,-0.0725 0.01138,-0.252812 0.04088,-0.381871 0.222801,-0.990234 0.452772,-1.97999 0.673719,-2.97104 0.100383,-0.450384 0.325573,-0.927623 0.253607,-1.351696 -0.257859,-1.524848 -0.659108,-3.024952 -0.925173,-4.548711 -0.209791,-1.200843 -0.342574,-2.419772 -0.43233,-3.635978 -0.152428,-2.067077 -0.356374,-4.14 -0.329557,-6.208164 0.02525,-1.970136 0.166503,-3.96556 0.533508,-5.89721 0.437373,-2.305291 1.264612,-4.534916 1.74178,-6.834966 0.349201,-1.680462 0.566164,-3.421421 0.56218,-5.134516 -0.009,-3.423806 -0.0083,-6.869638 -0.393294,-10.26332 -0.318931,-2.810401 -1.239114,-5.547517 -1.788277,-8.338062 -0.273259,-1.389428 -0.36382,-2.821815 -0.443746,-4.239594 -0.08312,-1.474134 -0.103569,-2.955677 -0.06189,-4.431376 0.05227,-1.864212 0.172081,-3.727343 0.330355,-5.584898 0.01623,-0.225719 0.457559,-0.413467 0.526071,-0.469772 z"
     fill="#4c4c4c"
     id="path7"
     style="stroke-width:0.0679825" />
  <path
     d="m 76.56464,62.530022 c 0.110996,4.078953 0.415329,8.130031 1.506766,12.053982 0.629901,2.262256 1.535452,4.459993 2.477625,6.616876 0.51146,1.170591 0.191725,2.259603 0.164908,3.392735 -0.0146,0.613438 -0.357437,0.760316 -0.858276,0.6461 -0.164917,-0.03745 -0.37444,-0.235817 -0.41772,-0.398866 -0.444543,-1.67645 -0.822452,-3.370982 -1.293774,-5.039206 -0.403913,-1.429196 -0.964269,-2.815157 -1.346125,-4.249452 -0.334606,-1.25557 -0.55156,-2.546965 -0.757866,-3.831699 -0.229971,-1.435859 -0.387447,-2.883955 -0.579977,-4.325388 -0.143664,-1.077659 -0.378416,-2.152055 -0.410288,-3.23291 -0.02442,-0.820549 0.08897,-1.68787 0.344958,-2.467018 1.033539,-3.148952 2.254846,-6.205787 4.3294,-8.865598 0.88432,-1.13395 1.584332,-2.420523 2.30209,-3.675074 0.898117,-1.568627 0.784726,-3.307211 0.624062,-5.010513 -0.145257,-1.543405 -0.373643,-3.084433 -0.662302,-4.608468 -0.336192,-1.776042 -0.776766,-3.532439 -1.174803,-5.29679 -0.32637,-1.447281 -0.664156,-2.891091 -0.984659,-4.340005 -0.758685,-3.431281 -2.162662,-6.616879 -3.622179,-9.793563 -0.552358,-1.201657 -0.854808,-2.522492 -1.212262,-3.804916 -0.07089,-0.255462 0.03187,-0.683563 0.217752,-0.863038 0.590597,-0.570147 0.905528,-0.410287 1.14136,0.372846 0.189341,0.629899 0.53351,1.21145 0.758685,1.833151 0.09878,0.272455 0.01884,0.607858 0.109403,0.885876 0.696549,2.13669 1.390991,4.275493 2.137441,6.394847 0.33859,0.960255 0.752839,1.900856 1.207503,2.812774 1.095673,2.199369 1.382769,4.609288 1.841379,6.968211 0.349201,1.798889 0.711435,3.619523 0.782344,5.44125 0.136224,3.497365 0.562179,7.029393 -0.580774,10.466596 -0.771739,2.32017 -1.575291,4.632871 -2.248183,6.981801 -0.31575,1.101251 -0.366202,2.279251 -0.518898,3.425436 -0.160665,1.206423 -0.370456,2.412295 -0.424096,3.625375 -0.04408,0.982278 0.04326,1.983186 0.192523,2.95724 0.270869,1.764622 0.65274,3.512794 0.943805,5.275035 0.135434,0.820551 0.175267,1.657619 0.234216,2.489045 0.0083,0.12003 -0.127199,0.249625 -0.195709,0.374434 -0.07994,-0.09214 -0.204749,-0.17288 -0.233427,-0.279102 -0.241395,-0.903964 -0.464196,-1.812686 -0.694174,-2.719846 -0.336193,-1.321647 -0.729248,-2.632486 -0.989483,-3.968751 -0.14207,-0.731084 -0.03745,-1.50758 -0.08577,-2.260691 -0.100383,-1.56625 -0.314954,-3.130935 -0.305124,-4.694808 0.0046,-0.706402 0.476408,-1.398126 0.662294,-2.116226 0.323979,-1.245712 0.624859,-2.500465 0.853996,-3.76562 0.0531,-0.292116 -0.222799,-0.644511 -0.346819,-0.969294 -0.26582,0.22997 -0.666546,0.409481 -0.776765,0.699199 -0.655921,1.7288 -1.265357,3.476149 -1.842937,5.233299 -0.168103,0.515174 -0.183763,1.084518 -0.27008,1.630489 z"
     fill="#4c4c4c"
     id="path8"
     style="stroke-width:0.0679825" />
  <path
     d="m 55.190257,15.252933 c 0.585815,0.06374 0.928366,0.03023 1.199273,0.154282 0.201555,0.09215 0.463398,0.41454 0.433128,0.589011 -0.20554,1.197651 -0.02606,2.301344 0.331946,3.471867 0.260243,0.850869 -0.02525,1.861568 -0.03032,2.800539 -0.01377,2.597407 -0.03269,5.195909 7.45e-4,7.793517 0.01727,1.341097 0.137027,2.681569 0.214565,4.021848 0.129588,2.252465 1.017363,4.276238 1.910649,6.29634 0.585027,1.322459 1.130756,2.667496 1.809493,3.941149 1.121714,2.102426 2.351246,4.146662 3.50878,6.230258 1.492968,2.684772 3.086817,5.32385 4.393101,8.09808 0.876091,1.860749 1.461899,3.888806 1.942261,5.8983 0.926802,3.876568 0.03187,7.442728 -1.925268,10.8942 -1.218926,2.14886 -2.006028,4.543953 -2.973417,6.833604 -0.349999,0.828775 -0.651936,1.678081 -1.005941,2.506041 -0.05951,0.138619 -0.270869,0.212978 -0.411874,0.317342 0.01728,-0.160659 0.0022,-0.332737 0.05548,-0.480392 0.496856,-1.369712 0.974054,-2.748534 1.51737,-4.099414 1.037002,-2.578033 2.143831,-5.128941 3.163564,-7.713298 0.750463,-1.902423 1.338647,-3.887989 1.13395,-5.942081 -0.134638,-1.349317 -0.611045,-2.67253 -1.004302,-3.986019 -0.466585,-1.558293 -0.889078,-3.147391 -1.554836,-4.62227 -0.523671,-1.159166 -1.341835,-2.199368 -2.111943,-3.230531 -0.796142,-1.066237 -1.645381,-2.102427 -2.556754,-3.070634 -1.086635,-1.154341 -2.250083,-2.238667 -3.40606,-3.325024 -2.334788,-2.196175 -4.155704,-4.626281 -3.910081,-8.074282 0.08391,-1.187865 0.200758,-2.382857 0.144461,-3.56752 -0.05786,-1.22953 -0.353982,-2.445813 -0.45756,-3.675068 -0.08391,-0.999275 -0.171275,-2.030438 -0.01801,-3.010338 0.242191,-1.549249 0.744075,-3.056834 1.009888,-4.603434 0.09055,-0.527128 -0.122425,-1.148569 -0.327965,-1.675637 -0.967395,-2.477618 -1.55082,-5.021116 -1.407173,-7.693579 0.02122,-0.386123 0.230769,-0.759773 0.332746,-1.077117 z"
     fill="#4c4c4c"
     id="path9"
     style="stroke-width:0.0679825" />
  <path
     d="m 45.037743,37.647735 c 0.212978,0.57679 0.384254,1.303633 0.731899,1.933497 1.607924,2.913931 2.253283,6.011694 1.93512,9.319724 -0.235817,2.450563 -0.40789,4.908537 -0.697636,7.353664 -0.280692,2.369804 -0.839446,4.717653 -0.965825,7.09262 -0.102779,1.937503 -0.115786,3.956516 1.073647,5.728616 0.254404,0.379214 0.285471,1.050805 0.162257,1.519001 -0.535892,2.03363 -0.226784,4.042309 0.102767,6.038481 0.286269,1.736749 0.719664,3.449025 1.106279,5.16878 0.192529,0.857464 0.46021,1.700107 0.610256,2.563144 0.03105,0.177925 -0.276447,0.557938 -0.483848,0.607856 -0.633086,0.149241 -1.292209,0.205538 -1.944911,0.241397 -0.122426,0.0067 -0.376025,-0.250424 -0.371245,-0.377624 0.06851,-1.859934 0.222799,-3.717556 0.252006,-5.576674 0.03507,-2.230439 -0.632291,-4.304109 -1.47998,-6.356639 -1.014974,-2.457976 -1.617774,-5.010516 -0.90158,-7.692902 0.378414,-1.416212 1.017354,-2.821004 1.081598,-4.251017 0.128793,-2.851253 -0.03902,-5.71719 -0.981529,-8.469944 -0.429933,-1.256315 -0.998523,-2.4989 -1.186227,-3.793492 -0.15668,-1.080037 0.106755,-2.233566 0.261843,-3.343107 0.248826,-1.781618 0.592988,-3.549439 0.83625,-5.332145 0.163047,-1.196079 0.216166,-2.407261 0.333535,-3.610004 0.01303,-0.137827 0.122426,-0.266886 0.186691,-0.400459 0.0677,0.127199 0.17447,0.247233 0.196506,0.381872 0.06219,0.378154 0.08922,0.761603 0.142076,1.255295 z"
     fill="#4c4c4c"
     id="path10"
     style="stroke-width:0.0679825" />
  <path
     d="m 92.31891,51.637186 c 0.163853,1.066981 0.36966,1.884407 0.398077,2.707603 0.05786,1.682027 0.04565,3.352898 -0.494468,5.00256 -0.216165,0.659911 -0.02442,1.394186 0.32212,2.149675 0.430736,0.937415 0.509077,2.103996 0.483847,3.165203 -0.02949,1.198464 -0.471628,2.385507 -0.504028,3.583698 -0.0531,1.935939 -0.371246,3.840742 0.06768,5.832154 0.473212,2.147295 0.527128,4.417505 0.499247,6.630675 -0.01222,1.015727 -0.635478,2.03125 -1.035924,3.025768 -0.07089,0.175265 -0.408686,0.242187 -0.624054,0.35983 -0.07754,-0.252813 -0.2228,-0.506679 -0.221207,-0.758686 0.0083,-1.274126 0.212174,-2.568174 0.04804,-3.816334 -0.203945,-1.54769 -0.733463,-3.049356 -1.054814,-4.58481 -0.116577,-0.557137 0.01966,-1.1642 -0.06189,-1.733553 -0.478002,-3.361941 -0.847674,-6.728708 -0.433924,-10.123959 0.292911,-2.405699 0.587408,-4.813979 1.00247,-7.20003 0.237411,-1.365771 0.707972,-2.692243 1.100508,-4.028506 0.04006,-0.137029 0.254403,-0.245641 0.41188,-0.309907 0.04275,-0.01616 0.17235,0.184562 0.0964,0.09878 z"
     fill="#4c4c4c"
     id="path11"
     style="stroke-width:0.0679825" />
  <path
     d="m 64.236007,30.05001 c -0.113391,0.65513 -0.294498,1.435858 -0.363016,2.226155 -0.02599,0.300083 0.206343,0.623266 0.321329,0.935852 0.254405,-0.212978 0.626446,-0.375236 0.746451,-0.647691 1.217838,-2.771379 0.776765,-5.58171 0.16385,-8.401963 -0.527924,-2.430107 -1.010698,-4.870334 -1.475698,-7.312886 -0.04647,-0.24298 0.100383,-0.604403 0.283089,-0.785537 0.157469,-0.156673 0.492605,-0.133841 0.749638,-0.190139 0.02525,0.235817 0.101976,0.478805 0.06851,0.70559 -0.41772,2.847856 0.19996,5.566891 0.973235,8.275515 0.41932,1.465839 0.769288,2.952485 1.151219,4.429739 0.248022,0.958691 0.124011,1.851709 -0.279902,2.771379 -0.735027,1.672509 -1.367333,3.390354 -2.050896,5.085702 -0.04803,0.119236 -0.167298,0.209791 -0.25281,0.31336 -0.08738,-0.102767 -0.205538,-0.191732 -0.257859,-0.309904 -0.838633,-1.894193 -1.043398,-3.913207 -1.090641,-5.946366 -0.08578,-3.659629 -0.476414,-7.246936 -1.700925,-10.739878 -0.400458,-1.142172 -0.294498,-2.46702 -0.359032,-3.711979 -0.0075,-0.137825 0.376026,-0.375229 0.6052,-0.415338 0.142069,-0.02525 0.455958,0.210596 0.486236,0.369659 0.706402,3.652972 1.394999,7.309482 2.057561,10.969663 0.131979,0.7319 0.143403,1.487114 0.224394,2.378844 z"
     fill="#4c4c4c"
     id="path12"
     style="stroke-width:0.0679825" />
  <path
     d="m 91.992593,28.899744 c 0,2.290674 0.0022,4.629752 -0.0016,6.969574 -0.0016,0.741416 -0.02204,1.4831 -0.03664,2.224591 -7.45e-4,0.04007 -0.03187,0.07993 -0.04803,0.120027 -0.03745,-0.05711 -0.09533,-0.110205 -0.110217,-0.172081 -0.334598,-1.439052 -0.692602,-2.873347 -0.987853,-4.319541 -0.433126,-2.121803 -0.839452,-4.250263 -1.214643,-6.383423 -0.106755,-0.608655 -0.01379,-1.250537 -0.105162,-1.864211 -0.207133,-1.385965 -0.585026,-2.754863 -0.685127,-4.145853 -0.123221,-1.708328 -0.03745,-3.431282 -0.03426,-5.147564 7.45e-4,-0.381877 -0.04565,-0.793767 0.08073,-1.136333 0.120831,-0.327166 0.382666,-0.703959 0.681938,-0.84101 0.474814,-0.216961 1.027961,-0.293708 1.556458,-0.346014 0.266886,-0.02606 0.603614,0.06851 0.808377,0.233419 0.108624,0.08738 0.08657,0.490222 -0.01803,0.668141 -1.424433,2.41977 -1.384326,5.012895 -0.952025,7.658914 0.350803,2.14036 0.704771,4.283439 1.066238,6.481997 z"
     fill="#4c4c4c"
     id="path13"
     style="stroke-width:0.0679825" />
  <path
     d="m 52.210577,81.617477 c 0.07252,0.850054 0.232629,2.063881 0.247232,3.279341 0.0037,0.357437 -0.331946,0.887518 -0.64769,1.022112 -0.216954,0.09325 -0.871265,-0.287858 -0.977248,-0.583946 -0.505883,-1.413838 -1.050807,-2.846229 -1.283989,-4.318731 -0.408687,-2.576945 -0.613428,-5.186863 -0.868883,-7.786039 -0.05041,-0.51651 0.05048,-1.048427 0.09799,-1.57128 0.0075,-0.08312 0.09878,-0.159066 0.151632,-0.238204 0.108623,0.09454 0.260249,0.167297 0.318141,0.286268 0.438965,0.898117 0.935844,1.777607 1.271746,2.715085 0.793767,2.217386 2.145461,4.296701 1.691066,7.195271 z"
     fill="#4c4c4c"
     id="path14"
     style="stroke-width:0.0679825" />
  <path
     d="m 76.576197,31.247184 c 0.0098,-0.137825 0.003,-0.201555 0.02047,-0.258656 0.803553,-2.698564 -0.31814,-4.971492 -1.585083,-7.215669 -1.281607,-2.271022 -1.855992,-4.751089 -2.111944,-7.317636 -0.01542,-0.154291 0.203946,-0.331947 0.314157,-0.499247 0.182699,0.136225 0.47083,0.235818 0.533502,0.414533 1.116957,3.164381 2.326567,6.304293 3.269828,9.520952 1.008317,3.43951 1.763054,6.953258 2.622628,10.435319 0.133038,0.539348 0.238201,1.086634 0.3516,1.630771 0.01138,0.05391 -0.009,0.114984 -0.0146,0.172876 -0.03664,-0.02763 -0.08896,-0.0481 -0.107809,-0.08472 -1.069366,-2.111944 -2.138254,-4.224231 -3.197015,-6.341209 -0.07861,-0.15668 -0.07515,-0.353185 -0.09559,-0.457552 z"
     fill="#4c4c4c"
     id="path15"
     style="stroke-width:0.0679825" />
  <path
     d="m 43.08936,23.002937 c 0.277245,-2.172516 0.543333,-4.368689 0.846044,-6.559771 0.08738,-0.631494 1.519754,-1.465838 2.136689,-1.262705 0.119236,0.03902 0.24485,0.347616 0.215369,0.502434 -0.303525,1.554009 -0.733464,3.089468 -0.939792,4.654967 -0.231557,1.762242 -0.257054,3.550251 -0.395677,5.325481 -0.137817,1.771761 -0.305123,3.542225 -0.462601,5.312496 -0.003,0.04169 -0.04803,0.07914 -0.07328,0.11817 -0.03828,-0.07754 -0.100383,-0.150841 -0.112588,-0.231565 -0.220149,-1.459517 -0.42755,-2.919778 -0.651943,-4.378207 -0.175529,-1.148025 -0.369652,-2.292581 -0.562179,-3.481184 z"
     fill="#4c4c4c"
     id="path16"
     style="stroke-width:0.0679825" />
  <path
     d="m 75.647554,84.999605 c -0.271665,0.07251 -0.55395,0.226789 -0.811781,0.192524 -0.240597,-0.03188 -0.547308,-0.210588 -0.664944,-0.415328 -0.46818,-0.818984 -0.853997,-1.685491 -1.310232,-2.512702 -0.410287,-0.744068 -1.080036,-0.851617 -1.774477,-0.488624 -1.441435,0.754741 -2.187953,2.041857 -2.582796,3.572281 -0.04886,0.190929 -0.130655,0.376019 -0.223597,0.54996 -0.01066,0.01969 -0.271665,-0.03659 -0.280699,-0.08394 -0.03902,-0.203145 -0.09799,-0.444541 -0.02442,-0.620076 0.898931,-2.165855 2.070539,-4.164744 3.723405,-5.851528 0.777577,-0.793762 0.772483,-0.781526 1.253933,0.223603 0.690159,1.441433 1.401596,2.873349 2.094949,4.313151 0.107809,0.223602 0.164909,0.471629 0.24564,0.707969 0.118445,0.136762 0.236614,0.274856 0.355056,0.412677 z"
     fill="#4c4c4c"
     id="path17"
     style="stroke-width:0.0679825" />
  <path
     d="m 73.115888,84.896271 c -0.265024,0.281491 -0.399661,0.553159 -0.59724,0.610252 -0.705596,0.205536 -1.427636,0.376029 -2.155253,0.468972 -0.155883,0.01969 -0.551561,-0.423297 -0.512264,-0.51385 0.327166,-0.760317 0.70641,-1.500919 1.116957,-2.221397 0.298482,-0.524472 0.64052,-0.552359 0.991048,0.0048 0.341769,0.542533 0.733463,1.052368 1.156789,1.651231 z"
     fill="#4c4c4c"
     id="path18"
     style="stroke-width:0.0679825" />
  <path
     d="m 54.768084,51.896192 c 0.07008,-0.303524 0.129589,-0.707153 0.273252,-1.078405 0.03664,-0.09534 0.467382,-0.167301 0.500841,-0.114194 0.236614,0.376025 0.4225,0.785538 0.611842,1.190241 0.06292,0.135435 0.08656,0.288659 0.131449,0.43312 0.06933,0.222003 0.14207,0.442949 0.212978,0.664155 -0.454365,0.006 -0.914567,0.05235 -1.359103,-0.0098 -0.127206,-0.0181 -0.231566,-0.34177 -0.30832,-0.540146 -0.05227,-0.137027 -0.03768,-0.299277 -0.06292,-0.544918 z"
     fill="#4c4c4c"
     id="path19"
     style="stroke-width:0.0679825" />
  <path
     d="m 82.27993,14.110828 c -0.212976,0.550764 -0.383464,0.990228 -0.553153,1.429194 -0.303531,-0.482255 -0.607062,-0.96345 -0.910355,-1.445718 0.295303,-0.134638 0.580776,-0.327956 0.889079,-0.377618 0.147916,-0.02368 0.340444,0.224393 0.574392,0.394082 z"
     fill="#4c4c4c"
     id="path20"
     style="stroke-width:0.0679825" />
</svg>
