<?xml version="1.0" encoding="UTF-8" standalone="no"?>
<svg
   width="128"
   height="100"
   version="1.1"
   viewBox="0 0 95.999997 75"
   id="svg1"
   sodipodi:docname="aquatic.svg"
   inkscape:version="1.4.2 (ebf0e940d0, 2025-05-08)"
   xmlns:inkscape="http://www.inkscape.org/namespaces/inkscape"
   xmlns:sodipodi="http://sodipodi.sourceforge.net/DTD/sodipodi-0.dtd"
   xmlns="http://www.w3.org/2000/svg"
   xmlns:svg="http://www.w3.org/2000/svg">
  <defs
     id="defs1" />
  <sodipodi:namedview
     id="namedview1"
     pagecolor="#ffffff"
     bordercolor="#000000"
     borderopacity="0.25"
     inkscape:showpageshadow="2"
     inkscape:pageopacity="0.0"
     inkscape:pagecheckerboard="0"
     inkscape:deskcolor="#d1d1d1"
     inkscape:document-units="pt"
     inkscape:zoom="4.015"
     inkscape:cx="115.56663"
     inkscape:cy="65.877958"
     inkscape:window-width="1862"
     inkscape:window-height="1011"
     inkscape:window-x="0"
     inkscape:window-y="0"
     inkscape:window-maximized="1"
     inkscape:current-layer="svg1" />
  <path
     d="m 36.698683,13.956487 c -1.991563,0.02652 -1.100528,1.243714 -0.91225,1.713106 0.201543,0.501207 1.25169,2.402628 1.25169,2.402628 0,0 -1.25169,0.350049 -3.153074,1.299439 -1.901383,0.952021 -3.60391,3.105383 -3.60391,3.105383 0,0 -0.99977,-1.450606 -1.851033,-2.402628 -0.851264,-0.95202 -3.654318,-2.803051 -5.208283,-3.253887 -1.551362,-0.450825 -1.750273,0.700099 -1.500955,1.100528 0.249321,0.400426 0.750505,1.752877 1.453264,3.155731 0.700099,1.402857 0.636455,4.245683 0,6.006423 -0.670906,1.861613 -2.344298,3.675532 -1.3021,4.505583 0.853925,0.678883 3.304242,-0.800855 4.65669,-1.601715 1.35245,-0.800856 3.704667,-4.006998 3.704667,-4.006998 0,0 2.201056,2.102957 4.105098,3.203485 1.901384,1.100527 5.9589,1.85369 5.9589,1.85369 -0.519771,0.713338 -1.312679,1.227819 -2.394648,1.954449 -0.933466,0.655009 0.241319,1.198684 0.241319,1.198684 0,0 2.203713,0.599341 4.656688,-0.501211 2.452979,-1.100549 3.455406,-2.954216 3.452746,-2.954216 0,0 3.805482,-1.251693 5.90855,-2.503385 1.572577,-0.936123 2.808373,-2.654548 3.333433,-3.463382 0.156459,-0.238671 0.19359,-0.660328 0.06365,-0.914907 -0.318224,-0.633794 -1.073992,-1.858953 -2.696975,-3.381179 -2.402628,-2.251463 -7.107348,-3.25389 -7.107348,-3.25389 0,0 -0.800856,-0.800857 -1.752876,-1.302098 -0.952025,-0.501244 -4.304014,-1.800626 -6.857862,-1.95179 -0.159113,-0.01059 -0.304966,-0.01325 -0.437564,-0.01059 z m 32.519658,3.537605 h -0.0026 c -1.874908,0 -3.394421,1.519513 -3.394421,3.394421 0,0.899009 0.358004,1.763513 0.994452,2.399966 0.636449,0.636452 1.500954,0.994449 2.399969,0.994449 0.901668,0 1.763509,-0.358004 2.399972,-0.994449 0.636453,-0.636448 0.994445,-1.500957 0.994445,-2.399966 0,-0.901671 -0.357998,-1.763514 -0.994445,-2.399968 -0.636463,-0.636454 -1.498311,-0.994453 -2.399978,-0.994453 z m -20.366513,3.394421 h -0.0027 c 0.450822,0 0.883055,0.177673 1.201283,0.495901 0.318227,0.318227 0.495902,0.750505 0.495902,1.201283 0,0.45078 -0.177675,0.880401 -0.495902,1.198684 -0.318228,0.318283 -0.750505,0.498554 -1.201283,0.498554 -0.936126,0 -1.697211,-0.761086 -1.697211,-1.697209 0,-0.938784 0.761085,-1.697208 1.697211,-1.697208 z m 14.807584,5.88705 c -0.586048,0.02652 -1.68397,0.649694 -4.152844,2.588244 -3.291002,2.582925 -3.362624,8.493966 -2.582924,10.475174 0.779696,1.981211 1.169489,3.222039 1.060754,6.054509 -0.106076,2.832189 -1.665415,4.884794 -1.665415,4.884794 0,0 -0.249274,-4.105094 -2.230245,-6.30117 C 52.107756,42.28138 50.476852,39.592321 50.124171,38.282302 49.771468,36.972283 49.840419,36.052054 49.097868,36.014943 48.355338,35.980463 48,37.5 48,37.5 c 0,0 -0.636453,3.680795 -0.495901,6.194814 0.140552,2.514019 3.362624,6.157474 4.036188,7.610851 0.673568,1.450604 0.177674,4.319906 -0.143198,5.134056 -0.188284,0.479995 -0.771721,2.285916 -1.286145,3.900922 -0.461425,-0.06895 -0.917568,-0.114027 -1.363087,-0.119337 -0.503853,-0.008 -0.981212,0.02388 -1.431989,0.07955 -0.172375,-0.678883 -0.36331,-1.389561 -0.517118,-1.914678 -0.318227,-1.097867 -1.097868,-3.680791 -0.708076,-5.271983 0.389826,-1.593793 0.673567,-2.691661 0.352704,-2.938321 -0.318228,-0.246628 -0.636455,0.0716 -1.272909,0.602001 -0.636451,0.530399 -1.55668,1.874906 -1.877564,3.113302 -0.318227,1.238453 0.74253,3.468644 0.74253,3.468644 0,0 -0.636455,-0.920229 -1.378984,-1.946473 -0.742527,-1.026244 -1.026302,-2.479509 -0.954679,-2.975435 0.07159,-0.495902 0.564852,-2.230244 0.530376,-5.378002 -0.03448,-3.150473 -2.72617,-5.096943 -3.468641,-5.558359 -0.742473,-0.461414 -3.325457,-2.158625 -3.855832,-1.453264 -0.530379,0.708077 1.026301,1.949134 1.827157,2.901154 0.800856,0.95202 1.500954,3.405051 1.251692,5.558358 -0.249265,2.153307 -0.201544,4.90335 0.35005,6.706806 0.551591,1.803453 2.452975,3.155734 3.654317,4.404766 0.713336,0.742527 1.119083,1.485057 1.352449,1.99422 -0.259888,0.153812 -0.400434,0.257234 -0.400434,0.257234 0,0 -0.551591,-0.35005 -2.752648,-0.450825 -2.203713,-0.100766 -4.304008,0.901673 -5.656456,1.803287 -1.35245,0.901614 -3.405055,2.903809 -3.405055,4.054744 0,1.150932 0.750505,1.13238 0.750505,1.13238 0,0 31.236568,-0.02918 32.188701,-0.02918 0.951796,0 1.601712,-1.851034 -0.750505,-4.054747 -2.352218,-2.203714 -6.706805,-1.750276 -6.706805,-1.750276 0,0 -0.800856,-0.413694 -1.965028,-0.893694 0.328833,-0.60726 0.745187,-1.315337 1.288803,-2.126829 1.662755,-2.476849 2.903811,-3.184926 5.380664,-5.271984 2.476847,-2.087058 3.64368,-4.722994 4.139603,-7.860338 0.461428,-2.901155 -0.143198,-4.672643 -1.416095,-7.820743 -1.272905,-3.150472 -1.76883,-6.406961 -0.954678,-8.178283 0.814149,-1.768831 1.487716,-3.113303 1.026301,-3.503152 -0.11403,-0.09812 -0.254579,-0.153808 -0.450825,-0.14585 z m 8.104746,4.296089 h -0.0026 c -1.40552,0 -2.545817,1.140299 -2.545817,2.545814 0,1.405515 1.140297,2.545814 2.545817,2.545814 0.676222,0 1.323312,-0.267841 1.800615,-0.745188 0.47731,-0.477347 0.745186,-1.127062 0.745186,-1.800626 0,-0.676225 -0.267838,-1.323313 -0.745186,-1.800626 -0.477329,-0.477311 -1.12438,-0.745188 -1.800609,-0.745188 z m -11.582893,6.396216 c 0,0 1.538125,4.521478 1.622986,5.900631 0.07426,1.254349 0.315571,5.10226 -3.179608,9.355581 0,0 2.171918,-4.410084 2.373433,-7.573514 0.132598,-2.0844 -0.209499,-3.892945 -0.495902,-4.919246 -0.358004,-1.275567 -0.318227,-2.760622 -0.318227,-2.760622 z m 10.734283,5.484134 h -0.0026 c -0.936117,0 -1.697207,0.758426 -1.697207,1.697209 0,0.450824 0.180327,0.880398 0.498557,1.198681 0.318224,0.318283 0.747842,0.498557 1.198676,0.498557 0.45084,0 0.883066,-0.18033 1.20129,-0.498557 0.318229,-0.318226 0.495901,-0.747845 0.495901,-1.198681 0,-0.450837 -0.177672,-0.883059 -0.495901,-1.201286 -0.318224,-0.318224 -0.750507,-0.495902 -1.20129,-0.495902 z"
     fill="#4c4c4c"
     id="path1"
     style="stroke-width:0.056574" />
</svg>
