<?xml version="1.0" encoding="UTF-8" standalone="no"?>
<svg
   width="128"
   height="100"
   version="1.1"
   viewBox="0 0 96 75"
   id="svg10"
   sodipodi:docname="deserts.svg"
   inkscape:version="1.4.2 (ebf0e940d0, 2025-05-08)"
   xmlns:inkscape="http://www.inkscape.org/namespaces/inkscape"
   xmlns:sodipodi="http://sodipodi.sourceforge.net/DTD/sodipodi-0.dtd"
   xmlns="http://www.w3.org/2000/svg"
   xmlns:svg="http://www.w3.org/2000/svg">
  <defs
     id="defs10" />
  <sodipodi:namedview
     id="namedview10"
     pagecolor="#ffffff"
     bordercolor="#000000"
     borderopacity="0.25"
     inkscape:showpageshadow="2"
     inkscape:pageopacity="0.0"
     inkscape:pagecheckerboard="0"
     inkscape:deskcolor="#d1d1d1"
     inkscape:document-units="pt"
     inkscape:zoom="2.0075"
     inkscape:cx="134.49564"
     inkscape:cy="108.84184"
     inkscape:window-width="1862"
     inkscape:window-height="1011"
     inkscape:window-x="0"
     inkscape:window-y="0"
     inkscape:window-maximized="1"
     inkscape:current-layer="svg10" />
  <path
     d="m 55.375876,62.681843 c -3.631402,-0.965049 -7.014523,-1.612123 -10.163289,-2.033268 0.214737,-1.18535 0.806046,-4.922722 -0.06696,-5.614404 0,0 0.186886,-1.238319 0.133885,-2.610587 2.169919,-1.043105 2.621714,-3.430567 1.090539,-3.99118 -0.719629,-0.264964 -1.221626,0.605239 -1.550727,1.606513 -0.315144,-0.708411 -0.819972,-1.216072 -1.639944,-1.227196 -2.90624,-0.05021 -0.53271,6.395124 0.242653,6.637873 0,0 -0.186885,0.117161 -0.37374,0.532711 -0.306782,-0.803248 -0.965048,-1.854744 -2.22009,-1.235585 -1.793413,0.88693 0.541104,3.321822 1.857541,3.508708 0,0.582914 0.04184,1.282958 0.150609,2.119685 -1.893787,-0.189653 -3.695498,-0.295622 -5.399665,-0.326303 -0.161769,-4.537886 -0.50203,-16.137756 -0.03348,-22.42994 8.521089,-2.10299 8.939373,-23.389677 3.497516,-22.826209 -5.622796,0.580133 -2.278687,6.97823 -1.985831,11.870368 0.145013,2.437677 -0.504828,3.575625 -1.210499,4.125054 -0.251011,-5.338332 -1.946784,-9.814619 -6.49567,-9.454641 -5.090085,0.404421 -3.781966,13.401911 -2.922957,21.02691 -0.616365,-0.111566 -1.692969,-0.359795 -2.114115,-0.772557 -2.593866,-2.529724 -1.163056,-13.00266 -5.28252,-12.9384 -3.372018,0.05299 -6.855657,20.957294 7.957608,19.263908 0.357013,4.038616 0.878596,9.432622 1.171452,12.458821 -9.803323,1.087742 -14.829932,4.409532 -14.829932,4.409532 v 3.876821 h 67.71166 v -3.229746 c 0,0 -11.114126,1.603729 -27.52557,-2.74727 z"
     fill="#4c4c4c"
     id="path1"
     style="stroke-width:0.0595005" />
  <path
     d="m 73.005895,41.998249 c 0,3.525408 -2.858835,6.384413 -6.38681,6.384413 -3.527944,0 -6.386779,-2.858826 -6.386779,-6.384413 0,-3.528204 2.858835,-6.386793 6.386779,-6.386793 3.527975,0 6.38681,2.858824 6.38681,6.386793"
     fill="#4c4c4c"
     id="path2"
     style="stroke-width:0.0595005" />
  <path
     d="m 66.619085,28.214346 -1.782221,6.473662 h 3.56724 z"
     fill="#4c4c4c"
     id="path3"
     style="stroke-width:0.0595005" />
  <path
     d="m 66.619085,55.882121 1.785019,-6.47605 h -3.56724 z"
     fill="#4c4c4c"
     id="path4"
     style="stroke-width:0.0595005" />
  <path
     d="m 59.172607,40.17396 -6.473672,1.785019 6.473672,1.785017 z"
     fill="#4c4c4c"
     id="path5"
     style="stroke-width:0.0595005" />
  <path
     d="m 74.070936,40.17396 v 3.570036 l 6.473669,-1.785017 z"
     fill="#4c4c4c"
     id="path6"
     style="stroke-width:0.0595005" />
  <path
     d="m 76.153485,32.021785 -5.753884,3.464066 2.585469,2.457196 z"
     fill="#4c4c4c"
     id="path7"
     style="stroke-width:0.0595005" />
  <path
     d="m 57.088881,52.072291 5.751087,-3.464063 -2.582672,-2.457195 z"
     fill="#4c4c4c"
     id="path8"
     style="stroke-width:0.0595005" />
  <path
     d="m 62.51058,35.557906 -5.918451,-3.168405 3.461272,5.753884 z"
     fill="#4c4c4c"
     id="path9"
     style="stroke-width:0.0595005" />
  <path
     d="m 73.309339,45.821757 -2.45718,2.585479 5.918451,3.168405 z"
     fill="#4c4c4c"
     id="path10"
     style="stroke-width:0.0595005" />
</svg>
