<?xml version="1.0" encoding="UTF-8" standalone="no"?>
<svg
   width="128"
   height="100"
   version="1.1"
   viewBox="0 0 96 75"
   id="svg14"
   sodipodi:docname="glacial.svg"
   inkscape:version="1.4.2 (ebf0e940d0, 2025-05-08)"
   xmlns:inkscape="http://www.inkscape.org/namespaces/inkscape"
   xmlns:sodipodi="http://sodipodi.sourceforge.net/DTD/sodipodi-0.dtd"
   xmlns="http://www.w3.org/2000/svg"
   xmlns:svg="http://www.w3.org/2000/svg">
  <defs
     id="defs14" />
  <sodipodi:namedview
     id="namedview14"
     pagecolor="#ffffff"
     bordercolor="#000000"
     borderopacity="0.25"
     inkscape:showpageshadow="2"
     inkscape:pageopacity="0.0"
     inkscape:pagecheckerboard="0"
     inkscape:deskcolor="#d1d1d1"
     inkscape:document-units="pt"
     inkscape:zoom="2.0075"
     inkscape:cx="43.337484"
     inkscape:cy="83.935243"
     inkscape:window-width="1862"
     inkscape:window-height="1011"
     inkscape:window-x="0"
     inkscape:window-y="0"
     inkscape:window-maximized="1"
     inkscape:current-layer="svg14" />
  <path
     d="m 56.018753,21.174224 h -14.7289 c -1.83338,1.913865 -2.84612,4.406815 -2.84612,7.060587 0,2.487742 0.90627,4.863856 2.54231,6.725424 2.42802,0.373943 4.84047,0.542738 7.66831,0.542738 1.12964,0 2.19169,-0.02857 3.21746,-0.0857 0.003,0 0.003,-0.0026 0.005,-0.0026 0.003,0 0.005,0.0026 0.008,0 1.53471,-0.0857 2.98373,-0.233717 4.44055,-0.457041 1.63598,-1.861901 2.54231,-4.240618 2.54231,-6.725424 0,-2.653939 -1.01275,-5.149492 -2.84612,-7.060587 z m -2.20211,10.192286 -4.11076,0.971198 c -0.18697,0.04415 -0.37914,0.06752 -0.56873,0.06752 -0.54274,0 -1.07507,-0.181775 -1.51133,-0.529752 -0.5895,-0.467428 -0.92705,-1.16598 -0.92705,-1.919073 0,-0.753092 0.33759,-1.451616 0.92705,-1.919072 0.58945,-0.467456 1.34774,-0.636201 2.08006,-0.462237 l 4.11076,0.971197 c 0.66739,0.158408 1.11402,0.724507 1.11402,1.407464 0,0.685562 -0.44666,1.249079 -1.11402,1.407464 z"
     fill="#4c4c4c"
     id="path1"
     style="stroke-width:0.0553989" />
  <path
     d="m 54.601093,41.36712 c 0.19476,0.50118 0.37394,1.01274 0.52456,1.54513 0.32979,1.15041 0.53754,2.29301 0.61543,3.37589 l 0.60767,-0.70373 c 0.18437,-0.21553 0.4882,-0.29084 0.75309,-0.18177 l 1.35555,0.55052 c -0.0234,-1.19196 -0.22852,-2.51633 -0.59725,-3.81992 -0.10647,-0.37654 -0.23372,-0.74267 -0.36616,-1.10365 -0.92189,0.13503 -1.89048,0.24929 -2.89547,0.34018 z"
     fill="#4c4c4c"
     id="path2"
     style="stroke-width:0.0553989" />
  <path
     d="m 45.694063,36.762361 -0.22593,3.458999 c 1.04654,0.0493 2.1138,0.0779 3.18887,0.0779 1.01275,0 2.02035,-0.026 3.00971,-0.0701 l -0.32719,-3.453793 c -0.86212,0.03636 -1.74767,0.05713 -2.68253,0.05713 -1.03612,0 -2.01513,-0.02597 -2.96295,-0.07011 z"
     fill="#4c4c4c"
     id="path3"
     style="stroke-width:0.0553989" />
  <path
     d="m 54.208863,11.765722 c -0.08309,-0.38433 -0.5557,-0.675202 -1.09584,-0.675202 h -8.91202 c -0.54014,0 -1.01275,0.290844 -1.09584,0.675202 l -1.23867,5.695004 h 13.58436 l -1.23866,-5.695004 z"
     fill="#4c4c4c"
     id="path4"
     style="stroke-width:0.0553989" />
  <path
     d="m 57.961583,36.355179 c -0.0182,-0.11426 -0.0883,-0.176584 -0.12724,-0.205148 -0.0389,-0.02597 -0.11945,-0.07271 -0.22592,-0.05194 -1.6412,0.290844 -3.24865,0.488203 -4.94175,0.605067 l 0.3272,3.456392 c 1.95801,-0.12724 3.82252,-0.34018 5.47407,-0.63105 z"
     fill="#4c4c4c"
     id="path5"
     style="stroke-width:0.0553989" />
  <path
     d="m 59.631313,19.818613 v -0.0779 c 0,-0.524561 -0.42588,-0.950424 -0.95043,-0.950424 h -20.04996 c -0.52456,0 -0.95042,0.425879 -0.95042,0.950424 v 0.0779 l 21.92466,0.02597 c 0.013,0 0.026,-0.01039 0.026,-0.02597 z"
     fill="#4c4c4c"
     id="path6"
     style="stroke-width:0.0553989" />
  <path
     d="m 53.510843,29.844703 -4.11076,-0.971198 c -0.0857,-0.02078 -0.17399,-0.03116 -0.25969,-0.03116 -0.24669,0 -0.4908,0.0831 -0.69077,0.241506 -0.27007,0.212942 -0.42328,0.53235 -0.42328,0.875136 0,0.342786 0.15321,0.662183 0.42328,0.875136 0.27007,0.212953 0.61543,0.288246 0.95043,0.210344 l 4.11076,-0.971198 c 0.0312,-0.0078 0.0909,-0.02077 0.0909,-0.11426 0,-0.09349 -0.0597,-0.106471 -0.0909,-0.11426 z"
     fill="#4c4c4c"
     id="path7"
     style="stroke-width:0.0553989" />
  <path
     d="m 39.106023,66.08499 c 0.7193,0.0338 1.42048,-0.0519 2.08267,-0.27527 2.56048,-0.86212 7.69158,-2.0307 13.28797,-0.18437 0.84395,0.27786 1.79443,0.31681 2.74225,0.11426 0.64661,-0.14023 1.26985,-0.23631 1.87231,-0.29344 3.79654,-2.93958 5.97256,-7.39298 5.97256,-12.25922 0,-4.03027 -1.45943,-7.81124 -4.07703,-10.73741 -0.003,-0.003 -0.008,-0.005 -0.0104,-0.008 -0.005,-0.005 -0.008,-0.0156 -0.013,-0.0208 -0.53754,-0.59725 -1.12183,-1.15556 -1.75288,-1.67753 -0.12205,0.0234 -0.25189,0.0442 -0.37654,0.0675 0.10907,0.31422 0.21294,0.63365 0.30642,0.95823 0.51677,1.82817 0.73232,3.62774 0.62324,5.20922 -0.0156,0.21294 -0.12984,0.4051 -0.31162,0.51676 -0.17918,0.11426 -0.4051,0.13244 -0.60246,0.0519 l -1.80478,-0.73232 -1.45683,1.6931 c -0.12984,0.15062 -0.31422,0.23112 -0.50378,0.23112 -0.0857,0 -0.1714,-0.0156 -0.2545,-0.0493 -0.26487,-0.10907 -0.43107,-0.37654 -0.4077,-0.66218 0.10387,-1.40747 -0.0987,-3.09281 -0.57388,-4.74702 -0.17918,-0.63105 -0.39731,-1.22831 -0.6388,-1.79958 -1.4776,0.0987 -3.00971,0.15321 -4.55484,0.15321 -1.31401,0 -2.6202,-0.0416 -3.89266,-0.11426 h -0.003 c -0.0156,0 -0.0286,0 -0.0441,-0.003 -0.003,0 -0.005,-0.003 -0.008,-0.003 -2.38908,-0.14023 -4.65091,-0.39992 -6.60632,-0.77127 -0.86212,0.71155 -1.64119,1.49838 -2.32415,2.34753 l 1.475,2.51112 c 0.18697,0.31682 0.0805,0.72451 -0.23631,0.90888 -0.10647,0.0623 -0.22073,0.0909 -0.33499,0.0909 -0.22852,0 -0.44926,-0.11686 -0.57388,-0.32719 l -1.18155,-2.01253 c -1.7295,2.60463 -2.67471,5.6817 -2.67471,8.92254 0,5.28971 2.49816,9.97955 6.85783,12.89796 z m 9.54855,-20.66545 c 1.8152,0 3.2902,1.475 3.2902,3.2902 0,1.8152 -1.4776,3.29019 -3.2902,3.29019 -1.8152,0 -3.29019,-1.4776 -3.29019,-3.29019 0,-1.8152 1.4776,-3.2902 3.29019,-3.2902 z m 0,9.24164 c 1.8152,0 3.2902,1.475 3.2902,3.2902 0,1.8152 -1.4776,3.29019 -3.2902,3.29019 -1.8152,0 -3.29019,-1.47759 -3.29019,-3.29019 0,-1.8152 1.4776,-3.2902 3.29019,-3.2902 z"
     fill="#4c4c4c"
     id="path8"
     style="stroke-width:0.0553989" />
  <path
     d="m 39.477193,36.146879 c -0.0389,0.02857 -0.10907,0.09349 -0.12724,0.205148 l -0.50638,3.173303 c 1.60225,0.28306 3.40182,0.4882 5.29752,0.61803 l 0.22592,-3.464147 c -1.59183,-0.119451 -3.11098,-0.309021 -4.66132,-0.584292 -0.10647,-0.01818 -0.18697,0.02337 -0.22592,0.05194 z"
     fill="#4c4c4c"
     id="path9"
     style="stroke-width:0.0553989" />
  <path
     d="m 48.654573,59.91134 c 1.08288,0 1.96062,-0.88035 1.96062,-1.96063 0,-1.08288 -0.88034,-1.96062 -1.96062,-1.96062 -1.08288,0 -1.96062,0.88035 -1.96062,1.96062 0,1.08289 0.88034,1.96063 1.96062,1.96063 z"
     fill="#4c4c4c"
     id="path10"
     style="stroke-width:0.0553989" />
  <path
     d="m 57.499563,67.03785 c -1.17895,0.25449 -2.37091,0.20255 -3.44077,-0.15062 -5.22738,-1.72689 -10.0416,-0.62844 -12.44702,0.18177 -0.8388,0.28046 -1.71908,0.38953 -2.62281,0.34019 -0.0286,0.005 -0.0571,0.0104 -0.0883,0.0104 -0.0597,0 -0.11945,-0.0104 -0.17918,-0.026 -0.0468,-0.005 -0.0935,-0.003 -0.14283,-0.008 -5.2897,-0.57908 -8.17466,1.0569 -9.51254,2.20732 h 36.971 c -1.97359,-3.36809 -6.12324,-3.07724 -8.54362,-2.55528 z"
     fill="#4c4c4c"
     id="path11"
     style="stroke-width:0.0553989" />
  <path
     d="m 48.654573,50.66859 c 1.08288,0 1.96062,-0.88035 1.96062,-1.96062 0,-1.08289 -0.88034,-1.96063 -1.96062,-1.96063 -1.08288,0 -1.96062,0.88035 -1.96062,1.96063 0,1.08288 0.88034,1.96062 1.96062,1.96062 z"
     fill="#4c4c4c"
     id="path12"
     style="stroke-width:0.0553989" />
  <path
     d="m 71.943153,32.493323 -0.69592,-0.714147 -1.46718,1.423087 -0.43627,-0.979009 0.62064,-2.126819 -0.95824,-0.280457 -0.7219,2.477383 0.73232,1.649003 -7.43952,7.216256 0.69337,0.71675 6.38029,-6.188052 2.89027,0.524561 0.17659,-0.981613 -2.18654,-0.397315 z"
     fill="#4c4c4c"
     id="path13"
     style="stroke-width:0.0553989" />
  <path
     d="m 31.240493,31.159318 -0.98161,-0.168795 -0.40511,2.344924 -1.04914,-1.786614 -0.85957,0.503787 1.53992,2.622804 -4.83527,-2.002171 -0.38173,0.921893 6.05565,2.505913 3.49273,5.946511 0.85957,-0.50637 -4.03808,-6.873897 z"
     fill="#4c4c4c"
     id="path14"
     style="stroke-width:0.0553989" />
</svg>
