<?xml version="1.0" encoding="UTF-8" standalone="no"?>
<svg
   width="120"
   height="100"
   version="1.1"
   viewBox="0 0 90 75"
   id="svg1"
   sodipodi:docname="manmade.svg"
   inkscape:version="1.4.2 (ebf0e940d0, 2025-05-08)"
   xmlns:inkscape="http://www.inkscape.org/namespaces/inkscape"
   xmlns:sodipodi="http://sodipodi.sourceforge.net/DTD/sodipodi-0.dtd"
   xmlns="http://www.w3.org/2000/svg"
   xmlns:svg="http://www.w3.org/2000/svg">
  <defs
     id="defs1" />
  <sodipodi:namedview
     id="namedview1"
     pagecolor="#ffffff"
     bordercolor="#000000"
     borderopacity="0.25"
     inkscape:showpageshadow="2"
     inkscape:pageopacity="0.0"
     inkscape:pagecheckerboard="0"
     inkscape:deskcolor="#d1d1d1"
     inkscape:document-units="pt"
     inkscape:zoom="2.0075"
     inkscape:cx="123.03861"
     inkscape:cy="166.62516"
     inkscape:window-width="1920"
     inkscape:window-height="1043"
     inkscape:window-x="0"
     inkscape:window-y="0"
     inkscape:window-maximized="1"
     inkscape:current-layer="svg1" />
  <path
     d="M 52.386757,39.21747 C 50.924424,37.1549 50.408811,36.63901 48.345964,35.26265 48.172759,35.09209 47.91339,35.17675 47.91339,35.43321 47.91339,36.12358 48,36.8094 48,37.5 c 0,2.06257 -0.172545,3.01036 -0.947115,4.89973 l -2.062566,3.52891 c -0.08858,0.17188 0.172545,0.51851 0.429269,0.34531 l 5.676821,-3.61217 1.28954,-2.83982 c 0.08792,-0.25937 0.08792,-0.43125 6.6e-4,-0.60447 M 62.01966,25.8014 c 0.259369,0 0.431908,0.0859 0.431908,0.34531 l 2.321951,7.99877 -0.858998,0.51587 -5.334339,-8.43146 c -0.172544,-0.17188 -0.08594,-0.60181 0.256504,-0.60181 z m -2.581112,18.92255 c 0,0 3.35566,8.77389 3.35566,8.85963 0.08859,0.34245 0.345308,0.60181 0.601812,0.775 l 9.375809,7.56947 c 0.259369,0.25937 0.431908,0.60181 0.518512,0.94514 V 63.475 c 0,1.37619 -0.518512,2.66664 -1.549603,3.61217 -0.08396,0 -0.172544,0.17189 -0.172544,0.34531 0,0.1732 0.172544,0.42993 0.431907,0.42993 h 1.290217 c 1.031058,0 2.062566,-0.60311 2.580435,-1.54695 l 3.183148,-5.42116 c 0.0833,-0.0837 0.0833,-0.17233 0.0833,-0.34288 0,-0.25938 -0.170557,-0.51587 -0.429929,-0.68908 l -1.890054,-0.85833 -6.537681,-7.56947 c -0.258704,-0.25937 -0.601812,-0.43258 -0.947115,-0.43258 -0.256503,0 -0.429267,0.0859 -0.601812,0.17321 -0.429927,-0.51587 -0.688405,-0.94514 -0.774999,-1.54695 l -3.182246,-13.07593 0.947114,-0.60181 h 0.08396 c 0.345309,0.2565 0.775,0.42861 1.292193,0.42861 0.256503,0 0.515866,0 0.68643,-0.17189 0.601812,-0.34398 0.860521,-0.6031 1.292192,-1.20429 0.08396,-0.0846 0.08396,-0.34244 0.08396,-0.51587 v -0.0859 c 0,-0.51587 -0.343323,-1.03106 -0.858997,-1.28757 -0.517853,-0.34662 -0.860521,-0.86181 -0.860521,-1.5496 -0.08661,-2.3246 -0.602489,-4.81647 -1.46301,-6.96811 -0.429928,-0.94644 -1.031057,-1.63287 -1.978623,-2.15141 -2.580435,-1.20431 -5.331687,-1.80612 -8.170832,-1.80612 h -1.2043 c -0.858998,0 -1.46081,0.2565 -2.148764,0.68909 l -3.183149,2.14876 c -0.0866,0.0886 -0.172544,0.0886 -0.343323,0.0886 -0.345308,0 -0.601812,-0.25936 -0.601812,-0.60181 V 22.5304 c 0,-2.06544 -1.119681,-3.95482 -2.926414,-4.90239 -0.688406,-0.42861 -1.204301,-0.60181 -1.978623,-0.60181 -0.688406,0 -1.031734,0.0846 -1.633546,0.42993 -0.947114,0.34531 -1.63552,1.03105 -2.237332,1.80611 -0.429267,0.60181 -0.602488,1.29157 -0.602488,2.06544 0,1.97795 1.636196,3.8702 3.525575,4.55866 l 2.067416,0.34245 c 0.429268,0 0.685754,0.25937 0.685754,0.68908 0,0.17321 -0.08396,0.34244 -0.256503,0.51587 l -2.151415,2.15141 c -0.172545,0.25651 -0.256504,0.34531 -0.256504,0.68908 v 0.60182 c 0,2.40792 0.343323,4.98858 1.031057,7.31054 0,0.3453 0.08396,0.6031 0.08396,0.86051 0,0.43258 -0.08396,0.775 -0.256503,1.2043 l -2.926415,7.22705 c -0.169898,0.2565 -0.256503,0.60181 -0.256503,0.85832 0,0.34531 0.08594,0.69038 0.256503,0.94779 l -3.611548,2.32066 C 36.72981,51.0034 36.473086,50.66098 35.957214,50.3163 l -0.515867,-0.25783 -2.238009,-0.69038 c -0.515867,-0.17056 -0.94514,-0.51322 -1.203624,-0.94514 l -1.636197,-2.74967 c -0.08396,0 -0.08396,-0.0886 -0.169898,-0.1732 l -1.290218,-0.42993 -2.580434,-0.34531 h -0.172544 c -0.858321,0 -1.633546,0.42992 -2.062565,1.2043 L 11.441794,67.86181 h 29.246657 c 0.258703,0 0.517853,-0.2565 0.517853,-0.51322 0,0 0,-0.0901 -3.784961,-13.5921 l 4.04147,-2.58044 c 0.259369,0.17056 0.429267,0.17056 0.688405,0.17056 0.258703,0 0.431908,0 0.601812,-0.0846 l 1.808087,-0.86052 c 0.429268,-0.25937 0.685754,-0.60181 0.685754,-1.11703 0,-0.17321 0,-0.25782 -0.08396,-0.42993 l 4.815792,-2.92574 -0.688406,1.7215 c -0.604462,1.54695 -0.94514,3.18224 -1.033031,4.81647 l -0.603109,11.52626 -0.0833,1.11703 c -0.08859,0.0859 -0.08859,0.17056 -0.173204,0.17056 l -3.700342,1.03371 c -0.343323,0.0859 -0.601812,0.4286 -0.601812,0.77234 0,0.43125 0.431907,0.77501 0.774999,0.77501 h 8.516077 c 0.516528,0 0.859619,-0.42993 0.947792,-0.85962 0.513227,-4.12937 1.031057,-8.25658 1.632869,-12.47344 0,-0.0846 0,-0.17056 -0.08594,-0.2565 l -0.173203,-0.0873 c -0.169899,0 -0.342443,-0.16923 -0.342443,-0.4286 v -1.11833 c 0,-0.25937 0.08396,-0.43125 0.172544,-0.60182 2.750576,-3.18224 2.837169,-3.44163 4.470489,-7.22704 0,-0.0859 0.08859,-0.17188 0.172544,-0.17188 0.173425,4.5e-4 0.257384,0.0864 0.257384,0.0864"
     fill="#4c4c4c"
     fill-rule="evenodd"
     id="path1"
     style="stroke-width:0.0564128" />
</svg>
