<?xml version="1.0" encoding="UTF-8" standalone="no"?>
<svg
   width="128"
   height="100"
   version="1.1"
   viewBox="0 0 96 75"
   id="svg1"
   sodipodi:docname="grasses.svg"
   inkscape:version="1.4.3 (0d15f75042, 2025-12-25)"
   xml:space="preserve"
   xmlns:inkscape="http://www.inkscape.org/namespaces/inkscape"
   xmlns:sodipodi="http://sodipodi.sourceforge.net/DTD/sodipodi-0.dtd"
   xmlns="http://www.w3.org/2000/svg"
   xmlns:svg="http://www.w3.org/2000/svg"><defs
     id="defs1" /><sodipodi:namedview
     id="namedview1"
     pagecolor="#ffffff"
     bordercolor="#000000"
     borderopacity="0.25"
     inkscape:showpageshadow="2"
     inkscape:pageopacity="0.0"
     inkscape:pagecheckerboard="0"
     inkscape:deskcolor="#d1d1d1"
     inkscape:document-units="pt"
     inkscape:zoom="1.04375"
     inkscape:cx="-270.17964"
     inkscape:cy="96.766467"
     inkscape:window-width="1848"
     inkscape:window-height="1011"
     inkscape:window-x="0"
     inkscape:window-y="0"
     inkscape:window-maximized="1"
     inkscape:current-layer="svg1" /><path
     d="M 23.080116,68.302894 C 22.268976,60.571181 20.752558,53.25268 18.55521,46.468337 c 2.075239,4.427209 4.090859,9.817416 5.764578,17.263822 0.04072,0.176326 0.206175,0.292977 0.390639,0.26585 0.179049,-0.02715 0.309259,-0.187178 0.295692,-0.368934 -0.55069,-7.514112 -2.194626,-16.965782 -5.010449,-28.765903 2.826704,7.693519 5.314279,15.815289 6.041267,24.344475 0.0163,0.189894 0.184464,0.325534 0.37165,0.317397 0.189886,-0.01358 0.333663,-0.176334 0.320104,-0.36622 -0.412343,-7.028569 -0.05968,-13.080832 1.082378,-18.370921 -0.377072,6.936553 0.07053,13.704693 1.329268,20.177687 0.03253,0.16276 0.173611,0.279411 0.336378,0.282125 0.170904,0 0.309259,-0.113943 0.341808,-0.273988 2.243464,-10.375892 2.132236,-19.190392 1.567985,-27.062729 1.128501,6.3694 1.974884,13.580264 1.706297,21.468811 -0.0057,0.184464 0.13564,0.344516 0.320104,0.358083 0.181756,0.0163 0.349945,-0.119359 0.371649,-0.30383 1.180069,-9.787905 1.614109,-18.642337 1.304842,-26.831819 1.562548,11.192469 2.20545,20.858265 1.964061,29.362565 -0.0057,0.184471 0.132925,0.3391 0.317396,0.355368 0.170904,0.01357 0.347231,-0.111221 0.374365,-0.295685 0.271273,-1.814818 0.526279,-3.602545 0.778548,-5.357687 0.746035,-5.208486 1.464858,-10.224839 2.398108,-14.949521 -1.079663,9.372387 -1.345528,18.864571 1.323824,25.551691 0.05968,0.146485 0.21159,0.236009 0.368934,0.214305 0.157345,-0.02169 0.282126,-0.146485 0.2984,-0.303829 0.537124,-4.600828 0.659219,-9.093444 0.360798,-13.403758 0.797537,3.485872 1.313,6.610731 1.573429,9.543112 0.03799,0.594113 0.08138,1.190891 0.13021,1.782283 0.0163,0.189893 0.168189,0.325533 0.368935,0.317396 0.189886,-0.01357 0.333663,-0.176334 0.322811,-0.36622 -0.03253,-0.588676 -0.07595,-1.185455 -0.13021,-1.787727 -0.689024,-10.940717 0.461174,-22.277287 3.504854,-34.457043 -1.936927,14.900905 -2.229875,25.50018 -0.968435,33.903788 0.02442,0.16276 0.157345,0.284841 0.322819,0.295693 0.181749,0.01357 0.311967,-0.09495 0.355368,-0.254999 1.855497,-6.724739 2.932495,-14.949522 3.211899,-24.507098 0.925026,7.885653 1.486619,16.862194 0.07324,24.175488 -0.03526,0.179049 0.07596,0.355368 0.252291,0.401491 0.181749,0.04884 0.360798,-0.05157 0.417766,-0.225157 2.373681,-7.115378 4.052837,-15.527662 5.091821,-25.564418 0.06241,10.311649 -0.249576,19.621531 -1.972169,27.794811 -0.03799,0.184463 0.07596,0.366219 0.260428,0.409621 0.184464,0.04338 0.368935,-0.0678 0.417766,-0.249577 1.359066,-5.118955 2.653084,-9.608497 3.925349,-13.612669 -0.699906,5.137938 -1.204437,10.458062 -0.469311,14.616174 0.02715,0.151915 0.149199,0.268558 0.303829,0.28484 0.151915,0.0163 0.2984,-0.0678 0.358083,-0.21159 2.742616,-6.513508 3.274289,-14.062919 3.154959,-20.739043 1.378048,8.184268 2.202727,16.053718 0.832837,23.121055 -0.03253,0.173619 0.07053,0.347238 0.238717,0.398777 0.173619,0.05157 0.352661,-0.03526 0.420481,-0.198031 2.593359,-6.185375 3.314968,-16.227337 2.151217,-29.894411 1.747041,8.360782 2.539142,15.056003 2.471315,20.896453 -0.04611,1.066124 -0.08681,2.124083 -0.124788,3.171219 -0.0057,0.189893 0.141069,0.349945 0.328248,0.358083 0.189886,0.01084 0.35266,-0.135641 0.363505,-0.322812 0.07053,-1.036262 0.113936,-2.096943 0.124788,-3.18748 0.431327,-9.985835 1.307559,-20.676544 3.773429,-29.107925 -1.592404,14.065806 -1.966725,26.010028 -1.144761,36.432215 0.01357,0.179041 0.16276,0.320104 0.344516,0.320104 h 0.0029 c 0.179042,0 0.330956,-0.13564 0.347231,-0.314682 0.699905,-7.622912 2.080676,-13.742886 4.207474,-18.612244 -1.470302,8.450485 -2.615128,17.008608 -2.007469,23.916224 z"
     fill="#4c4c4c"
     id="path1"
     style="stroke-width:0.0578721" /></svg>
