<?xml version="1.0" encoding="UTF-8" standalone="no"?>
<svg
   width="128"
   height="100"
   version="1.1"
   viewBox="0 0 96 75"
   id="svg9"
   sodipodi:docname="volcano.svg"
   inkscape:version="1.4.2 (ebf0e940d0, 2025-05-08)"
   xmlns:inkscape="http://www.inkscape.org/namespaces/inkscape"
   xmlns:sodipodi="http://sodipodi.sourceforge.net/DTD/sodipodi-0.dtd"
   xmlns="http://www.w3.org/2000/svg"
   xmlns:svg="http://www.w3.org/2000/svg">
  <defs
     id="defs9" />
  <sodipodi:namedview
     id="namedview9"
     pagecolor="#ffffff"
     bordercolor="#000000"
     borderopacity="0.25"
     inkscape:showpageshadow="2"
     inkscape:pageopacity="0.0"
     inkscape:pagecheckerboard="0"
     inkscape:deskcolor="#d1d1d1"
     inkscape:document-units="pt"
     inkscape:zoom="1.4195169"
     inkscape:cx="84.535802"
     inkscape:cy="183.51314"
     inkscape:window-width="1920"
     inkscape:window-height="1043"
     inkscape:window-x="0"
     inkscape:window-y="0"
     inkscape:window-maximized="1"
     inkscape:current-layer="svg9" />
  <path
     d="m 9.069897,67.47699 c 2.86242,0 6.297654,-0.858726 9.446251,-0.858726 2.576178,0.28624 4.86618,1.144965 7.72893,0.858726 0.286243,-0.28624 0.858727,-0.28624 1.43121,-0.28624 0.858727,0 1.717453,-0.286246 2.576179,-0.286246 h 2.289936 c -0.858726,0 -6.011412,0.858725 -4.293631,1.144971 1.717453,0 -3.721146,1.144966 -4.007388,1.431212 6.011413,0 15.457201,-2.576183 22.613912,-2.289937 1.43121,0.28624 5.725171,1.144966 7.442821,1.144966 -5.152422,-2.003692 2.862421,-1.144966 5.438664,-1.144966 4.293631,0 7.728931,0.28624 11.450341,0.28624 2.862423,0.286239 4.866182,-0.572493 7.728933,-0.858726 3.148659,0 6.58389,0.858726 9.446244,0.858726 -2.289936,-0.858726 -3.148655,-2.003691 -4.579873,-1.717452 -0.858719,0 -1.144964,-0.572492 -1.431201,-1.144965 -0.286245,-0.572492 -0.57249,-0.572492 -1.144972,-0.286246 -0.286237,0 -0.286237,0 -0.57249,0.286246 -0.286245,0 -0.286245,-0.286246 -0.572489,0 -0.286246,0 -0.286246,0.28624 -0.572492,0 H 78.91629 v -0.286246 c -0.286239,-0.28624 -0.286239,0 -0.286239,0 -0.286247,0.286246 -0.286247,0.286246 -0.572493,0 0,0 0,-0.572492 -0.286239,-0.572492 -0.286246,-0.28624 -0.286246,0.572492 -0.572492,0.286246 -0.286247,0 0,-0.572492 -0.572493,-0.572492 -0.286239,0 -0.572492,0.28624 -0.572492,0 v -0.28624 c -0.286239,0 -0.572486,-0.572491 -0.858725,0 v 0.572486 c -0.28624,0.286246 -0.28624,0.286246 -0.28624,0.572492 -0.28624,0.286246 -0.28624,-0.28624 -0.28624,-0.28624 -0.286246,-0.286246 -0.286246,-0.572492 -0.572492,-0.572492 -0.286245,0.28624 -0.286245,0.858726 -0.286245,0.858726 -0.286241,0.28624 -0.286241,0 -0.286241,-0.28624 -0.286239,0 -0.286239,0.572492 -0.572491,0.28624 0,0 -0.286241,-0.28624 -0.286241,0 -0.286239,0 -0.286239,0.572492 -0.572491,0.572492 v -0.28624 l -0.28624,-0.286246 c -0.286246,-0.28624 -0.286246,0.858726 -0.572492,0.572492 h -0.28624 c -0.286246,0.28624 -0.286246,0.572492 -0.572492,0 v -0.572492 c 0,0 0,-0.572492 -0.28624,-0.572492 -0.286246,0.286246 -0.572492,1.144972 -0.858725,0.858726 v -0.28624 c 0,0 0,-0.28624 -0.286246,-0.572492 v -0.572486 -0.286246 c -0.28624,-0.286239 -0.572492,0.286246 -0.858726,0.286246 0,-0.286246 0,-0.572492 -0.286242,-0.858732 -0.286241,0 -0.286241,0.286247 -0.57249,0.286247 -0.286242,0 -0.286242,0 -0.286242,0.286239 0,0.286246 -0.286242,0.572492 -0.286242,0.572492 l -0.286242,-0.28624 c -0.286242,0 -0.286242,-0.286246 -0.286242,-0.286246 -0.286243,-0.28624 -0.572491,0 -0.572491,0.286246 -0.286242,0.572486 -0.286242,0.572486 -0.858726,0.572486 0,0.286246 0,0.286246 -0.286241,0.286246 l -0.286243,-0.286246 c 0,0 0,-0.28624 -0.286242,-0.28624 -0.286242,0.28624 -0.286242,0.858726 -0.286242,0.572492 -0.286242,0 -0.286242,-0.286246 -0.572491,0 -0.286248,0.28624 -0.286242,0.28624 -0.286242,0 0,-0.286246 -0.286241,-0.572492 -0.286241,-0.572492 -0.286243,-0.286239 -0.286243,0.28624 -0.286243,0.572492 0,0 0,1.144966 -0.286242,0.858726 v -0.28624 c -0.286242,0 -0.286242,-0.572492 -0.57249,-0.572492 v 0.572492 c -0.286243,0 -0.286243,0.572486 -0.286243,0.572486 0,0 -0.286242,-0.572486 -0.57249,-0.28624 0,0 0.286242,0.572492 -0.286242,0.572492 l -0.286242,-0.286246 c -0.286242,0 -0.286242,0 -0.286242,-0.28624 L 59.1655,64.614585 c -0.286242,0 -0.57249,0.572486 -0.57249,0 l -0.286243,-0.286246 c -0.286242,0.286246 -0.286242,0.572492 -0.57249,0.572492 0,0 -0.286242,-0.572492 -0.286242,-0.858725 0,0 0,-0.28624 -0.286242,-0.28624 0,0.28624 0,0.572486 -0.286242,0.572486 -0.286242,0.286246 -0.286242,0 -0.286242,0 -0.572491,-0.28624 -0.572491,-0.28624 -0.572491,-0.858726 0,-0.28624 -0.286242,-0.28624 -0.286242,0 0,0 -0.286242,0.858726 -0.57249,0.286247 0,0 0,-0.286247 -0.286243,-0.286247 0,-0.28624 -0.286241,0 -0.286241,0 0,0.286247 -0.286242,0.286247 -0.286242,0 -0.286243,0 -0.286243,0 -0.286243,0.286247 -0.286241,0 -0.286241,0.286239 -0.286241,0.572491 -0.286243,0 -0.286243,-0.572491 -0.286243,-0.572491 0,-0.286247 -0.286242,-0.572493 -0.286242,-0.858726 h -0.286242 c -0.286241,0 -0.286241,-0.286247 -0.572491,-0.286247 0,-0.572485 -0.286241,0 -0.57249,0.286247 0,0.286239 -0.286242,0 -0.286242,0.286239 -0.286242,0 -0.57249,0.28624 -0.57249,0.28624 v 0.286247 c -0.572491,0.286239 -0.572491,0.286239 -1.144969,0.286239 -0.858726,0 -0.858726,0.858726 -1.144968,1.144971 -0.286242,0 -0.858725,-0.286245 -1.144968,-0.572491 -0.858726,-0.286246 -0.57249,-0.286246 -1.144967,-0.858726 -0.572491,-0.858725 -1.144969,0.28624 -1.717453,-0.286246 -0.286242,0 -0.286242,0 -0.286242,-0.28624 -0.858726,-0.858726 -1.144967,0.858726 -1.717452,0.858726 h -0.286242 c -1.144968,0 -1.144968,0.858725 -1.717453,0.572492 l -0.286241,-0.286246 c -0.572491,-0.28624 -1.144968,0 -1.43121,0 -0.286242,-0.28624 -0.286242,-0.572486 -0.858726,-0.572486 -0.286242,-0.286246 -0.858726,-0.286246 -1.144968,0.28624 -0.286242,0 -0.286242,0 -0.572491,0.28624 -0.57249,0.572492 -0.57249,0.286246 -1.144968,0 -0.286242,-0.28624 -0.572491,-0.572486 -0.858726,-0.858726 -0.286242,-0.28624 -0.572491,-0.28624 -1.144968,0 -0.57249,0.286246 -0.57249,0.286246 -1.43121,-0.28624 h -0.286242 c -0.57249,-0.286239 -0.858726,-0.286239 -1.144968,-0.286239 -0.572491,0 -0.858727,-0.858726 -1.43121,-0.572492 -0.286242,0 -0.286242,0.572492 -0.286242,0.572492 -0.286242,0 -0.286242,0 -0.57249,0.286239 0,0.28624 0.286241,0.572493 0,0.858726 -0.286243,0.858725 -0.572491,0.572492 -0.858727,0.28624 -0.286242,-0.28624 -0.858726,-0.572486 -1.144968,-0.28624 0,0.28624 -0.286242,0.572492 -0.286242,0.572492 -0.286242,0.28624 -0.572491,-0.286246 -0.572491,-0.286246 -0.286242,0 -0.286242,0.858731 -0.57249,0.858731 0,0 -0.286242,0 -0.286242,-0.286245 L 23.95766,64.328346 c 0,-0.28624 -0.286242,-0.28624 -0.286242,-0.572486 -0.286242,-0.286246 -0.286242,-0.572492 -0.286242,0 -0.286242,0 -0.286242,0.28624 -0.57249,0 h -0.286243 c -0.286242,0 -0.286242,0.28624 -0.286242,0 -0.286242,-0.286246 -0.286242,-0.572492 -0.57249,-0.286246 0,0 -0.286242,0 -0.286242,0.286246 0,0 0,0.572486 -0.286242,0.858725 -0.286242,0 -0.286242,-0.286246 -0.57249,-0.286246 -0.28625,0 -0.286243,0.286246 -0.572491,0.286246 0,-0.286246 -0.286243,-0.572492 -0.572491,-0.286246 0,0.286246 -0.286242,0.572492 -0.572491,0.572492 -0.286241,0 0,-0.858725 -0.286241,-0.858725 -0.286243,0 -0.572491,0.572492 -0.572491,0.572492 -0.286243,0.28624 -0.286243,0 -0.572491,0 H 16.80155 c -1.43121,-1.144972 -1.717452,-0.286246 -2.289937,0 -0.286241,0.28624 -0.57249,0 -1.144967,-0.286246 -1.43121,0 -2.003694,2.289937 -4.29363,3.148662 z"
     fill="#4c4c4c"
     id="path1"
     style="stroke-width:0.0660762" />
  <path
     d="m 43.133489,48.297716 c 0,0 -3.434904,1.431211 -4.29363,2.862422 -0.858726,1.717451 -3.721146,2.576177 -4.293629,2.862423 -0.572491,0 -3.148663,1.144965 -3.148663,1.144965 0,0 4.866181,-0.286239 6.297654,-1.717451 1.43121,-1.144971 2.576179,-2.862422 3.148663,-3.148662 0.286242,0 0.57249,-0.572492 2.289935,-1.431211 1.43121,-0.572493 4.293631,-2.576178 4.293631,-2.576178 -1.43121,0.858727 -2.862421,1.431212 -4.293631,2.003692 z m -2.003694,-5.725168 c 1.43121,-0.572492 2.862421,0.858726 4.579872,1.717451 1.717452,1.717451 2.862421,1.717451 3.721146,2.289937 0.286243,0.28624 2.862421,0.28624 4.579872,1.431211 0.858727,0.572487 2.003696,1.431206 2.003696,1.431206 0.286241,0 -1.144969,-0.572486 -1.717453,-0.28624 -0.858727,0.28624 -2.289937,0.858726 -2.289937,1.431211 0,0.858726 -1.144967,1.717451 -1.717452,2.003691 -1.144967,1.431211 -3.721145,2.862423 -3.721145,2.862423 0,0 4.579872,-2.576177 5.152422,-3.434902 0.286241,-0.572492 1.717452,-2.003697 1.717452,-2.003697 0.286242,0 0.286242,-0.28624 0.57249,-0.28624 0.858727,0.28624 2.289936,0.28624 2.862421,0.572491 0.858725,0.572486 0.57249,0.286241 1.717451,0.572486 1.144962,0.286253 2.003695,0.858726 2.862421,1.431212 1.43121,0.858726 2.862421,2.003697 4.29363,3.148662 l -4.007389,-3.721148 c -0.286241,0 -4.007388,-1.717451 -4.579872,-2.289931 -0.858726,-0.286246 -2.289935,-1.144971 -2.576178,-1.717457 -0.286242,-0.28624 -1.144967,-0.858726 -2.003694,-0.858726 0,0 -2.289936,-0.286239 -2.86242,-0.572485 -0.572491,-0.572493 -1.717452,-0.858726 -2.289935,-0.858726 0,-0.286246 -0.286243,-0.572492 -0.286243,-0.572492 h 0.858726 c 3.434905,-0.858726 2.289936,-1.717451 4.293631,-2.576177 0,0 3.721146,-0.572492 6.011412,1.717451 6.86994,6.869941 9.446251,10.30524 20.037599,16.888409 -0.858726,-0.28624 -1.431205,0 -1.717451,0.572491 -0.572492,-0.858725 -1.144965,-1.43121 -1.431211,0 -0.28624,-0.572491 -0.858726,-0.572491 -1.144966,-0.286239 -0.286239,-0.572492 -0.572492,-0.286246 -0.858726,0 0.286241,-0.286246 -0.572491,-2.003697 -1.43121,-0.858732 h -0.572493 c -0.286239,-0.858726 -1.144965,0.286246 -1.431205,0.858732 -0.286246,-0.286246 -0.572492,-0.286246 -1.144972,0 -0.572491,-1.144971 -1.431208,-0.286246 -2.003693,0 0.286243,-0.286246 -0.286241,-1.144971 -0.572491,-1.431212 -0.286241,-0.286246 -0.286241,-0.572491 -0.286241,-0.858725 -0.858726,-0.286246 -1.144969,0.858725 -1.717452,0.858725 -0.572491,-0.286246 -1.144968,0 -1.43121,0.286241 -0.57249,0.572491 -0.858726,0 -1.43121,0 -2.003695,-1.144966 -1.717452,2.289936 -3.434904,0.572491 -1.43121,-1.144971 -2.289937,0.28624 -2.576179,0.28624 -3.721146,1.431211 -3.434903,-2.576177 -5.725171,-0.572492 0,0 -1.144967,-0.858726 -2.003694,0.286246 -1.431209,2.289937 -2.003693,0 -2.862419,0 -2.289936,-0.286246 -2.003694,-2.862423 -3.434904,-1.144972 -0.286242,0.286246 -0.572491,0.572492 -0.572491,0.858726 -0.286242,-0.286239 -0.572491,-0.286239 -0.858726,0 -0.286242,-0.286239 -0.572491,-0.572486 -0.858726,-0.286239 -0.858726,-1.144966 -1.144969,0.858725 -1.43121,1.144971 0.286241,-0.572492 -0.858726,-1.144971 -1.144969,0 -0.286241,-0.286246 -0.57249,-0.286246 -0.858725,0 -0.572491,0 -0.858727,0.286239 -1.144968,0.858726 0,-0.286246 0,-0.572492 -0.572491,-0.572492 -0.57249,-0.858726 -0.858726,-0.572493 -1.144969,-0.572493 0,-1.144965 -0.858725,-1.144965 -1.144967,-0.286239 h -0.286243 c -0.57249,-0.286246 -0.858725,-0.286246 -1.431209,0 -0.858726,-0.572492 -0.858726,-1.717451 -2.003694,-0.858726 0,0 -1.431211,-1.431211 -1.717452,0 -0.572491,-0.286246 -0.858727,0 -1.144969,1.144965 -0.57249,-1.144965 -1.144967,-0.286239 -1.43121,0.858726 -0.286241,-0.28624 -0.286241,-0.28624 -0.572491,0 0.286243,-0.28624 0,-1.431211 -0.858725,-0.858726 0,0 -0.286242,-0.286239 -0.57249,0 -0.286243,-0.286239 -0.286243,-0.286239 -0.572491,-0.286239 -0.286243,-0.572492 -0.858727,-0.286246 -1.43121,0 -0.286243,-2.003697 -1.43121,-0.572492 -1.43121,-0.286246 0,-0.28624 -0.858727,-0.28624 -1.144969,0.286246 0,-0.286246 -0.286241,-0.286246 -0.572491,-0.286246 5.152423,-4.293629 10.591352,-7.156051 14.884982,-10.018467 3.721146,-2.862424 4.007388,-4.579875 10.01847,-7.728934 z"
     fill="#4c4c4c"
     fill-rule="evenodd"
     id="path2"
     style="stroke-width:0.0660762" />
  <path
     d="m 63.171091,19.958966 c 1.717452,0 3.434904,1.431212 4.007388,3.148663 6.297657,-1.431212 7.442821,8.587262 0.858723,8.587262 -1.144965,0 -2.576174,-0.858726 -3.148659,-1.717451 -1.144968,2.28993 -4.007388,3.721141 -6.583897,2.576176 -0.858725,3.434903 -5.152421,4.579868 -7.728931,2.289938 -0.286242,0.286239 -0.858725,0.572485 -1.144967,0.572485 -1.717453,3.721149 -6.869941,1.717457 -4.866181,-2.003691 -2.289935,-3.148662 0.286243,-7.442823 4.007388,-7.156051 0,-5.438667 6.869941,-7.728933 10.018471,-3.434902 0,-0.286246 0.286242,-0.286246 0.572491,-0.286246 0.57249,-1.431212 2.003694,-2.576177 4.007387,-2.576177 z"
     fill="#4c4c4c"
     fill-rule="evenodd"
     id="path3"
     style="stroke-width:0.0660762" />
  <path
     d="M 48,40.568789 C 48,41.359388 47.359372,42 46.56879,42 c -0.790337,0 -1.43121,-0.64063 -1.43121,-1.431211 0,-0.790339 0.640886,-1.431211 1.43121,-1.431211 0.790602,0 1.43121,0.640884 1.43121,1.431211 z"
     fill="#4c4c4c"
     fill-rule="evenodd"
     id="path4"
     style="stroke-width:0.0660762" />
  <path
     d="m 43.42026,37.706366 c 0,0.316191 -0.256303,0.572492 -0.572491,0.572492 -0.316187,0 -0.572491,-0.256301 -0.572491,-0.572492 0,-0.316185 0.256304,-0.572492 0.572491,-0.572492 0.316188,0 0.572491,0.256307 0.572491,0.572492 z"
     fill="#4c4c4c"
     fill-rule="evenodd"
     id="path5"
     style="stroke-width:0.0660762" />
  <path
     d="m 51.14853,39.137578 c 0,0.474407 -0.384583,0.858725 -0.858726,0.858725 -0.474407,0 -0.858726,-0.384324 -0.858726,-0.858725 0,-0.474148 0.384325,-0.858726 0.858726,-0.858726 0.474149,0 0.858726,0.384584 0.858726,0.858726 z"
     fill="#4c4c4c"
     fill-rule="evenodd"
     id="path6"
     style="stroke-width:0.0660762" />
  <path
     d="m 43.99248,39.99657 c 0,0.381741 -0.572491,0.381741 -0.572491,0 0,-0.381743 0.572491,-0.381743 0.572491,0 z"
     fill="#4c4c4c"
     fill-rule="evenodd"
     id="path7"
     style="stroke-width:0.0660762" />
  <path
     d="m 55.44216,39.71046 c 0,0.381741 -0.572491,0.381741 -0.572491,0 0,-0.381742 0.572491,-0.381742 0.572491,0 z"
     fill="#4c4c4c"
     fill-rule="evenodd"
     id="path8"
     style="stroke-width:0.0660762" />
  <path
     d="m 57.160141,37.134146 c 0,0.316192 -0.256303,0.572493 -0.572491,0.572493 -0.316188,0 -0.57249,-0.256301 -0.57249,-0.572493 0,-0.316184 0.256302,-0.572491 0.57249,-0.572491 0.316188,0 0.572491,0.256307 0.572491,0.572491 z"
     fill="#4c4c4c"
     fill-rule="evenodd"
     id="path9"
     style="stroke-width:0.0660762" />
</svg>
